<svg width="300" height="200" viewBox="0 0 300 200" fill="none" xmlns="http://www.w3.org/2000/svg">
<rect width="300" height="50" fill="#6F7387"/>
<path d="M26.2988 28.1094V29H20.7148V28.2207L23.5098 25.1094C23.8535 24.7266 24.1191 24.4023 24.3066 24.1367C24.498 23.8672 24.6309 23.627 24.7051 23.416C24.7832 23.2012 24.8223 22.9824 24.8223 22.7598C24.8223 22.4785 24.7637 22.2246 24.6465 21.998C24.5332 21.7676 24.3652 21.584 24.1426 21.4473C23.9199 21.3105 23.6504 21.2422 23.334 21.2422C22.9551 21.2422 22.6387 21.3164 22.3848 21.4648C22.1348 21.6094 21.9473 21.8125 21.8223 22.0742C21.6973 22.3359 21.6348 22.6367 21.6348 22.9766H20.5508C20.5508 22.4961 20.6562 22.0566 20.8672 21.6582C21.0781 21.2598 21.3906 20.9434 21.8047 20.709C22.2188 20.4707 22.7285 20.3516 23.334 20.3516C23.873 20.3516 24.334 20.4473 24.7168 20.6387C25.0996 20.8262 25.3926 21.0918 25.5957 21.4355C25.8027 21.7754 25.9062 22.1738 25.9062 22.6309C25.9062 22.8809 25.8633 23.1348 25.7773 23.3926C25.6953 23.6465 25.5801 23.9004 25.4316 24.1543C25.2871 24.4082 25.1172 24.6582 24.9219 24.9043C24.7305 25.1504 24.5254 25.3926 24.3066 25.6309L22.0215 28.1094H26.2988ZM32.8145 24.0547V25.3555C32.8145 26.0547 32.752 26.6445 32.627 27.125C32.502 27.6055 32.3223 27.9922 32.0879 28.2852C31.8535 28.5781 31.5703 28.791 31.2383 28.9238C30.9102 29.0527 30.5391 29.1172 30.125 29.1172C29.7969 29.1172 29.4941 29.0762 29.2168 28.9941C28.9395 28.9121 28.6895 28.7812 28.4668 28.6016C28.248 28.418 28.0605 28.1797 27.9043 27.8867C27.748 27.5938 27.6289 27.2383 27.5469 26.8203C27.4648 26.4023 27.4238 25.9141 27.4238 25.3555V24.0547C27.4238 23.3555 27.4863 22.7695 27.6113 22.2969C27.7402 21.8242 27.9219 21.4453 28.1562 21.1602C28.3906 20.8711 28.6719 20.6641 29 20.5391C29.332 20.4141 29.7031 20.3516 30.1133 20.3516C30.4453 20.3516 30.75 20.3926 31.0273 20.4746C31.3086 20.5527 31.5586 20.6797 31.7773 20.8555C31.9961 21.0273 32.1816 21.2578 32.334 21.5469C32.4902 21.832 32.6094 22.1816 32.6914 22.5957C32.7734 23.0098 32.8145 23.4961 32.8145 24.0547ZM31.7246 25.5312V23.873C31.7246 23.4902 31.7012 23.1543 31.6543 22.8652C31.6113 22.5723 31.5469 22.3223 31.4609 22.1152C31.375 21.9082 31.2656 21.7402 31.1328 21.6113C31.0039 21.4824 30.8535 21.3887 30.6816 21.3301C30.5137 21.2676 30.3242 21.2363 30.1133 21.2363C29.8555 21.2363 29.627 21.2852 29.4277 21.3828C29.2285 21.4766 29.0605 21.627 28.9238 21.834C28.791 22.041 28.6895 22.3125 28.6191 22.6484C28.5488 22.9844 28.5137 23.3926 28.5137 23.873V25.5312C28.5137 25.9141 28.5352 26.252 28.5781 26.5449C28.625 26.8379 28.6934 27.0918 28.7832 27.3066C28.873 27.5176 28.9824 27.6914 29.1113 27.8281C29.2402 27.9648 29.3887 28.0664 29.5566 28.1328C29.7285 28.1953 29.918 28.2266 30.125 28.2266C30.3906 28.2266 30.623 28.1758 30.8223 28.0742C31.0215 27.9727 31.1875 27.8145 31.3203 27.5996C31.457 27.3809 31.5586 27.1016 31.625 26.7617C31.6914 26.418 31.7246 26.0078 31.7246 25.5312ZM39.5645 24.0547V25.3555C39.5645 26.0547 39.502 26.6445 39.377 27.125C39.252 27.6055 39.0723 27.9922 38.8379 28.2852C38.6035 28.5781 38.3203 28.791 37.9883 28.9238C37.6602 29.0527 37.2891 29.1172 36.875 29.1172C36.5469 29.1172 36.2441 29.0762 35.9668 28.9941C35.6895 28.9121 35.4395 28.7812 35.2168 28.6016C34.998 28.418 34.8105 28.1797 34.6543 27.8867C34.498 27.5938 34.3789 27.2383 34.2969 26.8203C34.2148 26.4023 34.1738 25.9141 34.1738 25.3555V24.0547C34.1738 23.3555 34.2363 22.7695 34.3613 22.2969C34.4902 21.8242 34.6719 21.4453 34.9062 21.1602C35.1406 20.8711 35.4219 20.6641 35.75 20.5391C36.082 20.4141 36.4531 20.3516 36.8633 20.3516C37.1953 20.3516 37.5 20.3926 37.7773 20.4746C38.0586 20.5527 38.3086 20.6797 38.5273 20.8555C38.7461 21.0273 38.9316 21.2578 39.084 21.5469C39.2402 21.832 39.3594 22.1816 39.4414 22.5957C39.5234 23.0098 39.5645 23.4961 39.5645 24.0547ZM38.4746 25.5312V23.873C38.4746 23.4902 38.4512 23.1543 38.4043 22.8652C38.3613 22.5723 38.2969 22.3223 38.2109 22.1152C38.125 21.9082 38.0156 21.7402 37.8828 21.6113C37.7539 21.4824 37.6035 21.3887 37.4316 21.3301C37.2637 21.2676 37.0742 21.2363 36.8633 21.2363C36.6055 21.2363 36.377 21.2852 36.1777 21.3828C35.9785 21.4766 35.8105 21.627 35.6738 21.834C35.541 22.041 35.4395 22.3125 35.3691 22.6484C35.2988 22.9844 35.2637 23.3926 35.2637 23.873V25.5312C35.2637 25.9141 35.2852 26.252 35.3281 26.5449C35.375 26.8379 35.4434 27.0918 35.5332 27.3066C35.623 27.5176 35.7324 27.6914 35.8613 27.8281C35.9902 27.9648 36.1387 28.0664 36.3066 28.1328C36.4785 28.1953 36.668 28.2266 36.875 28.2266C37.1406 28.2266 37.373 28.1758 37.5723 28.0742C37.7715 27.9727 37.9375 27.8145 38.0703 27.5996C38.207 27.3809 38.3086 27.1016 38.375 26.7617C38.4414 26.418 38.4746 26.0078 38.4746 25.5312Z" fill="white"/>
<path d="M233.857 29L235.516 20.4688H236.359L234.695 29H233.857ZM236.242 29L237.906 20.4688H238.744L237.08 29H236.242ZM239.459 23.7207H233.365V22.9062H239.459V23.7207ZM239.02 26.5977H232.92V25.7891H239.02V26.5977ZM244.486 20.457H244.58V21.377H244.486C243.912 21.377 243.432 21.4707 243.045 21.6582C242.658 21.8418 242.352 22.0898 242.125 22.4023C241.898 22.7109 241.734 23.0586 241.633 23.4453C241.535 23.832 241.486 24.2246 241.486 24.623V25.877C241.486 26.2559 241.531 26.5918 241.621 26.8848C241.711 27.1738 241.834 27.418 241.99 27.6172C242.146 27.8164 242.322 27.9668 242.518 28.0684C242.717 28.1699 242.924 28.2207 243.139 28.2207C243.389 28.2207 243.611 28.1738 243.807 28.0801C244.002 27.9824 244.166 27.8477 244.299 27.6758C244.436 27.5 244.539 27.293 244.609 27.0547C244.68 26.8164 244.715 26.5547 244.715 26.2695C244.715 26.0156 244.684 25.7715 244.621 25.5371C244.559 25.2988 244.463 25.0879 244.334 24.9043C244.205 24.7168 244.043 24.5703 243.848 24.4648C243.656 24.3555 243.428 24.3008 243.162 24.3008C242.861 24.3008 242.58 24.375 242.318 24.5234C242.061 24.668 241.848 24.8594 241.68 25.0977C241.516 25.332 241.422 25.5879 241.398 25.8652L240.824 25.8594C240.879 25.4219 240.98 25.0488 241.129 24.7402C241.281 24.4277 241.469 24.1738 241.691 23.9785C241.918 23.7793 242.17 23.6348 242.447 23.5449C242.729 23.4512 243.025 23.4043 243.338 23.4043C243.764 23.4043 244.131 23.4844 244.439 23.6445C244.748 23.8047 245.002 24.0195 245.201 24.2891C245.4 24.5547 245.547 24.8555 245.641 25.1914C245.738 25.5234 245.787 25.8652 245.787 26.2168C245.787 26.6191 245.73 26.9961 245.617 27.3477C245.504 27.6992 245.334 28.0078 245.107 28.2734C244.885 28.5391 244.609 28.7461 244.281 28.8945C243.953 29.043 243.572 29.1172 243.139 29.1172C242.678 29.1172 242.275 29.0234 241.932 28.8359C241.588 28.6445 241.303 28.3906 241.076 28.0742C240.85 27.7578 240.68 27.4062 240.566 27.0195C240.453 26.6328 240.396 26.2402 240.396 25.8418V25.332C240.396 24.7305 240.457 24.1406 240.578 23.5625C240.699 22.9844 240.908 22.4609 241.205 21.9922C241.506 21.5234 241.922 21.1504 242.453 20.873C242.984 20.5957 243.662 20.457 244.486 20.457ZM248.488 20.4688V29H247.357V20.4688H248.488ZM252.062 24.3066V25.2324H248.242V24.3066H252.062ZM252.643 20.4688V21.3945H248.242V20.4688H252.643ZM259.223 20.4688V21.0781L255.689 29H254.547L258.074 21.3594H253.457V20.4688H259.223ZM262.041 24.2012H262.814C263.193 24.2012 263.506 24.1387 263.752 24.0137C264.002 23.8848 264.188 23.7109 264.309 23.4922C264.434 23.2695 264.496 23.0195 264.496 22.7422C264.496 22.4141 264.441 22.1387 264.332 21.916C264.223 21.6934 264.059 21.5254 263.84 21.4121C263.621 21.2988 263.344 21.2422 263.008 21.2422C262.703 21.2422 262.434 21.3027 262.199 21.4238C261.969 21.541 261.787 21.709 261.654 21.9277C261.525 22.1465 261.461 22.4043 261.461 22.7012H260.377C260.377 22.2676 260.486 21.873 260.705 21.5176C260.924 21.1621 261.23 20.8789 261.625 20.668C262.023 20.457 262.484 20.3516 263.008 20.3516C263.523 20.3516 263.975 20.4434 264.361 20.627C264.748 20.8066 265.049 21.0762 265.264 21.4355C265.479 21.791 265.586 22.2344 265.586 22.7656C265.586 22.9805 265.535 23.2109 265.434 23.457C265.336 23.6992 265.182 23.9258 264.971 24.1367C264.764 24.3477 264.494 24.5215 264.162 24.6582C263.83 24.791 263.432 24.8574 262.967 24.8574H262.041V24.2012ZM262.041 25.0918V24.4414H262.967C263.51 24.4414 263.959 24.5059 264.314 24.6348C264.67 24.7637 264.949 24.9355 265.152 25.1504C265.359 25.3652 265.504 25.6016 265.586 25.8594C265.672 26.1133 265.715 26.3672 265.715 26.6211C265.715 27.0195 265.646 27.373 265.51 27.6816C265.377 27.9902 265.188 28.252 264.941 28.4668C264.699 28.6816 264.414 28.8438 264.086 28.9531C263.758 29.0625 263.4 29.1172 263.014 29.1172C262.643 29.1172 262.293 29.0645 261.965 28.959C261.641 28.8535 261.354 28.7012 261.104 28.502C260.854 28.2988 260.658 28.0508 260.518 27.7578C260.377 27.4609 260.307 27.123 260.307 26.7441H261.391C261.391 27.041 261.455 27.3008 261.584 27.5234C261.717 27.7461 261.904 27.9199 262.146 28.0449C262.393 28.166 262.682 28.2266 263.014 28.2266C263.346 28.2266 263.631 28.1699 263.869 28.0566C264.111 27.9395 264.297 27.7637 264.426 27.5293C264.559 27.2949 264.625 27 264.625 26.6445C264.625 26.2891 264.551 25.998 264.402 25.7715C264.254 25.541 264.043 25.3711 263.77 25.2617C263.5 25.1484 263.182 25.0918 262.814 25.0918H262.041ZM272.588 26.6914C272.588 27.2109 272.467 27.6523 272.225 28.0156C271.986 28.375 271.662 28.6484 271.252 28.8359C270.846 29.0234 270.387 29.1172 269.875 29.1172C269.363 29.1172 268.902 29.0234 268.492 28.8359C268.082 28.6484 267.758 28.375 267.52 28.0156C267.281 27.6523 267.162 27.2109 267.162 26.6914C267.162 26.3516 267.227 26.041 267.355 25.7598C267.488 25.4746 267.674 25.2266 267.912 25.0156C268.154 24.8047 268.439 24.6426 268.768 24.5293C269.1 24.4121 269.465 24.3535 269.863 24.3535C270.387 24.3535 270.854 24.4551 271.264 24.6582C271.674 24.8574 271.996 25.1328 272.23 25.4844C272.469 25.8359 272.588 26.2383 272.588 26.6914ZM271.498 26.668C271.498 26.3516 271.43 26.0723 271.293 25.8301C271.156 25.584 270.965 25.3926 270.719 25.2559C270.473 25.1191 270.188 25.0508 269.863 25.0508C269.531 25.0508 269.244 25.1191 269.002 25.2559C268.764 25.3926 268.578 25.584 268.445 25.8301C268.312 26.0723 268.246 26.3516 268.246 26.668C268.246 26.9961 268.311 27.2773 268.439 27.5117C268.572 27.7422 268.76 27.9199 269.002 28.0449C269.248 28.166 269.539 28.2266 269.875 28.2266C270.211 28.2266 270.5 28.166 270.742 28.0449C270.984 27.9199 271.17 27.7422 271.299 27.5117C271.432 27.2773 271.498 26.9961 271.498 26.668ZM272.389 22.6895C272.389 23.1035 272.279 23.4766 272.061 23.8086C271.842 24.1406 271.543 24.4023 271.164 24.5938C270.785 24.7852 270.355 24.8809 269.875 24.8809C269.387 24.8809 268.951 24.7852 268.568 24.5938C268.189 24.4023 267.893 24.1406 267.678 23.8086C267.463 23.4766 267.355 23.1035 267.355 22.6895C267.355 22.1934 267.463 21.7715 267.678 21.4238C267.896 21.0762 268.195 20.8105 268.574 20.627C268.953 20.4434 269.385 20.3516 269.869 20.3516C270.357 20.3516 270.791 20.4434 271.17 20.627C271.549 20.8105 271.846 21.0762 272.061 21.4238C272.279 21.7715 272.389 22.1934 272.389 22.6895ZM271.305 22.707C271.305 22.4219 271.244 22.1699 271.123 21.9512C271.002 21.7324 270.834 21.5605 270.619 21.4355C270.404 21.3066 270.154 21.2422 269.869 21.2422C269.584 21.2422 269.334 21.3027 269.119 21.4238C268.908 21.541 268.742 21.709 268.621 21.9277C268.504 22.1465 268.445 22.4062 268.445 22.707C268.445 23 268.504 23.2559 268.621 23.4746C268.742 23.6934 268.91 23.8633 269.125 23.9844C269.34 24.1055 269.59 24.166 269.875 24.166C270.16 24.166 270.408 24.1055 270.619 23.9844C270.834 23.8633 271.002 23.6934 271.123 23.4746C271.244 23.2559 271.305 23 271.305 22.707ZM279.473 20.4688V21.0781L275.939 29H274.797L278.324 21.3594H273.707V20.4688H279.473Z" fill="white"/>
<rect y="50" width="300" height="50" fill="#5D6071"/>
<path d="M22.291 74.2012H23.0645C23.4434 74.2012 23.7559 74.1387 24.002 74.0137C24.252 73.8848 24.4375 73.7109 24.5586 73.4922C24.6836 73.2695 24.7461 73.0195 24.7461 72.7422C24.7461 72.4141 24.6914 72.1387 24.582 71.916C24.4727 71.6934 24.3086 71.5254 24.0898 71.4121C23.8711 71.2988 23.5938 71.2422 23.2578 71.2422C22.9531 71.2422 22.6836 71.3027 22.4492 71.4238C22.2188 71.541 22.0371 71.709 21.9043 71.9277C21.7754 72.1465 21.7109 72.4043 21.7109 72.7012H20.627C20.627 72.2676 20.7363 71.873 20.9551 71.5176C21.1738 71.1621 21.4805 70.8789 21.875 70.668C22.2734 70.457 22.7344 70.3516 23.2578 70.3516C23.7734 70.3516 24.2246 70.4434 24.6113 70.627C24.998 70.8066 25.2988 71.0762 25.5137 71.4355C25.7285 71.791 25.8359 72.2344 25.8359 72.7656C25.8359 72.9805 25.7852 73.2109 25.6836 73.457C25.5859 73.6992 25.4316 73.9258 25.2207 74.1367C25.0137 74.3477 24.7441 74.5215 24.4121 74.6582C24.0801 74.791 23.6816 74.8574 23.2168 74.8574H22.291V74.2012ZM22.291 75.0918V74.4414H23.2168C23.7598 74.4414 24.209 74.5059 24.5645 74.6348C24.9199 74.7637 25.1992 74.9355 25.4023 75.1504C25.6094 75.3652 25.7539 75.6016 25.8359 75.8594C25.9219 76.1133 25.9648 76.3672 25.9648 76.6211C25.9648 77.0195 25.8965 77.373 25.7598 77.6816C25.627 77.9902 25.4375 78.252 25.1914 78.4668C24.9492 78.6816 24.6641 78.8438 24.3359 78.9531C24.0078 79.0625 23.6504 79.1172 23.2637 79.1172C22.8926 79.1172 22.543 79.0645 22.2148 78.959C21.8906 78.8535 21.6035 78.7012 21.3535 78.502C21.1035 78.2988 20.9082 78.0508 20.7676 77.7578C20.627 77.4609 20.5566 77.123 20.5566 76.7441H21.6406C21.6406 77.041 21.7051 77.3008 21.834 77.5234C21.9668 77.7461 22.1543 77.9199 22.3965 78.0449C22.6426 78.166 22.9316 78.2266 23.2637 78.2266C23.5957 78.2266 23.8809 78.1699 24.1191 78.0566C24.3613 77.9395 24.5469 77.7637 24.6758 77.5293C24.8086 77.2949 24.875 77 24.875 76.6445C24.875 76.2891 24.8008 75.998 24.6523 75.7715C24.5039 75.541 24.293 75.3711 24.0195 75.2617C23.75 75.1484 23.4316 75.0918 23.0645 75.0918H22.291ZM32.8145 74.0547V75.3555C32.8145 76.0547 32.752 76.6445 32.627 77.125C32.502 77.6055 32.3223 77.9922 32.0879 78.2852C31.8535 78.5781 31.5703 78.791 31.2383 78.9238C30.9102 79.0527 30.5391 79.1172 30.125 79.1172C29.7969 79.1172 29.4941 79.0762 29.2168 78.9941C28.9395 78.9121 28.6895 78.7812 28.4668 78.6016C28.248 78.418 28.0605 78.1797 27.9043 77.8867C27.748 77.5938 27.6289 77.2383 27.5469 76.8203C27.4648 76.4023 27.4238 75.9141 27.4238 75.3555V74.0547C27.4238 73.3555 27.4863 72.7695 27.6113 72.2969C27.7402 71.8242 27.9219 71.4453 28.1562 71.1602C28.3906 70.8711 28.6719 70.6641 29 70.5391C29.332 70.4141 29.7031 70.3516 30.1133 70.3516C30.4453 70.3516 30.75 70.3926 31.0273 70.4746C31.3086 70.5527 31.5586 70.6797 31.7773 70.8555C31.9961 71.0273 32.1816 71.2578 32.334 71.5469C32.4902 71.832 32.6094 72.1816 32.6914 72.5957C32.7734 73.0098 32.8145 73.4961 32.8145 74.0547ZM31.7246 75.5312V73.873C31.7246 73.4902 31.7012 73.1543 31.6543 72.8652C31.6113 72.5723 31.5469 72.3223 31.4609 72.1152C31.375 71.9082 31.2656 71.7402 31.1328 71.6113C31.0039 71.4824 30.8535 71.3887 30.6816 71.3301C30.5137 71.2676 30.3242 71.2363 30.1133 71.2363C29.8555 71.2363 29.627 71.2852 29.4277 71.3828C29.2285 71.4766 29.0605 71.627 28.9238 71.834C28.791 72.041 28.6895 72.3125 28.6191 72.6484C28.5488 72.9844 28.5137 73.3926 28.5137 73.873V75.5312C28.5137 75.9141 28.5352 76.252 28.5781 76.5449C28.625 76.8379 28.6934 77.0918 28.7832 77.3066C28.873 77.5176 28.9824 77.6914 29.1113 77.8281C29.2402 77.9648 29.3887 78.0664 29.5566 78.1328C29.7285 78.1953 29.918 78.2266 30.125 78.2266C30.3906 78.2266 30.623 78.1758 30.8223 78.0742C31.0215 77.9727 31.1875 77.8145 31.3203 77.5996C31.457 77.3809 31.5586 77.1016 31.625 76.7617C31.6914 76.418 31.7246 76.0078 31.7246 75.5312ZM39.5645 74.0547V75.3555C39.5645 76.0547 39.502 76.6445 39.377 77.125C39.252 77.6055 39.0723 77.9922 38.8379 78.2852C38.6035 78.5781 38.3203 78.791 37.9883 78.9238C37.6602 79.0527 37.2891 79.1172 36.875 79.1172C36.5469 79.1172 36.2441 79.0762 35.9668 78.9941C35.6895 78.9121 35.4395 78.7812 35.2168 78.6016C34.998 78.418 34.8105 78.1797 34.6543 77.8867C34.498 77.5938 34.3789 77.2383 34.2969 76.8203C34.2148 76.4023 34.1738 75.9141 34.1738 75.3555V74.0547C34.1738 73.3555 34.2363 72.7695 34.3613 72.2969C34.4902 71.8242 34.6719 71.4453 34.9062 71.1602C35.1406 70.8711 35.4219 70.6641 35.75 70.5391C36.082 70.4141 36.4531 70.3516 36.8633 70.3516C37.1953 70.3516 37.5 70.3926 37.7773 70.4746C38.0586 70.5527 38.3086 70.6797 38.5273 70.8555C38.7461 71.0273 38.9316 71.2578 39.084 71.5469C39.2402 71.832 39.3594 72.1816 39.4414 72.5957C39.5234 73.0098 39.5645 73.4961 39.5645 74.0547ZM38.4746 75.5312V73.873C38.4746 73.4902 38.4512 73.1543 38.4043 72.8652C38.3613 72.5723 38.2969 72.3223 38.2109 72.1152C38.125 71.9082 38.0156 71.7402 37.8828 71.6113C37.7539 71.4824 37.6035 71.3887 37.4316 71.3301C37.2637 71.2676 37.0742 71.2363 36.8633 71.2363C36.6055 71.2363 36.377 71.2852 36.1777 71.3828C35.9785 71.4766 35.8105 71.627 35.6738 71.834C35.541 72.041 35.4395 72.3125 35.3691 72.6484C35.2988 72.9844 35.2637 73.3926 35.2637 73.873V75.5312C35.2637 75.9141 35.2852 76.252 35.3281 76.5449C35.375 76.8379 35.4434 77.0918 35.5332 77.3066C35.623 77.5176 35.7324 77.6914 35.8613 77.8281C35.9902 77.9648 36.1387 78.0664 36.3066 78.1328C36.4785 78.1953 36.668 78.2266 36.875 78.2266C37.1406 78.2266 37.373 78.1758 37.5723 78.0742C37.7715 77.9727 37.9375 77.8145 38.0703 77.5996C38.207 77.3809 38.3086 77.1016 38.375 76.7617C38.4414 76.418 38.4746 76.0078 38.4746 75.5312Z" fill="white"/>
<path d="M232.615 79L234.273 70.4688H235.117L233.453 79H232.615ZM235 79L236.664 70.4688H237.502L235.838 79H235ZM238.217 73.7207H232.123V72.9062H238.217V73.7207ZM237.777 76.5977H231.678V75.7891H237.777V76.5977ZM240.455 74.9395L239.588 74.7168L240.016 70.4688H244.393V71.4707H240.936L240.678 73.791C240.834 73.7012 241.031 73.6172 241.27 73.5391C241.512 73.4609 241.789 73.4219 242.102 73.4219C242.496 73.4219 242.85 73.4902 243.162 73.627C243.475 73.7598 243.74 73.9512 243.959 74.2012C244.182 74.4512 244.352 74.752 244.469 75.1035C244.586 75.4551 244.645 75.8477 244.645 76.2812C244.645 76.6914 244.588 77.0684 244.475 77.4121C244.365 77.7559 244.199 78.0566 243.977 78.3145C243.754 78.5684 243.473 78.7656 243.133 78.9062C242.797 79.0469 242.4 79.1172 241.943 79.1172C241.6 79.1172 241.273 79.0703 240.965 78.9766C240.66 78.8789 240.387 78.7324 240.145 78.5371C239.906 78.3379 239.711 78.0918 239.559 77.7988C239.41 77.502 239.316 77.1543 239.277 76.7559H240.309C240.355 77.0762 240.449 77.3457 240.59 77.5645C240.73 77.7832 240.914 77.9492 241.141 78.0625C241.371 78.1719 241.639 78.2266 241.943 78.2266C242.201 78.2266 242.43 78.1816 242.629 78.0918C242.828 78.002 242.996 77.873 243.133 77.7051C243.27 77.5371 243.373 77.334 243.443 77.0957C243.518 76.8574 243.555 76.5898 243.555 76.293C243.555 76.0234 243.518 75.7734 243.443 75.543C243.369 75.3125 243.258 75.1113 243.109 74.9395C242.965 74.7676 242.787 74.6348 242.576 74.541C242.365 74.4434 242.123 74.3945 241.85 74.3945C241.486 74.3945 241.211 74.4434 241.023 74.541C240.84 74.6387 240.65 74.7715 240.455 74.9395ZM248.424 79H246.643L246.654 78.0801H248.424C249.033 78.0801 249.541 77.9531 249.947 77.6992C250.354 77.4414 250.658 77.082 250.861 76.6211C251.068 76.1562 251.172 75.6133 251.172 74.9922V74.4707C251.172 73.9824 251.113 73.5488 250.996 73.1699C250.879 72.7871 250.707 72.4648 250.48 72.2031C250.254 71.9375 249.977 71.7363 249.648 71.5996C249.324 71.4629 248.951 71.3945 248.529 71.3945H246.607V70.4688H248.529C249.088 70.4688 249.598 70.5625 250.059 70.75C250.52 70.9336 250.916 71.2012 251.248 71.5527C251.584 71.9004 251.842 72.3223 252.021 72.8184C252.201 73.3105 252.291 73.8652 252.291 74.4824V74.9922C252.291 75.6094 252.201 76.166 252.021 76.6621C251.842 77.1543 251.582 77.5742 251.242 77.9219C250.906 78.2695 250.5 78.5371 250.023 78.7246C249.551 78.9082 249.018 79 248.424 79ZM247.246 70.4688V79H246.115V70.4688H247.246ZM257.869 70.457H257.963V71.377H257.869C257.295 71.377 256.814 71.4707 256.428 71.6582C256.041 71.8418 255.734 72.0898 255.508 72.4023C255.281 72.7109 255.117 73.0586 255.016 73.4453C254.918 73.832 254.869 74.2246 254.869 74.623V75.877C254.869 76.2559 254.914 76.5918 255.004 76.8848C255.094 77.1738 255.217 77.418 255.373 77.6172C255.529 77.8164 255.705 77.9668 255.9 78.0684C256.1 78.1699 256.307 78.2207 256.521 78.2207C256.771 78.2207 256.994 78.1738 257.189 78.0801C257.385 77.9824 257.549 77.8477 257.682 77.6758C257.818 77.5 257.922 77.293 257.992 77.0547C258.062 76.8164 258.098 76.5547 258.098 76.2695C258.098 76.0156 258.066 75.7715 258.004 75.5371C257.941 75.2988 257.846 75.0879 257.717 74.9043C257.588 74.7168 257.426 74.5703 257.23 74.4648C257.039 74.3555 256.811 74.3008 256.545 74.3008C256.244 74.3008 255.963 74.375 255.701 74.5234C255.443 74.668 255.23 74.8594 255.062 75.0977C254.898 75.332 254.805 75.5879 254.781 75.8652L254.207 75.8594C254.262 75.4219 254.363 75.0488 254.512 74.7402C254.664 74.4277 254.852 74.1738 255.074 73.9785C255.301 73.7793 255.553 73.6348 255.83 73.5449C256.111 73.4512 256.408 73.4043 256.721 73.4043C257.146 73.4043 257.514 73.4844 257.822 73.6445C258.131 73.8047 258.385 74.0195 258.584 74.2891C258.783 74.5547 258.93 74.8555 259.023 75.1914C259.121 75.5234 259.17 75.8652 259.17 76.2168C259.17 76.6191 259.113 76.9961 259 77.3477C258.887 77.6992 258.717 78.0078 258.49 78.2734C258.268 78.5391 257.992 78.7461 257.664 78.8945C257.336 79.043 256.955 79.1172 256.521 79.1172C256.061 79.1172 255.658 79.0234 255.314 78.8359C254.971 78.6445 254.686 78.3906 254.459 78.0742C254.232 77.7578 254.062 77.4062 253.949 77.0195C253.836 76.6328 253.779 76.2402 253.779 75.8418V75.332C253.779 74.7305 253.84 74.1406 253.961 73.5625C254.082 72.9844 254.291 72.4609 254.588 71.9922C254.889 71.5234 255.305 71.1504 255.836 70.873C256.367 70.5957 257.045 70.457 257.869 70.457ZM265.814 74.0547V75.3555C265.814 76.0547 265.752 76.6445 265.627 77.125C265.502 77.6055 265.322 77.9922 265.088 78.2852C264.854 78.5781 264.57 78.791 264.238 78.9238C263.91 79.0527 263.539 79.1172 263.125 79.1172C262.797 79.1172 262.494 79.0762 262.217 78.9941C261.939 78.9121 261.689 78.7812 261.467 78.6016C261.248 78.418 261.061 78.1797 260.904 77.8867C260.748 77.5938 260.629 77.2383 260.547 76.8203C260.465 76.4023 260.424 75.9141 260.424 75.3555V74.0547C260.424 73.3555 260.486 72.7695 260.611 72.2969C260.74 71.8242 260.922 71.4453 261.156 71.1602C261.391 70.8711 261.672 70.6641 262 70.5391C262.332 70.4141 262.703 70.3516 263.113 70.3516C263.445 70.3516 263.75 70.3926 264.027 70.4746C264.309 70.5527 264.559 70.6797 264.777 70.8555C264.996 71.0273 265.182 71.2578 265.334 71.5469C265.49 71.832 265.609 72.1816 265.691 72.5957C265.773 73.0098 265.814 73.4961 265.814 74.0547ZM264.725 75.5312V73.873C264.725 73.4902 264.701 73.1543 264.654 72.8652C264.611 72.5723 264.547 72.3223 264.461 72.1152C264.375 71.9082 264.266 71.7402 264.133 71.6113C264.004 71.4824 263.854 71.3887 263.682 71.3301C263.514 71.2676 263.324 71.2363 263.113 71.2363C262.855 71.2363 262.627 71.2852 262.428 71.3828C262.229 71.4766 262.061 71.627 261.924 71.834C261.791 72.041 261.689 72.3125 261.619 72.6484C261.549 72.9844 261.514 73.3926 261.514 73.873V75.5312C261.514 75.9141 261.535 76.252 261.578 76.5449C261.625 76.8379 261.693 77.0918 261.783 77.3066C261.873 77.5176 261.982 77.6914 262.111 77.8281C262.24 77.9648 262.389 78.0664 262.557 78.1328C262.729 78.1953 262.918 78.2266 263.125 78.2266C263.391 78.2266 263.623 78.1758 263.822 78.0742C264.021 77.9727 264.188 77.8145 264.32 77.5996C264.457 77.3809 264.559 77.1016 264.625 76.7617C264.691 76.418 264.725 76.0078 264.725 75.5312ZM272.723 70.4688V71.0781L269.189 79H268.047L271.574 71.3594H266.957V70.4688H272.723ZM277.521 70.4219V79H276.438V71.7754L274.252 72.5723V71.5938L277.352 70.4219H277.521Z" fill="white"/>
<rect y="100" width="300" height="50" fill="#4A4D5A"/>
<path d="M26.4746 126.129V127.02H20.3105V126.381L24.1309 120.469H25.0156L24.0664 122.18L21.541 126.129H26.4746ZM25.2852 120.469V129H24.2012V120.469H25.2852ZM32.8145 124.055V125.355C32.8145 126.055 32.752 126.645 32.627 127.125C32.502 127.605 32.3223 127.992 32.0879 128.285C31.8535 128.578 31.5703 128.791 31.2383 128.924C30.9102 129.053 30.5391 129.117 30.125 129.117C29.7969 129.117 29.4941 129.076 29.2168 128.994C28.9395 128.912 28.6895 128.781 28.4668 128.602C28.248 128.418 28.0605 128.18 27.9043 127.887C27.748 127.594 27.6289 127.238 27.5469 126.82C27.4648 126.402 27.4238 125.914 27.4238 125.355V124.055C27.4238 123.355 27.4863 122.77 27.6113 122.297C27.7402 121.824 27.9219 121.445 28.1562 121.16C28.3906 120.871 28.6719 120.664 29 120.539C29.332 120.414 29.7031 120.352 30.1133 120.352C30.4453 120.352 30.75 120.393 31.0273 120.475C31.3086 120.553 31.5586 120.68 31.7773 120.855C31.9961 121.027 32.1816 121.258 32.334 121.547C32.4902 121.832 32.6094 122.182 32.6914 122.596C32.7734 123.01 32.8145 123.496 32.8145 124.055ZM31.7246 125.531V123.873C31.7246 123.49 31.7012 123.154 31.6543 122.865C31.6113 122.572 31.5469 122.322 31.4609 122.115C31.375 121.908 31.2656 121.74 31.1328 121.611C31.0039 121.482 30.8535 121.389 30.6816 121.33C30.5137 121.268 30.3242 121.236 30.1133 121.236C29.8555 121.236 29.627 121.285 29.4277 121.383C29.2285 121.477 29.0605 121.627 28.9238 121.834C28.791 122.041 28.6895 122.312 28.6191 122.648C28.5488 122.984 28.5137 123.393 28.5137 123.873V125.531C28.5137 125.914 28.5352 126.252 28.5781 126.545C28.625 126.838 28.6934 127.092 28.7832 127.307C28.873 127.518 28.9824 127.691 29.1113 127.828C29.2402 127.965 29.3887 128.066 29.5566 128.133C29.7285 128.195 29.918 128.227 30.125 128.227C30.3906 128.227 30.623 128.176 30.8223 128.074C31.0215 127.973 31.1875 127.814 31.3203 127.6C31.457 127.381 31.5586 127.102 31.625 126.762C31.6914 126.418 31.7246 126.008 31.7246 125.531ZM39.5645 124.055V125.355C39.5645 126.055 39.502 126.645 39.377 127.125C39.252 127.605 39.0723 127.992 38.8379 128.285C38.6035 128.578 38.3203 128.791 37.9883 128.924C37.6602 129.053 37.2891 129.117 36.875 129.117C36.5469 129.117 36.2441 129.076 35.9668 128.994C35.6895 128.912 35.4395 128.781 35.2168 128.602C34.998 128.418 34.8105 128.18 34.6543 127.887C34.498 127.594 34.3789 127.238 34.2969 126.82C34.2148 126.402 34.1738 125.914 34.1738 125.355V124.055C34.1738 123.355 34.2363 122.77 34.3613 122.297C34.4902 121.824 34.6719 121.445 34.9062 121.16C35.1406 120.871 35.4219 120.664 35.75 120.539C36.082 120.414 36.4531 120.352 36.8633 120.352C37.1953 120.352 37.5 120.393 37.7773 120.475C38.0586 120.553 38.3086 120.68 38.5273 120.855C38.7461 121.027 38.9316 121.258 39.084 121.547C39.2402 121.832 39.3594 122.182 39.4414 122.596C39.5234 123.01 39.5645 123.496 39.5645 124.055ZM38.4746 125.531V123.873C38.4746 123.49 38.4512 123.154 38.4043 122.865C38.3613 122.572 38.2969 122.322 38.2109 122.115C38.125 121.908 38.0156 121.74 37.8828 121.611C37.7539 121.482 37.6035 121.389 37.4316 121.33C37.2637 121.268 37.0742 121.236 36.8633 121.236C36.6055 121.236 36.377 121.285 36.1777 121.383C35.9785 121.477 35.8105 121.627 35.6738 121.834C35.541 122.041 35.4395 122.312 35.3691 122.648C35.2988 122.984 35.2637 123.393 35.2637 123.873V125.531C35.2637 125.914 35.2852 126.252 35.3281 126.545C35.375 126.838 35.4434 127.092 35.5332 127.307C35.623 127.518 35.7324 127.691 35.8613 127.828C35.9902 127.965 36.1387 128.066 36.3066 128.133C36.4785 128.195 36.668 128.227 36.875 128.227C37.1406 128.227 37.373 128.176 37.5723 128.074C37.7715 127.973 37.9375 127.814 38.0703 127.6C38.207 127.381 38.3086 127.102 38.375 126.762C38.4414 126.418 38.4746 126.008 38.4746 125.531Z" fill="white"/>
<path d="M230.459 129L232.117 120.469H232.961L231.297 129H230.459ZM232.844 129L234.508 120.469H235.346L233.682 129H232.844ZM236.061 123.721H229.967V122.906H236.061V123.721ZM235.621 126.598H229.521V125.789H235.621V126.598ZM242.693 126.129V127.02H236.529V126.381L240.35 120.469H241.234L240.285 122.18L237.76 126.129H242.693ZM241.504 120.469V129H240.42V120.469H241.504ZM247.117 121.225L244.293 129H243.139L246.391 120.469H247.135L247.117 121.225ZM249.484 129L246.654 121.225L246.637 120.469H247.381L250.645 129H249.484ZM249.338 125.842V126.768H244.545V125.842H249.338ZM257.271 126.129V127.02H251.107V126.381L254.928 120.469H255.812L254.863 122.18L252.338 126.129H257.271ZM256.082 120.469V129H254.998V120.469H256.082ZM260.846 129H259.064L259.076 128.08H260.846C261.455 128.08 261.963 127.953 262.369 127.699C262.775 127.441 263.08 127.082 263.283 126.621C263.49 126.156 263.594 125.613 263.594 124.992V124.471C263.594 123.982 263.535 123.549 263.418 123.17C263.301 122.787 263.129 122.465 262.902 122.203C262.676 121.938 262.398 121.736 262.07 121.6C261.746 121.463 261.373 121.395 260.951 121.395H259.029V120.469H260.951C261.51 120.469 262.02 120.562 262.48 120.75C262.941 120.934 263.338 121.201 263.67 121.553C264.006 121.9 264.264 122.322 264.443 122.818C264.623 123.311 264.713 123.865 264.713 124.482V124.992C264.713 125.609 264.623 126.166 264.443 126.662C264.264 127.154 264.004 127.574 263.664 127.922C263.328 128.27 262.922 128.537 262.445 128.725C261.973 128.908 261.439 129 260.846 129ZM259.668 120.469V129H258.537V120.469H259.668ZM267.502 124.939L266.635 124.717L267.062 120.469H271.439V121.471H267.982L267.725 123.791C267.881 123.701 268.078 123.617 268.316 123.539C268.559 123.461 268.836 123.422 269.148 123.422C269.543 123.422 269.896 123.49 270.209 123.627C270.521 123.76 270.787 123.951 271.006 124.201C271.229 124.451 271.398 124.752 271.516 125.104C271.633 125.455 271.691 125.848 271.691 126.281C271.691 126.691 271.635 127.068 271.521 127.412C271.412 127.756 271.246 128.057 271.023 128.314C270.801 128.568 270.52 128.766 270.18 128.906C269.844 129.047 269.447 129.117 268.99 129.117C268.646 129.117 268.32 129.07 268.012 128.977C267.707 128.879 267.434 128.732 267.191 128.537C266.953 128.338 266.758 128.092 266.605 127.799C266.457 127.502 266.363 127.154 266.324 126.756H267.355C267.402 127.076 267.496 127.346 267.637 127.564C267.777 127.783 267.961 127.949 268.188 128.062C268.418 128.172 268.686 128.227 268.99 128.227C269.248 128.227 269.477 128.182 269.676 128.092C269.875 128.002 270.043 127.873 270.18 127.705C270.316 127.537 270.42 127.334 270.49 127.096C270.564 126.857 270.602 126.59 270.602 126.293C270.602 126.023 270.564 125.773 270.49 125.543C270.416 125.312 270.305 125.111 270.156 124.939C270.012 124.768 269.834 124.635 269.623 124.541C269.412 124.443 269.17 124.395 268.896 124.395C268.533 124.395 268.258 124.443 268.07 124.541C267.887 124.639 267.697 124.771 267.502 124.939ZM276.32 121.225L273.496 129H272.342L275.594 120.469H276.338L276.32 121.225ZM278.688 129L275.857 121.225L275.84 120.469H276.584L279.848 129H278.688ZM278.541 125.842V126.768H273.748V125.842H278.541Z" fill="white"/>
<rect y="150" width="300" height="50" fill="#383A44"/>
<path d="M22.0801 174.939L21.2129 174.717L21.6406 170.469H26.0176V171.471H22.5605L22.3027 173.791C22.459 173.701 22.6562 173.617 22.8945 173.539C23.1367 173.461 23.4141 173.422 23.7266 173.422C24.1211 173.422 24.4746 173.49 24.7871 173.627C25.0996 173.76 25.3652 173.951 25.584 174.201C25.8066 174.451 25.9766 174.752 26.0938 175.104C26.2109 175.455 26.2695 175.848 26.2695 176.281C26.2695 176.691 26.2129 177.068 26.0996 177.412C25.9902 177.756 25.8242 178.057 25.6016 178.314C25.3789 178.568 25.0977 178.766 24.7578 178.906C24.4219 179.047 24.0254 179.117 23.5684 179.117C23.2246 179.117 22.8984 179.07 22.5898 178.977C22.2852 178.879 22.0117 178.732 21.7695 178.537C21.5312 178.338 21.3359 178.092 21.1836 177.799C21.0352 177.502 20.9414 177.154 20.9023 176.756H21.9336C21.9805 177.076 22.0742 177.346 22.2148 177.564C22.3555 177.783 22.5391 177.949 22.7656 178.062C22.9961 178.172 23.2637 178.227 23.5684 178.227C23.8262 178.227 24.0547 178.182 24.2539 178.092C24.4531 178.002 24.6211 177.873 24.7578 177.705C24.8945 177.537 24.998 177.334 25.0684 177.096C25.1426 176.857 25.1797 176.59 25.1797 176.293C25.1797 176.023 25.1426 175.773 25.0684 175.543C24.9941 175.312 24.8828 175.111 24.7344 174.939C24.5898 174.768 24.4121 174.635 24.2012 174.541C23.9902 174.443 23.748 174.395 23.4746 174.395C23.1113 174.395 22.8359 174.443 22.6484 174.541C22.4648 174.639 22.2754 174.771 22.0801 174.939ZM32.8145 174.055V175.355C32.8145 176.055 32.752 176.645 32.627 177.125C32.502 177.605 32.3223 177.992 32.0879 178.285C31.8535 178.578 31.5703 178.791 31.2383 178.924C30.9102 179.053 30.5391 179.117 30.125 179.117C29.7969 179.117 29.4941 179.076 29.2168 178.994C28.9395 178.912 28.6895 178.781 28.4668 178.602C28.248 178.418 28.0605 178.18 27.9043 177.887C27.748 177.594 27.6289 177.238 27.5469 176.82C27.4648 176.402 27.4238 175.914 27.4238 175.355V174.055C27.4238 173.355 27.4863 172.77 27.6113 172.297C27.7402 171.824 27.9219 171.445 28.1562 171.16C28.3906 170.871 28.6719 170.664 29 170.539C29.332 170.414 29.7031 170.352 30.1133 170.352C30.4453 170.352 30.75 170.393 31.0273 170.475C31.3086 170.553 31.5586 170.68 31.7773 170.855C31.9961 171.027 32.1816 171.258 32.334 171.547C32.4902 171.832 32.6094 172.182 32.6914 172.596C32.7734 173.01 32.8145 173.496 32.8145 174.055ZM31.7246 175.531V173.873C31.7246 173.49 31.7012 173.154 31.6543 172.865C31.6113 172.572 31.5469 172.322 31.4609 172.115C31.375 171.908 31.2656 171.74 31.1328 171.611C31.0039 171.482 30.8535 171.389 30.6816 171.33C30.5137 171.268 30.3242 171.236 30.1133 171.236C29.8555 171.236 29.627 171.285 29.4277 171.383C29.2285 171.477 29.0605 171.627 28.9238 171.834C28.791 172.041 28.6895 172.312 28.6191 172.648C28.5488 172.984 28.5137 173.393 28.5137 173.873V175.531C28.5137 175.914 28.5352 176.252 28.5781 176.545C28.625 176.838 28.6934 177.092 28.7832 177.307C28.873 177.518 28.9824 177.691 29.1113 177.828C29.2402 177.965 29.3887 178.066 29.5566 178.133C29.7285 178.195 29.918 178.227 30.125 178.227C30.3906 178.227 30.623 178.176 30.8223 178.074C31.0215 177.973 31.1875 177.814 31.3203 177.6C31.457 177.381 31.5586 177.102 31.625 176.762C31.6914 176.418 31.7246 176.008 31.7246 175.531ZM39.5645 174.055V175.355C39.5645 176.055 39.502 176.645 39.377 177.125C39.252 177.605 39.0723 177.992 38.8379 178.285C38.6035 178.578 38.3203 178.791 37.9883 178.924C37.6602 179.053 37.2891 179.117 36.875 179.117C36.5469 179.117 36.2441 179.076 35.9668 178.994C35.6895 178.912 35.4395 178.781 35.2168 178.602C34.998 178.418 34.8105 178.18 34.6543 177.887C34.498 177.594 34.3789 177.238 34.2969 176.82C34.2148 176.402 34.1738 175.914 34.1738 175.355V174.055C34.1738 173.355 34.2363 172.77 34.3613 172.297C34.4902 171.824 34.6719 171.445 34.9062 171.16C35.1406 170.871 35.4219 170.664 35.75 170.539C36.082 170.414 36.4531 170.352 36.8633 170.352C37.1953 170.352 37.5 170.393 37.7773 170.475C38.0586 170.553 38.3086 170.68 38.5273 170.855C38.7461 171.027 38.9316 171.258 39.084 171.547C39.2402 171.832 39.3594 172.182 39.4414 172.596C39.5234 173.01 39.5645 173.496 39.5645 174.055ZM38.4746 175.531V173.873C38.4746 173.49 38.4512 173.154 38.4043 172.865C38.3613 172.572 38.2969 172.322 38.2109 172.115C38.125 171.908 38.0156 171.74 37.8828 171.611C37.7539 171.482 37.6035 171.389 37.4316 171.33C37.2637 171.268 37.0742 171.236 36.8633 171.236C36.6055 171.236 36.377 171.285 36.1777 171.383C35.9785 171.477 35.8105 171.627 35.6738 171.834C35.541 172.041 35.4395 172.312 35.3691 172.648C35.2988 172.984 35.2637 173.393 35.2637 173.873V175.531C35.2637 175.914 35.2852 176.252 35.3281 176.545C35.375 176.838 35.4434 177.092 35.5332 177.307C35.623 177.518 35.7324 177.691 35.8613 177.828C35.9902 177.965 36.1387 178.066 36.3066 178.133C36.4785 178.195 36.668 178.227 36.875 178.227C37.1406 178.227 37.373 178.176 37.5723 178.074C37.7715 177.973 37.9375 177.814 38.0703 177.6C38.207 177.381 38.3086 177.102 38.375 176.762C38.4414 176.418 38.4746 176.008 38.4746 175.531Z" fill="white"/>
<path d="M232.662 179L234.32 170.469H235.164L233.5 179H232.662ZM235.047 179L236.711 170.469H237.549L235.885 179H235.047ZM238.264 173.721H232.17V172.906H238.264V173.721ZM237.824 176.598H231.725V175.789H237.824V176.598ZM240.713 174.201H241.486C241.865 174.201 242.178 174.139 242.424 174.014C242.674 173.885 242.859 173.711 242.98 173.492C243.105 173.27 243.168 173.02 243.168 172.742C243.168 172.414 243.113 172.139 243.004 171.916C242.895 171.693 242.73 171.525 242.512 171.412C242.293 171.299 242.016 171.242 241.68 171.242C241.375 171.242 241.105 171.303 240.871 171.424C240.641 171.541 240.459 171.709 240.326 171.928C240.197 172.146 240.133 172.404 240.133 172.701H239.049C239.049 172.268 239.158 171.873 239.377 171.518C239.596 171.162 239.902 170.879 240.297 170.668C240.695 170.457 241.156 170.352 241.68 170.352C242.195 170.352 242.646 170.443 243.033 170.627C243.42 170.807 243.721 171.076 243.936 171.436C244.15 171.791 244.258 172.234 244.258 172.766C244.258 172.98 244.207 173.211 244.105 173.457C244.008 173.699 243.854 173.926 243.643 174.137C243.436 174.348 243.166 174.521 242.834 174.658C242.502 174.791 242.104 174.857 241.639 174.857H240.713V174.201ZM240.713 175.092V174.441H241.639C242.182 174.441 242.631 174.506 242.986 174.635C243.342 174.764 243.621 174.936 243.824 175.15C244.031 175.365 244.176 175.602 244.258 175.859C244.344 176.113 244.387 176.367 244.387 176.621C244.387 177.02 244.318 177.373 244.182 177.682C244.049 177.99 243.859 178.252 243.613 178.467C243.371 178.682 243.086 178.844 242.758 178.953C242.43 179.062 242.072 179.117 241.686 179.117C241.314 179.117 240.965 179.064 240.637 178.959C240.312 178.854 240.025 178.701 239.775 178.502C239.525 178.299 239.33 178.051 239.189 177.758C239.049 177.461 238.979 177.123 238.979 176.744H240.062C240.062 177.041 240.127 177.301 240.256 177.523C240.389 177.746 240.576 177.92 240.818 178.045C241.064 178.166 241.354 178.227 241.686 178.227C242.018 178.227 242.303 178.17 242.541 178.057C242.783 177.939 242.969 177.764 243.098 177.529C243.23 177.295 243.297 177 243.297 176.645C243.297 176.289 243.223 175.998 243.074 175.771C242.926 175.541 242.715 175.371 242.441 175.262C242.172 175.148 241.854 175.092 241.486 175.092H240.713ZM251.26 176.691C251.26 177.211 251.139 177.652 250.896 178.016C250.658 178.375 250.334 178.648 249.924 178.836C249.518 179.023 249.059 179.117 248.547 179.117C248.035 179.117 247.574 179.023 247.164 178.836C246.754 178.648 246.43 178.375 246.191 178.016C245.953 177.652 245.834 177.211 245.834 176.691C245.834 176.352 245.898 176.041 246.027 175.76C246.16 175.475 246.346 175.227 246.584 175.016C246.826 174.805 247.111 174.643 247.439 174.529C247.771 174.412 248.137 174.354 248.535 174.354C249.059 174.354 249.525 174.455 249.936 174.658C250.346 174.857 250.668 175.133 250.902 175.484C251.141 175.836 251.26 176.238 251.26 176.691ZM250.17 176.668C250.17 176.352 250.102 176.072 249.965 175.83C249.828 175.584 249.637 175.393 249.391 175.256C249.145 175.119 248.859 175.051 248.535 175.051C248.203 175.051 247.916 175.119 247.674 175.256C247.436 175.393 247.25 175.584 247.117 175.83C246.984 176.072 246.918 176.352 246.918 176.668C246.918 176.996 246.982 177.277 247.111 177.512C247.244 177.742 247.432 177.92 247.674 178.045C247.92 178.166 248.211 178.227 248.547 178.227C248.883 178.227 249.172 178.166 249.414 178.045C249.656 177.92 249.842 177.742 249.971 177.512C250.104 177.277 250.17 176.996 250.17 176.668ZM251.061 172.689C251.061 173.104 250.951 173.477 250.732 173.809C250.514 174.141 250.215 174.402 249.836 174.594C249.457 174.785 249.027 174.881 248.547 174.881C248.059 174.881 247.623 174.785 247.24 174.594C246.861 174.402 246.564 174.141 246.35 173.809C246.135 173.477 246.027 173.104 246.027 172.689C246.027 172.193 246.135 171.771 246.35 171.424C246.568 171.076 246.867 170.811 247.246 170.627C247.625 170.443 248.057 170.352 248.541 170.352C249.029 170.352 249.463 170.443 249.842 170.627C250.221 170.811 250.518 171.076 250.732 171.424C250.951 171.771 251.061 172.193 251.061 172.689ZM249.977 172.707C249.977 172.422 249.916 172.17 249.795 171.951C249.674 171.732 249.506 171.561 249.291 171.436C249.076 171.307 248.826 171.242 248.541 171.242C248.256 171.242 248.006 171.303 247.791 171.424C247.58 171.541 247.414 171.709 247.293 171.928C247.176 172.146 247.117 172.406 247.117 172.707C247.117 173 247.176 173.256 247.293 173.475C247.414 173.693 247.582 173.863 247.797 173.984C248.012 174.105 248.262 174.166 248.547 174.166C248.832 174.166 249.08 174.105 249.291 173.984C249.506 173.863 249.674 173.693 249.795 173.475C249.916 173.256 249.977 173 249.977 172.707ZM254.213 174.201H254.986C255.365 174.201 255.678 174.139 255.924 174.014C256.174 173.885 256.359 173.711 256.48 173.492C256.605 173.27 256.668 173.02 256.668 172.742C256.668 172.414 256.613 172.139 256.504 171.916C256.395 171.693 256.23 171.525 256.012 171.412C255.793 171.299 255.516 171.242 255.18 171.242C254.875 171.242 254.605 171.303 254.371 171.424C254.141 171.541 253.959 171.709 253.826 171.928C253.697 172.146 253.633 172.404 253.633 172.701H252.549C252.549 172.268 252.658 171.873 252.877 171.518C253.096 171.162 253.402 170.879 253.797 170.668C254.195 170.457 254.656 170.352 255.18 170.352C255.695 170.352 256.146 170.443 256.533 170.627C256.92 170.807 257.221 171.076 257.436 171.436C257.65 171.791 257.758 172.234 257.758 172.766C257.758 172.98 257.707 173.211 257.605 173.457C257.508 173.699 257.354 173.926 257.143 174.137C256.936 174.348 256.666 174.521 256.334 174.658C256.002 174.791 255.604 174.857 255.139 174.857H254.213V174.201ZM254.213 175.092V174.441H255.139C255.682 174.441 256.131 174.506 256.486 174.635C256.842 174.764 257.121 174.936 257.324 175.15C257.531 175.365 257.676 175.602 257.758 175.859C257.844 176.113 257.887 176.367 257.887 176.621C257.887 177.02 257.818 177.373 257.682 177.682C257.549 177.99 257.359 178.252 257.113 178.467C256.871 178.682 256.586 178.844 256.258 178.953C255.93 179.062 255.572 179.117 255.186 179.117C254.814 179.117 254.465 179.064 254.137 178.959C253.812 178.854 253.525 178.701 253.275 178.502C253.025 178.299 252.83 178.051 252.689 177.758C252.549 177.461 252.479 177.123 252.479 176.744H253.562C253.562 177.041 253.627 177.301 253.756 177.523C253.889 177.746 254.076 177.92 254.318 178.045C254.564 178.166 254.854 178.227 255.186 178.227C255.518 178.227 255.803 178.17 256.041 178.057C256.283 177.939 256.469 177.764 256.598 177.529C256.73 177.295 256.797 177 256.797 176.645C256.797 176.289 256.723 175.998 256.574 175.771C256.426 175.541 256.215 175.371 255.941 175.262C255.672 175.148 255.354 175.092 254.986 175.092H254.213ZM262.82 171.225L259.996 179H258.842L262.094 170.469H262.838L262.82 171.225ZM265.188 179L262.357 171.225L262.34 170.469H263.084L266.348 179H265.188ZM265.041 175.842V176.768H260.248V175.842H265.041ZM272.975 176.129V177.02H266.811V176.381L270.631 170.469H271.516L270.566 172.18L268.041 176.129H272.975ZM271.785 170.469V179H270.701V170.469H271.785ZM279.725 176.129V177.02H273.561V176.381L277.381 170.469H278.266L277.316 172.18L274.791 176.129H279.725ZM278.535 170.469V179H277.451V170.469H278.535Z" fill="white"/>
</svg>
