<svg width="38" height="14" viewBox="0 0 38 14" fill="none" xmlns="http://www.w3.org/2000/svg">
<path d="M0.957031 0.00778199L2.22852 0.007782L2.22852 9.07224L2.11914 10.5078L0.957031 10.5078L0.957031 0.00778199ZM7.22559 6.74802L7.22559 6.89157C7.22559 7.42933 7.16178 7.92835 7.03418 8.38864C6.90658 8.84437 6.71973 9.24085 6.47363 9.57809C6.22754 9.91533 5.92676 10.1774 5.57129 10.3642C5.21582 10.5511 4.80794 10.6445 4.34766 10.6445C3.87826 10.6445 3.46582 10.5647 3.11035 10.4052C2.75944 10.2412 2.46322 10.0065 2.22168 9.70114C1.98014 9.3958 1.78646 9.02666 1.64062 8.59372C1.49935 8.16078 1.40137 7.67315 1.34668 7.13083L1.34668 6.50192C1.40137 5.95505 1.49935 5.46514 1.64062 5.0322C1.78646 4.59925 1.98014 4.23011 2.22168 3.92477C2.46322 3.61488 2.75944 3.38018 3.11035 3.22067C3.46126 3.05661 3.86914 2.97458 4.33398 2.97458C4.79883 2.97458 5.21126 3.06572 5.57129 3.24802C5.93131 3.42575 6.2321 3.68096 6.47363 4.01364C6.71973 4.34632 6.90658 4.74509 7.03418 5.20993C7.16178 5.67022 7.22559 6.18291 7.22559 6.74802ZM5.9541 6.89157L5.9541 6.74802C5.9541 6.37888 5.91992 6.03252 5.85156 5.70895C5.7832 5.38083 5.67383 5.09372 5.52344 4.84763C5.37305 4.59697 5.1748 4.40101 4.92871 4.25974C4.68262 4.1139 4.37956 4.04099 4.01953 4.04099C3.70052 4.04099 3.42253 4.09567 3.18555 4.20505C2.95312 4.31442 2.75488 4.46253 2.59082 4.64938C2.42676 4.83168 2.29232 5.04131 2.1875 5.27829C2.08724 5.51071 2.01204 5.75225 1.96191 6.0029L1.96191 7.65036C2.03483 7.96937 2.15332 8.27699 2.31738 8.57321C2.486 8.86488 2.70931 9.10414 2.9873 9.29099C3.26986 9.47783 3.61849 9.57126 4.0332 9.57126C4.375 9.57126 4.66667 9.5029 4.9082 9.36618C5.1543 9.2249 5.35254 9.03122 5.50293 8.78513C5.65788 8.53903 5.77181 8.2542 5.84473 7.93063C5.91764 7.60707 5.9541 7.26071 5.9541 6.89157ZM8.52523 6.89157L8.52523 6.73434C8.52523 6.20114 8.60271 5.70668 8.75766 5.25095C8.9126 4.79066 9.13591 4.3919 9.42758 4.05466C9.71924 3.71286 10.0724 3.44854 10.4871 3.26169C10.9019 3.07028 11.3667 2.97458 11.8817 2.97458C12.4012 2.97458 12.8683 3.07028 13.283 3.26169C13.7023 3.44854 14.0578 3.71286 14.3495 4.05466C14.6457 4.3919 14.8713 4.79066 15.0262 5.25095C15.1812 5.70668 15.2586 6.20114 15.2586 6.73434L15.2586 6.89157C15.2586 7.42477 15.1812 7.91924 15.0262 8.37497C14.8713 8.8307 14.6457 9.22946 14.3495 9.57126C14.0578 9.9085 13.7046 10.1728 13.2899 10.3642C12.8797 10.5511 12.4149 10.6445 11.8954 10.6445C11.3758 10.6445 10.9087 10.5511 10.494 10.3642C10.0793 10.1728 9.7238 9.9085 9.42758 9.57126C9.13591 9.22946 8.9126 8.8307 8.75766 8.37497C8.60271 7.91924 8.52523 7.42477 8.52523 6.89157ZM9.78988 6.73434L9.78988 6.89157C9.78988 7.26071 9.83318 7.60934 9.91977 7.93747C10.0064 8.26104 10.1362 8.54815 10.3094 8.7988C10.4871 9.04945 10.7082 9.24769 10.9725 9.39352C11.2368 9.5348 11.5444 9.60544 11.8954 9.60544C12.2417 9.60544 12.5448 9.5348 12.8045 9.39352C13.0689 9.24769 13.2876 9.04945 13.4608 8.7988C13.634 8.54815 13.7638 8.26104 13.8504 7.93747C13.9416 7.60934 13.9871 7.26071 13.9871 6.89157L13.9871 6.73434C13.9871 6.36976 13.9416 6.02569 13.8504 5.70212C13.7638 5.37399 13.6317 5.0846 13.4539 4.83395C13.2808 4.57875 13.062 4.37822 12.7977 4.23239C12.5379 4.08656 12.2326 4.01364 11.8817 4.01364C11.5353 4.01364 11.23 4.08656 10.9657 4.23239C10.7059 4.37822 10.4871 4.57875 10.3094 4.83395C10.1362 5.0846 10.0064 5.37399 9.91977 5.70212C9.83318 6.02569 9.78988 6.36976 9.78988 6.73434ZM21.5417 9.07224L21.5417 0.00778213L22.8132 0.00778214L22.8132 10.5078L21.6511 10.5078L21.5417 9.07224ZM16.5651 6.89157L16.5651 6.74802C16.5651 6.18291 16.6335 5.67022 16.7702 5.20993C16.9115 4.74509 17.1097 4.34632 17.3649 4.01364C17.6247 3.68096 17.9323 3.42575 18.2878 3.24802C18.6478 3.06572 19.0488 2.97458 19.4909 2.97458C19.9557 2.97458 20.3613 3.05661 20.7077 3.22067C21.0586 3.38018 21.3548 3.61488 21.5964 3.92477C21.8425 4.23011 22.0361 4.59925 22.1774 5.0322C22.3187 5.46514 22.4167 5.95505 22.4714 6.50192L22.4714 7.13083C22.4212 7.67315 22.3233 8.16078 22.1774 8.59372C22.0361 9.02666 21.8425 9.3958 21.5964 9.70114C21.3548 10.0065 21.0586 10.2412 20.7077 10.4052C20.3568 10.5647 19.9466 10.6445 19.4772 10.6445C19.0443 10.6445 18.6478 10.5511 18.2878 10.3642C17.9323 10.1774 17.6247 9.91533 17.3649 9.57809C17.1097 9.24086 16.9115 8.84437 16.7702 8.38864C16.6335 7.92836 16.5651 7.42933 16.5651 6.89157ZM17.8366 6.74802L17.8366 6.89157C17.8366 7.26071 17.8731 7.60707 17.946 7.93063C18.0235 8.2542 18.1419 8.53903 18.3014 8.78513C18.461 9.03122 18.6637 9.2249 18.9098 9.36618C19.1559 9.5029 19.4499 9.57126 19.7917 9.57126C20.211 9.57126 20.555 9.48239 20.8239 9.30466C21.0973 9.12692 21.3161 8.89222 21.4802 8.60056C21.6442 8.30889 21.7718 7.99216 21.863 7.65036L21.863 6.0029C21.8083 5.75225 21.7285 5.51071 21.6237 5.27829C21.5235 5.04131 21.3913 4.83168 21.2272 4.64938C21.0677 4.46253 20.8695 4.31442 20.6325 4.20505C20.4001 4.09567 20.1244 4.04099 19.8054 4.04099C19.459 4.04099 19.1605 4.1139 18.9098 4.25974C18.6637 4.40101 18.461 4.59697 18.3014 4.84763C18.1419 5.09372 18.0235 5.38083 17.946 5.70895C17.8731 6.03252 17.8366 6.37888 17.8366 6.74802ZM26.895 9.74216L28.9527 3.1113L30.3062 3.1113L27.3394 11.6494C27.271 11.8317 27.1799 12.0276 27.0659 12.2373C26.9566 12.4515 26.8153 12.6543 26.6421 12.8457C26.4689 13.0371 26.2593 13.192 26.0132 13.3105C25.7717 13.4336 25.4823 13.4951 25.145 13.4951C25.0448 13.4951 24.9172 13.4814 24.7622 13.4541C24.6073 13.4267 24.4979 13.4039 24.4341 13.3857L24.4273 12.3603C24.4637 12.3649 24.5207 12.3694 24.5982 12.374C24.6802 12.3831 24.7372 12.3877 24.7691 12.3877C25.0562 12.3877 25.3 12.3489 25.5005 12.2715C25.701 12.1985 25.8696 12.0732 26.0064 11.8955C26.1476 11.7223 26.2684 11.483 26.3687 11.1777L26.895 9.74216ZM25.3843 3.1113L27.3052 8.85349L27.6333 10.1865L26.7241 10.6513L24.0034 3.1113L25.3843 3.1113ZM37.8675 9.46872L37.8675 10.5078L31.3529 10.5078L31.3529 9.5986L34.6136 5.96872C35.0147 5.52211 35.3246 5.14385 35.5433 4.83395C35.7666 4.5195 35.9216 4.23923 36.0082 3.99313C36.0993 3.74248 36.1449 3.48727 36.1449 3.22751C36.1449 2.89938 36.0765 2.60316 35.9398 2.33884C35.8076 2.06996 35.6117 1.85576 35.3519 1.69626C35.0921 1.53675 34.7777 1.457 34.4086 1.457C33.9665 1.457 33.5974 1.54359 33.3011 1.71677C33.0095 1.88539 32.7907 2.12237 32.6449 2.4277C32.499 2.73304 32.4261 3.08395 32.4261 3.48044L31.1615 3.48044C31.1615 2.91989 31.2845 2.4072 31.5306 1.94235C31.7767 1.47751 32.1413 1.10837 32.6244 0.834931C33.1074 0.556936 33.7022 0.417938 34.4086 0.417938C35.0375 0.417938 35.5752 0.529592 36.0218 0.752899C36.4684 0.971649 36.8102 1.28155 37.0472 1.68259C37.2888 2.07907 37.4095 2.54392 37.4095 3.07712C37.4095 3.36878 37.3594 3.66501 37.2591 3.96579C37.1634 4.26201 37.029 4.55824 36.8558 4.85446C36.6872 5.15069 36.489 5.44235 36.2611 5.72946C36.0378 6.01657 35.7985 6.29912 35.5433 6.57712L32.8773 9.46872L37.8675 9.46872Z" fill="#3A3A3C"/>
</svg>
