<svg width="43" height="16" viewBox="0 0 43 16" fill="none" xmlns="http://www.w3.org/2000/svg">
<path d="M0.976562 0.40625L2.85937 0.40625L2.85937 10.6016L2.67969 12.4063L0.976562 12.4063L0.976562 0.40625ZM8.375 8.10156L8.375 8.26563C8.375 8.89063 8.30469 9.46615 8.16406 9.99219C8.02865 10.513 7.82031 10.9661 7.53906 11.3516C7.26302 11.737 6.91927 12.0365 6.50781 12.25C6.10156 12.4583 5.63021 12.5625 5.09375 12.5625C4.56771 12.5625 4.10937 12.4635 3.71875 12.2656C3.32812 12.0677 3 11.7865 2.73437 11.4219C2.47396 11.0573 2.26302 10.6224 2.10156 10.1172C1.9401 9.61198 1.82552 9.05469 1.75781 8.44531L1.75781 7.92188C1.82552 7.30729 1.9401 6.75 2.10156 6.25C2.26302 5.74479 2.47396 5.3099 2.73437 4.94531C3 4.57552 3.32552 4.29167 3.71094 4.09375C4.10156 3.89583 4.55729 3.79688 5.07812 3.79688C5.61979 3.79688 6.09635 3.90104 6.50781 4.10938C6.92448 4.31771 7.27083 4.61458 7.54687 5C7.82292 5.38021 8.02865 5.83333 8.16406 6.35938C8.30469 6.88542 8.375 7.46615 8.375 8.10156ZM6.49219 8.26563L6.49219 8.10156C6.49219 7.72135 6.46094 7.36458 6.39844 7.03125C6.33594 6.69271 6.23177 6.39583 6.08594 6.14063C5.94531 5.88542 5.7526 5.6849 5.50781 5.53906C5.26823 5.38802 4.96875 5.3125 4.60937 5.3125C4.27604 5.3125 3.98958 5.36979 3.75 5.48438C3.51042 5.59896 3.3099 5.75521 3.14844 5.95313C2.98698 6.15104 2.85937 6.38021 2.76562 6.64063C2.67708 6.90104 2.61719 7.18229 2.58594 7.48438L2.58594 8.89844C2.63281 9.28906 2.73177 9.64844 2.88281 9.97656C3.03906 10.2995 3.25781 10.5599 3.53906 10.7578C3.82031 10.9505 4.18229 11.0469 4.625 11.0469C4.97396 11.0469 5.26823 10.9766 5.50781 10.8359C5.7474 10.6953 5.9375 10.5 6.07812 10.25C6.22396 9.99479 6.32812 9.69792 6.39062 9.35938C6.45833 9.02083 6.49219 8.65625 6.49219 8.26563ZM9.92937 8.27344L9.92937 8.09375C9.92937 7.48438 10.0179 6.91927 10.195 6.39844C10.3721 5.8724 10.6273 5.41667 10.9606 5.03125C11.2992 4.64063 11.7106 4.33854 12.195 4.125C12.6846 3.90625 13.2367 3.79688 13.8512 3.79688C14.471 3.79688 15.0231 3.90625 15.5075 4.125C15.9971 4.33854 16.4111 4.64063 16.7497 5.03125C17.0882 5.41667 17.346 5.8724 17.5231 6.39844C17.7002 6.91927 17.7887 7.48438 17.7887 8.09375L17.7887 8.27344C17.7887 8.88281 17.7002 9.44792 17.5231 9.96875C17.346 10.4896 17.0882 10.9453 16.7497 11.3359C16.4111 11.7214 15.9997 12.0234 15.5153 12.2422C15.0309 12.4557 14.4815 12.5625 13.8669 12.5625C13.2471 12.5625 12.6924 12.4557 12.2028 12.2422C11.7184 12.0234 11.307 11.7214 10.9684 11.3359C10.6299 10.9453 10.3721 10.4896 10.195 9.96875C10.0179 9.44792 9.92937 8.88281 9.92937 8.27344ZM11.8122 8.09375L11.8122 8.27344C11.8122 8.65365 11.8512 9.01302 11.9294 9.35156C12.0075 9.6901 12.1299 9.98698 12.2966 10.2422C12.4632 10.4974 12.6768 10.6979 12.9372 10.8438C13.1976 10.9896 13.5075 11.0625 13.8669 11.0625C14.2158 11.0625 14.5179 10.9896 14.7731 10.8438C15.0335 10.6979 15.2471 10.4974 15.4137 10.2422C15.5804 9.98698 15.7028 9.6901 15.7809 9.35156C15.8643 9.01302 15.9059 8.65365 15.9059 8.27344L15.9059 8.09375C15.9059 7.71875 15.8643 7.36458 15.7809 7.03125C15.7028 6.69271 15.5778 6.39323 15.4059 6.13281C15.2393 5.8724 15.0257 5.66927 14.7653 5.52344C14.5101 5.3724 14.2054 5.29688 13.8512 5.29688C13.4971 5.29688 13.1898 5.3724 12.9294 5.52344C12.6742 5.66927 12.4632 5.8724 12.2966 6.13281C12.1299 6.39323 12.0075 6.69271 11.9294 7.03125C11.8512 7.36458 11.8122 7.71875 11.8122 8.09375ZM24.8431 10.6563L24.8431 0.40625L26.7337 0.40625L26.7337 12.4063L25.0228 12.4063L24.8431 10.6563ZM19.3431 8.27344L19.3431 8.10938C19.3431 7.46875 19.4186 6.88542 19.5697 6.35938C19.7207 5.82813 19.9395 5.3724 20.2259 4.99219C20.5124 4.60677 20.8614 4.3125 21.2728 4.10938C21.6843 3.90104 22.1478 3.79688 22.6634 3.79688C23.1739 3.79688 23.6218 3.89583 24.0072 4.09375C24.3926 4.29167 24.7207 4.57552 24.9916 4.94531C25.2624 5.3099 25.4785 5.7474 25.64 6.25781C25.8015 6.76302 25.916 7.32552 25.9837 7.94531L25.9837 8.46875C25.916 9.07292 25.8015 9.625 25.64 10.125C25.4785 10.625 25.2624 11.0573 24.9916 11.4219C24.7207 11.7865 24.39 12.0677 23.9994 12.2656C23.614 12.4635 23.1634 12.5625 22.6478 12.5625C22.1374 12.5625 21.6765 12.4557 21.265 12.2422C20.8587 12.0286 20.5124 11.7292 20.2259 11.3438C19.9395 10.9583 19.7207 10.5052 19.5697 9.98438C19.4186 9.45833 19.3431 8.88802 19.3431 8.27344ZM21.2259 8.10938L21.2259 8.27344C21.2259 8.65885 21.2598 9.01823 21.3275 9.35156C21.4004 9.6849 21.5124 9.97917 21.6634 10.2344C21.8145 10.4844 22.0098 10.6823 22.2494 10.8281C22.4942 10.9688 22.7858 11.0391 23.1244 11.0391C23.5515 11.0391 23.903 10.9453 24.1791 10.7578C24.4551 10.5703 24.6712 10.3177 24.8275 10C24.989 9.67708 25.0983 9.31771 25.1556 8.92188L25.1556 7.50781C25.1244 7.20052 25.0593 6.91406 24.9603 6.64844C24.8666 6.38281 24.739 6.15104 24.5775 5.95313C24.416 5.75 24.2155 5.59375 23.9759 5.48438C23.7416 5.36979 23.4629 5.3125 23.14 5.3125C22.7962 5.3125 22.5046 5.38542 22.265 5.53125C22.0254 5.67708 21.8275 5.8776 21.6712 6.13281C21.5202 6.38802 21.4082 6.6849 21.3353 7.02344C21.2624 7.36198 21.2259 7.72396 21.2259 8.10938ZM31.4756 11.4844L33.7725 3.95313L35.7881 3.95313L32.3975 13.6953C32.3194 13.9036 32.2178 14.1302 32.0928 14.375C31.9678 14.6198 31.8037 14.8516 31.6006 15.0703C31.4027 15.2943 31.1553 15.474 30.8584 15.6094C30.5616 15.75 30.2022 15.8203 29.7803 15.8203C29.6136 15.8203 29.4522 15.8047 29.2959 15.7734C29.1449 15.7474 29.0017 15.7188 28.8662 15.6875L28.8584 14.25C28.9105 14.2552 28.973 14.2604 29.0459 14.2656C29.1241 14.2708 29.1866 14.2734 29.2334 14.2734C29.5459 14.2734 29.8064 14.2344 30.0147 14.1563C30.223 14.0833 30.3923 13.9635 30.5225 13.7969C30.6579 13.6302 30.7725 13.4063 30.8662 13.125L31.4756 11.4844ZM30.1787 3.95313L32.1866 10.2813L32.5225 12.2656L31.2178 12.6016L28.1475 3.95313L30.1787 3.95313ZM42.2175 0.992188L42.2175 12.4063L40.3347 12.4063L40.3347 3.22656L37.5456 4.17188L37.5456 2.61719L41.9909 0.992188L42.2175 0.992188Z" fill="#3A3A3C"/>
</svg>
