<svg width="33" height="13" viewBox="0 0 33 13" fill="none" xmlns="http://www.w3.org/2000/svg">
<path d="M0.732422 0.609344L2.14453 0.609344L2.14453 8.25583L2.00977 9.60934L0.732422 9.60934L0.732422 0.609344ZM6.28125 6.38083L6.28125 6.50388C6.28125 6.97263 6.22852 7.40427 6.12305 7.7988C6.02148 8.18942 5.86523 8.52927 5.6543 8.81833C5.44727 9.10739 5.18945 9.332 4.88086 9.49216C4.57617 9.64841 4.22266 9.72653 3.82031 9.72653C3.42578 9.72653 3.08203 9.65231 2.78906 9.50388C2.49609 9.35544 2.25 9.1445 2.05078 8.87106C1.85547 8.59763 1.69727 8.27145 1.57617 7.89255C1.45508 7.51364 1.36914 7.09567 1.31836 6.63864L1.31836 6.24606C1.36914 5.78513 1.45508 5.36716 1.57617 4.99216C1.69727 4.61325 1.85547 4.28708 2.05078 4.01364C2.25 3.7363 2.49414 3.52341 2.7832 3.37497C3.07617 3.22653 3.41797 3.15231 3.80859 3.15231C4.21484 3.15231 4.57227 3.23044 4.88086 3.38669C5.19336 3.54294 5.45312 3.76559 5.66016 4.05466C5.86719 4.33981 6.02148 4.67966 6.12305 5.07419C6.22852 5.46872 6.28125 5.90427 6.28125 6.38083ZM4.86914 6.50388L4.86914 6.38083C4.86914 6.09567 4.8457 5.82809 4.79883 5.57809C4.75195 5.32419 4.67383 5.10153 4.56445 4.91013C4.45898 4.71872 4.31445 4.56833 4.13086 4.45895C3.95117 4.34567 3.72656 4.28903 3.45703 4.28903C3.20703 4.28903 2.99219 4.332 2.8125 4.41794C2.63281 4.50388 2.48242 4.62106 2.36133 4.7695C2.24023 4.91794 2.14453 5.08981 2.07422 5.28513C2.00781 5.48044 1.96289 5.69138 1.93945 5.91794L1.93945 6.97849C1.97461 7.27145 2.04883 7.54099 2.16211 7.78708C2.2793 8.02927 2.44336 8.22458 2.6543 8.37302C2.86523 8.51755 3.13672 8.58981 3.46875 8.58981C3.73047 8.58981 3.95117 8.53708 4.13086 8.43161C4.31055 8.32614 4.45312 8.17966 4.55859 7.99216C4.66797 7.80075 4.74609 7.57809 4.79297 7.32419C4.84375 7.07028 4.86914 6.79684 4.86914 6.50388ZM7.23703 6.50974L7.23703 6.37497C7.23703 5.91794 7.30344 5.49411 7.43625 5.10349C7.56906 4.70895 7.76047 4.36716 8.01047 4.07809C8.26438 3.78513 8.57297 3.55856 8.93625 3.39841C9.30344 3.23434 9.7175 3.15231 10.1784 3.15231C10.6433 3.15231 11.0573 3.23434 11.4206 3.39841C11.7878 3.55856 12.0984 3.78513 12.3523 4.07809C12.6062 4.36716 12.7995 4.70895 12.9323 5.10349C13.0652 5.49411 13.1316 5.91794 13.1316 6.37497L13.1316 6.50974C13.1316 6.96677 13.0652 7.39059 12.9323 7.78122C12.7995 8.17184 12.6062 8.51364 12.3523 8.80661C12.0984 9.09567 11.7898 9.32224 11.4265 9.4863C11.0632 9.64645 10.6511 9.72653 10.1902 9.72653C9.72531 9.72653 9.3093 9.64645 8.94211 9.4863C8.57883 9.32224 8.27023 9.09567 8.01633 8.80661C7.76242 8.51364 7.56906 8.17184 7.43625 7.78122C7.30344 7.39059 7.23703 6.96677 7.23703 6.50974ZM8.64914 6.37497L8.64914 6.50974C8.64914 6.79489 8.67844 7.06442 8.73703 7.31833C8.79563 7.57224 8.88742 7.79489 9.01242 7.9863C9.13742 8.1777 9.29758 8.32809 9.49289 8.43747C9.6882 8.54684 9.92063 8.60153 10.1902 8.60153C10.4519 8.60153 10.6784 8.54684 10.8698 8.43747C11.0652 8.32809 11.2253 8.1777 11.3503 7.9863C11.4753 7.79489 11.5671 7.57224 11.6257 7.31833C11.6882 7.06442 11.7195 6.79489 11.7195 6.50974L11.7195 6.37497C11.7195 6.09372 11.6882 5.82809 11.6257 5.57809C11.5671 5.32419 11.4734 5.09958 11.3445 4.90427C11.2195 4.70895 11.0593 4.55661 10.864 4.44724C10.6726 4.33395 10.4441 4.27731 10.1784 4.27731C9.91281 4.27731 9.68234 4.33395 9.48703 4.44724C9.29563 4.55661 9.13742 4.70895 9.01242 4.90427C8.88742 5.09958 8.79563 5.32419 8.73703 5.57809C8.67844 5.82809 8.64914 6.09372 8.64914 6.37497ZM18.2123 8.29684L18.2123 0.609345L19.6303 0.609345L19.6303 9.60934L18.3471 9.60934L18.2123 8.29684ZM14.0873 6.50974L14.0873 6.38669C14.0873 5.90622 14.144 5.46872 14.2573 5.07419C14.3705 4.67575 14.5346 4.33395 14.7495 4.0488C14.9643 3.75974 15.226 3.53903 15.5346 3.38669C15.8432 3.23044 16.1909 3.15231 16.5776 3.15231C16.9604 3.15231 17.2963 3.22653 17.5854 3.37497C17.8745 3.52341 18.1205 3.7363 18.3237 4.01364C18.5268 4.28708 18.6889 4.6152 18.81 4.99802C18.9311 5.37692 19.017 5.7988 19.0678 6.26364L19.0678 6.65622C19.017 7.10934 18.9311 7.52341 18.81 7.89841C18.6889 8.27341 18.5268 8.59763 18.3237 8.87106C18.1205 9.1445 17.8725 9.35544 17.5795 9.50388C17.2905 9.65231 16.9526 9.72653 16.5659 9.72653C16.183 9.72653 15.8373 9.64645 15.5288 9.4863C15.2241 9.32614 14.9643 9.10153 14.7495 8.81247C14.5346 8.52341 14.3705 8.18356 14.2573 7.79294C14.144 7.39841 14.0873 6.97067 14.0873 6.50974ZM15.4995 6.38669L15.4995 6.50974C15.4995 6.7988 15.5248 7.06833 15.5756 7.31833C15.6303 7.56833 15.7143 7.78903 15.8276 7.98044C15.9409 8.16794 16.0873 8.31638 16.267 8.42575C16.4506 8.53122 16.6694 8.58395 16.9233 8.58395C17.2436 8.58395 17.5073 8.51364 17.7143 8.37302C17.9213 8.23239 18.0834 8.04294 18.2006 7.80466C18.3217 7.56247 18.4038 7.29294 18.4467 6.99606L18.4467 5.93552C18.4233 5.70505 18.3745 5.4902 18.3002 5.29099C18.2299 5.09177 18.1342 4.91794 18.0131 4.7695C17.892 4.61716 17.7416 4.49997 17.562 4.41794C17.3862 4.332 17.1772 4.28903 16.935 4.28903C16.6772 4.28903 16.4584 4.34372 16.2788 4.45309C16.0991 4.56247 15.9506 4.71286 15.8334 4.90427C15.7202 5.09567 15.6362 5.31833 15.5815 5.57224C15.5268 5.82614 15.4995 6.09763 15.4995 6.38669ZM22.9767 8.91794L24.6994 3.2695L26.2111 3.2695L23.6681 10.5761C23.6095 10.7324 23.5334 10.9023 23.4396 11.0859C23.3459 11.2695 23.2228 11.4433 23.0705 11.6074C22.922 11.7754 22.7365 11.9101 22.5138 12.0117C22.2912 12.1172 22.0216 12.1699 21.7052 12.1699C21.5802 12.1699 21.4591 12.1582 21.342 12.1347C21.2287 12.1152 21.1212 12.0937 21.0197 12.0703L21.0138 10.9922C21.0529 10.9961 21.0998 11 21.1545 11.0039C21.213 11.0078 21.2599 11.0097 21.2951 11.0097C21.5295 11.0097 21.7248 10.9804 21.881 10.9218C22.0373 10.8672 22.1642 10.7773 22.2619 10.6523C22.3634 10.5273 22.4494 10.3593 22.5197 10.1484L22.9767 8.91794ZM22.0041 3.2695L23.5099 8.01559L23.7619 9.50388L22.7834 9.75583L20.4806 3.2695L22.0041 3.2695ZM28.6259 4.70505L29.4696 4.70505C29.7977 4.70505 30.0692 4.64841 30.2841 4.53513C30.5028 4.42184 30.6649 4.26559 30.7704 4.06638C30.8759 3.86716 30.9286 3.63864 30.9286 3.38083C30.9286 3.1113 30.8798 2.88083 30.7821 2.68942C30.6884 2.49411 30.5438 2.34372 30.3485 2.23825C30.1571 2.13278 29.913 2.08005 29.6161 2.08005C29.3661 2.08005 29.1395 2.13083 28.9364 2.23239C28.7372 2.33005 28.579 2.47067 28.4618 2.65427C28.3446 2.83395 28.286 3.0488 28.286 3.2988L26.868 3.2988C26.868 2.84567 26.9872 2.44333 27.2255 2.09177C27.4638 1.7402 27.788 1.46481 28.1981 1.26559C28.6122 1.06247 29.077 0.960907 29.5927 0.960907C30.1434 0.960907 30.6239 1.0527 31.0341 1.2363C31.4481 1.41599 31.7704 1.68552 32.0009 2.04489C32.2313 2.40427 32.3466 2.84958 32.3466 3.38083C32.3466 3.62302 32.2899 3.86911 32.1766 4.11911C32.0634 4.36911 31.8954 4.59763 31.6727 4.80466C31.4501 5.00778 31.1727 5.1738 30.8407 5.3027C30.5087 5.4277 30.1239 5.4902 29.6864 5.4902L28.6259 5.4902L28.6259 4.70505ZM28.6259 5.80661L28.6259 5.03317L29.6864 5.03317C30.1864 5.03317 30.6122 5.09177 30.9638 5.20895C31.3192 5.32614 31.6083 5.48825 31.8309 5.69528C32.0536 5.89841 32.2157 6.13083 32.3173 6.39255C32.4227 6.65427 32.4755 6.93161 32.4755 7.22458C32.4755 7.62302 32.4032 7.97849 32.2587 8.29099C32.118 8.59958 31.9169 8.8613 31.6552 9.07614C31.3934 9.29099 31.0868 9.45309 30.7352 9.56247C30.3876 9.67184 30.0087 9.72653 29.5985 9.72653C29.2313 9.72653 28.8798 9.67575 28.5438 9.57419C28.2079 9.47263 27.9071 9.32224 27.6415 9.12302C27.3759 8.91989 27.1649 8.66794 27.0087 8.36716C26.8563 8.06247 26.7802 7.71091 26.7802 7.31247L28.1923 7.31247C28.1923 7.56638 28.2509 7.79099 28.368 7.9863C28.4891 8.1777 28.6571 8.32809 28.872 8.43747C29.0907 8.54684 29.3407 8.60153 29.622 8.60153C29.9188 8.60153 30.1747 8.5488 30.3895 8.44333C30.6044 8.33786 30.7684 8.18161 30.8817 7.97458C30.9989 7.76755 31.0575 7.51755 31.0575 7.22458C31.0575 6.89255 30.993 6.62302 30.8641 6.41599C30.7352 6.20895 30.5516 6.05661 30.3134 5.95895C30.0751 5.85739 29.7938 5.80661 29.4696 5.80661L28.6259 5.80661Z" fill="#3A3A3C"/>
</svg>
