<svg width="33" height="10" viewBox="0 0 33 10" fill="none" xmlns="http://www.w3.org/2000/svg">
<path d="M2.76367 6.87103C2.95573 6.87103 3.12826 6.8336 3.28125 6.75873C3.4375 6.6806 3.56283 6.57318 3.65723 6.43646C3.75488 6.29974 3.80859 6.14187 3.81836 5.96283L4.92676 5.96283C4.92025 6.30463 4.81934 6.6155 4.62402 6.89545C4.42871 7.17539 4.16992 7.39838 3.84766 7.56439C3.52539 7.72715 3.16895 7.80853 2.77832 7.80853C2.37467 7.80853 2.02311 7.74017 1.72363 7.60345C1.42415 7.46348 1.17513 7.27142 0.976562 7.02728C0.777995 6.78314 0.628255 6.50157 0.527344 6.18256C0.429687 5.86355 0.380859 5.52175 0.380859 5.15717L0.380859 4.98627C0.380859 4.62168 0.429687 4.27989 0.527344 3.96088C0.628255 3.63861 0.777995 3.35541 0.976562 3.11127C1.17513 2.86713 1.42415 2.6767 1.72363 2.53998C2.02311 2.4 2.37305 2.33002 2.77344 2.33002C3.19661 2.33002 3.56771 2.41465 3.88672 2.58392C4.20573 2.74994 4.45638 2.98269 4.63867 3.28217C4.82422 3.57839 4.92025 3.92344 4.92676 4.31732L3.81836 4.31732C3.80859 4.12201 3.75977 3.94623 3.67187 3.78998C3.58724 3.63047 3.4668 3.50352 3.31055 3.40912C3.15755 3.31472 2.97363 3.26752 2.75879 3.26752C2.52116 3.26752 2.32422 3.31635 2.16797 3.414C2.01172 3.5084 1.88965 3.63861 1.80176 3.80463C1.71387 3.96739 1.65039 4.15131 1.61133 4.35638C1.57552 4.55821 1.55762 4.76817 1.55762 4.98627L1.55762 5.15717C1.55762 5.37526 1.57552 5.58685 1.61133 5.79193C1.64714 5.99701 1.70898 6.18093 1.79687 6.34369C1.88802 6.50319 2.01172 6.63177 2.16797 6.72943C2.32422 6.82383 2.52279 6.87103 2.76367 6.87103ZM8.83359 6.65131L8.83359 4.13177C8.83359 3.94297 8.79941 3.78021 8.73105 3.64349C8.6627 3.50677 8.55853 3.40098 8.41855 3.32611C8.28184 3.25124 8.10931 3.21381 7.90098 3.21381C7.70892 3.21381 7.5429 3.24636 7.40293 3.31146C7.26296 3.37657 7.15391 3.46446 7.07578 3.57513C6.99766 3.68581 6.95859 3.81114 6.95859 3.95111L5.78672 3.95111C5.78672 3.74278 5.83717 3.54095 5.93809 3.34564C6.039 3.15033 6.18548 2.97618 6.37754 2.82318C6.5696 2.67019 6.79909 2.54974 7.06602 2.46185C7.33294 2.37396 7.63242 2.33002 7.96445 2.33002C8.36159 2.33002 8.71315 2.39675 9.01914 2.53021C9.32839 2.66368 9.5709 2.8655 9.74668 3.13568C9.92572 3.40261 10.0152 3.73789 10.0152 4.14154L10.0152 6.49017C10.0152 6.73106 10.0315 6.94753 10.0641 7.13959C10.0999 7.32839 10.1503 7.49278 10.2154 7.63275L10.2154 7.71088L9.00937 7.71088C8.95404 7.58392 8.91009 7.42279 8.87754 7.22748C8.84824 7.02891 8.83359 6.83685 8.83359 6.65131ZM9.00449 4.49799L9.01426 5.22552L8.16953 5.22552C7.95143 5.22552 7.75937 5.24668 7.59336 5.289C7.42734 5.32806 7.289 5.38666 7.17832 5.46478C7.06764 5.54291 6.98464 5.63731 6.9293 5.74799C6.87396 5.85866 6.84629 5.98399 6.84629 6.12396C6.84629 6.26394 6.87884 6.39252 6.94395 6.5097C7.00905 6.62364 7.10345 6.71316 7.22715 6.77826C7.3541 6.84336 7.5071 6.87592 7.68613 6.87592C7.92702 6.87592 8.13698 6.82709 8.31602 6.72943C8.49831 6.62852 8.64154 6.50645 8.7457 6.36322C8.84987 6.21674 8.90521 6.07839 8.91172 5.94818L9.29258 6.47064C9.25352 6.60411 9.18678 6.74733 9.09238 6.90033C8.99798 7.05332 8.87428 7.19981 8.72129 7.33978C8.57155 7.4765 8.39089 7.58881 8.1793 7.6767C7.97096 7.76459 7.73008 7.80853 7.45664 7.80853C7.11159 7.80853 6.80397 7.74017 6.53379 7.60345C6.26361 7.46348 6.05202 7.27631 5.89902 7.04193C5.74603 6.8043 5.66953 6.53575 5.66953 6.23627C5.66953 5.95632 5.72161 5.70892 5.82578 5.49408C5.9332 5.27598 6.08945 5.09369 6.29453 4.9472C6.50286 4.80072 6.75677 4.69004 7.05625 4.61517C7.35573 4.53705 7.69753 4.49799 8.08164 4.49799L9.00449 4.49799ZM12.4523 3.4433L12.4523 9.74213L11.2756 9.74213L11.2756 2.42767L12.3596 2.42767L12.4523 3.4433ZM15.8947 5.02045L15.8947 5.12299C15.8947 5.5071 15.8492 5.86355 15.758 6.19232C15.6701 6.51784 15.5383 6.80267 15.3625 7.04681C15.19 7.2877 14.9768 7.47487 14.7229 7.60834C14.4689 7.7418 14.176 7.80853 13.8439 7.80853C13.5152 7.80853 13.2271 7.74831 12.9797 7.62787C12.7355 7.50417 12.5288 7.33002 12.3596 7.10541C12.1903 6.8808 12.0536 6.61713 11.9494 6.31439C11.8485 6.0084 11.7769 5.67312 11.7346 5.30853L11.7346 4.91302C11.7769 4.52566 11.8485 4.17409 11.9494 3.85834C12.0536 3.54258 12.1903 3.27077 12.3596 3.04291C12.5288 2.81504 12.7355 2.63926 12.9797 2.51556C13.2238 2.39187 13.5087 2.33002 13.8342 2.33002C14.1662 2.33002 14.4608 2.39512 14.718 2.52533C14.9751 2.65228 15.1916 2.83457 15.3674 3.0722C15.5432 3.30658 15.675 3.58978 15.7629 3.92181C15.8508 4.25059 15.8947 4.6168 15.8947 5.02045ZM14.718 5.12299L14.718 5.02045C14.718 4.77631 14.6952 4.55007 14.6496 4.34174C14.604 4.13015 14.5324 3.9446 14.4348 3.7851C14.3371 3.62559 14.2118 3.50189 14.0588 3.414C13.909 3.32286 13.7284 3.27728 13.5168 3.27728C13.3085 3.27728 13.1294 3.31309 12.9797 3.3847C12.8299 3.45306 12.7046 3.54909 12.6037 3.67279C12.5028 3.79649 12.4247 3.94135 12.3693 4.10736C12.314 4.27012 12.2749 4.44753 12.2521 4.63959L12.2521 5.58685C12.2912 5.82123 12.3579 6.03607 12.4523 6.23138C12.5467 6.4267 12.6802 6.58295 12.8527 6.70013C13.0285 6.81407 13.2531 6.87103 13.5266 6.87103C13.7382 6.87103 13.9188 6.82546 14.0686 6.73431C14.2183 6.64317 14.3404 6.51784 14.4348 6.35834C14.5324 6.19558 14.604 6.0084 14.6496 5.79681C14.6952 5.58523 14.718 5.36062 14.718 5.12299ZM19.3426 2.42767L19.3426 3.28705L16.3641 3.28705L16.3641 2.42767L19.3426 2.42767ZM17.2234 1.13373L18.4002 1.13373L18.4002 6.25092C18.4002 6.41368 18.423 6.539 18.4686 6.62689C18.5174 6.71153 18.5841 6.76849 18.6688 6.79779C18.7534 6.82709 18.8527 6.84174 18.9666 6.84174C19.048 6.84174 19.1261 6.83685 19.201 6.82709C19.2758 6.81732 19.3361 6.80756 19.3816 6.79779L19.3865 7.69623C19.2889 7.72553 19.1749 7.75157 19.0447 7.77435C18.9178 7.79714 18.7713 7.80853 18.6053 7.80853C18.3351 7.80853 18.0958 7.76133 17.8875 7.66693C17.6792 7.56928 17.5164 7.4114 17.3992 7.1933C17.282 6.9752 17.2234 6.68549 17.2234 6.32416L17.2234 1.13373ZM21.5355 2.42767L21.5355 7.71088L20.3539 7.71088L20.3539 2.42767L21.5355 2.42767ZM20.2758 1.04095C20.2758 0.861918 20.3344 0.713806 20.4516 0.596619C20.572 0.476176 20.738 0.415955 20.9496 0.415955C21.1579 0.415955 21.3223 0.476176 21.4428 0.596619C21.5632 0.713806 21.6234 0.861918 21.6234 1.04095C21.6234 1.21674 21.5632 1.36322 21.4428 1.48041C21.3223 1.5976 21.1579 1.65619 20.9496 1.65619C20.738 1.65619 20.572 1.5976 20.4516 1.48041C20.3344 1.36322 20.2758 1.21674 20.2758 1.04095ZM22.625 5.12787L22.625 5.01556C22.625 4.6347 22.6803 4.28151 22.791 3.95599C22.9017 3.62722 23.0612 3.34239 23.2695 3.1015C23.4811 2.85736 23.7383 2.66856 24.041 2.5351C24.347 2.39838 24.6921 2.33002 25.0762 2.33002C25.4635 2.33002 25.8086 2.39838 26.1113 2.5351C26.4173 2.66856 26.6761 2.85736 26.8877 3.1015C27.0993 3.34239 27.2604 3.62722 27.3711 3.95599C27.4818 4.28151 27.5371 4.6347 27.5371 5.01556L27.5371 5.12787C27.5371 5.50873 27.4818 5.86192 27.3711 6.18744C27.2604 6.51296 27.0993 6.79779 26.8877 7.04193C26.6761 7.28282 26.4189 7.47162 26.1162 7.60834C25.8135 7.7418 25.4701 7.80853 25.0859 7.80853C24.6986 7.80853 24.3519 7.7418 24.0459 7.60834C23.7432 7.47162 23.486 7.28282 23.2744 7.04193C23.0628 6.79779 22.9017 6.51296 22.791 6.18744C22.6803 5.86192 22.625 5.50873 22.625 5.12787ZM23.8018 5.01556L23.8018 5.12787C23.8018 5.3655 23.8262 5.59011 23.875 5.8017C23.9238 6.01329 24.0003 6.19883 24.1045 6.35834C24.2087 6.51784 24.3421 6.64317 24.5049 6.73431C24.6676 6.82546 24.8613 6.87103 25.0859 6.87103C25.304 6.87103 25.4928 6.82546 25.6523 6.73431C25.8151 6.64317 25.9486 6.51784 26.0527 6.35834C26.1569 6.19883 26.2334 6.01329 26.2822 5.8017C26.3343 5.59011 26.3604 5.3655 26.3604 5.12787L26.3604 5.01556C26.3604 4.78119 26.3343 4.55983 26.2822 4.3515C26.2334 4.13991 26.1553 3.95274 26.0479 3.78998C25.9437 3.62722 25.8102 3.50026 25.6475 3.40912C25.488 3.31472 25.2975 3.26752 25.0762 3.26752C24.8548 3.26752 24.6628 3.31472 24.5 3.40912C24.3405 3.50026 24.2087 3.62722 24.1045 3.78998C24.0003 3.95274 23.9238 4.13991 23.875 4.3515C23.8262 4.55983 23.8018 4.78119 23.8018 5.01556ZM29.7154 3.5556L29.7154 7.71088L28.5387 7.71088L28.5387 2.42767L29.6471 2.42767L29.7154 3.5556ZM29.5055 4.87396L29.1246 4.86908C29.1279 4.49473 29.1799 4.15131 29.2809 3.83881C29.385 3.52631 29.5283 3.25775 29.7105 3.03314C29.8961 2.80853 30.1174 2.63601 30.3746 2.51556C30.6318 2.39187 30.9182 2.33002 31.234 2.33002C31.4879 2.33002 31.7174 2.36582 31.9225 2.43744C32.1308 2.5058 32.3082 2.6181 32.4547 2.77435C32.6044 2.9306 32.7184 3.13405 32.7965 3.3847C32.8746 3.6321 32.9137 3.93646 32.9137 4.29779L32.9137 7.71088L31.732 7.71088L31.732 4.29291C31.732 4.039 31.6946 3.83881 31.6197 3.69232C31.5481 3.54258 31.4423 3.43679 31.3023 3.37494C31.1656 3.30984 30.9947 3.27728 30.7896 3.27728C30.5878 3.27728 30.4072 3.3196 30.2477 3.40424C30.0882 3.48887 29.9531 3.60443 29.8424 3.75092C29.735 3.8974 29.652 4.06667 29.5934 4.25873C29.5348 4.45079 29.5055 4.65586 29.5055 4.87396Z" fill="#3A3A3C"/>
</svg>
