<svg width="29" height="9" viewBox="0 0 29 9" fill="none" xmlns="http://www.w3.org/2000/svg">
<path d="M2.44336 6.63525C2.66602 6.63525 2.87402 6.59424 3.06738 6.51221C3.26367 6.42725 3.4248 6.30273 3.55078 6.13867C3.67969 5.97168 3.75293 5.76807 3.77051 5.52783L4.27148 5.52783C4.25684 5.82959 4.16455 6.09912 3.99463 6.33643C3.82764 6.5708 3.60791 6.75537 3.33545 6.89014C3.06592 7.02197 2.76855 7.08789 2.44336 7.08789C2.1123 7.08789 1.81934 7.02783 1.56445 6.90771C1.3125 6.7876 1.10156 6.62061 0.93164 6.40674C0.761719 6.18994 0.632812 5.93799 0.544922 5.65088C0.459961 5.36084 0.41748 5.04883 0.41748 4.71484L0.41748 4.53027C0.41748 4.19629 0.459961 3.88574 0.544922 3.59863C0.632812 3.30859 0.761719 3.05664 0.93164 2.84277C1.10156 2.62598 1.3125 2.45752 1.56445 2.3374C1.81641 2.21729 2.10791 2.15723 2.43896 2.15723C2.77881 2.15723 3.0835 2.22607 3.35303 2.36377C3.62549 2.50146 3.84229 2.69629 4.00342 2.94824C4.16748 3.2002 4.25684 3.49902 4.27148 3.84473L3.77051 3.84473C3.75586 3.58984 3.68848 3.37012 3.56836 3.18555C3.44824 3.00098 3.29004 2.85889 3.09375 2.75928C2.89746 2.65967 2.6792 2.60986 2.43896 2.60986C2.16943 2.60986 1.93945 2.6626 1.74902 2.76807C1.55859 2.87061 1.40332 3.0127 1.2832 3.19434C1.16602 3.37305 1.07959 3.57813 1.02393 3.80957C0.968262 4.03809 0.94043 4.27832 0.94043 4.53027L0.94043 4.71484C0.94043 4.96973 0.966797 5.21289 1.01953 5.44434C1.0752 5.67285 1.16162 5.87646 1.27881 6.05518C1.39893 6.23389 1.5542 6.37598 1.74463 6.48145C1.93799 6.58398 2.1709 6.63525 2.44336 6.63525ZM8.24467 6.14746L8.24467 3.69531C8.24467 3.46973 8.19779 3.2749 8.10404 3.11084C8.01029 2.94678 7.8726 2.8208 7.69096 2.73291C7.50932 2.64502 7.2852 2.60107 7.01859 2.60107C6.7725 2.60107 6.55277 2.64502 6.35941 2.73291C6.16898 2.81787 6.01811 2.93359 5.90678 3.08008C5.79838 3.22363 5.74418 3.3833 5.74418 3.55908L5.21684 3.55469C5.21684 3.37598 5.26078 3.20313 5.34867 3.03613C5.43656 2.86914 5.56107 2.71973 5.72221 2.58789C5.88334 2.45605 6.07523 2.35205 6.29789 2.27588C6.52348 2.19678 6.77104 2.15723 7.04057 2.15723C7.38041 2.15723 7.67924 2.21436 7.93705 2.32861C8.19779 2.44287 8.40141 2.61426 8.54789 2.84277C8.69437 3.07129 8.76762 3.3584 8.76762 3.7041L8.76762 6.00244C8.76762 6.1665 8.77934 6.33643 8.80277 6.51221C8.82914 6.68799 8.86576 6.83301 8.91264 6.94727L8.91264 7L8.35453 7C8.31937 6.89453 8.29154 6.7627 8.27104 6.60449C8.25346 6.44336 8.24467 6.29102 8.24467 6.14746ZM8.36771 4.23145L8.3765 4.63574L7.34379 4.63574C7.07426 4.63574 6.83256 4.66064 6.61869 4.71045C6.40775 4.75732 6.22904 4.82764 6.08256 4.92139C5.93607 5.01221 5.82328 5.12207 5.74418 5.25098C5.66801 5.37988 5.62992 5.52637 5.62992 5.69043C5.62992 5.86035 5.6724 6.01563 5.75736 6.15625C5.84525 6.29688 5.9683 6.40967 6.1265 6.49463C6.28764 6.57666 6.47807 6.61768 6.69779 6.61768C6.99076 6.61768 7.24857 6.56348 7.47123 6.45508C7.69682 6.34668 7.88285 6.20459 8.02934 6.02881C8.17582 5.85303 8.27396 5.66113 8.32377 5.45313L8.55229 5.75635C8.5142 5.90283 8.44389 6.05371 8.34135 6.20898C8.24174 6.36133 8.11137 6.50488 7.95023 6.63965C7.7891 6.77148 7.59867 6.87988 7.37895 6.96484C7.16215 7.04688 6.91605 7.08789 6.64066 7.08789C6.33012 7.08789 6.05912 7.0293 5.82768 6.91211C5.59916 6.79492 5.42045 6.63525 5.29154 6.43311C5.16557 6.22803 5.10258 5.99658 5.10258 5.73877C5.10258 5.50439 5.15238 5.29492 5.25199 5.11035C5.3516 4.92285 5.49516 4.76465 5.68266 4.63574C5.87309 4.50391 6.1016 4.4043 6.3682 4.33691C6.63773 4.2666 6.93949 4.23145 7.27348 4.23145L8.36771 4.23145ZM10.7193 3.15918L10.7193 8.82813L10.192 8.82813L10.192 2.24512L10.6842 2.24512L10.7193 3.15918ZM14.024 4.57861L14.024 4.6709C14.024 5.02539 13.983 5.35059 13.901 5.64648C13.8189 5.94238 13.7003 6.19873 13.545 6.41553C13.3927 6.62939 13.2037 6.79492 12.9781 6.91211C12.7525 7.0293 12.4962 7.08789 12.2091 7.08789C11.9249 7.08789 11.6715 7.04395 11.4488 6.95605C11.2262 6.86816 11.0343 6.74365 10.8731 6.58252C10.7149 6.41846 10.5875 6.22803 10.4908 6.01123C10.3971 5.7915 10.3311 5.55127 10.293 5.29053L10.293 4.07324C10.337 3.78613 10.4088 3.52539 10.5084 3.29102C10.608 3.05664 10.7354 2.85449 10.8907 2.68457C11.0489 2.51465 11.2364 2.38428 11.4532 2.29346C11.67 2.20264 11.9176 2.15723 12.1959 2.15723C12.4859 2.15723 12.7437 2.21436 12.9693 2.32861C13.1978 2.43994 13.3897 2.60254 13.545 2.81641C13.7032 3.02734 13.8219 3.28223 13.901 3.58105C13.983 3.87695 14.024 4.20947 14.024 4.57861ZM13.4967 4.6709L13.4967 4.57861C13.4967 4.30029 13.4674 4.04248 13.4088 3.80518C13.3531 3.56787 13.2667 3.36133 13.1495 3.18555C13.0352 3.00684 12.8887 2.86768 12.71 2.76807C12.5343 2.66846 12.3248 2.61865 12.0816 2.61865C11.8297 2.61865 11.6143 2.66113 11.4356 2.74609C11.2598 2.82813 11.1134 2.93799 10.9962 3.07568C10.879 3.21045 10.7867 3.3584 10.7193 3.51953C10.6519 3.68066 10.6021 3.83887 10.5699 3.99414L10.5699 5.396C10.6256 5.61865 10.7149 5.8252 10.838 6.01563C10.961 6.20313 11.1251 6.354 11.3302 6.46826C11.5382 6.57959 11.7916 6.63525 12.0904 6.63525C12.3306 6.63525 12.5387 6.58545 12.7144 6.48584C12.8902 6.38623 13.0352 6.24707 13.1495 6.06836C13.2667 5.88965 13.3531 5.68164 13.4088 5.44434C13.4674 5.20703 13.4967 4.94922 13.4967 4.6709ZM17.0128 2.24512L17.0128 2.67578L14.631 2.67578L14.631 2.24512L17.0128 2.24512ZM15.5055 1.02344L16.0284 1.02344L16.0284 5.84424C16.0284 6.06396 16.0577 6.22949 16.1163 6.34082C16.1749 6.45215 16.2511 6.52686 16.3448 6.56494C16.4386 6.60303 16.5397 6.62207 16.6481 6.62207C16.7272 6.62207 16.8033 6.61768 16.8766 6.60889C16.9498 6.59717 17.0157 6.58545 17.0743 6.57373L17.0963 7.01758C17.0319 7.03809 16.9484 7.0542 16.8458 7.06592C16.7433 7.08057 16.6407 7.08789 16.5382 7.08789C16.3361 7.08789 16.1573 7.05127 16.0021 6.97803C15.8468 6.90186 15.7252 6.77295 15.6373 6.59131C15.5494 6.40674 15.5055 6.15625 15.5055 5.83984L15.5055 1.02344ZM18.7228 2.24512L18.7228 7L18.1999 7L18.1999 2.24512L18.7228 2.24512ZM18.1076 0.869629C18.1076 0.77002 18.1383 0.686524 18.1999 0.619141C18.2643 0.548828 18.3522 0.513672 18.4635 0.513672C18.5749 0.513672 18.6628 0.548828 18.7272 0.619141C18.7946 0.686524 18.8283 0.77002 18.8283 0.869629C18.8283 0.966309 18.7946 1.0498 18.7272 1.12012C18.6628 1.1875 18.5749 1.22119 18.4635 1.22119C18.3522 1.22119 18.2643 1.1875 18.1999 1.12012C18.1383 1.0498 18.1076 0.966309 18.1076 0.869629ZM19.8923 4.69727L19.8923 4.55225C19.8923 4.20654 19.9421 3.88721 20.0417 3.59424C20.1413 3.30127 20.2834 3.04785 20.468 2.83398C20.6555 2.62012 20.8796 2.45459 21.1403 2.3374C21.4011 2.21729 21.6911 2.15723 22.0104 2.15723C22.3327 2.15723 22.6242 2.21729 22.885 2.3374C23.1457 2.45459 23.3698 2.62012 23.5573 2.83398C23.7448 3.04785 23.8884 3.30127 23.988 3.59424C24.0876 3.88721 24.1374 4.20654 24.1374 4.55225L24.1374 4.69727C24.1374 5.04297 24.0876 5.3623 23.988 5.65527C23.8884 5.94531 23.7448 6.19727 23.5573 6.41113C23.3728 6.625 23.1501 6.79199 22.8894 6.91211C22.6286 7.0293 22.3386 7.08789 22.0192 7.08789C21.697 7.08789 21.4055 7.0293 21.1447 6.91211C20.884 6.79199 20.6599 6.625 20.4724 6.41113C20.2849 6.19727 20.1413 5.94531 20.0417 5.65527C19.9421 5.3623 19.8923 5.04297 19.8923 4.69727ZM20.4152 4.55225L20.4152 4.69727C20.4152 4.95801 20.4504 5.20557 20.5207 5.43994C20.591 5.67139 20.6936 5.87793 20.8283 6.05957C20.9631 6.23828 21.1301 6.37891 21.3293 6.48145C21.5285 6.58398 21.7585 6.63525 22.0192 6.63525C22.277 6.63525 22.5041 6.58398 22.7004 6.48145C22.8996 6.37891 23.0666 6.23828 23.2014 6.05957C23.3361 5.87793 23.4372 5.67139 23.5046 5.43994C23.5749 5.20557 23.6101 4.95801 23.6101 4.69727L23.6101 4.55225C23.6101 4.29443 23.5749 4.0498 23.5046 3.81836C23.4372 3.58691 23.3347 3.38037 23.197 3.19873C23.0622 3.01709 22.8952 2.87354 22.696 2.76807C22.4968 2.6626 22.2683 2.60986 22.0104 2.60986C21.7526 2.60986 21.5241 2.6626 21.3249 2.76807C21.1286 2.87354 20.9616 3.01709 20.8239 3.19873C20.6892 3.38037 20.5866 3.58691 20.5163 3.81836C20.4489 4.0498 20.4152 4.29443 20.4152 4.55225ZM25.7727 3.26025L25.7727 7L25.2497 7L25.2497 2.24512L25.7507 2.24512L25.7727 3.26025ZM25.654 4.32813L25.4211 4.19629C25.4387 3.91504 25.4958 3.65137 25.5925 3.40527C25.6892 3.15918 25.8196 2.94238 25.9836 2.75488C26.1506 2.56738 26.3454 2.4209 26.5681 2.31543C26.7937 2.20996 27.0427 2.15723 27.3152 2.15723C27.5525 2.15723 27.7649 2.18945 27.9524 2.25391C28.1399 2.31836 28.2996 2.4209 28.4314 2.56152C28.5632 2.70215 28.6628 2.88232 28.7302 3.10205C28.8005 3.32178 28.8357 3.58984 28.8357 3.90625L28.8357 7L28.3083 7L28.3083 3.90186C28.3083 3.57373 28.2629 3.31738 28.1721 3.13281C28.0813 2.94531 27.9524 2.81201 27.7854 2.73291C27.6184 2.65381 27.4206 2.61426 27.1921 2.61426C26.9402 2.61426 26.719 2.66992 26.5286 2.78125C26.3411 2.88965 26.1829 3.03174 26.0539 3.20752C25.928 3.38037 25.8313 3.56641 25.7639 3.76563C25.6965 3.96191 25.6599 4.14941 25.654 4.32813Z" fill="#3A3A3C"/>
</svg>
