<svg width="33" height="11" viewBox="0 0 33 11" fill="none" xmlns="http://www.w3.org/2000/svg">
<path d="M2.71484 7.59473C2.96224 7.59473 3.19336 7.54915 3.4082 7.45801C3.6263 7.36361 3.80534 7.22526 3.94531 7.04297C4.08854 6.85742 4.16992 6.63118 4.18945 6.36426L4.74609 6.36426C4.72982 6.69954 4.62728 6.99902 4.43848 7.2627C4.25293 7.52311 4.00879 7.72819 3.70605 7.87793C3.40658 8.02441 3.07617 8.09766 2.71484 8.09766C2.34701 8.09766 2.02148 8.03092 1.73828 7.89746C1.45833 7.764 1.22396 7.57845 1.03516 7.34082C0.846354 7.09993 0.703125 6.81999 0.605469 6.50098C0.511068 6.17871 0.463867 5.83203 0.463867 5.46094L0.463867 5.25586C0.463867 4.88477 0.511068 4.53971 0.605469 4.2207C0.703125 3.89844 0.846354 3.61849 1.03516 3.38086C1.22396 3.13997 1.45833 2.9528 1.73828 2.81934C2.01823 2.68587 2.34212 2.61914 2.70996 2.61914C3.08756 2.61914 3.42611 2.69564 3.72559 2.84863C4.02832 3.00163 4.26921 3.2181 4.44824 3.49805C4.63053 3.77799 4.72982 4.11003 4.74609 4.49414L4.18945 4.49414C4.17318 4.21094 4.09831 3.9668 3.96484 3.76172C3.83138 3.55664 3.6556 3.39876 3.4375 3.28809C3.2194 3.17741 2.97689 3.12207 2.70996 3.12207C2.41048 3.12207 2.15495 3.18066 1.94336 3.29785C1.73177 3.41178 1.55924 3.56966 1.42578 3.77148C1.29557 3.97005 1.19954 4.19792 1.1377 4.45508C1.07585 4.70898 1.04492 4.97591 1.04492 5.25586L1.04492 5.46094C1.04492 5.74414 1.07422 6.01432 1.13281 6.27148C1.19466 6.52539 1.29069 6.75163 1.4209 6.9502C1.55436 7.14876 1.72689 7.30664 1.93848 7.42383C2.15332 7.53776 2.41211 7.59473 2.71484 7.59473ZM9.16074 7.05273L9.16074 4.32813C9.16074 4.07747 9.10866 3.861 9.00449 3.67871C8.90033 3.49642 8.74733 3.35645 8.54551 3.25879C8.34368 3.16113 8.09466 3.1123 7.79844 3.1123C7.525 3.1123 7.28086 3.16113 7.06602 3.25879C6.85443 3.35319 6.68678 3.48177 6.56309 3.64453C6.44264 3.80404 6.38242 3.98145 6.38242 4.17676L5.79648 4.17188C5.79648 3.97331 5.84531 3.78125 5.94297 3.5957C6.04062 3.41016 6.17897 3.24414 6.35801 3.09766C6.53704 2.95117 6.75026 2.83561 6.99766 2.75098C7.24831 2.66309 7.52337 2.61914 7.82285 2.61914C8.20046 2.61914 8.53249 2.68262 8.81895 2.80957C9.10866 2.93652 9.3349 3.12695 9.49766 3.38086C9.66042 3.63477 9.7418 3.95378 9.7418 4.33789L9.7418 6.8916C9.7418 7.07389 9.75482 7.2627 9.78086 7.45801C9.81016 7.65332 9.85085 7.81445 9.90293 7.94141L9.90293 8L9.28281 8C9.24375 7.88281 9.21283 7.73633 9.19004 7.56055C9.17051 7.38151 9.16074 7.21224 9.16074 7.05273ZM9.29746 4.92383L9.30723 5.37305L8.15977 5.37305C7.86029 5.37305 7.59173 5.40072 7.3541 5.45605C7.11973 5.50814 6.92116 5.58626 6.7584 5.69043C6.59564 5.79134 6.47031 5.91341 6.38242 6.05664C6.29779 6.19987 6.25547 6.36263 6.25547 6.54492C6.25547 6.73372 6.30267 6.90625 6.39707 7.0625C6.49473 7.21875 6.63145 7.34408 6.80723 7.43848C6.98626 7.52962 7.19785 7.5752 7.44199 7.5752C7.76751 7.5752 8.05397 7.51497 8.30137 7.39453C8.55202 7.27409 8.75872 7.11621 8.92148 6.9209C9.08424 6.72559 9.19329 6.51237 9.24863 6.28125L9.50254 6.61816C9.46022 6.78092 9.3821 6.94857 9.26816 7.12109C9.15749 7.29036 9.01263 7.44987 8.83359 7.59961C8.65456 7.74609 8.44297 7.86654 8.19883 7.96094C7.95794 8.05208 7.68451 8.09766 7.37852 8.09766C7.03346 8.09766 6.73236 8.03255 6.4752 7.90234C6.22129 7.77214 6.02272 7.59473 5.87949 7.37012C5.73952 7.14225 5.66953 6.88509 5.66953 6.59863C5.66953 6.33822 5.72487 6.10547 5.83555 5.90039C5.94622 5.69206 6.10573 5.51628 6.31406 5.37305C6.52565 5.22656 6.77956 5.11589 7.07578 5.04102C7.37526 4.96289 7.71055 4.92383 8.08164 4.92383L9.29746 4.92383ZM11.9104 3.73242L11.9104 10.0313L11.3244 10.0313L11.3244 2.7168L11.8713 2.7168L11.9104 3.73242ZM15.5822 5.30957L15.5822 5.41211C15.5822 5.80599 15.5367 6.16732 15.4455 6.49609C15.3544 6.82487 15.2225 7.1097 15.05 7.35059C14.8807 7.58822 14.6708 7.77214 14.4201 7.90234C14.1695 8.03255 13.8846 8.09766 13.5656 8.09766C13.2499 8.09766 12.9683 8.04883 12.7209 7.95117C12.4735 7.85352 12.2603 7.71517 12.0813 7.53613C11.9055 7.35384 11.7639 7.14225 11.6564 6.90137C11.5523 6.65723 11.479 6.3903 11.4367 6.10059L11.4367 4.74805C11.4855 4.42904 11.5653 4.13932 11.676 3.87891C11.7867 3.61849 11.9283 3.39388 12.1008 3.20508C12.2766 3.01628 12.4849 2.87142 12.7258 2.77051C12.9667 2.6696 13.2417 2.61914 13.551 2.61914C13.8732 2.61914 14.1597 2.68262 14.4104 2.80957C14.6643 2.93327 14.8775 3.11393 15.05 3.35156C15.2258 3.58594 15.3576 3.86914 15.4455 4.20117C15.5367 4.52995 15.5822 4.89941 15.5822 5.30957ZM14.9963 5.41211L14.9963 5.30957C14.9963 5.00033 14.9637 4.71387 14.8986 4.4502C14.8368 4.18652 14.7408 3.95703 14.6105 3.76172C14.4836 3.56315 14.3208 3.40853 14.1223 3.29785C13.927 3.18717 13.6942 3.13184 13.424 3.13184C13.1441 3.13184 12.9048 3.17904 12.7063 3.27344C12.5109 3.36458 12.3482 3.48665 12.218 3.63965C12.0878 3.78939 11.9852 3.95378 11.9104 4.13281C11.8355 4.31185 11.7801 4.48763 11.7443 4.66016L11.7443 6.21777C11.8062 6.46517 11.9055 6.69466 12.0422 6.90625C12.1789 7.11458 12.3612 7.28223 12.5891 7.40918C12.8202 7.53288 13.1018 7.59473 13.4338 7.59473C13.7007 7.59473 13.9318 7.53939 14.1271 7.42871C14.3225 7.31803 14.4836 7.16341 14.6105 6.96484C14.7408 6.76628 14.8368 6.53516 14.8986 6.27148C14.9637 6.00781 14.9963 5.72135 14.9963 5.41211ZM18.9031 2.7168L18.9031 3.19531L16.2566 3.19531L16.2566 2.7168L18.9031 2.7168ZM17.2283 1.35938L17.8094 1.35938L17.8094 6.71582C17.8094 6.95996 17.8419 7.14388 17.907 7.26758C17.9721 7.39128 18.0568 7.47428 18.1609 7.5166C18.2651 7.55892 18.3774 7.58008 18.4979 7.58008C18.5857 7.58008 18.6704 7.5752 18.7518 7.56543C18.8331 7.55241 18.9064 7.53939 18.9715 7.52637L18.9959 8.01953C18.9243 8.04232 18.8315 8.06022 18.7176 8.07324C18.6036 8.08952 18.4897 8.09766 18.3758 8.09766C18.1512 8.09766 17.9526 8.05697 17.7801 7.97559C17.6076 7.89095 17.4725 7.74772 17.3748 7.5459C17.2771 7.34082 17.2283 7.0625 17.2283 6.71094L17.2283 1.35938ZM20.8031 2.7168L20.8031 8L20.2221 8L20.2221 2.7168L20.8031 2.7168ZM20.1195 1.18848C20.1195 1.0778 20.1537 0.985026 20.2221 0.910156C20.2937 0.832031 20.3913 0.792969 20.515 0.792969C20.6387 0.792969 20.7364 0.832031 20.808 0.910156C20.8829 0.985026 20.9203 1.0778 20.9203 1.18848C20.9203 1.2959 20.8829 1.38867 20.808 1.4668C20.7364 1.54167 20.6387 1.5791 20.515 1.5791C20.3913 1.5791 20.2937 1.54167 20.2221 1.4668C20.1537 1.38867 20.1195 1.2959 20.1195 1.18848ZM22.1025 5.44141L22.1025 5.28027C22.1025 4.89616 22.1579 4.54134 22.2686 4.21582C22.3792 3.8903 22.5371 3.60872 22.7422 3.37109C22.9505 3.13346 23.1995 2.94954 23.4893 2.81934C23.779 2.68587 24.1012 2.61914 24.4561 2.61914C24.8141 2.61914 25.138 2.68587 25.4277 2.81934C25.7174 2.94954 25.9665 3.13346 26.1748 3.37109C26.3831 3.60872 26.5426 3.8903 26.6533 4.21582C26.764 4.54134 26.8193 4.89616 26.8193 5.28027L26.8193 5.44141C26.8193 5.82552 26.764 6.18034 26.6533 6.50586C26.5426 6.82813 26.3831 7.10807 26.1748 7.3457C25.9697 7.58333 25.7223 7.76888 25.4326 7.90234C25.1429 8.03255 24.8206 8.09766 24.4658 8.09766C24.1077 8.09766 23.7839 8.03255 23.4941 7.90234C23.2044 7.76888 22.9554 7.58333 22.7471 7.3457C22.5387 7.10807 22.3792 6.82813 22.2686 6.50586C22.1579 6.18034 22.1025 5.82552 22.1025 5.44141ZM22.6836 5.28027L22.6836 5.44141C22.6836 5.73112 22.7227 6.00619 22.8008 6.2666C22.8789 6.52376 22.9928 6.75326 23.1426 6.95508C23.2923 7.15365 23.4779 7.3099 23.6992 7.42383C23.9206 7.53776 24.1761 7.59473 24.4658 7.59473C24.7523 7.59473 25.0046 7.53776 25.2227 7.42383C25.444 7.3099 25.6296 7.15365 25.7793 6.95508C25.929 6.75326 26.0413 6.52376 26.1162 6.2666C26.1943 6.00619 26.2334 5.73112 26.2334 5.44141L26.2334 5.28027C26.2334 4.99382 26.1943 4.72201 26.1162 4.46484C26.0413 4.20768 25.9274 3.97819 25.7744 3.77637C25.6247 3.57454 25.4391 3.41504 25.2178 3.29785C24.9964 3.18066 24.7425 3.12207 24.4561 3.12207C24.1696 3.12207 23.9157 3.18066 23.6943 3.29785C23.4762 3.41504 23.2907 3.57454 23.1377 3.77637C22.988 3.97819 22.874 4.20768 22.7959 4.46484C22.721 4.72201 22.6836 4.99382 22.6836 5.28027ZM28.6363 3.84473L28.6363 8L28.0553 8L28.0553 2.7168L28.6119 2.7168L28.6363 3.84473ZM28.5045 5.03125L28.2457 4.88477C28.2652 4.57227 28.3287 4.2793 28.4361 4.00586C28.5436 3.73242 28.6884 3.49154 28.8707 3.2832C29.0562 3.07487 29.2727 2.91211 29.5201 2.79492C29.7708 2.67773 30.0475 2.61914 30.3502 2.61914C30.6139 2.61914 30.8499 2.65495 31.0582 2.72656C31.2665 2.79818 31.4439 2.91211 31.5904 3.06836C31.7369 3.22461 31.8476 3.4248 31.9225 3.66895C32.0006 3.91309 32.0396 4.21094 32.0396 4.5625L32.0396 8L31.4537 8L31.4537 4.55762C31.4537 4.19303 31.4033 3.9082 31.3023 3.70313C31.2014 3.49479 31.0582 3.34668 30.8727 3.25879C30.6871 3.1709 30.4674 3.12695 30.2135 3.12695C29.9335 3.12695 29.6878 3.1888 29.4762 3.3125C29.2678 3.43294 29.0921 3.59082 28.9488 3.78613C28.8089 3.97819 28.7014 4.1849 28.6266 4.40625C28.5517 4.62435 28.511 4.83268 28.5045 5.03125Z" fill="#3A3A3C"/>
</svg>
