<svg width="24" height="24" viewBox="0 0 24 24" fill="none" xmlns="http://www.w3.org/2000/svg">
<path d="M4 9.2005C3.9999 8.64237 4.11424 8.08982 4.33632 7.57515C4.55841 7.06047 4.88379 6.59399 5.29345 6.20297C5.70311 5.81195 6.18883 5.50423 6.72223 5.29781C7.25562 5.09138 7.82599 4.99038 8.4 5.00072C9.07917 4.99721 9.75135 5.13408 10.372 5.40224C10.9926 5.67041 11.5476 6.06375 12 6.5562C12.4524 6.06375 13.0074 5.67041 13.628 5.40224C14.2486 5.13408 14.9208 4.99721 15.6 5.00072C16.174 4.99038 16.7444 5.09138 17.2778 5.29781C17.8112 5.50423 18.2969 5.81195 18.7065 6.20297C19.1162 6.59399 19.4416 7.06047 19.6637 7.57515C19.8858 8.08982 20.0001 8.64237 20 9.2005C20 13.3661 14.8968 16.5112 12 19C9.1096 16.4902 4 13.3692 4 9.2005Z" fill="#383A44"/>
<circle cx="18.5" cy="6.5" r="3.5" fill="#FF4E84"/>
<path d="M18.9927 4.36364V8H18.5524V4.82528H18.5311L17.6433 5.41477V4.96733L18.5524 4.36364H18.9927Z" fill="white"/>
</svg>
