<svg width="24" height="24" viewBox="0 0 24 24" fill="none" xmlns="http://www.w3.org/2000/svg">
<path d="M4 9.2005C3.9999 8.64237 4.11424 8.08982 4.33632 7.57515C4.55841 7.06047 4.88379 6.59399 5.29345 6.20297C5.70311 5.81195 6.18883 5.50423 6.72223 5.29781C7.25562 5.09138 7.82599 4.99038 8.4 5.00072C9.07917 4.99721 9.75135 5.13408 10.372 5.40224C10.9926 5.67041 11.5476 6.06375 12 6.5562C12.4524 6.06375 13.0074 5.67041 13.628 5.40224C14.2486 5.13408 14.9208 4.99721 15.6 5.00072C16.174 4.99038 16.7444 5.09138 17.2778 5.29781C17.8112 5.50423 18.2969 5.81195 18.7065 6.20297C19.1162 6.59399 19.4416 7.06047 19.6637 7.57515C19.8858 8.08982 20.0001 8.64237 20 9.2005C20 13.3661 14.8968 16.5112 12 19C9.1096 16.4902 4 13.3692 4 9.2005Z" fill="#383A44"/>
<rect x="15" y="3" width="8" height="6" rx="2" fill="#FF4E84"/>
<path d="M17.5882 8.04972C17.3443 8.04972 17.1289 8.00651 16.9419 7.9201C16.756 7.8325 16.611 7.71236 16.5068 7.55966C16.4027 7.40578 16.3512 7.23059 16.3524 7.03409C16.3512 6.88021 16.3814 6.73816 16.4429 6.60795C16.5045 6.47656 16.5885 6.36707 16.6951 6.27947C16.8028 6.1907 16.9229 6.13447 17.0555 6.1108V6.08949C16.8815 6.04451 16.743 5.94685 16.64 5.79652C16.537 5.645 16.4861 5.47277 16.4873 5.27983C16.4861 5.09517 16.5329 4.93004 16.6276 4.78445C16.7223 4.63885 16.8525 4.52403 17.0182 4.43999C17.1851 4.35594 17.3751 4.31392 17.5882 4.31392C17.7989 4.31392 17.9871 4.35594 18.1528 4.43999C18.3185 4.52403 18.4487 4.63885 18.5434 4.78445C18.6393 4.93004 18.6878 5.09517 18.689 5.27983C18.6878 5.47277 18.6352 5.645 18.531 5.79652C18.428 5.94685 18.2913 6.04451 18.1208 6.08949V6.1108C18.2522 6.13447 18.3706 6.1907 18.476 6.27947C18.5813 6.36707 18.6653 6.47656 18.7281 6.60795C18.7908 6.73816 18.8228 6.88021 18.824 7.03409C18.8228 7.23059 18.7695 7.40578 18.6642 7.55966C18.56 7.71236 18.415 7.8325 18.2291 7.9201C18.0445 8.00651 17.8308 8.04972 17.5882 8.04972ZM17.5882 7.65909C17.7527 7.65909 17.8947 7.63246 18.0143 7.57919C18.1339 7.52592 18.2262 7.45076 18.2913 7.35369C18.3564 7.25663 18.3895 7.14299 18.3907 7.01278C18.3895 6.87547 18.354 6.75414 18.2842 6.64879C18.2143 6.54344 18.1191 6.46058 17.9983 6.40021C17.8788 6.33984 17.742 6.30966 17.5882 6.30966C17.4331 6.30966 17.2946 6.33984 17.1727 6.40021C17.0519 6.46058 16.9567 6.54344 16.8868 6.64879C16.8182 6.75414 16.7844 6.87547 16.7856 7.01278C16.7844 7.14299 16.8158 7.25663 16.8797 7.35369C16.9448 7.45076 17.0377 7.52592 17.1585 7.57919C17.2792 7.63246 17.4224 7.65909 17.5882 7.65909ZM17.5882 5.93324C17.7184 5.93324 17.8338 5.9072 17.9344 5.85511C18.0362 5.80303 18.1161 5.73023 18.1741 5.63672C18.2321 5.54321 18.2617 5.43371 18.2629 5.30824C18.2617 5.18513 18.2327 5.07801 18.1759 4.98686C18.1191 4.89453 18.0403 4.82351 17.9397 4.77379C17.8391 4.72289 17.7219 4.69744 17.5882 4.69744C17.452 4.69744 17.3331 4.72289 17.2313 4.77379C17.1295 4.82351 17.0508 4.89453 16.9951 4.98686C16.9395 5.07801 16.9123 5.18513 16.9135 5.30824C16.9123 5.43371 16.9401 5.54321 16.9969 5.63672C17.0549 5.73023 17.1348 5.80303 17.2366 5.85511C17.3384 5.9072 17.4556 5.93324 17.5882 5.93324ZM20.3905 8.04972C20.123 8.04972 19.8951 7.97692 19.7069 7.83132C19.5187 7.68454 19.3749 7.47206 19.2755 7.19389C19.176 6.91454 19.1263 6.57718 19.1263 6.18182C19.1263 5.78883 19.176 5.45324 19.2755 5.17507C19.3761 4.89571 19.5205 4.68265 19.7087 4.53587C19.8981 4.3879 20.1254 4.31392 20.3905 4.31392C20.6557 4.31392 20.8824 4.3879 21.0706 4.53587C21.26 4.68265 21.4044 4.89571 21.5038 5.17507C21.6044 5.45324 21.6547 5.78883 21.6547 6.18182C21.6547 6.57718 21.605 6.91454 21.5056 7.19389C21.4062 7.47206 21.2623 7.68454 21.0741 7.83132C20.8859 7.97692 20.658 8.04972 20.3905 8.04972ZM20.3905 7.65909C20.6557 7.65909 20.8616 7.53125 21.0084 7.27557C21.1552 7.01989 21.2286 6.6553 21.2286 6.18182C21.2286 5.86695 21.1949 5.59884 21.1274 5.37749C21.0611 5.15613 20.9652 4.98745 20.8397 4.87145C20.7155 4.75545 20.5657 4.69744 20.3905 4.69744C20.1277 4.69744 19.9224 4.82706 19.7744 5.08629C19.6264 5.34434 19.5525 5.70952 19.5525 6.18182C19.5525 6.49669 19.5856 6.7642 19.6519 6.98438C19.7182 7.20455 19.8135 7.37204 19.9378 7.48686C20.0632 7.60168 20.2142 7.65909 20.3905 7.65909Z" fill="white"/>
</svg>
