<svg width="171" height="42" viewBox="0 0 171 42" fill="none" xmlns="http://www.w3.org/2000/svg">
<path d="M87.5 7L77.5 1.2265V12.7735L87.5 7ZM22 8H78.5V6H22V8Z" fill="#FC11BC"/>
<path d="M22.1093 5.375V12.165L22.2268 12.16C23.0068 12.13 24.0818 12.12 24.8543 12.275C25.5543 12.415 26.2118 12.725 26.6993 12.995C27.3818 13.375 27.8393 13.9575 28.0993 14.6L28.4293 14.57C29.2093 14.51 30.4143 14.475 31.3243 14.84C32.2493 15.21 33.0468 16.0575 33.5243 16.63C33.7118 16.855 33.8768 17.0675 34.0118 17.25H35.4668C36.1653 17.25 36.8561 17.3964 37.4946 17.6798C38.1332 17.9631 38.7052 18.3771 39.1739 18.895C39.6426 19.413 39.9976 20.0234 40.216 20.6869C40.4344 21.3505 40.5113 22.0524 40.4418 22.7475L39.7618 29.535C39.6397 30.7576 39.2615 31.9408 38.6518 33.0075L35.1643 39.11C34.8364 39.684 34.3627 40.1611 33.7911 40.493C33.2195 40.8249 32.5703 40.9998 31.9093 41H16.1543C15.4575 41 14.7745 40.8058 14.1819 40.4393C13.5893 40.0728 13.1105 39.5484 12.7993 38.925L9.7618 32.85L3.5343 22.4725C3.0616 21.679 2.89473 20.7402 3.06502 19.8324C3.2353 18.9246 3.73103 18.1101 4.45917 17.5419C5.18731 16.9736 6.09781 16.6906 7.01979 16.7459C7.94178 16.8013 8.81188 17.1912 9.4668 17.8425L13.3593 21.7325V5.375C13.3593 4.21468 13.8202 3.10188 14.6407 2.28141C15.4612 1.46094 16.574 1 17.7343 1C18.8946 1 20.0074 1.46094 20.8279 2.28141C21.6484 3.10188 22.1093 4.21468 22.1093 5.375Z" fill="white"/>
<path d="M17.7344 3.5C18.2317 3.5 18.7086 3.69754 19.0602 4.04917C19.4118 4.40081 19.6094 4.87772 19.6094 5.375V21C19.6094 21.3315 19.7411 21.6495 19.9755 21.8839C20.2099 22.1183 20.5279 22.25 20.8594 22.25C21.1909 22.25 21.5088 22.1183 21.7433 21.8839C21.9777 21.6495 22.1094 21.3315 22.1094 21V14.6675L22.3244 14.6575C23.1169 14.6275 23.9169 14.6375 24.3644 14.725C24.6994 14.7925 25.0994 14.965 25.4844 15.18C25.6769 15.285 25.8594 15.5475 25.8594 15.965V21C25.8594 21.3315 25.9911 21.6495 26.2255 21.8839C26.4599 22.1183 26.7779 22.25 27.1094 22.25C27.4409 22.25 27.7588 22.1183 27.9933 21.8839C28.2277 21.6495 28.3594 21.3315 28.3594 21V17.0875L28.6244 17.0625C29.4144 17.0025 30.0844 17.0375 30.3944 17.1625C30.6894 17.2775 31.1444 17.68 31.6094 18.2375C31.8119 18.4775 31.9844 18.7125 32.1094 18.885V22.25C32.1094 22.5815 32.2411 22.8995 32.4755 23.1339C32.7099 23.3683 33.0279 23.5 33.3594 23.5C33.6909 23.5 34.0088 23.3683 34.2433 23.1339C34.4777 22.8995 34.6094 22.5815 34.6094 22.25V19.75H35.4644C35.8138 19.75 36.1593 19.8232 36.4786 19.965C36.798 20.1067 37.0841 20.3138 37.3184 20.5729C37.5528 20.8321 37.7303 21.1374 37.8394 21.4693C37.9485 21.8013 37.9868 22.1524 37.9519 22.5L37.2744 29.2875C37.1869 30.1598 36.9169 31.0039 36.4819 31.765L32.9944 37.87C32.8851 38.0613 32.7272 38.2204 32.5366 38.331C32.3461 38.4416 32.1297 38.4999 31.9094 38.5H16.1544C15.9224 38.5 15.6951 38.4354 15.4977 38.3136C15.3003 38.1917 15.1408 38.0174 15.0369 37.81L11.9569 31.6475L5.67688 21.185C5.51553 20.9145 5.45851 20.5944 5.51654 20.2848C5.57457 19.9752 5.74365 19.6975 5.992 19.5038C6.24036 19.31 6.55091 19.2137 6.86531 19.2328C7.1797 19.2519 7.4763 19.3851 7.69938 19.6075L13.7244 25.6325C13.899 25.8076 14.1217 25.927 14.3643 25.9755C14.6068 26.024 14.8583 25.9994 15.0869 25.9049C15.3155 25.8105 15.5109 25.6503 15.6484 25.4447C15.7859 25.2391 15.8593 24.9973 15.8594 24.75V5.375C15.8594 4.87772 16.0569 4.40081 16.4085 4.04917C16.7602 3.69754 17.2371 3.5 17.7344 3.5ZM22.1093 12.165V5.375C22.1093 4.21468 21.6484 3.10188 20.8279 2.28141C20.0074 1.46094 18.8946 1 17.7343 1C16.574 1 15.4612 1.46094 14.6407 2.28141C13.8202 3.10188 13.3593 4.21468 13.3593 5.375V21.7325L9.46688 17.84C8.81196 17.1887 7.94186 16.7988 7.01987 16.7434C6.09789 16.6881 5.18739 16.9711 4.45925 17.5394C3.73111 18.1076 3.23538 18.9221 3.0651 19.8299C2.89481 20.7377 3.06168 21.6765 3.53438 22.47L9.76188 32.8525L12.7994 38.9275C13.111 39.5504 13.5899 40.0743 14.1825 40.4404C14.775 40.8064 15.4578 41.0002 16.1543 41H31.9093C32.5703 40.9998 33.2195 40.8249 33.7911 40.493C34.3627 40.1611 34.8364 39.684 35.1643 39.11L38.6518 33.0075C39.2615 31.9408 39.6397 30.7576 39.7618 29.535L40.4394 22.7475C40.5089 22.0524 40.432 21.3505 40.2136 20.6869C39.9952 20.0234 39.6402 19.413 39.1715 18.895C38.7028 18.3771 38.1307 17.9631 37.4922 17.6798C36.8537 17.3964 36.1629 17.25 35.4644 17.25H34.0118C33.8557 17.0384 33.6931 16.8316 33.5243 16.63C33.0468 16.0575 32.2493 15.21 31.3243 14.84C30.4143 14.475 29.2093 14.51 28.4293 14.57L28.0993 14.6C27.8331 13.9187 27.3382 13.3512 26.6993 12.995C26.1241 12.6633 25.5021 12.4205 24.8543 12.275C24.0793 12.12 23.0069 12.13 22.2294 12.16L22.1093 12.165Z" fill="#FC11BC"/>
<path d="M66.1093 5.375V12.165L66.2268 12.16C67.0068 12.13 68.0818 12.12 68.8543 12.275C69.5543 12.415 70.2118 12.725 70.6993 12.995C71.3818 13.375 71.8393 13.9575 72.0993 14.6L72.4293 14.57C73.2093 14.51 74.4143 14.475 75.3243 14.84C76.2493 15.21 77.0468 16.0575 77.5243 16.63C77.7118 16.855 77.8768 17.0675 78.0118 17.25H79.4668C80.1653 17.25 80.8561 17.3964 81.4946 17.6798C82.1332 17.9631 82.7052 18.3771 83.1739 18.895C83.6426 19.413 83.9976 20.0234 84.216 20.6869C84.4344 21.3505 84.5113 22.0524 84.4418 22.7475L83.7618 29.535C83.6397 30.7576 83.2615 31.9408 82.6518 33.0075L79.1643 39.11C78.8364 39.684 78.3627 40.1611 77.7911 40.493C77.2195 40.8249 76.5703 40.9998 75.9093 41H60.1543C59.4575 41 58.7745 40.8058 58.1819 40.4393C57.5893 40.0728 57.1105 39.5484 56.7993 38.925L53.7618 32.85L47.5343 22.4725C47.0616 21.679 46.8947 20.7402 47.065 19.8324C47.2353 18.9246 47.731 18.1101 48.4592 17.5419C49.1873 16.9736 50.0978 16.6906 51.0198 16.7459C51.9418 16.8013 52.8119 17.1912 53.4668 17.8425L57.3593 21.7325V5.375C57.3593 4.21468 57.8202 3.10188 58.6407 2.28141C59.4612 1.46094 60.574 1 61.7343 1C62.8946 1 64.0074 1.46094 64.8279 2.28141C65.6484 3.10188 66.1093 4.21468 66.1093 5.375Z" fill="white"/>
<path d="M61.7344 3.5C62.2317 3.5 62.7086 3.69754 63.0602 4.04917C63.4118 4.40081 63.6094 4.87772 63.6094 5.375V21C63.6094 21.3315 63.7411 21.6495 63.9755 21.8839C64.2099 22.1183 64.5279 22.25 64.8594 22.25C65.1909 22.25 65.5088 22.1183 65.7433 21.8839C65.9777 21.6495 66.1094 21.3315 66.1094 21V14.6675L66.3244 14.6575C67.1169 14.6275 67.9169 14.6375 68.3644 14.725C68.6994 14.7925 69.0994 14.965 69.4844 15.18C69.6769 15.285 69.8594 15.5475 69.8594 15.965V21C69.8594 21.3315 69.9911 21.6495 70.2255 21.8839C70.4599 22.1183 70.7779 22.25 71.1094 22.25C71.4409 22.25 71.7588 22.1183 71.9933 21.8839C72.2277 21.6495 72.3594 21.3315 72.3594 21V17.0875L72.6244 17.0625C73.4144 17.0025 74.0844 17.0375 74.3944 17.1625C74.6894 17.2775 75.1444 17.68 75.6094 18.2375C75.8119 18.4775 75.9844 18.7125 76.1094 18.885V22.25C76.1094 22.5815 76.2411 22.8995 76.4755 23.1339C76.7099 23.3683 77.0279 23.5 77.3594 23.5C77.6909 23.5 78.0088 23.3683 78.2433 23.1339C78.4777 22.8995 78.6094 22.5815 78.6094 22.25V19.75H79.4644C79.8138 19.75 80.1593 19.8232 80.4786 19.965C80.798 20.1067 81.0841 20.3138 81.3184 20.5729C81.5528 20.8321 81.7303 21.1374 81.8394 21.4693C81.9485 21.8013 81.9868 22.1524 81.9519 22.5L81.2744 29.2875C81.1869 30.1598 80.9169 31.0039 80.4819 31.765L76.9944 37.87C76.8851 38.0613 76.7272 38.2204 76.5366 38.331C76.3461 38.4416 76.1297 38.4999 75.9094 38.5H60.1544C59.9224 38.5 59.6951 38.4354 59.4977 38.3136C59.3003 38.1917 59.1408 38.0174 59.0369 37.81L55.9569 31.6475L49.6769 21.185C49.5155 20.9145 49.4585 20.5944 49.5165 20.2848C49.5746 19.9752 49.7436 19.6975 49.992 19.5038C50.2404 19.31 50.5509 19.2137 50.8653 19.2328C51.1797 19.2519 51.4763 19.3851 51.6994 19.6075L57.7244 25.6325C57.899 25.8076 58.1217 25.927 58.3643 25.9755C58.6068 26.024 58.8583 25.9994 59.0869 25.9049C59.3155 25.8105 59.5109 25.6503 59.6484 25.4447C59.7859 25.2391 59.8593 24.9973 59.8594 24.75V5.375C59.8594 4.87772 60.0569 4.40081 60.4085 4.04917C60.7602 3.69754 61.2371 3.5 61.7344 3.5ZM66.1093 12.165V5.375C66.1093 4.21468 65.6484 3.10188 64.8279 2.28141C64.0074 1.46094 62.8946 1 61.7343 1C60.574 1 59.4612 1.46094 58.6407 2.28141C57.8202 3.10188 57.3593 4.21468 57.3593 5.375V21.7325L53.4669 17.84C52.812 17.1887 51.9419 16.7988 51.0199 16.7434C50.0979 16.6881 49.1874 16.9711 48.4593 17.5394C47.7311 18.1076 47.2354 18.9221 47.0651 19.8299C46.8948 20.7377 47.0617 21.6765 47.5344 22.47L53.7619 32.8525L56.7994 38.9275C57.111 39.5504 57.5899 40.0743 58.1825 40.4404C58.775 40.8064 59.4578 41.0002 60.1543 41H75.9093C76.5703 40.9998 77.2195 40.8249 77.7911 40.493C78.3627 40.1611 78.8364 39.684 79.1643 39.11L82.6518 33.0075C83.2615 31.9408 83.6397 30.7576 83.7618 29.535L84.4394 22.7475C84.5089 22.0524 84.432 21.3505 84.2136 20.6869C83.9952 20.0234 83.6402 19.413 83.1715 18.895C82.7028 18.3771 82.1307 17.9631 81.4922 17.6798C80.8537 17.3964 80.1629 17.25 79.4644 17.25H78.0118C77.8557 17.0384 77.6931 16.8316 77.5243 16.63C77.0468 16.0575 76.2493 15.21 75.3243 14.84C74.4143 14.475 73.2093 14.51 72.4293 14.57L72.0993 14.6C71.8331 13.9187 71.3382 13.3512 70.6993 12.995C70.1241 12.6633 69.5021 12.4205 68.8543 12.275C68.0793 12.12 67.0069 12.13 66.2294 12.16L66.1093 12.165Z" fill="#FC11BC"/>
<path d="M97.324 31V11.4H106.228C108.356 11.4 110.232 11.8107 111.856 12.632C113.48 13.4347 114.749 14.564 115.664 16.02C116.579 17.476 117.036 19.2027 117.036 21.2C117.036 23.1787 116.579 24.9053 115.664 26.38C114.749 27.836 113.48 28.9747 111.856 29.796C110.232 30.5987 108.356 31 106.228 31H97.324ZM101.86 27.276H106.004C107.311 27.276 108.44 27.0333 109.392 26.548C110.363 26.044 111.109 25.3347 111.632 24.42C112.173 23.5053 112.444 22.432 112.444 21.2C112.444 19.9493 112.173 18.876 111.632 17.98C111.109 17.0653 110.363 16.3653 109.392 15.88C108.44 15.376 107.311 15.124 106.004 15.124H101.86V27.276ZM122.149 31V15.936H126.321V20.192L125.733 18.96C126.181 17.896 126.899 17.0933 127.889 16.552C128.878 15.992 130.082 15.712 131.501 15.712V19.744C131.314 19.7253 131.146 19.716 130.997 19.716C130.847 19.6973 130.689 19.688 130.521 19.688C129.326 19.688 128.355 20.0333 127.609 20.724C126.881 21.396 126.517 22.4507 126.517 23.888V31H122.149ZM144.354 31V28.06L144.074 27.416V22.152C144.074 21.2187 143.784 20.4907 143.206 19.968C142.646 19.4453 141.778 19.184 140.602 19.184C139.799 19.184 139.006 19.3147 138.222 19.576C137.456 19.8187 136.803 20.1547 136.262 20.584L134.694 17.532C135.515 16.9533 136.504 16.5053 137.662 16.188C138.819 15.8707 139.995 15.712 141.19 15.712C143.486 15.712 145.268 16.2533 146.538 17.336C147.807 18.4187 148.442 20.108 148.442 22.404V31H144.354ZM139.762 31.224C138.586 31.224 137.578 31.028 136.738 30.636C135.898 30.2253 135.254 29.6747 134.806 28.984C134.358 28.2933 134.134 27.5187 134.134 26.66C134.134 25.764 134.348 24.98 134.778 24.308C135.226 23.636 135.926 23.1133 136.878 22.74C137.83 22.348 139.071 22.152 140.602 22.152H144.606V24.7H141.078C140.051 24.7 139.342 24.868 138.95 25.204C138.576 25.54 138.39 25.96 138.39 26.464C138.39 27.024 138.604 27.472 139.034 27.808C139.482 28.1253 140.088 28.284 140.854 28.284C141.582 28.284 142.235 28.116 142.814 27.78C143.392 27.4253 143.812 26.912 144.074 26.24L144.746 28.256C144.428 29.2267 143.85 29.964 143.01 30.468C142.17 30.972 141.087 31.224 139.762 31.224ZM161.588 36.656C160.17 36.656 158.798 36.4787 157.472 36.124C156.166 35.788 155.074 35.2747 154.196 34.584L155.932 31.448C156.567 31.9707 157.37 32.3813 158.34 32.68C159.33 32.9973 160.3 33.156 161.252 33.156C162.802 33.156 163.922 32.8107 164.612 32.12C165.322 31.4293 165.676 30.4027 165.676 29.04V26.772L165.956 22.992L165.9 19.184V15.936H170.044V28.48C170.044 31.28 169.316 33.3427 167.86 34.668C166.404 35.9933 164.314 36.656 161.588 36.656ZM160.916 30.272C159.516 30.272 158.247 29.9733 157.108 29.376C155.988 28.76 155.083 27.9107 154.392 26.828C153.72 25.7267 153.384 24.448 153.384 22.992C153.384 21.5173 153.72 20.2387 154.392 19.156C155.083 18.0547 155.988 17.2053 157.108 16.608C158.247 16.0107 159.516 15.712 160.916 15.712C162.186 15.712 163.306 15.9733 164.276 16.496C165.247 17 166.003 17.7933 166.544 18.876C167.086 19.94 167.356 21.312 167.356 22.992C167.356 24.6533 167.086 26.0253 166.544 27.108C166.003 28.172 165.247 28.9653 164.276 29.488C163.306 30.0107 162.186 30.272 160.916 30.272ZM161.784 26.688C162.55 26.688 163.231 26.5387 163.828 26.24C164.426 25.9227 164.892 25.484 165.228 24.924C165.564 24.364 165.732 23.72 165.732 22.992C165.732 22.2453 165.564 21.6013 165.228 21.06C164.892 20.5 164.426 20.0707 163.828 19.772C163.231 19.4547 162.55 19.296 161.784 19.296C161.019 19.296 160.338 19.4547 159.74 19.772C159.143 20.0707 158.667 20.5 158.312 21.06C157.976 21.6013 157.808 22.2453 157.808 22.992C157.808 23.72 157.976 24.364 158.312 24.924C158.667 25.484 159.143 25.9227 159.74 26.24C160.338 26.5387 161.019 26.688 161.784 26.688Z" fill="#FC11BC"/>
</svg>
