<svg width="124" height="88" viewBox="0 0 124 88" fill="none" xmlns="http://www.w3.org/2000/svg">
<g clip-path="url(#clip0_2264_42344)">
<path d="M6 87.0114L11.7735 77.0114L0.2265 77.0114L6 87.0114ZM5 21.7529L5 78.0114L7 78.0114L7 21.7529L5 21.7529Z" fill="#FC11BC"/>
<path d="M4.375 18.3573L11.165 18.3573L11.16 18.2398C11.13 17.4598 11.12 16.3848 11.275 15.6123C11.415 14.9123 11.725 14.2548 11.995 13.7673C12.375 13.0848 12.9575 12.6273 13.6 12.3673L13.57 12.0373C13.51 11.2573 13.475 10.0523 13.84 9.14226C14.21 8.21726 15.0575 7.41976 15.63 6.94226C15.855 6.75476 16.0675 6.58976 16.25 6.45476L16.25 4.99976C16.25 4.3012 16.3964 3.61042 16.6798 2.97191C16.9631 2.3334 17.3771 1.76135 17.895 1.29263C18.413 0.823905 19.0234 0.468917 19.6869 0.250541C20.3505 0.0321646 21.0524 -0.0447473 21.7475 0.0247564L28.535 0.704756C29.7576 0.82685 30.9408 1.20506 32.0075 1.81476L38.11 5.30226C38.684 5.63011 39.1611 6.10384 39.493 6.67546C39.8249 7.24708 39.9998 7.89627 40 8.55726L40 24.3123C40 25.009 39.8058 25.692 39.4393 26.2846C39.0728 26.8773 38.5484 27.356 37.925 27.6673L31.85 30.7048L21.4725 36.9323C20.679 37.405 19.7402 37.5718 18.8324 37.4015C17.9246 37.2312 17.1101 36.7355 16.5419 36.0074C15.9736 35.2792 15.6906 34.3687 15.7459 33.4468C15.8013 32.5248 16.1912 31.6547 16.8425 30.9998L20.7325 27.1073L4.375 27.1073C3.21468 27.1073 2.10188 26.6463 1.28141 25.8258C0.460936 25.0054 -5.93337e-07 23.8926 -6.44057e-07 22.7323C-6.94776e-07 21.5719 0.460935 20.4591 1.28141 19.6387C2.10188 18.8182 3.21468 18.3573 4.375 18.3573Z" fill="white"/>
<path d="M2.5 22.7322C2.5 22.2349 2.69754 21.758 3.04917 21.4064C3.4008 21.0547 3.87772 20.8572 4.375 20.8572L20 20.8572C20.3315 20.8572 20.6495 20.7255 20.8839 20.4911C21.1183 20.2566 21.25 19.9387 21.25 19.6072C21.25 19.2757 21.1183 18.9577 20.8839 18.7233C20.6495 18.4889 20.3315 18.3572 20 18.3572L13.6675 18.3572L13.6575 18.1422C13.6275 17.3497 13.6375 16.5497 13.725 16.1022C13.7925 15.7672 13.965 15.3672 14.18 14.9822C14.285 14.7897 14.5475 14.6072 14.965 14.6072L20 14.6072C20.3315 14.6072 20.6495 14.4755 20.8839 14.2411C21.1183 14.0066 21.25 13.6887 21.25 13.3572C21.25 13.0257 21.1183 12.7077 20.8839 12.4733C20.6495 12.2389 20.3315 12.1072 20 12.1072L16.0875 12.1072L16.0625 11.8422C16.0025 11.0522 16.0375 10.3822 16.1625 10.0722C16.2775 9.77718 16.68 9.32218 17.2375 8.85718C17.4775 8.65468 17.7125 8.48218 17.885 8.35718L21.25 8.35718C21.5815 8.35718 21.8995 8.22548 22.1339 7.99106C22.3683 7.75664 22.5 7.4387 22.5 7.10718C22.5 6.77566 22.3683 6.45772 22.1339 6.22329C21.8995 5.98887 21.5815 5.85718 21.25 5.85718L18.75 5.85718L18.75 5.00218C18.75 4.65279 18.8232 4.30727 18.965 3.98793C19.1067 3.66858 19.3138 3.38248 19.5729 3.1481C19.832 2.91373 20.1374 2.73626 20.4693 2.62716C20.8013 2.51805 21.1524 2.47974 21.5 2.51468L28.2875 3.19218C29.1598 3.27967 30.0039 3.54969 30.765 3.98468L36.87 7.47218C37.0613 7.58146 37.2204 7.73937 37.331 7.92991C37.4416 8.12045 37.4999 8.33685 37.5 8.55718L37.5 24.3122C37.5 24.5441 37.4354 24.7715 37.3136 24.9688C37.1917 25.1662 37.0174 25.3258 36.81 25.4297L30.6475 28.5097L20.185 34.7897C19.9145 34.951 19.5944 35.008 19.2848 34.95C18.9752 34.892 18.6975 34.7229 18.5038 34.4745C18.31 34.2262 18.2137 33.9156 18.2328 33.6012C18.2519 33.2869 18.3851 32.9903 18.6075 32.7672L24.6325 26.7422C24.8076 26.5675 24.927 26.3448 24.9755 26.1023C25.024 25.8597 24.9994 25.6083 24.9049 25.3797C24.8105 25.1511 24.6503 24.9557 24.4447 24.8182C24.2391 24.6807 23.9973 24.6072 23.75 24.6072L4.375 24.6072C3.87772 24.6072 3.4008 24.4096 3.04917 24.058C2.69754 23.7064 2.5 23.2295 2.5 22.7322ZM11.165 18.3573L4.375 18.3573C3.21468 18.3573 2.10188 18.8182 1.28141 19.6387C0.460935 20.4591 -6.94776e-07 21.5719 -6.44057e-07 22.7323C-5.93337e-07 23.8926 0.460936 25.0054 1.28141 25.8258C2.10188 26.6463 3.21468 27.1073 4.375 27.1073L20.7325 27.1073L16.84 30.9997C16.1887 31.6546 15.7988 32.5247 15.7434 33.4467C15.6881 34.3687 15.9711 35.2792 16.5394 36.0073C17.1076 36.7354 17.9221 37.2312 18.8299 37.4015C19.7377 37.5717 20.6765 37.4049 21.47 36.9322L31.8525 30.7047L37.9275 27.6672C38.5504 27.3556 39.0743 26.8767 39.4404 26.2841C39.8064 25.6915 40.0002 25.0088 40 24.3123L40 8.55726C39.9998 7.89627 39.8249 7.24708 39.493 6.67546C39.1611 6.10384 38.684 5.63011 38.11 5.30226L32.0075 1.81476C30.9408 1.20506 29.7576 0.82685 28.535 0.704756L21.7475 0.0271788C21.0524 -0.0423288 20.3505 0.0345832 19.6869 0.252959C19.0234 0.471336 18.413 0.826324 17.895 1.29505C17.3771 1.76377 16.9631 2.33582 16.6798 2.97433C16.3964 3.61283 16.25 4.30363 16.25 5.00218L16.25 6.45476C16.0384 6.61084 15.8316 6.77342 15.63 6.94226C15.0575 7.41976 14.21 8.21726 13.84 9.14226C13.475 10.0523 13.51 11.2573 13.57 12.0373L13.6 12.3673C12.9187 12.6334 12.3512 13.1284 11.995 13.7673C11.6633 14.3424 11.4205 14.9645 11.275 15.6123C11.12 16.3873 11.13 17.4597 11.16 18.2372L11.165 18.3573Z" fill="#FC11BC"/>
<path d="M4.375 60.3573L11.165 60.3573L11.16 60.2398C11.13 59.4598 11.12 58.3848 11.275 57.6123C11.415 56.9123 11.725 56.2548 11.995 55.7673C12.375 55.0848 12.9575 54.6273 13.6 54.3673L13.57 54.0373C13.51 53.2573 13.475 52.0523 13.84 51.1423C14.21 50.2173 15.0575 49.4198 15.63 48.9423C15.855 48.7548 16.0675 48.5898 16.25 48.4548L16.25 46.9998C16.25 46.3012 16.3964 45.6104 16.6798 44.9719C16.9631 44.3334 17.3771 43.7614 17.895 43.2926C18.413 42.8239 19.0234 42.4689 19.6869 42.2505C20.3505 42.0322 21.0524 41.9553 21.7475 42.0248L28.535 42.7048C29.7576 42.8268 30.9408 43.2051 32.0075 43.8148L38.11 47.3023C38.684 47.6301 39.1611 48.1038 39.493 48.6755C39.8249 49.2471 39.9998 49.8963 40 50.5573L40 66.3123C40 67.009 39.8058 67.692 39.4393 68.2846C39.0728 68.8773 38.5484 69.356 37.925 69.6673L31.85 72.7048L21.4725 78.9323C20.679 79.405 19.7402 79.5718 18.8324 79.4015C17.9246 79.2312 17.1101 78.7355 16.5419 78.0074C15.9736 77.2792 15.6906 76.3687 15.7459 75.4468C15.8013 74.5248 16.1912 73.6547 16.8425 72.9998L20.7325 69.1073L4.375 69.1073C3.21468 69.1073 2.10188 68.6463 1.28141 67.8258C0.460936 67.0054 -5.93337e-07 65.8926 -6.44057e-07 64.7323C-6.94776e-07 63.5719 0.460935 62.4591 1.28141 61.6387C2.10188 60.8182 3.21468 60.3573 4.375 60.3573Z" fill="white"/>
<path d="M2.5 64.7322C2.5 64.2349 2.69754 63.758 3.04917 63.4064C3.4008 63.0547 3.87772 62.8572 4.375 62.8572L20 62.8572C20.3315 62.8572 20.6495 62.7255 20.8839 62.4911C21.1183 62.2566 21.25 61.9387 21.25 61.6072C21.25 61.2757 21.1183 60.9577 20.8839 60.7233C20.6495 60.4889 20.3315 60.3572 20 60.3572L13.6675 60.3572L13.6575 60.1422C13.6275 59.3497 13.6375 58.5497 13.725 58.1022C13.7925 57.7672 13.965 57.3672 14.18 56.9822C14.285 56.7897 14.5475 56.6072 14.965 56.6072L20 56.6072C20.3315 56.6072 20.6495 56.4755 20.8839 56.2411C21.1183 56.0066 21.25 55.6887 21.25 55.3572C21.25 55.0257 21.1183 54.7077 20.8839 54.4733C20.6495 54.2389 20.3315 54.1072 20 54.1072L16.0875 54.1072L16.0625 53.8422C16.0025 53.0522 16.0375 52.3822 16.1625 52.0722C16.2775 51.7772 16.68 51.3222 17.2375 50.8572C17.4775 50.6547 17.7125 50.4822 17.885 50.3572L21.25 50.3572C21.5815 50.3572 21.8995 50.2255 22.1339 49.9911C22.3683 49.7566 22.5 49.4387 22.5 49.1072C22.5 48.7757 22.3683 48.4577 22.1339 48.2233C21.8995 47.9889 21.5815 47.8572 21.25 47.8572L18.75 47.8572L18.75 47.0022C18.75 46.6528 18.8232 46.3073 18.965 45.9879C19.1067 45.6686 19.3138 45.3825 19.5729 45.1481C19.832 44.9137 20.1374 44.7363 20.4693 44.6272C20.8013 44.5181 21.1524 44.4797 21.5 44.5147L28.2875 45.1922C29.1598 45.2797 30.0039 45.5497 30.765 45.9847L36.87 49.4722C37.0613 49.5815 37.2204 49.7394 37.331 49.9299C37.4416 50.1205 37.4999 50.3368 37.5 50.5572L37.5 66.3122C37.5 66.5441 37.4354 66.7715 37.3136 66.9688C37.1917 67.1662 37.0174 67.3258 36.81 67.4297L30.6475 70.5097L20.185 76.7897C19.9145 76.951 19.5944 77.008 19.2848 76.95C18.9752 76.892 18.6975 76.7229 18.5038 76.4745C18.31 76.2262 18.2137 75.9156 18.2328 75.6012C18.2519 75.2869 18.3851 74.9903 18.6075 74.7672L24.6325 68.7422C24.8076 68.5675 24.927 68.3448 24.9755 68.1023C25.024 67.8597 24.9994 67.6083 24.9049 67.3797C24.8105 67.1511 24.6503 66.9557 24.4447 66.8182C24.2391 66.6807 23.9973 66.6072 23.75 66.6072L4.375 66.6072C3.87772 66.6072 3.4008 66.4096 3.04917 66.058C2.69754 65.7064 2.5 65.2295 2.5 64.7322ZM11.165 60.3573L4.375 60.3573C3.21468 60.3573 2.10188 60.8182 1.28141 61.6387C0.460935 62.4591 -6.94776e-07 63.5719 -6.44057e-07 64.7323C-5.93337e-07 65.8926 0.460936 67.0054 1.28141 67.8258C2.10188 68.6463 3.21468 69.1073 4.375 69.1073L20.7325 69.1073L16.84 72.9997C16.1887 73.6546 15.7988 74.5247 15.7434 75.4467C15.6881 76.3687 15.9711 77.2792 16.5394 78.0073C17.1076 78.7354 17.9221 79.2312 18.8299 79.4015C19.7377 79.5717 20.6765 79.4049 21.47 78.9322L31.8525 72.7047L37.9275 69.6672C38.5504 69.3556 39.0743 68.8767 39.4404 68.2841C39.8064 67.6915 40.0002 67.0088 40 66.3123L40 50.5573C39.9998 49.8963 39.8249 49.2471 39.493 48.6755C39.1611 48.1038 38.684 47.6301 38.11 47.3023L32.0075 43.8148C30.9408 43.2051 29.7576 42.8268 28.535 42.7048L21.7475 42.0272C21.0524 41.9577 20.3505 42.0346 19.6869 42.253C19.0234 42.4713 18.413 42.8263 17.895 43.295C17.3771 43.7638 16.9631 44.3358 16.6798 44.9743C16.3964 45.6128 16.25 46.3036 16.25 47.0022L16.25 48.4548C16.0384 48.6108 15.8316 48.7734 15.63 48.9423C15.0575 49.4198 14.21 50.2173 13.84 51.1423C13.475 52.0523 13.51 53.2573 13.57 54.0373L13.6 54.3673C12.9187 54.6334 12.3512 55.1284 11.995 55.7673C11.6633 56.3424 11.4205 56.9645 11.275 57.6123C11.12 58.3873 11.13 59.4597 11.16 60.2372L11.165 60.3573Z" fill="#FC11BC"/>
</g>
<path d="M50.324 31V11.4H59.228C61.356 11.4 63.232 11.8107 64.856 12.632C66.48 13.4347 67.7493 14.564 68.664 16.02C69.5787 17.476 70.036 19.2027 70.036 21.2C70.036 23.1787 69.5787 24.9053 68.664 26.38C67.7493 27.836 66.48 28.9747 64.856 29.796C63.232 30.5987 61.356 31 59.228 31H50.324ZM54.86 27.276H59.004C60.3107 27.276 61.44 27.0333 62.392 26.548C63.3627 26.044 64.1093 25.3347 64.632 24.42C65.1733 23.5053 65.444 22.432 65.444 21.2C65.444 19.9493 65.1733 18.876 64.632 17.98C64.1093 17.0653 63.3627 16.3653 62.392 15.88C61.44 15.376 60.3107 15.124 59.004 15.124H54.86V27.276ZM75.1488 31V15.936H79.3208V20.192L78.7328 18.96C79.1808 17.896 79.8995 17.0933 80.8888 16.552C81.8781 15.992 83.0821 15.712 84.5008 15.712V19.744C84.3141 19.7253 84.1461 19.716 83.9968 19.716C83.8475 19.6973 83.6888 19.688 83.5208 19.688C82.3261 19.688 81.3555 20.0333 80.6088 20.724C79.8808 21.396 79.5168 22.4507 79.5168 23.888V31H75.1488ZM97.3537 31V28.06L97.0737 27.416V22.152C97.0737 21.2187 96.7843 20.4907 96.2057 19.968C95.6457 19.4453 94.7777 19.184 93.6017 19.184C92.799 19.184 92.0057 19.3147 91.2217 19.576C90.4563 19.8187 89.803 20.1547 89.2617 20.584L87.6937 17.532C88.515 16.9533 89.5043 16.5053 90.6617 16.188C91.819 15.8707 92.995 15.712 94.1897 15.712C96.4857 15.712 98.2683 16.2533 99.5377 17.336C100.807 18.4187 101.442 20.108 101.442 22.404V31H97.3537ZM92.7617 31.224C91.5857 31.224 90.5777 31.028 89.7377 30.636C88.8977 30.2253 88.2537 29.6747 87.8057 28.984C87.3577 28.2933 87.1337 27.5187 87.1337 26.66C87.1337 25.764 87.3483 24.98 87.7777 24.308C88.2257 23.636 88.9257 23.1133 89.8777 22.74C90.8297 22.348 92.071 22.152 93.6017 22.152H97.6057V24.7H94.0777C93.051 24.7 92.3417 24.868 91.9497 25.204C91.5763 25.54 91.3897 25.96 91.3897 26.464C91.3897 27.024 91.6043 27.472 92.0337 27.808C92.4817 28.1253 93.0883 28.284 93.8537 28.284C94.5817 28.284 95.235 28.116 95.8137 27.78C96.3923 27.4253 96.8123 26.912 97.0737 26.24L97.7457 28.256C97.4283 29.2267 96.8497 29.964 96.0097 30.468C95.1697 30.972 94.087 31.224 92.7617 31.224ZM114.588 36.656C113.17 36.656 111.798 36.4787 110.472 36.124C109.166 35.788 108.074 35.2747 107.196 34.584L108.932 31.448C109.567 31.9707 110.37 32.3813 111.34 32.68C112.33 32.9973 113.3 33.156 114.252 33.156C115.802 33.156 116.922 32.8107 117.612 32.12C118.322 31.4293 118.676 30.4027 118.676 29.04V26.772L118.956 22.992L118.9 19.184V15.936H123.044V28.48C123.044 31.28 122.316 33.3427 120.86 34.668C119.404 35.9933 117.314 36.656 114.588 36.656ZM113.916 30.272C112.516 30.272 111.247 29.9733 110.108 29.376C108.988 28.76 108.083 27.9107 107.392 26.828C106.72 25.7267 106.384 24.448 106.384 22.992C106.384 21.5173 106.72 20.2387 107.392 19.156C108.083 18.0547 108.988 17.2053 110.108 16.608C111.247 16.0107 112.516 15.712 113.916 15.712C115.186 15.712 116.306 15.9733 117.276 16.496C118.247 17 119.003 17.7933 119.544 18.876C120.086 19.94 120.356 21.312 120.356 22.992C120.356 24.6533 120.086 26.0253 119.544 27.108C119.003 28.172 118.247 28.9653 117.276 29.488C116.306 30.0107 115.186 30.272 113.916 30.272ZM114.784 26.688C115.55 26.688 116.231 26.5387 116.828 26.24C117.426 25.9227 117.892 25.484 118.228 24.924C118.564 24.364 118.732 23.72 118.732 22.992C118.732 22.2453 118.564 21.6013 118.228 21.06C117.892 20.5 117.426 20.0707 116.828 19.772C116.231 19.4547 115.55 19.296 114.784 19.296C114.019 19.296 113.338 19.4547 112.74 19.772C112.143 20.0707 111.667 20.5 111.312 21.06C110.976 21.6013 110.808 22.2453 110.808 22.992C110.808 23.72 110.976 24.364 111.312 24.924C111.667 25.484 112.143 25.9227 112.74 26.24C113.338 26.5387 114.019 26.688 114.784 26.688Z" fill="#FC11BC"/>
<defs>
<clipPath id="clip0_2264_42344">
<rect width="40" height="88" fill="white"/>
</clipPath>
</defs>
</svg>
