<svg width="128" height="17" viewBox="0 0 128 17" fill="none" xmlns="http://www.w3.org/2000/svg">
<g clip-path="url(#clip0_23_1864)">
<path d="M57.8013 8.29651V9.32776H54.2271V8.29651H57.8013ZM55.2584 6.74377H56.6705V12.8844C56.6705 13.0797 56.6978 13.2301 56.7525 13.3356C56.8111 13.4371 56.8912 13.5055 56.9927 13.5406C57.0943 13.5758 57.2134 13.5934 57.3502 13.5934C57.4478 13.5934 57.5416 13.5875 57.6314 13.5758C57.7213 13.5641 57.7935 13.5524 57.8482 13.5406L57.8541 14.6188C57.7369 14.6539 57.6002 14.6852 57.4439 14.7125C57.2916 14.7399 57.1158 14.7535 56.9166 14.7535C56.5923 14.7535 56.3052 14.6969 56.0552 14.5836C55.8052 14.4664 55.6099 14.277 55.4693 14.0153C55.3287 13.7535 55.2584 13.4059 55.2584 12.9723V6.74377ZM60.4329 8.29651V14.6364H59.0149V8.29651H60.4329ZM58.9212 6.63245C58.9212 6.4176 58.9915 6.23987 59.1321 6.09924C59.2766 5.95471 59.4759 5.88245 59.7298 5.88245C59.9798 5.88245 60.177 5.95471 60.3216 6.09924C60.4661 6.23987 60.5384 6.4176 60.5384 6.63245C60.5384 6.84338 60.4661 7.01917 60.3216 7.15979C60.177 7.30042 59.9798 7.37073 59.7298 7.37073C59.4759 7.37073 59.2766 7.30042 59.1321 7.15979C58.9915 7.01917 58.9212 6.84338 58.9212 6.63245ZM64.916 8.29651V9.32776H61.3418V8.29651H64.916ZM62.373 6.74377H63.7852V12.8844C63.7852 13.0797 63.8125 13.2301 63.8672 13.3356C63.9258 13.4371 64.0059 13.5055 64.1074 13.5406C64.209 13.5758 64.3281 13.5934 64.4648 13.5934C64.5625 13.5934 64.6562 13.5875 64.7461 13.5758C64.8359 13.5641 64.9082 13.5524 64.9629 13.5406L64.9688 14.6188C64.8516 14.6539 64.7148 14.6852 64.5586 14.7125C64.4062 14.7399 64.2305 14.7535 64.0312 14.7535C63.707 14.7535 63.4199 14.6969 63.1699 14.5836C62.9199 14.4664 62.7246 14.277 62.584 14.0153C62.4434 13.7535 62.373 13.4059 62.373 12.9723V6.74377ZM67.5476 5.63635V14.6364H66.1296V5.63635H67.5476ZM71.9194 14.7535C71.4506 14.7535 71.0268 14.6774 70.6479 14.525C70.2729 14.3688 69.9526 14.152 69.687 13.8746C69.4252 13.5973 69.2241 13.2711 69.0834 12.8961C68.9428 12.5211 68.8725 12.1168 68.8725 11.6832V11.4489C68.8725 10.9528 68.9448 10.5035 69.0893 10.1012C69.2338 9.69885 69.435 9.3551 69.6928 9.06995C69.9506 8.78088 70.2553 8.56018 70.6069 8.40784C70.9584 8.25549 71.3393 8.17932 71.7495 8.17932C72.2026 8.17932 72.5991 8.25549 72.9389 8.40784C73.2787 8.56018 73.56 8.77502 73.7827 9.05237C74.0092 9.32581 74.1772 9.65198 74.2866 10.0309C74.3998 10.4098 74.4565 10.8278 74.4565 11.2848V11.8883H69.558V10.8746H73.062V10.7633C73.0541 10.5094 73.0034 10.2711 72.9096 10.0485C72.8198 9.82581 72.6811 9.64612 72.4936 9.5094C72.3061 9.37268 72.0561 9.30432 71.7436 9.30432C71.5092 9.30432 71.3002 9.3551 71.1166 9.45667C70.937 9.55432 70.7866 9.6969 70.6655 9.8844C70.5444 10.0719 70.4506 10.2985 70.3842 10.5641C70.3217 10.8258 70.2905 11.1207 70.2905 11.4489V11.6832C70.2905 11.9606 70.3276 12.2184 70.4018 12.4567C70.4799 12.691 70.5932 12.8961 70.7416 13.0719C70.8901 13.2477 71.0698 13.3864 71.2807 13.4879C71.4916 13.5856 71.7319 13.6344 72.0014 13.6344C72.3412 13.6344 72.644 13.566 72.9096 13.4293C73.1752 13.2926 73.4057 13.0992 73.601 12.8492L74.3452 13.5699C74.2084 13.7692 74.0307 13.9606 73.812 14.1442C73.5932 14.3239 73.3256 14.4703 73.0092 14.5836C72.6967 14.6969 72.3334 14.7535 71.9194 14.7535Z" fill="#FF4E84"/>
</g>
<defs>
<clipPath id="clip0_23_1864">
<rect width="128" height="17" fill="white"/>
</clipPath>
</defs>
</svg>
