<svg width="16" height="16" viewBox="0 0 16 16" fill="none" xmlns="http://www.w3.org/2000/svg">
<rect width="16" height="16" rx="5" fill="#4A4D5A"/>
<path d="M4 5.5H12M11.5 5.5L11.0665 11.571C11.0485 11.8233 10.9356 12.0594 10.7506 12.2318C10.5655 12.4042 10.3219 12.5 10.069 12.5H5.931C5.67807 12.5 5.43453 12.4042 5.24944 12.2318C5.06435 12.0594 4.95146 11.8233 4.9335 11.571L4.5 5.5H11.5ZM7 7.5V10.5V7.5ZM9 7.5V10.5V7.5ZM9.5 5.5V4C9.5 3.86739 9.44732 3.74021 9.35355 3.64645C9.25979 3.55268 9.13261 3.5 9 3.5H7C6.86739 3.5 6.74021 3.55268 6.64645 3.64645C6.55268 3.74021 6.5 3.86739 6.5 4V5.5H9.5Z" stroke="white" stroke-linecap="round" stroke-linejoin="round"/>
</svg>
