<svg width="1920" height="960" viewBox="0 0 1920 960" fill="none" xmlns="http://www.w3.org/2000/svg">
<rect width="1920" height="960" fill="#383A44"/>
<path d="M429.035 559.549H373L573.13 224.292C573.812 223.166 575.483 223.098 576.233 224.189L685.063 382.509C685.575 383.259 685.37 384.248 684.586 384.726L645.706 409.208C644.921 409.686 643.898 409.481 643.387 408.765L579.03 315.13C578.348 314.141 576.813 314.176 576.199 315.199L430.502 558.73C430.195 559.242 429.649 559.549 429.035 559.549Z" fill="url(#paint0_linear_171_626050)"/>
<path d="M591.921 735.805C579.848 735.805 567.775 733.656 556.384 729.326C525.587 717.596 505.669 692.738 501.747 661.061C497.961 630.576 505.771 598.933 523.711 571.961L755.149 223.849C755.934 222.689 757.741 222.723 758.458 223.917L959.406 557.162C960.054 558.219 959.235 559.583 957.939 559.549L902.518 558.901C901.938 558.901 901.393 558.594 901.086 558.083L756.002 315.812C755.388 314.755 753.819 314.721 753.137 315.744L565.763 597.569C553.962 615.3 548.812 635.862 551.268 655.434C552.496 665.289 557.577 678.417 574.8 684.964C588.545 690.181 604.438 688.783 617.296 681.179C622.139 678.314 624.321 676.473 628.653 672.79C634.962 667.437 643.557 660.174 663.679 646.637C664.429 646.125 665.521 646.296 666.032 647.012L693.657 684.793C674.865 697.41 667.226 703.854 661.667 708.56C656.687 712.788 651.947 716.778 643.489 721.79C627.834 731.065 609.895 735.805 591.921 735.805Z" fill="url(#paint1_linear_171_626050)"/>
<path fill-rule="evenodd" clip-rule="evenodd" d="M697.682 456.333C696.659 456.094 695.636 456.776 695.567 457.765L692.259 499.808L689.053 540.385C688.951 541.749 690.52 542.602 691.679 541.818L715.003 526.036L763.539 599.069C764.967 601.215 766.399 603.284 767.804 605.314C778.009 620.058 786.813 632.779 782.706 658.435C781.137 668.255 771.758 679.917 754.501 686.464C740.757 691.681 724.863 690.283 712.006 682.679L710.505 681.792C697.272 673.984 680.186 660.344 666.237 639.646C665.657 638.794 664.429 638.623 663.679 639.339L629.505 672.074C648.762 701.567 666.335 711.872 681.789 720.935C682.648 721.439 683.501 721.939 684.346 722.438L685.813 723.29C701.501 732.565 719.441 737.305 737.414 737.305C749.453 737.305 761.561 735.156 772.952 730.792C803.749 719.062 828.782 693.488 832.602 661.81C837.453 621.282 824.274 601.466 807.003 575.5C806.546 574.813 806.087 574.122 805.625 573.427L755.79 498.439L781.786 480.849C782.945 480.065 782.638 478.326 781.274 477.985L740.211 467.346L697.682 456.333Z" fill="url(#paint2_linear_171_626050)"/>
<path d="M1034.57 342.625V445H1013.55V342.625H1034.57ZM1140.53 342.625V445H1119.43L1078.3 376.375V445H1057.21V342.625H1078.3L1119.51 411.32V342.625H1140.53ZM1171.39 342.625H1189.25L1215.55 417.789L1241.85 342.625H1259.71L1222.72 445H1208.38L1171.39 342.625ZM1161.76 342.625H1179.55L1182.78 415.891V445H1161.76V342.625ZM1251.55 342.625H1269.41V445H1248.31V415.891L1251.55 342.625ZM1359.48 428.547V445H1304.98V428.547H1359.48ZM1311.87 342.625V445H1290.78V342.625H1311.87ZM1352.37 384.32V400.352H1304.98V384.32H1352.37ZM1359.41 342.625V359.148H1304.98V342.625H1359.41ZM1443.36 428.547V445H1388.86V428.547H1443.36ZM1395.75 342.625V445H1374.66V342.625H1395.75ZM1436.25 384.32V400.352H1388.86V384.32H1436.25ZM1443.29 342.625V359.148H1388.86V342.625H1443.29ZM1505.72 342.625V445H1484.7V342.625H1505.72ZM1537.22 342.625V359.148H1453.69V342.625H1537.22Z" fill="white"/>
<path d="M1053.77 530.133L1025.92 615H1003.49L1041.53 512.625H1055.8L1053.77 530.133ZM1076.9 615L1048.98 530.133L1046.73 512.625H1061.15L1099.4 615H1076.9ZM1075.63 576.891V593.414H1021.56V576.891H1075.63ZM1151.64 578.508H1125.55V562.055H1151.64C1155.67 562.055 1158.95 561.398 1161.48 560.086C1164.01 558.727 1165.86 556.852 1167.04 554.461C1168.21 552.07 1168.79 549.375 1168.79 546.375C1168.79 543.328 1168.21 540.492 1167.04 537.867C1165.86 535.242 1164.01 533.133 1161.48 531.539C1158.95 529.945 1155.67 529.148 1151.64 529.148H1132.86V615H1111.77V512.625H1151.64C1159.65 512.625 1166.52 514.078 1172.24 516.984C1178 519.844 1182.41 523.805 1185.46 528.867C1188.5 533.93 1190.03 539.719 1190.03 546.234C1190.03 552.844 1188.5 558.562 1185.46 563.391C1182.41 568.219 1178 571.945 1172.24 574.57C1166.52 577.195 1159.65 578.508 1151.64 578.508ZM1247.33 578.508H1221.24V562.055H1247.33C1251.36 562.055 1254.64 561.398 1257.17 560.086C1259.71 558.727 1261.56 556.852 1262.73 554.461C1263.9 552.07 1264.49 549.375 1264.49 546.375C1264.49 543.328 1263.9 540.492 1262.73 537.867C1261.56 535.242 1259.71 533.133 1257.17 531.539C1254.64 529.945 1251.36 529.148 1247.33 529.148H1228.56V615H1207.46V512.625H1247.33C1255.35 512.625 1262.21 514.078 1267.93 516.984C1273.7 519.844 1278.1 523.805 1281.15 528.867C1284.2 533.93 1285.72 539.719 1285.72 546.234C1285.72 552.844 1284.2 558.562 1281.15 563.391C1278.1 568.219 1273.7 571.945 1267.93 574.57C1262.21 577.195 1255.35 578.508 1247.33 578.508Z" fill="white"/>
<defs>
<linearGradient id="paint0_linear_171_626050" x1="529.172" y1="223.408" x2="529.172" y2="559.549" gradientUnits="userSpaceOnUse">
<stop stop-color="#FF4E84"/>
<stop offset="1" stop-color="#E134EE"/>
</linearGradient>
<linearGradient id="paint1_linear_171_626050" x1="730.223" y1="223" x2="730.223" y2="735.805" gradientUnits="userSpaceOnUse">
<stop stop-color="#FF4E84"/>
<stop offset="1" stop-color="#E134EE"/>
</linearGradient>
<linearGradient id="paint2_linear_171_626050" x1="735.775" y1="456.285" x2="735.775" y2="542.117" gradientUnits="userSpaceOnUse">
<stop stop-color="#FF4E84"/>
<stop offset="1" stop-color="#E134EE"/>
</linearGradient>
</defs>
</svg>
