<svg width="1064" height="1064" viewBox="0 0 1064 1064" fill="none" xmlns="http://www.w3.org/2000/svg">
<g filter="url(#filter0_dii_1429_15928)">
<rect width="1024" height="1024" transform="translate(20 6)" fill="url(#paint0_linear_1429_15928)"/>
<path d="M236.635 616.234H167L415.704 199.606C416.552 198.207 418.628 198.122 419.561 199.478L554.805 396.224C555.441 397.156 555.187 398.385 554.212 398.979L505.895 429.404C504.92 429.997 503.649 429.743 503.013 428.853L423.036 312.492C422.189 311.263 420.281 311.305 419.518 312.577L238.458 615.217C238.076 615.852 237.398 616.234 236.635 616.234Z" fill="url(#paint1_linear_1429_15928)"/>
<path d="M439.056 835.269C424.053 835.269 409.049 832.599 394.893 827.217C356.621 812.641 331.87 781.749 326.996 742.383C322.291 704.5 331.997 665.177 354.29 631.658L641.902 199.055C642.877 197.614 645.123 197.656 646.013 199.139L895.734 613.268C896.539 614.581 895.522 616.276 893.911 616.234L825.039 615.429C824.319 615.429 823.64 615.047 823.259 614.412L642.961 313.339C642.198 312.026 640.249 311.983 639.401 313.254L406.549 663.482C391.884 685.516 385.484 711.068 388.536 735.391C390.062 747.638 396.377 763.952 417.78 772.088C434.86 778.571 454.611 776.834 470.589 767.384C476.608 763.825 479.32 761.537 484.703 756.96C492.544 750.307 503.224 741.282 528.23 724.459C529.163 723.823 530.519 724.035 531.155 724.925L565.485 771.876C542.132 787.555 532.638 795.564 525.73 801.411C519.542 806.666 513.651 811.624 503.14 817.853C483.686 829.379 461.392 835.269 439.056 835.269Z" fill="url(#paint2_linear_1429_15928)"/>
<path fill-rule="evenodd" clip-rule="evenodd" d="M570.486 487.965C569.215 487.669 567.943 488.516 567.859 489.745L563.748 541.993L559.764 592.419C559.636 594.114 561.586 595.173 563.027 594.199L592.012 574.587L652.328 665.346C654.103 668.012 655.882 670.583 657.628 673.106C670.31 691.429 681.251 707.237 676.147 739.12C674.197 751.324 662.542 765.816 641.096 773.952C624.016 780.435 604.265 778.698 588.287 769.248L586.422 768.147C569.977 758.443 548.743 741.493 531.409 715.771C530.688 714.712 529.162 714.5 528.23 715.39L485.762 756.07C509.692 792.721 531.531 805.527 550.736 816.79C551.804 817.416 552.863 818.037 553.914 818.657L555.737 819.717C575.233 831.243 597.526 837.133 619.862 837.133C634.823 837.133 649.869 834.463 664.025 829.039C702.297 814.462 733.406 782.681 738.153 743.315C744.182 692.949 727.804 668.324 706.341 636.056C705.774 635.202 705.203 634.344 704.628 633.48L642.698 540.291L675.003 518.433C676.444 517.458 676.063 515.297 674.367 514.873L623.338 501.652L570.486 487.965Z" fill="url(#paint3_linear_1429_15928)"/>
</g>
<defs>
<filter id="filter0_dii_1429_15928" x="0" y="0" width="1064" height="1064" filterUnits="userSpaceOnUse" color-interpolation-filters="sRGB">
<feFlood flood-opacity="0" result="BackgroundImageFix"/>
<feColorMatrix in="SourceAlpha" type="matrix" values="0 0 0 0 0 0 0 0 0 0 0 0 0 0 0 0 0 0 127 0" result="hardAlpha"/>
<feOffset dy="14"/>
<feGaussianBlur stdDeviation="10"/>
<feColorMatrix type="matrix" values="0 0 0 0 0 0 0 0 0 0 0 0 0 0 0 0 0 0 0.25 0"/>
<feBlend mode="normal" in2="BackgroundImageFix" result="effect1_dropShadow_1429_15928"/>
<feBlend mode="normal" in="SourceGraphic" in2="effect1_dropShadow_1429_15928" result="shape"/>
<feColorMatrix in="SourceAlpha" type="matrix" values="0 0 0 0 0 0 0 0 0 0 0 0 0 0 0 0 0 0 127 0" result="hardAlpha"/>
<feOffset dy="4"/>
<feGaussianBlur stdDeviation="1"/>
<feComposite in2="hardAlpha" operator="arithmetic" k2="-1" k3="1"/>
<feColorMatrix type="matrix" values="0 0 0 0 1 0 0 0 0 1 0 0 0 0 1 0 0 0 0.44 0"/>
<feBlend mode="normal" in2="shape" result="effect2_innerShadow_1429_15928"/>
<feColorMatrix in="SourceAlpha" type="matrix" values="0 0 0 0 0 0 0 0 0 0 0 0 0 0 0 0 0 0 127 0" result="hardAlpha"/>
<feOffset dy="-3"/>
<feGaussianBlur stdDeviation="2"/>
<feComposite in2="hardAlpha" operator="arithmetic" k2="-1" k3="1"/>
<feColorMatrix type="matrix" values="0 0 0 0 0 0 0 0 0 0 0 0 0 0 0 0 0 0 0.25 0"/>
<feBlend mode="normal" in2="effect2_innerShadow_1429_15928" result="effect3_innerShadow_1429_15928"/>
</filter>
<linearGradient id="paint0_linear_1429_15928" x1="512" y1="0" x2="512" y2="1024" gradientUnits="userSpaceOnUse">
<stop stop-color="#3A3D47"/>
<stop offset="1" stop-color="#23242B"/>
</linearGradient>
<linearGradient id="paint1_linear_1429_15928" x1="361.077" y1="198.508" x2="361.077" y2="616.234" gradientUnits="userSpaceOnUse">
<stop stop-color="#FF4E84"/>
<stop offset="1" stop-color="#E134EE"/>
</linearGradient>
<linearGradient id="paint2_linear_1429_15928" x1="610.926" y1="198" x2="610.926" y2="835.269" gradientUnits="userSpaceOnUse">
<stop stop-color="#FF4E84"/>
<stop offset="1" stop-color="#E134EE"/>
</linearGradient>
<linearGradient id="paint3_linear_1429_15928" x1="617.825" y1="487.906" x2="617.825" y2="594.571" gradientUnits="userSpaceOnUse">
<stop stop-color="#FF4E84"/>
<stop offset="1" stop-color="#E134EE"/>
</linearGradient>
</defs>
</svg>
