<svg width="367" height="100" viewBox="0 0 367 100" fill="none" xmlns="http://www.w3.org/2000/svg">
<path d="M41.1093 24.375V31.165L41.2268 31.16C42.0068 31.13 43.0818 31.12 43.8543 31.275C44.5543 31.415 45.2118 31.725 45.6993 31.995C46.3818 32.375 46.8393 32.9575 47.0993 33.6L47.4293 33.57C48.2093 33.51 49.4143 33.475 50.3243 33.84C51.2493 34.21 52.0468 35.0575 52.5243 35.63C52.7118 35.855 52.8768 36.0675 53.0118 36.25H54.4668C55.1653 36.25 55.8561 36.3964 56.4946 36.6798C57.1332 36.9631 57.7052 37.3771 58.1739 37.895C58.6426 38.413 58.9976 39.0234 59.216 39.6869C59.4344 40.3505 59.5113 41.0524 59.4418 41.7475L58.7618 48.535C58.6397 49.7576 58.2615 50.9408 57.6518 52.0075L54.1643 58.11C53.8364 58.684 53.3627 59.1611 52.7911 59.493C52.2195 59.8249 51.5703 59.9998 50.9093 60H35.1543C34.4575 60 33.7745 59.8058 33.1819 59.4393C32.5893 59.0728 32.1105 58.5484 31.7993 57.925L28.7618 51.85L22.5343 41.4725C22.0616 40.679 21.8947 39.7402 22.065 38.8324C22.2353 37.9246 22.731 37.1101 23.4592 36.5419C24.1873 35.9736 25.0978 35.6906 26.0198 35.7459C26.9418 35.8013 27.8119 36.1912 28.4668 36.8425L32.3593 40.7325V24.375C32.3593 23.2147 32.8202 22.1019 33.6407 21.2814C34.4612 20.4609 35.574 20 36.7343 20C37.8946 20 39.0074 20.4609 39.8279 21.2814C40.6484 22.1019 41.1093 23.2147 41.1093 24.375Z" fill="white"/>
<path d="M36.7344 22.5C37.2317 22.5 37.7086 22.6975 38.0602 23.0492C38.4118 23.4008 38.6094 23.8777 38.6094 24.375V40C38.6094 40.3315 38.7411 40.6495 38.9755 40.8839C39.2099 41.1183 39.5279 41.25 39.8594 41.25C40.1909 41.25 40.5088 41.1183 40.7433 40.8839C40.9777 40.6495 41.1094 40.3315 41.1094 40V33.6675L41.3244 33.6575C42.1169 33.6275 42.9169 33.6375 43.3644 33.725C43.6994 33.7925 44.0994 33.965 44.4844 34.18C44.6769 34.285 44.8594 34.5475 44.8594 34.965V40C44.8594 40.3315 44.9911 40.6495 45.2255 40.8839C45.4599 41.1183 45.7779 41.25 46.1094 41.25C46.4409 41.25 46.7588 41.1183 46.9933 40.8839C47.2277 40.6495 47.3594 40.3315 47.3594 40V36.0875L47.6244 36.0625C48.4144 36.0025 49.0844 36.0375 49.3944 36.1625C49.6894 36.2775 50.1444 36.68 50.6094 37.2375C50.8119 37.4775 50.9844 37.7125 51.1094 37.885V41.25C51.1094 41.5815 51.2411 41.8995 51.4755 42.1339C51.7099 42.3683 52.0279 42.5 52.3594 42.5C52.6909 42.5 53.0088 42.3683 53.2433 42.1339C53.4777 41.8995 53.6094 41.5815 53.6094 41.25V38.75H54.4644C54.8138 38.75 55.1593 38.8232 55.4786 38.965C55.798 39.1067 56.0841 39.3138 56.3184 39.5729C56.5528 39.8321 56.7303 40.1374 56.8394 40.4693C56.9485 40.8013 56.9868 41.1524 56.9519 41.5L56.2744 48.2875C56.1869 49.1598 55.9169 50.0039 55.4819 50.765L51.9944 56.87C51.8851 57.0613 51.7272 57.2204 51.5366 57.331C51.3461 57.4416 51.1297 57.4999 50.9094 57.5H35.1544C34.9224 57.5 34.6951 57.4354 34.4977 57.3136C34.3003 57.1917 34.1408 57.0174 34.0369 56.81L30.9569 50.6475L24.6769 40.185C24.5155 39.9145 24.4585 39.5944 24.5165 39.2848C24.5746 38.9752 24.7436 38.6975 24.992 38.5038C25.2404 38.31 25.5509 38.2137 25.8653 38.2328C26.1797 38.2519 26.4763 38.3851 26.6994 38.6075L32.7244 44.6325C32.899 44.8076 33.1217 44.927 33.3643 44.9755C33.6068 45.024 33.8583 44.9994 34.0869 44.9049C34.3155 44.8105 34.5109 44.6503 34.6484 44.4447C34.7859 44.2391 34.8593 43.9973 34.8594 43.75V24.375C34.8594 23.8777 35.0569 23.4008 35.4085 23.0492C35.7602 22.6975 36.2371 22.5 36.7344 22.5ZM41.1093 31.165V24.375C41.1093 23.2147 40.6484 22.1019 39.8279 21.2814C39.0074 20.4609 37.8946 20 36.7343 20C35.574 20 34.4612 20.4609 33.6407 21.2814C32.8202 22.1019 32.3593 23.2147 32.3593 24.375V40.7325L28.4669 36.84C27.812 36.1887 26.9419 35.7988 26.0199 35.7434C25.0979 35.6881 24.1874 35.9711 23.4593 36.5394C22.7311 37.1076 22.2354 37.9221 22.0651 38.8299C21.8948 39.7377 22.0617 40.6765 22.5344 41.47L28.7619 51.8525L31.7994 57.9275C32.111 58.5504 32.5899 59.0743 33.1825 59.4404C33.775 59.8064 34.4578 60.0002 35.1543 60H50.9093C51.5703 59.9998 52.2195 59.8249 52.7911 59.493C53.3627 59.1611 53.8364 58.684 54.1643 58.11L57.6518 52.0075C58.2615 50.9408 58.6397 49.7576 58.7618 48.535L59.4394 41.7475C59.5089 41.0524 59.432 40.3505 59.2136 39.6869C58.9952 39.0234 58.6402 38.413 58.1715 37.895C57.7028 37.3771 57.1307 36.9631 56.4922 36.6798C55.8537 36.3964 55.1629 36.25 54.4644 36.25H53.0118C52.8557 36.0384 52.6931 35.8316 52.5243 35.63C52.0468 35.0575 51.2493 34.21 50.3243 33.84C49.4143 33.475 48.2093 33.51 47.4293 33.57L47.0993 33.6C46.8331 32.9187 46.3382 32.3512 45.6993 31.995C45.1241 31.6633 44.5021 31.4205 43.8543 31.275C43.0793 31.12 42.0069 31.13 41.2294 31.16L41.1093 31.165Z" fill="#FC11BC"/>
<path d="M96.5714 28C96.5714 32.4183 92.9897 36 88.5714 36C84.1531 36 80.5714 32.4183 80.5714 28C80.5714 23.5817 84.1531 20 88.5714 20C92.9897 20 96.5714 23.5817 96.5714 28Z" fill="white"/>
<path fill-rule="evenodd" clip-rule="evenodd" d="M88.5714 33.7143C91.7273 33.7143 94.2857 31.1559 94.2857 28C94.2857 24.8441 91.7273 22.2857 88.5714 22.2857C85.4155 22.2857 82.8571 24.8441 82.8571 28C82.8571 31.1559 85.4155 33.7143 88.5714 33.7143ZM88.5714 36C92.9897 36 96.5714 32.4183 96.5714 28C96.5714 23.5817 92.9897 20 88.5714 20C84.1531 20 80.5714 23.5817 80.5714 28C80.5714 32.4183 84.1531 36 88.5714 36Z" fill="#FC11BC"/>
<path d="M92.904 29.4643V35.2843L93.008 35.28C93.698 35.2543 94.6489 35.2457 95.3322 35.3786C95.9515 35.4986 96.5331 35.7643 96.9643 35.9957C97.5681 36.3214 97.9728 36.8207 98.2028 37.3714L98.4947 37.3457C99.1847 37.2943 100.251 37.2643 101.056 37.5771C101.874 37.8943 102.579 38.6207 103.002 39.1114C103.168 39.3043 103.314 39.4864 103.433 39.6429H104.72C105.338 39.6429 105.949 39.7684 106.514 40.0112C107.079 40.2541 107.585 40.6089 107.999 41.0529C108.414 41.4968 108.728 42.0201 108.921 42.5888C109.114 43.1576 109.182 43.7592 109.121 44.355L108.519 50.1729C108.411 51.2208 108.077 52.2349 107.537 53.1493L104.452 58.38C104.162 58.872 103.743 59.2809 103.238 59.5654C102.732 59.8499 102.158 59.9998 101.573 60H87.6363C87.0199 60 86.4157 59.8336 85.8915 59.5194C85.3673 59.2052 84.9437 58.7558 84.6684 58.2214L81.9815 53.0143L76.4726 44.1193C76.0545 43.4391 75.9069 42.6345 76.0575 41.8563C76.2081 41.0782 76.6467 40.3801 77.2908 39.893C77.9349 39.4059 78.7403 39.1633 79.5559 39.2108C80.3715 39.2582 81.1412 39.5924 81.7205 40.1507L85.1638 43.485V29.4643C85.1638 28.4697 85.5715 27.5159 86.2973 26.8126C87.0231 26.1094 88.0075 25.7143 89.0339 25.7143C90.0603 25.7143 91.0447 26.1094 91.7705 26.8126C92.4963 27.5159 92.904 28.4697 92.904 29.4643Z" fill="white"/>
<path d="M89.034 27.8571C89.4739 27.8571 89.8958 28.0265 90.2068 28.3279C90.5179 28.6293 90.6926 29.038 90.6926 29.4643V42.8571C90.6926 43.1413 90.8091 43.4138 91.0165 43.6148C91.2238 43.8157 91.5051 43.9286 91.7984 43.9286C92.0916 43.9286 92.3729 43.8157 92.5802 43.6148C92.7876 43.4138 92.9041 43.1413 92.9041 42.8571V37.4293L93.0943 37.4207C93.7953 37.395 94.503 37.4036 94.8989 37.4786C95.1952 37.5364 95.549 37.6843 95.8896 37.8686C96.0599 37.9586 96.2213 38.1836 96.2213 38.5414V42.8571C96.2213 43.1413 96.3378 43.4138 96.5452 43.6148C96.7526 43.8157 97.0338 43.9286 97.3271 43.9286C97.6203 43.9286 97.9016 43.8157 98.109 43.6148C98.3163 43.4138 98.4328 43.1413 98.4328 42.8571V39.5036L98.6672 39.4821C99.3661 39.4307 99.9588 39.4607 100.233 39.5679C100.494 39.6664 100.896 40.0114 101.308 40.4893C101.487 40.695 101.639 40.8964 101.75 41.0443V43.9286C101.75 44.2127 101.867 44.4853 102.074 44.6862C102.281 44.8871 102.563 45 102.856 45C103.149 45 103.43 44.8871 103.638 44.6862C103.845 44.4853 103.962 44.2127 103.962 43.9286V41.7857H104.718C105.027 41.7857 105.333 41.8485 105.615 41.97C105.898 42.0915 106.151 42.269 106.358 42.4911C106.565 42.7132 106.722 42.9749 106.819 43.2594C106.915 43.5439 106.949 43.8449 106.918 44.1429L106.319 49.9607C106.242 50.7084 106.003 51.4319 105.618 52.0843L102.533 57.3171C102.436 57.4811 102.297 57.6174 102.128 57.7123C101.959 57.8071 101.768 57.8571 101.573 57.8571H87.6363C87.4311 57.8571 87.23 57.8018 87.0554 57.6974C86.8809 57.5929 86.7397 57.4435 86.6478 57.2657L83.9232 51.9836L78.368 43.0157C78.2252 42.7839 78.1748 42.5095 78.2261 42.2441C78.2775 41.9788 78.427 41.7407 78.6467 41.5747C78.8664 41.4086 79.1411 41.326 79.4192 41.3424C79.6973 41.3588 79.9597 41.473 80.1571 41.6636L85.4868 46.8279C85.6413 46.978 85.8383 47.0803 86.0528 47.1218C86.2674 47.1634 86.4898 47.1424 86.692 47.0614C86.8942 46.9804 87.0671 46.8431 87.1887 46.6669C87.3104 46.4907 87.3753 46.2834 87.3754 46.0714V29.4643C87.3754 29.038 87.5501 28.6293 87.8612 28.3279C88.1722 28.0265 88.5941 27.8571 89.034 27.8571ZM92.904 35.2843V29.4643C92.904 28.4697 92.4963 27.5159 91.7705 26.8126C91.0447 26.1094 90.0603 25.7143 89.0339 25.7143C88.0075 25.7143 87.0231 26.1094 86.2973 26.8126C85.5715 27.5159 85.1638 28.4697 85.1638 29.4643V43.485L81.7206 40.1486C81.1412 39.5903 80.3716 39.2561 79.556 39.2086C78.7404 39.1612 77.935 39.4038 77.2908 39.8909C76.6467 40.378 76.2082 41.0761 76.0576 41.8542C75.907 42.6323 76.0546 43.437 76.4727 44.1171L81.9815 53.0164L84.6685 58.2236C84.9441 58.7575 85.3673 59.2056 85.8915 59.5194C86.4157 59.8336 87.0199 60 87.6363 60H101.573C102.158 59.9998 102.732 59.8499 103.238 59.5654C103.743 59.2809 104.162 58.872 104.452 58.38L107.537 53.1493C108.077 52.2349 108.411 51.2208 108.519 50.1729L109.119 44.355C109.18 43.7592 109.112 43.1576 108.919 42.5888C108.726 42.0201 108.412 41.4968 107.997 41.0529C107.583 40.6089 107.077 40.2541 106.512 40.0112C105.947 39.7684 105.336 39.6429 104.718 39.6429H103.433C103.295 39.4615 103.151 39.2842 103.002 39.1114C102.579 38.6207 101.874 37.8943 101.056 37.5771C100.251 37.2643 99.1847 37.2943 98.4947 37.3457L98.2028 37.3714C97.9673 36.7874 97.5295 36.3011 96.9643 35.9957C96.4556 35.7114 95.9053 35.5033 95.3322 35.3786C94.6467 35.2457 93.698 35.2543 93.0103 35.28L92.904 35.2843Z" fill="#FC11BC"/>
<path d="M213.5 26L203.5 20.2265V31.7735L213.5 26ZM148 27H204.5V25H148V27Z" fill="#FC11BC"/>
<path d="M148.109 24.375V31.165L148.227 31.16C149.007 31.13 150.082 31.12 150.854 31.275C151.554 31.415 152.212 31.725 152.699 31.995C153.382 32.375 153.839 32.9575 154.099 33.6L154.429 33.57C155.209 33.51 156.414 33.475 157.324 33.84C158.249 34.21 159.047 35.0575 159.524 35.63C159.712 35.855 159.877 36.0675 160.012 36.25H161.467C162.165 36.25 162.856 36.3964 163.495 36.6798C164.133 36.9631 164.705 37.3771 165.174 37.895C165.643 38.413 165.998 39.0234 166.216 39.6869C166.434 40.3505 166.511 41.0524 166.442 41.7475L165.762 48.535C165.64 49.7576 165.261 50.9408 164.652 52.0075L161.164 58.11C160.836 58.684 160.363 59.1611 159.791 59.493C159.219 59.8249 158.57 59.9998 157.909 60H142.154C141.458 60 140.775 59.8058 140.182 59.4393C139.589 59.0728 139.111 58.5484 138.799 57.925L135.762 51.85L129.534 41.4725C129.062 40.679 128.895 39.7402 129.065 38.8324C129.235 37.9246 129.731 37.1101 130.459 36.5419C131.187 35.9736 132.098 35.6906 133.02 35.7459C133.942 35.8013 134.812 36.1912 135.467 36.8425L139.359 40.7325V24.375C139.359 23.2147 139.82 22.1019 140.641 21.2814C141.461 20.4609 142.574 20 143.734 20C144.895 20 146.007 20.4609 146.828 21.2814C147.648 22.1019 148.109 23.2147 148.109 24.375Z" fill="white"/>
<path d="M143.734 22.5C144.232 22.5 144.709 22.6975 145.06 23.0492C145.412 23.4008 145.609 23.8777 145.609 24.375V40C145.609 40.3315 145.741 40.6495 145.975 40.8839C146.21 41.1183 146.528 41.25 146.859 41.25C147.191 41.25 147.509 41.1183 147.743 40.8839C147.978 40.6495 148.109 40.3315 148.109 40V33.6675L148.324 33.6575C149.117 33.6275 149.917 33.6375 150.364 33.725C150.699 33.7925 151.099 33.965 151.484 34.18C151.677 34.285 151.859 34.5475 151.859 34.965V40C151.859 40.3315 151.991 40.6495 152.225 40.8839C152.46 41.1183 152.778 41.25 153.109 41.25C153.441 41.25 153.759 41.1183 153.993 40.8839C154.228 40.6495 154.359 40.3315 154.359 40V36.0875L154.624 36.0625C155.414 36.0025 156.084 36.0375 156.394 36.1625C156.689 36.2775 157.144 36.68 157.609 37.2375C157.812 37.4775 157.984 37.7125 158.109 37.885V41.25C158.109 41.5815 158.241 41.8995 158.475 42.1339C158.71 42.3683 159.028 42.5 159.359 42.5C159.691 42.5 160.009 42.3683 160.243 42.1339C160.478 41.8995 160.609 41.5815 160.609 41.25V38.75H161.464C161.814 38.75 162.159 38.8232 162.479 38.965C162.798 39.1067 163.084 39.3138 163.318 39.5729C163.553 39.8321 163.73 40.1374 163.839 40.4693C163.948 40.8013 163.987 41.1524 163.952 41.5L163.274 48.2875C163.187 49.1598 162.917 50.0039 162.482 50.765L158.994 56.87C158.885 57.0613 158.727 57.2204 158.537 57.331C158.346 57.4416 158.13 57.4999 157.909 57.5H142.154C141.922 57.5 141.695 57.4354 141.498 57.3136C141.3 57.1917 141.141 57.0174 141.037 56.81L137.957 50.6475L131.677 40.185C131.516 39.9145 131.459 39.5944 131.517 39.2848C131.575 38.9752 131.744 38.6975 131.992 38.5038C132.24 38.31 132.551 38.2137 132.865 38.2328C133.18 38.2519 133.476 38.3851 133.699 38.6075L139.724 44.6325C139.899 44.8076 140.122 44.927 140.364 44.9755C140.607 45.024 140.858 44.9994 141.087 44.9049C141.315 44.8105 141.511 44.6503 141.648 44.4447C141.786 44.2391 141.859 43.9973 141.859 43.75V24.375C141.859 23.8777 142.057 23.4008 142.409 23.0492C142.76 22.6975 143.237 22.5 143.734 22.5ZM148.109 31.165V24.375C148.109 23.2147 147.648 22.1019 146.828 21.2814C146.007 20.4609 144.895 20 143.734 20C142.574 20 141.461 20.4609 140.641 21.2814C139.82 22.1019 139.359 23.2147 139.359 24.375V40.7325L135.467 36.84C134.812 36.1887 133.942 35.7988 133.02 35.7434C132.098 35.6881 131.187 35.9711 130.459 36.5394C129.731 37.1076 129.235 37.9221 129.065 38.8299C128.895 39.7377 129.062 40.6765 129.534 41.47L135.762 51.8525L138.799 57.9275C139.111 58.5504 139.59 59.0743 140.182 59.4404C140.775 59.8064 141.458 60.0002 142.154 60H157.909C158.57 59.9998 159.219 59.8249 159.791 59.493C160.363 59.1611 160.836 58.684 161.164 58.11L164.652 52.0075C165.261 50.9408 165.64 49.7576 165.762 48.535L166.439 41.7475C166.509 41.0524 166.432 40.3505 166.214 39.6869C165.995 39.0234 165.64 38.413 165.172 37.895C164.703 37.3771 164.131 36.9631 163.492 36.6798C162.854 36.3964 162.163 36.25 161.464 36.25H160.012C159.856 36.0384 159.693 35.8316 159.524 35.63C159.047 35.0575 158.249 34.21 157.324 33.84C156.414 33.475 155.209 33.51 154.429 33.57L154.099 33.6C153.833 32.9187 153.338 32.3512 152.699 31.995C152.124 31.6633 151.502 31.4205 150.854 31.275C150.079 31.12 149.007 31.13 148.229 31.16L148.109 31.165Z" fill="#FC11BC"/>
<path d="M192.109 24.375V31.165L192.227 31.16C193.007 31.13 194.082 31.12 194.854 31.275C195.554 31.415 196.212 31.725 196.699 31.995C197.382 32.375 197.839 32.9575 198.099 33.6L198.429 33.57C199.209 33.51 200.414 33.475 201.324 33.84C202.249 34.21 203.047 35.0575 203.524 35.63C203.712 35.855 203.877 36.0675 204.012 36.25H205.467C206.165 36.25 206.856 36.3964 207.495 36.6798C208.133 36.9631 208.705 37.3771 209.174 37.895C209.643 38.413 209.998 39.0234 210.216 39.6869C210.434 40.3505 210.511 41.0524 210.442 41.7475L209.762 48.535C209.64 49.7576 209.261 50.9408 208.652 52.0075L205.164 58.11C204.836 58.684 204.363 59.1611 203.791 59.493C203.219 59.8249 202.57 59.9998 201.909 60H186.154C185.458 60 184.775 59.8058 184.182 59.4393C183.589 59.0728 183.111 58.5484 182.799 57.925L179.762 51.85L173.534 41.4725C173.062 40.679 172.895 39.7402 173.065 38.8324C173.235 37.9246 173.731 37.1101 174.459 36.5419C175.187 35.9736 176.098 35.6906 177.02 35.7459C177.942 35.8013 178.812 36.1912 179.467 36.8425L183.359 40.7325V24.375C183.359 23.2147 183.82 22.1019 184.641 21.2814C185.461 20.4609 186.574 20 187.734 20C188.895 20 190.007 20.4609 190.828 21.2814C191.648 22.1019 192.109 23.2147 192.109 24.375Z" fill="white"/>
<path d="M187.734 22.5C188.232 22.5 188.709 22.6975 189.06 23.0492C189.412 23.4008 189.609 23.8777 189.609 24.375V40C189.609 40.3315 189.741 40.6495 189.975 40.8839C190.21 41.1183 190.528 41.25 190.859 41.25C191.191 41.25 191.509 41.1183 191.743 40.8839C191.978 40.6495 192.109 40.3315 192.109 40V33.6675L192.324 33.6575C193.117 33.6275 193.917 33.6375 194.364 33.725C194.699 33.7925 195.099 33.965 195.484 34.18C195.677 34.285 195.859 34.5475 195.859 34.965V40C195.859 40.3315 195.991 40.6495 196.225 40.8839C196.46 41.1183 196.778 41.25 197.109 41.25C197.441 41.25 197.759 41.1183 197.993 40.8839C198.228 40.6495 198.359 40.3315 198.359 40V36.0875L198.624 36.0625C199.414 36.0025 200.084 36.0375 200.394 36.1625C200.689 36.2775 201.144 36.68 201.609 37.2375C201.812 37.4775 201.984 37.7125 202.109 37.885V41.25C202.109 41.5815 202.241 41.8995 202.475 42.1339C202.71 42.3683 203.028 42.5 203.359 42.5C203.691 42.5 204.009 42.3683 204.243 42.1339C204.478 41.8995 204.609 41.5815 204.609 41.25V38.75H205.464C205.814 38.75 206.159 38.8232 206.479 38.965C206.798 39.1067 207.084 39.3138 207.318 39.5729C207.553 39.8321 207.73 40.1374 207.839 40.4693C207.948 40.8013 207.987 41.1524 207.952 41.5L207.274 48.2875C207.187 49.1598 206.917 50.0039 206.482 50.765L202.994 56.87C202.885 57.0613 202.727 57.2204 202.537 57.331C202.346 57.4416 202.13 57.4999 201.909 57.5H186.154C185.922 57.5 185.695 57.4354 185.498 57.3136C185.3 57.1917 185.141 57.0174 185.037 56.81L181.957 50.6475L175.677 40.185C175.516 39.9145 175.459 39.5944 175.517 39.2848C175.575 38.9752 175.744 38.6975 175.992 38.5038C176.24 38.31 176.551 38.2137 176.865 38.2328C177.18 38.2519 177.476 38.3851 177.699 38.6075L183.724 44.6325C183.899 44.8076 184.122 44.927 184.364 44.9755C184.607 45.024 184.858 44.9994 185.087 44.9049C185.315 44.8105 185.511 44.6503 185.648 44.4447C185.786 44.2391 185.859 43.9973 185.859 43.75V24.375C185.859 23.8777 186.057 23.4008 186.409 23.0492C186.76 22.6975 187.237 22.5 187.734 22.5ZM192.109 31.165V24.375C192.109 23.2147 191.648 22.1019 190.828 21.2814C190.007 20.4609 188.895 20 187.734 20C186.574 20 185.461 20.4609 184.641 21.2814C183.82 22.1019 183.359 23.2147 183.359 24.375V40.7325L179.467 36.84C178.812 36.1887 177.942 35.7988 177.02 35.7434C176.098 35.6881 175.187 35.9711 174.459 36.5394C173.731 37.1076 173.235 37.9221 173.065 38.8299C172.895 39.7377 173.062 40.6765 173.534 41.47L179.762 51.8525L182.799 57.9275C183.111 58.5504 183.59 59.0743 184.182 59.4404C184.775 59.8064 185.458 60.0002 186.154 60H201.909C202.57 59.9998 203.219 59.8249 203.791 59.493C204.363 59.1611 204.836 58.684 205.164 58.11L208.652 52.0075C209.261 50.9408 209.64 49.7576 209.762 48.535L210.439 41.7475C210.509 41.0524 210.432 40.3505 210.214 39.6869C209.995 39.0234 209.64 38.413 209.172 37.895C208.703 37.3771 208.131 36.9631 207.492 36.6798C206.854 36.3964 206.163 36.25 205.464 36.25H204.012C203.856 36.0384 203.693 35.8316 203.524 35.63C203.047 35.0575 202.249 34.21 201.324 33.84C200.414 33.475 199.209 33.51 198.429 33.57L198.099 33.6C197.833 32.9187 197.338 32.3512 196.699 31.995C196.124 31.6633 195.502 31.4205 194.854 31.275C194.079 31.12 193.007 31.13 192.229 31.16L192.109 31.165Z" fill="#FC11BC"/>
<g clip-path="url(#clip0_2264_42310)">
<path d="M244 93.0114L249.774 83.0114L238.226 83.0114L244 93.0114ZM243 27.7529L243 84.0114L245 84.0114L245 27.7529L243 27.7529Z" fill="#FC11BC"/>
<path d="M242.375 24.3573L249.165 24.3573L249.16 24.2398C249.13 23.4598 249.12 22.3848 249.275 21.6123C249.415 20.9123 249.725 20.2548 249.995 19.7673C250.375 19.0848 250.957 18.6273 251.6 18.3673L251.57 18.0373C251.51 17.2573 251.475 16.0523 251.84 15.1423C252.21 14.2173 253.057 13.4198 253.63 12.9423C253.855 12.7548 254.067 12.5898 254.25 12.4548L254.25 10.9998C254.25 10.3012 254.396 9.61042 254.68 8.97191C254.963 8.3334 255.377 7.76135 255.895 7.29263C256.413 6.82391 257.023 6.46892 257.687 6.25054C258.35 6.03216 259.052 5.95525 259.747 6.02476L266.535 6.70476C267.758 6.82685 268.941 7.20506 270.007 7.81476L276.11 11.3023C276.684 11.6301 277.161 12.1038 277.493 12.6755C277.825 13.2471 278 13.8963 278 14.5573L278 30.3123C278 31.009 277.806 31.692 277.439 32.2846C277.073 32.8773 276.548 33.356 275.925 33.6673L269.85 36.7048L259.472 42.9323C258.679 43.405 257.74 43.5718 256.832 43.4015C255.925 43.2312 255.11 42.7355 254.542 42.0074C253.974 41.2792 253.691 40.3687 253.746 39.4468C253.801 38.5248 254.191 37.6547 254.843 36.9998L258.732 33.1073L242.375 33.1073C241.215 33.1073 240.102 32.6463 239.281 31.8258C238.461 31.0054 238 29.8926 238 28.7323C238 27.5719 238.461 26.4591 239.281 25.6387C240.102 24.8182 241.215 24.3573 242.375 24.3573Z" fill="white"/>
<path d="M240.5 28.7322C240.5 28.2349 240.698 27.758 241.049 27.4064C241.401 27.0547 241.878 26.8572 242.375 26.8572L258 26.8572C258.332 26.8572 258.649 26.7255 258.884 26.4911C259.118 26.2566 259.25 25.9387 259.25 25.6072C259.25 25.2757 259.118 24.9577 258.884 24.7233C258.649 24.4889 258.332 24.3572 258 24.3572L251.667 24.3572L251.657 24.1422C251.627 23.3497 251.637 22.5497 251.725 22.1022C251.792 21.7672 251.965 21.3672 252.18 20.9822C252.285 20.7897 252.547 20.6072 252.965 20.6072L258 20.6072C258.332 20.6072 258.649 20.4755 258.884 20.2411C259.118 20.0066 259.25 19.6887 259.25 19.3572C259.25 19.0257 259.118 18.7077 258.884 18.4733C258.649 18.2389 258.332 18.1072 258 18.1072L254.087 18.1072L254.062 17.8422C254.002 17.0522 254.037 16.3822 254.162 16.0722C254.277 15.7772 254.68 15.3222 255.237 14.8572C255.477 14.6547 255.712 14.4822 255.885 14.3572L259.25 14.3572C259.582 14.3572 259.899 14.2255 260.134 13.9911C260.368 13.7566 260.5 13.4387 260.5 13.1072C260.5 12.7757 260.368 12.4577 260.134 12.2233C259.899 11.9889 259.582 11.8572 259.25 11.8572L256.75 11.8572L256.75 11.0022C256.75 10.6528 256.823 10.3073 256.965 9.98793C257.107 9.66858 257.314 9.38248 257.573 9.1481C257.832 8.91373 258.137 8.73626 258.469 8.62716C258.801 8.51805 259.152 8.47974 259.5 8.51468L266.287 9.19218C267.16 9.27967 268.004 9.54969 268.765 9.98468L274.87 13.4722C275.061 13.5815 275.22 13.7394 275.331 13.9299C275.442 14.1205 275.5 14.3368 275.5 14.5572L275.5 30.3122C275.5 30.5441 275.435 30.7715 275.314 30.9688C275.192 31.1662 275.017 31.3258 274.81 31.4297L268.647 34.5097L258.185 40.7897C257.914 40.951 257.594 41.008 257.285 40.95C256.975 40.892 256.697 40.7229 256.504 40.4745C256.31 40.2262 256.214 39.9156 256.233 39.6012C256.252 39.2869 256.385 38.9903 256.607 38.7672L262.632 32.7422C262.808 32.5675 262.927 32.3448 262.975 32.1023C263.024 31.8597 262.999 31.6083 262.905 31.3797C262.81 31.1511 262.65 30.9557 262.445 30.8182C262.239 30.6807 261.997 30.6072 261.75 30.6072L242.375 30.6072C241.878 30.6072 241.401 30.4096 241.049 30.058C240.698 29.7064 240.5 29.2295 240.5 28.7322ZM249.165 24.3573L242.375 24.3573C241.215 24.3573 240.102 24.8182 239.281 25.6387C238.461 26.4591 238 27.5719 238 28.7323C238 29.8926 238.461 31.0054 239.281 31.8258C240.102 32.6463 241.215 33.1073 242.375 33.1073L258.732 33.1073L254.84 36.9997C254.189 37.6546 253.799 38.5247 253.743 39.4467C253.688 40.3687 253.971 41.2792 254.539 42.0073C255.108 42.7354 255.922 43.2312 256.83 43.4015C257.738 43.5717 258.676 43.4049 259.47 42.9322L269.853 36.7047L275.927 33.6672C276.55 33.3556 277.074 32.8767 277.44 32.2841C277.806 31.6915 278 31.0088 278 30.3123L278 14.5573C278 13.8963 277.825 13.2471 277.493 12.6755C277.161 12.1038 276.684 11.6301 276.11 11.3023L270.007 7.81476C268.941 7.20506 267.758 6.82685 266.535 6.70476L259.747 6.02718C259.052 5.95767 258.35 6.03458 257.687 6.25296C257.023 6.47134 256.413 6.82632 255.895 7.29505C255.377 7.76377 254.963 8.33582 254.68 8.97433C254.396 9.61283 254.25 10.3036 254.25 11.0022L254.25 12.4548C254.038 12.6108 253.832 12.7734 253.63 12.9423C253.057 13.4198 252.21 14.2173 251.84 15.1423C251.475 16.0523 251.51 17.2573 251.57 18.0373L251.6 18.3673C250.919 18.6334 250.351 19.1284 249.995 19.7673C249.663 20.3424 249.421 20.9645 249.275 21.6123C249.12 22.3873 249.13 23.4597 249.16 24.2372L249.165 24.3573Z" fill="#FC11BC"/>
<path d="M242.375 66.3573L249.165 66.3573L249.16 66.2398C249.13 65.4598 249.12 64.3848 249.275 63.6123C249.415 62.9123 249.725 62.2548 249.995 61.7673C250.375 61.0848 250.957 60.6273 251.6 60.3673L251.57 60.0373C251.51 59.2573 251.475 58.0523 251.84 57.1423C252.21 56.2173 253.057 55.4198 253.63 54.9423C253.855 54.7548 254.067 54.5898 254.25 54.4548L254.25 52.9998C254.25 52.3012 254.396 51.6104 254.68 50.9719C254.963 50.3334 255.377 49.7614 255.895 49.2926C256.413 48.8239 257.023 48.4689 257.687 48.2505C258.35 48.0322 259.052 47.9553 259.747 48.0248L266.535 48.7048C267.758 48.8268 268.941 49.2051 270.007 49.8148L276.11 53.3023C276.684 53.6301 277.161 54.1038 277.493 54.6755C277.825 55.2471 278 55.8963 278 56.5573L278 72.3123C278 73.009 277.806 73.692 277.439 74.2846C277.073 74.8773 276.548 75.356 275.925 75.6673L269.85 78.7048L259.472 84.9323C258.679 85.405 257.74 85.5718 256.832 85.4015C255.925 85.2312 255.11 84.7355 254.542 84.0074C253.974 83.2792 253.691 82.3687 253.746 81.4468C253.801 80.5248 254.191 79.6547 254.843 78.9998L258.732 75.1073L242.375 75.1073C241.215 75.1073 240.102 74.6463 239.281 73.8258C238.461 73.0054 238 71.8926 238 70.7323C238 69.5719 238.461 68.4591 239.281 67.6387C240.102 66.8182 241.215 66.3573 242.375 66.3573Z" fill="white"/>
<path d="M240.5 70.7322C240.5 70.2349 240.698 69.758 241.049 69.4064C241.401 69.0547 241.878 68.8572 242.375 68.8572L258 68.8572C258.332 68.8572 258.649 68.7255 258.884 68.4911C259.118 68.2566 259.25 67.9387 259.25 67.6072C259.25 67.2757 259.118 66.9577 258.884 66.7233C258.649 66.4889 258.332 66.3572 258 66.3572L251.667 66.3572L251.657 66.1422C251.627 65.3497 251.637 64.5497 251.725 64.1022C251.792 63.7672 251.965 63.3672 252.18 62.9822C252.285 62.7897 252.547 62.6072 252.965 62.6072L258 62.6072C258.332 62.6072 258.649 62.4755 258.884 62.2411C259.118 62.0066 259.25 61.6887 259.25 61.3572C259.25 61.0257 259.118 60.7077 258.884 60.4733C258.649 60.2389 258.332 60.1072 258 60.1072L254.087 60.1072L254.062 59.8422C254.002 59.0522 254.037 58.3822 254.162 58.0722C254.277 57.7772 254.68 57.3222 255.237 56.8572C255.477 56.6547 255.712 56.4822 255.885 56.3572L259.25 56.3572C259.582 56.3572 259.899 56.2255 260.134 55.9911C260.368 55.7566 260.5 55.4387 260.5 55.1072C260.5 54.7757 260.368 54.4577 260.134 54.2233C259.899 53.9889 259.582 53.8572 259.25 53.8572L256.75 53.8572L256.75 53.0022C256.75 52.6528 256.823 52.3073 256.965 51.9879C257.107 51.6686 257.314 51.3825 257.573 51.1481C257.832 50.9137 258.137 50.7363 258.469 50.6272C258.801 50.5181 259.152 50.4797 259.5 50.5147L266.287 51.1922C267.16 51.2797 268.004 51.5497 268.765 51.9847L274.87 55.4722C275.061 55.5815 275.22 55.7394 275.331 55.9299C275.442 56.1205 275.5 56.3368 275.5 56.5572L275.5 72.3122C275.5 72.5441 275.435 72.7715 275.314 72.9688C275.192 73.1662 275.017 73.3258 274.81 73.4297L268.647 76.5097L258.185 82.7897C257.914 82.951 257.594 83.008 257.285 82.95C256.975 82.892 256.697 82.7229 256.504 82.4745C256.31 82.2262 256.214 81.9156 256.233 81.6012C256.252 81.2869 256.385 80.9903 256.607 80.7672L262.632 74.7422C262.808 74.5675 262.927 74.3448 262.975 74.1023C263.024 73.8597 262.999 73.6083 262.905 73.3797C262.81 73.1511 262.65 72.9557 262.445 72.8182C262.239 72.6807 261.997 72.6072 261.75 72.6072L242.375 72.6072C241.878 72.6072 241.401 72.4096 241.049 72.058C240.698 71.7064 240.5 71.2295 240.5 70.7322ZM249.165 66.3573L242.375 66.3573C241.215 66.3573 240.102 66.8182 239.281 67.6387C238.461 68.4591 238 69.5719 238 70.7323C238 71.8926 238.461 73.0054 239.281 73.8258C240.102 74.6463 241.215 75.1073 242.375 75.1073L258.732 75.1073L254.84 78.9997C254.189 79.6546 253.799 80.5247 253.743 81.4467C253.688 82.3687 253.971 83.2792 254.539 84.0073C255.108 84.7354 255.922 85.2312 256.83 85.4015C257.738 85.5717 258.676 85.4049 259.47 84.9322L269.853 78.7047L275.927 75.6672C276.55 75.3556 277.074 74.8767 277.44 74.2841C277.806 73.6915 278 73.0088 278 72.3123L278 56.5573C278 55.8963 277.825 55.2471 277.493 54.6755C277.161 54.1038 276.684 53.6301 276.11 53.3023L270.007 49.8148C268.941 49.2051 267.758 48.8268 266.535 48.7048L259.747 48.0272C259.052 47.9577 258.35 48.0346 257.687 48.253C257.023 48.4713 256.413 48.8263 255.895 49.295C255.377 49.7638 254.963 50.3358 254.68 50.9743C254.396 51.6128 254.25 52.3036 254.25 53.0022L254.25 54.4548C254.038 54.6108 253.832 54.7734 253.63 54.9423C253.057 55.4198 252.21 56.2173 251.84 57.1423C251.475 58.0523 251.51 59.2573 251.57 60.0373L251.6 60.3673C250.919 60.6334 250.351 61.1284 249.995 61.7673C249.663 62.3424 249.421 62.9645 249.275 63.6123C249.12 64.3873 249.13 65.4597 249.16 66.2372L249.165 66.3573Z" fill="#FC11BC"/>
</g>
<rect x="0.5" y="0.5" width="366" height="99" rx="4.5" stroke="#9747FF" stroke-dasharray="10 5"/>
<defs>
<clipPath id="clip0_2264_42310">
<rect width="40" height="88" fill="white" transform="translate(238 6)"/>
</clipPath>
</defs>
</svg>
