<svg width="101" height="80" viewBox="0 0 101 80" fill="none" xmlns="http://www.w3.org/2000/svg">
<path d="M15.764 49.4H20.3V69H15.764V49.4ZM6.86 69H2.324V49.4H6.86V69ZM16.1 60.964H6.524V57.128H16.1V60.964ZM33.7973 69.224C32.1919 69.224 30.7639 68.888 29.5133 68.216C28.2813 67.544 27.3013 66.6293 26.5733 65.472C25.8639 64.296 25.5093 62.9613 25.5093 61.468C25.5093 59.956 25.8639 58.6213 26.5733 57.464C27.3013 56.288 28.2813 55.3733 29.5133 54.72C30.7639 54.048 32.1919 53.712 33.7973 53.712C35.3839 53.712 36.8026 54.048 38.0533 54.72C39.3039 55.3733 40.2839 56.2787 40.9933 57.436C41.7026 58.5933 42.0573 59.9373 42.0573 61.468C42.0573 62.9613 41.7026 64.296 40.9933 65.472C40.2839 66.6293 39.3039 67.544 38.0533 68.216C36.8026 68.888 35.3839 69.224 33.7973 69.224ZM33.7973 65.64C34.5253 65.64 35.1786 65.472 35.7573 65.136C36.3359 64.8 36.7933 64.324 37.1293 63.708C37.4653 63.0733 37.6333 62.3267 37.6333 61.468C37.6333 60.5907 37.4653 59.844 37.1293 59.228C36.7933 58.612 36.3359 58.136 35.7573 57.8C35.1786 57.464 34.5253 57.296 33.7973 57.296C33.0693 57.296 32.4159 57.464 31.8373 57.8C31.2586 58.136 30.7919 58.612 30.4373 59.228C30.1013 59.844 29.9333 60.5907 29.9333 61.468C29.9333 62.3267 30.1013 63.0733 30.4373 63.708C30.7919 64.324 31.2586 64.8 31.8373 65.136C32.4159 65.472 33.0693 65.64 33.7973 65.64ZM50.6548 69L44.3268 53.936H48.8348L54.0988 66.9H51.8588L57.3188 53.936H61.5188L55.1628 69H50.6548ZM72.367 69.224C70.6497 69.224 69.1377 68.888 67.831 68.216C66.543 67.544 65.5443 66.6293 64.835 65.472C64.1257 64.296 63.771 62.9613 63.771 61.468C63.771 59.956 64.1163 58.6213 64.807 57.464C65.5163 56.288 66.4777 55.3733 67.691 54.72C68.9043 54.048 70.2763 53.712 71.807 53.712C73.2817 53.712 74.607 54.0293 75.783 54.664C76.9777 55.28 77.9203 56.176 78.611 57.352C79.3017 58.5093 79.647 59.9 79.647 61.524C79.647 61.692 79.6377 61.888 79.619 62.112C79.6003 62.3173 79.5817 62.5133 79.563 62.7H67.327V60.152H77.267L75.587 60.908C75.587 60.124 75.4283 59.4427 75.111 58.864C74.7937 58.2853 74.355 57.8373 73.795 57.52C73.235 57.184 72.5817 57.016 71.835 57.016C71.0883 57.016 70.4257 57.184 69.847 57.52C69.287 57.8373 68.8483 58.2947 68.531 58.892C68.2137 59.4707 68.055 60.1613 68.055 60.964V61.636C68.055 62.4573 68.2323 63.1853 68.587 63.82C68.9603 64.436 69.4737 64.912 70.127 65.248C70.799 65.5653 71.583 65.724 72.479 65.724C73.2817 65.724 73.9817 65.6027 74.579 65.36C75.195 65.1173 75.755 64.7533 76.259 64.268L78.583 66.788C77.8923 67.572 77.0243 68.1787 75.979 68.608C74.9337 69.0187 73.7297 69.224 72.367 69.224ZM84.5551 69V53.936H88.7271V58.192L88.1391 56.96C88.5871 55.896 89.3057 55.0933 90.2951 54.552C91.2844 53.992 92.4884 53.712 93.9071 53.712V57.744C93.7204 57.7253 93.5524 57.716 93.4031 57.716C93.2537 57.6973 93.0951 57.688 92.9271 57.688C91.7324 57.688 90.7617 58.0333 90.0151 58.724C89.2871 59.396 88.9231 60.4507 88.9231 61.888V69H84.5551Z" fill="#FC11BC"/>
<g clip-path="url(#clip0_2264_42348)">
<path d="M66.4687 13.2342L69.8637 19.1145L69.9629 19.0514C70.6234 18.6355 71.5494 18.0893 72.2959 17.8373C72.9721 17.6085 73.6966 17.5482 74.2537 17.5383C75.0348 17.5262 75.7223 17.8019 76.2687 18.2283L76.5395 18.0373C77.185 17.5954 78.211 16.9625 79.1816 16.8236C80.1677 16.6816 81.2821 17.0168 81.9819 17.2738C82.2567 17.3749 82.5059 17.4765 82.7141 17.567L83.9741 16.8395C84.5791 16.4903 85.2505 16.2717 85.9452 16.1978C86.6398 16.1239 87.3422 16.1964 88.0071 16.4106C88.672 16.6248 89.2846 16.9759 89.8055 17.4414C90.3264 17.9068 90.744 18.4763 91.0314 19.113L93.8362 25.3311C94.3418 26.451 94.6058 27.6647 94.6112 28.8934L94.6422 35.9221C94.6452 36.5831 94.4735 37.2331 94.1444 37.8064C93.8153 38.3796 93.3406 38.8557 92.7682 39.1864L79.124 47.0639C78.5206 47.4122 77.832 47.5856 77.1355 47.5645C76.4391 47.5434 75.7622 47.3286 75.181 46.9444L69.5129 43.202L58.931 37.3286C58.1249 36.8777 57.511 36.1482 57.2046 35.2768C56.8981 34.4055 56.9202 33.4523 57.2667 32.5961C57.6131 31.7399 58.2601 31.0395 59.0863 30.6265C59.9124 30.2134 60.8609 30.116 61.7537 30.3526L67.0697 31.7752L58.891 17.6092C58.3108 16.6043 58.1536 15.4102 58.4539 14.2894C58.7542 13.1686 59.4875 12.213 60.4923 11.6329C61.4972 11.0527 62.6914 10.8955 63.8122 11.1958C64.9329 11.4961 65.8885 12.2293 66.4687 13.2342Z" fill="white"/>
<path d="M61.7424 13.7979C62.1731 13.5492 62.6848 13.4819 63.1652 13.6106C63.6455 13.7393 64.0551 14.0535 64.3037 14.4842L72.1162 28.0158C72.282 28.3029 72.555 28.5124 72.8752 28.5982C73.1954 28.684 73.5366 28.6391 73.8237 28.4734C74.1108 28.3076 74.3203 28.0346 74.4061 27.7143C74.4919 27.3941 74.447 27.0529 74.2813 26.7658L71.115 21.2817L71.2962 21.1656C71.9675 20.7433 72.6653 20.352 73.0966 20.204C73.4205 20.095 73.8532 20.0444 74.2941 20.0381C74.5133 20.0327 74.8026 20.1688 75.0114 20.5304L77.5289 24.8908C77.6946 25.1779 77.9676 25.3874 78.2879 25.4732C78.6081 25.559 78.9493 25.5141 79.2364 25.3484C79.5235 25.1826 79.733 24.9096 79.8188 24.5893C79.9046 24.2691 79.8597 23.9279 79.6939 23.6408L77.7377 20.2525L77.9547 20.0983C78.6088 19.6514 79.2066 19.3467 79.5375 19.2999C79.8505 19.252 80.4458 19.3731 81.1273 19.6234C81.4226 19.73 81.6895 19.8473 81.884 19.9342L83.5665 22.8484C83.7323 23.1355 84.0053 23.345 84.3255 23.4308C84.6457 23.5166 84.9869 23.4716 85.274 23.3059C85.5611 23.1401 85.7706 22.8671 85.8565 22.5469C85.9423 22.2267 85.8973 21.8855 85.7316 21.5984L84.4816 19.4333L85.222 19.0058C85.5246 18.8311 85.8604 18.7218 86.2079 18.6848C86.5553 18.6479 86.9066 18.6842 87.2392 18.7914C87.5717 18.8986 87.8781 19.0744 88.1385 19.3073C88.399 19.5402 88.6077 19.8251 88.7513 20.1436L91.5583 26.3605C91.9186 27.1597 92.1069 28.0257 92.1107 28.9023L92.1429 35.9332C92.144 36.1535 92.0867 36.3702 91.977 36.5613C91.8673 36.7523 91.7091 36.911 91.5183 37.0213L77.8741 44.8988C77.6732 45.0147 77.444 45.0725 77.2122 45.0657C76.9803 45.0588 76.755 44.9876 76.5613 44.86L70.8127 41.0631L60.1428 35.1423C59.8678 34.9887 59.6584 34.74 59.5538 34.4429C59.4493 34.1457 59.4569 33.8207 59.5751 33.5287C59.6933 33.2368 59.9141 32.9981 60.1959 32.8574C60.4777 32.7168 60.8012 32.6839 61.1056 32.7649L69.3359 34.9702C69.5747 35.0345 69.8273 35.0265 70.0616 34.9472C70.2958 34.868 70.5014 34.721 70.6521 34.5249C70.8028 34.3288 70.8919 34.0923 70.9082 33.8455C70.9245 33.5987 70.8672 33.3526 70.7436 33.1384L61.0561 16.3592C60.8075 15.9285 60.7401 15.4167 60.8688 14.9364C60.9975 14.4561 61.3117 14.0465 61.7424 13.7979ZM69.8637 19.1145L66.4687 13.2342C65.8885 12.2293 64.9329 11.4961 63.8122 11.1958C62.6914 10.8955 61.4972 11.0527 60.4923 11.6329C59.4875 12.213 58.7542 13.1686 58.4539 14.2894C58.1536 15.4102 58.3108 16.6043 58.891 17.6092L67.0697 31.7752L61.7525 30.3504C60.8597 30.1138 59.9112 30.2112 59.0851 30.6243C58.2589 31.0373 57.6119 31.7377 57.2655 32.5939C56.919 33.4501 56.8969 34.4033 57.2034 35.2746C57.5098 36.146 58.1237 36.8755 58.9298 37.3264L69.5143 43.2041L75.1823 46.9465C75.7636 47.3302 76.4403 47.5444 77.1365 47.5651C77.8327 47.5859 78.5209 47.4123 79.124 47.0639L92.7682 39.1864C93.3406 38.8557 93.8153 38.3796 94.1444 37.8064C94.4735 37.2331 94.6452 36.5831 94.6422 35.9221L94.6112 28.8934C94.6058 27.6647 94.3418 26.451 93.8362 25.3311L91.0293 19.1142C90.7419 18.4775 90.3243 17.9081 89.8034 17.4426C89.2826 16.9771 88.6699 16.626 88.005 16.4118C87.3401 16.1976 86.6377 16.1251 85.9431 16.199C85.2484 16.2729 84.577 16.4915 83.972 16.8407L82.7141 17.567C82.4731 17.4618 82.2289 17.364 81.9819 17.2738C81.2821 17.0168 80.1677 16.6816 79.1816 16.8236C78.211 16.9625 77.185 17.5954 76.5395 18.0373L76.2687 18.2283C75.6975 17.7713 74.9851 17.5274 74.2537 17.5383C73.5898 17.5386 72.9297 17.6394 72.2959 17.8373C71.5473 18.0906 70.6235 18.6354 69.9652 19.0502L69.8637 19.1145Z" fill="#FC11BC"/>
</g>
<defs>
<clipPath id="clip0_2264_42348">
<rect width="40" height="40" fill="white" transform="translate(46 20) rotate(-30)"/>
</clipPath>
</defs>
</svg>
