<svg width="864" height="864" viewBox="0 0 864 864" fill="none" xmlns="http://www.w3.org/2000/svg">
<g filter="url(#filter0_dii_6_15)">
<path fill-rule="evenodd" clip-rule="evenodd" d="M844 262.627C844 252.845 844.004 243.062 843.944 233.279C843.895 225.038 843.8 216.799 843.576 208.562C843.092 190.609 842.033 172.502 838.84 154.749C835.602 136.741 830.314 119.98 821.981 103.617C813.789 87.5337 803.088 72.8168 790.32 60.0578C777.555 47.2989 762.834 36.6049 746.746 28.4179C730.366 20.0829 713.587 14.797 695.558 11.56C677.803 8.37199 659.691 7.315 641.738 6.83C633.495 6.607 625.253 6.513 617.008 6.462C607.22 6.402 597.432 6.407 587.644 6.407L473.997 6H388.997L277.361 6.407C267.554 6.407 257.747 6.402 247.94 6.462C239.678 6.513 231.42 6.607 223.161 6.83C205.167 7.315 187.014 8.37299 169.217 11.565C151.164 14.801 134.36 20.0849 117.958 28.4139C101.835 36.6019 87.0825 47.2969 74.2906 60.0578C61.5007 72.8158 50.7798 87.5297 42.5728 103.61C34.2169 119.981 28.9189 136.752 25.673 154.77C22.477 172.516 21.418 190.617 20.931 208.562C20.709 216.8 20.613 225.039 20.563 233.279C20.503 243.063 20 255.216 20 264.999L20.003 375.089L20 460.998L20.508 573.427C20.508 583.223 20.504 593.019 20.563 602.815C20.613 611.067 20.709 619.317 20.932 627.566C21.418 645.542 22.479 663.675 25.678 681.452C28.9229 699.484 34.2199 716.269 42.5688 732.653C50.7768 748.759 61.4997 763.495 74.2906 776.272C87.0815 789.049 101.83 799.757 117.95 807.956C134.362 816.302 151.174 821.595 169.238 824.836C187.027 828.029 205.174 829.088 223.161 829.573C231.42 829.796 239.679 829.891 247.941 829.941C257.748 830.001 267.554 829.997 277.361 829.997L390.006 830H475.217L587.644 829.996C597.432 829.996 607.22 830.001 617.008 829.941C625.253 829.891 633.495 829.796 641.738 829.573C659.698 829.087 677.816 828.027 695.579 824.832C713.597 821.591 730.368 816.3 746.739 807.959C762.831 799.761 777.554 789.051 790.32 776.272C803.086 763.497 813.786 748.763 821.978 732.66C830.316 716.268 835.604 699.475 838.844 681.431C842.034 663.661 843.092 645.535 843.577 627.566C843.8 619.316 843.895 611.066 843.944 602.815C844.005 593.019 844 583.223 844 573.427C844 573.427 843.994 462.983 843.994 460.998V374.999C843.994 373.533 844 262.627 844 262.627Z" fill="url(#paint0_linear_6_15)"/>
</g>
<path d="M195.035 497.549H139L339.13 162.292C339.812 161.167 341.483 161.099 342.233 162.19L451.063 320.509C451.575 321.26 451.37 322.248 450.586 322.726L411.706 347.209C410.921 347.686 409.898 347.481 409.387 346.765L345.03 253.131C344.348 252.142 342.813 252.176 342.199 253.199L196.502 496.731C196.195 497.242 195.649 497.549 195.035 497.549Z" fill="url(#paint1_linear_6_15)"/>
<path d="M357.921 673.805C345.848 673.805 333.775 671.656 322.384 667.326C291.587 655.596 271.669 630.738 267.747 599.061C263.961 568.576 271.771 536.933 289.711 509.961L521.149 161.849C521.934 160.689 523.741 160.723 524.458 161.917L725.406 495.162C726.054 496.219 725.235 497.583 723.939 497.549L668.518 496.901C667.938 496.901 667.393 496.594 667.086 496.083L522.002 253.812C521.388 252.755 519.819 252.721 519.137 253.744L331.763 535.569C319.962 553.3 314.812 573.862 317.268 593.434C318.496 603.289 323.577 616.417 340.8 622.964C354.545 628.181 370.438 626.783 383.296 619.179C388.139 616.314 390.321 614.473 394.653 610.79C400.962 605.437 409.557 598.174 429.679 584.637C430.429 584.125 431.521 584.296 432.032 585.012L459.657 622.793C440.865 635.41 433.226 641.854 427.667 646.56C422.687 650.788 417.947 654.778 409.489 659.79C393.834 669.065 375.895 673.805 357.921 673.805Z" fill="url(#paint2_linear_6_15)"/>
<path fill-rule="evenodd" clip-rule="evenodd" d="M463.682 394.333C462.659 394.094 461.636 394.776 461.567 395.765L458.259 437.808L455.053 478.385C454.951 479.749 456.52 480.602 457.679 479.818L481.003 464.036L529.539 537.069C530.967 539.215 532.399 541.284 533.804 543.314C544.009 558.058 552.813 570.779 548.706 596.435C547.137 606.255 537.758 617.917 520.501 624.464C506.757 629.681 490.863 628.283 478.006 620.679L476.505 619.792C463.272 611.984 446.186 598.344 432.237 577.646C431.657 576.794 430.429 576.623 429.679 577.339L395.505 610.074C414.762 639.567 432.335 649.872 447.789 658.935C448.648 659.439 449.501 659.939 450.346 660.438L451.813 661.29C467.501 670.565 485.441 675.305 503.414 675.305C515.453 675.305 527.561 673.156 538.952 668.792C569.749 657.062 594.782 631.488 598.602 599.81C603.453 559.282 590.274 539.466 573.003 513.5C572.546 512.813 572.087 512.122 571.625 511.427L521.79 436.439L547.786 418.849C548.945 418.065 548.638 416.326 547.274 415.985L506.211 405.346L463.682 394.333Z" fill="url(#paint3_linear_6_15)"/>
<defs>
<filter id="filter0_dii_6_15" x="0" y="0" width="864" height="864" filterUnits="userSpaceOnUse" color-interpolation-filters="sRGB">
<feFlood flood-opacity="0" result="BackgroundImageFix"/>
<feColorMatrix in="SourceAlpha" type="matrix" values="0 0 0 0 0 0 0 0 0 0 0 0 0 0 0 0 0 0 127 0" result="hardAlpha"/>
<feOffset dy="14"/>
<feGaussianBlur stdDeviation="10"/>
<feColorMatrix type="matrix" values="0 0 0 0 0 0 0 0 0 0 0 0 0 0 0 0 0 0 0.25 0"/>
<feBlend mode="normal" in2="BackgroundImageFix" result="effect1_dropShadow_6_15"/>
<feBlend mode="normal" in="SourceGraphic" in2="effect1_dropShadow_6_15" result="shape"/>
<feColorMatrix in="SourceAlpha" type="matrix" values="0 0 0 0 0 0 0 0 0 0 0 0 0 0 0 0 0 0 127 0" result="hardAlpha"/>
<feOffset dy="4"/>
<feGaussianBlur stdDeviation="1"/>
<feComposite in2="hardAlpha" operator="arithmetic" k2="-1" k3="1"/>
<feColorMatrix type="matrix" values="0 0 0 0 1 0 0 0 0 1 0 0 0 0 1 0 0 0 0.44 0"/>
<feBlend mode="normal" in2="shape" result="effect2_innerShadow_6_15"/>
<feColorMatrix in="SourceAlpha" type="matrix" values="0 0 0 0 0 0 0 0 0 0 0 0 0 0 0 0 0 0 127 0" result="hardAlpha"/>
<feOffset dy="-3"/>
<feGaussianBlur stdDeviation="2"/>
<feComposite in2="hardAlpha" operator="arithmetic" k2="-1" k3="1"/>
<feColorMatrix type="matrix" values="0 0 0 0 0 0 0 0 0 0 0 0 0 0 0 0 0 0 0.25 0"/>
<feBlend mode="normal" in2="effect2_innerShadow_6_15" result="effect3_innerShadow_6_15"/>
</filter>
<linearGradient id="paint0_linear_6_15" x1="432" y1="6" x2="432" y2="830" gradientUnits="userSpaceOnUse">
<stop stop-color="#3A3D47"/>
<stop offset="1" stop-color="#23242B"/>
</linearGradient>
<linearGradient id="paint1_linear_6_15" x1="295.172" y1="161.408" x2="295.172" y2="497.549" gradientUnits="userSpaceOnUse">
<stop stop-color="#FF4E84"/>
<stop offset="1" stop-color="#E134EE"/>
</linearGradient>
<linearGradient id="paint2_linear_6_15" x1="496.223" y1="161" x2="496.223" y2="673.805" gradientUnits="userSpaceOnUse">
<stop stop-color="#FF4E84"/>
<stop offset="1" stop-color="#E134EE"/>
</linearGradient>
<linearGradient id="paint3_linear_6_15" x1="501.775" y1="394.285" x2="501.775" y2="480.117" gradientUnits="userSpaceOnUse">
<stop stop-color="#FF4E84"/>
<stop offset="1" stop-color="#E134EE"/>
</linearGradient>
</defs>
</svg>
