<svg width="295" height="216" viewBox="0 0 295 216" fill="none" xmlns="http://www.w3.org/2000/svg">
<g clip-path="url(#clip0_2271_44946)">
<rect width="295" height="216" rx="20" fill="white"/>
<g clip-path="url(#clip1_2271_44946)">
<g filter="url(#filter0_b_2271_44946)">
<path fill-rule="evenodd" clip-rule="evenodd" d="M0 0H295V216H0V0Z" fill="#2C2C2E"/>
</g>
<mask id="mask0_2271_44946" style="mask-type:luminance" maskUnits="userSpaceOnUse" x="0" y="127" width="295" height="89">
<rect y="127" width="295" height="89" fill="white"/>
</mask>
<g mask="url(#mask0_2271_44946)">
<path opacity="0.1" d="M130.512 195H131.828C133.375 195 134.215 194.048 134.215 192.417C134.215 190.786 133.375 189.869 131.793 189.869H130.512V195ZM131.163 194.468V190.401H131.744C132.948 190.401 133.55 191.115 133.55 192.417C133.55 193.719 132.948 194.468 131.744 194.468H131.163ZM137.021 195.098C137.539 195.098 137.938 194.923 138.274 194.706L138.043 194.279C137.763 194.468 137.462 194.587 137.098 194.587C136.37 194.587 135.88 194.062 135.831 193.257H138.393C138.414 193.159 138.421 193.026 138.421 192.893C138.421 191.801 137.875 191.108 136.909 191.108C136.034 191.108 135.201 191.871 135.201 193.11C135.201 194.356 136.006 195.098 137.021 195.098ZM135.824 192.795C135.908 192.046 136.384 191.619 136.916 191.619C137.518 191.619 137.861 192.032 137.861 192.795H135.824ZM141.068 195.098C141.523 195.098 141.964 194.916 142.3 194.615L142.027 194.188C141.789 194.398 141.474 194.566 141.131 194.566C140.431 194.566 139.948 193.978 139.948 193.11C139.948 192.228 140.452 191.64 141.152 191.64C141.446 191.64 141.684 191.773 141.908 191.976L142.23 191.556C141.964 191.311 141.614 191.108 141.117 191.108C140.144 191.108 139.29 191.836 139.29 193.11C139.29 194.363 140.06 195.098 141.068 195.098ZM144.707 195.098C145.225 195.098 145.624 194.923 145.96 194.706L145.729 194.279C145.449 194.468 145.148 194.587 144.784 194.587C144.056 194.587 143.566 194.062 143.517 193.257H146.079C146.1 193.159 146.107 193.026 146.107 192.893C146.107 191.801 145.561 191.108 144.595 191.108C143.72 191.108 142.887 191.871 142.887 193.11C142.887 194.356 143.692 195.098 144.707 195.098ZM143.51 192.795C143.594 192.046 144.07 191.619 144.602 191.619C145.204 191.619 145.547 192.032 145.547 192.795H143.51ZM147.263 195H147.9V192.242C148.243 191.857 148.565 191.661 148.852 191.661C149.342 191.661 149.566 191.962 149.566 192.676V195H150.203V192.242C150.56 191.857 150.861 191.661 151.155 191.661C151.645 191.661 151.869 191.962 151.869 192.676V195H152.506V192.592C152.506 191.626 152.128 191.108 151.351 191.108C150.889 191.108 150.49 191.409 150.091 191.829C149.944 191.381 149.629 191.108 149.048 191.108C148.593 191.108 148.194 191.395 147.865 191.752H147.844L147.781 191.199H147.263V195ZM155.622 195.098C156.497 195.098 157.274 194.342 157.274 193.04C157.274 191.871 156.742 191.108 155.762 191.108C155.335 191.108 154.915 191.339 154.565 191.64L154.593 190.954V189.435H153.956V195H154.46L154.523 194.608H154.544C154.873 194.916 155.272 195.098 155.622 195.098ZM155.524 194.559C155.272 194.559 154.922 194.454 154.593 194.167V192.165C154.95 191.822 155.286 191.64 155.608 191.64C156.329 191.64 156.616 192.207 156.616 193.054C156.616 193.992 156.147 194.559 155.524 194.559ZM160.029 195.098C160.547 195.098 160.946 194.923 161.282 194.706L161.051 194.279C160.771 194.468 160.47 194.587 160.106 194.587C159.378 194.587 158.888 194.062 158.839 193.257H161.401C161.422 193.159 161.429 193.026 161.429 192.893C161.429 191.801 160.883 191.108 159.917 191.108C159.042 191.108 158.209 191.871 158.209 193.11C158.209 194.356 159.014 195.098 160.029 195.098ZM158.832 192.795C158.916 192.046 159.392 191.619 159.924 191.619C160.526 191.619 160.869 192.032 160.869 192.795H158.832ZM162.585 195H163.222V192.564C163.474 191.913 163.866 191.682 164.181 191.682C164.335 191.682 164.419 191.703 164.552 191.745L164.671 191.185C164.545 191.129 164.433 191.108 164.265 191.108C163.838 191.108 163.446 191.409 163.187 191.892H163.166L163.103 191.199H162.585V195Z" fill="#EBEBF5" fill-opacity="0.6"/>
<path opacity="0.2" d="M133.663 175.256V178.897H134.356V175.256H133.663ZM132.332 176.18V176.741H135.665V176.18H132.332ZM132.332 177.379V177.929H135.665V177.379H132.332ZM131.925 178.589V179.161H136.028V178.589H131.925ZM134.169 173.914C134.048 174.288 133.795 174.838 133.586 175.19L134.125 175.355C134.345 175.036 134.62 174.552 134.862 174.09L134.169 173.914ZM132.552 173.771C132.2 174.805 131.606 175.806 130.913 176.477C131.056 176.609 131.287 176.906 131.375 177.049C132.123 176.29 132.794 175.124 133.223 173.947L132.552 173.771ZM138.426 175.223V178.941H139.119V175.223H138.426ZM137.073 176.18V176.741H140.527V176.18H137.073ZM137.073 177.379V177.929H140.527V177.379H137.073ZM136.666 178.589V179.161H140.934V178.589H136.666ZM138.877 173.914C138.745 174.288 138.47 174.838 138.272 175.19L138.8 175.366C139.031 175.036 139.306 174.541 139.559 174.09L138.877 173.914ZM137.26 173.771C136.886 174.827 136.27 175.872 135.566 176.565C135.72 176.697 135.962 176.994 136.05 177.126C136.798 176.345 137.502 175.146 137.942 173.958L137.26 173.771ZM132.519 174.97L132.002 175.553H135.896V174.97H132.519ZM131.925 175.663V178.886H132.651V175.124L131.925 175.663ZM137.216 174.97L136.699 175.553H140.769V174.97H137.216ZM136.666 175.663V178.886H137.381V175.091L136.666 175.663ZM131.672 179.843V180.547H139.185V179.843H131.672ZM138.899 179.843V179.964C137.612 181.944 134.213 182.868 131.045 183.143C131.188 183.341 131.331 183.682 131.397 183.891C134.73 183.528 138.25 182.516 139.79 180.162L139.24 179.81L139.086 179.843H138.899ZM133.795 180.415L133.047 180.767C134.576 182.56 137.359 183.561 140.494 183.913C140.604 183.682 140.824 183.319 141.011 183.121C137.909 182.846 135.104 181.944 133.795 180.415ZM144.184 178.941H150.047V180.228H144.184V178.941ZM144.184 176.994H150.047V178.27H144.184V176.994ZM143.392 176.29V180.932H150.872V176.29H143.392ZM146.637 176.532V180.602H147.44V176.532H146.637ZM145.295 174.475L144.811 175.157H148.331V174.475H145.295ZM145.207 173.727C144.624 174.794 143.535 176.125 142.05 177.082C142.237 177.225 142.523 177.511 142.644 177.709C144.228 176.587 145.361 175.179 146.12 173.903L145.207 173.727ZM148.067 174.475V174.629C147.836 175.146 147.33 175.916 146.879 176.389C147.088 176.488 147.374 176.664 147.55 176.785C148.034 176.279 148.628 175.487 148.958 174.794L148.375 174.431L148.254 174.475H148.067ZM145.372 181.658C145.504 182.34 145.592 183.242 145.592 183.77L146.439 183.66C146.428 183.143 146.307 182.274 146.153 181.592L145.372 181.658ZM147.572 181.68C147.891 182.34 148.21 183.231 148.32 183.77L149.123 183.561C148.991 183.022 148.65 182.153 148.32 181.504L147.572 181.68ZM149.739 181.603C150.366 182.296 151.092 183.275 151.378 183.891L152.17 183.528C151.851 182.879 151.114 181.944 150.476 181.273L149.739 181.603ZM143.546 181.372C143.216 182.197 142.633 183.033 141.995 183.495L142.732 183.913C143.403 183.374 143.975 182.461 144.327 181.581L143.546 181.372ZM158.435 176.147V183.22H159.238V176.147H158.435ZM155.399 180.503V181.229H162.384V180.503H155.399ZM154.684 182.879V183.605H163.066V182.879H154.684ZM156.466 176.334C156.257 177.731 155.74 178.853 154.794 179.557C154.97 179.667 155.3 179.909 155.421 180.041C156.389 179.238 156.983 178.017 157.236 176.411L156.466 176.334ZM156.191 178.072C156.752 178.578 157.434 179.293 157.764 179.733L158.259 179.194C157.929 178.765 157.225 178.083 156.664 177.61L156.191 178.072ZM160.888 176.334C160.679 177.676 160.14 178.732 159.205 179.392C159.381 179.513 159.689 179.766 159.799 179.898C160.767 179.128 161.394 177.962 161.647 176.422L160.888 176.334ZM160.536 178.05C161.24 178.633 162.131 179.458 162.571 179.975L163.088 179.414C162.637 178.919 161.724 178.127 161.031 177.566L160.536 178.05ZM157.984 173.771V175.465H158.831V173.771H157.984ZM154.255 174.926V175.707H163.033V174.926H154.255ZM153.826 174.926V177.984C153.826 179.579 153.749 181.812 152.891 183.396C153.089 183.484 153.441 183.704 153.595 183.858C154.486 182.175 154.629 179.678 154.629 177.995V174.926H153.826Z" fill="#EBEBF5" fill-opacity="0.6"/>
<path opacity="0.3" d="M130.65 155.848V160.151H131.469V155.848H130.65ZM129.077 156.94V157.603H133.016V156.94H129.077ZM129.077 158.357V159.007H133.016V158.357H129.077ZM128.596 159.787V160.463H133.445V159.787H128.596ZM131.248 154.262C131.105 154.704 130.806 155.354 130.559 155.77L131.196 155.965C131.456 155.588 131.781 155.016 132.067 154.47L131.248 154.262ZM129.337 154.093C128.921 155.315 128.219 156.498 127.4 157.291C127.569 157.447 127.842 157.798 127.946 157.967C128.83 157.07 129.623 155.692 130.13 154.301L129.337 154.093ZM136.279 155.809V160.203H137.098V155.809H136.279ZM134.68 156.94V157.603H138.762V156.94H134.68ZM134.68 158.357V159.007H138.762V158.357H134.68ZM134.199 159.787V160.463H139.243V159.787H134.199ZM136.812 154.262C136.656 154.704 136.331 155.354 136.097 155.77L136.721 155.978C136.994 155.588 137.319 155.003 137.618 154.47L136.812 154.262ZM134.901 154.093C134.459 155.341 133.731 156.576 132.899 157.395C133.081 157.551 133.367 157.902 133.471 158.058C134.355 157.135 135.187 155.718 135.707 154.314L134.901 154.093ZM129.298 155.51L128.687 156.199H133.289V155.51H129.298ZM128.596 156.329V160.138H129.454V155.692L128.596 156.329ZM134.849 155.51L134.238 156.199H139.048V155.51H134.849ZM134.199 156.329V160.138H135.044V155.653L134.199 156.329ZM128.297 161.269V162.101H137.176V161.269H128.297ZM136.838 161.269V161.412C135.317 163.752 131.3 164.844 127.556 165.169C127.725 165.403 127.894 165.806 127.972 166.053C131.911 165.624 136.071 164.428 137.891 161.646L137.241 161.23L137.059 161.269H136.838ZM130.806 161.945L129.922 162.361C131.729 164.48 135.018 165.663 138.723 166.079C138.853 165.806 139.113 165.377 139.334 165.143C135.668 164.818 132.353 163.752 130.806 161.945ZM143.084 160.203H150.013V161.724H143.084V160.203ZM143.084 157.902H150.013V159.41H143.084V157.902ZM142.148 157.07V162.556H150.988V157.07H142.148ZM145.983 157.356V162.166H146.932V157.356H145.983ZM144.397 154.925L143.825 155.731H147.985V154.925H144.397ZM144.293 154.041C143.604 155.302 142.317 156.875 140.562 158.006C140.783 158.175 141.121 158.513 141.264 158.747C143.136 157.421 144.475 155.757 145.372 154.249L144.293 154.041ZM147.673 154.925V155.107C147.4 155.718 146.802 156.628 146.269 157.187C146.516 157.304 146.854 157.512 147.062 157.655C147.634 157.057 148.336 156.121 148.726 155.302L148.037 154.873L147.894 154.925H147.673ZM144.488 163.414C144.644 164.22 144.748 165.286 144.748 165.91L145.749 165.78C145.736 165.169 145.593 164.142 145.411 163.336L144.488 163.414ZM147.088 163.44C147.465 164.22 147.842 165.273 147.972 165.91L148.921 165.663C148.765 165.026 148.362 163.999 147.972 163.232L147.088 163.44ZM149.649 163.349C150.39 164.168 151.248 165.325 151.586 166.053L152.522 165.624C152.145 164.857 151.274 163.752 150.52 162.959L149.649 163.349ZM142.33 163.076C141.94 164.051 141.251 165.039 140.497 165.585L141.368 166.079C142.161 165.442 142.837 164.363 143.253 163.323L142.33 163.076ZM159.926 156.901V165.26H160.875V156.901H159.926ZM156.338 162.049V162.907H164.593V162.049H156.338ZM155.493 164.857V165.715H165.399V164.857H155.493ZM157.599 157.122C157.352 158.773 156.741 160.099 155.623 160.931C155.831 161.061 156.221 161.347 156.364 161.503C157.508 160.554 158.21 159.111 158.509 157.213L157.599 157.122ZM157.274 159.176C157.937 159.774 158.743 160.619 159.133 161.139L159.718 160.502C159.328 159.995 158.496 159.189 157.833 158.63L157.274 159.176ZM162.825 157.122C162.578 158.708 161.941 159.956 160.836 160.736C161.044 160.879 161.408 161.178 161.538 161.334C162.682 160.424 163.423 159.046 163.722 157.226L162.825 157.122ZM162.409 159.15C163.241 159.839 164.294 160.814 164.814 161.425L165.425 160.762C164.892 160.177 163.813 159.241 162.994 158.578L162.409 159.15ZM159.393 154.093V156.095H160.394V154.093H159.393ZM154.986 155.458V156.381H165.36V155.458H154.986ZM154.479 155.458V159.072C154.479 160.957 154.388 163.596 153.374 165.468C153.608 165.572 154.024 165.832 154.206 166.014C155.259 164.025 155.428 161.074 155.428 159.085V155.458H154.479Z" fill="#EBEBF5" fill-opacity="0.6"/>
<path opacity="0.4" d="M130.424 137.144V141.778H131.306V137.144H130.424ZM128.73 138.32V139.034H132.972V138.32H128.73ZM128.73 139.846V140.546H132.972V139.846H128.73ZM128.212 141.386V142.114H133.434V141.386H128.212ZM131.068 135.436C130.914 135.912 130.592 136.612 130.326 137.06L131.012 137.27C131.292 136.864 131.642 136.248 131.95 135.66L131.068 135.436ZM129.01 135.254C128.562 136.57 127.806 137.844 126.924 138.698C127.106 138.866 127.4 139.244 127.512 139.426C128.464 138.46 129.318 136.976 129.864 135.478L129.01 135.254ZM136.486 137.102V141.834H137.368V137.102H136.486ZM134.764 138.32V139.034H139.16V138.32H134.764ZM134.764 139.846V140.546H139.16V139.846H134.764ZM134.246 141.386V142.114H139.678V141.386H134.246ZM137.06 135.436C136.892 135.912 136.542 136.612 136.29 137.06L136.962 137.284C137.256 136.864 137.606 136.234 137.928 135.66L137.06 135.436ZM135.002 135.254C134.526 136.598 133.742 137.928 132.846 138.81C133.042 138.978 133.35 139.356 133.462 139.524C134.414 138.53 135.31 137.004 135.87 135.492L135.002 135.254ZM128.968 136.78L128.31 137.522H133.266V136.78H128.968ZM128.212 137.662V141.764H129.136V136.976L128.212 137.662ZM134.946 136.78L134.288 137.522H139.468V136.78H134.946ZM134.246 137.662V141.764H135.156V136.934L134.246 137.662ZM127.89 142.982V143.878H137.452V142.982H127.89ZM137.088 142.982V143.136C135.45 145.656 131.124 146.832 127.092 147.182C127.274 147.434 127.456 147.868 127.54 148.134C131.782 147.672 136.262 146.384 138.222 143.388L137.522 142.94L137.326 142.982H137.088ZM130.592 143.71L129.64 144.158C131.586 146.44 135.128 147.714 139.118 148.162C139.258 147.868 139.538 147.406 139.776 147.154C135.828 146.804 132.258 145.656 130.592 143.71ZM143.815 141.834H151.277V143.472H143.815V141.834ZM143.815 139.356H151.277V140.98H143.815V139.356ZM142.807 138.46V144.368H152.327V138.46H142.807ZM146.937 138.768V143.948H147.959V138.768H146.937ZM145.229 136.15L144.613 137.018H149.093V136.15H145.229ZM145.117 135.198C144.375 136.556 142.989 138.25 141.099 139.468C141.337 139.65 141.701 140.014 141.855 140.266C143.871 138.838 145.313 137.046 146.279 135.422L145.117 135.198ZM148.757 136.15V136.346C148.463 137.004 147.819 137.984 147.245 138.586C147.511 138.712 147.875 138.936 148.099 139.09C148.715 138.446 149.471 137.438 149.891 136.556L149.149 136.094L148.995 136.15H148.757ZM145.327 145.292C145.495 146.16 145.607 147.308 145.607 147.98L146.685 147.84C146.671 147.182 146.517 146.076 146.321 145.208L145.327 145.292ZM148.127 145.32C148.533 146.16 148.939 147.294 149.079 147.98L150.101 147.714C149.933 147.028 149.499 145.922 149.079 145.096L148.127 145.32ZM150.885 145.222C151.683 146.104 152.607 147.35 152.971 148.134L153.979 147.672C153.573 146.846 152.635 145.656 151.823 144.802L150.885 145.222ZM143.003 144.928C142.583 145.978 141.841 147.042 141.029 147.63L141.967 148.162C142.821 147.476 143.549 146.314 143.997 145.194L143.003 144.928ZM161.952 138.278V147.28H162.974V138.278H161.952ZM158.088 143.822V144.746H166.978V143.822H158.088ZM157.178 146.846V147.77H167.846V146.846H157.178ZM159.446 138.516C159.179 140.294 158.522 141.722 157.317 142.618C157.542 142.758 157.962 143.066 158.115 143.234C159.348 142.212 160.104 140.658 160.426 138.614L159.446 138.516ZM159.096 140.728C159.81 141.372 160.678 142.282 161.098 142.842L161.728 142.156C161.308 141.61 160.412 140.742 159.697 140.14L159.096 140.728ZM165.074 138.516C164.808 140.224 164.122 141.568 162.932 142.408C163.156 142.562 163.548 142.884 163.688 143.052C164.92 142.072 165.718 140.588 166.04 138.628L165.074 138.516ZM164.626 140.7C165.522 141.442 166.656 142.492 167.216 143.15L167.874 142.436C167.3 141.806 166.138 140.798 165.256 140.084L164.626 140.7ZM161.378 135.254V137.41H162.456V135.254H161.378ZM156.632 136.724V137.718H167.804V136.724H156.632ZM156.085 136.724V140.616C156.085 142.646 155.987 145.488 154.895 147.504C155.147 147.616 155.596 147.896 155.792 148.092C156.926 145.95 157.107 142.772 157.107 140.63V136.724H156.085Z" fill="#EBEBF5" fill-opacity="0.6"/>
</g>
<mask id="mask1_2271_44946" style="mask-type:luminance" maskUnits="userSpaceOnUse" x="0" y="0" width="295" height="91">
<rect width="295" height="91" fill="white"/>
</mask>
<g mask="url(#mask1_2271_44946)">
<path opacity="0.4" d="M129.934 77.598V78.326H139.146V77.598H129.934ZM129.178 79.264V80.006H139.79V79.264H129.178ZM137.788 75.568C136.094 75.932 132.804 76.156 130.144 76.212C130.228 76.394 130.34 76.688 130.354 76.884C133.084 76.828 136.416 76.618 138.46 76.17L137.788 75.568ZM133.994 76.338V81.056C133.994 81.252 133.91 81.322 133.672 81.336C133.448 81.35 132.552 81.35 131.642 81.322C131.768 81.56 131.908 81.896 131.978 82.134C133.182 82.134 133.938 82.134 134.414 82.022C134.876 81.896 135.016 81.644 135.016 81.07V76.338H133.994ZM129.598 72.32V73.09H134.344V72.32H129.598ZM134.722 72.32V73.09H139.594V72.32H134.722ZM131.6 71.354V75.638H132.398V71.354H131.6ZM136.64 71.354V75.512H137.452V71.354H136.64ZM131.614 72.712C131.11 73.552 130.116 74.448 129.206 74.868C129.388 75.008 129.626 75.288 129.752 75.47C130.69 74.966 131.684 73.916 132.216 72.936L131.614 72.712ZM136.612 72.712C136.122 73.538 135.142 74.392 134.246 74.798C134.428 74.952 134.666 75.218 134.792 75.4C135.702 74.91 136.696 73.888 137.214 72.936L136.612 72.712ZM137.55 72.796L136.948 73.062C137.48 73.93 138.488 74.938 139.328 75.442C139.468 75.232 139.72 74.966 139.902 74.812C139.076 74.406 138.082 73.566 137.55 72.796ZM132.328 73.23L131.852 73.58C132.3 73.874 133.378 74.672 133.714 75.008L134.26 74.42C133.966 74.196 132.692 73.44 132.328 73.23ZM133.28 69.254V70.92H134.358V69.254H133.28ZM128.646 70.36V71.256H139.748V70.36H128.646ZM128.044 70.36V74.742C128.044 76.772 127.946 79.544 126.854 81.532C127.078 81.644 127.484 81.966 127.666 82.162C128.842 80.048 129.024 76.898 129.024 74.742V70.36H128.044ZM147.245 79.852V80.678H151.851V79.852H147.245ZM148.057 72.488H152.257V73.678H148.057V72.488ZM148.057 70.542H152.257V71.718H148.057V70.542ZM147.063 69.716V74.504H153.293V69.716H147.063ZM148.141 74.308C147.721 75.47 146.853 76.842 145.411 77.808C145.635 77.948 145.943 78.284 146.083 78.522C147.679 77.388 148.617 75.89 149.163 74.462L148.141 74.308ZM148.043 75.596L147.623 76.45H152.943V75.596H148.043ZM152.733 75.596V75.792C152.607 79.488 152.453 80.776 152.215 81.084C152.103 81.238 151.991 81.252 151.781 81.252C151.571 81.252 151.095 81.252 150.549 81.196C150.689 81.448 150.787 81.826 150.801 82.092C151.375 82.12 151.935 82.12 152.257 82.092C152.607 82.064 152.845 81.966 153.055 81.686C153.419 81.238 153.559 79.908 153.713 76.058C153.713 75.918 153.727 75.596 153.727 75.596H152.733ZM149.331 78.018C149.947 78.494 150.731 79.138 151.123 79.572L151.655 78.984C151.263 78.578 150.465 77.948 149.849 77.528L149.331 78.018ZM146.797 77.388V81.28H147.665V77.388H146.797ZM149.653 76.576C149.387 77.696 148.701 78.536 147.721 79.068C147.903 79.208 148.155 79.502 148.253 79.656C149.331 79.012 150.115 78.004 150.423 76.66L149.653 76.576ZM141.211 71.984V72.922H146.265V71.984H141.211ZM141.421 74.616V75.54H146.139V74.616H141.421ZM140.973 77.738L141.197 78.704C142.611 78.424 144.501 78.046 146.307 77.654L146.237 76.744C144.305 77.122 142.289 77.514 140.973 77.738ZM141.575 69.604C141.939 70.332 142.275 71.312 142.387 71.956L143.297 71.634C143.185 71.004 142.821 70.066 142.443 69.324L141.575 69.604ZM145.201 69.24C145.033 69.968 144.669 71.018 144.375 71.676L145.187 71.956C145.509 71.34 145.873 70.374 146.209 69.548L145.201 69.24ZM143.297 72.222V76.282C143.297 77.948 143.143 80.188 141.085 81.35C141.309 81.546 141.617 81.896 141.771 82.12C144.011 80.72 144.319 78.27 144.319 76.282V72.222H143.297ZM161.952 72.278V81.28H162.974V72.278H161.952ZM158.088 77.822V78.746H166.978V77.822H158.088ZM157.178 80.846V81.77H167.846V80.846H157.178ZM159.446 72.516C159.18 74.294 158.522 75.722 157.318 76.618C157.542 76.758 157.962 77.066 158.116 77.234C159.348 76.212 160.104 74.658 160.426 72.614L159.446 72.516ZM159.096 74.728C159.81 75.372 160.678 76.282 161.098 76.842L161.728 76.156C161.308 75.61 160.412 74.742 159.698 74.14L159.096 74.728ZM165.074 72.516C164.808 74.224 164.122 75.568 162.932 76.408C163.156 76.562 163.548 76.884 163.688 77.052C164.92 76.072 165.718 74.588 166.04 72.628L165.074 72.516ZM164.626 74.7C165.522 75.442 166.656 76.492 167.216 77.15L167.874 76.436C167.3 75.806 166.138 74.798 165.256 74.084L164.626 74.7ZM161.378 69.254V71.41H162.456V69.254H161.378ZM156.632 70.724V71.718H167.804V70.724H156.632ZM156.086 70.724V74.616C156.086 76.646 155.988 79.488 154.896 81.504C155.148 81.616 155.596 81.896 155.792 82.092C156.926 79.95 157.108 76.772 157.108 74.63V70.724H156.086Z" fill="#EBEBF5" fill-opacity="0.6"/>
<path opacity="0.3" d="M131.688 55.841V56.517H140.242V55.841H131.688ZM130.986 57.388V58.077H140.84V57.388H130.986ZM138.981 53.956C137.408 54.294 134.353 54.502 131.883 54.554C131.961 54.723 132.065 54.996 132.078 55.178C134.613 55.126 137.707 54.931 139.605 54.515L138.981 53.956ZM135.458 54.671V59.052C135.458 59.234 135.38 59.299 135.159 59.312C134.951 59.325 134.119 59.325 133.274 59.299C133.391 59.52 133.521 59.832 133.586 60.053C134.704 60.053 135.406 60.053 135.848 59.949C136.277 59.832 136.407 59.598 136.407 59.065V54.671H135.458ZM131.376 50.94V51.655H135.783V50.94H131.376ZM136.134 50.94V51.655H140.658V50.94H136.134ZM133.235 50.043V54.021H133.976V50.043H133.235ZM137.915 50.043V53.904H138.669V50.043H137.915ZM133.248 51.304C132.78 52.084 131.857 52.916 131.012 53.306C131.181 53.436 131.402 53.696 131.519 53.865C132.39 53.397 133.313 52.422 133.807 51.512L133.248 51.304ZM137.889 51.304C137.434 52.071 136.524 52.864 135.692 53.241C135.861 53.384 136.082 53.631 136.199 53.8C137.044 53.345 137.967 52.396 138.448 51.512L137.889 51.304ZM138.76 51.382L138.201 51.629C138.695 52.435 139.631 53.371 140.411 53.839C140.541 53.644 140.775 53.397 140.944 53.254C140.177 52.877 139.254 52.097 138.76 51.382ZM133.911 51.785L133.469 52.11C133.885 52.383 134.886 53.124 135.198 53.436L135.705 52.89C135.432 52.682 134.249 51.98 133.911 51.785ZM134.795 48.093V49.64H135.796V48.093H134.795ZM130.492 49.12V49.952H140.801V49.12H130.492ZM129.933 49.12V53.189C129.933 55.074 129.842 57.648 128.828 59.494C129.036 59.598 129.413 59.897 129.582 60.079C130.674 58.116 130.843 55.191 130.843 53.189V49.12H129.933ZM147.763 57.934V58.701H152.04V57.934H147.763ZM148.517 51.096H152.417V52.201H148.517V51.096ZM148.517 49.289H152.417V50.381H148.517V49.289ZM147.594 48.522V52.968H153.379V48.522H147.594ZM148.595 52.786C148.205 53.865 147.399 55.139 146.06 56.036C146.268 56.166 146.554 56.478 146.684 56.699C148.166 55.646 149.037 54.255 149.544 52.929L148.595 52.786ZM148.504 53.982L148.114 54.775H153.054V53.982H148.504ZM152.859 53.982V54.164C152.742 57.596 152.599 58.792 152.378 59.078C152.274 59.221 152.17 59.234 151.975 59.234C151.78 59.234 151.338 59.234 150.831 59.182C150.961 59.416 151.052 59.767 151.065 60.014C151.598 60.04 152.118 60.04 152.417 60.014C152.742 59.988 152.963 59.897 153.158 59.637C153.496 59.221 153.626 57.986 153.769 54.411C153.769 54.281 153.782 53.982 153.782 53.982H152.859ZM149.7 56.231C150.272 56.673 151 57.271 151.364 57.674L151.858 57.128C151.494 56.751 150.753 56.166 150.181 55.776L149.7 56.231ZM147.347 55.646V59.26H148.153V55.646H147.347ZM149.999 54.892C149.752 55.932 149.115 56.712 148.205 57.206C148.374 57.336 148.608 57.609 148.699 57.752C149.7 57.154 150.428 56.218 150.714 54.97L149.999 54.892ZM142.16 50.628V51.499H146.853V50.628H142.16ZM142.355 53.072V53.93H146.736V53.072H142.355ZM141.939 55.971L142.147 56.868C143.46 56.608 145.215 56.257 146.892 55.893L146.827 55.048C145.033 55.399 143.161 55.763 141.939 55.971ZM142.498 48.418C142.836 49.094 143.148 50.004 143.252 50.602L144.097 50.303C143.993 49.718 143.655 48.847 143.304 48.158L142.498 48.418ZM145.865 48.08C145.709 48.756 145.371 49.731 145.098 50.342L145.852 50.602C146.151 50.03 146.489 49.133 146.801 48.366L145.865 48.08ZM144.097 50.849V54.619C144.097 56.166 143.954 58.246 142.043 59.325C142.251 59.507 142.537 59.832 142.68 60.04C144.76 58.74 145.046 56.465 145.046 54.619V50.849H144.097ZM161.419 50.901V59.26H162.368V50.901H161.419ZM157.831 56.049V56.907H166.086V56.049H157.831ZM156.986 58.857V59.715H166.892V58.857H156.986ZM159.092 51.122C158.845 52.773 158.234 54.099 157.116 54.931C157.324 55.061 157.714 55.347 157.857 55.503C159.001 54.554 159.703 53.111 160.002 51.213L159.092 51.122ZM158.767 53.176C159.43 53.774 160.236 54.619 160.626 55.139L161.211 54.502C160.821 53.995 159.989 53.189 159.326 52.63L158.767 53.176ZM164.318 51.122C164.071 52.708 163.434 53.956 162.329 54.736C162.537 54.879 162.901 55.178 163.031 55.334C164.175 54.424 164.916 53.046 165.215 51.226L164.318 51.122ZM163.902 53.15C164.734 53.839 165.787 54.814 166.307 55.425L166.918 54.762C166.385 54.177 165.306 53.241 164.487 52.578L163.902 53.15ZM160.886 48.093V50.095H161.887V48.093H160.886ZM156.479 49.458V50.381H166.853V49.458H156.479ZM155.972 49.458V53.072C155.972 54.957 155.881 57.596 154.867 59.468C155.101 59.572 155.517 59.832 155.699 60.014C156.752 58.025 156.921 55.074 156.921 53.085V49.458H155.972Z" fill="#EBEBF5" fill-opacity="0.6"/>
<path opacity="0.2" d="M134.198 39.327V39.899H141.436V39.327H134.198ZM133.604 40.636V41.219H141.942V40.636H133.604ZM140.369 37.732C139.038 38.018 136.453 38.194 134.363 38.238C134.429 38.381 134.517 38.612 134.528 38.766C136.673 38.722 139.291 38.557 140.897 38.205L140.369 37.732ZM137.388 38.337V42.044C137.388 42.198 137.322 42.253 137.135 42.264C136.959 42.275 136.255 42.275 135.54 42.253C135.639 42.44 135.749 42.704 135.804 42.891C136.75 42.891 137.344 42.891 137.718 42.803C138.081 42.704 138.191 42.506 138.191 42.055V38.337H137.388ZM133.934 35.18V35.785H137.663V35.18H133.934ZM137.96 35.18V35.785H141.788V35.18H137.96ZM135.507 34.421V37.787H136.134V34.421H135.507ZM139.467 34.421V37.688H140.105V34.421H139.467ZM135.518 35.488C135.122 36.148 134.341 36.852 133.626 37.182C133.769 37.292 133.956 37.512 134.055 37.655C134.792 37.259 135.573 36.434 135.991 35.664L135.518 35.488ZM139.445 35.488C139.06 36.137 138.29 36.808 137.586 37.127C137.729 37.248 137.916 37.457 138.015 37.6C138.73 37.215 139.511 36.412 139.918 35.664L139.445 35.488ZM140.182 35.554L139.709 35.763C140.127 36.445 140.919 37.237 141.579 37.633C141.689 37.468 141.887 37.259 142.03 37.138C141.381 36.819 140.6 36.159 140.182 35.554ZM136.079 35.895L135.705 36.17C136.057 36.401 136.904 37.028 137.168 37.292L137.597 36.83C137.366 36.654 136.365 36.06 136.079 35.895ZM136.827 32.771V34.08H137.674V32.771H136.827ZM133.186 33.64V34.344H141.909V33.64H133.186ZM132.713 33.64V37.083C132.713 38.678 132.636 40.856 131.778 42.418C131.954 42.506 132.273 42.759 132.416 42.913C133.34 41.252 133.483 38.777 133.483 37.083V33.64H132.713ZM147.799 41.098V41.747H151.418V41.098H147.799ZM148.437 35.312H151.737V36.247H148.437V35.312ZM148.437 33.783H151.737V34.707H148.437V33.783ZM147.656 33.134V36.896H152.551V33.134H147.656ZM148.503 36.742C148.173 37.655 147.491 38.733 146.358 39.492C146.534 39.602 146.776 39.866 146.886 40.053C148.14 39.162 148.877 37.985 149.306 36.863L148.503 36.742ZM148.426 37.754L148.096 38.425H152.276V37.754H148.426ZM152.111 37.754V37.908C152.012 40.812 151.891 41.824 151.704 42.066C151.616 42.187 151.528 42.198 151.363 42.198C151.198 42.198 150.824 42.198 150.395 42.154C150.505 42.352 150.582 42.649 150.593 42.858C151.044 42.88 151.484 42.88 151.737 42.858C152.012 42.836 152.199 42.759 152.364 42.539C152.65 42.187 152.76 41.142 152.881 38.117C152.881 38.007 152.892 37.754 152.892 37.754H152.111ZM149.438 39.657C149.922 40.031 150.538 40.537 150.846 40.878L151.264 40.416C150.956 40.097 150.329 39.602 149.845 39.272L149.438 39.657ZM147.447 39.162V42.22H148.129V39.162H147.447ZM149.691 38.524C149.482 39.404 148.943 40.064 148.173 40.482C148.316 40.592 148.514 40.823 148.591 40.944C149.438 40.438 150.054 39.646 150.296 38.59L149.691 38.524ZM143.058 34.916V35.653H147.029V34.916H143.058ZM143.223 36.984V37.71H146.93V36.984H143.223ZM142.871 39.437L143.047 40.196C144.158 39.976 145.643 39.679 147.062 39.371L147.007 38.656C145.489 38.953 143.905 39.261 142.871 39.437ZM143.344 33.046C143.63 33.618 143.894 34.388 143.982 34.894L144.697 34.641C144.609 34.146 144.323 33.409 144.026 32.826L143.344 33.046ZM146.193 32.76C146.061 33.332 145.775 34.157 145.544 34.674L146.182 34.894C146.435 34.41 146.721 33.651 146.985 33.002L146.193 32.76ZM144.697 35.103V38.293C144.697 39.602 144.576 41.362 142.959 42.275C143.135 42.429 143.377 42.704 143.498 42.88C145.258 41.78 145.5 39.855 145.5 38.293V35.103H144.697ZM159.355 35.147V42.22H160.158V35.147H159.355ZM156.319 39.503V40.229H163.304V39.503H156.319ZM155.604 41.879V42.605H163.986V41.879H155.604ZM157.386 35.334C157.177 36.731 156.66 37.853 155.714 38.557C155.89 38.667 156.22 38.909 156.341 39.041C157.309 38.238 157.903 37.017 158.156 35.411L157.386 35.334ZM157.111 37.072C157.672 37.578 158.354 38.293 158.684 38.733L159.179 38.194C158.849 37.765 158.145 37.083 157.584 36.61L157.111 37.072ZM161.808 35.334C161.599 36.676 161.06 37.732 160.125 38.392C160.301 38.513 160.609 38.766 160.719 38.898C161.687 38.128 162.314 36.962 162.567 35.422L161.808 35.334ZM161.456 37.05C162.16 37.633 163.051 38.458 163.491 38.975L164.008 38.414C163.557 37.919 162.644 37.127 161.951 36.566L161.456 37.05ZM158.904 32.771V34.465H159.751V32.771H158.904ZM155.175 33.926V34.707H163.953V33.926H155.175ZM154.746 33.926V36.984C154.746 38.579 154.669 40.812 153.811 42.396C154.009 42.484 154.361 42.704 154.515 42.858C155.406 41.175 155.549 38.678 155.549 36.995V33.926H154.746Z" fill="#EBEBF5" fill-opacity="0.6"/>
<path opacity="0.1" d="M139.58 30H140.238L141.141 27.13C141.33 26.556 141.491 25.996 141.659 25.401H141.687C141.855 25.996 142.016 26.556 142.198 27.13L143.101 30H143.78L142.044 24.869H141.316L139.58 30ZM140.49 28.432H142.856V27.921H140.49V28.432ZM144.675 31.603H145.312V30.322L145.298 29.657C145.641 29.937 145.998 30.098 146.341 30.098C147.216 30.098 147.993 29.342 147.993 28.047C147.993 26.871 147.468 26.108 146.481 26.108C146.04 26.108 145.62 26.353 145.277 26.64H145.256L145.193 26.199H144.675V31.603ZM146.243 29.559C145.991 29.559 145.655 29.454 145.312 29.167V27.165C145.683 26.822 146.005 26.64 146.327 26.64C147.048 26.64 147.335 27.207 147.335 28.054C147.335 28.992 146.866 29.559 146.243 29.559ZM149.229 30H149.866V27.564C150.118 26.913 150.51 26.682 150.825 26.682C150.979 26.682 151.063 26.703 151.196 26.745L151.315 26.185C151.189 26.129 151.077 26.108 150.909 26.108C150.482 26.108 150.09 26.409 149.831 26.892H149.81L149.747 26.199H149.229V30ZM152.155 30H152.792V26.199H152.155V30ZM152.477 25.415C152.722 25.415 152.904 25.254 152.904 24.988C152.904 24.743 152.722 24.582 152.477 24.582C152.225 24.582 152.05 24.743 152.05 24.988C152.05 25.254 152.225 25.415 152.477 25.415ZM154.968 30.098C155.143 30.098 155.241 30.07 155.332 30.042L155.248 29.552C155.171 29.566 155.143 29.566 155.115 29.566C155.017 29.566 154.933 29.489 154.933 29.286V24.435H154.296V29.244C154.296 29.79 154.485 30.098 154.968 30.098Z" fill="#EBEBF5" fill-opacity="0.6"/>
</g>
<path fill-rule="evenodd" clip-rule="evenodd" d="M0 215.5H295V216H0V215.5Z" fill="#3C3C43" fill-opacity="0.29"/>
</g>
<rect x="19.6667" y="92" width="255.667" height="34" rx="8" fill="#787880" fill-opacity="0.2"/>
<path d="M123.884 104.672V105.872H128.7V104.672H123.884ZM130.412 100.608V113.6C130.412 113.904 130.284 114 129.98 114.016C129.644 114.016 128.62 114.032 127.468 113.984C127.66 114.352 127.9 114.944 127.948 115.296C129.436 115.296 130.364 115.264 130.908 115.04C131.436 114.832 131.66 114.448 131.66 113.6V100.608H130.412ZM128.284 104.672V104.944C127.612 108.608 125.772 111.344 123.484 112.784C123.772 112.976 124.252 113.456 124.46 113.744C126.812 112.144 128.748 109.152 129.564 104.928L128.748 104.624L128.54 104.672H128.284ZM131.596 103.216L130.636 103.44C131.82 108.176 133.996 112.256 137.644 114.064C137.852 113.696 138.268 113.216 138.572 112.976C134.988 111.408 132.7 107.52 131.596 103.216ZM136.812 103.168C135.756 104.592 133.9 106.464 132.54 107.568L133.388 108.24C134.78 107.168 136.604 105.408 137.916 103.952L136.812 103.168ZM147.164 101.424V102.512H154.54V101.424H147.164ZM148.636 101.856C148.508 105.632 148.108 110.992 147.756 114.016H148.892C149.212 111.056 149.564 105.712 149.724 101.856H148.636ZM146.604 113.84L146.94 114.912C148.428 114.64 150.428 114.256 152.316 113.888L152.252 112.912C150.14 113.264 147.996 113.632 146.604 113.84ZM149.676 107.696C150.252 108.8 150.78 110.288 150.956 111.248L151.82 110.976C151.644 110.016 151.084 108.56 150.476 107.44L149.676 107.696ZM152.236 104.832C152.3 110.576 152.268 115.296 154.028 115.296C154.86 115.296 155.068 114.528 155.164 112.416C154.94 112.272 154.652 112 154.428 111.744C154.412 113.168 154.348 114.176 154.14 114.176C153.34 114.176 153.324 109.504 153.34 104.832H152.236ZM140.252 103.744V104.816H147.356V103.744H140.252ZM139.964 108.016V109.12H147.532V108.016H139.964ZM145.708 100.576C145.468 101.424 144.988 102.64 144.588 103.392L145.484 103.68C145.9 102.976 146.428 101.84 146.86 100.896L145.708 100.576ZM140.924 100.912C141.372 101.76 141.788 102.912 141.932 103.648L142.94 103.312C142.78 102.576 142.332 101.456 141.868 100.608L140.924 100.912ZM144.748 104.16V115.264H145.836V104.16H144.748ZM141.692 104.16V107.952C141.692 110.24 141.516 112.672 139.9 114.64C140.172 114.8 140.588 115.136 140.78 115.376C142.54 113.216 142.764 110.528 142.764 107.952V104.16H141.692ZM149.1 104.832L149.004 105.904H152.86V104.832H149.1ZM164.156 104.032V114.32H165.324V104.032H164.156ZM159.74 110.368V111.424H169.9V110.368H159.74ZM158.7 113.824V114.88H170.892V113.824H158.7ZM161.292 104.304C160.988 106.336 160.236 107.968 158.86 108.992C159.116 109.152 159.596 109.504 159.772 109.696C161.18 108.528 162.044 106.752 162.412 104.416L161.292 104.304ZM160.892 106.832C161.708 107.568 162.7 108.608 163.18 109.248L163.9 108.464C163.42 107.84 162.396 106.848 161.58 106.16L160.892 106.832ZM167.724 104.304C167.42 106.256 166.636 107.792 165.276 108.752C165.532 108.928 165.98 109.296 166.14 109.488C167.548 108.368 168.46 106.672 168.828 104.432L167.724 104.304ZM167.212 106.8C168.236 107.648 169.532 108.848 170.172 109.6L170.924 108.784C170.268 108.064 168.94 106.912 167.932 106.096L167.212 106.8ZM163.5 100.576V103.04H164.732V100.576H163.5ZM158.076 102.256V103.392H170.844V102.256H158.076ZM157.452 102.256V106.704C157.452 109.024 157.34 112.272 156.092 114.576C156.38 114.704 156.892 115.024 157.116 115.248C158.412 112.8 158.62 109.168 158.62 106.72V102.256H157.452Z" fill="white"/>
</g>
<defs>
<filter id="filter0_b_2271_44946" x="-27.1828" y="-27.1828" width="349.366" height="270.366" filterUnits="userSpaceOnUse" color-interpolation-filters="sRGB">
<feFlood flood-opacity="0" result="BackgroundImageFix"/>
<feGaussianBlur in="BackgroundImageFix" stdDeviation="13.5914"/>
<feComposite in2="SourceAlpha" operator="in" result="effect1_backgroundBlur_2271_44946"/>
<feBlend mode="normal" in="SourceGraphic" in2="effect1_backgroundBlur_2271_44946" result="shape"/>
</filter>
<clipPath id="clip0_2271_44946">
<rect width="295" height="216" rx="20" fill="white"/>
</clipPath>
<clipPath id="clip1_2271_44946">
<rect width="295" height="216" fill="white"/>
</clipPath>
</defs>
</svg>
