<svg width="70" height="15" viewBox="0 0 70 15" fill="none" xmlns="http://www.w3.org/2000/svg">
<path d="M6.4248 11.4248C6.4248 11.2139 6.37207 11.0234 6.2666 10.8535C6.16113 10.6777 5.95898 10.5195 5.66016 10.3789C5.36719 10.2383 4.93359 10.1094 4.35937 9.99219C3.85547 9.88086 3.39258 9.74902 2.9707 9.59668C2.55469 9.43848 2.19727 9.24805 1.89844 9.02539C1.59961 8.80273 1.36816 8.53906 1.2041 8.23438C1.04004 7.92969 0.958008 7.57813 0.958008 7.17969C0.958008 6.79297 1.04297 6.42676 1.21289 6.08105C1.38281 5.73535 1.62598 5.43066 1.94238 5.16699C2.25879 4.90332 2.64258 4.69531 3.09375 4.54297C3.55078 4.39063 4.06055 4.31445 4.62305 4.31445C5.41992 4.31445 6.10254 4.44922 6.6709 4.71875C7.24512 4.98242 7.68457 5.34277 7.98926 5.7998C8.29395 6.25098 8.44629 6.76074 8.44629 7.3291L6.32812 7.3291C6.32812 7.07715 6.26367 6.84277 6.13477 6.62598C6.01172 6.40332 5.82422 6.22461 5.57227 6.08984C5.32031 5.94922 5.00391 5.87891 4.62305 5.87891C4.25977 5.87891 3.95801 5.9375 3.71777 6.05469C3.4834 6.16602 3.30762 6.3125 3.19043 6.49414C3.0791 6.67578 3.02344 6.875 3.02344 7.0918C3.02344 7.25 3.05273 7.39355 3.11133 7.52246C3.17578 7.64551 3.28125 7.75977 3.42773 7.86523C3.57422 7.96484 3.77344 8.05859 4.02539 8.14648C4.2832 8.23438 4.60547 8.31934 4.99219 8.40137C5.71875 8.55371 6.34277 8.75 6.86426 8.99023C7.3916 9.22461 7.7959 9.5293 8.07715 9.9043C8.3584 10.2734 8.49902 10.7422 8.49902 11.3105C8.49902 11.7324 8.4082 12.1191 8.22656 12.4707C8.05078 12.8164 7.79297 13.1182 7.45312 13.376C7.11328 13.6279 6.70605 13.8242 6.23145 13.9648C5.7627 14.1055 5.23535 14.1758 4.64941 14.1758C3.78809 14.1758 3.05859 14.0234 2.46094 13.7188C1.86328 13.4082 1.40918 13.0127 1.09863 12.5322C0.793945 12.0459 0.641601 11.542 0.641601 11.0205L2.68945 11.0205C2.71289 11.4131 2.82129 11.7266 3.01465 11.9609C3.21387 12.1895 3.45996 12.3564 3.75293 12.4619C4.05176 12.5615 4.35937 12.6113 4.67578 12.6113C5.05664 12.6113 5.37598 12.5615 5.63379 12.4619C5.8916 12.3564 6.08789 12.2158 6.22266 12.04C6.35742 11.8584 6.4248 11.6533 6.4248 11.4248ZM16.4352 11.7588L16.4352 4.49023L18.5621 4.49023L18.5621 14L16.5582 14L16.4352 11.7588ZM16.734 9.78125L17.4459 9.76367C17.4459 10.4023 17.3756 10.9912 17.235 11.5303C17.0944 12.0635 16.8776 12.5293 16.5846 12.9277C16.2916 13.3203 15.9166 13.6279 15.4596 13.8506C15.0026 14.0674 14.4547 14.1758 13.8161 14.1758C13.3532 14.1758 12.9284 14.1084 12.5416 13.9736C12.1549 13.8389 11.8209 13.6309 11.5397 13.3496C11.2643 13.0684 11.0504 12.7021 10.8981 12.251C10.7457 11.7998 10.6696 11.2607 10.6696 10.6338L10.6696 4.49023L12.7877 4.49023L12.7877 10.6514C12.7877 10.9971 12.8287 11.2871 12.9108 11.5215C12.9928 11.75 13.1041 11.9346 13.2448 12.0752C13.3854 12.2158 13.5495 12.3154 13.737 12.374C13.9245 12.4326 14.1237 12.4619 14.3346 12.4619C14.9381 12.4619 15.4127 12.3447 15.7584 12.1104C16.11 11.8701 16.359 11.5479 16.5055 11.1436C16.6579 10.7393 16.734 10.2852 16.734 9.78125ZM21.1018 0.5L23.22 0.5L23.22 11.9697L23.0179 14L21.1018 14L21.1018 0.5ZM29.4251 9.15723L29.4251 9.3418C29.4251 10.0449 29.346 10.6924 29.1878 11.2842C29.0354 11.8701 28.8011 12.3799 28.4846 12.8135C28.1741 13.2471 27.7874 13.584 27.3245 13.8242C26.8675 14.0586 26.3372 14.1758 25.7337 14.1758C25.1419 14.1758 24.6262 14.0645 24.1868 13.8418C23.7473 13.6191 23.3782 13.3027 23.0794 12.8926C22.7864 12.4824 22.5491 11.9932 22.3675 11.4248C22.1858 10.8564 22.0569 10.2295 21.9807 9.54395L21.9807 8.95508C22.0569 8.26367 22.1858 7.63672 22.3675 7.07422C22.5491 6.50586 22.7864 6.0166 23.0794 5.60645C23.3782 5.19043 23.7444 4.87109 24.178 4.64844C24.6175 4.42578 25.1302 4.31445 25.7161 4.31445C26.3255 4.31445 26.8616 4.43164 27.3245 4.66602C27.7932 4.90039 28.1829 5.23438 28.4934 5.66797C28.804 6.0957 29.0354 6.60547 29.1878 7.19727C29.346 7.78906 29.4251 8.44238 29.4251 9.15723ZM27.3069 9.3418L27.3069 9.15723C27.3069 8.72949 27.2718 8.32813 27.2014 7.95313C27.1311 7.57227 27.0139 7.23828 26.8499 6.95117C26.6917 6.66406 26.4749 6.43848 26.1995 6.27441C25.93 6.10449 25.593 6.01953 25.1887 6.01953C24.8137 6.01953 24.4915 6.08398 24.222 6.21289C23.9524 6.3418 23.7268 6.51758 23.5452 6.74023C23.3636 6.96289 23.22 7.2207 23.1145 7.51367C23.0149 7.80664 22.9475 8.12305 22.9124 8.46289L22.9124 10.0537C22.9651 10.4932 23.0764 10.8975 23.2464 11.2666C23.4221 11.6299 23.6682 11.9229 23.9846 12.1455C24.3011 12.3623 24.7083 12.4707 25.2063 12.4707C25.5989 12.4707 25.93 12.3916 26.1995 12.2334C26.469 12.0752 26.6829 11.8555 26.8411 11.5742C27.0052 11.2871 27.1223 10.9531 27.1927 10.5723C27.2688 10.1914 27.3069 9.78125 27.3069 9.3418ZM35.9374 4.49023L35.9374 6.03711L30.5761 6.03711L30.5761 4.49023L35.9374 4.49023ZM32.123 2.16113L34.2411 2.16113L34.2411 11.3721C34.2411 11.665 34.2821 11.8906 34.3642 12.0488C34.4521 12.2012 34.5722 12.3037 34.7245 12.3564C34.8769 12.4092 35.0556 12.4355 35.2607 12.4355C35.4071 12.4355 35.5478 12.4268 35.6825 12.4092C35.8173 12.3916 35.9257 12.374 36.0077 12.3564L36.0165 13.9736C35.8407 14.0264 35.6357 14.0732 35.4013 14.1143C35.1728 14.1553 34.9091 14.1758 34.6103 14.1758C34.1239 14.1758 33.6933 14.0908 33.3183 13.9209C32.9433 13.7451 32.6503 13.4609 32.4394 13.0684C32.2284 12.6758 32.123 12.1543 32.123 11.5039L32.123 2.16113ZM40.1998 4.49023L40.1998 14L38.0728 14L38.0728 4.49023L40.1998 4.49023ZM37.9322 1.99414C37.9322 1.67188 38.0377 1.40527 38.2486 1.19434C38.4654 0.977539 38.7642 0.869141 39.1451 0.869141C39.5201 0.869141 39.816 0.977539 40.0328 1.19434C40.2496 1.40527 40.358 1.67188 40.358 1.99414C40.358 2.31055 40.2496 2.57422 40.0328 2.78516C39.816 2.99609 39.5201 3.10156 39.1451 3.10156C38.7642 3.10156 38.4654 2.99609 38.2486 2.78516C38.0377 2.57422 37.9322 2.31055 37.9322 1.99414ZM47.2395 4.49023L47.2395 6.03711L41.8781 6.03711L41.8781 4.49023L47.2395 4.49023ZM43.425 2.16113L45.5432 2.16113L45.5432 11.3721C45.5432 11.665 45.5842 11.8906 45.6662 12.0488C45.7541 12.2012 45.8742 12.3037 46.0266 12.3564C46.1789 12.4092 46.3576 12.4355 46.5627 12.4355C46.7092 12.4355 46.8498 12.4268 46.9846 12.4092C47.1193 12.3916 47.2277 12.374 47.3098 12.3564L47.3186 13.9736C47.1428 14.0264 46.9377 14.0732 46.7033 14.1143C46.4748 14.1553 46.2111 14.1758 45.9123 14.1758C45.426 14.1758 44.9953 14.0908 44.6203 13.9209C44.2453 13.7451 43.9523 13.4609 43.7414 13.0684C43.5305 12.6758 43.425 12.1543 43.425 11.5039L43.425 2.16113ZM51.5018 0.5L51.5018 14L49.3748 14L49.3748 0.5L51.5018 0.5ZM58.3745 14.1758C57.6714 14.1758 57.0356 14.0615 56.4673 13.833C55.9048 13.5986 55.4243 13.2734 55.0259 12.8574C54.6333 12.4414 54.3315 11.9521 54.1206 11.3896C53.9096 10.8271 53.8042 10.2207 53.8042 9.57031L53.8042 9.21875C53.8042 8.47461 53.9126 7.80078 54.1294 7.19727C54.3462 6.59375 54.6479 6.07813 55.0346 5.65039C55.4214 5.2168 55.8784 4.88574 56.4057 4.65723C56.9331 4.42871 57.5044 4.31445 58.1196 4.31445C58.7993 4.31445 59.394 4.42871 59.9038 4.65723C60.4136 4.88574 60.8354 5.20801 61.1694 5.62402C61.5093 6.03418 61.7612 6.52344 61.9253 7.0918C62.0952 7.66016 62.1802 8.28711 62.1802 8.97266L62.1802 9.87793L54.8325 9.87793L54.8325 8.35742L60.0884 8.35742L60.0884 8.19043C60.0766 7.80957 60.0005 7.45215 59.8598 7.11816C59.7251 6.78418 59.5171 6.51465 59.2358 6.30957C58.9546 6.10449 58.5796 6.00195 58.1108 6.00195C57.7593 6.00195 57.4458 6.07813 57.1704 6.23047C56.9009 6.37695 56.6753 6.59082 56.4936 6.87207C56.312 7.15332 56.1714 7.49316 56.0718 7.8916C55.978 8.28418 55.9311 8.72656 55.9311 9.21875L55.9311 9.57031C55.9311 9.98633 55.9868 10.373 56.0981 10.7305C56.2153 11.082 56.3852 11.3896 56.6079 11.6533C56.8305 11.917 57.1001 12.125 57.4165 12.2773C57.7329 12.4238 58.0932 12.4971 58.4975 12.4971C59.0073 12.4971 59.4614 12.3945 59.8598 12.1895C60.2583 11.9844 60.604 11.6943 60.897 11.3193L62.0132 12.4004C61.8081 12.6992 61.5415 12.9863 61.2134 13.2617C60.8852 13.5313 60.4839 13.751 60.0093 13.9209C59.5405 14.0908 58.9956 14.1758 58.3745 14.1758ZM69.8527 1.15918L69.8527 14L67.7345 14L67.7345 3.67285L64.5968 4.73633L64.5968 2.98731L69.5978 1.15918L69.8527 1.15918Z" fill="#3A3A3C"/>
</svg>
