<svg width="70" height="15" viewBox="0 0 70 15" fill="none" xmlns="http://www.w3.org/2000/svg">
<path d="M6.4248 11.6279C6.4248 11.417 6.37207 11.2266 6.2666 11.0566C6.16113 10.8809 5.95898 10.7227 5.66016 10.582C5.36719 10.4414 4.93359 10.3125 4.35937 10.1953C3.85547 10.084 3.39258 9.95215 2.9707 9.7998C2.55469 9.6416 2.19727 9.45117 1.89844 9.22852C1.59961 9.00586 1.36816 8.74219 1.2041 8.4375C1.04004 8.13281 0.958008 7.78125 0.958008 7.38281C0.958008 6.99609 1.04297 6.62988 1.21289 6.28418C1.38281 5.93848 1.62598 5.63379 1.94238 5.37012C2.25879 5.10645 2.64258 4.89844 3.09375 4.74609C3.55078 4.59375 4.06055 4.51758 4.62305 4.51758C5.41992 4.51758 6.10254 4.65234 6.6709 4.92188C7.24512 5.18555 7.68457 5.5459 7.98926 6.00293C8.29395 6.4541 8.44629 6.96387 8.44629 7.53223L6.32812 7.53223C6.32812 7.28027 6.26367 7.0459 6.13477 6.8291C6.01172 6.60645 5.82422 6.42773 5.57227 6.29297C5.32031 6.15234 5.00391 6.08203 4.62305 6.08203C4.25977 6.08203 3.95801 6.14063 3.71777 6.25781C3.4834 6.36914 3.30762 6.51563 3.19043 6.69727C3.0791 6.87891 3.02344 7.07813 3.02344 7.29492C3.02344 7.45313 3.05273 7.59668 3.11133 7.72559C3.17578 7.84863 3.28125 7.96289 3.42773 8.06836C3.57422 8.16797 3.77344 8.26172 4.02539 8.34961C4.2832 8.4375 4.60547 8.52246 4.99219 8.60449C5.71875 8.75684 6.34277 8.95313 6.86426 9.19336C7.3916 9.42773 7.7959 9.73242 8.07715 10.1074C8.3584 10.4766 8.49902 10.9453 8.49902 11.5137C8.49902 11.9355 8.4082 12.3223 8.22656 12.6738C8.05078 13.0195 7.79297 13.3213 7.45312 13.5791C7.11328 13.8311 6.70605 14.0273 6.23145 14.168C5.7627 14.3086 5.23535 14.3789 4.64941 14.3789C3.78809 14.3789 3.05859 14.2266 2.46094 13.9219C1.86328 13.6113 1.40918 13.2158 1.09863 12.7354C0.793945 12.249 0.641601 11.7451 0.641601 11.2236L2.68945 11.2236C2.71289 11.6162 2.82129 11.9297 3.01465 12.1641C3.21387 12.3926 3.45996 12.5596 3.75293 12.665C4.05176 12.7646 4.35937 12.8145 4.67578 12.8145C5.05664 12.8145 5.37598 12.7646 5.63379 12.665C5.8916 12.5596 6.08789 12.4189 6.22266 12.2432C6.35742 12.0615 6.4248 11.8564 6.4248 11.6279ZM16.4352 11.9619L16.4352 4.69336L18.5621 4.69336L18.5621 14.2031L16.5582 14.2031L16.4352 11.9619ZM16.734 9.98438L17.4459 9.9668C17.4459 10.6055 17.3756 11.1943 17.235 11.7334C17.0944 12.2666 16.8776 12.7324 16.5846 13.1309C16.2916 13.5234 15.9166 13.8311 15.4596 14.0537C15.0026 14.2705 14.4547 14.3789 13.8161 14.3789C13.3532 14.3789 12.9284 14.3115 12.5416 14.1768C12.1549 14.042 11.8209 13.834 11.5397 13.5527C11.2643 13.2715 11.0504 12.9053 10.8981 12.4541C10.7457 12.0029 10.6696 11.4639 10.6696 10.8369L10.6696 4.69336L12.7877 4.69336L12.7877 10.8545C12.7877 11.2002 12.8287 11.4902 12.9108 11.7246C12.9928 11.9531 13.1041 12.1377 13.2448 12.2783C13.3854 12.4189 13.5495 12.5186 13.737 12.5771C13.9245 12.6357 14.1237 12.665 14.3346 12.665C14.9381 12.665 15.4127 12.5479 15.7584 12.3135C16.11 12.0732 16.359 11.751 16.5055 11.3467C16.6579 10.9424 16.734 10.4883 16.734 9.98438ZM21.1018 0.703125L23.22 0.703125L23.22 12.1729L23.0179 14.2031L21.1018 14.2031L21.1018 0.703125ZM29.4251 9.36035L29.4251 9.54492C29.4251 10.248 29.346 10.8955 29.1878 11.4873C29.0354 12.0732 28.8011 12.583 28.4846 13.0166C28.1741 13.4502 27.7874 13.7871 27.3245 14.0273C26.8675 14.2617 26.3372 14.3789 25.7337 14.3789C25.1419 14.3789 24.6262 14.2676 24.1868 14.0449C23.7473 13.8223 23.3782 13.5059 23.0794 13.0957C22.7864 12.6855 22.5491 12.1963 22.3675 11.6279C22.1858 11.0596 22.0569 10.4326 21.9807 9.74707L21.9807 9.1582C22.0569 8.4668 22.1858 7.83984 22.3675 7.27734C22.5491 6.70898 22.7864 6.21973 23.0794 5.80957C23.3782 5.39355 23.7444 5.07422 24.178 4.85156C24.6175 4.62891 25.1302 4.51758 25.7161 4.51758C26.3255 4.51758 26.8616 4.63477 27.3245 4.86914C27.7932 5.10352 28.1829 5.4375 28.4934 5.87109C28.804 6.29883 29.0354 6.80859 29.1878 7.40039C29.346 7.99219 29.4251 8.64551 29.4251 9.36035ZM27.3069 9.54492L27.3069 9.36035C27.3069 8.93262 27.2718 8.53125 27.2014 8.15625C27.1311 7.77539 27.0139 7.44141 26.8499 7.1543C26.6917 6.86719 26.4749 6.6416 26.1995 6.47754C25.93 6.30762 25.593 6.22266 25.1887 6.22266C24.8137 6.22266 24.4915 6.28711 24.222 6.41602C23.9524 6.54492 23.7268 6.7207 23.5452 6.94336C23.3636 7.16602 23.22 7.42383 23.1145 7.7168C23.0149 8.00977 22.9475 8.32617 22.9124 8.66602L22.9124 10.2568C22.9651 10.6963 23.0764 11.1006 23.2464 11.4697C23.4221 11.833 23.6682 12.126 23.9846 12.3486C24.3011 12.5654 24.7083 12.6738 25.2063 12.6738C25.5989 12.6738 25.93 12.5947 26.1995 12.4365C26.469 12.2783 26.6829 12.0586 26.8411 11.7773C27.0052 11.4902 27.1223 11.1563 27.1927 10.7754C27.2688 10.3945 27.3069 9.98438 27.3069 9.54492ZM35.9374 4.69336L35.9374 6.24023L30.5761 6.24023L30.5761 4.69336L35.9374 4.69336ZM32.123 2.36426L34.2411 2.36426L34.2411 11.5752C34.2411 11.8682 34.2821 12.0938 34.3642 12.252C34.4521 12.4043 34.5722 12.5068 34.7245 12.5596C34.8769 12.6123 35.0556 12.6387 35.2607 12.6387C35.4071 12.6387 35.5478 12.6299 35.6825 12.6123C35.8173 12.5947 35.9257 12.5771 36.0077 12.5596L36.0165 14.1768C35.8407 14.2295 35.6357 14.2764 35.4013 14.3174C35.1728 14.3584 34.9091 14.3789 34.6103 14.3789C34.1239 14.3789 33.6933 14.2939 33.3183 14.124C32.9433 13.9482 32.6503 13.6641 32.4394 13.2715C32.2284 12.8789 32.123 12.3574 32.123 11.707L32.123 2.36426ZM40.1998 4.69336L40.1998 14.2031L38.0728 14.2031L38.0728 4.69336L40.1998 4.69336ZM37.9322 2.19727C37.9322 1.875 38.0377 1.6084 38.2486 1.39746C38.4654 1.18066 38.7642 1.07227 39.1451 1.07227C39.5201 1.07227 39.816 1.18066 40.0328 1.39746C40.2496 1.6084 40.358 1.875 40.358 2.19727C40.358 2.51367 40.2496 2.77734 40.0328 2.98828C39.816 3.19922 39.5201 3.30469 39.1451 3.30469C38.7642 3.30469 38.4654 3.19922 38.2486 2.98828C38.0377 2.77734 37.9322 2.51367 37.9322 2.19727ZM47.2395 4.69336L47.2395 6.24023L41.8781 6.24023L41.8781 4.69336L47.2395 4.69336ZM43.425 2.36426L45.5432 2.36426L45.5432 11.5752C45.5432 11.8682 45.5842 12.0938 45.6662 12.252C45.7541 12.4043 45.8742 12.5068 46.0266 12.5596C46.1789 12.6123 46.3576 12.6387 46.5627 12.6387C46.7092 12.6387 46.8498 12.6299 46.9846 12.6123C47.1193 12.5947 47.2277 12.5771 47.3098 12.5596L47.3186 14.1768C47.1428 14.2295 46.9377 14.2764 46.7033 14.3174C46.4748 14.3584 46.2111 14.3789 45.9123 14.3789C45.426 14.3789 44.9953 14.2939 44.6203 14.124C44.2453 13.9482 43.9523 13.6641 43.7414 13.2715C43.5305 12.8789 43.425 12.3574 43.425 11.707L43.425 2.36426ZM51.5018 0.703125L51.5018 14.2031L49.3748 14.2031L49.3748 0.703125L51.5018 0.703125ZM58.3745 14.3789C57.6714 14.3789 57.0356 14.2646 56.4673 14.0361C55.9048 13.8018 55.4243 13.4766 55.0259 13.0605C54.6333 12.6445 54.3315 12.1553 54.1206 11.5928C53.9096 11.0303 53.8042 10.4238 53.8042 9.77344L53.8042 9.42188C53.8042 8.67773 53.9126 8.00391 54.1294 7.40039C54.3462 6.79688 54.6479 6.28125 55.0346 5.85352C55.4214 5.41992 55.8784 5.08887 56.4057 4.86035C56.9331 4.63184 57.5044 4.51758 58.1196 4.51758C58.7993 4.51758 59.394 4.63184 59.9038 4.86035C60.4136 5.08887 60.8354 5.41113 61.1694 5.82715C61.5093 6.23731 61.7612 6.72656 61.9253 7.29492C62.0952 7.86328 62.1802 8.49023 62.1802 9.17578L62.1802 10.0811L54.8325 10.0811L54.8325 8.56055L60.0884 8.56055L60.0884 8.39356C60.0766 8.0127 60.0005 7.65527 59.8598 7.32129C59.7251 6.98731 59.5171 6.71777 59.2358 6.5127C58.9546 6.30762 58.5796 6.20508 58.1108 6.20508C57.7593 6.20508 57.4458 6.28125 57.1704 6.43359C56.9009 6.58008 56.6753 6.79395 56.4936 7.0752C56.312 7.35645 56.1714 7.69629 56.0718 8.09473C55.978 8.48731 55.9311 8.92969 55.9311 9.42188L55.9311 9.77344C55.9311 10.1895 55.9868 10.5762 56.0981 10.9336C56.2153 11.2852 56.3852 11.5928 56.6079 11.8564C56.8305 12.1201 57.1001 12.3281 57.4165 12.4805C57.7329 12.627 58.0932 12.7002 58.4975 12.7002C59.0073 12.7002 59.4614 12.5977 59.8598 12.3926C60.2583 12.1875 60.604 11.8975 60.897 11.5225L62.0132 12.6035C61.8081 12.9023 61.5415 13.1895 61.2134 13.4648C60.8852 13.7344 60.4839 13.9541 60.0093 14.124C59.5405 14.2939 58.9956 14.3789 58.3745 14.3789ZM69.8527 1.36231L69.8527 14.2031L67.7345 14.2031L67.7345 3.87598L64.5968 4.93945L64.5968 3.19043L69.5978 1.36231L69.8527 1.36231Z" fill="#3A3A3C"/>
</svg>
