<svg width="65" height="13" viewBox="0 0 65 13" fill="none" xmlns="http://www.w3.org/2000/svg">
<path d="M5.71094 10.0156C5.71094 9.82813 5.66406 9.65885 5.57031 9.50781C5.47656 9.35156 5.29687 9.21094 5.03125 9.08594C4.77083 8.96094 4.38542 8.84635 3.875 8.74219C3.42708 8.64323 3.01562 8.52604 2.64062 8.39063C2.27083 8.25 1.95312 8.08073 1.6875 7.88281C1.42187 7.6849 1.21615 7.45052 1.07031 7.17969C0.924479 6.90885 0.851562 6.59635 0.851562 6.24219C0.851562 5.89844 0.927083 5.57292 1.07812 5.26563C1.22917 4.95833 1.44531 4.6875 1.72656 4.45313C2.00781 4.21875 2.34896 4.03385 2.75 3.89844C3.15625 3.76302 3.60937 3.69531 4.10937 3.69531C4.81771 3.69531 5.42448 3.8151 5.92969 4.05469C6.4401 4.28906 6.83073 4.60938 7.10156 5.01563C7.3724 5.41667 7.50781 5.86979 7.50781 6.375L5.625 6.375C5.625 6.15104 5.56771 5.94271 5.45312 5.75C5.34375 5.55208 5.17708 5.39323 4.95312 5.27344C4.72917 5.14844 4.44792 5.08594 4.10937 5.08594C3.78646 5.08594 3.51823 5.13802 3.30469 5.24219C3.09635 5.34115 2.9401 5.47135 2.83594 5.63281C2.73698 5.79427 2.6875 5.97135 2.6875 6.16406C2.6875 6.30469 2.71354 6.43229 2.76562 6.54688C2.82292 6.65625 2.91667 6.75781 3.04687 6.85156C3.17708 6.9401 3.35417 7.02344 3.57812 7.10156C3.80729 7.17969 4.09375 7.25521 4.4375 7.32813C5.08333 7.46354 5.63802 7.63802 6.10156 7.85156C6.57031 8.0599 6.92969 8.33073 7.17969 8.66406C7.42969 8.99219 7.55469 9.40885 7.55469 9.91406C7.55469 10.2891 7.47396 10.6328 7.3125 10.9453C7.15625 11.2526 6.92708 11.5208 6.625 11.75C6.32292 11.974 5.96094 12.1484 5.53906 12.2734C5.1224 12.3984 4.65365 12.4609 4.13281 12.4609C3.36719 12.4609 2.71875 12.3255 2.1875 12.0547C1.65625 11.7786 1.2526 11.4271 0.976562 11C0.705729 10.5677 0.570312 10.1198 0.570312 9.65625L2.39062 9.65625C2.41146 10.0052 2.50781 10.2839 2.67969 10.4922C2.85677 10.6953 3.07552 10.8438 3.33594 10.9375C3.60156 11.026 3.875 11.0703 4.15625 11.0703C4.49479 11.0703 4.77865 11.026 5.00781 10.9375C5.23698 10.8438 5.41146 10.7188 5.53125 10.5625C5.65104 10.401 5.71094 10.2188 5.71094 10.0156ZM14.6091 10.3125L14.6091 3.85156L16.4997 3.85156L16.4997 12.3047L14.7184 12.3047L14.6091 10.3125ZM14.8747 8.55469L15.5075 8.53906C15.5075 9.10677 15.445 9.63021 15.32 10.1094C15.195 10.5833 15.0023 10.9974 14.7419 11.3516C14.4815 11.7005 14.1481 11.974 13.7419 12.1719C13.3356 12.3646 12.8486 12.4609 12.2809 12.4609C11.8695 12.4609 11.4919 12.401 11.1481 12.2813C10.8044 12.1615 10.5075 11.9766 10.2575 11.7266C10.0127 11.4766 9.8226 11.151 9.68719 10.75C9.55177 10.349 9.48406 9.86979 9.48406 9.3125L9.48406 3.85156L11.3669 3.85156L11.3669 9.32813C11.3669 9.63542 11.4033 9.89323 11.4762 10.1016C11.5492 10.3047 11.6481 10.4688 11.7731 10.5938C11.8981 10.7188 12.044 10.8073 12.2106 10.8594C12.3773 10.9115 12.5544 10.9375 12.7419 10.9375C13.2783 10.9375 13.7002 10.8333 14.0075 10.625C14.32 10.4115 14.5414 10.125 14.6716 9.76563C14.807 9.40625 14.8747 9.0026 14.8747 8.55469ZM18.7572 0.304688L20.64 0.304688L20.64 10.5L20.4603 12.3047L18.7572 12.3047L18.7572 0.304688ZM26.1556 8L26.1556 8.16406C26.1556 8.78906 26.0853 9.36458 25.9447 9.89063C25.8093 10.4115 25.6009 10.8646 25.3197 11.25C25.0436 11.6354 24.6999 11.9349 24.2884 12.1484C23.8822 12.3568 23.4108 12.4609 22.8744 12.4609C22.3483 12.4609 21.89 12.362 21.4994 12.1641C21.1087 11.9661 20.7806 11.6849 20.515 11.3203C20.2546 10.9557 20.0436 10.5208 19.8822 10.0156C19.7207 9.51042 19.6061 8.95313 19.5384 8.34375L19.5384 7.82031C19.6061 7.20573 19.7207 6.64844 19.8822 6.14844C20.0436 5.64323 20.2546 5.20833 20.515 4.84375C20.7806 4.47396 21.1061 4.1901 21.4916 3.99219C21.8822 3.79427 22.3379 3.69531 22.8587 3.69531C23.4004 3.69531 23.877 3.79948 24.2884 4.00781C24.7051 4.21615 25.0515 4.51302 25.3275 4.89844C25.6035 5.27865 25.8093 5.73177 25.9447 6.25781C26.0853 6.78385 26.1556 7.36458 26.1556 8ZM24.2728 8.16406L24.2728 8C24.2728 7.61979 24.2416 7.26302 24.1791 6.92969C24.1166 6.59115 24.0124 6.29427 23.8666 6.03906C23.7259 5.78385 23.5332 5.58333 23.2884 5.4375C23.0489 5.28646 22.7494 5.21094 22.39 5.21094C22.0567 5.21094 21.7702 5.26823 21.5306 5.38281C21.291 5.4974 21.0905 5.65365 20.9291 5.85156C20.7676 6.04948 20.64 6.27865 20.5462 6.53906C20.4577 6.79948 20.3978 7.08073 20.3666 7.38281L20.3666 8.79688C20.4134 9.1875 20.5124 9.54688 20.6634 9.875C20.8197 10.1979 21.0384 10.4583 21.3197 10.6563C21.6009 10.849 21.9629 10.9453 22.4056 10.9453C22.7546 10.9453 23.0489 10.875 23.2884 10.7344C23.528 10.5938 23.7181 10.3984 23.8587 10.1484C24.0046 9.89323 24.1087 9.59635 24.1712 9.25781C24.239 8.91927 24.2728 8.55469 24.2728 8.16406ZM31.9444 3.85156L31.9444 5.22656L27.1787 5.22656L27.1787 3.85156L31.9444 3.85156ZM28.5537 1.78125L30.4366 1.78125L30.4366 9.96875C30.4366 10.2292 30.473 10.4297 30.5459 10.5703C30.6241 10.7057 30.7308 10.7969 30.8662 10.8438C31.0017 10.8906 31.1605 10.9141 31.3428 10.9141C31.473 10.9141 31.598 10.9063 31.7178 10.8906C31.8376 10.875 31.934 10.8594 32.0069 10.8438L32.0147 12.2813C31.8584 12.3281 31.6761 12.3698 31.4678 12.4063C31.2647 12.4427 31.0303 12.4609 30.7647 12.4609C30.3324 12.4609 29.9496 12.3854 29.6162 12.2344C29.2829 12.0781 29.0225 11.8255 28.835 11.4766C28.6475 11.1276 28.5537 10.6641 28.5537 10.0859L28.5537 1.78125ZM35.7331 3.85156L35.7331 12.3047L33.8425 12.3047L33.8425 3.85156L35.7331 3.85156ZM33.7175 1.63281C33.7175 1.34635 33.8112 1.10938 33.9987 0.921875C34.1915 0.729167 34.4571 0.632813 34.7956 0.632813C35.129 0.632813 35.392 0.729167 35.5847 0.921875C35.7774 1.10938 35.8737 1.34635 35.8737 1.63281C35.8737 1.91406 35.7774 2.14844 35.5847 2.33594C35.392 2.52344 35.129 2.61719 34.7956 2.61719C34.4571 2.61719 34.1915 2.52344 33.9987 2.33594C33.8112 2.14844 33.7175 1.91406 33.7175 1.63281ZM41.9906 3.85156L41.9906 5.22656L37.225 5.22656L37.225 3.85156L41.9906 3.85156ZM38.6 1.78125L40.4828 1.78125L40.4828 9.96875C40.4828 10.2292 40.5193 10.4297 40.5922 10.5703C40.6703 10.7057 40.7771 10.7969 40.9125 10.8438C41.0479 10.8906 41.2068 10.9141 41.3891 10.9141C41.5193 10.9141 41.6443 10.9063 41.7641 10.8906C41.8839 10.875 41.9802 10.8594 42.0531 10.8438L42.0609 12.2813C41.9047 12.3281 41.7224 12.3698 41.5141 12.4063C41.3109 12.4427 41.0766 12.4609 40.8109 12.4609C40.3786 12.4609 39.9958 12.3854 39.6625 12.2344C39.3292 12.0781 39.0687 11.8255 38.8812 11.4766C38.6937 11.1276 38.6 10.6641 38.6 10.0859L38.6 1.78125ZM45.7794 0.304688L45.7794 12.3047L43.8887 12.3047L43.8887 0.304688L45.7794 0.304688ZM51.8884 12.4609C51.2634 12.4609 50.6983 12.3594 50.1931 12.1563C49.6931 11.9479 49.266 11.6589 48.9119 11.2891C48.5629 10.9193 48.2947 10.4844 48.1072 9.98438C47.9197 9.48438 47.8259 8.94531 47.8259 8.36719L47.8259 8.05469C47.8259 7.39323 47.9223 6.79427 48.115 6.25781C48.3077 5.72135 48.5759 5.26302 48.9197 4.88281C49.2634 4.4974 49.6697 4.20313 50.1384 4C50.6072 3.79688 51.115 3.69531 51.6619 3.69531C52.266 3.69531 52.7947 3.79688 53.2478 4C53.7009 4.20313 54.0759 4.48958 54.3728 4.85938C54.6749 5.22396 54.8989 5.65885 55.0447 6.16406C55.1957 6.66927 55.2713 7.22656 55.2713 7.83594L55.2713 8.64063L48.74 8.64063L48.74 7.28906L53.4119 7.28906L53.4119 7.14063C53.4015 6.80208 53.3338 6.48438 53.2088 6.1875C53.089 5.89063 52.9041 5.65104 52.6541 5.46875C52.4041 5.28646 52.0707 5.19531 51.6541 5.19531C51.3416 5.19531 51.0629 5.26302 50.8181 5.39844C50.5785 5.52865 50.378 5.71875 50.2166 5.96875C50.0551 6.21875 49.9301 6.52083 49.8416 6.875C49.7582 7.22396 49.7166 7.61719 49.7166 8.05469L49.7166 8.36719C49.7166 8.73698 49.766 9.08073 49.865 9.39844C49.9692 9.71094 50.1202 9.98438 50.3181 10.2188C50.516 10.4531 50.7556 10.638 51.0369 10.7734C51.3181 10.9036 51.6384 10.9688 51.9978 10.9688C52.4509 10.9688 52.8546 10.8776 53.2088 10.6953C53.5629 10.513 53.8702 10.2552 54.1306 9.92188L55.1228 10.8828C54.9405 11.1484 54.7035 11.4036 54.4119 11.6484C54.1202 11.888 53.7634 12.0833 53.3416 12.2344C52.9249 12.3854 52.4405 12.4609 51.8884 12.4609ZM64.5756 10.8047L64.5756 12.3047L56.9506 12.3047L56.9506 11.0156L60.6538 6.97656C61.06 6.51823 61.3803 6.1224 61.6147 5.78906C61.8491 5.45573 62.0131 5.15625 62.1069 4.89063C62.2058 4.61979 62.2553 4.35677 62.2553 4.10156C62.2553 3.74219 62.1876 3.42708 62.0522 3.15625C61.922 2.88021 61.7293 2.66406 61.4741 2.50781C61.2189 2.34635 60.909 2.26563 60.5444 2.26563C60.1225 2.26563 59.7683 2.35677 59.4819 2.53906C59.1954 2.72135 58.9793 2.97396 58.8334 3.29688C58.6876 3.61458 58.6147 3.97917 58.6147 4.39063L56.7319 4.39063C56.7319 3.72917 56.8829 3.125 57.185 2.57813C57.4871 2.02604 57.9246 1.58854 58.4975 1.26563C59.0704 0.9375 59.7605 0.773438 60.5678 0.773438C61.3282 0.773438 61.9741 0.901042 62.5053 1.15625C63.0366 1.41146 63.4402 1.77344 63.7163 2.24219C63.9975 2.71094 64.1381 3.26563 64.1381 3.90625C64.1381 4.26042 64.0808 4.61198 63.9663 4.96094C63.8517 5.3099 63.6876 5.65885 63.4741 6.00781C63.2657 6.35156 63.0183 6.69792 62.7319 7.04688C62.4454 7.39063 62.1303 7.73958 61.7866 8.09375L59.3256 10.8047L64.5756 10.8047Z" fill="#3A3A3C"/>
</svg>
