<svg width="220" height="144" viewBox="0 0 220 144" fill="none" xmlns="http://www.w3.org/2000/svg">
<rect x="20" y="79" width="180" height="45" rx="22.5" fill="#4A4D5A"/>
<rect x="24" y="83" width="86" height="37" rx="18.5" fill="#383A44"/>
<path d="M40.5047 94.625V106H38.5438V94.625H40.5047ZM52.2856 94.625V106H50.3247L45.2231 97.8516V106H43.2622V94.625H45.2231L50.3403 102.789V94.625H52.2856ZM55.7384 94.625H57.4884L60.7775 103.398L64.0588 94.625H65.8088L61.465 106H60.0744L55.7384 94.625ZM54.9416 94.625H56.6056L56.8947 102.219V106H54.9416V94.625ZM64.9416 94.625H66.6134V106H64.6525V102.219L64.9416 94.625ZM76.7069 104.445V106H70.6678V104.445H76.7069ZM71.2225 94.625V106H69.2616V94.625H71.2225ZM75.9178 99.375V100.906H70.6678V99.375H75.9178ZM76.6678 94.625V96.1875H70.6678V94.625H76.6678ZM86.0737 104.445V106H80.0347V104.445H86.0737ZM80.5894 94.625V106H78.6284V94.625H80.5894ZM85.2847 99.375V100.906H80.0347V99.375H85.2847ZM86.0347 94.625V96.1875H80.0347V94.625H86.0347ZM92.8312 94.625V106H90.8859V94.625H92.8312ZM96.4016 94.625V96.1875H87.3469V94.625H96.4016Z" fill="#FF4E84"/>
<rect x="110" y="83" width="86" height="37" rx="18.5" fill="#4A4D5A"/>
<path d="M121.652 95.76V96.944H134.372V95.76H121.652ZM122.388 100.464V101.632H133.7V100.464H122.388ZM120.916 105.568V106.752H135.172V105.568H120.916ZM127.364 96.704V106.176H128.66V96.704H127.364ZM125.988 93.296C127.044 94.08 128.308 95.216 128.884 95.968L129.924 95.216C129.3 94.448 128.004 93.36 126.964 92.624L125.988 93.296ZM139.092 96.16H142.212V97.376H139.092V96.16ZM139.092 94.112H142.212V95.312H139.092V94.112ZM138.02 93.248V98.272H143.332V93.248H138.02ZM137.06 99.456V100.384H144.276V99.456H137.06ZM144.18 93.36V94.256H151.476V93.36H144.18ZM140.26 99.744V105.2L141.284 105.84V99.744H140.26ZM140.804 102.112V103.024H144.004V102.112H140.804ZM147.348 93.584C147.204 94.272 146.932 95.264 146.676 95.92L147.572 96.128C147.86 95.536 148.18 94.624 148.484 93.808L147.348 93.584ZM145.892 98.432H149.716V99.632H145.892V98.432ZM145.892 100.464H149.716V101.696H145.892V100.464ZM145.892 96.384H149.716V97.568H145.892V96.384ZM144.804 95.504V102.576H150.836V95.504H144.804ZM146.132 102.864C145.524 103.6 144.484 104.32 143.492 104.784C143.716 104.96 144.116 105.344 144.292 105.52C145.284 104.976 146.452 104.064 147.156 103.168L146.132 102.864ZM138.18 101.264C138.1 103.232 137.844 105.392 136.868 106.56C137.124 106.736 137.476 107.088 137.636 107.328C138.772 105.968 139.092 103.568 139.188 101.264H138.18ZM138.932 102.832L138.18 103.104C139.508 106.416 142.084 106.944 146.164 106.944H151.364C151.428 106.624 151.62 106.16 151.796 105.904C150.852 105.936 146.884 105.936 146.164 105.936C142.564 105.936 140.068 105.584 138.932 102.832ZM148.372 103.296C149.236 103.888 150.308 104.816 150.82 105.456L151.7 104.896C151.172 104.288 150.116 103.392 149.188 102.832L148.372 103.296ZM162.116 98.32V99.472H166.932V98.32H162.116ZM161.572 98.32V105.264C161.572 106.752 162.02 107.12 163.492 107.12C163.812 107.12 165.844 107.12 166.18 107.12C167.652 107.12 167.988 106.384 168.148 103.776C167.812 103.696 167.3 103.488 167.028 103.264C166.948 105.568 166.82 105.984 166.116 105.984C165.652 105.984 163.956 105.984 163.62 105.984C162.884 105.984 162.756 105.872 162.756 105.264V98.32H161.572ZM161.508 93.296V94.448H166.372V100.56H167.54V93.296H161.508ZM153.956 96.128V107.216H154.932V97.152H159.38V107.008H160.372V96.128H153.956ZM154.452 102.576V103.472H159.844V102.576H154.452ZM154.452 105.152V106.128H159.844V105.152H154.452ZM153.572 93.184V94.272H160.724V93.184H153.572ZM155.876 93.488V96.864H156.74V93.488H155.876ZM157.668 93.488V96.864H158.548V93.488H157.668ZM156.036 96.848V98.416C156.036 99.28 155.876 100.336 154.932 101.152C155.092 101.232 155.364 101.472 155.476 101.616C156.468 100.704 156.708 99.424 156.708 98.432V96.848H156.036ZM157.588 96.848V100.176C157.588 100.96 157.78 101.104 158.42 101.104C158.548 101.104 159.092 101.104 159.204 101.104C159.652 101.104 159.876 100.96 159.956 100.624C159.748 100.56 159.476 100.48 159.316 100.352C159.3 100.4 159.252 100.4 159.076 100.4C158.98 100.4 158.564 100.4 158.484 100.4C158.308 100.4 158.276 100.368 158.276 100.176V96.848H157.588ZM177.7 96.88V98H184.34V96.88H177.7ZM169.652 95.968V96.992H177.876V95.968H169.652ZM170.228 99.472V100.48H177.284V99.472H170.228ZM170.66 102.112V103.12H176.964V102.112H170.66ZM181.476 92.672V105.808C181.476 106.08 181.364 106.176 181.092 106.176C180.836 106.192 179.956 106.192 178.996 106.16C179.156 106.48 179.364 106.992 179.428 107.296C180.724 107.312 181.508 107.28 181.988 107.072C182.436 106.88 182.628 106.544 182.628 105.808V92.672H181.476ZM178.212 99.616C178.852 100.8 179.46 102.336 179.62 103.296L180.692 102.912C180.532 101.936 179.908 100.432 179.22 99.264L178.212 99.616ZM169.812 93.408C170.308 94.176 170.772 95.2 170.932 95.872L171.86 95.44C171.684 94.784 171.204 93.792 170.676 93.04L169.812 93.408ZM170.98 97.344C171.364 98.016 171.716 98.944 171.812 99.52L172.82 99.152C172.708 98.576 172.34 97.696 171.94 97.024L170.98 97.344ZM172.164 92.64V96.464H173.14V92.64H172.164ZM173.188 99.792V105.568H174.324V99.792H173.188ZM174.372 92.64V96.464H175.364V92.64H174.372ZM169.7 105.456L169.876 106.592C171.924 106.304 174.932 105.904 177.748 105.488L177.716 104.432C174.788 104.832 171.7 105.216 169.7 105.456ZM176.884 92.944C176.612 93.712 176.052 94.848 175.62 95.52L176.452 95.888C176.9 95.232 177.476 94.224 177.956 93.36L176.884 92.944ZM175.524 96.992C175.332 97.648 174.932 98.624 174.612 99.216L175.572 99.488C175.892 98.928 176.292 98.08 176.628 97.296L175.524 96.992Z" fill="#6F7387"/>
<rect x="20" y="20" width="180" height="45" rx="22.5" fill="#4A4D5A"/>
<rect x="24" y="24" width="86" height="37" rx="18.5" fill="#4A4D5A"/>
<path d="M40.5047 35.625V47H38.5438V35.625H40.5047ZM52.2856 35.625V47H50.3247L45.2231 38.8516V47H43.2622V35.625H45.2231L50.3403 43.7891V35.625H52.2856ZM55.7384 35.625H57.4884L60.7775 44.3984L64.0588 35.625H65.8088L61.465 47H60.0744L55.7384 35.625ZM54.9416 35.625H56.6056L56.8947 43.2188V47H54.9416V35.625ZM64.9416 35.625H66.6134V47H64.6525V43.2188L64.9416 35.625ZM76.7069 45.4453V47H70.6678V45.4453H76.7069ZM71.2225 35.625V47H69.2616V35.625H71.2225ZM75.9178 40.375V41.9062H70.6678V40.375H75.9178ZM76.6678 35.625V37.1875H70.6678V35.625H76.6678ZM86.0737 45.4453V47H80.0347V45.4453H86.0737ZM80.5894 35.625V47H78.6284V35.625H80.5894ZM85.2847 40.375V41.9062H80.0347V40.375H85.2847ZM86.0347 35.625V37.1875H80.0347V35.625H86.0347ZM92.8312 35.625V47H90.8859V35.625H92.8312ZM96.4016 35.625V37.1875H87.3469V35.625H96.4016Z" fill="#6F7387"/>
<rect x="110" y="24" width="86" height="37" rx="18.5" fill="#383A44"/>
<path d="M121.652 36.76V37.944H134.372V36.76H121.652ZM122.388 41.464V42.632H133.7V41.464H122.388ZM120.916 46.568V47.752H135.172V46.568H120.916ZM127.364 37.704V47.176H128.66V37.704H127.364ZM125.988 34.296C127.044 35.08 128.308 36.216 128.884 36.968L129.924 36.216C129.3 35.448 128.004 34.36 126.964 33.624L125.988 34.296ZM139.092 37.16H142.212V38.376H139.092V37.16ZM139.092 35.112H142.212V36.312H139.092V35.112ZM138.02 34.248V39.272H143.332V34.248H138.02ZM137.06 40.456V41.384H144.276V40.456H137.06ZM144.18 34.36V35.256H151.476V34.36H144.18ZM140.26 40.744V46.2L141.284 46.84V40.744H140.26ZM140.804 43.112V44.024H144.004V43.112H140.804ZM147.348 34.584C147.204 35.272 146.932 36.264 146.676 36.92L147.572 37.128C147.86 36.536 148.18 35.624 148.484 34.808L147.348 34.584ZM145.892 39.432H149.716V40.632H145.892V39.432ZM145.892 41.464H149.716V42.696H145.892V41.464ZM145.892 37.384H149.716V38.568H145.892V37.384ZM144.804 36.504V43.576H150.836V36.504H144.804ZM146.132 43.864C145.524 44.6 144.484 45.32 143.492 45.784C143.716 45.96 144.116 46.344 144.292 46.52C145.284 45.976 146.452 45.064 147.156 44.168L146.132 43.864ZM138.18 42.264C138.1 44.232 137.844 46.392 136.868 47.56C137.124 47.736 137.476 48.088 137.636 48.328C138.772 46.968 139.092 44.568 139.188 42.264H138.18ZM138.932 43.832L138.18 44.104C139.508 47.416 142.084 47.944 146.164 47.944H151.364C151.428 47.624 151.62 47.16 151.796 46.904C150.852 46.936 146.884 46.936 146.164 46.936C142.564 46.936 140.068 46.584 138.932 43.832ZM148.372 44.296C149.236 44.888 150.308 45.816 150.82 46.456L151.7 45.896C151.172 45.288 150.116 44.392 149.188 43.832L148.372 44.296ZM162.116 39.32V40.472H166.932V39.32H162.116ZM161.572 39.32V46.264C161.572 47.752 162.02 48.12 163.492 48.12C163.812 48.12 165.844 48.12 166.18 48.12C167.652 48.12 167.988 47.384 168.148 44.776C167.812 44.696 167.3 44.488 167.028 44.264C166.948 46.568 166.82 46.984 166.116 46.984C165.652 46.984 163.956 46.984 163.62 46.984C162.884 46.984 162.756 46.872 162.756 46.264V39.32H161.572ZM161.508 34.296V35.448H166.372V41.56H167.54V34.296H161.508ZM153.956 37.128V48.216H154.932V38.152H159.38V48.008H160.372V37.128H153.956ZM154.452 43.576V44.472H159.844V43.576H154.452ZM154.452 46.152V47.128H159.844V46.152H154.452ZM153.572 34.184V35.272H160.724V34.184H153.572ZM155.876 34.488V37.864H156.74V34.488H155.876ZM157.668 34.488V37.864H158.548V34.488H157.668ZM156.036 37.848V39.416C156.036 40.28 155.876 41.336 154.932 42.152C155.092 42.232 155.364 42.472 155.476 42.616C156.468 41.704 156.708 40.424 156.708 39.432V37.848H156.036ZM157.588 37.848V41.176C157.588 41.96 157.78 42.104 158.42 42.104C158.548 42.104 159.092 42.104 159.204 42.104C159.652 42.104 159.876 41.96 159.956 41.624C159.748 41.56 159.476 41.48 159.316 41.352C159.3 41.4 159.252 41.4 159.076 41.4C158.98 41.4 158.564 41.4 158.484 41.4C158.308 41.4 158.276 41.368 158.276 41.176V37.848H157.588ZM177.7 37.88V39H184.34V37.88H177.7ZM169.652 36.968V37.992H177.876V36.968H169.652ZM170.228 40.472V41.48H177.284V40.472H170.228ZM170.66 43.112V44.12H176.964V43.112H170.66ZM181.476 33.672V46.808C181.476 47.08 181.364 47.176 181.092 47.176C180.836 47.192 179.956 47.192 178.996 47.16C179.156 47.48 179.364 47.992 179.428 48.296C180.724 48.312 181.508 48.28 181.988 48.072C182.436 47.88 182.628 47.544 182.628 46.808V33.672H181.476ZM178.212 40.616C178.852 41.8 179.46 43.336 179.62 44.296L180.692 43.912C180.532 42.936 179.908 41.432 179.22 40.264L178.212 40.616ZM169.812 34.408C170.308 35.176 170.772 36.2 170.932 36.872L171.86 36.44C171.684 35.784 171.204 34.792 170.676 34.04L169.812 34.408ZM170.98 38.344C171.364 39.016 171.716 39.944 171.812 40.52L172.82 40.152C172.708 39.576 172.34 38.696 171.94 38.024L170.98 38.344ZM172.164 33.64V37.464H173.14V33.64H172.164ZM173.188 40.792V46.568H174.324V40.792H173.188ZM174.372 33.64V37.464H175.364V33.64H174.372ZM169.7 46.456L169.876 47.592C171.924 47.304 174.932 46.904 177.748 46.488L177.716 45.432C174.788 45.832 171.7 46.216 169.7 46.456ZM176.884 33.944C176.612 34.712 176.052 35.848 175.62 36.52L176.452 36.888C176.9 36.232 177.476 35.224 177.956 34.36L176.884 33.944ZM175.524 37.992C175.332 38.648 174.932 39.624 174.612 40.216L175.572 40.488C175.892 39.928 176.292 39.08 176.628 38.296L175.524 37.992Z" fill="#FF4E84"/>
<rect x="0.5" y="0.5" width="219" height="143" rx="4.5" stroke="#9747FF" stroke-dasharray="10 5"/>
</svg>
