<svg width="112" height="55" viewBox="0 0 112 55" fill="none" xmlns="http://www.w3.org/2000/svg">
<path d="M61.384 39V23.096H55.112V19.4H72.192V23.096H65.92V39H61.384ZM84.799 39V36.06L84.519 35.416V30.152C84.519 29.2187 84.2296 28.4907 83.651 27.968C83.091 27.4453 82.223 27.184 81.047 27.184C80.2443 27.184 79.451 27.3147 78.667 27.576C77.9016 27.8187 77.2483 28.1547 76.707 28.584L75.139 25.532C75.9603 24.9533 76.9496 24.5053 78.107 24.188C79.2643 23.8707 80.4403 23.712 81.635 23.712C83.931 23.712 85.7136 24.2533 86.983 25.336C88.2523 26.4187 88.887 28.108 88.887 30.404V39H84.799ZM80.207 39.224C79.031 39.224 78.023 39.028 77.183 38.636C76.343 38.2253 75.699 37.6747 75.251 36.984C74.803 36.2933 74.579 35.5187 74.579 34.66C74.579 33.764 74.7936 32.98 75.223 32.308C75.671 31.636 76.371 31.1133 77.323 30.74C78.275 30.348 79.5163 30.152 81.047 30.152H85.051V32.7H81.523C80.4963 32.7 79.787 32.868 79.395 33.204C79.0216 33.54 78.835 33.96 78.835 34.464C78.835 35.024 79.0496 35.472 79.479 35.808C79.927 36.1253 80.5336 36.284 81.299 36.284C82.027 36.284 82.6803 36.116 83.259 35.78C83.8376 35.4253 84.2576 34.912 84.519 34.24L85.191 36.256C84.8736 37.2267 84.295 37.964 83.455 38.468C82.615 38.972 81.5323 39.224 80.207 39.224ZM103.744 39.224C102.475 39.224 101.364 38.944 100.412 38.384C99.4602 37.824 98.7136 36.9747 98.1722 35.836C97.6496 34.6787 97.3882 33.2227 97.3882 31.468C97.3882 29.6947 97.6402 28.2387 98.1442 27.1C98.6482 25.9613 99.3762 25.112 100.328 24.552C101.28 23.992 102.419 23.712 103.744 23.712C105.163 23.712 106.432 24.0387 107.552 24.692C108.691 25.3267 109.587 26.2227 110.24 27.38C110.912 28.5373 111.248 29.9 111.248 31.468C111.248 33.0547 110.912 34.4267 110.24 35.584C109.587 36.7413 108.691 37.6373 107.552 38.272C106.432 38.9067 105.163 39.224 103.744 39.224ZM94.8402 44.432V23.936H99.0122V27.016L98.9282 31.496L99.2082 35.948V44.432H94.8402ZM102.988 35.64C103.716 35.64 104.36 35.472 104.92 35.136C105.499 34.8 105.956 34.324 106.292 33.708C106.647 33.0733 106.824 32.3267 106.824 31.468C106.824 30.5907 106.647 29.844 106.292 29.228C105.956 28.612 105.499 28.136 104.92 27.8C104.36 27.464 103.716 27.296 102.988 27.296C102.26 27.296 101.607 27.464 101.028 27.8C100.45 28.136 99.9922 28.612 99.6562 29.228C99.3202 29.844 99.1522 30.5907 99.1522 31.468C99.1522 32.3267 99.3202 33.0733 99.6562 33.708C99.9922 34.324 100.45 34.8 101.028 35.136C101.607 35.472 102.26 35.64 102.988 35.64Z" fill="#FC11BC"/>
<g clip-path="url(#clip0_2264_42323)">
<path d="M24.4135 15.1425C26.6226 18.9688 25.3116 23.8616 21.4853 26.0707C17.6589 28.2798 12.7662 26.9688 10.5571 23.1425C8.34792 19.3161 9.65892 14.4234 13.4853 12.2143C17.3116 10.0051 22.2043 11.3161 24.4135 15.1425Z" fill="white"/>
<path fill-rule="evenodd" clip-rule="evenodd" d="M20.3424 24.0912C23.0755 22.5133 24.0119 19.0184 22.434 16.2853C20.856 13.5522 17.3612 12.6158 14.6281 14.1938C11.895 15.7717 10.9586 19.2665 12.5365 21.9996C14.1145 24.7327 17.6093 25.6692 20.3424 24.0912ZM21.4853 26.0707C25.3116 23.8616 26.6226 18.9688 24.4135 15.1425C22.2043 11.3161 17.3116 10.0051 13.4853 12.2143C9.65892 14.4234 8.34792 19.3161 10.5571 23.1425C12.7662 26.9688 17.6589 28.2798 21.4853 26.0707Z" fill="#FC11BC"/>
<path d="M21.9695 18.2443L24.8795 23.2846L24.9674 23.2289C25.5521 22.8616 26.3714 22.3787 27.0296 22.1521C27.6258 21.9464 28.2624 21.8857 28.7516 21.8705C29.4373 21.8507 30.0374 22.0808 30.512 22.4427L30.7519 22.2745C31.3237 21.885 32.2319 21.326 33.0854 21.1945C33.9526 21.06 34.9268 21.3364 35.538 21.5501C35.778 21.6342 35.9955 21.719 36.1771 21.7947L37.2918 21.1512C37.827 20.8422 38.4189 20.6454 39.0295 20.5733C39.6401 20.5012 40.2557 20.5555 40.8368 20.7327C41.4178 20.9098 41.9514 21.2059 42.4031 21.6019C42.8547 21.9979 43.2145 22.4849 43.4591 23.0316L45.8471 28.3708C46.2776 29.3323 46.4949 30.3779 46.485 31.4394L46.4286 37.5118C46.4234 38.0829 46.265 38.6466 45.9693 39.1458C45.6737 39.645 45.2513 40.062 44.745 40.3545L32.6754 47.3229C32.1416 47.6311 31.5351 47.789 30.9241 47.7791C30.313 47.7691 29.7215 47.5916 29.2159 47.2665L24.2853 44.1005L15.067 39.1516C14.3648 38.7716 13.8347 38.1486 13.5761 37.3994C13.3175 36.6502 13.3482 35.8264 13.6624 35.0825C13.9767 34.3386 14.5529 33.7258 15.283 33.3591C16.013 32.9924 16.8467 32.897 17.6275 33.0908L22.2767 34.2567L15.2663 22.1144C14.769 21.2531 14.6452 20.2232 14.9222 19.2512C15.1991 18.2793 15.854 17.445 16.7429 16.9318C17.6318 16.4185 18.6819 16.2685 19.6621 16.5147C20.6422 16.7608 21.4723 17.383 21.9695 18.2443Z" fill="white"/>
<path d="M17.8144 18.7875C18.1954 18.5675 18.6454 18.5032 19.0655 18.6087C19.4855 18.7142 19.8413 18.9809 20.0544 19.35L26.7508 30.9486C26.8929 31.1947 27.1301 31.3724 27.4101 31.4427C27.6902 31.5131 27.9902 31.4702 28.2441 31.3236C28.4981 31.1769 28.6852 30.9386 28.7644 30.6609C28.8435 30.3832 28.8081 30.0889 28.666 29.8428L25.9521 25.1422L26.1125 25.0396C26.7068 24.6668 27.3239 24.3204 27.7043 24.1875C27.9898 24.0894 28.3702 24.0405 28.7573 24.0298C28.9498 24.0226 29.2021 24.1368 29.381 24.4467L31.5388 28.1842C31.6809 28.4303 31.9181 28.6081 32.1981 28.6784C32.4782 28.7487 32.7782 28.7058 33.0322 28.5592C33.2861 28.4126 33.4733 28.1742 33.5524 27.8965C33.6315 27.6188 33.5961 27.3245 33.4541 27.0785L31.7773 24.1742L31.9696 24.0384C32.5491 23.6445 33.0773 23.3741 33.3684 23.3298C33.6437 23.2847 34.1647 23.3822 34.7599 23.5904C35.0179 23.6789 35.2508 23.7771 35.4204 23.8499L36.8626 26.3477C37.0047 26.5938 37.2418 26.7716 37.5219 26.8419C37.8019 26.9122 38.1019 26.8694 38.3559 26.7227C38.6099 26.5761 38.797 26.3377 38.8761 26.06C38.9552 25.7823 38.9199 25.4881 38.7778 25.242L37.7064 23.3862L38.3614 23.008C38.629 22.8535 38.9251 22.755 39.2305 22.719C39.5359 22.683 39.8438 22.7102 40.1344 22.7989C40.425 22.8875 40.6919 23.0357 40.9177 23.2338C41.1435 23.432 41.3233 23.6757 41.4456 23.9492L43.8355 29.2872C44.1423 29.9734 44.2972 30.7194 44.2901 31.4768L44.2349 37.5511C44.2331 37.7415 44.1803 37.9294 44.0818 38.0958C43.9832 38.2622 43.8424 38.4012 43.6737 38.4987L31.604 45.4671C31.4263 45.5697 31.2245 45.6223 31.0211 45.6192C30.8176 45.616 30.6207 45.5571 30.4522 45.4492L25.4516 42.237L16.1567 37.2482C15.9171 37.1188 15.7362 36.9064 15.648 36.6509C15.5598 36.3954 15.5703 36.1145 15.6775 35.8608C15.7848 35.6072 15.9814 35.3983 16.2304 35.2734C16.4795 35.1486 16.7638 35.1163 17.03 35.1827L24.2278 36.9902C24.4366 37.043 24.6584 37.0331 24.865 36.9618C25.0716 36.8905 25.2537 36.7611 25.3883 36.5898C25.5229 36.4186 25.604 36.2133 25.6212 35.9998C25.6385 35.7864 25.5911 35.5745 25.4852 35.3908L17.1816 21.0086C16.9685 20.6395 16.9154 20.1981 17.0341 19.7816C17.1528 19.365 17.4335 19.0074 17.8144 18.7875ZM24.8795 23.2846L21.9695 18.2443C21.4723 17.383 20.6422 16.7608 19.6621 16.5147C18.6819 16.2685 17.6318 16.4185 16.7429 16.9318C15.854 17.445 15.1991 18.2793 14.9222 19.2512C14.6452 20.2232 14.769 21.2531 15.2663 22.1144L22.2767 34.2567L17.6265 33.0889C16.8457 32.8951 16.012 32.9905 15.282 33.3572C14.5519 33.7239 13.9757 34.3367 13.6614 35.0806C13.3472 35.8245 13.3164 36.6483 13.5751 37.3975C13.8337 38.1467 14.3638 38.7697 15.066 39.1497L24.2865 44.1023L29.217 47.2683C29.7227 47.5929 30.3132 47.7694 30.9241 47.7791C31.5351 47.789 32.1416 47.6311 32.6754 47.3229L44.745 40.3545C45.2513 40.062 45.6737 39.645 45.9693 39.1458C46.265 38.6466 46.4234 38.0829 46.4286 37.5118L46.485 31.4394C46.4949 30.3779 46.2776 29.3323 45.8471 28.3708L43.4573 23.0327C43.2126 22.486 42.8529 21.9989 42.4012 21.603C41.9495 21.207 41.416 20.9109 40.8349 20.7337C40.2539 20.5566 39.6382 20.5023 39.0276 20.5744C38.417 20.6465 37.8251 20.8433 37.2899 21.1523L36.1771 21.7947C35.9669 21.7067 35.7537 21.6251 35.538 21.5501C34.9268 21.3364 33.9526 21.06 33.0854 21.1945C32.2319 21.326 31.3237 21.885 30.7519 22.2745L30.512 22.4427C30.0161 22.0547 29.3937 21.8524 28.7516 21.8705C28.1688 21.8787 27.5882 21.9736 27.0296 22.1521C26.3694 22.3798 25.5522 22.8616 24.9694 23.2277L24.8795 23.2846Z" fill="#FC11BC"/>
</g>
<defs>
<clipPath id="clip0_2264_42323">
<rect width="40" height="40" fill="white" transform="translate(0 20) rotate(-30)"/>
</clipPath>
</defs>
</svg>
