<svg width="48" height="16" viewBox="0 0 48 16" fill="none" xmlns="http://www.w3.org/2000/svg">
<path d="M6.26953 4.53516L6.26953 6.52734L0.117187 6.52734L0.117187 4.53516L6.26953 4.53516ZM1.64062 1.92773L4.45312 1.92773L4.45312 11.918C4.45312 12.224 4.49219 12.4583 4.57031 12.6211C4.65495 12.7839 4.77865 12.8978 4.94141 12.9629C5.10417 13.0215 5.30924 13.0508 5.55664 13.0508C5.73242 13.0508 5.88867 13.0443 6.02539 13.0313C6.16862 13.0117 6.28906 12.9922 6.38672 12.9727L6.39648 15.043C6.1556 15.1211 5.89518 15.1829 5.61523 15.2285C5.33529 15.2741 5.02604 15.2969 4.6875 15.2969C4.06901 15.2969 3.52865 15.196 3.06641 14.9941C2.61068 14.7858 2.25911 14.4538 2.01172 13.998C1.76432 13.5423 1.64062 12.9434 1.64062 12.2012L1.64062 1.92773ZM11.2398 4.53516L11.2398 15.1016L8.41758 15.1016L8.41758 4.53516L11.2398 4.53516ZM8.2418 1.78125C8.2418 1.37109 8.38503 1.03255 8.67148 0.765625C8.95794 0.498698 9.34206 0.365234 9.82383 0.365234C10.2991 0.365234 10.6799 0.498698 10.9664 0.765625C11.2594 1.03255 11.4059 1.37109 11.4059 1.78125C11.4059 2.19141 11.2594 2.52995 10.9664 2.79688C10.6799 3.0638 10.2991 3.19727 9.82383 3.19727C9.34206 3.19727 8.95794 3.0638 8.67148 2.79688C8.38503 2.52995 8.2418 2.19141 8.2418 1.78125ZM19.1398 4.53516L19.1398 6.52734L12.9875 6.52734L12.9875 4.53516L19.1398 4.53516ZM14.5109 1.92773L17.3234 1.92773L17.3234 11.918C17.3234 12.224 17.3625 12.4583 17.4406 12.6211C17.5253 12.7839 17.649 12.8978 17.8117 12.9629C17.9745 13.0215 18.1796 13.0508 18.427 13.0508C18.6027 13.0508 18.759 13.0443 18.8957 13.0313C19.0389 13.0117 19.1594 12.9922 19.257 12.9727L19.2668 15.043C19.0259 15.1211 18.7655 15.1829 18.4855 15.2285C18.2056 15.2741 17.8964 15.2969 17.5578 15.2969C16.9393 15.2969 16.399 15.196 15.9367 14.9941C15.481 14.7858 15.1294 14.4538 14.882 13.998C14.6346 13.5423 14.5109 12.9434 14.5109 12.2012L14.5109 1.92773ZM24.1102 0.101563L24.1102 15.1016L21.2879 15.1016L21.2879 0.101563L24.1102 0.101563ZM31.6977 15.2969C30.8773 15.2969 30.1417 15.1667 29.4906 14.9063C28.8396 14.6393 28.2862 14.2715 27.8305 13.8027C27.3813 13.334 27.0362 12.7904 26.7953 12.1719C26.5544 11.5469 26.434 10.8828 26.434 10.1797L26.434 9.78906C26.434 8.98828 26.5479 8.25586 26.7758 7.5918C27.0036 6.92773 27.3292 6.35156 27.7523 5.86328C28.182 5.375 28.7029 5.00065 29.3148 4.74023C29.9268 4.47331 30.6169 4.33984 31.3852 4.33984C32.1339 4.33984 32.7979 4.46354 33.3773 4.71094C33.9568 4.95833 34.4418 5.3099 34.8324 5.76563C35.2296 6.22135 35.529 6.76823 35.7309 7.40625C35.9327 8.03776 36.0336 8.74089 36.0336 9.51563L36.0336 10.6875L27.6352 10.6875L27.6352 8.8125L33.2699 8.8125L33.2699 8.59766C33.2699 8.20703 33.1983 7.85872 33.0551 7.55273C32.9184 7.24023 32.71 6.99284 32.4301 6.81055C32.1501 6.62826 31.7921 6.53711 31.3559 6.53711C30.9848 6.53711 30.6658 6.61849 30.3988 6.78125C30.1319 6.94401 29.9138 7.17188 29.7445 7.46484C29.5818 7.75781 29.4581 8.10286 29.3734 8.5C29.2953 8.89063 29.2563 9.32031 29.2563 9.78906L29.2563 10.1797C29.2563 10.6029 29.3148 10.9935 29.432 11.3516C29.5557 11.7096 29.7283 12.0189 29.9496 12.2793C30.1775 12.5397 30.4509 12.7415 30.7699 12.8848C31.0954 13.028 31.4633 13.0996 31.8734 13.0996C32.3813 13.0996 32.8533 13.002 33.2895 12.8066C33.7322 12.6048 34.113 12.3021 34.432 11.8984L35.7992 13.3828C35.5779 13.7018 35.2751 14.0078 34.891 14.3008C34.5134 14.5938 34.0577 14.8346 33.5238 15.0234C32.99 15.2057 32.3813 15.2969 31.6977 15.2969ZM47.6445 12.9043L47.6445 15.1016L37.918 15.1016L37.918 13.2266L42.5176 8.29492C42.9798 7.7806 43.3444 7.32813 43.6113 6.9375C43.8783 6.54036 44.0703 6.18555 44.1875 5.87305C44.3112 5.55404 44.373 5.2513 44.373 4.96484C44.373 4.53516 44.3014 4.16732 44.1582 3.86133C44.015 3.54883 43.8034 3.30794 43.5234 3.13867C43.25 2.9694 42.9115 2.88477 42.5078 2.88477C42.0781 2.88477 41.707 2.98893 41.3945 3.19727C41.0885 3.4056 40.8542 3.69531 40.6914 4.06641C40.5352 4.4375 40.457 4.85742 40.457 5.32617L37.6348 5.32617C37.6348 4.47982 37.8366 3.70508 38.2402 3.00195C38.6439 2.29232 39.2135 1.72917 39.9492 1.3125C40.6849 0.889323 41.5573 0.677735 42.5664 0.677735C43.5625 0.677735 44.4023 0.840495 45.0859 1.16602C45.776 1.48503 46.2969 1.94727 46.6484 2.55273C47.0065 3.15169 47.1855 3.86784 47.1855 4.70117C47.1855 5.16992 47.1107 5.62891 46.9609 6.07813C46.8112 6.52083 46.5964 6.96354 46.3164 7.40625C46.043 7.84245 45.7109 8.28516 45.3203 8.73438C44.9297 9.18359 44.4967 9.64909 44.0215 10.1309L41.5508 12.9043L47.6445 12.9043Z" fill="#3A3A3C"/>
</svg>
