<svg width="63" height="22" viewBox="0 0 63 22" fill="none" xmlns="http://www.w3.org/2000/svg">
<path d="M8.77734 6.20703L8.77734 8.99609L0.164062 8.99609L0.164062 6.20703L8.77734 6.20703ZM2.29687 2.55664L6.23437 2.55664L6.23437 16.543C6.23437 16.9714 6.28906 17.2995 6.39844 17.5273C6.51693 17.7552 6.6901 17.9147 6.91797 18.0059C7.14583 18.0879 7.43294 18.1289 7.7793 18.1289C8.02539 18.1289 8.24414 18.1198 8.43555 18.1016C8.63607 18.0742 8.80469 18.0469 8.94141 18.0195L8.95508 20.918C8.61784 21.0273 8.25325 21.1139 7.86133 21.1777C7.4694 21.2415 7.03646 21.2734 6.5625 21.2734C5.69661 21.2734 4.9401 21.1322 4.29297 20.8496C3.65495 20.5579 3.16276 20.0931 2.81641 19.4551C2.47005 18.8171 2.29687 17.9785 2.29687 16.9395L2.29687 2.55664ZM15.7358 6.20703L15.7358 21L11.7846 21L11.7846 6.20703L15.7358 6.20703ZM11.5385 2.35156C11.5385 1.77734 11.739 1.30339 12.1401 0.929688C12.5411 0.55599 13.0789 0.369141 13.7534 0.369141C14.4187 0.369141 14.9519 0.55599 15.353 0.929688C15.7631 1.30339 15.9682 1.77734 15.9682 2.35156C15.9682 2.92578 15.7631 3.39974 15.353 3.77344C14.9519 4.14714 14.4187 4.33398 13.7534 4.33398C13.0789 4.33398 12.5411 4.14714 12.1401 3.77344C11.739 3.39974 11.5385 2.92578 11.5385 2.35156ZM26.7958 6.20703L26.7958 8.99609L18.1825 8.99609L18.1825 6.20703L26.7958 6.20703ZM20.3153 2.55664L24.2528 2.55664L24.2528 16.543C24.2528 16.9714 24.3075 17.2995 24.4169 17.5273C24.5354 17.7552 24.7085 17.9147 24.9364 18.0059C25.1643 18.0879 25.4514 18.1289 25.7977 18.1289C26.0438 18.1289 26.2626 18.1198 26.454 18.1016C26.6545 18.0742 26.8231 18.0469 26.9598 18.0195L26.9735 20.918C26.6363 21.0273 26.2717 21.1139 25.8798 21.1777C25.4878 21.2415 25.0549 21.2734 24.5809 21.2734C23.7151 21.2734 22.9585 21.1322 22.3114 20.8496C21.6734 20.5579 21.1812 20.0931 20.8348 19.4551C20.4885 18.8171 20.3153 17.9785 20.3153 16.9395L20.3153 2.55664ZM33.7542 2.29483e-07L33.7542 21L29.803 21L29.803 2.02621e-07L33.7542 2.29483e-07ZM44.3767 21.2734C43.2283 21.2734 42.1983 21.0911 41.2869 20.7266C40.3754 20.3529 39.6007 19.8379 38.9627 19.1816C38.3338 18.5254 37.8507 17.7643 37.5134 16.8984C37.1762 16.0234 37.0076 15.0938 37.0076 14.1094L37.0076 13.5625C37.0076 12.4414 37.1671 11.416 37.4861 10.4863C37.8051 9.55664 38.2608 8.75 38.8533 8.06641C39.4548 7.38281 40.184 6.85872 41.0408 6.49414C41.8976 6.12044 42.8637 5.93359 43.9392 5.93359C44.9874 5.93359 45.9171 6.10677 46.7283 6.45313C47.5395 6.79948 48.2185 7.29167 48.7654 7.92969C49.3214 8.56771 49.7407 9.33333 50.0232 10.2266C50.3058 11.1107 50.447 12.0951 50.447 13.1797L50.447 14.8203L38.6892 14.8203L38.6892 12.1953L46.5779 12.1953L46.5779 11.8945C46.5779 11.3477 46.4776 10.86 46.2771 10.4316C46.0857 9.99414 45.794 9.64779 45.4021 9.39258C45.0102 9.13737 44.5089 9.00977 43.8982 9.00977C43.3787 9.00977 42.9321 9.1237 42.5584 9.35156C42.1847 9.57943 41.8793 9.89844 41.6423 10.3086C41.4145 10.7188 41.2413 11.2018 41.1228 11.7578C41.0134 12.3047 40.9588 12.9063 40.9588 13.5625L40.9588 14.1094C40.9588 14.7018 41.0408 15.2487 41.2048 15.75C41.378 16.2513 41.6196 16.6842 41.9295 17.0488C42.2485 17.4134 42.6313 17.696 43.0779 17.8965C43.5336 18.097 44.0486 18.1973 44.6228 18.1973C45.3338 18.1973 45.9946 18.0605 46.6052 17.7871C47.225 17.5046 47.7582 17.0807 48.2048 16.5156L50.1189 18.5938C49.809 19.0404 49.3852 19.4688 48.8474 19.8789C48.3188 20.2891 47.6808 20.6263 46.9334 20.8906C46.186 21.1458 45.3338 21.2734 44.3767 21.2734ZM62.6828 1.05273L62.6828 21L58.7453 21L58.7453 5.5918L54.0148 7.0957L54.0148 3.99219L62.259 1.05273L62.6828 1.05273Z" fill="#3A3A3C"/>
</svg>
