<svg width="46" height="40" viewBox="0 0 46 40" fill="none" xmlns="http://www.w3.org/2000/svg">
<path d="M4.35812 26.175H0L15.5651 0.100455C15.6181 0.0129384 15.7481 0.00763416 15.8065 0.0924985L24.2707 12.4058C24.3105 12.4641 24.2946 12.541 24.2336 12.5782L21.2097 14.4823C21.1487 14.5194 21.0691 14.5035 21.0293 14.4478L16.024 7.16542C15.9709 7.08851 15.8516 7.09116 15.8038 7.17072L4.47218 26.1114C4.4483 26.1512 4.40586 26.175 4.35812 26.175Z" fill="url(#paint0_linear_2140_33771)"/>
<path d="M17.0266 39.8833C16.0876 39.8833 15.1486 39.7162 14.2626 39.3794C11.8674 38.4671 10.3183 36.5338 10.0133 34.0701C9.71884 31.6992 10.3263 29.2381 11.7215 27.1404L29.7216 0.0660012C29.7826 -0.0241673 29.9232 -0.0215151 29.9789 0.0713053L45.6076 25.9894C45.658 26.0716 45.5944 26.1777 45.4936 26.1751L41.1832 26.1247C41.1381 26.1247 41.0957 26.1008 41.0718 26.061L29.7879 7.21848C29.7402 7.13627 29.6182 7.13362 29.5651 7.21318L14.9921 29.1321C14.0743 30.5111 13.6738 32.1103 13.8648 33.6325C13.9602 34.399 14.3555 35.42 15.695 35.9292C16.764 36.3349 18.0001 36.2262 19.0001 35.6348C19.3767 35.412 19.5465 35.2688 19.8834 34.9824C20.3741 34.566 21.0425 34.0012 22.6075 32.9483C22.6659 32.9085 22.7507 32.9218 22.7905 32.9775L24.9391 35.9159C23.4775 36.8972 22.8834 37.3984 22.451 37.7644C22.0637 38.0932 21.695 38.4035 21.0372 38.7933C19.8197 39.5147 18.4245 39.8833 17.0266 39.8833Z" fill="url(#paint1_linear_2140_33771)"/>
<path fill-rule="evenodd" clip-rule="evenodd" d="M25.2521 18.1475C25.1725 18.129 25.0929 18.182 25.0876 18.2589L24.8303 21.5288L24.581 24.6847C24.573 24.7908 24.6951 24.8571 24.7852 24.7961L26.5993 23.5687L30.3741 29.2488C30.4852 29.4157 30.5965 29.5766 30.7058 29.7345C31.4995 30.8813 32.1842 31.8706 31.8648 33.866C31.7428 34.6298 31.0134 35.5367 29.6712 36.0459C28.6022 36.4517 27.3661 36.343 26.3661 35.7516L26.2494 35.6826C25.2202 35.0753 23.8913 34.0145 22.8064 32.4047C22.7613 32.3384 22.6658 32.3252 22.6075 32.3809L19.9496 34.9268C21.4473 37.2206 22.814 38.0221 24.016 38.7269C24.0828 38.7661 24.1491 38.805 24.2149 38.8438L24.329 38.9101C25.5491 39.6315 26.9444 40.0001 28.3423 40.0001C29.2786 40.0001 30.2203 39.833 31.1062 39.4936C33.5014 38.5813 35.4484 36.5923 35.7455 34.1285C36.1228 30.9764 35.0977 29.4353 33.7545 27.4157C33.719 27.3623 33.6833 27.3086 33.6473 27.2545L29.7714 21.4223L31.7932 20.0543C31.8834 19.9933 31.8596 19.8581 31.7535 19.8315L28.5598 19.0041L25.2521 18.1475Z" fill="url(#paint2_linear_2140_33771)"/>
<defs>
<linearGradient id="paint0_linear_2140_33771" x1="12.1463" y1="0.0317383" x2="12.1463" y2="26.175" gradientUnits="userSpaceOnUse">
<stop stop-color="#FF4E84"/>
<stop offset="1" stop-color="#E134EE"/>
</linearGradient>
<linearGradient id="paint1_linear_2140_33771" x1="27.783" y1="0" x2="27.783" y2="39.8833" gradientUnits="userSpaceOnUse">
<stop stop-color="#FF4E84"/>
<stop offset="1" stop-color="#E134EE"/>
</linearGradient>
<linearGradient id="paint2_linear_2140_33771" x1="28.2148" y1="18.1438" x2="28.2148" y2="24.8194" gradientUnits="userSpaceOnUse">
<stop stop-color="#FF4E84"/>
<stop offset="1" stop-color="#E134EE"/>
</linearGradient>
</defs>
</svg>
