<svg width="415" height="538" viewBox="0 0 415 538" fill="none" xmlns="http://www.w3.org/2000/svg">
<rect width="375" height="82" transform="translate(20 20)" fill="#383A44"/>
<rect x="141" y="89" width="134" height="5" rx="2.5" fill="white"/>
<path d="M354.558 56.989V64.72H355.188V57.592H359.175V64.648H359.823V56.989H354.558ZM355.557 58.897V59.428H358.869V58.897H355.557ZM354.9 63.577V64.18H359.535V63.577H354.9ZM356.925 57.88V60.733H357.474V57.88H356.925ZM356.457 60.922H357.978V62.317H356.457V60.922ZM355.935 60.418V62.83H358.518V60.418H355.935ZM353.622 56.485C353.181 57.853 352.443 59.212 351.633 60.094C351.75 60.256 351.939 60.625 351.993 60.787C352.893 59.752 353.73 58.204 354.243 56.665L353.622 56.485ZM352.875 58.69V64.738H353.514V58.06L353.505 58.051L352.875 58.69ZM364.543 56.719C364.48 57.916 364.48 62.245 360.808 64.117C361.015 64.27 361.24 64.477 361.357 64.648C365.083 62.623 365.218 58.132 365.29 56.719H364.543ZM365.263 56.899L364.615 56.962C364.678 57.79 364.93 62.821 368.746 64.648C368.854 64.459 369.061 64.234 369.259 64.081C365.551 62.38 365.29 57.601 365.263 56.899Z" fill="#6F7387"/>
<path d="M48.5228 60.643V61.192H53.4728V60.643H48.5228ZM48.5228 62.119V62.659H53.4728V62.119H48.5228ZM48.5228 63.604V64.207H53.4998V63.604H48.5228ZM46.9658 57.691V58.321H55.0208V57.691H46.9658ZM47.9918 59.158V64.72H48.6668V59.752H53.2838V64.72H53.9768V59.158H47.9918ZM50.6558 58.015C50.5838 58.438 50.4308 59.05 50.2778 59.455L50.9348 59.554C51.0968 59.167 51.3128 58.6 51.4838 58.069L50.6558 58.015ZM52.7978 56.431C52.5908 56.836 52.2218 57.403 51.9158 57.772L52.5008 57.961C52.8248 57.619 53.2208 57.115 53.5448 56.629L52.7978 56.431ZM48.5318 56.674C48.8468 57.016 49.2068 57.493 49.3598 57.808L49.9898 57.484C49.8098 57.178 49.4588 56.728 49.1258 56.413L48.5318 56.674ZM57.7973 60.229H62.3423V61.057H57.7973V60.229ZM57.7973 61.579H62.3423V62.407H57.7973V61.579ZM57.7973 58.897H62.3423V59.707H57.7973V58.897ZM57.0953 58.357V62.947H63.0623V58.357H57.0953ZM60.6773 63.541C61.7303 63.901 62.8013 64.378 63.4403 64.729L64.0703 64.27C63.3683 63.919 62.2163 63.451 61.1543 63.1L60.6773 63.541ZM56.2403 56.908V57.529H63.7553V56.908H56.2403ZM59.6693 57.169C59.6153 57.583 59.4803 58.186 59.3543 58.582L59.9933 58.699C60.1373 58.33 60.3083 57.781 60.4613 57.268L59.6693 57.169ZM58.7423 63.055C58.1213 63.469 56.8883 63.937 55.9163 64.198C56.0693 64.342 56.2763 64.576 56.3843 64.72C57.3473 64.45 58.5713 63.973 59.3543 63.496L58.7423 63.055Z" fill="white"/>
<path d="M122.894 62.002V62.632H131.084V62.002H122.894ZM126.224 58.024V58.501H127.772V58.024H126.224ZM128.762 56.899V57.466H130.22V56.899H128.762ZM128.825 58.618V59.176H130.148V58.618H128.825ZM128.807 60.301V60.859H130.121V60.301H128.807ZM123.839 58.618V59.176H125.171V58.618H123.839ZM123.884 60.301V60.859H125.162V60.301H123.884ZM125.441 56.899V62.272H125.954V57.43H128.033V62.272H128.564V56.899H125.441ZM126.656 59.527H127.313V60.733H126.656V59.527ZM126.305 59.086V61.174H127.673V59.086H126.305ZM123.56 56.926L123.722 62.263H124.307L124.154 57.205C124.262 57.187 124.316 57.151 124.325 57.097L123.56 56.926ZM129.86 56.899C129.869 58.6 129.788 60.985 129.689 62.335H130.274C130.373 61.012 130.445 58.636 130.463 56.899H129.86ZM125.09 56.494C124.766 56.719 124.217 57.007 123.749 57.205C123.821 57.34 123.911 57.547 123.947 57.682C124.46 57.502 125.072 57.259 125.567 56.998L125.09 56.494ZM127.808 63.226C128.78 63.703 129.806 64.306 130.418 64.738L131.048 64.27C130.391 63.838 129.293 63.235 128.294 62.776L127.808 63.226ZM125.495 62.767C124.937 63.262 123.839 63.883 122.957 64.252C123.119 64.378 123.353 64.594 123.479 64.729C124.334 64.36 125.432 63.739 126.134 63.181L125.495 62.767ZM135.03 56.809V57.394H139.314V56.809H135.03ZM137.505 58.24V58.798H139.647V58.24H137.505ZM135.822 58.465V58.996H137.379V58.465H135.822ZM135.822 60.112V60.661H137.379V60.112H135.822ZM137.118 57.043V63.658H137.676V57.043H137.118ZM135.534 57.007V62.371L136.083 62.263V57.007H135.534ZM134.841 62.344L134.967 62.911C135.651 62.749 136.533 62.533 137.388 62.326L137.325 61.804C136.398 62.02 135.471 62.218 134.841 62.344ZM139.485 58.24V58.375C139.305 60.598 138.729 62.173 137.829 63.001C137.955 63.091 138.144 63.334 138.225 63.469C139.197 62.569 139.836 60.85 140.061 58.33L139.71 58.231L139.602 58.24H139.485ZM138.36 59.059L137.883 59.167C138.207 61.048 138.819 62.713 139.863 63.541C139.953 63.397 140.133 63.199 140.268 63.091C139.269 62.38 138.648 60.796 138.36 59.059ZM132.186 57.511V58.105H135.147V57.511H132.186ZM131.961 59.167V59.779H135.318V59.167H131.961ZM133.833 60.913V61.525H135.255V60.913H133.833ZM133.473 56.44V59.545H134.094V56.44H133.473ZM133.608 59.581V63.685H134.211V59.581H133.608ZM132.879 61.57L132.384 61.741C133.005 64.009 134.121 64.486 136.551 64.486H139.908C139.953 64.288 140.079 63.982 140.187 63.82C139.647 63.847 136.965 63.838 136.551 63.838C134.454 63.838 133.392 63.46 132.879 61.57ZM132.357 60.472C132.393 61.687 132.33 63.217 131.718 64.315C131.853 64.378 132.069 64.567 132.168 64.702C132.87 63.496 132.942 61.849 132.924 60.499L132.357 60.472Z" fill="#6F7387"/>
<path d="M199.11 62.326V62.839H203.214V62.326H199.11ZM198.867 57.988V58.51H203.358V57.988H198.867ZM200.82 57.169V63.793H201.441V57.169H200.82ZM198.858 63.811L198.957 64.396C200.1 64.279 201.729 64.09 203.259 63.91L203.25 63.379C201.639 63.55 199.956 63.712 198.858 63.811ZM199.695 60.643H202.611V61.309H199.695V60.643ZM199.695 59.545H202.611V60.193H199.695V59.545ZM199.128 59.077V61.777H203.187V59.077H199.128ZM202.863 56.53C201.936 56.746 200.298 56.908 198.957 56.98C199.029 57.115 199.092 57.34 199.119 57.484C200.469 57.439 202.143 57.286 203.205 57.052L202.863 56.53ZM203.295 58.546V59.176H206.544V58.546H203.295ZM206.283 58.546V58.708C206.184 62.353 206.085 63.649 205.86 63.928C205.779 64.045 205.689 64.072 205.545 64.072C205.365 64.072 204.969 64.063 204.528 64.027C204.636 64.207 204.708 64.486 204.726 64.675C205.14 64.702 205.572 64.702 205.824 64.675C206.094 64.648 206.274 64.567 206.436 64.333C206.733 63.946 206.823 62.686 206.922 58.888C206.922 58.798 206.931 58.546 206.931 58.546H206.283ZM204.384 56.557C204.375 59.959 204.42 62.812 202.359 64.288C202.521 64.396 202.755 64.612 202.863 64.774C205.014 63.163 205.023 60.139 205.032 56.557H204.384ZM210.247 62.722V63.829C210.247 64.468 210.481 64.639 211.426 64.639C211.615 64.639 213.01 64.639 213.217 64.639C213.937 64.639 214.135 64.423 214.216 63.478C214.036 63.442 213.775 63.352 213.631 63.253C213.595 63.973 213.532 64.072 213.145 64.072C212.848 64.072 211.696 64.072 211.471 64.072C210.994 64.072 210.904 64.036 210.904 63.82V62.722H210.247ZM211.021 62.506C211.552 62.74 212.173 63.136 212.479 63.451L212.902 63.028C212.596 62.704 211.966 62.335 211.435 62.119L211.021 62.506ZM214.009 62.902C214.648 63.361 215.314 64.045 215.593 64.549L216.169 64.198C215.863 63.685 215.179 63.028 214.531 62.578L214.009 62.902ZM209.122 62.677C208.915 63.271 208.483 63.865 207.862 64.207L208.393 64.576C209.059 64.189 209.446 63.541 209.698 62.884L209.122 62.677ZM208.51 58.771V62.308H209.113V59.266H211.291V58.771H208.51ZM212.425 56.521V58.402C212.425 59.059 212.632 59.239 213.487 59.239C213.667 59.239 214.855 59.239 215.035 59.239C215.701 59.239 215.881 59.005 215.953 58.114C215.782 58.078 215.53 57.997 215.395 57.898C215.359 58.573 215.296 58.672 214.981 58.672C214.729 58.672 213.721 58.672 213.532 58.672C213.118 58.672 213.046 58.636 213.046 58.393V56.521H212.425ZM212.425 59.446V61.471C212.425 62.137 212.632 62.317 213.487 62.317C213.667 62.317 214.882 62.317 215.071 62.317C215.737 62.317 215.926 62.083 215.998 61.174C215.827 61.147 215.575 61.057 215.431 60.949C215.404 61.651 215.341 61.75 215.017 61.75C214.756 61.75 213.739 61.75 213.541 61.75C213.118 61.75 213.046 61.705 213.046 61.471V59.446H212.425ZM209.428 56.395C209.221 56.863 208.843 57.52 208.546 57.943L209.023 58.123C209.347 57.736 209.752 57.124 210.094 56.593L209.428 56.395ZM210.499 57.124C210.976 57.556 211.489 58.168 211.714 58.591L212.227 58.285C211.993 57.862 211.471 57.268 210.976 56.854L210.499 57.124ZM214.999 56.746C214.486 57.034 213.55 57.349 212.722 57.556C212.794 57.682 212.875 57.88 212.902 57.997C213.784 57.799 214.801 57.502 215.512 57.16L214.999 56.746ZM215.098 59.716C214.558 60.022 213.577 60.337 212.722 60.544C212.794 60.67 212.875 60.868 212.902 60.994C213.82 60.787 214.873 60.481 215.602 60.139L215.098 59.716ZM211.075 58.771V61.651C211.075 61.741 211.039 61.768 210.931 61.768C210.832 61.777 210.499 61.777 210.13 61.768C210.202 61.912 210.292 62.11 210.328 62.272C210.841 62.272 211.192 62.263 211.408 62.173C211.624 62.083 211.687 61.948 211.687 61.651V58.771H211.075ZM207.97 57.754L208.006 58.312C208.951 58.276 210.292 58.222 211.597 58.159L211.606 57.655C210.247 57.691 208.888 57.736 207.97 57.754ZM208.852 59.752V60.184H211.3V59.752H208.852ZM208.852 60.688V61.12H211.3V60.688H208.852Z" fill="#6F7387"/>
<path d="M274.903 56.836V57.439H278.017V56.836H274.903ZM275.641 58.726V59.293H277.261V58.726H275.641ZM275.641 60.58V61.156H277.261V60.58H275.641ZM275.362 57.142V62.902H275.929V57.142H275.362ZM276.937 57.133V64.729H277.522V57.133H276.937ZM274.804 62.803L274.93 63.433C275.614 63.289 276.46 63.1 277.288 62.911L277.243 62.326C276.334 62.515 275.434 62.695 274.804 62.803ZM277.72 62.2L277.945 62.776C278.503 62.587 279.178 62.353 279.844 62.119L279.781 61.633C279.007 61.858 278.26 62.065 277.72 62.2ZM278.296 57.286V62.191H278.845V57.502L278.296 57.286ZM279.637 58.042V60.769C279.637 62.128 279.466 63.388 277.999 64.315C278.134 64.405 278.314 64.612 278.395 64.729C279.988 63.721 280.195 62.308 280.195 60.778V58.042H279.637ZM282.256 57.079V62.209C282.256 62.29 282.229 62.317 282.157 62.317C282.094 62.317 281.878 62.317 281.635 62.308C281.716 62.461 281.797 62.713 281.815 62.866C282.184 62.866 282.427 62.848 282.607 62.749C282.778 62.65 282.823 62.479 282.823 62.218V57.079H282.256ZM279.961 56.458C279.565 56.791 278.89 57.25 278.404 57.502L278.8 57.871C279.295 57.619 279.943 57.232 280.429 56.854L279.961 56.458ZM280.834 57.079V64.72H281.392V57.646H282.58V57.079H280.834ZM288.38 60.202L287.723 60.346C288.344 62.632 289.541 64.117 291.728 64.738C291.836 64.549 292.034 64.261 292.196 64.108C290.09 63.595 288.902 62.218 288.38 60.202ZM284.321 59.941V60.625H291.728V59.941H284.321ZM284.042 57.142V57.826H291.962V57.142H284.042ZM287.588 57.331V59.428C287.588 61.075 287.237 63.01 283.871 64.153C284.015 64.288 284.213 64.576 284.285 64.747C287.894 63.496 288.299 61.327 288.299 59.428V57.331H287.588Z" fill="#6F7387"/>
<g clip-path="url(#clip0_22_1668)">
<path d="M53.7502 45.4998C55.8249 45.503 57.8462 44.8417 59.5178 43.6128H59.5163C59.5613 43.6728 59.6093 43.7298 59.6633 43.7853L65.4384 49.5602C65.7197 49.8417 66.1012 49.9999 66.4991 50C66.8971 50.0001 67.2787 49.8422 67.5602 49.561C67.8417 49.2797 67.9999 48.8981 68 48.5002C68.0001 48.1023 67.8422 47.7207 67.5609 47.4392L61.7858 41.6643C61.7322 41.61 61.6745 41.5599 61.6133 41.5143C62.842 39.8437 63.5033 37.8236 63.5004 35.7499C63.4996 33.1643 62.4721 30.6848 60.6437 28.8566C58.8154 27.0283 56.3358 26.0008 53.7502 26C51.1643 26 48.6843 27.0272 46.8558 28.8557C45.0272 30.6841 44 33.164 44 35.7499C44 38.3357 45.0272 40.8156 46.8558 42.6441C48.6843 44.4725 51.1643 45.4998 53.7502 45.4998ZM53.7502 32.7229C56.2462 30.2134 62.4878 34.6039 53.7502 40.2498C45.0125 34.6039 51.2541 30.2149 53.7502 32.7229Z" fill="white"/>
</g>
<path d="M363.685 30.5272C362.749 29.5423 361.442 29 360 29C358.55 29 357.239 29.5391 356.308 30.5178C355.366 31.5073 354.908 32.8522 355.016 34.3043C355.229 37.1693 357.465 39.4999 360 39.4999C362.535 39.4999 364.767 37.1698 364.984 34.3053C365.093 32.8662 364.632 31.5242 363.685 30.5272ZM368.461 49.9999H351.539C351.317 50.0027 351.098 49.9573 350.897 49.8671C350.695 49.7768 350.517 49.644 350.375 49.4782C350.063 49.1139 349.937 48.6166 350.03 48.1136C350.436 45.919 351.702 44.0754 353.692 42.7812C355.461 41.6323 357.701 40.9999 360 40.9999C362.299 40.9999 364.539 41.6327 366.308 42.7812C368.298 44.0749 369.564 45.9185 369.97 48.1132C370.063 48.6161 369.937 49.1135 369.625 49.4777C369.483 49.6436 369.305 49.7765 369.103 49.8669C368.902 49.9572 368.683 50.0026 368.461 49.9999Z" fill="#6F7387"/>
<path d="M291.304 30H275.696C274.716 30.001 273.777 30.366 273.084 31.015C272.391 31.6639 272.001 32.5438 272 33.4615V42.6922C272.001 43.6099 272.391 44.4898 273.084 45.1387C273.777 45.7876 274.716 46.1527 275.696 46.1537H276.929V49.2306C276.929 49.3768 276.973 49.5201 277.057 49.6435C277.141 49.7669 277.26 49.8654 277.402 49.9274C277.543 49.9894 277.701 50.0124 277.855 49.9936C278.01 49.9749 278.156 49.9151 278.276 49.8214L282.973 46.1537H291.304C292.284 46.1527 293.223 45.7876 293.916 45.1387C294.609 44.4898 294.999 43.6099 295 42.6922V33.4615C294.999 32.5438 294.609 31.6639 293.916 31.015C293.223 30.366 292.284 30.001 291.304 30ZM278.571 39.6153C278.247 39.6153 277.929 39.5251 277.659 39.356C277.389 39.187 277.178 38.9467 277.054 38.6656C276.929 38.3845 276.897 38.0751 276.96 37.7767C277.024 37.4783 277.18 37.2041 277.41 36.989C277.64 36.7738 277.932 36.6273 278.251 36.568C278.57 36.5086 278.9 36.5391 279.2 36.6555C279.5 36.7719 279.757 36.9691 279.937 37.2221C280.118 37.4751 280.214 37.7726 280.214 38.0768C280.214 38.4849 280.041 38.8762 279.733 39.1647C279.425 39.4532 279.007 39.6153 278.571 39.6153ZM283.5 39.6153C283.175 39.6153 282.857 39.5251 282.587 39.356C282.317 39.187 282.107 38.9467 281.982 38.6656C281.858 38.3845 281.825 38.0751 281.889 37.7767C281.952 37.4783 282.109 37.2041 282.338 36.989C282.568 36.7738 282.861 36.6273 283.179 36.568C283.498 36.5086 283.829 36.5391 284.129 36.6555C284.429 36.7719 284.685 36.9691 284.866 37.2221C285.047 37.4751 285.143 37.7726 285.143 38.0768C285.143 38.4849 284.97 38.8762 284.662 39.1647C284.354 39.4532 283.936 39.6153 283.5 39.6153ZM288.429 39.6153C288.104 39.6153 287.786 39.5251 287.516 39.356C287.246 39.187 287.035 38.9467 286.911 38.6656C286.786 38.3845 286.754 38.0751 286.817 37.7767C286.881 37.4783 287.037 37.2041 287.267 36.989C287.497 36.7738 287.789 36.6273 288.108 36.568C288.427 36.5086 288.757 36.5391 289.057 36.6555C289.357 36.7719 289.614 36.9691 289.795 37.2221C289.975 37.4751 290.071 37.7726 290.071 38.0768C290.071 38.4849 289.898 38.8762 289.59 39.1647C289.282 39.4532 288.864 39.6153 288.429 39.6153Z" fill="#6F7387"/>
<path d="M125.25 29C124.388 29 123.561 29.3424 122.952 29.9519C122.342 30.5614 122 31.388 122 32.25V38.257C122.72 37.6614 123.581 37.26 124.5 37.091V34.75C124.5 33.888 124.842 33.0614 125.452 32.4519C126.061 31.8424 126.888 31.5 127.75 31.5H139V31.25C139 30.9545 138.942 30.6619 138.829 30.389C138.716 30.116 138.55 29.8679 138.341 29.659C138.132 29.4501 137.884 29.2843 137.611 29.1713C137.338 29.0582 137.045 29 136.75 29H125.25ZM139.75 46.5H131.975L130.425 44.95C130.842 44.1114 131.038 43.1801 130.995 42.2445C130.951 41.3088 130.67 40.3998 130.176 39.6035C129.683 38.8073 128.995 38.1502 128.176 37.6946C127.358 37.2389 126.437 36.9999 125.5 37V34.75C125.5 34.1533 125.737 33.581 126.159 33.159C126.581 32.7371 127.153 32.5 127.75 32.5H139.75C140.347 32.5 140.919 32.7371 141.341 33.159C141.763 33.581 142 34.1533 142 34.75V44.25C142 44.8467 141.763 45.419 141.341 45.841C140.919 46.2629 140.347 46.5 139.75 46.5ZM128.107 46.168C127.187 46.8218 126.056 47.1063 124.936 46.9651C123.817 46.8238 122.791 46.2672 122.063 45.4054C121.334 44.5436 120.956 43.4396 121.003 42.3123C121.051 41.1849 121.52 40.1164 122.317 39.3185C123.115 38.5206 124.184 38.0516 125.311 38.0044C126.439 37.9572 127.543 38.3353 128.404 39.0637C129.266 39.7921 129.823 40.8177 129.964 41.9372C130.105 43.0567 129.821 44.1884 129.167 45.108L131.78 47.72C131.854 47.7887 131.913 47.8715 131.954 47.9635C131.995 48.0555 132.017 48.1548 132.019 48.2555C132.02 48.3562 132.002 48.4562 131.964 48.5496C131.926 48.643 131.87 48.7278 131.799 48.799C131.728 48.8703 131.643 48.9264 131.55 48.9641C131.456 49.0018 131.356 49.0204 131.255 49.0186C131.155 49.0168 131.055 48.9948 130.963 48.9538C130.871 48.9128 130.789 48.8537 130.72 48.78L128.107 46.168ZM122.5 42.5C122.5 42.894 122.578 43.2841 122.728 43.6481C122.879 44.012 123.1 44.3427 123.379 44.6213C123.657 44.8999 123.988 45.1209 124.352 45.2716C124.716 45.4224 125.106 45.5 125.5 45.5C125.894 45.5 126.284 45.4224 126.648 45.2716C127.012 45.1209 127.343 44.8999 127.621 44.6213C127.9 44.3427 128.121 44.012 128.272 43.6481C128.422 43.2841 128.5 42.894 128.5 42.5C128.5 41.7044 128.184 40.9413 127.621 40.3787C127.059 39.8161 126.296 39.5 125.5 39.5C124.704 39.5 123.941 39.8161 123.379 40.3787C122.816 40.9413 122.5 41.7044 122.5 42.5Z" fill="#6F7387"/>
<path d="M196 32.5625V44.4375C196 45.3823 196.395 46.2885 197.099 46.9566C197.802 47.6247 198.756 48 199.751 48H216.249C217.244 48 218.198 47.6247 218.901 46.9566C219.605 46.2885 220 45.3823 220 44.4375V32.5625C220 31.6177 219.605 30.7115 218.901 30.0434C218.198 29.3753 217.244 29 216.249 29H199.752C198.757 29 197.803 29.3753 197.1 30.0434C196.396 30.7115 196.001 31.6177 196.001 32.5625H196ZM210.998 36.8375C210.998 36.6485 211.078 36.4673 211.218 36.3337C211.359 36.2001 211.55 36.125 211.749 36.125H215.249C215.448 36.125 215.639 36.2001 215.78 36.3337C215.92 36.4673 215.999 36.6485 215.999 36.8375C215.999 37.0265 215.92 37.2077 215.78 37.3413C215.639 37.4749 215.448 37.55 215.249 37.55H211.749C211.55 37.55 211.359 37.4749 211.218 37.3413C211.078 37.2077 210.998 37.0265 210.998 36.8375ZM211.749 39.45H215.249C215.448 39.45 215.639 39.5251 215.78 39.6587C215.92 39.7923 215.999 39.9735 215.999 40.1625C215.999 40.3515 215.92 40.5327 215.78 40.6663C215.639 40.7999 215.448 40.875 215.249 40.875H211.749C211.55 40.875 211.359 40.7999 211.218 40.6663C211.078 40.5327 210.998 40.3515 210.998 40.1625C210.998 39.9735 211.078 39.7923 211.218 39.6587C211.359 39.5251 211.55 39.45 211.749 39.45ZM208.998 36.6C208.998 36.9779 208.84 37.3404 208.559 37.6076C208.277 37.8749 207.896 38.025 207.498 38.025C207.1 38.025 206.718 37.8749 206.437 37.6076C206.156 37.3404 205.998 36.9779 205.998 36.6C205.998 36.2221 206.156 35.8596 206.437 35.5924C206.718 35.3251 207.1 35.175 207.498 35.175C207.896 35.175 208.277 35.3251 208.559 35.5924C208.84 35.8596 208.998 36.2221 208.998 36.6ZM200.997 38.975H204.497C204.763 38.975 205.017 39.0751 205.205 39.2532C205.392 39.4314 205.498 39.673 205.498 39.925V40.875C205.498 40.875 205.498 42.775 202.747 42.775C199.997 42.775 199.997 40.875 199.997 40.875V39.925C199.997 39.673 200.102 39.4314 200.29 39.2532C200.477 39.0751 200.732 38.975 200.997 38.975ZM204.497 36.3625C204.497 36.8034 204.313 37.2263 203.985 37.5381C203.657 37.8498 203.211 38.025 202.747 38.025C202.283 38.025 201.838 37.8498 201.509 37.5381C201.181 37.2263 200.997 36.8034 200.997 36.3625C200.997 35.9216 201.181 35.4987 201.509 35.1869C201.838 34.8752 202.283 34.7 202.747 34.7C203.211 34.7 203.657 34.8752 203.985 35.1869C204.313 35.4987 204.497 35.9216 204.497 36.3625ZM207.498 41.825H206.283C206.389 41.5769 206.458 41.316 206.488 41.0498C206.493 41.0024 206.496 40.9549 206.498 40.9073V39.925C206.498 39.5792 206.4 39.2543 206.23 38.975H208.498C208.763 38.975 209.018 39.0751 209.205 39.2532C209.393 39.4314 209.498 39.673 209.498 39.925C209.498 40.4289 209.288 40.9122 208.912 41.2685C208.537 41.6248 208.028 41.825 207.498 41.825Z" fill="#6F7387"/>
<rect width="375" height="82" transform="translate(20 120)" fill="#383A44"/>
<rect width="375" height="82" transform="translate(20 120)" fill="#383A44"/>
<rect x="141" y="189" width="134" height="5" rx="2.5" fill="white"/>
<path d="M354.558 156.989V164.72H355.188V157.592H359.175V164.648H359.823V156.989H354.558ZM355.557 158.897V159.428H358.869V158.897H355.557ZM354.9 163.577V164.18H359.535V163.577H354.9ZM356.925 157.88V160.733H357.474V157.88H356.925ZM356.457 160.922H357.978V162.317H356.457V160.922ZM355.935 160.418V162.83H358.518V160.418H355.935ZM353.622 156.485C353.181 157.853 352.443 159.212 351.633 160.094C351.75 160.256 351.939 160.625 351.993 160.787C352.893 159.752 353.73 158.204 354.243 156.665L353.622 156.485ZM352.875 158.69V164.738H353.514V158.06L353.505 158.051L352.875 158.69ZM364.543 156.719C364.48 157.916 364.48 162.245 360.808 164.117C361.015 164.27 361.24 164.477 361.357 164.648C365.083 162.623 365.218 158.132 365.29 156.719H364.543ZM365.263 156.899L364.615 156.962C364.678 157.79 364.93 162.821 368.746 164.648C368.854 164.459 369.061 164.234 369.259 164.081C365.551 162.38 365.29 157.601 365.263 156.899Z" fill="#6F7387"/>
<path d="M48.5228 160.643V161.192H53.4728V160.643H48.5228ZM48.5228 162.119V162.659H53.4728V162.119H48.5228ZM48.5228 163.604V164.207H53.4998V163.604H48.5228ZM46.9658 157.691V158.321H55.0208V157.691H46.9658ZM47.9918 159.158V164.72H48.6668V159.752H53.2838V164.72H53.9768V159.158H47.9918ZM50.6558 158.015C50.5838 158.438 50.4308 159.05 50.2778 159.455L50.9348 159.554C51.0968 159.167 51.3128 158.6 51.4838 158.069L50.6558 158.015ZM52.7978 156.431C52.5908 156.836 52.2218 157.403 51.9158 157.772L52.5008 157.961C52.8248 157.619 53.2208 157.115 53.5448 156.629L52.7978 156.431ZM48.5318 156.674C48.8468 157.016 49.2068 157.493 49.3598 157.808L49.9898 157.484C49.8098 157.178 49.4588 156.728 49.1258 156.413L48.5318 156.674ZM57.7973 160.229H62.3423V161.057H57.7973V160.229ZM57.7973 161.579H62.3423V162.407H57.7973V161.579ZM57.7973 158.897H62.3423V159.707H57.7973V158.897ZM57.0953 158.357V162.947H63.0623V158.357H57.0953ZM60.6773 163.541C61.7303 163.901 62.8013 164.378 63.4403 164.729L64.0703 164.27C63.3683 163.919 62.2163 163.451 61.1543 163.1L60.6773 163.541ZM56.2403 156.908V157.529H63.7553V156.908H56.2403ZM59.6693 157.169C59.6153 157.583 59.4803 158.186 59.3543 158.582L59.9933 158.699C60.1373 158.33 60.3083 157.781 60.4613 157.268L59.6693 157.169ZM58.7423 163.055C58.1213 163.469 56.8883 163.937 55.9163 164.198C56.0693 164.342 56.2763 164.576 56.3843 164.72C57.3473 164.45 58.5713 163.973 59.3543 163.496L58.7423 163.055Z" fill="#A8ABBD"/>
<path d="M122.894 162.002V162.632H131.084V162.002H122.894ZM126.224 158.024V158.501H127.772V158.024H126.224ZM128.762 156.899V157.466H130.22V156.899H128.762ZM128.825 158.618V159.176H130.148V158.618H128.825ZM128.807 160.301V160.859H130.121V160.301H128.807ZM123.839 158.618V159.176H125.171V158.618H123.839ZM123.884 160.301V160.859H125.162V160.301H123.884ZM125.441 156.899V162.272H125.954V157.43H128.033V162.272H128.564V156.899H125.441ZM126.656 159.527H127.313V160.733H126.656V159.527ZM126.305 159.086V161.174H127.673V159.086H126.305ZM123.56 156.926L123.722 162.263H124.307L124.154 157.205C124.262 157.187 124.316 157.151 124.325 157.097L123.56 156.926ZM129.86 156.899C129.869 158.6 129.788 160.985 129.689 162.335H130.274C130.373 161.012 130.445 158.636 130.463 156.899H129.86ZM125.09 156.494C124.766 156.719 124.217 157.007 123.749 157.205C123.821 157.34 123.911 157.547 123.947 157.682C124.46 157.502 125.072 157.259 125.567 156.998L125.09 156.494ZM127.808 163.226C128.78 163.703 129.806 164.306 130.418 164.738L131.048 164.27C130.391 163.838 129.293 163.235 128.294 162.776L127.808 163.226ZM125.495 162.767C124.937 163.262 123.839 163.883 122.957 164.252C123.119 164.378 123.353 164.594 123.479 164.729C124.334 164.36 125.432 163.739 126.134 163.181L125.495 162.767ZM135.03 156.809V157.394H139.314V156.809H135.03ZM137.505 158.24V158.798H139.647V158.24H137.505ZM135.822 158.465V158.996H137.379V158.465H135.822ZM135.822 160.112V160.661H137.379V160.112H135.822ZM137.118 157.043V163.658H137.676V157.043H137.118ZM135.534 157.007V162.371L136.083 162.263V157.007H135.534ZM134.841 162.344L134.967 162.911C135.651 162.749 136.533 162.533 137.388 162.326L137.325 161.804C136.398 162.02 135.471 162.218 134.841 162.344ZM139.485 158.24V158.375C139.305 160.598 138.729 162.173 137.829 163.001C137.955 163.091 138.144 163.334 138.225 163.469C139.197 162.569 139.836 160.85 140.061 158.33L139.71 158.231L139.602 158.24H139.485ZM138.36 159.059L137.883 159.167C138.207 161.048 138.819 162.713 139.863 163.541C139.953 163.397 140.133 163.199 140.268 163.091C139.269 162.38 138.648 160.796 138.36 159.059ZM132.186 157.511V158.105H135.147V157.511H132.186ZM131.961 159.167V159.779H135.318V159.167H131.961ZM133.833 160.913V161.525H135.255V160.913H133.833ZM133.473 156.44V159.545H134.094V156.44H133.473ZM133.608 159.581V163.685H134.211V159.581H133.608ZM132.879 161.57L132.384 161.741C133.005 164.009 134.121 164.486 136.551 164.486H139.908C139.953 164.288 140.079 163.982 140.187 163.82C139.647 163.847 136.965 163.838 136.551 163.838C134.454 163.838 133.392 163.46 132.879 161.57ZM132.357 160.472C132.393 161.687 132.33 163.217 131.718 164.315C131.853 164.378 132.069 164.567 132.168 164.702C132.87 163.496 132.942 161.849 132.924 160.499L132.357 160.472Z" fill="white"/>
<path d="M199.11 162.326V162.839H203.214V162.326H199.11ZM198.867 157.988V158.51H203.358V157.988H198.867ZM200.82 157.169V163.793H201.441V157.169H200.82ZM198.858 163.811L198.957 164.396C200.1 164.279 201.729 164.09 203.259 163.91L203.25 163.379C201.639 163.55 199.956 163.712 198.858 163.811ZM199.695 160.643H202.611V161.309H199.695V160.643ZM199.695 159.545H202.611V160.193H199.695V159.545ZM199.128 159.077V161.777H203.187V159.077H199.128ZM202.863 156.53C201.936 156.746 200.298 156.908 198.957 156.98C199.029 157.115 199.092 157.34 199.119 157.484C200.469 157.439 202.143 157.286 203.205 157.052L202.863 156.53ZM203.295 158.546V159.176H206.544V158.546H203.295ZM206.283 158.546V158.708C206.184 162.353 206.085 163.649 205.86 163.928C205.779 164.045 205.689 164.072 205.545 164.072C205.365 164.072 204.969 164.063 204.528 164.027C204.636 164.207 204.708 164.486 204.726 164.675C205.14 164.702 205.572 164.702 205.824 164.675C206.094 164.648 206.274 164.567 206.436 164.333C206.733 163.946 206.823 162.686 206.922 158.888C206.922 158.798 206.931 158.546 206.931 158.546H206.283ZM204.384 156.557C204.375 159.959 204.42 162.812 202.359 164.288C202.521 164.396 202.755 164.612 202.863 164.774C205.014 163.163 205.023 160.139 205.032 156.557H204.384ZM210.247 162.722V163.829C210.247 164.468 210.481 164.639 211.426 164.639C211.615 164.639 213.01 164.639 213.217 164.639C213.937 164.639 214.135 164.423 214.216 163.478C214.036 163.442 213.775 163.352 213.631 163.253C213.595 163.973 213.532 164.072 213.145 164.072C212.848 164.072 211.696 164.072 211.471 164.072C210.994 164.072 210.904 164.036 210.904 163.82V162.722H210.247ZM211.021 162.506C211.552 162.74 212.173 163.136 212.479 163.451L212.902 163.028C212.596 162.704 211.966 162.335 211.435 162.119L211.021 162.506ZM214.009 162.902C214.648 163.361 215.314 164.045 215.593 164.549L216.169 164.198C215.863 163.685 215.179 163.028 214.531 162.578L214.009 162.902ZM209.122 162.677C208.915 163.271 208.483 163.865 207.862 164.207L208.393 164.576C209.059 164.189 209.446 163.541 209.698 162.884L209.122 162.677ZM208.51 158.771V162.308H209.113V159.266H211.291V158.771H208.51ZM212.425 156.521V158.402C212.425 159.059 212.632 159.239 213.487 159.239C213.667 159.239 214.855 159.239 215.035 159.239C215.701 159.239 215.881 159.005 215.953 158.114C215.782 158.078 215.53 157.997 215.395 157.898C215.359 158.573 215.296 158.672 214.981 158.672C214.729 158.672 213.721 158.672 213.532 158.672C213.118 158.672 213.046 158.636 213.046 158.393V156.521H212.425ZM212.425 159.446V161.471C212.425 162.137 212.632 162.317 213.487 162.317C213.667 162.317 214.882 162.317 215.071 162.317C215.737 162.317 215.926 162.083 215.998 161.174C215.827 161.147 215.575 161.057 215.431 160.949C215.404 161.651 215.341 161.75 215.017 161.75C214.756 161.75 213.739 161.75 213.541 161.75C213.118 161.75 213.046 161.705 213.046 161.471V159.446H212.425ZM209.428 156.395C209.221 156.863 208.843 157.52 208.546 157.943L209.023 158.123C209.347 157.736 209.752 157.124 210.094 156.593L209.428 156.395ZM210.499 157.124C210.976 157.556 211.489 158.168 211.714 158.591L212.227 158.285C211.993 157.862 211.471 157.268 210.976 156.854L210.499 157.124ZM214.999 156.746C214.486 157.034 213.55 157.349 212.722 157.556C212.794 157.682 212.875 157.88 212.902 157.997C213.784 157.799 214.801 157.502 215.512 157.16L214.999 156.746ZM215.098 159.716C214.558 160.022 213.577 160.337 212.722 160.544C212.794 160.67 212.875 160.868 212.902 160.994C213.82 160.787 214.873 160.481 215.602 160.139L215.098 159.716ZM211.075 158.771V161.651C211.075 161.741 211.039 161.768 210.931 161.768C210.832 161.777 210.499 161.777 210.13 161.768C210.202 161.912 210.292 162.11 210.328 162.272C210.841 162.272 211.192 162.263 211.408 162.173C211.624 162.083 211.687 161.948 211.687 161.651V158.771H211.075ZM207.97 157.754L208.006 158.312C208.951 158.276 210.292 158.222 211.597 158.159L211.606 157.655C210.247 157.691 208.888 157.736 207.97 157.754ZM208.852 159.752V160.184H211.3V159.752H208.852ZM208.852 160.688V161.12H211.3V160.688H208.852Z" fill="#6F7387"/>
<path d="M274.903 156.836V157.439H278.017V156.836H274.903ZM275.641 158.726V159.293H277.261V158.726H275.641ZM275.641 160.58V161.156H277.261V160.58H275.641ZM275.362 157.142V162.902H275.929V157.142H275.362ZM276.937 157.133V164.729H277.522V157.133H276.937ZM274.804 162.803L274.93 163.433C275.614 163.289 276.46 163.1 277.288 162.911L277.243 162.326C276.334 162.515 275.434 162.695 274.804 162.803ZM277.72 162.2L277.945 162.776C278.503 162.587 279.178 162.353 279.844 162.119L279.781 161.633C279.007 161.858 278.26 162.065 277.72 162.2ZM278.296 157.286V162.191H278.845V157.502L278.296 157.286ZM279.637 158.042V160.769C279.637 162.128 279.466 163.388 277.999 164.315C278.134 164.405 278.314 164.612 278.395 164.729C279.988 163.721 280.195 162.308 280.195 160.778V158.042H279.637ZM282.256 157.079V162.209C282.256 162.29 282.229 162.317 282.157 162.317C282.094 162.317 281.878 162.317 281.635 162.308C281.716 162.461 281.797 162.713 281.815 162.866C282.184 162.866 282.427 162.848 282.607 162.749C282.778 162.65 282.823 162.479 282.823 162.218V157.079H282.256ZM279.961 156.458C279.565 156.791 278.89 157.25 278.404 157.502L278.8 157.871C279.295 157.619 279.943 157.232 280.429 156.854L279.961 156.458ZM280.834 157.079V164.72H281.392V157.646H282.58V157.079H280.834ZM288.38 160.202L287.723 160.346C288.344 162.632 289.541 164.117 291.728 164.738C291.836 164.549 292.034 164.261 292.196 164.108C290.09 163.595 288.902 162.218 288.38 160.202ZM284.321 159.941V160.625H291.728V159.941H284.321ZM284.042 157.142V157.826H291.962V157.142H284.042ZM287.588 157.331V159.428C287.588 161.075 287.237 163.01 283.871 164.153C284.015 164.288 284.213 164.576 284.285 164.747C287.894 163.496 288.299 161.327 288.299 159.428V157.331H287.588Z" fill="#6F7387"/>
<g clip-path="url(#clip1_22_1668)">
<path d="M53.7502 145.5C55.8249 145.503 57.8462 144.842 59.5178 143.613H59.5163C59.5613 143.673 59.6093 143.73 59.6633 143.785L65.4384 149.56C65.7197 149.842 66.1012 150 66.4991 150C66.8971 150 67.2787 149.842 67.5602 149.561C67.8417 149.28 67.9999 148.898 68 148.5C68.0001 148.102 67.8422 147.721 67.5609 147.439L61.7858 141.664C61.7322 141.61 61.6745 141.56 61.6133 141.514C62.842 139.844 63.5033 137.824 63.5004 135.75C63.4996 133.164 62.4721 130.685 60.6437 128.857C58.8154 127.028 56.3358 126.001 53.7502 126C51.1643 126 48.6843 127.027 46.8558 128.856C45.0272 130.684 44 133.164 44 135.75C44 138.336 45.0272 140.816 46.8558 142.644C48.6843 144.473 51.1643 145.5 53.7502 145.5ZM53.7502 132.723C56.2462 130.213 62.4878 134.604 53.7502 140.25C45.0125 134.604 51.2541 130.215 53.7502 132.723Z" fill="#6F7387"/>
</g>
<path d="M363.685 130.527C362.749 129.542 361.442 129 360 129C358.55 129 357.239 129.539 356.308 130.518C355.366 131.507 354.908 132.852 355.016 134.304C355.229 137.169 357.465 139.5 360 139.5C362.535 139.5 364.767 137.17 364.984 134.305C365.093 132.866 364.632 131.524 363.685 130.527ZM368.461 150H351.539C351.317 150.003 351.098 149.957 350.897 149.867C350.695 149.777 350.517 149.644 350.375 149.478C350.063 149.114 349.937 148.617 350.03 148.114C350.436 145.919 351.702 144.075 353.692 142.781C355.461 141.632 357.701 141 360 141C362.299 141 364.539 141.633 366.308 142.781C368.298 144.075 369.564 145.918 369.97 148.113C370.063 148.616 369.937 149.113 369.625 149.478C369.483 149.644 369.305 149.777 369.103 149.867C368.902 149.957 368.683 150.003 368.461 150Z" fill="#6F7387"/>
<path d="M291.304 130H275.696C274.716 130.001 273.777 130.366 273.084 131.015C272.391 131.664 272.001 132.544 272 133.462V142.692C272.001 143.61 272.391 144.49 273.084 145.139C273.777 145.788 274.716 146.153 275.696 146.154H276.929V149.231C276.929 149.377 276.973 149.52 277.057 149.643C277.141 149.767 277.26 149.865 277.402 149.927C277.543 149.989 277.701 150.012 277.855 149.994C278.01 149.975 278.156 149.915 278.276 149.821L282.973 146.154H291.304C292.284 146.153 293.223 145.788 293.916 145.139C294.609 144.49 294.999 143.61 295 142.692V133.462C294.999 132.544 294.609 131.664 293.916 131.015C293.223 130.366 292.284 130.001 291.304 130ZM278.571 139.615C278.247 139.615 277.929 139.525 277.659 139.356C277.389 139.187 277.178 138.947 277.054 138.666C276.929 138.384 276.897 138.075 276.96 137.777C277.024 137.478 277.18 137.204 277.41 136.989C277.64 136.774 277.932 136.627 278.251 136.568C278.57 136.509 278.9 136.539 279.2 136.656C279.5 136.772 279.757 136.969 279.937 137.222C280.118 137.475 280.214 137.773 280.214 138.077C280.214 138.485 280.041 138.876 279.733 139.165C279.425 139.453 279.007 139.615 278.571 139.615ZM283.5 139.615C283.175 139.615 282.857 139.525 282.587 139.356C282.317 139.187 282.107 138.947 281.982 138.666C281.858 138.384 281.825 138.075 281.889 137.777C281.952 137.478 282.109 137.204 282.338 136.989C282.568 136.774 282.861 136.627 283.179 136.568C283.498 136.509 283.829 136.539 284.129 136.656C284.429 136.772 284.685 136.969 284.866 137.222C285.047 137.475 285.143 137.773 285.143 138.077C285.143 138.485 284.97 138.876 284.662 139.165C284.354 139.453 283.936 139.615 283.5 139.615ZM288.429 139.615C288.104 139.615 287.786 139.525 287.516 139.356C287.246 139.187 287.035 138.947 286.911 138.666C286.786 138.384 286.754 138.075 286.817 137.777C286.881 137.478 287.037 137.204 287.267 136.989C287.497 136.774 287.789 136.627 288.108 136.568C288.427 136.509 288.757 136.539 289.057 136.656C289.357 136.772 289.614 136.969 289.795 137.222C289.975 137.475 290.071 137.773 290.071 138.077C290.071 138.485 289.898 138.876 289.59 139.165C289.282 139.453 288.864 139.615 288.429 139.615Z" fill="#6F7387"/>
<path d="M125.25 129C124.388 129 123.561 129.342 122.952 129.952C122.342 130.561 122 131.388 122 132.25V138.257C122.72 137.661 123.581 137.26 124.5 137.091V134.75C124.5 133.888 124.842 133.061 125.452 132.452C126.061 131.842 126.888 131.5 127.75 131.5H139V131.25C139 130.955 138.942 130.662 138.829 130.389C138.716 130.116 138.55 129.868 138.341 129.659C138.132 129.45 137.884 129.284 137.611 129.171C137.338 129.058 137.045 129 136.75 129H125.25ZM139.75 146.5H131.975L130.425 144.95C130.842 144.111 131.038 143.18 130.995 142.244C130.951 141.309 130.67 140.4 130.176 139.604C129.683 138.807 128.995 138.15 128.176 137.695C127.358 137.239 126.437 137 125.5 137V134.75C125.5 134.153 125.737 133.581 126.159 133.159C126.581 132.737 127.153 132.5 127.75 132.5H139.75C140.347 132.5 140.919 132.737 141.341 133.159C141.763 133.581 142 134.153 142 134.75V144.25C142 144.847 141.763 145.419 141.341 145.841C140.919 146.263 140.347 146.5 139.75 146.5ZM128.107 146.168C127.187 146.822 126.056 147.106 124.936 146.965C123.817 146.824 122.791 146.267 122.063 145.405C121.334 144.544 120.956 143.44 121.003 142.312C121.051 141.185 121.52 140.116 122.317 139.318C123.115 138.521 124.184 138.052 125.311 138.004C126.439 137.957 127.543 138.335 128.404 139.064C129.266 139.792 129.823 140.818 129.964 141.937C130.105 143.057 129.821 144.188 129.167 145.108L131.78 147.72C131.854 147.789 131.913 147.871 131.954 147.963C131.995 148.055 132.017 148.155 132.019 148.255C132.02 148.356 132.002 148.456 131.964 148.55C131.926 148.643 131.87 148.728 131.799 148.799C131.728 148.87 131.643 148.926 131.55 148.964C131.456 149.002 131.356 149.02 131.255 149.019C131.155 149.017 131.055 148.995 130.963 148.954C130.871 148.913 130.789 148.854 130.72 148.78L128.107 146.168ZM122.5 142.5C122.5 142.894 122.578 143.284 122.728 143.648C122.879 144.012 123.1 144.343 123.379 144.621C123.657 144.9 123.988 145.121 124.352 145.272C124.716 145.422 125.106 145.5 125.5 145.5C125.894 145.5 126.284 145.422 126.648 145.272C127.012 145.121 127.343 144.9 127.621 144.621C127.9 144.343 128.121 144.012 128.272 143.648C128.422 143.284 128.5 142.894 128.5 142.5C128.5 141.704 128.184 140.941 127.621 140.379C127.059 139.816 126.296 139.5 125.5 139.5C124.704 139.5 123.941 139.816 123.379 140.379C122.816 140.941 122.5 141.704 122.5 142.5Z" fill="white"/>
<path d="M196 132.562V144.438C196 145.382 196.395 146.288 197.099 146.957C197.802 147.625 198.756 148 199.751 148H216.249C217.244 148 218.198 147.625 218.901 146.957C219.605 146.288 220 145.382 220 144.438V132.562C220 131.618 219.605 130.712 218.901 130.043C218.198 129.375 217.244 129 216.249 129H199.752C198.757 129 197.803 129.375 197.1 130.043C196.396 130.712 196.001 131.618 196.001 132.562H196ZM210.998 136.838C210.998 136.649 211.078 136.467 211.218 136.334C211.359 136.2 211.55 136.125 211.749 136.125H215.249C215.448 136.125 215.639 136.2 215.78 136.334C215.92 136.467 215.999 136.649 215.999 136.838C215.999 137.026 215.92 137.208 215.78 137.341C215.639 137.475 215.448 137.55 215.249 137.55H211.749C211.55 137.55 211.359 137.475 211.218 137.341C211.078 137.208 210.998 137.026 210.998 136.838ZM211.749 139.45H215.249C215.448 139.45 215.639 139.525 215.78 139.659C215.92 139.792 215.999 139.974 215.999 140.162C215.999 140.351 215.92 140.533 215.78 140.666C215.639 140.8 215.448 140.875 215.249 140.875H211.749C211.55 140.875 211.359 140.8 211.218 140.666C211.078 140.533 210.998 140.351 210.998 140.162C210.998 139.974 211.078 139.792 211.218 139.659C211.359 139.525 211.55 139.45 211.749 139.45ZM208.998 136.6C208.998 136.978 208.84 137.34 208.559 137.608C208.277 137.875 207.896 138.025 207.498 138.025C207.1 138.025 206.718 137.875 206.437 137.608C206.156 137.34 205.998 136.978 205.998 136.6C205.998 136.222 206.156 135.86 206.437 135.592C206.718 135.325 207.1 135.175 207.498 135.175C207.896 135.175 208.277 135.325 208.559 135.592C208.84 135.86 208.998 136.222 208.998 136.6ZM200.997 138.975H204.497C204.763 138.975 205.017 139.075 205.205 139.253C205.392 139.431 205.498 139.673 205.498 139.925V140.875C205.498 140.875 205.498 142.775 202.747 142.775C199.997 142.775 199.997 140.875 199.997 140.875V139.925C199.997 139.673 200.102 139.431 200.29 139.253C200.477 139.075 200.732 138.975 200.997 138.975ZM204.497 136.362C204.497 136.803 204.313 137.226 203.985 137.538C203.657 137.85 203.211 138.025 202.747 138.025C202.283 138.025 201.838 137.85 201.509 137.538C201.181 137.226 200.997 136.803 200.997 136.362C200.997 135.922 201.181 135.499 201.509 135.187C201.838 134.875 202.283 134.7 202.747 134.7C203.211 134.7 203.657 134.875 203.985 135.187C204.313 135.499 204.497 135.922 204.497 136.362ZM207.498 141.825H206.283C206.389 141.577 206.458 141.316 206.488 141.05C206.493 141.002 206.496 140.955 206.498 140.907V139.925C206.498 139.579 206.4 139.254 206.23 138.975H208.498C208.763 138.975 209.018 139.075 209.205 139.253C209.393 139.431 209.498 139.673 209.498 139.925C209.498 140.429 209.288 140.912 208.912 141.269C208.537 141.625 208.028 141.825 207.498 141.825Z" fill="#6F7387"/>
<rect width="375" height="82" transform="translate(20 220)" fill="#383A44"/>
<rect width="375" height="82" transform="translate(20 220)" fill="#383A44"/>
<rect width="375" height="82" transform="translate(20 220)" fill="#383A44"/>
<rect x="141" y="289" width="134" height="5" rx="2.5" fill="white"/>
<path d="M354.558 256.989V264.72H355.188V257.592H359.175V264.648H359.823V256.989H354.558ZM355.557 258.897V259.428H358.869V258.897H355.557ZM354.9 263.577V264.18H359.535V263.577H354.9ZM356.925 257.88V260.733H357.474V257.88H356.925ZM356.457 260.922H357.978V262.317H356.457V260.922ZM355.935 260.418V262.83H358.518V260.418H355.935ZM353.622 256.485C353.181 257.853 352.443 259.212 351.633 260.094C351.75 260.256 351.939 260.625 351.993 260.787C352.893 259.752 353.73 258.204 354.243 256.665L353.622 256.485ZM352.875 258.69V264.738H353.514V258.06L353.505 258.051L352.875 258.69ZM364.543 256.719C364.48 257.916 364.48 262.245 360.808 264.117C361.015 264.27 361.24 264.477 361.357 264.648C365.083 262.623 365.218 258.132 365.29 256.719H364.543ZM365.263 256.899L364.615 256.962C364.678 257.79 364.93 262.821 368.746 264.648C368.854 264.459 369.061 264.234 369.259 264.081C365.551 262.38 365.29 257.601 365.263 256.899Z" fill="#6F7387"/>
<path d="M48.5228 260.643V261.192H53.4728V260.643H48.5228ZM48.5228 262.119V262.659H53.4728V262.119H48.5228ZM48.5228 263.604V264.207H53.4998V263.604H48.5228ZM46.9658 257.691V258.321H55.0208V257.691H46.9658ZM47.9918 259.158V264.72H48.6668V259.752H53.2838V264.72H53.9768V259.158H47.9918ZM50.6558 258.015C50.5838 258.438 50.4308 259.05 50.2778 259.455L50.9348 259.554C51.0968 259.167 51.3128 258.6 51.4838 258.069L50.6558 258.015ZM52.7978 256.431C52.5908 256.836 52.2218 257.403 51.9158 257.772L52.5008 257.961C52.8248 257.619 53.2208 257.115 53.5448 256.629L52.7978 256.431ZM48.5318 256.674C48.8468 257.016 49.2068 257.493 49.3598 257.808L49.9898 257.484C49.8098 257.178 49.4588 256.728 49.1258 256.413L48.5318 256.674ZM57.7973 260.229H62.3423V261.057H57.7973V260.229ZM57.7973 261.579H62.3423V262.407H57.7973V261.579ZM57.7973 258.897H62.3423V259.707H57.7973V258.897ZM57.0953 258.357V262.947H63.0623V258.357H57.0953ZM60.6773 263.541C61.7303 263.901 62.8013 264.378 63.4403 264.729L64.0703 264.27C63.3683 263.919 62.2163 263.451 61.1543 263.1L60.6773 263.541ZM56.2403 256.908V257.529H63.7553V256.908H56.2403ZM59.6693 257.169C59.6153 257.583 59.4803 258.186 59.3543 258.582L59.9933 258.699C60.1373 258.33 60.3083 257.781 60.4613 257.268L59.6693 257.169ZM58.7423 263.055C58.1213 263.469 56.8883 263.937 55.9163 264.198C56.0693 264.342 56.2763 264.576 56.3843 264.72C57.3473 264.45 58.5713 263.973 59.3543 263.496L58.7423 263.055Z" fill="#A8ABBD"/>
<path d="M122.894 262.002V262.632H131.084V262.002H122.894ZM126.224 258.024V258.501H127.772V258.024H126.224ZM128.762 256.899V257.466H130.22V256.899H128.762ZM128.825 258.618V259.176H130.148V258.618H128.825ZM128.807 260.301V260.859H130.121V260.301H128.807ZM123.839 258.618V259.176H125.171V258.618H123.839ZM123.884 260.301V260.859H125.162V260.301H123.884ZM125.441 256.899V262.272H125.954V257.43H128.033V262.272H128.564V256.899H125.441ZM126.656 259.527H127.313V260.733H126.656V259.527ZM126.305 259.086V261.174H127.673V259.086H126.305ZM123.56 256.926L123.722 262.263H124.307L124.154 257.205C124.262 257.187 124.316 257.151 124.325 257.097L123.56 256.926ZM129.86 256.899C129.869 258.6 129.788 260.985 129.689 262.335H130.274C130.373 261.012 130.445 258.636 130.463 256.899H129.86ZM125.09 256.494C124.766 256.719 124.217 257.007 123.749 257.205C123.821 257.34 123.911 257.547 123.947 257.682C124.46 257.502 125.072 257.259 125.567 256.998L125.09 256.494ZM127.808 263.226C128.78 263.703 129.806 264.306 130.418 264.738L131.048 264.27C130.391 263.838 129.293 263.235 128.294 262.776L127.808 263.226ZM125.495 262.767C124.937 263.262 123.839 263.883 122.957 264.252C123.119 264.378 123.353 264.594 123.479 264.729C124.334 264.36 125.432 263.739 126.134 263.181L125.495 262.767ZM135.03 256.809V257.394H139.314V256.809H135.03ZM137.505 258.24V258.798H139.647V258.24H137.505ZM135.822 258.465V258.996H137.379V258.465H135.822ZM135.822 260.112V260.661H137.379V260.112H135.822ZM137.118 257.043V263.658H137.676V257.043H137.118ZM135.534 257.007V262.371L136.083 262.263V257.007H135.534ZM134.841 262.344L134.967 262.911C135.651 262.749 136.533 262.533 137.388 262.326L137.325 261.804C136.398 262.02 135.471 262.218 134.841 262.344ZM139.485 258.24V258.375C139.305 260.598 138.729 262.173 137.829 263.001C137.955 263.091 138.144 263.334 138.225 263.469C139.197 262.569 139.836 260.85 140.061 258.33L139.71 258.231L139.602 258.24H139.485ZM138.36 259.059L137.883 259.167C138.207 261.048 138.819 262.713 139.863 263.541C139.953 263.397 140.133 263.199 140.268 263.091C139.269 262.38 138.648 260.796 138.36 259.059ZM132.186 257.511V258.105H135.147V257.511H132.186ZM131.961 259.167V259.779H135.318V259.167H131.961ZM133.833 260.913V261.525H135.255V260.913H133.833ZM133.473 256.44V259.545H134.094V256.44H133.473ZM133.608 259.581V263.685H134.211V259.581H133.608ZM132.879 261.57L132.384 261.741C133.005 264.009 134.121 264.486 136.551 264.486H139.908C139.953 264.288 140.079 263.982 140.187 263.82C139.647 263.847 136.965 263.838 136.551 263.838C134.454 263.838 133.392 263.46 132.879 261.57ZM132.357 260.472C132.393 261.687 132.33 263.217 131.718 264.315C131.853 264.378 132.069 264.567 132.168 264.702C132.87 263.496 132.942 261.849 132.924 260.499L132.357 260.472Z" fill="#A8ABBD"/>
<path d="M199.11 262.326V262.839H203.214V262.326H199.11ZM198.867 257.988V258.51H203.358V257.988H198.867ZM200.82 257.169V263.793H201.441V257.169H200.82ZM198.858 263.811L198.957 264.396C200.1 264.279 201.729 264.09 203.259 263.91L203.25 263.379C201.639 263.55 199.956 263.712 198.858 263.811ZM199.695 260.643H202.611V261.309H199.695V260.643ZM199.695 259.545H202.611V260.193H199.695V259.545ZM199.128 259.077V261.777H203.187V259.077H199.128ZM202.863 256.53C201.936 256.746 200.298 256.908 198.957 256.98C199.029 257.115 199.092 257.34 199.119 257.484C200.469 257.439 202.143 257.286 203.205 257.052L202.863 256.53ZM203.295 258.546V259.176H206.544V258.546H203.295ZM206.283 258.546V258.708C206.184 262.353 206.085 263.649 205.86 263.928C205.779 264.045 205.689 264.072 205.545 264.072C205.365 264.072 204.969 264.063 204.528 264.027C204.636 264.207 204.708 264.486 204.726 264.675C205.14 264.702 205.572 264.702 205.824 264.675C206.094 264.648 206.274 264.567 206.436 264.333C206.733 263.946 206.823 262.686 206.922 258.888C206.922 258.798 206.931 258.546 206.931 258.546H206.283ZM204.384 256.557C204.375 259.959 204.42 262.812 202.359 264.288C202.521 264.396 202.755 264.612 202.863 264.774C205.014 263.163 205.023 260.139 205.032 256.557H204.384ZM210.247 262.722V263.829C210.247 264.468 210.481 264.639 211.426 264.639C211.615 264.639 213.01 264.639 213.217 264.639C213.937 264.639 214.135 264.423 214.216 263.478C214.036 263.442 213.775 263.352 213.631 263.253C213.595 263.973 213.532 264.072 213.145 264.072C212.848 264.072 211.696 264.072 211.471 264.072C210.994 264.072 210.904 264.036 210.904 263.82V262.722H210.247ZM211.021 262.506C211.552 262.74 212.173 263.136 212.479 263.451L212.902 263.028C212.596 262.704 211.966 262.335 211.435 262.119L211.021 262.506ZM214.009 262.902C214.648 263.361 215.314 264.045 215.593 264.549L216.169 264.198C215.863 263.685 215.179 263.028 214.531 262.578L214.009 262.902ZM209.122 262.677C208.915 263.271 208.483 263.865 207.862 264.207L208.393 264.576C209.059 264.189 209.446 263.541 209.698 262.884L209.122 262.677ZM208.51 258.771V262.308H209.113V259.266H211.291V258.771H208.51ZM212.425 256.521V258.402C212.425 259.059 212.632 259.239 213.487 259.239C213.667 259.239 214.855 259.239 215.035 259.239C215.701 259.239 215.881 259.005 215.953 258.114C215.782 258.078 215.53 257.997 215.395 257.898C215.359 258.573 215.296 258.672 214.981 258.672C214.729 258.672 213.721 258.672 213.532 258.672C213.118 258.672 213.046 258.636 213.046 258.393V256.521H212.425ZM212.425 259.446V261.471C212.425 262.137 212.632 262.317 213.487 262.317C213.667 262.317 214.882 262.317 215.071 262.317C215.737 262.317 215.926 262.083 215.998 261.174C215.827 261.147 215.575 261.057 215.431 260.949C215.404 261.651 215.341 261.75 215.017 261.75C214.756 261.75 213.739 261.75 213.541 261.75C213.118 261.75 213.046 261.705 213.046 261.471V259.446H212.425ZM209.428 256.395C209.221 256.863 208.843 257.52 208.546 257.943L209.023 258.123C209.347 257.736 209.752 257.124 210.094 256.593L209.428 256.395ZM210.499 257.124C210.976 257.556 211.489 258.168 211.714 258.591L212.227 258.285C211.993 257.862 211.471 257.268 210.976 256.854L210.499 257.124ZM214.999 256.746C214.486 257.034 213.55 257.349 212.722 257.556C212.794 257.682 212.875 257.88 212.902 257.997C213.784 257.799 214.801 257.502 215.512 257.16L214.999 256.746ZM215.098 259.716C214.558 260.022 213.577 260.337 212.722 260.544C212.794 260.67 212.875 260.868 212.902 260.994C213.82 260.787 214.873 260.481 215.602 260.139L215.098 259.716ZM211.075 258.771V261.651C211.075 261.741 211.039 261.768 210.931 261.768C210.832 261.777 210.499 261.777 210.13 261.768C210.202 261.912 210.292 262.11 210.328 262.272C210.841 262.272 211.192 262.263 211.408 262.173C211.624 262.083 211.687 261.948 211.687 261.651V258.771H211.075ZM207.97 257.754L208.006 258.312C208.951 258.276 210.292 258.222 211.597 258.159L211.606 257.655C210.247 257.691 208.888 257.736 207.97 257.754ZM208.852 259.752V260.184H211.3V259.752H208.852ZM208.852 260.688V261.12H211.3V260.688H208.852Z" fill="white"/>
<path d="M274.903 256.836V257.439H278.017V256.836H274.903ZM275.641 258.726V259.293H277.261V258.726H275.641ZM275.641 260.58V261.156H277.261V260.58H275.641ZM275.362 257.142V262.902H275.929V257.142H275.362ZM276.937 257.133V264.729H277.522V257.133H276.937ZM274.804 262.803L274.93 263.433C275.614 263.289 276.46 263.1 277.288 262.911L277.243 262.326C276.334 262.515 275.434 262.695 274.804 262.803ZM277.72 262.2L277.945 262.776C278.503 262.587 279.178 262.353 279.844 262.119L279.781 261.633C279.007 261.858 278.26 262.065 277.72 262.2ZM278.296 257.286V262.191H278.845V257.502L278.296 257.286ZM279.637 258.042V260.769C279.637 262.128 279.466 263.388 277.999 264.315C278.134 264.405 278.314 264.612 278.395 264.729C279.988 263.721 280.195 262.308 280.195 260.778V258.042H279.637ZM282.256 257.079V262.209C282.256 262.29 282.229 262.317 282.157 262.317C282.094 262.317 281.878 262.317 281.635 262.308C281.716 262.461 281.797 262.713 281.815 262.866C282.184 262.866 282.427 262.848 282.607 262.749C282.778 262.65 282.823 262.479 282.823 262.218V257.079H282.256ZM279.961 256.458C279.565 256.791 278.89 257.25 278.404 257.502L278.8 257.871C279.295 257.619 279.943 257.232 280.429 256.854L279.961 256.458ZM280.834 257.079V264.72H281.392V257.646H282.58V257.079H280.834ZM288.38 260.202L287.723 260.346C288.344 262.632 289.541 264.117 291.728 264.738C291.836 264.549 292.034 264.261 292.196 264.108C290.09 263.595 288.902 262.218 288.38 260.202ZM284.321 259.941V260.625H291.728V259.941H284.321ZM284.042 257.142V257.826H291.962V257.142H284.042ZM287.588 257.331V259.428C287.588 261.075 287.237 263.01 283.871 264.153C284.015 264.288 284.213 264.576 284.285 264.747C287.894 263.496 288.299 261.327 288.299 259.428V257.331H287.588Z" fill="#6F7387"/>
<g clip-path="url(#clip2_22_1668)">
<path d="M53.7502 245.5C55.8249 245.503 57.8462 244.842 59.5178 243.613H59.5163C59.5613 243.673 59.6093 243.73 59.6633 243.785L65.4384 249.56C65.7197 249.842 66.1012 250 66.4991 250C66.8971 250 67.2787 249.842 67.5602 249.561C67.8417 249.28 67.9999 248.898 68 248.5C68.0001 248.102 67.8422 247.721 67.5609 247.439L61.7858 241.664C61.7322 241.61 61.6745 241.56 61.6133 241.514C62.842 239.844 63.5033 237.824 63.5004 235.75C63.4996 233.164 62.4721 230.685 60.6437 228.857C58.8154 227.028 56.3358 226.001 53.7502 226C51.1643 226 48.6843 227.027 46.8558 228.856C45.0272 230.684 44 233.164 44 235.75C44 238.336 45.0272 240.816 46.8558 242.644C48.6843 244.473 51.1643 245.5 53.7502 245.5ZM53.7502 232.723C56.2462 230.213 62.4878 234.604 53.7502 240.25C45.0125 234.604 51.2541 230.215 53.7502 232.723Z" fill="#6F7387"/>
</g>
<path d="M363.685 230.527C362.749 229.542 361.442 229 360 229C358.55 229 357.239 229.539 356.308 230.518C355.366 231.507 354.908 232.852 355.016 234.304C355.229 237.169 357.465 239.5 360 239.5C362.535 239.5 364.767 237.17 364.984 234.305C365.093 232.866 364.632 231.524 363.685 230.527ZM368.461 250H351.539C351.317 250.003 351.098 249.957 350.897 249.867C350.695 249.777 350.517 249.644 350.375 249.478C350.063 249.114 349.937 248.617 350.03 248.114C350.436 245.919 351.702 244.075 353.692 242.781C355.461 241.632 357.701 241 360 241C362.299 241 364.539 241.633 366.308 242.781C368.298 244.075 369.564 245.918 369.97 248.113C370.063 248.616 369.937 249.113 369.625 249.478C369.483 249.644 369.305 249.777 369.103 249.867C368.902 249.957 368.683 250.003 368.461 250Z" fill="#6F7387"/>
<path d="M291.304 230H275.696C274.716 230.001 273.777 230.366 273.084 231.015C272.391 231.664 272.001 232.544 272 233.462V242.692C272.001 243.61 272.391 244.49 273.084 245.139C273.777 245.788 274.716 246.153 275.696 246.154H276.929V249.231C276.929 249.377 276.973 249.52 277.057 249.643C277.141 249.767 277.26 249.865 277.402 249.927C277.543 249.989 277.701 250.012 277.855 249.994C278.01 249.975 278.156 249.915 278.276 249.821L282.973 246.154H291.304C292.284 246.153 293.223 245.788 293.916 245.139C294.609 244.49 294.999 243.61 295 242.692V233.462C294.999 232.544 294.609 231.664 293.916 231.015C293.223 230.366 292.284 230.001 291.304 230ZM278.571 239.615C278.247 239.615 277.929 239.525 277.659 239.356C277.389 239.187 277.178 238.947 277.054 238.666C276.929 238.384 276.897 238.075 276.96 237.777C277.024 237.478 277.18 237.204 277.41 236.989C277.64 236.774 277.932 236.627 278.251 236.568C278.57 236.509 278.9 236.539 279.2 236.656C279.5 236.772 279.757 236.969 279.937 237.222C280.118 237.475 280.214 237.773 280.214 238.077C280.214 238.485 280.041 238.876 279.733 239.165C279.425 239.453 279.007 239.615 278.571 239.615ZM283.5 239.615C283.175 239.615 282.857 239.525 282.587 239.356C282.317 239.187 282.107 238.947 281.982 238.666C281.858 238.384 281.825 238.075 281.889 237.777C281.952 237.478 282.109 237.204 282.338 236.989C282.568 236.774 282.861 236.627 283.179 236.568C283.498 236.509 283.829 236.539 284.129 236.656C284.429 236.772 284.685 236.969 284.866 237.222C285.047 237.475 285.143 237.773 285.143 238.077C285.143 238.485 284.97 238.876 284.662 239.165C284.354 239.453 283.936 239.615 283.5 239.615ZM288.429 239.615C288.104 239.615 287.786 239.525 287.516 239.356C287.246 239.187 287.035 238.947 286.911 238.666C286.786 238.384 286.754 238.075 286.817 237.777C286.881 237.478 287.037 237.204 287.267 236.989C287.497 236.774 287.789 236.627 288.108 236.568C288.427 236.509 288.757 236.539 289.057 236.656C289.357 236.772 289.614 236.969 289.795 237.222C289.975 237.475 290.071 237.773 290.071 238.077C290.071 238.485 289.898 238.876 289.59 239.165C289.282 239.453 288.864 239.615 288.429 239.615Z" fill="#6F7387"/>
<path d="M125.25 229C124.388 229 123.561 229.342 122.952 229.952C122.342 230.561 122 231.388 122 232.25V238.257C122.72 237.661 123.581 237.26 124.5 237.091V234.75C124.5 233.888 124.842 233.061 125.452 232.452C126.061 231.842 126.888 231.5 127.75 231.5H139V231.25C139 230.955 138.942 230.662 138.829 230.389C138.716 230.116 138.55 229.868 138.341 229.659C138.132 229.45 137.884 229.284 137.611 229.171C137.338 229.058 137.045 229 136.75 229H125.25ZM139.75 246.5H131.975L130.425 244.95C130.842 244.111 131.038 243.18 130.995 242.244C130.951 241.309 130.67 240.4 130.176 239.604C129.683 238.807 128.995 238.15 128.176 237.695C127.358 237.239 126.437 237 125.5 237V234.75C125.5 234.153 125.737 233.581 126.159 233.159C126.581 232.737 127.153 232.5 127.75 232.5H139.75C140.347 232.5 140.919 232.737 141.341 233.159C141.763 233.581 142 234.153 142 234.75V244.25C142 244.847 141.763 245.419 141.341 245.841C140.919 246.263 140.347 246.5 139.75 246.5ZM128.107 246.168C127.187 246.822 126.056 247.106 124.936 246.965C123.817 246.824 122.791 246.267 122.063 245.405C121.334 244.544 120.956 243.44 121.003 242.312C121.051 241.185 121.52 240.116 122.317 239.318C123.115 238.521 124.184 238.052 125.311 238.004C126.439 237.957 127.543 238.335 128.404 239.064C129.266 239.792 129.823 240.818 129.964 241.937C130.105 243.057 129.821 244.188 129.167 245.108L131.78 247.72C131.854 247.789 131.913 247.871 131.954 247.963C131.995 248.055 132.017 248.155 132.019 248.255C132.02 248.356 132.002 248.456 131.964 248.55C131.926 248.643 131.87 248.728 131.799 248.799C131.728 248.87 131.643 248.926 131.55 248.964C131.456 249.002 131.356 249.02 131.255 249.019C131.155 249.017 131.055 248.995 130.963 248.954C130.871 248.913 130.789 248.854 130.72 248.78L128.107 246.168ZM122.5 242.5C122.5 242.894 122.578 243.284 122.728 243.648C122.879 244.012 123.1 244.343 123.379 244.621C123.657 244.9 123.988 245.121 124.352 245.272C124.716 245.422 125.106 245.5 125.5 245.5C125.894 245.5 126.284 245.422 126.648 245.272C127.012 245.121 127.343 244.9 127.621 244.621C127.9 244.343 128.121 244.012 128.272 243.648C128.422 243.284 128.5 242.894 128.5 242.5C128.5 241.704 128.184 240.941 127.621 240.379C127.059 239.816 126.296 239.5 125.5 239.5C124.704 239.5 123.941 239.816 123.379 240.379C122.816 240.941 122.5 241.704 122.5 242.5Z" fill="#6F7387"/>
<path d="M196 232.562V244.438C196 245.382 196.395 246.288 197.099 246.957C197.802 247.625 198.756 248 199.751 248H216.249C217.244 248 218.198 247.625 218.901 246.957C219.605 246.288 220 245.382 220 244.438V232.562C220 231.618 219.605 230.712 218.901 230.043C218.198 229.375 217.244 229 216.249 229H199.752C198.757 229 197.803 229.375 197.1 230.043C196.396 230.712 196.001 231.618 196.001 232.562H196ZM210.998 236.838C210.998 236.649 211.078 236.467 211.218 236.334C211.359 236.2 211.55 236.125 211.749 236.125H215.249C215.448 236.125 215.639 236.2 215.78 236.334C215.92 236.467 215.999 236.649 215.999 236.838C215.999 237.026 215.92 237.208 215.78 237.341C215.639 237.475 215.448 237.55 215.249 237.55H211.749C211.55 237.55 211.359 237.475 211.218 237.341C211.078 237.208 210.998 237.026 210.998 236.838ZM211.749 239.45H215.249C215.448 239.45 215.639 239.525 215.78 239.659C215.92 239.792 215.999 239.974 215.999 240.162C215.999 240.351 215.92 240.533 215.78 240.666C215.639 240.8 215.448 240.875 215.249 240.875H211.749C211.55 240.875 211.359 240.8 211.218 240.666C211.078 240.533 210.998 240.351 210.998 240.162C210.998 239.974 211.078 239.792 211.218 239.659C211.359 239.525 211.55 239.45 211.749 239.45ZM208.998 236.6C208.998 236.978 208.84 237.34 208.559 237.608C208.277 237.875 207.896 238.025 207.498 238.025C207.1 238.025 206.718 237.875 206.437 237.608C206.156 237.34 205.998 236.978 205.998 236.6C205.998 236.222 206.156 235.86 206.437 235.592C206.718 235.325 207.1 235.175 207.498 235.175C207.896 235.175 208.277 235.325 208.559 235.592C208.84 235.86 208.998 236.222 208.998 236.6ZM200.997 238.975H204.497C204.763 238.975 205.017 239.075 205.205 239.253C205.392 239.431 205.498 239.673 205.498 239.925V240.875C205.498 240.875 205.498 242.775 202.747 242.775C199.997 242.775 199.997 240.875 199.997 240.875V239.925C199.997 239.673 200.102 239.431 200.29 239.253C200.477 239.075 200.732 238.975 200.997 238.975ZM204.497 236.362C204.497 236.803 204.313 237.226 203.985 237.538C203.657 237.85 203.211 238.025 202.747 238.025C202.283 238.025 201.838 237.85 201.509 237.538C201.181 237.226 200.997 236.803 200.997 236.362C200.997 235.922 201.181 235.499 201.509 235.187C201.838 234.875 202.283 234.7 202.747 234.7C203.211 234.7 203.657 234.875 203.985 235.187C204.313 235.499 204.497 235.922 204.497 236.362ZM207.498 241.825H206.283C206.389 241.577 206.458 241.316 206.488 241.05C206.493 241.002 206.496 240.955 206.498 240.907V239.925C206.498 239.579 206.4 239.254 206.23 238.975H208.498C208.763 238.975 209.018 239.075 209.205 239.253C209.393 239.431 209.498 239.673 209.498 239.925C209.498 240.429 209.288 240.912 208.912 241.269C208.537 241.625 208.028 241.825 207.498 241.825Z" fill="white"/>
<rect width="375" height="82" transform="translate(20 336)" fill="#383A44"/>
<rect width="375" height="82" transform="translate(20 336)" fill="#383A44"/>
<rect width="375" height="82" transform="translate(20 336)" fill="#383A44"/>
<rect width="375" height="82" transform="translate(20 336)" fill="#383A44"/>
<rect x="141" y="405" width="134" height="5" rx="2.5" fill="white"/>
<path d="M354.558 372.989V380.72H355.188V373.592H359.175V380.648H359.823V372.989H354.558ZM355.557 374.897V375.428H358.869V374.897H355.557ZM354.9 379.577V380.18H359.535V379.577H354.9ZM356.925 373.88V376.733H357.474V373.88H356.925ZM356.457 376.922H357.978V378.317H356.457V376.922ZM355.935 376.418V378.83H358.518V376.418H355.935ZM353.622 372.485C353.181 373.853 352.443 375.212 351.633 376.094C351.75 376.256 351.939 376.625 351.993 376.787C352.893 375.752 353.73 374.204 354.243 372.665L353.622 372.485ZM352.875 374.69V380.738H353.514V374.06L353.505 374.051L352.875 374.69ZM364.543 372.719C364.48 373.916 364.48 378.245 360.808 380.117C361.015 380.27 361.24 380.477 361.357 380.648C365.083 378.623 365.218 374.132 365.29 372.719H364.543ZM365.263 372.899L364.615 372.962C364.678 373.79 364.93 378.821 368.746 380.648C368.854 380.459 369.061 380.234 369.259 380.081C365.551 378.38 365.29 373.601 365.263 372.899Z" fill="#6F7387"/>
<path d="M48.5228 376.643V377.192H53.4728V376.643H48.5228ZM48.5228 378.119V378.659H53.4728V378.119H48.5228ZM48.5228 379.604V380.207H53.4998V379.604H48.5228ZM46.9658 373.691V374.321H55.0208V373.691H46.9658ZM47.9918 375.158V380.72H48.6668V375.752H53.2838V380.72H53.9768V375.158H47.9918ZM50.6558 374.015C50.5838 374.438 50.4308 375.05 50.2778 375.455L50.9348 375.554C51.0968 375.167 51.3128 374.6 51.4838 374.069L50.6558 374.015ZM52.7978 372.431C52.5908 372.836 52.2218 373.403 51.9158 373.772L52.5008 373.961C52.8248 373.619 53.2208 373.115 53.5448 372.629L52.7978 372.431ZM48.5318 372.674C48.8468 373.016 49.2068 373.493 49.3598 373.808L49.9898 373.484C49.8098 373.178 49.4588 372.728 49.1258 372.413L48.5318 372.674ZM57.7973 376.229H62.3423V377.057H57.7973V376.229ZM57.7973 377.579H62.3423V378.407H57.7973V377.579ZM57.7973 374.897H62.3423V375.707H57.7973V374.897ZM57.0953 374.357V378.947H63.0623V374.357H57.0953ZM60.6773 379.541C61.7303 379.901 62.8013 380.378 63.4403 380.729L64.0703 380.27C63.3683 379.919 62.2163 379.451 61.1543 379.1L60.6773 379.541ZM56.2403 372.908V373.529H63.7553V372.908H56.2403ZM59.6693 373.169C59.6153 373.583 59.4803 374.186 59.3543 374.582L59.9933 374.699C60.1373 374.33 60.3083 373.781 60.4613 373.268L59.6693 373.169ZM58.7423 379.055C58.1213 379.469 56.8883 379.937 55.9163 380.198C56.0693 380.342 56.2763 380.576 56.3843 380.72C57.3473 380.45 58.5713 379.973 59.3543 379.496L58.7423 379.055Z" fill="#6F7387"/>
<path d="M122.894 378.002V378.632H131.084V378.002H122.894ZM126.224 374.024V374.501H127.772V374.024H126.224ZM128.762 372.899V373.466H130.22V372.899H128.762ZM128.825 374.618V375.176H130.148V374.618H128.825ZM128.807 376.301V376.859H130.121V376.301H128.807ZM123.839 374.618V375.176H125.171V374.618H123.839ZM123.884 376.301V376.859H125.162V376.301H123.884ZM125.441 372.899V378.272H125.954V373.43H128.033V378.272H128.564V372.899H125.441ZM126.656 375.527H127.313V376.733H126.656V375.527ZM126.305 375.086V377.174H127.673V375.086H126.305ZM123.56 372.926L123.722 378.263H124.307L124.154 373.205C124.262 373.187 124.316 373.151 124.325 373.097L123.56 372.926ZM129.86 372.899C129.869 374.6 129.788 376.985 129.689 378.335H130.274C130.373 377.012 130.445 374.636 130.463 372.899H129.86ZM125.09 372.494C124.766 372.719 124.217 373.007 123.749 373.205C123.821 373.34 123.911 373.547 123.947 373.682C124.46 373.502 125.072 373.259 125.567 372.998L125.09 372.494ZM127.808 379.226C128.78 379.703 129.806 380.306 130.418 380.738L131.048 380.27C130.391 379.838 129.293 379.235 128.294 378.776L127.808 379.226ZM125.495 378.767C124.937 379.262 123.839 379.883 122.957 380.252C123.119 380.378 123.353 380.594 123.479 380.729C124.334 380.36 125.432 379.739 126.134 379.181L125.495 378.767ZM135.03 372.809V373.394H139.314V372.809H135.03ZM137.505 374.24V374.798H139.647V374.24H137.505ZM135.822 374.465V374.996H137.379V374.465H135.822ZM135.822 376.112V376.661H137.379V376.112H135.822ZM137.118 373.043V379.658H137.676V373.043H137.118ZM135.534 373.007V378.371L136.083 378.263V373.007H135.534ZM134.841 378.344L134.967 378.911C135.651 378.749 136.533 378.533 137.388 378.326L137.325 377.804C136.398 378.02 135.471 378.218 134.841 378.344ZM139.485 374.24V374.375C139.305 376.598 138.729 378.173 137.829 379.001C137.955 379.091 138.144 379.334 138.225 379.469C139.197 378.569 139.836 376.85 140.061 374.33L139.71 374.231L139.602 374.24H139.485ZM138.36 375.059L137.883 375.167C138.207 377.048 138.819 378.713 139.863 379.541C139.953 379.397 140.133 379.199 140.268 379.091C139.269 378.38 138.648 376.796 138.36 375.059ZM132.186 373.511V374.105H135.147V373.511H132.186ZM131.961 375.167V375.779H135.318V375.167H131.961ZM133.833 376.913V377.525H135.255V376.913H133.833ZM133.473 372.44V375.545H134.094V372.44H133.473ZM133.608 375.581V379.685H134.211V375.581H133.608ZM132.879 377.57L132.384 377.741C133.005 380.009 134.121 380.486 136.551 380.486H139.908C139.953 380.288 140.079 379.982 140.187 379.82C139.647 379.847 136.965 379.838 136.551 379.838C134.454 379.838 133.392 379.46 132.879 377.57ZM132.357 376.472C132.393 377.687 132.33 379.217 131.718 380.315C131.853 380.378 132.069 380.567 132.168 380.702C132.87 379.496 132.942 377.849 132.924 376.499L132.357 376.472Z" fill="#6F7387"/>
<path d="M199.11 378.326V378.839H203.214V378.326H199.11ZM198.867 373.988V374.51H203.358V373.988H198.867ZM200.82 373.169V379.793H201.441V373.169H200.82ZM198.858 379.811L198.957 380.396C200.1 380.279 201.729 380.09 203.259 379.91L203.25 379.379C201.639 379.55 199.956 379.712 198.858 379.811ZM199.695 376.643H202.611V377.309H199.695V376.643ZM199.695 375.545H202.611V376.193H199.695V375.545ZM199.128 375.077V377.777H203.187V375.077H199.128ZM202.863 372.53C201.936 372.746 200.298 372.908 198.957 372.98C199.029 373.115 199.092 373.34 199.119 373.484C200.469 373.439 202.143 373.286 203.205 373.052L202.863 372.53ZM203.295 374.546V375.176H206.544V374.546H203.295ZM206.283 374.546V374.708C206.184 378.353 206.085 379.649 205.86 379.928C205.779 380.045 205.689 380.072 205.545 380.072C205.365 380.072 204.969 380.063 204.528 380.027C204.636 380.207 204.708 380.486 204.726 380.675C205.14 380.702 205.572 380.702 205.824 380.675C206.094 380.648 206.274 380.567 206.436 380.333C206.733 379.946 206.823 378.686 206.922 374.888C206.922 374.798 206.931 374.546 206.931 374.546H206.283ZM204.384 372.557C204.375 375.959 204.42 378.812 202.359 380.288C202.521 380.396 202.755 380.612 202.863 380.774C205.014 379.163 205.023 376.139 205.032 372.557H204.384ZM210.247 378.722V379.829C210.247 380.468 210.481 380.639 211.426 380.639C211.615 380.639 213.01 380.639 213.217 380.639C213.937 380.639 214.135 380.423 214.216 379.478C214.036 379.442 213.775 379.352 213.631 379.253C213.595 379.973 213.532 380.072 213.145 380.072C212.848 380.072 211.696 380.072 211.471 380.072C210.994 380.072 210.904 380.036 210.904 379.82V378.722H210.247ZM211.021 378.506C211.552 378.74 212.173 379.136 212.479 379.451L212.902 379.028C212.596 378.704 211.966 378.335 211.435 378.119L211.021 378.506ZM214.009 378.902C214.648 379.361 215.314 380.045 215.593 380.549L216.169 380.198C215.863 379.685 215.179 379.028 214.531 378.578L214.009 378.902ZM209.122 378.677C208.915 379.271 208.483 379.865 207.862 380.207L208.393 380.576C209.059 380.189 209.446 379.541 209.698 378.884L209.122 378.677ZM208.51 374.771V378.308H209.113V375.266H211.291V374.771H208.51ZM212.425 372.521V374.402C212.425 375.059 212.632 375.239 213.487 375.239C213.667 375.239 214.855 375.239 215.035 375.239C215.701 375.239 215.881 375.005 215.953 374.114C215.782 374.078 215.53 373.997 215.395 373.898C215.359 374.573 215.296 374.672 214.981 374.672C214.729 374.672 213.721 374.672 213.532 374.672C213.118 374.672 213.046 374.636 213.046 374.393V372.521H212.425ZM212.425 375.446V377.471C212.425 378.137 212.632 378.317 213.487 378.317C213.667 378.317 214.882 378.317 215.071 378.317C215.737 378.317 215.926 378.083 215.998 377.174C215.827 377.147 215.575 377.057 215.431 376.949C215.404 377.651 215.341 377.75 215.017 377.75C214.756 377.75 213.739 377.75 213.541 377.75C213.118 377.75 213.046 377.705 213.046 377.471V375.446H212.425ZM209.428 372.395C209.221 372.863 208.843 373.52 208.546 373.943L209.023 374.123C209.347 373.736 209.752 373.124 210.094 372.593L209.428 372.395ZM210.499 373.124C210.976 373.556 211.489 374.168 211.714 374.591L212.227 374.285C211.993 373.862 211.471 373.268 210.976 372.854L210.499 373.124ZM214.999 372.746C214.486 373.034 213.55 373.349 212.722 373.556C212.794 373.682 212.875 373.88 212.902 373.997C213.784 373.799 214.801 373.502 215.512 373.16L214.999 372.746ZM215.098 375.716C214.558 376.022 213.577 376.337 212.722 376.544C212.794 376.67 212.875 376.868 212.902 376.994C213.82 376.787 214.873 376.481 215.602 376.139L215.098 375.716ZM211.075 374.771V377.651C211.075 377.741 211.039 377.768 210.931 377.768C210.832 377.777 210.499 377.777 210.13 377.768C210.202 377.912 210.292 378.11 210.328 378.272C210.841 378.272 211.192 378.263 211.408 378.173C211.624 378.083 211.687 377.948 211.687 377.651V374.771H211.075ZM207.97 373.754L208.006 374.312C208.951 374.276 210.292 374.222 211.597 374.159L211.606 373.655C210.247 373.691 208.888 373.736 207.97 373.754ZM208.852 375.752V376.184H211.3V375.752H208.852ZM208.852 376.688V377.12H211.3V376.688H208.852Z" fill="#6F7387"/>
<path d="M274.903 372.836V373.439H278.017V372.836H274.903ZM275.641 374.726V375.293H277.261V374.726H275.641ZM275.641 376.58V377.156H277.261V376.58H275.641ZM275.362 373.142V378.902H275.929V373.142H275.362ZM276.937 373.133V380.729H277.522V373.133H276.937ZM274.804 378.803L274.93 379.433C275.614 379.289 276.46 379.1 277.288 378.911L277.243 378.326C276.334 378.515 275.434 378.695 274.804 378.803ZM277.72 378.2L277.945 378.776C278.503 378.587 279.178 378.353 279.844 378.119L279.781 377.633C279.007 377.858 278.26 378.065 277.72 378.2ZM278.296 373.286V378.191H278.845V373.502L278.296 373.286ZM279.637 374.042V376.769C279.637 378.128 279.466 379.388 277.999 380.315C278.134 380.405 278.314 380.612 278.395 380.729C279.988 379.721 280.195 378.308 280.195 376.778V374.042H279.637ZM282.256 373.079V378.209C282.256 378.29 282.229 378.317 282.157 378.317C282.094 378.317 281.878 378.317 281.635 378.308C281.716 378.461 281.797 378.713 281.815 378.866C282.184 378.866 282.427 378.848 282.607 378.749C282.778 378.65 282.823 378.479 282.823 378.218V373.079H282.256ZM279.961 372.458C279.565 372.791 278.89 373.25 278.404 373.502L278.8 373.871C279.295 373.619 279.943 373.232 280.429 372.854L279.961 372.458ZM280.834 373.079V380.72H281.392V373.646H282.58V373.079H280.834ZM288.38 376.202L287.723 376.346C288.344 378.632 289.541 380.117 291.728 380.738C291.836 380.549 292.034 380.261 292.196 380.108C290.09 379.595 288.902 378.218 288.38 376.202ZM284.321 375.941V376.625H291.728V375.941H284.321ZM284.042 373.142V373.826H291.962V373.142H284.042ZM287.588 373.331V375.428C287.588 377.075 287.237 379.01 283.871 380.153C284.015 380.288 284.213 380.576 284.285 380.747C287.894 379.496 288.299 377.327 288.299 375.428V373.331H287.588Z" fill="white"/>
<g clip-path="url(#clip3_22_1668)">
<path d="M53.7502 361.5C55.8249 361.503 57.8462 360.842 59.5178 359.613H59.5163C59.5613 359.673 59.6093 359.73 59.6633 359.785L65.4384 365.56C65.7197 365.842 66.1012 366 66.4991 366C66.8971 366 67.2787 365.842 67.5602 365.561C67.8417 365.28 67.9999 364.898 68 364.5C68.0001 364.102 67.8422 363.721 67.5609 363.439L61.7858 357.664C61.7322 357.61 61.6745 357.56 61.6133 357.514C62.842 355.844 63.5033 353.824 63.5004 351.75C63.4996 349.164 62.4721 346.685 60.6437 344.857C58.8154 343.028 56.3358 342.001 53.7502 342C51.1643 342 48.6843 343.027 46.8558 344.856C45.0272 346.684 44 349.164 44 351.75C44 354.336 45.0272 356.816 46.8558 358.644C48.6843 360.473 51.1643 361.5 53.7502 361.5ZM53.7502 348.723C56.2462 346.213 62.4878 350.604 53.7502 356.25C45.0125 350.604 51.2541 346.215 53.7502 348.723Z" fill="#6F7387"/>
</g>
<path d="M363.685 346.527C362.749 345.542 361.442 345 360 345C358.55 345 357.239 345.539 356.308 346.518C355.366 347.507 354.908 348.852 355.016 350.304C355.229 353.169 357.465 355.5 360 355.5C362.535 355.5 364.767 353.17 364.984 350.305C365.093 348.866 364.632 347.524 363.685 346.527ZM368.461 366H351.539C351.317 366.003 351.098 365.957 350.897 365.867C350.695 365.777 350.517 365.644 350.375 365.478C350.063 365.114 349.937 364.617 350.03 364.114C350.436 361.919 351.702 360.075 353.692 358.781C355.461 357.632 357.701 357 360 357C362.299 357 364.539 357.633 366.308 358.781C368.298 360.075 369.564 361.918 369.97 364.113C370.063 364.616 369.937 365.113 369.625 365.478C369.483 365.644 369.305 365.777 369.103 365.867C368.902 365.957 368.683 366.003 368.461 366Z" fill="#6F7387"/>
<path d="M291.304 346H275.696C274.716 346.001 273.777 346.366 273.084 347.015C272.391 347.664 272.001 348.544 272 349.462V358.692C272.001 359.61 272.391 360.49 273.084 361.139C273.777 361.788 274.716 362.153 275.696 362.154H276.929V365.231C276.929 365.377 276.973 365.52 277.057 365.643C277.141 365.767 277.26 365.865 277.402 365.927C277.543 365.989 277.701 366.012 277.855 365.994C278.01 365.975 278.156 365.915 278.276 365.821L282.973 362.154H291.304C292.284 362.153 293.223 361.788 293.916 361.139C294.609 360.49 294.999 359.61 295 358.692V349.462C294.999 348.544 294.609 347.664 293.916 347.015C293.223 346.366 292.284 346.001 291.304 346ZM278.571 355.615C278.247 355.615 277.929 355.525 277.659 355.356C277.389 355.187 277.178 354.947 277.054 354.666C276.929 354.384 276.897 354.075 276.96 353.777C277.024 353.478 277.18 353.204 277.41 352.989C277.64 352.774 277.932 352.627 278.251 352.568C278.57 352.509 278.9 352.539 279.2 352.656C279.5 352.772 279.757 352.969 279.937 353.222C280.118 353.475 280.214 353.773 280.214 354.077C280.214 354.485 280.041 354.876 279.733 355.165C279.425 355.453 279.007 355.615 278.571 355.615ZM283.5 355.615C283.175 355.615 282.857 355.525 282.587 355.356C282.317 355.187 282.107 354.947 281.982 354.666C281.858 354.384 281.825 354.075 281.889 353.777C281.952 353.478 282.109 353.204 282.338 352.989C282.568 352.774 282.861 352.627 283.179 352.568C283.498 352.509 283.829 352.539 284.129 352.656C284.429 352.772 284.685 352.969 284.866 353.222C285.047 353.475 285.143 353.773 285.143 354.077C285.143 354.485 284.97 354.876 284.662 355.165C284.354 355.453 283.936 355.615 283.5 355.615ZM288.429 355.615C288.104 355.615 287.786 355.525 287.516 355.356C287.246 355.187 287.035 354.947 286.911 354.666C286.786 354.384 286.754 354.075 286.817 353.777C286.881 353.478 287.037 353.204 287.267 352.989C287.497 352.774 287.789 352.627 288.108 352.568C288.427 352.509 288.757 352.539 289.057 352.656C289.357 352.772 289.614 352.969 289.795 353.222C289.975 353.475 290.071 353.773 290.071 354.077C290.071 354.485 289.898 354.876 289.59 355.165C289.282 355.453 288.864 355.615 288.429 355.615Z" fill="white"/>
<path d="M125.25 345C124.388 345 123.561 345.342 122.952 345.952C122.342 346.561 122 347.388 122 348.25V354.257C122.72 353.661 123.581 353.26 124.5 353.091V350.75C124.5 349.888 124.842 349.061 125.452 348.452C126.061 347.842 126.888 347.5 127.75 347.5H139V347.25C139 346.955 138.942 346.662 138.829 346.389C138.716 346.116 138.55 345.868 138.341 345.659C138.132 345.45 137.884 345.284 137.611 345.171C137.338 345.058 137.045 345 136.75 345H125.25ZM139.75 362.5H131.975L130.425 360.95C130.842 360.111 131.038 359.18 130.995 358.244C130.951 357.309 130.67 356.4 130.176 355.604C129.683 354.807 128.995 354.15 128.176 353.695C127.358 353.239 126.437 353 125.5 353V350.75C125.5 350.153 125.737 349.581 126.159 349.159C126.581 348.737 127.153 348.5 127.75 348.5H139.75C140.347 348.5 140.919 348.737 141.341 349.159C141.763 349.581 142 350.153 142 350.75V360.25C142 360.847 141.763 361.419 141.341 361.841C140.919 362.263 140.347 362.5 139.75 362.5ZM128.107 362.168C127.187 362.822 126.056 363.106 124.936 362.965C123.817 362.824 122.791 362.267 122.063 361.405C121.334 360.544 120.956 359.44 121.003 358.312C121.051 357.185 121.52 356.116 122.317 355.318C123.115 354.521 124.184 354.052 125.311 354.004C126.439 353.957 127.543 354.335 128.404 355.064C129.266 355.792 129.823 356.818 129.964 357.937C130.105 359.057 129.821 360.188 129.167 361.108L131.78 363.72C131.854 363.789 131.913 363.871 131.954 363.963C131.995 364.055 132.017 364.155 132.019 364.255C132.02 364.356 132.002 364.456 131.964 364.55C131.926 364.643 131.87 364.728 131.799 364.799C131.728 364.87 131.643 364.926 131.55 364.964C131.456 365.002 131.356 365.02 131.255 365.019C131.155 365.017 131.055 364.995 130.963 364.954C130.871 364.913 130.789 364.854 130.72 364.78L128.107 362.168ZM122.5 358.5C122.5 358.894 122.578 359.284 122.728 359.648C122.879 360.012 123.1 360.343 123.379 360.621C123.657 360.9 123.988 361.121 124.352 361.272C124.716 361.422 125.106 361.5 125.5 361.5C125.894 361.5 126.284 361.422 126.648 361.272C127.012 361.121 127.343 360.9 127.621 360.621C127.9 360.343 128.121 360.012 128.272 359.648C128.422 359.284 128.5 358.894 128.5 358.5C128.5 357.704 128.184 356.941 127.621 356.379C127.059 355.816 126.296 355.5 125.5 355.5C124.704 355.5 123.941 355.816 123.379 356.379C122.816 356.941 122.5 357.704 122.5 358.5Z" fill="#6F7387"/>
<path d="M196 348.562V360.438C196 361.382 196.395 362.288 197.099 362.957C197.802 363.625 198.756 364 199.751 364H216.249C217.244 364 218.198 363.625 218.901 362.957C219.605 362.288 220 361.382 220 360.438V348.562C220 347.618 219.605 346.712 218.901 346.043C218.198 345.375 217.244 345 216.249 345H199.752C198.757 345 197.803 345.375 197.1 346.043C196.396 346.712 196.001 347.618 196.001 348.562H196ZM210.998 352.838C210.998 352.649 211.078 352.467 211.218 352.334C211.359 352.2 211.55 352.125 211.749 352.125H215.249C215.448 352.125 215.639 352.2 215.78 352.334C215.92 352.467 215.999 352.649 215.999 352.838C215.999 353.026 215.92 353.208 215.78 353.341C215.639 353.475 215.448 353.55 215.249 353.55H211.749C211.55 353.55 211.359 353.475 211.218 353.341C211.078 353.208 210.998 353.026 210.998 352.838ZM211.749 355.45H215.249C215.448 355.45 215.639 355.525 215.78 355.659C215.92 355.792 215.999 355.974 215.999 356.162C215.999 356.351 215.92 356.533 215.78 356.666C215.639 356.8 215.448 356.875 215.249 356.875H211.749C211.55 356.875 211.359 356.8 211.218 356.666C211.078 356.533 210.998 356.351 210.998 356.162C210.998 355.974 211.078 355.792 211.218 355.659C211.359 355.525 211.55 355.45 211.749 355.45ZM208.998 352.6C208.998 352.978 208.84 353.34 208.559 353.608C208.277 353.875 207.896 354.025 207.498 354.025C207.1 354.025 206.718 353.875 206.437 353.608C206.156 353.34 205.998 352.978 205.998 352.6C205.998 352.222 206.156 351.86 206.437 351.592C206.718 351.325 207.1 351.175 207.498 351.175C207.896 351.175 208.277 351.325 208.559 351.592C208.84 351.86 208.998 352.222 208.998 352.6ZM200.997 354.975H204.497C204.763 354.975 205.017 355.075 205.205 355.253C205.392 355.431 205.498 355.673 205.498 355.925V356.875C205.498 356.875 205.498 358.775 202.747 358.775C199.997 358.775 199.997 356.875 199.997 356.875V355.925C199.997 355.673 200.102 355.431 200.29 355.253C200.477 355.075 200.732 354.975 200.997 354.975ZM204.497 352.362C204.497 352.803 204.313 353.226 203.985 353.538C203.657 353.85 203.211 354.025 202.747 354.025C202.283 354.025 201.838 353.85 201.509 353.538C201.181 353.226 200.997 352.803 200.997 352.362C200.997 351.922 201.181 351.499 201.509 351.187C201.838 350.875 202.283 350.7 202.747 350.7C203.211 350.7 203.657 350.875 203.985 351.187C204.313 351.499 204.497 351.922 204.497 352.362ZM207.498 357.825H206.283C206.389 357.577 206.458 357.316 206.488 357.05C206.493 357.002 206.496 356.955 206.498 356.907V355.925C206.498 355.579 206.4 355.254 206.23 354.975H208.498C208.763 354.975 209.018 355.075 209.205 355.253C209.393 355.431 209.498 355.673 209.498 355.925C209.498 356.429 209.288 356.912 208.912 357.269C208.537 357.625 208.028 357.825 207.498 357.825Z" fill="#6F7387"/>
<rect width="375" height="82" transform="translate(20 436)" fill="#383A44"/>
<rect width="375" height="82" transform="translate(20 436)" fill="#383A44"/>
<rect width="375" height="82" transform="translate(20 436)" fill="#383A44"/>
<rect width="375" height="82" transform="translate(20 436)" fill="#383A44"/>
<rect width="375" height="82" transform="translate(20 436)" fill="#383A44"/>
<rect x="141" y="505" width="134" height="5" rx="2.5" fill="white"/>
<path d="M354.558 472.989V480.72H355.188V473.592H359.175V480.648H359.823V472.989H354.558ZM355.557 474.897V475.428H358.869V474.897H355.557ZM354.9 479.577V480.18H359.535V479.577H354.9ZM356.925 473.88V476.733H357.474V473.88H356.925ZM356.457 476.922H357.978V478.317H356.457V476.922ZM355.935 476.418V478.83H358.518V476.418H355.935ZM353.622 472.485C353.181 473.853 352.443 475.212 351.633 476.094C351.75 476.256 351.939 476.625 351.993 476.787C352.893 475.752 353.73 474.204 354.243 472.665L353.622 472.485ZM352.875 474.69V480.738H353.514V474.06L353.505 474.051L352.875 474.69ZM364.543 472.719C364.48 473.916 364.48 478.245 360.808 480.117C361.015 480.27 361.24 480.477 361.357 480.648C365.083 478.623 365.218 474.132 365.29 472.719H364.543ZM365.263 472.899L364.615 472.962C364.678 473.79 364.93 478.821 368.746 480.648C368.854 480.459 369.061 480.234 369.259 480.081C365.551 478.38 365.29 473.601 365.263 472.899Z" fill="white"/>
<path d="M48.5228 476.643V477.192H53.4728V476.643H48.5228ZM48.5228 478.119V478.659H53.4728V478.119H48.5228ZM48.5228 479.604V480.207H53.4998V479.604H48.5228ZM46.9658 473.691V474.321H55.0208V473.691H46.9658ZM47.9918 475.158V480.72H48.6668V475.752H53.2838V480.72H53.9768V475.158H47.9918ZM50.6558 474.015C50.5838 474.438 50.4308 475.05 50.2778 475.455L50.9348 475.554C51.0968 475.167 51.3128 474.6 51.4838 474.069L50.6558 474.015ZM52.7978 472.431C52.5908 472.836 52.2218 473.403 51.9158 473.772L52.5008 473.961C52.8248 473.619 53.2208 473.115 53.5448 472.629L52.7978 472.431ZM48.5318 472.674C48.8468 473.016 49.2068 473.493 49.3598 473.808L49.9898 473.484C49.8098 473.178 49.4588 472.728 49.1258 472.413L48.5318 472.674ZM57.7973 476.229H62.3423V477.057H57.7973V476.229ZM57.7973 477.579H62.3423V478.407H57.7973V477.579ZM57.7973 474.897H62.3423V475.707H57.7973V474.897ZM57.0953 474.357V478.947H63.0623V474.357H57.0953ZM60.6773 479.541C61.7303 479.901 62.8013 480.378 63.4403 480.729L64.0703 480.27C63.3683 479.919 62.2163 479.451 61.1543 479.1L60.6773 479.541ZM56.2403 472.908V473.529H63.7553V472.908H56.2403ZM59.6693 473.169C59.6153 473.583 59.4803 474.186 59.3543 474.582L59.9933 474.699C60.1373 474.33 60.3083 473.781 60.4613 473.268L59.6693 473.169ZM58.7423 479.055C58.1213 479.469 56.8883 479.937 55.9163 480.198C56.0693 480.342 56.2763 480.576 56.3843 480.72C57.3473 480.45 58.5713 479.973 59.3543 479.496L58.7423 479.055Z" fill="#6F7387"/>
<path d="M122.894 478.002V478.632H131.084V478.002H122.894ZM126.224 474.024V474.501H127.772V474.024H126.224ZM128.762 472.899V473.466H130.22V472.899H128.762ZM128.825 474.618V475.176H130.148V474.618H128.825ZM128.807 476.301V476.859H130.121V476.301H128.807ZM123.839 474.618V475.176H125.171V474.618H123.839ZM123.884 476.301V476.859H125.162V476.301H123.884ZM125.441 472.899V478.272H125.954V473.43H128.033V478.272H128.564V472.899H125.441ZM126.656 475.527H127.313V476.733H126.656V475.527ZM126.305 475.086V477.174H127.673V475.086H126.305ZM123.56 472.926L123.722 478.263H124.307L124.154 473.205C124.262 473.187 124.316 473.151 124.325 473.097L123.56 472.926ZM129.86 472.899C129.869 474.6 129.788 476.985 129.689 478.335H130.274C130.373 477.012 130.445 474.636 130.463 472.899H129.86ZM125.09 472.494C124.766 472.719 124.217 473.007 123.749 473.205C123.821 473.34 123.911 473.547 123.947 473.682C124.46 473.502 125.072 473.259 125.567 472.998L125.09 472.494ZM127.808 479.226C128.78 479.703 129.806 480.306 130.418 480.738L131.048 480.27C130.391 479.838 129.293 479.235 128.294 478.776L127.808 479.226ZM125.495 478.767C124.937 479.262 123.839 479.883 122.957 480.252C123.119 480.378 123.353 480.594 123.479 480.729C124.334 480.36 125.432 479.739 126.134 479.181L125.495 478.767ZM135.03 472.809V473.394H139.314V472.809H135.03ZM137.505 474.24V474.798H139.647V474.24H137.505ZM135.822 474.465V474.996H137.379V474.465H135.822ZM135.822 476.112V476.661H137.379V476.112H135.822ZM137.118 473.043V479.658H137.676V473.043H137.118ZM135.534 473.007V478.371L136.083 478.263V473.007H135.534ZM134.841 478.344L134.967 478.911C135.651 478.749 136.533 478.533 137.388 478.326L137.325 477.804C136.398 478.02 135.471 478.218 134.841 478.344ZM139.485 474.24V474.375C139.305 476.598 138.729 478.173 137.829 479.001C137.955 479.091 138.144 479.334 138.225 479.469C139.197 478.569 139.836 476.85 140.061 474.33L139.71 474.231L139.602 474.24H139.485ZM138.36 475.059L137.883 475.167C138.207 477.048 138.819 478.713 139.863 479.541C139.953 479.397 140.133 479.199 140.268 479.091C139.269 478.38 138.648 476.796 138.36 475.059ZM132.186 473.511V474.105H135.147V473.511H132.186ZM131.961 475.167V475.779H135.318V475.167H131.961ZM133.833 476.913V477.525H135.255V476.913H133.833ZM133.473 472.44V475.545H134.094V472.44H133.473ZM133.608 475.581V479.685H134.211V475.581H133.608ZM132.879 477.57L132.384 477.741C133.005 480.009 134.121 480.486 136.551 480.486H139.908C139.953 480.288 140.079 479.982 140.187 479.82C139.647 479.847 136.965 479.838 136.551 479.838C134.454 479.838 133.392 479.46 132.879 477.57ZM132.357 476.472C132.393 477.687 132.33 479.217 131.718 480.315C131.853 480.378 132.069 480.567 132.168 480.702C132.87 479.496 132.942 477.849 132.924 476.499L132.357 476.472Z" fill="#6F7387"/>
<path d="M199.11 478.326V478.839H203.214V478.326H199.11ZM198.867 473.988V474.51H203.358V473.988H198.867ZM200.82 473.169V479.793H201.441V473.169H200.82ZM198.858 479.811L198.957 480.396C200.1 480.279 201.729 480.09 203.259 479.91L203.25 479.379C201.639 479.55 199.956 479.712 198.858 479.811ZM199.695 476.643H202.611V477.309H199.695V476.643ZM199.695 475.545H202.611V476.193H199.695V475.545ZM199.128 475.077V477.777H203.187V475.077H199.128ZM202.863 472.53C201.936 472.746 200.298 472.908 198.957 472.98C199.029 473.115 199.092 473.34 199.119 473.484C200.469 473.439 202.143 473.286 203.205 473.052L202.863 472.53ZM203.295 474.546V475.176H206.544V474.546H203.295ZM206.283 474.546V474.708C206.184 478.353 206.085 479.649 205.86 479.928C205.779 480.045 205.689 480.072 205.545 480.072C205.365 480.072 204.969 480.063 204.528 480.027C204.636 480.207 204.708 480.486 204.726 480.675C205.14 480.702 205.572 480.702 205.824 480.675C206.094 480.648 206.274 480.567 206.436 480.333C206.733 479.946 206.823 478.686 206.922 474.888C206.922 474.798 206.931 474.546 206.931 474.546H206.283ZM204.384 472.557C204.375 475.959 204.42 478.812 202.359 480.288C202.521 480.396 202.755 480.612 202.863 480.774C205.014 479.163 205.023 476.139 205.032 472.557H204.384ZM210.247 478.722V479.829C210.247 480.468 210.481 480.639 211.426 480.639C211.615 480.639 213.01 480.639 213.217 480.639C213.937 480.639 214.135 480.423 214.216 479.478C214.036 479.442 213.775 479.352 213.631 479.253C213.595 479.973 213.532 480.072 213.145 480.072C212.848 480.072 211.696 480.072 211.471 480.072C210.994 480.072 210.904 480.036 210.904 479.82V478.722H210.247ZM211.021 478.506C211.552 478.74 212.173 479.136 212.479 479.451L212.902 479.028C212.596 478.704 211.966 478.335 211.435 478.119L211.021 478.506ZM214.009 478.902C214.648 479.361 215.314 480.045 215.593 480.549L216.169 480.198C215.863 479.685 215.179 479.028 214.531 478.578L214.009 478.902ZM209.122 478.677C208.915 479.271 208.483 479.865 207.862 480.207L208.393 480.576C209.059 480.189 209.446 479.541 209.698 478.884L209.122 478.677ZM208.51 474.771V478.308H209.113V475.266H211.291V474.771H208.51ZM212.425 472.521V474.402C212.425 475.059 212.632 475.239 213.487 475.239C213.667 475.239 214.855 475.239 215.035 475.239C215.701 475.239 215.881 475.005 215.953 474.114C215.782 474.078 215.53 473.997 215.395 473.898C215.359 474.573 215.296 474.672 214.981 474.672C214.729 474.672 213.721 474.672 213.532 474.672C213.118 474.672 213.046 474.636 213.046 474.393V472.521H212.425ZM212.425 475.446V477.471C212.425 478.137 212.632 478.317 213.487 478.317C213.667 478.317 214.882 478.317 215.071 478.317C215.737 478.317 215.926 478.083 215.998 477.174C215.827 477.147 215.575 477.057 215.431 476.949C215.404 477.651 215.341 477.75 215.017 477.75C214.756 477.75 213.739 477.75 213.541 477.75C213.118 477.75 213.046 477.705 213.046 477.471V475.446H212.425ZM209.428 472.395C209.221 472.863 208.843 473.52 208.546 473.943L209.023 474.123C209.347 473.736 209.752 473.124 210.094 472.593L209.428 472.395ZM210.499 473.124C210.976 473.556 211.489 474.168 211.714 474.591L212.227 474.285C211.993 473.862 211.471 473.268 210.976 472.854L210.499 473.124ZM214.999 472.746C214.486 473.034 213.55 473.349 212.722 473.556C212.794 473.682 212.875 473.88 212.902 473.997C213.784 473.799 214.801 473.502 215.512 473.16L214.999 472.746ZM215.098 475.716C214.558 476.022 213.577 476.337 212.722 476.544C212.794 476.67 212.875 476.868 212.902 476.994C213.82 476.787 214.873 476.481 215.602 476.139L215.098 475.716ZM211.075 474.771V477.651C211.075 477.741 211.039 477.768 210.931 477.768C210.832 477.777 210.499 477.777 210.13 477.768C210.202 477.912 210.292 478.11 210.328 478.272C210.841 478.272 211.192 478.263 211.408 478.173C211.624 478.083 211.687 477.948 211.687 477.651V474.771H211.075ZM207.97 473.754L208.006 474.312C208.951 474.276 210.292 474.222 211.597 474.159L211.606 473.655C210.247 473.691 208.888 473.736 207.97 473.754ZM208.852 475.752V476.184H211.3V475.752H208.852ZM208.852 476.688V477.12H211.3V476.688H208.852Z" fill="#6F7387"/>
<path d="M274.903 472.836V473.439H278.017V472.836H274.903ZM275.641 474.726V475.293H277.261V474.726H275.641ZM275.641 476.58V477.156H277.261V476.58H275.641ZM275.362 473.142V478.902H275.929V473.142H275.362ZM276.937 473.133V480.729H277.522V473.133H276.937ZM274.804 478.803L274.93 479.433C275.614 479.289 276.46 479.1 277.288 478.911L277.243 478.326C276.334 478.515 275.434 478.695 274.804 478.803ZM277.72 478.2L277.945 478.776C278.503 478.587 279.178 478.353 279.844 478.119L279.781 477.633C279.007 477.858 278.26 478.065 277.72 478.2ZM278.296 473.286V478.191H278.845V473.502L278.296 473.286ZM279.637 474.042V476.769C279.637 478.128 279.466 479.388 277.999 480.315C278.134 480.405 278.314 480.612 278.395 480.729C279.988 479.721 280.195 478.308 280.195 476.778V474.042H279.637ZM282.256 473.079V478.209C282.256 478.29 282.229 478.317 282.157 478.317C282.094 478.317 281.878 478.317 281.635 478.308C281.716 478.461 281.797 478.713 281.815 478.866C282.184 478.866 282.427 478.848 282.607 478.749C282.778 478.65 282.823 478.479 282.823 478.218V473.079H282.256ZM279.961 472.458C279.565 472.791 278.89 473.25 278.404 473.502L278.8 473.871C279.295 473.619 279.943 473.232 280.429 472.854L279.961 472.458ZM280.834 473.079V480.72H281.392V473.646H282.58V473.079H280.834ZM288.38 476.202L287.723 476.346C288.344 478.632 289.541 480.117 291.728 480.738C291.836 480.549 292.034 480.261 292.196 480.108C290.09 479.595 288.902 478.218 288.38 476.202ZM284.321 475.941V476.625H291.728V475.941H284.321ZM284.042 473.142V473.826H291.962V473.142H284.042ZM287.588 473.331V475.428C287.588 477.075 287.237 479.01 283.871 480.153C284.015 480.288 284.213 480.576 284.285 480.747C287.894 479.496 288.299 477.327 288.299 475.428V473.331H287.588Z" fill="#6F7387"/>
<g clip-path="url(#clip4_22_1668)">
<path d="M53.7502 461.5C55.8249 461.503 57.8462 460.842 59.5178 459.613H59.5163C59.5613 459.673 59.6093 459.73 59.6633 459.785L65.4384 465.56C65.7197 465.842 66.1012 466 66.4991 466C66.8971 466 67.2787 465.842 67.5602 465.561C67.8417 465.28 67.9999 464.898 68 464.5C68.0001 464.102 67.8422 463.721 67.5609 463.439L61.7858 457.664C61.7322 457.61 61.6745 457.56 61.6133 457.514C62.842 455.844 63.5033 453.824 63.5004 451.75C63.4996 449.164 62.4721 446.685 60.6437 444.857C58.8154 443.028 56.3358 442.001 53.7502 442C51.1643 442 48.6843 443.027 46.8558 444.856C45.0272 446.684 44 449.164 44 451.75C44 454.336 45.0272 456.816 46.8558 458.644C48.6843 460.473 51.1643 461.5 53.7502 461.5ZM53.7502 448.723C56.2462 446.213 62.4878 450.604 53.7502 456.25C45.0125 450.604 51.2541 446.215 53.7502 448.723Z" fill="#6F7387"/>
</g>
<path d="M363.685 446.527C362.749 445.542 361.442 445 360 445C358.55 445 357.239 445.539 356.308 446.518C355.366 447.507 354.908 448.852 355.016 450.304C355.229 453.169 357.465 455.5 360 455.5C362.535 455.5 364.767 453.17 364.984 450.305C365.093 448.866 364.632 447.524 363.685 446.527ZM368.461 466H351.539C351.317 466.003 351.098 465.957 350.897 465.867C350.695 465.777 350.517 465.644 350.375 465.478C350.063 465.114 349.937 464.617 350.03 464.114C350.436 461.919 351.702 460.075 353.692 458.781C355.461 457.632 357.701 457 360 457C362.299 457 364.539 457.633 366.308 458.781C368.298 460.075 369.564 461.918 369.97 464.113C370.063 464.616 369.937 465.113 369.625 465.478C369.483 465.644 369.305 465.777 369.103 465.867C368.902 465.957 368.683 466.003 368.461 466Z" fill="white"/>
<path d="M291.304 446H275.696C274.716 446.001 273.777 446.366 273.084 447.015C272.391 447.664 272.001 448.544 272 449.462V458.692C272.001 459.61 272.391 460.49 273.084 461.139C273.777 461.788 274.716 462.153 275.696 462.154H276.929V465.231C276.929 465.377 276.973 465.52 277.057 465.643C277.141 465.767 277.26 465.865 277.402 465.927C277.543 465.989 277.701 466.012 277.855 465.994C278.01 465.975 278.156 465.915 278.276 465.821L282.973 462.154H291.304C292.284 462.153 293.223 461.788 293.916 461.139C294.609 460.49 294.999 459.61 295 458.692V449.462C294.999 448.544 294.609 447.664 293.916 447.015C293.223 446.366 292.284 446.001 291.304 446ZM278.571 455.615C278.247 455.615 277.929 455.525 277.659 455.356C277.389 455.187 277.178 454.947 277.054 454.666C276.929 454.384 276.897 454.075 276.96 453.777C277.024 453.478 277.18 453.204 277.41 452.989C277.64 452.774 277.932 452.627 278.251 452.568C278.57 452.509 278.9 452.539 279.2 452.656C279.5 452.772 279.757 452.969 279.937 453.222C280.118 453.475 280.214 453.773 280.214 454.077C280.214 454.485 280.041 454.876 279.733 455.165C279.425 455.453 279.007 455.615 278.571 455.615ZM283.5 455.615C283.175 455.615 282.857 455.525 282.587 455.356C282.317 455.187 282.107 454.947 281.982 454.666C281.858 454.384 281.825 454.075 281.889 453.777C281.952 453.478 282.109 453.204 282.338 452.989C282.568 452.774 282.861 452.627 283.179 452.568C283.498 452.509 283.829 452.539 284.129 452.656C284.429 452.772 284.685 452.969 284.866 453.222C285.047 453.475 285.143 453.773 285.143 454.077C285.143 454.485 284.97 454.876 284.662 455.165C284.354 455.453 283.936 455.615 283.5 455.615ZM288.429 455.615C288.104 455.615 287.786 455.525 287.516 455.356C287.246 455.187 287.035 454.947 286.911 454.666C286.786 454.384 286.754 454.075 286.817 453.777C286.881 453.478 287.037 453.204 287.267 452.989C287.497 452.774 287.789 452.627 288.108 452.568C288.427 452.509 288.757 452.539 289.057 452.656C289.357 452.772 289.614 452.969 289.795 453.222C289.975 453.475 290.071 453.773 290.071 454.077C290.071 454.485 289.898 454.876 289.59 455.165C289.282 455.453 288.864 455.615 288.429 455.615Z" fill="#6F7387"/>
<path d="M125.25 445C124.388 445 123.561 445.342 122.952 445.952C122.342 446.561 122 447.388 122 448.25V454.257C122.72 453.661 123.581 453.26 124.5 453.091V450.75C124.5 449.888 124.842 449.061 125.452 448.452C126.061 447.842 126.888 447.5 127.75 447.5H139V447.25C139 446.955 138.942 446.662 138.829 446.389C138.716 446.116 138.55 445.868 138.341 445.659C138.132 445.45 137.884 445.284 137.611 445.171C137.338 445.058 137.045 445 136.75 445H125.25ZM139.75 462.5H131.975L130.425 460.95C130.842 460.111 131.038 459.18 130.995 458.244C130.951 457.309 130.67 456.4 130.176 455.604C129.683 454.807 128.995 454.15 128.176 453.695C127.358 453.239 126.437 453 125.5 453V450.75C125.5 450.153 125.737 449.581 126.159 449.159C126.581 448.737 127.153 448.5 127.75 448.5H139.75C140.347 448.5 140.919 448.737 141.341 449.159C141.763 449.581 142 450.153 142 450.75V460.25C142 460.847 141.763 461.419 141.341 461.841C140.919 462.263 140.347 462.5 139.75 462.5ZM128.107 462.168C127.187 462.822 126.056 463.106 124.936 462.965C123.817 462.824 122.791 462.267 122.063 461.405C121.334 460.544 120.956 459.44 121.003 458.312C121.051 457.185 121.52 456.116 122.317 455.318C123.115 454.521 124.184 454.052 125.311 454.004C126.439 453.957 127.543 454.335 128.404 455.064C129.266 455.792 129.823 456.818 129.964 457.937C130.105 459.057 129.821 460.188 129.167 461.108L131.78 463.72C131.854 463.789 131.913 463.871 131.954 463.963C131.995 464.055 132.017 464.155 132.019 464.255C132.02 464.356 132.002 464.456 131.964 464.55C131.926 464.643 131.87 464.728 131.799 464.799C131.728 464.87 131.643 464.926 131.55 464.964C131.456 465.002 131.356 465.02 131.255 465.019C131.155 465.017 131.055 464.995 130.963 464.954C130.871 464.913 130.789 464.854 130.72 464.78L128.107 462.168ZM122.5 458.5C122.5 458.894 122.578 459.284 122.728 459.648C122.879 460.012 123.1 460.343 123.379 460.621C123.657 460.9 123.988 461.121 124.352 461.272C124.716 461.422 125.106 461.5 125.5 461.5C125.894 461.5 126.284 461.422 126.648 461.272C127.012 461.121 127.343 460.9 127.621 460.621C127.9 460.343 128.121 460.012 128.272 459.648C128.422 459.284 128.5 458.894 128.5 458.5C128.5 457.704 128.184 456.941 127.621 456.379C127.059 455.816 126.296 455.5 125.5 455.5C124.704 455.5 123.941 455.816 123.379 456.379C122.816 456.941 122.5 457.704 122.5 458.5Z" fill="#6F7387"/>
<path d="M196 448.562V460.438C196 461.382 196.395 462.288 197.099 462.957C197.802 463.625 198.756 464 199.751 464H216.249C217.244 464 218.198 463.625 218.901 462.957C219.605 462.288 220 461.382 220 460.438V448.562C220 447.618 219.605 446.712 218.901 446.043C218.198 445.375 217.244 445 216.249 445H199.752C198.757 445 197.803 445.375 197.1 446.043C196.396 446.712 196.001 447.618 196.001 448.562H196ZM210.998 452.838C210.998 452.649 211.078 452.467 211.218 452.334C211.359 452.2 211.55 452.125 211.749 452.125H215.249C215.448 452.125 215.639 452.2 215.78 452.334C215.92 452.467 215.999 452.649 215.999 452.838C215.999 453.026 215.92 453.208 215.78 453.341C215.639 453.475 215.448 453.55 215.249 453.55H211.749C211.55 453.55 211.359 453.475 211.218 453.341C211.078 453.208 210.998 453.026 210.998 452.838ZM211.749 455.45H215.249C215.448 455.45 215.639 455.525 215.78 455.659C215.92 455.792 215.999 455.974 215.999 456.162C215.999 456.351 215.92 456.533 215.78 456.666C215.639 456.8 215.448 456.875 215.249 456.875H211.749C211.55 456.875 211.359 456.8 211.218 456.666C211.078 456.533 210.998 456.351 210.998 456.162C210.998 455.974 211.078 455.792 211.218 455.659C211.359 455.525 211.55 455.45 211.749 455.45ZM208.998 452.6C208.998 452.978 208.84 453.34 208.559 453.608C208.277 453.875 207.896 454.025 207.498 454.025C207.1 454.025 206.718 453.875 206.437 453.608C206.156 453.34 205.998 452.978 205.998 452.6C205.998 452.222 206.156 451.86 206.437 451.592C206.718 451.325 207.1 451.175 207.498 451.175C207.896 451.175 208.277 451.325 208.559 451.592C208.84 451.86 208.998 452.222 208.998 452.6ZM200.997 454.975H204.497C204.763 454.975 205.017 455.075 205.205 455.253C205.392 455.431 205.498 455.673 205.498 455.925V456.875C205.498 456.875 205.498 458.775 202.747 458.775C199.997 458.775 199.997 456.875 199.997 456.875V455.925C199.997 455.673 200.102 455.431 200.29 455.253C200.477 455.075 200.732 454.975 200.997 454.975ZM204.497 452.362C204.497 452.803 204.313 453.226 203.985 453.538C203.657 453.85 203.211 454.025 202.747 454.025C202.283 454.025 201.838 453.85 201.509 453.538C201.181 453.226 200.997 452.803 200.997 452.362C200.997 451.922 201.181 451.499 201.509 451.187C201.838 450.875 202.283 450.7 202.747 450.7C203.211 450.7 203.657 450.875 203.985 451.187C204.313 451.499 204.497 451.922 204.497 452.362ZM207.498 457.825H206.283C206.389 457.577 206.458 457.316 206.488 457.05C206.493 457.002 206.496 456.955 206.498 456.907V455.925C206.498 455.579 206.4 455.254 206.23 454.975H208.498C208.763 454.975 209.018 455.075 209.205 455.253C209.393 455.431 209.498 455.673 209.498 455.925C209.498 456.429 209.288 456.912 208.912 457.269C208.537 457.625 208.028 457.825 207.498 457.825Z" fill="#6F7387"/>
<rect x="0.5" y="0.5" width="414" height="537" rx="4.5" stroke="#7B61FF" stroke-dasharray="10 5"/>
<defs>
<clipPath id="clip0_22_1668">
<rect width="24" height="24" fill="white" transform="translate(44 26)"/>
</clipPath>
<clipPath id="clip1_22_1668">
<rect width="24" height="24" fill="white" transform="translate(44 126)"/>
</clipPath>
<clipPath id="clip2_22_1668">
<rect width="24" height="24" fill="white" transform="translate(44 226)"/>
</clipPath>
<clipPath id="clip3_22_1668">
<rect width="24" height="24" fill="white" transform="translate(44 342)"/>
</clipPath>
<clipPath id="clip4_22_1668">
<rect width="24" height="24" fill="white" transform="translate(44 442)"/>
</clipPath>
</defs>
</svg>
