<svg width="343" height="40" viewBox="0 0 343 40" fill="none" xmlns="http://www.w3.org/2000/svg">
<rect width="343" height="40" rx="20" fill="#4A4D5A"/>
<path d="M30 27C31.775 26.9996 33.4988 26.4054 34.897 25.312L39.293 29.708L40.707 28.294L36.311 23.898C37.405 22.4997 37.9996 20.7754 38 19C38 14.589 34.411 11 30 11C25.589 11 22 14.589 22 19C22 23.411 25.589 27 30 27ZM30 13C33.309 13 36 15.691 36 19C36 22.309 33.309 25 30 25C26.691 25 24 22.309 24 19C24 15.691 26.691 13 30 13Z" fill="#6F7387"/>
<path d="M55.77 13.758C55.308 14.122 54.51 14.514 53.796 14.78C53.922 14.99 54.062 15.298 54.118 15.494C54.902 15.242 55.826 14.878 56.54 14.458L55.77 13.758ZM53.6 14.486V19.288H54.524V14.78L53.6 14.486ZM53.6 18.812V19.68H60.88V14.402H58.15V15.256H59.928V18.812H53.6ZM54.006 16.614V17.412H56.05V16.614H54.006ZM58.206 16.614V17.412H60.348V16.614H58.206ZM56.68 13.254V21.15H57.632V13.254H56.68ZM53.222 20.954V21.85H60.096V20.954H53.222ZM59.802 20.954V21.108C58.696 23.6 55.63 24.832 52.424 25.252C52.606 25.476 52.802 25.882 52.886 26.148C56.316 25.588 59.508 24.216 60.838 21.234L60.18 20.912L59.998 20.954H59.802ZM55.056 21.752L54.132 22.102C55.448 24.272 57.912 25.644 60.922 26.218C61.062 25.924 61.342 25.518 61.58 25.294C58.64 24.832 56.19 23.628 55.056 21.752ZM48.392 20.688L48.672 21.71C49.974 21.332 51.654 20.8 53.25 20.296L53.124 19.344C51.388 19.848 49.596 20.38 48.392 20.688ZM48.574 16.068V17.048H53.11V16.068H48.574ZM50.52 13.254V24.916C50.52 25.112 50.45 25.182 50.254 25.182C50.086 25.182 49.498 25.182 48.868 25.168C48.994 25.448 49.148 25.868 49.176 26.12C50.114 26.134 50.674 26.106 51.038 25.938C51.402 25.784 51.542 25.49 51.542 24.916V13.254H50.52ZM64.303 13.814V14.556H72.493V16.95H64.219V17.706H73.529V13.814H64.303ZM70.309 19.162H73.529V20.52H70.309V19.162ZM69.315 18.406V21.262H74.551V18.406H69.315ZM64.639 15.396V16.11H72.941V15.396H64.639ZM63.225 18.406V19.204H68.349V18.406H63.225ZM62.679 22.172V23.054H75.391V22.172H62.679ZM71.457 21.248V24.958C71.457 25.14 71.401 25.196 71.149 25.21C70.911 25.224 70.085 25.224 69.147 25.196C69.287 25.476 69.455 25.854 69.497 26.134C70.701 26.134 71.443 26.12 71.905 25.966C72.367 25.826 72.493 25.546 72.493 24.972V21.248H71.457ZM65.269 18.7V20.772H66.249V18.7H65.269ZM62.945 20.744L63.043 21.584C64.527 21.472 66.613 21.318 68.629 21.15V20.352C66.515 20.506 64.373 20.66 62.945 20.744ZM65.003 23.572C65.829 24.062 66.781 24.804 67.229 25.35L67.985 24.664C67.509 24.132 66.543 23.418 65.717 22.97L65.003 23.572ZM77.0544 24.3301C77.0544 24.1159 77.1205 23.9359 77.2526 23.79C77.3893 23.6396 77.5853 23.5645 77.8405 23.5645C78.0957 23.5645 78.2894 23.6396 78.4216 23.79C78.5583 23.9359 78.6266 24.1159 78.6266 24.3301C78.6266 24.5397 78.5583 24.7174 78.4216 24.8633C78.2894 25.0091 78.0957 25.082 77.8405 25.082C77.5853 25.082 77.3893 25.0091 77.2526 24.8633C77.1205 24.7174 77.0544 24.5397 77.0544 24.3301ZM80.7808 24.3301C80.7808 24.1159 80.8469 23.9359 80.979 23.79C81.1157 23.6396 81.3117 23.5645 81.5669 23.5645C81.8221 23.5645 82.0158 23.6396 82.148 23.79C82.2847 23.9359 82.353 24.1159 82.353 24.3301C82.353 24.5397 82.2847 24.7174 82.148 24.8633C82.0158 25.0091 81.8221 25.082 81.5669 25.082C81.3117 25.082 81.1157 25.0091 80.979 24.8633C80.8469 24.7174 80.7808 24.5397 80.7808 24.3301ZM84.5072 24.3301C84.5072 24.1159 84.5733 23.9359 84.7054 23.79C84.8421 23.6396 85.0381 23.5645 85.2933 23.5645C85.5485 23.5645 85.7422 23.6396 85.8744 23.79C86.0111 23.9359 86.0795 24.1159 86.0795 24.3301C86.0795 24.5397 86.0111 24.7174 85.8744 24.8633C85.7422 25.0091 85.5485 25.082 85.2933 25.082C85.0381 25.082 84.8421 25.0091 84.7054 24.8633C84.5733 24.7174 84.5072 24.5397 84.5072 24.3301Z" fill="#A8ABBD"/>
</svg>
