<svg width="295" height="50" viewBox="0 0 295 50" fill="none" xmlns="http://www.w3.org/2000/svg">
<rect x="0.5" y="0.5" width="294" height="49" rx="24.5" fill="#4A4D5A" stroke="#6F7387"/>
<path d="M27.77 21.824V22.692H31.648V21.824H27.77ZM26.874 25.646V26.402H29.17V25.646H26.874ZM26.874 27.564V28.362H29.17V27.564H26.874ZM30.346 24.078V29.006H31.116V24.078H30.346ZM29.716 19.276C30.5 20.536 31.886 21.922 33.174 22.748C33.328 22.454 33.538 22.076 33.748 21.824C32.432 21.124 31.018 19.724 30.15 18.296H29.198C28.54 19.626 27.182 21.152 25.782 22.006C25.95 22.23 26.188 22.594 26.3 22.86C27.714 21.95 29.016 20.508 29.716 19.276ZM26.398 23.77V31.078H27.168V24.568H29.016V23.77H26.398ZM28.778 23.77V30.21C28.778 30.322 28.736 30.364 28.638 30.364C28.54 30.364 28.26 30.364 27.938 30.364C28.022 30.574 28.134 30.91 28.162 31.12C28.666 31.12 29.002 31.106 29.254 30.98C29.478 30.826 29.548 30.602 29.548 30.224V23.77H28.778ZM32.222 23.546V30.084C32.222 30.238 32.166 30.28 32.012 30.294C31.858 30.308 31.34 30.308 30.752 30.294C30.864 30.518 30.99 30.868 31.018 31.078C31.844 31.078 32.348 31.078 32.684 30.952C32.992 30.798 33.09 30.56 33.09 30.098V23.546H32.222ZM20.714 19.752V20.69H26.048V19.752H20.714ZM20.546 27.746V28.684H26.006V27.746H20.546ZM22.856 18.24V22.09H23.794V18.24H22.856ZM22.968 22.146V26.22H22.856V31.148H23.794V26.22H23.682V22.146H22.968ZM21.708 24.554H24.942V25.828H21.708V24.554ZM21.708 22.538H24.942V23.798H21.708V22.538ZM20.924 21.74V26.612H25.74V21.74H20.924ZM37.213 19.094V20.158H41.175V19.094H37.213ZM40.643 19.094C40.643 21.726 41.105 27.69 46.705 31.078C46.901 30.826 47.321 30.378 47.559 30.196C42.029 26.92 41.721 21.6 41.721 19.094H40.643ZM40.251 21.838C39.397 25.8 37.647 28.628 34.539 30.252C34.819 30.448 35.295 30.882 35.491 31.106C38.585 29.286 40.433 26.332 41.441 22.062L40.251 21.838ZM49.596 21.376V31.134H50.66V22.412H60.068V21.376H49.596ZM59.55 21.376V29.748C59.55 29.972 59.48 30.042 59.228 30.056C58.962 30.07 58.066 30.07 57.156 30.042C57.31 30.336 57.478 30.812 57.52 31.12C58.696 31.12 59.522 31.106 59.998 30.938C60.474 30.756 60.614 30.42 60.614 29.762V21.376H59.55ZM52.046 18.87V19.808H55.042V18.87H52.046ZM54.328 18.87V19.388H54.552C54.762 23.462 55.84 26.416 58.654 27.816C58.822 27.536 59.172 27.13 59.396 26.906C56.652 25.73 55.658 22.902 55.49 18.87H54.328ZM54.44 21.656C54.076 24.288 52.9 26.038 50.786 27.074C51.01 27.242 51.346 27.648 51.5 27.886C53.754 26.724 54.958 24.708 55.434 21.824L54.44 21.656ZM66.739 21.166C65.941 22.188 64.625 23.168 63.365 23.798C63.589 23.994 63.967 24.414 64.121 24.624C65.395 23.882 66.823 22.72 67.747 21.488L66.739 21.166ZM70.309 21.754C71.611 22.566 73.179 23.756 73.935 24.568L74.719 23.854C73.921 23.056 72.311 21.894 71.023 21.152L70.309 21.754ZM69.119 23.686C70.421 25.268 72.885 27.018 74.971 27.998C75.139 27.704 75.391 27.312 75.629 27.06C73.473 26.178 71.079 24.512 69.581 22.72H68.531C67.425 24.316 65.101 26.178 62.735 27.256C62.945 27.48 63.211 27.872 63.337 28.124C65.675 26.99 67.971 25.198 69.119 23.686ZM65.241 26.43V31.134H66.263V27.368H71.933V31.078H72.997V26.43H65.241ZM65.731 29.72V30.658H72.493V29.72H65.731ZM68.531 18.24V20.074H69.609V18.24H68.531ZM63.253 19.542V22.09H64.289V20.494H73.879V22.09H74.943V19.542H63.253Z" fill="white"/>
</svg>
