<svg width="270" height="249" viewBox="0 0 270 249" fill="none" xmlns="http://www.w3.org/2000/svg">
<rect x="0.5" y="0.5" width="269" height="227" rx="19.5" fill="#4A4D5A" stroke="#6F7387"/>
<path d="M17.0146 26.96V27.66H25.9246V26.96H17.0146ZM17.2946 21.78V22.47H25.6846V21.78H17.2946ZM19.3346 23.48V24.12H23.6246V23.48H19.3346ZM19.3346 25.21V25.86H23.6246V25.21H19.3346ZM18.8546 20.62V27.27H19.5946V20.62H18.8546ZM23.3246 20.62V27.27H24.0846V20.62H23.3246ZM22.2046 28.36C23.3746 28.79 24.5646 29.34 25.2746 29.76L25.9546 29.27C25.1746 28.85 23.9046 28.3 22.7146 27.88L22.2046 28.36ZM20.0846 27.82C19.3746 28.31 17.9946 28.9 16.9146 29.21C17.0746 29.37 17.3046 29.63 17.4146 29.78C18.4946 29.43 19.8546 28.85 20.7446 28.3L20.0846 27.82ZM27.4696 22.59V23.32H34.8996V22.59H27.4696ZM31.0896 20.62V22.9H31.8596V20.62H31.0896ZM34.6596 22.59V22.77C33.6396 24.49 31.3496 26.85 29.3396 28.04C29.5196 28.17 29.7596 28.4 29.8796 28.56C31.9496 27.28 34.2996 24.93 35.5396 22.9L34.9796 22.54L34.8296 22.59H34.6596ZM29.0396 26.83L28.3996 27.1C29.3396 29.2 31.0196 29.63 33.4996 29.63H35.8396C35.8796 29.42 36.0096 29.07 36.1196 28.89C35.6596 28.9 33.8796 28.9 33.5396 28.9C31.4196 28.9 29.7796 28.57 29.0396 26.83ZM27.5296 29.79C28.2996 28.65 29.0196 27.18 29.3996 26.25L28.6696 25.97C28.2796 27.04 27.5196 28.47 26.8096 29.36L27.5296 29.79ZM36.9746 21.45V22.15H40.2346V21.45H36.9746ZM40.0346 22.38V23.08H46.1746V22.38H40.0346ZM37.0946 24.26V24.96H40.0746V24.26H37.0946ZM36.8446 27.81L37.0446 28.52C37.9646 28.21 39.1946 27.79 40.3546 27.38L40.2446 26.73C38.9946 27.13 37.6946 27.56 36.8446 27.81ZM42.6346 20.6V28.86C42.6346 29.03 42.5746 29.08 42.4146 29.08C42.2546 29.09 41.7446 29.1 41.1646 29.08C41.2746 29.28 41.3946 29.6 41.4346 29.8C42.2146 29.8 42.6746 29.78 42.9646 29.65C43.2446 29.52 43.3646 29.31 43.3646 28.85V20.6H42.6346ZM39.4746 28.1L39.8746 28.76C40.5946 28.3 41.5046 27.68 42.3346 27.09L42.1146 26.47C41.1446 27.08 40.1346 27.73 39.4746 28.1ZM40.2746 23.99C40.7246 24.56 41.1946 25.35 41.3846 25.85L41.9946 25.54C41.8146 25.04 41.3146 24.27 40.8646 23.72L40.2746 23.99ZM45.3846 23.61C45.0646 24.2 44.5046 25.01 44.0846 25.5L44.6146 25.81C45.0446 25.34 45.6046 24.6 46.0346 23.97L45.3846 23.61ZM44.0246 21.11C44.5546 21.42 45.1846 21.9 45.4946 22.24L45.9246 21.78C45.6146 21.45 44.9746 20.99 44.4446 20.7L44.0246 21.11ZM38.2246 21.74V27.68L38.9546 27.53V21.74H38.2246ZM43.3346 23.21L42.7046 23.32C43.1246 26.12 43.8846 27.72 45.8346 29.12C45.9246 28.91 46.1346 28.67 46.3046 28.54C44.4646 27.3 43.7146 25.85 43.3346 23.21ZM50.3896 21.23V21.93H54.2396V21.23H50.3896ZM53.9296 21.23V21.32C53.8096 22.12 53.5096 23.71 53.2496 24.83L53.9396 24.91C54.1796 23.8 54.4696 22.31 54.6396 21.27L54.1296 21.19L54.0196 21.23H53.9296ZM53.8396 23.76L53.6396 24.44H55.5096V23.76H53.8396ZM55.2596 23.76V23.91C54.7296 26.62 53.2596 28.36 51.3996 29.24C51.5596 29.35 51.7996 29.63 51.9096 29.8C53.8096 28.83 55.3696 26.95 55.9796 23.91L55.5396 23.73L55.3996 23.76H55.2596ZM52.0096 22.32L51.4596 22.42C52.0396 25.92 53.1796 28.73 55.7796 29.81C55.8896 29.62 56.0996 29.34 56.2696 29.2C53.7296 28.27 52.5596 25.55 52.0096 22.32ZM48.4996 20.61C48.2396 21.27 47.7796 22.23 47.3996 22.8L47.9196 23.04C48.3096 22.49 48.7796 21.6 49.1596 20.87L48.4996 20.61ZM49.6196 21.75C49.0896 22.83 48.1496 24.35 47.4096 25.25L47.8696 25.51C48.6096 24.63 49.5696 23.18 50.2496 22.03L49.6196 21.75ZM46.9196 22.71C47.4596 23.19 48.0896 23.89 48.3596 24.36L48.7596 23.79C48.4896 23.34 47.8596 22.69 47.2996 22.22L46.9196 22.71ZM49.3796 24.07C49.7696 24.73 50.1596 25.61 50.2896 26.17L50.8596 25.91C50.7196 25.36 50.3196 24.5 49.9096 23.86L49.3796 24.07ZM46.8896 25.09L46.9496 25.77C47.8796 25.71 49.0996 25.63 50.3196 25.54L50.3296 24.93C49.0396 25 47.7596 25.06 46.8896 25.09ZM49.5496 26.42C49.7996 26.98 50.0496 27.72 50.1396 28.21L50.7196 28.01C50.6196 27.53 50.3696 26.79 50.0896 26.25L49.5496 26.42ZM47.4496 26.32C47.3296 27.2 47.1296 28.09 46.7996 28.7C46.9596 28.77 47.2596 28.91 47.3896 28.99C47.7096 28.35 47.9596 27.38 48.0996 26.44L47.4496 26.32ZM48.5296 25.37V29.83H49.1996V25.37H48.5296ZM51.3596 21.65V23.41C51.3596 25.13 51.2296 27.56 49.7696 29.39C49.9396 29.47 50.2096 29.67 50.3296 29.78C51.8596 27.86 52.0296 25.28 52.0296 23.41V21.65H51.3596ZM61.0146 21.78V22.46H65.8346V21.78H61.0146ZM60.5546 23.7V24.4H66.2246V23.7H60.5546ZM60.6246 25.49V26.18H66.0846V25.49H60.6246ZM63.0046 20.6V24.05H63.7546V20.6H63.0046ZM64.2246 24.34V28.91C64.2246 29.05 64.1746 29.09 64.0146 29.1C63.8546 29.11 63.3146 29.11 62.7246 29.09C62.8246 29.29 62.9446 29.58 62.9746 29.78C63.7546 29.78 64.2546 29.78 64.5546 29.67C64.8646 29.56 64.9546 29.34 64.9546 28.92V24.34H64.2246ZM61.2446 26.79C61.6446 27.32 62.0746 28.03 62.2646 28.49L62.9046 28.19C62.7146 27.73 62.2546 27.04 61.8546 26.53L61.2446 26.79ZM57.4046 23.69V24.29H60.2446V23.69H57.4046ZM57.4446 20.96V21.56H60.2046V20.96H57.4446ZM57.4046 25.06V25.66H60.2446V25.06H57.4046ZM56.9546 22.3V22.92H60.5046V22.3H56.9546ZM57.7346 26.44V27.05H59.5946V28.73H57.7346V29.35H60.2446V26.44H57.7346ZM57.3946 26.44V29.78H58.0346V26.44H57.3946ZM70.7796 20.63C70.1596 20.81 69.0196 20.98 68.0596 21.08C68.1396 21.21 68.2196 21.43 68.2496 21.56C69.2596 21.49 70.4696 21.33 71.2896 21.09L70.7796 20.63ZM75.0796 20.64C74.3996 20.83 73.1796 20.99 72.1596 21.08C72.2296 21.22 72.3096 21.42 72.3396 21.56C73.4196 21.5 74.7096 21.35 75.5796 21.11L75.0796 20.64ZM67.8596 20.87V21.87C67.8596 22.51 67.7496 23.31 67.0296 23.97C67.1896 24.06 67.4296 24.29 67.5396 24.45C68.3596 23.68 68.5396 22.63 68.5396 21.9V21.24C68.6696 21.22 68.7196 21.18 68.7296 21.11L67.8596 20.87ZM71.9596 20.9V21.79C71.9596 22.36 71.8096 23 70.9896 23.53C71.1496 23.63 71.3696 23.87 71.4596 24.03C72.4196 23.38 72.6296 22.48 72.6296 21.82V21.24C72.7596 21.22 72.8096 21.18 72.8196 21.11L71.9596 20.9ZM68.1696 22.05V22.64H71.5496V22.05H68.1696ZM72.2596 22.05V22.64H76.0696V22.05H72.2596ZM69.6996 22.27V23.89H70.3796V22.27H69.6996ZM73.8996 22.27V23.92H74.5796V22.27H73.8996ZM69.1096 25.79H74.1696V26.49H69.1096V25.79ZM69.1096 26.97H74.1696V27.69H69.1096V26.97ZM69.1096 24.6H74.1696V25.3H69.1096V24.6ZM68.3796 24.1V28.2H74.9196V24.1H68.3796ZM72.4296 28.71C73.5196 29.07 74.6096 29.5 75.2396 29.83L76.0696 29.45C75.3496 29.11 74.1396 28.67 73.0396 28.33L72.4296 28.71ZM70.0796 28.31C69.3596 28.7 68.1596 29.05 67.1296 29.27C67.2996 29.4 67.5596 29.69 67.6796 29.84C68.6796 29.56 69.9496 29.1 70.7596 28.62L70.0796 28.31ZM81.4346 20.6L81.4846 28.75C81.4946 28.96 81.4146 29.02 81.2046 29.03C80.9946 29.03 80.2546 29.04 79.5046 29.03C79.6246 29.24 79.7646 29.6 79.8046 29.82C80.7646 29.81 81.4146 29.79 81.7646 29.67C82.1346 29.53 82.2746 29.3 82.2646 28.74L82.2146 20.59L81.4346 20.6ZM77.2846 22.55V23.29H85.9946V22.55H77.2846ZM84.3946 23.8C82.8546 25.41 79.8146 26.85 76.9546 27.58C77.0846 27.75 77.2846 28.08 77.3746 28.26C80.3146 27.46 83.2746 26.01 85.1146 24.25L84.3946 23.8ZM93.0196 22.46V23.16H96.2496V22.46H93.0196ZM93.2196 20.6C92.9896 22.33 92.5696 24.03 91.8596 25.12C92.0296 25.24 92.3196 25.51 92.4296 25.64C93.1796 24.45 93.6596 22.61 93.9496 20.71L93.2196 20.6ZM94.9896 22.83C94.6496 25.88 93.8496 28.01 91.8196 29.21C91.9496 29.36 92.1696 29.67 92.2396 29.83C94.4096 28.43 95.2896 26.22 95.6996 22.9L94.9896 22.83ZM93.3896 23.09L92.7496 23.19C93.1796 26.18 94.0096 28.65 95.7796 29.81C95.8996 29.63 96.1296 29.36 96.2996 29.22C94.5996 28.21 93.7696 25.83 93.3896 23.09ZM89.3596 20.6V25.85H90.0296V20.6H89.3596ZM88.3696 21.74H91.0996V23.41H88.3696V21.74ZM87.7296 21.21V23.94H91.7596V21.21H87.7296ZM88.1296 24.91H91.3296V25.56H88.1296V24.91ZM87.4796 24.4V26.07H91.9996V24.4H87.4796ZM87.0496 26.71L87.0696 27.31C88.4396 27.29 90.5096 27.26 92.4996 27.21L92.5296 26.64C90.4996 26.68 88.3996 26.71 87.0496 26.71ZM89.0496 25.91C88.6596 26.68 88.0896 27.7 87.6796 28.34L88.2996 28.52C88.6996 27.87 89.2696 26.87 89.6896 26.06L89.0496 25.91ZM88.2496 28.16C89.4096 28.58 90.5796 29.15 91.2696 29.64L91.7496 29.17C91.0196 28.68 89.7896 28.11 88.6196 27.71L88.2496 28.16ZM90.8496 26.95C90.4796 28.36 89.3596 29 87.2896 29.25C87.4096 29.4 87.5396 29.65 87.5796 29.84C89.8596 29.45 91.0996 28.69 91.4996 27.06L90.8496 26.95ZM87.0396 22.28V22.86H87.9996V22.82H91.4496V22.86H92.4696V22.28H91.4496V22.32H87.9996V22.28H87.0396ZM99.2446 26.43V25.75H104.145V26.43H99.2446ZM99.2446 25.25V24.59H104.145V25.25H99.2446ZM104.895 24.07H98.5246V26.94H104.895V24.07ZM104.065 21.96L103.295 21.79C103.175 22.11 102.945 22.58 102.765 22.89L103.435 23.07C103.625 22.77 103.845 22.38 104.065 21.96ZM100.035 21.8L99.3546 21.96C99.5546 22.3 99.7346 22.75 99.8046 23.07L100.515 22.88C100.445 22.59 100.245 22.14 100.035 21.8ZM102.035 20.6H101.275V21.69H102.035V20.6ZM105.995 22.96H97.3946V23.57H105.995V22.96ZM105.475 21.27H97.8446V21.88H105.475V21.27ZM99.1346 27.68L98.5146 27.44C98.2546 28.11 97.7846 28.79 97.0946 29.18L97.6746 29.58C98.4146 29.14 98.8546 28.4 99.1346 27.68ZM104.485 27.36L103.915 27.7C104.595 28.22 105.335 28.98 105.665 29.51L106.275 29.13C105.935 28.59 105.165 27.86 104.485 27.36ZM101.125 26.93L100.705 27.33C101.275 27.64 101.975 28.11 102.335 28.43L102.775 27.98C102.405 27.66 101.685 27.22 101.125 26.93ZM100.375 28.81V27.52H99.6446V28.81C99.6446 29.53 99.9046 29.72 100.935 29.72C101.145 29.72 102.605 29.72 102.825 29.72C103.635 29.72 103.865 29.45 103.945 28.33C103.755 28.28 103.455 28.18 103.295 28.08C103.245 28.96 103.185 29.08 102.755 29.08C102.435 29.08 101.225 29.08 100.985 29.08C100.465 29.08 100.375 29.04 100.375 28.81ZM108.27 30.07C109.32 29.71 110 28.89 110 27.81C110 27.11 109.7 26.65 109.14 26.65C108.74 26.65 108.38 26.9 108.38 27.37C108.38 27.85 108.72 28.09 109.13 28.09C109.32 28.09 109.52 28.04 109.66 27.86L109.12 27.1L109.31 27.95C109.31 28.7 108.86 29.21 108.04 29.55L108.27 30.07ZM117.345 21.19V21.71H126.115V21.19H117.345ZM117.335 29.03V29.58H126.125V29.03H117.335ZM118.075 22.24V22.73H125.385V22.24H118.075ZM118.505 26V26.47H124.895V26H118.505ZM118.295 28V28.5H125.215V28H118.295ZM117.525 25.05V26.48H118.215V25.57H125.205V26.48H125.925V25.05H117.525ZM121.315 20.6V22.53H122.075V20.6H121.315ZM121.315 27.29V29.31H122.075V27.29H121.315ZM119.235 23.6H124.215V24.18H119.235V23.6ZM118.525 23.16V24.62H124.955V23.16H118.525ZM120.335 26.09C120.115 26.41 119.715 26.86 119.405 27.17L120.005 27.33C120.335 27.06 120.765 26.66 121.105 26.25L120.335 26.09ZM118.075 27.01L118.105 27.52C119.765 27.52 122.205 27.49 124.535 27.46L124.565 27.02C122.185 27.03 119.665 27.03 118.075 27.01ZM122.745 26.65C123.565 26.95 124.555 27.49 125.065 27.89L125.525 27.48C124.995 27.09 123.995 26.57 123.185 26.28L122.745 26.65ZM128.28 25.23V25.91H135.33V21.19H132.06V21.87H134.58V25.23H128.28ZM130.95 20.62C130.38 20.93 129.35 21.26 128.45 21.49C128.54 21.64 128.64 21.88 128.68 22.04C129.65 21.82 130.78 21.51 131.58 21.12L130.95 20.62ZM128.28 21.26V25.6H129.02V21.49L128.28 21.26ZM128.7 23.17V23.82H131.24V23.17H128.7ZM132.17 23.17V23.82H134.96V23.17H132.17ZM132.5 25.7V28.62C132.5 29.45 132.74 29.69 133.66 29.69C133.86 29.69 134.97 29.69 135.18 29.69C136.01 29.69 136.23 29.3 136.32 27.74C136.11 27.69 135.78 27.57 135.62 27.44C135.58 28.78 135.52 28.97 135.11 28.97C134.86 28.97 133.93 28.97 133.74 28.97C133.33 28.97 133.26 28.92 133.26 28.62V25.7H132.5ZM129.93 25.76C129.78 27.46 129.37 28.6 127.11 29.18C127.27 29.33 127.48 29.64 127.56 29.84C130.02 29.14 130.54 27.77 130.74 25.76H129.93ZM140.865 21.17V21.84H146.255V21.17H140.865ZM141.135 26.3V26.97H146.005V26.3H141.135ZM140.495 28.85V29.52H146.385V28.85H140.495ZM143.165 26.56V29.26H143.915V26.56H143.165ZM141.825 22.15C141.595 22.63 141.165 23.38 140.765 23.99C141.285 24.69 141.745 25.46 141.955 25.98L142.575 25.72C142.365 25.27 141.925 24.56 141.495 23.98C141.815 23.47 142.215 22.83 142.475 22.32L141.825 22.15ZM143.555 22.15C143.325 22.63 142.875 23.38 142.445 23.99C143.005 24.68 143.495 25.46 143.735 25.98L144.335 25.71C144.115 25.26 143.645 24.56 143.185 23.98C143.525 23.47 143.935 22.83 144.215 22.32L143.555 22.15ZM145.285 22.15C145.045 22.63 144.575 23.38 144.145 23.99C144.725 24.68 145.255 25.46 145.505 25.98L146.115 25.69C145.865 25.24 145.365 24.54 144.885 23.98C145.235 23.47 145.645 22.84 145.935 22.33L145.285 22.15ZM138.735 20.61C138.475 21.27 138.005 22.25 137.645 22.83L138.155 23.05C138.545 22.5 139.015 21.6 139.395 20.86L138.735 20.61ZM139.855 21.75C139.305 22.8 138.365 24.29 137.615 25.18L138.075 25.44C138.825 24.57 139.795 23.15 140.485 22.04L139.855 21.75ZM137.135 22.69C137.665 23.2 138.265 23.91 138.515 24.39L138.945 23.83C138.685 23.37 138.075 22.7 137.535 22.21L137.135 22.69ZM139.465 24.04C139.865 24.7 140.255 25.59 140.385 26.15L140.975 25.88C140.835 25.33 140.425 24.47 140.005 23.81L139.465 24.04ZM137.055 25.03L137.135 25.7C138.045 25.64 139.245 25.57 140.435 25.49V24.86C139.175 24.93 137.925 24.99 137.055 25.03ZM139.725 26.46C139.965 27.04 140.175 27.8 140.235 28.29L140.815 28.11C140.745 27.62 140.535 26.87 140.275 26.29L139.725 26.46ZM137.655 26.32C137.545 27.19 137.355 28.09 137.035 28.7C137.185 28.77 137.485 28.9 137.605 28.98C137.925 28.34 138.155 27.38 138.285 26.43L137.655 26.32ZM138.715 25.32V29.8H139.375V25.32H138.715ZM148.37 30.07C149.42 29.71 150.1 28.89 150.1 27.81C150.1 27.11 149.8 26.65 149.24 26.65C148.84 26.65 148.48 26.9 148.48 27.37C148.48 27.85 148.82 28.09 149.23 28.09C149.42 28.09 149.62 28.04 149.76 27.86L149.22 27.1L149.41 27.95C149.41 28.7 148.96 29.21 148.14 29.55L148.37 30.07ZM157.275 26.07V26.7H166.375V26.07H157.275ZM157.515 21.04V21.7H166.125V21.04H157.515ZM160.745 25.02C160.125 26 159.195 27.34 158.555 28.15L159.265 28.39C159.905 27.57 160.825 26.26 161.475 25.22L160.745 25.02ZM163.745 26.29C162.945 28.24 160.985 28.95 157.415 29.14C157.535 29.31 157.655 29.58 157.705 29.8C161.455 29.52 163.585 28.7 164.465 26.5L163.745 26.29ZM159.095 28.05C161.635 28.52 164.085 29.2 165.615 29.83L166.065 29.22C164.515 28.61 161.945 27.94 159.475 27.5L159.095 28.05ZM160.245 21.29V24.78H160.955V21.29H160.245ZM162.575 21.29V24.78H163.285V21.29H162.575ZM158.715 23.17H164.955V24.53H158.715V23.17ZM158.015 22.56V25.15H165.705V22.56H158.015ZM169.33 23.87V24.54H174.38V23.87H169.33ZM169.15 28.73V29.4H174.51V28.73H169.15ZM168.81 25.8V29.81H169.54V26.48H174.17V29.81H174.93V25.8H168.81ZM171.82 21.37C172.76 22.65 174.52 24.06 176.09 24.88C176.22 24.66 176.4 24.4 176.59 24.22C174.99 23.51 173.24 22.12 172.16 20.63H171.4C170.61 21.92 168.94 23.45 167.18 24.34C167.35 24.5 167.55 24.77 167.65 24.94C169.36 24.01 171 22.59 171.82 21.37ZM177.315 24.69V25.51H186.465V24.69H177.315ZM192.46 24.47V25.09H195.73V24.47H192.46ZM192.08 21.07V29.81H192.77V21.74H195.66V21.07H192.08ZM195.3 21.07V22.99C195.3 23.1 195.26 23.14 195.1 23.15C194.94 23.16 194.42 23.16 193.8 23.14C193.9 23.33 194 23.6 194.03 23.8C194.8 23.8 195.3 23.79 195.61 23.68C195.92 23.57 196 23.37 196 23V21.07H195.3ZM193.44 24.88L192.85 25.03C193.44 27.11 194.55 28.93 196.09 29.8C196.21 29.61 196.44 29.34 196.61 29.19C195.11 28.46 193.98 26.75 193.44 24.88ZM195.5 24.47V24.63C195.19 26.46 194.25 28.33 192.75 29.31C192.92 29.44 193.14 29.65 193.25 29.82C194.85 28.74 195.84 26.77 196.23 24.6L195.77 24.43L195.64 24.47H195.5ZM187.67 21.63V22.28H191.38V21.63H187.67ZM187.55 27.1V27.75H191.51V27.1H187.55ZM187.31 23.28V23.93H191.76V23.28H187.31ZM187.45 25.36V26.01H191.64V25.36H187.45ZM189.21 20.62V23.51H189.91V20.62H189.21ZM189.21 25.63V29.78H189.91V25.63H189.21ZM190.56 23.89C190.45 24.28 190.23 24.87 190.06 25.24L190.62 25.41C190.81 25.06 191 24.54 191.2 24.06L190.56 23.89ZM188.01 24.05C188.21 24.49 188.4 25.06 188.45 25.42L189.05 25.25C189 24.9 188.8 24.33 188.58 23.91L188.01 24.05ZM203.045 20.63V22.12H203.775V20.63H203.045ZM200.645 21.76V23.59H201.315V22.42H205.675V23.58H206.375V21.76H200.645ZM201.435 23.53V24.19H205.565V23.53H201.435ZM200.755 25.33V26.01H206.405V25.33H200.755ZM202.095 25.63C202.015 27.5 201.735 28.63 199.955 29.23C200.105 29.37 200.305 29.64 200.375 29.81C202.345 29.1 202.705 27.77 202.825 25.63H202.095ZM203.945 25.57V28.71C203.945 29.45 204.115 29.67 204.795 29.67C204.935 29.67 205.515 29.67 205.665 29.67C206.255 29.67 206.435 29.33 206.505 28.03C206.305 27.99 206.005 27.87 205.865 27.74C205.845 28.83 205.805 28.99 205.585 28.99C205.465 28.99 204.995 28.99 204.905 28.99C204.695 28.99 204.655 28.95 204.655 28.7V25.57H203.945ZM197.725 21.04V29.81H198.405V21.72H200.085V21.04H197.725ZM199.855 21.04V21.24C199.645 21.93 199.275 23.12 198.915 24.03C199.635 24.81 199.815 25.49 199.815 26.03C199.815 26.33 199.765 26.6 199.605 26.71C199.525 26.77 199.415 26.8 199.295 26.8C199.135 26.82 198.945 26.81 198.715 26.79C198.825 26.98 198.885 27.27 198.895 27.45C199.125 27.46 199.375 27.46 199.575 27.44C199.775 27.41 199.955 27.35 200.095 27.26C200.375 27.06 200.485 26.64 200.485 26.1C200.485 25.48 200.325 24.78 199.585 23.95C199.925 23.15 200.295 22.12 200.585 21.3L200.105 21.01L199.985 21.04H199.855ZM208.52 30.07C209.57 29.71 210.25 28.89 210.25 27.81C210.25 27.11 209.95 26.65 209.39 26.65C208.99 26.65 208.63 26.9 208.63 27.37C208.63 27.85 208.97 28.09 209.38 28.09C209.57 28.09 209.77 28.04 209.91 27.86L209.37 27.1L209.56 27.95C209.56 28.7 209.11 29.21 208.29 29.55L208.52 30.07ZM219.425 24.55H217.435V25.25H218.705V28.09H219.425V24.55ZM219.425 27.79H218.775C218.305 28.22 217.765 28.67 217.325 28.99L217.715 29.72C218.215 29.28 218.675 28.85 219.115 28.42C219.735 29.21 220.645 29.56 221.965 29.61C223.085 29.66 225.225 29.64 226.355 29.59C226.385 29.37 226.505 29.02 226.595 28.85C225.385 28.93 223.075 28.96 221.965 28.91C220.775 28.87 219.895 28.53 219.425 27.79ZM217.525 21.27C218.135 21.76 218.825 22.46 219.105 22.96L219.725 22.49C219.415 22 218.715 21.31 218.095 20.86L217.525 21.27ZM220.395 24.05V28.39H221.065V24.65H225.805V24.05H220.395ZM222.815 22.36V24.3H223.385V22.89H224.915V22.36H222.815ZM221.175 20.95V24.25H221.845V21.54H224.615V24.25H225.295V20.95H221.175ZM222.245 25.29V25.83H223.925V26.89H222.245V27.41H224.505V25.29H222.245ZM225.385 24.05V27.65C225.385 27.75 225.345 27.78 225.235 27.79C225.125 27.79 224.745 27.79 224.325 27.78C224.415 27.95 224.505 28.21 224.535 28.39C225.125 28.39 225.515 28.39 225.755 28.28C226.015 28.18 226.075 27.99 226.075 27.65V24.05H225.385ZM221.905 25.29V27.81H222.485V25.29H221.905ZM228.12 25.87V26.57H234.02V25.87H228.12ZM233.6 25.87V28.7C233.6 29.53 233.83 29.74 234.59 29.74C234.75 29.74 235.47 29.74 235.64 29.74C236.35 29.74 236.55 29.36 236.62 27.84C236.41 27.78 236.07 27.65 235.91 27.51C235.88 28.82 235.84 29.01 235.55 29.01C235.4 29.01 234.82 29.01 234.71 29.01C234.43 29.01 234.38 28.97 234.38 28.7V25.87H233.6ZM231.62 20.6V21.96H232.38V20.6H231.62ZM230.41 22.02C230.25 23.48 229.79 24.28 227.62 24.68C227.76 24.83 227.94 25.11 228.01 25.3C230.41 24.79 231 23.8 231.2 22.02H230.41ZM232.73 22.03V23.99C232.73 24.72 232.94 24.93 233.81 24.93C233.99 24.93 235.03 24.93 235.22 24.93C235.88 24.93 236.09 24.69 236.17 23.77C235.96 23.72 235.66 23.61 235.5 23.5C235.47 24.16 235.42 24.25 235.14 24.25C234.92 24.25 234.06 24.25 233.89 24.25C233.52 24.25 233.47 24.21 233.47 23.98V22.03H232.73ZM227.77 21.53V23.33H228.51V22.21H235.53V23.25H236.31V21.53H227.77ZM231 24.65V25.84C231 26.92 230.6 28.35 227.43 29.22C227.61 29.39 227.83 29.65 227.94 29.83C231.3 28.89 231.75 27.22 231.75 25.86V24.65H231ZM239.105 23.07V23.64H244.965V23.07H239.105ZM243.275 22.25C243.655 22.44 244.115 22.73 244.355 22.97L244.715 22.57C244.475 22.34 244.015 22.06 243.625 21.89L243.275 22.25ZM243.935 24.1C243.505 25.83 242.585 27.13 241.225 27.92C241.355 28.03 241.575 28.28 241.665 28.4C243.045 27.51 244.045 26.11 244.545 24.22L243.935 24.1ZM239.005 27.16L239.105 27.73C239.935 27.58 241.005 27.36 242.045 27.16L242.025 26.63C240.895 26.84 239.775 27.03 239.005 27.16ZM239.995 24.74H241.135V25.75H239.995V24.74ZM239.455 24.27V26.21H241.685V24.27H239.455ZM242.065 22C242.245 25.09 242.655 27.93 244.035 28.23C244.565 28.42 244.915 28.02 245.045 26.92C244.905 26.86 244.675 26.7 244.555 26.58C244.485 27.23 244.385 27.65 244.245 27.62C243.275 27.47 242.835 24.83 242.705 22H242.065ZM237.845 21.07V29.84H238.555V21.75H245.455V29.84H246.205V21.07H237.845ZM238.285 28.69V29.37H245.875V28.69H238.285ZM19.4646 42.11V43.77C19.4646 44.54 19.7246 44.75 20.7746 44.75C20.9946 44.75 22.5046 44.75 22.7346 44.75C23.5646 44.75 23.7846 44.48 23.8846 43.37C23.6846 43.33 23.3746 43.22 23.2046 43.1C23.1646 43.95 23.0946 44.07 22.6646 44.07C22.3346 44.07 21.0746 44.07 20.8346 44.07C20.2946 44.07 20.2046 44.02 20.2046 43.76V42.11H19.4646ZM20.4946 41.76C21.0746 42.16 21.7246 42.77 22.0046 43.21L22.5946 42.79C22.2946 42.34 21.6346 41.76 21.0446 41.37L20.4946 41.76ZM23.7246 42.3C24.4546 42.94 25.2046 43.84 25.5146 44.47L26.1546 44.05C25.8346 43.41 25.0446 42.54 24.3246 41.93L23.7246 42.3ZM18.0946 42.03C17.8746 42.76 17.4546 43.56 16.8446 44.04L17.4546 44.47C18.1146 43.93 18.5046 43.05 18.7546 42.27L18.0946 42.03ZM19.1846 38.41H23.8646V39.24H19.1846V38.41ZM19.1846 39.82H23.8646V40.65H19.1846V39.82ZM19.1846 37.02H23.8646V37.84H19.1846V37.02ZM18.4646 36.42V41.26H24.6146V36.42H18.4646ZM21.1246 35.5C21.0346 35.82 20.8646 36.29 20.7146 36.61L21.3846 36.77C21.5546 36.48 21.7946 36.08 21.9946 35.65L21.1246 35.5ZM27.1896 36.31V37.07H35.7996V36.31H27.1896ZM32.0896 39.22C33.2796 40.03 34.7796 41.2 35.4796 41.97L36.0896 41.4C35.3496 40.63 33.8196 39.5 32.6496 38.74L32.0896 39.22ZM31.8996 36.57C30.9696 38.45 29.1096 40.37 26.9396 41.46C27.0896 41.62 27.3296 41.92 27.4496 42.11C29.7096 40.92 31.5796 38.94 32.7196 36.87L31.8996 36.57ZM31.0796 38.57V44.79H31.8896V37.77L31.0796 38.57ZM39.9346 40.46V41.09H42.6546V42.76H39.9346V43.39H43.3546V40.46H39.9346ZM39.6046 40.46V43.99H40.3046V40.46H39.6046ZM37.7946 37.48V38.04H40.5746V37.48H37.7946ZM42.4046 37.48V38.04H45.2346V37.48H42.4046ZM44.9046 36.03V43.79C44.9046 43.98 44.8446 44.04 44.6546 44.04C44.4646 44.05 43.8046 44.06 43.1446 44.03C43.2546 44.24 43.3846 44.59 43.4146 44.8C44.2946 44.8 44.8746 44.79 45.2146 44.67C45.5346 44.54 45.6546 44.3 45.6546 43.8V36.03H44.9046ZM37.8546 36.03V36.64H40.3446V38.95H37.8546V39.56H41.0546V36.03H37.8546ZM45.2946 36.03H41.9546V39.56H45.2946V38.96H42.6746V36.63H45.2946V36.03ZM37.4346 36.03V44.81H38.1746V36.03H37.4346ZM47.3296 37.94V39.68H48.0496V38.54H55.0196V39.75H55.7596V37.94H47.3296ZM54.7396 35.6C53.1196 35.93 50.1096 36.13 47.6596 36.2C47.7196 36.35 47.7996 36.61 47.8096 36.77C50.3096 36.71 53.3396 36.51 55.2396 36.12L54.7396 35.6ZM48.5596 36.87C48.8496 37.23 49.1396 37.74 49.2396 38.07L49.8896 37.8C49.7696 37.45 49.4696 36.97 49.1596 36.62L48.5596 36.87ZM50.7396 36.68C51.0096 37.07 51.2596 37.61 51.3296 37.95L51.9896 37.72C51.9096 37.36 51.6396 36.84 51.3596 36.46L50.7396 36.68ZM53.4196 39.38C53.9896 39.84 54.6596 40.52 54.9596 40.97L55.5096 40.56C55.1996 40.11 54.5196 39.46 53.9396 39.02L53.4196 39.38ZM50.6096 38.86C51.1396 39.09 51.7696 39.47 52.0996 39.74L52.4896 39.29C52.1696 39.02 51.5096 38.67 50.9896 38.45L50.6096 38.86ZM54.0996 36.45C53.8796 36.91 53.4496 37.57 53.1396 37.99L53.6896 38.23C54.0296 37.84 54.4596 37.26 54.8196 36.73L54.0996 36.45ZM53.4996 41.54V41.66C52.4496 43.21 49.8296 43.94 47.0796 44.2C47.2196 44.35 47.4096 44.65 47.4796 44.83C50.2696 44.48 52.9996 43.69 54.2696 41.83L53.7996 41.52L53.6696 41.54H53.4996ZM49.7696 41.94L49.1796 42.19C50.4596 43.74 52.8996 44.54 55.6196 44.82C55.7196 44.62 55.8996 44.31 56.0596 44.15C53.3596 43.94 50.9196 43.24 49.7696 41.94ZM50.4496 40.71C49.7296 41.61 48.4596 42.38 47.2196 42.86C47.3696 42.97 47.6296 43.22 47.7496 43.36C48.9596 42.82 50.2796 41.96 51.1096 40.95L50.4496 40.71ZM49.7996 39.13V40.09C49.7996 40.73 50.0196 40.88 50.9296 40.88C51.1096 40.88 52.3496 40.88 52.5496 40.88C53.1996 40.88 53.3996 40.69 53.4696 39.88C53.2796 39.84 53.0196 39.76 52.8696 39.66C52.8396 40.25 52.7696 40.32 52.4596 40.32C52.1896 40.32 51.1796 40.32 50.9896 40.32C50.5696 40.32 50.4996 40.29 50.4996 40.08V39.13H49.7996ZM48.8196 39.14C48.5996 39.74 48.1896 40.33 47.5896 40.66L48.1196 41.09C48.7796 40.7 49.1596 40.03 49.3996 39.38L48.8196 39.14ZM49.9896 41.54L49.4296 42.1H53.6696V41.54H49.9896ZM59.9846 36.21V44.8H60.6846V36.88H65.1146V44.72H65.8346V36.21H59.9846ZM61.0946 38.33V38.92H64.7746V38.33H61.0946ZM60.3646 43.53V44.2H65.5146V43.53H60.3646ZM62.6146 37.2V40.37H63.2246V37.2H62.6146ZM62.0946 40.58H63.7846V42.13H62.0946V40.58ZM61.5146 40.02V42.7H64.3846V40.02H61.5146ZM58.9446 35.65C58.4546 37.17 57.6346 38.68 56.7346 39.66C56.8646 39.84 57.0746 40.25 57.1346 40.43C58.1346 39.28 59.0646 37.56 59.6346 35.85L58.9446 35.65ZM58.1146 38.1V44.82H58.8246V37.4L58.8146 37.39L58.1146 38.1ZM72.3196 43.08V43.79H75.4496V43.08H72.3196ZM71.9096 36.68V44.55H72.6296V37.4H75.0896V44.4H75.8296V36.68H71.9096ZM67.0296 37.65V38.37H70.7496V37.65H67.0296ZM68.7296 35.6C68.3396 37.51 67.6796 40.21 67.1996 41.75L67.8396 42.06C68.3396 40.4 69.0196 37.69 69.4596 35.69L68.7296 35.6ZM67.5496 41.37C68.8396 42.07 70.3696 43.17 71.0696 44L71.5096 43.36C70.7996 42.54 69.2596 41.49 67.9596 40.82L67.5496 41.37ZM70.5396 37.65V37.81C70.2596 41.36 69.0696 43.36 67.1696 44.19C67.3296 44.35 67.5296 44.63 67.6296 44.81C69.7096 43.77 70.9496 41.75 71.2596 37.72L70.7996 37.63L70.6596 37.65H70.5396ZM79.0346 40.26H77.0546V40.95H78.3046V43.18H79.0346V40.26ZM79.0346 42.81H78.3746C77.9146 43.24 77.3946 43.68 76.9546 44L77.3446 44.73C77.8346 44.29 78.2846 43.87 78.7146 43.43C79.3646 44.22 80.2846 44.57 81.6146 44.62C82.7446 44.66 84.8946 44.64 86.0146 44.6C86.0546 44.38 86.1646 44.04 86.2646 43.87C85.0546 43.95 82.7246 43.97 81.6046 43.93C80.4146 43.88 79.5146 43.54 79.0346 42.81ZM77.4446 36.18C78.0346 36.51 78.7046 37.02 79.0146 37.41L79.5446 36.91C79.2146 36.53 78.5346 36.04 77.9446 35.72L77.4446 36.18ZM77.1046 38.22C77.7146 38.54 78.4146 39.05 78.7446 39.42L79.2546 38.9C78.9146 38.52 78.1846 38.04 77.5846 37.75L77.1046 38.22ZM82.3746 38.81V39.6H83.0746V38.81H82.3746ZM81.1146 37.27H84.4946V37.69H81.1146V37.27ZM81.1146 38.07H84.4946V38.5H81.1146V38.07ZM81.1146 36.48H84.4946V36.89H81.1146V36.48ZM80.4146 36.09V38.89H85.2246V36.09H80.4146ZM82.4446 35.58C82.3946 35.77 82.2646 36.06 82.1646 36.29L82.7446 36.41C82.8846 36.23 83.0546 35.98 83.2146 35.69L82.4446 35.58ZM79.6546 39.31V40.32H80.3246V39.74H85.3146V40.32H85.9946V39.31H79.6546ZM82.3846 40.52V41.3H83.0846V40.52H82.3846ZM79.6246 41.13V41.6H86.0746V41.13H79.6246ZM81.6546 41.98V42.44H84.5846V41.98H81.6546ZM84.3946 41.98V42.06C84.2646 42.72 84.1446 43.02 84.0046 43.13C83.9246 43.19 83.8446 43.2 83.6846 43.2C83.5146 43.2 83.0746 43.19 82.6146 43.15C82.6946 43.28 82.7546 43.48 82.7646 43.61C83.2446 43.65 83.6946 43.65 83.9046 43.64C84.1546 43.63 84.3346 43.6 84.4946 43.48C84.7146 43.31 84.8646 42.97 85.0046 42.23C85.0246 42.15 85.0346 41.98 85.0346 41.98H84.3946ZM81.7146 41.34C81.5446 42.24 81.0846 42.79 79.6746 43.09C79.8046 43.2 79.9746 43.45 80.0446 43.6C81.6146 43.2 82.1646 42.51 82.3646 41.34H81.7146ZM81.6746 39.63C81.5146 40.19 81.0546 40.45 79.9346 40.61C80.0346 40.7 80.1846 40.91 80.2446 41.04C81.5146 40.81 82.0446 40.42 82.2246 39.63H81.6746ZM83.0546 39.51V40.11C83.0546 40.62 83.1946 40.74 83.7846 40.74C83.8946 40.74 84.5146 40.74 84.6346 40.74C85.0346 40.74 85.1946 40.6 85.2446 40.1C85.0846 40.06 84.8746 40 84.7646 39.93C84.7446 40.26 84.6946 40.3 84.5446 40.3C84.4146 40.3 83.9446 40.3 83.8646 40.3C83.6546 40.3 83.6246 40.28 83.6246 40.11V39.51H83.0546ZM88.1496 43.58V44.29H96.1496V43.58H88.1496ZM87.2696 36.53V37.22H96.0596V36.53H87.2696ZM87.7896 38.33V44.82H88.5296V38.33H87.7896ZM90.3596 39.96H94.1896V40.79H90.3596V39.96ZM90.3596 41.33H94.1896V42.16H90.3596V41.33ZM90.3596 38.61H94.1896V39.42H90.3596V38.61ZM89.6396 38.04V42.73H94.9396V38.04H89.6396ZM91.4096 35.57C91.3796 36.39 91.2496 37.58 91.1296 38.32L91.8696 38.38C92.0096 37.68 92.1696 36.57 92.2696 35.63L91.4096 35.57ZM101.295 39.01V43.82C101.295 44 101.225 44.06 101.005 44.07C100.775 44.08 100.005 44.08 99.1746 44.05C99.2946 44.27 99.4346 44.59 99.4846 44.81C100.495 44.81 101.165 44.8 101.555 44.68C101.945 44.57 102.075 44.34 102.075 43.84V39.01H101.295ZM97.6546 36.39V37.12H104.875V36.39H97.6546ZM104.605 36.39V36.57C103.975 37.4 102.655 38.55 101.515 39.18C101.675 39.29 101.915 39.54 102.025 39.7C103.265 39 104.675 37.82 105.565 36.76L104.985 36.34L104.805 36.39H104.605ZM111.56 37.13H115.26V40.38H111.56V37.13ZM110.94 36.55V40.96H115.9V36.55H110.94ZM113.14 35.58C113.05 35.94 112.85 36.46 112.69 36.82L113.31 36.97C113.5 36.66 113.75 36.19 113.96 35.73L113.14 35.58ZM112.28 41.31C112.86 41.63 113.56 42.14 113.89 42.51L114.38 42.08C114.03 41.7 113.32 41.22 112.73 40.92L112.28 41.31ZM114.71 42.25C115.21 42.92 115.66 43.83 115.82 44.45L116.42 44.16C116.25 43.54 115.79 42.64 115.27 41.97L114.71 42.25ZM112.12 42.01V43.9C112.12 44.59 112.3 44.78 113.03 44.78C113.18 44.78 114 44.78 114.16 44.78C114.73 44.78 114.92 44.54 114.99 43.56C114.8 43.51 114.53 43.41 114.39 43.3C114.37 44.06 114.32 44.15 114.08 44.15C113.91 44.15 113.24 44.15 113.11 44.15C112.82 44.15 112.77 44.12 112.77 43.9V42.01H112.12ZM111.15 42.16C111.03 42.93 110.78 43.73 110.28 44.2L110.84 44.52C111.38 44.01 111.61 43.13 111.75 42.31L111.15 42.16ZM113.2 37.21C112.97 37.81 112.49 38.51 111.74 39.03C111.87 39.1 112.04 39.25 112.13 39.36C112.94 38.77 113.42 38.01 113.72 37.28L113.2 37.21ZM113.25 37.67L113.03 38.1H114.6V37.67H113.25ZM114.42 37.67V37.76C114.07 38.86 113.11 39.66 112.12 40.02C112.24 40.12 112.38 40.3 112.45 40.42C113.53 39.98 114.53 39.12 114.95 37.79L114.62 37.65L114.52 37.67H114.42ZM111.8 38.25C112.8 38.69 113.97 39.44 114.56 39.99L114.94 39.6C114.34 39.08 113.15 38.34 112.17 37.9L111.8 38.25ZM108.66 35.61C108.41 36.27 107.95 37.25 107.6 37.83L108.1 38.05C108.47 37.49 108.94 36.59 109.3 35.85L108.66 35.61ZM109.72 36.75C109.2 37.8 108.3 39.29 107.59 40.18L108.04 40.42C108.76 39.56 109.68 38.14 110.34 37.03L109.72 36.75ZM107.06 37.68C107.59 38.18 108.19 38.89 108.44 39.37L108.86 38.82C108.6 38.37 107.99 37.69 107.46 37.2L107.06 37.68ZM109.34 39.01C109.71 39.69 110.05 40.59 110.16 41.15L110.72 40.91C110.62 40.35 110.25 39.47 109.87 38.81L109.34 39.01ZM106.98 40.03L107.06 40.7C107.93 40.64 109.07 40.57 110.2 40.5V39.86C109 39.93 107.81 39.99 106.98 40.03ZM109.53 41.44C109.76 42.02 109.95 42.78 110 43.28L110.56 43.11C110.51 42.62 110.3 41.86 110.06 41.29L109.53 41.44ZM107.58 41.32C107.47 42.19 107.28 43.09 106.96 43.7C107.11 43.76 107.4 43.89 107.52 43.98C107.83 43.34 108.07 42.37 108.2 41.43L107.58 41.32ZM108.59 40.32V44.8H109.24V40.32H108.59ZM121.315 36.67V44.69H122.055V36.67H121.315ZM118.845 40.01C119.425 40.36 120.185 40.87 120.575 41.17L121.025 40.69C120.615 40.39 119.845 39.92 119.275 39.59L118.845 40.01ZM118.745 41.96C119.355 42.36 120.145 42.91 120.545 43.24L120.995 42.75C120.585 42.44 119.775 41.91 119.185 41.55L118.745 41.96ZM122.435 40.01C123.045 40.36 123.845 40.86 124.245 41.16L124.675 40.67C124.265 40.37 123.445 39.9 122.855 39.58L122.435 40.01ZM122.295 41.95C122.915 42.33 123.745 42.88 124.165 43.21L124.605 42.72C124.165 42.39 123.335 41.88 122.715 41.53L122.295 41.95ZM117.725 38.29V44.79H118.445V39H125.325V38.29H117.725ZM125.015 38.29V43.84C125.015 44 124.975 44.05 124.795 44.06C124.615 44.06 124.015 44.07 123.365 44.05C123.475 44.24 123.595 44.54 123.635 44.74C124.445 44.74 125.005 44.73 125.325 44.62C125.645 44.5 125.755 44.28 125.755 43.85V38.29H125.015ZM117.245 36.23V36.97H126.195V36.23H117.245ZM131.33 35.6V37.21H132.12V35.6H131.33ZM127.6 36.66V38.82H128.36V37.37H135.16V38.82H135.95V36.66H127.6ZM130.93 37.82C130.25 39.29 129.17 41.33 128.44 42.53L129.21 42.74C129.92 41.53 130.97 39.51 131.71 37.99L130.93 37.82ZM133.58 39.89C132.93 42.67 130.94 43.72 127.55 44.14C127.69 44.31 127.92 44.64 128 44.82C131.45 44.27 133.59 43.11 134.41 40.01L133.58 39.89ZM127.31 39.44V40.15H136.19V39.44H127.31ZM129.02 42.18C131.17 42.8 133.82 43.93 135.15 44.82L135.71 44.2C134.31 43.31 131.63 42.23 129.53 41.65L129.02 42.18ZM138.725 40.68V44.8H139.455V41.3H144.115V44.78H144.885V40.68H138.725ZM139.145 42.24V42.82H144.395V42.24H139.145ZM138.345 36.43V37.04H141.535V36.43H138.345ZM137.265 38V38.61H141.795V38H137.265ZM139.145 43.81V44.43H144.395V43.81H139.145ZM139.345 36.65V37.63C139.345 38.42 139.195 39.59 137.175 40.39C137.345 40.51 137.555 40.75 137.655 40.9C139.775 39.95 140.065 38.61 140.065 37.64V36.65H139.345ZM138.395 35.57C138.175 36.33 137.775 37.08 137.265 37.59C137.435 37.66 137.735 37.85 137.865 37.95C138.355 37.4 138.815 36.57 139.075 35.71L138.395 35.57ZM139.845 38.76L139.355 39.09C139.785 39.36 140.825 40.1 141.195 40.41L141.715 39.89C141.425 39.69 140.205 38.95 139.845 38.76ZM142.915 37.09H144.995V39.22H142.915V37.09ZM142.215 36.42V39.91H145.735V36.42H142.215ZM147.77 37V37.68H155.82V37H147.77ZM148.27 38.49V39.14H155.38V38.49H148.27ZM147.37 39.99V40.67H156.22V39.99H147.37ZM147.3 41.59V42.26H156.32V41.59H147.3ZM151.39 37.38V40.48H152.16V37.38H151.39ZM149.05 35.86C149.41 36.24 149.75 36.79 149.88 37.17L150.58 36.85C150.42 36.48 150.07 35.96 149.7 35.59L149.05 35.86ZM153.75 35.59C153.54 35.97 153.17 36.53 152.87 36.87L153.53 37.1C153.82 36.77 154.2 36.29 154.52 35.83L153.75 35.59ZM151.35 40.54C151.13 42.54 150.55 43.65 147.17 44.14C147.31 44.3 147.49 44.61 147.55 44.8C151.14 44.22 151.87 42.88 152.14 40.54H151.35ZM152.36 41.79L151.67 41.93C152.34 43.68 153.7 44.52 156.01 44.82C156.1 44.61 156.3 44.29 156.47 44.13C154.28 43.92 152.93 43.23 152.36 41.79ZM158.905 37.55V38.28H165.835V37.55H158.905ZM158.465 40.48V41.2H165.475V40.48H158.465ZM157.375 43.75V44.48H166.305V43.75H157.375ZM161.455 35.61V44.12H162.225V35.61H161.455ZM159.205 35.77C158.825 37.2 158.175 38.59 157.355 39.48C157.545 39.58 157.885 39.8 158.035 39.93C158.835 38.97 159.535 37.49 159.975 35.94L159.205 35.77ZM167.36 39.03V39.73H176.34V39.03H167.36ZM168.24 36.97V37.66H174.03V36.97H168.24ZM170.78 35.6V39.4H171.55V35.6H170.78ZM174.44 40.71C173.49 41.21 171.8 41.75 170.3 42.12C170.39 42.27 170.5 42.53 170.54 42.69C172.1 42.33 173.87 41.81 175.09 41.26L174.44 40.71ZM175.21 35.99C173.37 38.61 170.42 40.69 167.17 41.9C167.33 42.06 167.59 42.37 167.71 42.54C170.91 41.22 173.89 39.11 175.89 36.34L175.21 35.99ZM170.05 40.59V43.52C170.05 44.43 170.42 44.66 171.72 44.66C172 44.66 174.17 44.66 174.46 44.66C175.6 44.66 175.87 44.3 175.99 42.87C175.78 42.83 175.46 42.72 175.27 42.59C175.2 43.77 175.1 43.97 174.42 43.97C173.94 43.97 172.1 43.97 171.74 43.97C170.96 43.97 170.82 43.89 170.82 43.52V40.59H170.05ZM181.495 35.64V39.84C181.495 41.65 181.245 43.3 177.295 44.14C177.455 44.31 177.655 44.63 177.745 44.8C181.825 43.83 182.265 41.92 182.265 39.84V35.64H181.495ZM178.835 37.91H184.945V39.78H178.835V37.91ZM178.095 37.18V40.5H185.715V37.18H178.095ZM179.235 40.83L178.565 41.08C179.855 43.87 182.235 44.55 186.165 44.78C186.215 44.52 186.365 44.2 186.515 44.02C182.665 43.85 180.465 43.33 179.235 40.83ZM191.08 45.03C192.15 44.63 192.81 43.78 192.81 42.62C192.81 41.87 192.51 41.41 191.95 41.41C191.55 41.41 191.2 41.65 191.2 42.13C191.2 42.6 191.54 42.85 191.95 42.85C192.14 42.85 192.33 42.79 192.48 42.62L191.94 41.86L192.12 42.74C192.13 43.57 191.7 44.13 190.85 44.51L191.08 45.03ZM191.9 38.57C192.3 38.57 192.65 38.27 192.65 37.82C192.65 37.36 192.3 37.06 191.9 37.06C191.49 37.06 191.14 37.36 191.14 37.82C191.14 38.27 191.49 38.57 191.9 38.57ZM199.625 43.89V44.47H204.915V43.89H199.625ZM201.535 37.63V38.74H202.265V37.63H201.535ZM197.735 38.41V40.29H198.455V39.01H205.445V40.29H206.185V38.41H197.735ZM199.585 39.63V40.2H203.975V41.06H199.585V41.64H204.715V39.63H199.585ZM199.615 42.33V42.92H204.615V44.79H205.355V42.33H199.615ZM199.185 39.63V44.81H199.905V39.63H199.185ZM198.555 36.37V36.99H201.785V36.37H198.555ZM202.455 36.37V36.99H206.495V36.37H202.455ZM198.745 35.56C198.435 36.34 197.895 37.13 197.295 37.65C197.475 37.74 197.775 37.95 197.915 38.06C198.495 37.49 199.085 36.62 199.455 35.74L198.745 35.56ZM202.685 35.56C202.365 36.33 201.785 37.07 201.125 37.55C201.315 37.64 201.625 37.82 201.775 37.93C202.405 37.41 203.035 36.6 203.395 35.73L202.685 35.56ZM199.115 36.84C199.345 37.21 199.585 37.71 199.675 38.02L200.355 37.82C200.255 37.51 199.995 37.02 199.765 36.67L199.115 36.84ZM203.355 36.85C203.675 37.21 204.015 37.72 204.155 38.04L204.835 37.82C204.685 37.49 204.325 37 204.015 36.65L203.355 36.85ZM207.49 38.82V39.49H216.4V38.82H207.49ZM208.37 36.86V37.53H214.16V36.86H208.37ZM209.99 42.17V42.77H214.7V42.17H209.99ZM209.99 43.83V44.48H214.7V43.83H209.99ZM210.94 35.6V39.18H211.67V35.6H210.94ZM215.32 35.95C213.47 38.43 210.49 40.37 207.26 41.49C207.41 41.64 207.65 41.95 207.74 42.12C210.94 40.89 213.95 38.92 215.96 36.29L215.32 35.95ZM209.58 40.55V44.81H210.33V41.18H214.4V44.77H215.18V40.55H209.58ZM219.055 37.55V38.28H225.985V37.55H219.055ZM218.615 40.48V41.2H225.625V40.48H218.615ZM217.525 43.75V44.48H226.455V43.75H217.525ZM221.605 35.61V44.12H222.375V35.61H221.605ZM219.355 35.77C218.975 37.2 218.325 38.59 217.505 39.48C217.695 39.58 218.035 39.8 218.185 39.93C218.985 38.97 219.685 37.49 220.125 35.94L219.355 35.77ZM229.15 43.93L229.2 44.57C230.84 44.54 233.33 44.45 235.69 44.37L235.72 43.79C233.3 43.86 230.75 43.91 229.15 43.93ZM233.89 41.31C233.05 42.17 231.64 43.33 230.56 44.01L231.04 44.34C232.12 43.68 233.52 42.59 234.53 41.67L233.89 41.31ZM232 40.67C231.64 41.13 231 41.77 230.51 42.16L230.98 42.45C231.48 42.09 232.1 41.52 232.61 41.01L232 40.67ZM229.74 42.05C230.45 42.46 231.35 43.09 231.78 43.49L232.3 43C231.84 42.59 230.93 42 230.23 41.61L229.74 42.05ZM233.87 42.85C234.61 43.44 235.46 44.28 235.87 44.83L236.5 44.5C236.07 43.93 235.19 43.11 234.46 42.55L233.87 42.85ZM229.3 37.91V38.47H232.42V37.91H229.3ZM232.77 37.91V38.47H236.27V37.91H232.77ZM230.59 37.19V40.85H231.17V37.19H230.59ZM231.72 38.8V40.35H232.19V38.8H231.72ZM234.04 37.19V40.88H234.63V37.19H234.04ZM229.6 38.8V39.18C229.6 39.63 229.54 40.24 229.11 40.63C229.24 40.7 229.44 40.84 229.52 40.95C230 40.44 230.07 39.78 230.07 39.2V38.8H229.6ZM233.04 38.78V39.14C233.04 39.55 232.98 40.12 232.57 40.47C232.7 40.54 232.9 40.69 232.99 40.8C233.44 40.33 233.51 39.7 233.51 39.17V38.78H233.04ZM235.18 38.78V40.07C235.18 40.47 235.21 40.6 235.31 40.7C235.4 40.79 235.56 40.82 235.71 40.82C235.78 40.82 235.97 40.82 236.05 40.82C236.14 40.82 236.27 40.81 236.34 40.77C236.43 40.73 236.51 40.66 236.55 40.56C236.6 40.46 236.62 40.16 236.63 39.9C236.51 39.87 236.35 39.79 236.25 39.72C236.24 39.96 236.23 40.16 236.21 40.24C236.19 40.32 236.17 40.37 236.14 40.39C236.12 40.41 236.05 40.41 236 40.41C235.93 40.41 235.85 40.41 235.81 40.41C235.76 40.41 235.72 40.4 235.7 40.38C235.68 40.35 235.68 40.27 235.68 40.14V38.78H235.18ZM231.9 35.61V36.78H232.67V35.61H231.9ZM228.51 36.45V37.1H236.49V36.45H228.51ZM228.09 36.45V39.54C228.09 40.98 228.03 42.98 227.32 44.4C227.48 44.48 227.78 44.7 227.9 44.83C228.67 43.32 228.79 41.07 228.79 39.54V36.45H228.09ZM239.285 38.39V39.01H244.925V38.39H239.285ZM241.595 35.59V36.89H242.375V35.59H241.595ZM237.765 44L237.945 44.73C239.135 44.53 240.845 44.24 242.455 43.96L242.405 43.26C240.705 43.55 238.905 43.84 237.765 44ZM241.925 40.5L241.235 40.67C242.025 42.94 243.575 44.29 246.165 44.81C246.265 44.62 246.475 44.31 246.635 44.14C244.155 43.72 242.605 42.49 241.925 40.5ZM245.515 40.79C244.815 41.38 243.655 42.14 242.805 42.58L243.305 43.01C244.165 42.58 245.295 41.87 246.095 41.25L245.515 40.79ZM239.255 36.56V37.23H244.615V40.2H239.255V40.87H245.375V36.56H239.255ZM238.855 36.56V44.08L239.625 44.02V36.56H238.855ZM17.1246 51.56V52.21H25.8146V51.56H17.1246ZM21.0346 50.6V51.87H21.8046V50.6H21.0346ZM17.5646 55.47V59.81H18.2946V56.11H24.9946V55.47H17.5646ZM24.6846 55.47V58.89C24.6846 59.03 24.6446 59.08 24.4746 59.08C24.3046 59.1 23.7446 59.1 23.0846 59.08C23.1946 59.28 23.3046 59.58 23.3346 59.79C24.1646 59.79 24.7046 59.78 25.0246 59.67C25.3446 59.54 25.4346 59.32 25.4346 58.91V55.47H24.6846ZM19.5646 56.76V59.38H20.2346V56.76H19.5646ZM19.9246 56.76V57.3H22.7046V58.33H19.9246V58.87H23.3846V56.76H19.9246ZM19.5046 53.32H23.4146V54.29H19.5046V53.32ZM18.7846 52.77V54.84H24.1746V52.77H18.7846ZM27.2196 52V52.73H35.8496V52H27.2196ZM31.0796 50.61V59.8H31.8596V50.61H31.0796ZM31.1696 55.05C30.2696 56.57 28.5396 58.03 26.8696 58.71C27.0396 58.86 27.2796 59.16 27.3996 59.35C29.0896 58.56 30.8196 57.01 31.7996 55.3L31.1696 55.05ZM31.8196 55.07L31.1896 55.33C32.1596 57.04 33.8596 58.6 35.5796 59.37C35.7096 59.16 35.9496 58.86 36.1396 58.7C34.4096 58.04 32.6996 56.6 31.8196 55.07ZM28.5496 54.53C29.0296 54.95 29.6296 55.55 29.9396 55.91L30.4496 55.4C30.1396 55.04 29.5196 54.47 29.0496 54.07L28.5496 54.53ZM28.9696 52.97C28.6696 54.26 28.0396 55.35 27.1296 56.03C27.3096 56.15 27.5996 56.39 27.7196 56.52C28.6496 55.75 29.3496 54.56 29.6996 53.1L28.9696 52.97ZM33.3596 54.55C34.0396 55.1 34.9396 55.87 35.3696 56.35L35.8996 55.83C35.4496 55.37 34.5296 54.62 33.8596 54.11L33.3596 54.55ZM33.7096 52.97C33.4896 54.09 33.0096 55.07 32.2796 55.68C32.4596 55.77 32.7796 55.98 32.9196 56.1C33.6296 55.4 34.1696 54.35 34.4296 53.09L33.7096 52.97ZM38.9746 54.55H36.9846V55.25H38.2546V58.09H38.9746V54.55ZM38.9746 57.79H38.3246C37.8546 58.22 37.3146 58.67 36.8746 58.99L37.2646 59.72C37.7646 59.28 38.2246 58.85 38.6646 58.42C39.2846 59.21 40.1946 59.56 41.5146 59.61C42.6346 59.66 44.7746 59.64 45.9046 59.59C45.9346 59.37 46.0546 59.02 46.1446 58.85C44.9346 58.93 42.6246 58.96 41.5146 58.91C40.3246 58.87 39.4446 58.53 38.9746 57.79ZM37.0746 51.27C37.6846 51.76 38.3746 52.46 38.6546 52.96L39.2746 52.49C38.9646 52 38.2646 51.31 37.6446 50.86L37.0746 51.27ZM39.3146 53.28V53.85H45.9946V53.28H39.3146ZM40.8746 54.8H44.4146V55.63H40.8746V54.8ZM40.1746 54.31V56.11H45.1546V54.31H40.1746ZM42.4046 55.71C41.7446 56.49 40.5646 57.15 39.4546 57.57C39.6046 57.7 39.8246 57.98 39.9146 58.13C41.0446 57.64 42.2946 56.85 43.0446 55.94L42.4046 55.71ZM45.1746 55.89C44.8346 56.25 44.2146 56.77 43.7646 57.07L44.1846 57.38C44.6546 57.09 45.2446 56.67 45.7346 56.25L45.1746 55.89ZM42.8246 56.08L42.2746 56.26C42.9446 57.24 44.2146 58.03 45.5446 58.37C45.6346 58.19 45.8246 57.93 45.9746 57.8C44.6846 57.54 43.4346 56.89 42.8246 56.08ZM43.7346 51.39H44.7846V52.33H43.7346V51.39ZM42.0946 51.39H43.1346V52.33H42.0946V51.39ZM40.5046 51.39H41.5046V52.33H40.5046V51.39ZM39.8546 50.91V52.81H45.4646V50.91H39.8546ZM42.1746 55.84V58.6H42.8946V55.84H42.1746ZM47.0796 56.72V57.35H56.0196V56.72H47.0796ZM48.7596 53.07V53.6H54.9496V53.07H48.7596ZM48.7596 54.27V54.81H54.9796V54.27H48.7596ZM48.6396 51.79V52.41H55.3596V51.79H48.6396ZM51.3396 52.14V55.73H52.0696V52.14H51.3396ZM51.1496 55.92V59.8H51.8996V55.92H51.1496ZM50.9896 56.95C50.0796 57.85 48.3196 58.69 46.8296 59.07C46.9996 59.22 47.2196 59.5 47.3296 59.7C48.7996 59.24 50.5796 58.29 51.5696 57.25L50.9896 56.95ZM52.0696 56.95L51.4896 57.25C52.4796 58.26 54.2496 59.18 55.7396 59.62C55.8496 59.43 56.0596 59.15 56.2196 59C54.7196 58.63 52.9696 57.83 52.0696 56.95ZM51.8096 50.6C51.6696 51.03 51.3796 51.65 51.1396 52.05L51.7996 52.19C52.0596 51.81 52.3696 51.25 52.6496 50.72L51.8096 50.6ZM49.1996 50.59C48.7496 51.5 47.9296 52.67 46.8096 53.55C46.9796 53.65 47.2296 53.88 47.3596 54.05C48.5496 53.05 49.3896 51.83 49.9796 50.73L49.1996 50.59ZM48.2896 52.2V56.1H55.7496V55.5H49.0096V52.2H48.2896ZM57.0446 55.07V55.82H66.1246V55.07H57.0446ZM61.2046 53.46V58.83C61.2046 59.01 61.1346 59.06 60.9246 59.07C60.7046 59.08 59.9646 59.08 59.1546 59.05C59.2846 59.27 59.4246 59.61 59.4846 59.83C60.4446 59.83 61.0946 59.81 61.4646 59.69C61.8446 59.57 61.9846 59.34 61.9846 58.84V53.46H61.2046ZM58.0746 51.3V52.04H64.6046V51.3H58.0746ZM64.3446 51.3V51.47C63.7146 52.18 62.3846 53.13 61.2946 53.65C61.4446 53.78 61.6746 54.02 61.7846 54.19C62.9546 53.59 64.3746 52.6 65.2846 51.68L64.7146 51.26L64.5446 51.3H64.3446ZM69.6396 53.4V58.42C69.6396 59.4 69.9496 59.67 71.0096 59.67C71.2396 59.67 72.7296 59.67 72.9696 59.67C74.0596 59.67 74.2896 59.11 74.3996 57.22C74.1796 57.17 73.8696 57.03 73.6896 56.88C73.6096 58.61 73.5196 58.98 72.9296 58.98C72.5896 58.98 71.3296 58.98 71.0796 58.98C70.5296 58.98 70.4096 58.89 70.4096 58.42V53.4H69.6396ZM69.7196 51.22C70.9296 51.65 72.3896 52.4 73.1596 52.98L73.6396 52.32C72.8496 51.78 71.3996 51.06 70.1896 50.65L69.7196 51.22ZM67.9696 54.2C67.8296 55.5 67.4996 56.96 66.8296 57.84L67.5096 58.25C68.2296 57.29 68.5396 55.69 68.6896 54.35L67.9696 54.2ZM73.7996 54.21C74.6496 55.34 75.3996 56.9 75.6196 57.95L76.3696 57.59C76.1196 56.53 75.3696 55.02 74.4696 53.88L73.7996 54.21ZM81.2546 54.95V55.5H86.1746V54.95H81.2546ZM81.0746 59.05V59.62H86.2446V59.05H81.0746ZM82.7446 50.61V51.86H83.3146V50.61H82.7446ZM84.0246 50.61V51.86H84.5946V50.61H84.0246ZM82.3746 56.47H84.9946V57.35H82.3746V56.47ZM81.7546 55.98V57.84H85.6446V55.98H81.7546ZM82.1446 53.23H85.2246V53.92H82.1446V53.23ZM82.1446 52.05H85.2246V52.73H82.1446V52.05ZM81.5546 51.53V54.45H85.8346V51.53H81.5546ZM82.2246 58.04C82.4246 58.4 82.5846 58.89 82.6346 59.22L83.2146 59.01C83.1546 58.68 82.9846 58.21 82.7646 57.86L82.2246 58.04ZM84.5446 57.85C84.4446 58.18 84.2446 58.69 84.0846 59.03L84.5746 59.2C84.7446 58.89 84.9746 58.44 85.1846 58.03L84.5446 57.85ZM78.1646 56.21V56.75H80.3946V56.21H78.1646ZM78.1646 57.49V58.04H80.3946V57.49H78.1646ZM77.8146 54.95V59.81H78.4546V55.5H80.3646V54.95H77.8146ZM79.9646 54.95V59.09C79.9646 59.19 79.9246 59.22 79.8246 59.22C79.7346 59.23 79.4146 59.23 79.0646 59.22C79.1446 59.38 79.2346 59.63 79.2646 59.8C79.7946 59.8 80.1246 59.8 80.3346 59.69C80.5546 59.59 80.6146 59.42 80.6146 59.1V54.95H79.9646ZM77.8046 50.96V54H78.3846V51.53H80.0346V54H80.6246V50.96H77.8046ZM77.2346 53.74V55.18H77.8046V54.29H80.6246V55.18H81.2146V53.74H77.2346ZM78.9046 52.18V53.95H79.3846V52.66H80.4146V52.18H78.9046ZM82.8446 51.73V54.19H83.3146V51.73H82.8446ZM84.0246 51.73V54.19H84.4946V51.73H84.0246ZM88.8996 53.41V54.03H96.0096V53.41H88.8996ZM89.0396 56.33V56.95H94.7596V56.33H89.0396ZM90.5096 52.54V55.69H94.3896V52.54H93.6596V55.09H91.2196V52.54H90.5096ZM94.5596 56.33V56.44C93.6496 58.15 91.1796 58.93 88.6496 59.17C88.7696 59.34 88.9096 59.62 88.9696 59.81C91.6596 59.47 94.2196 58.63 95.3196 56.55L94.8496 56.29L94.7096 56.33H94.5596ZM90.8196 56.85L90.1696 57.09C91.2596 58.65 93.3396 59.5 95.8196 59.82C95.9096 59.63 96.0996 59.34 96.2596 59.18C93.8396 58.93 91.7696 58.18 90.8196 56.85ZM91.5496 50.61V51.97H92.3196V50.61H91.5496ZM88.2196 51.6V52.28H96.0796V51.6H88.2196ZM87.8496 51.6V54.48C87.8496 55.94 87.7796 57.97 86.9596 59.4C87.1296 59.48 87.4496 59.69 87.5796 59.82C88.4396 58.3 88.5696 56.04 88.5696 54.48V51.6H87.8496ZM97.4546 51.24V51.94H105.925V51.24H97.4546ZM97.1846 58.67V59.36H106.165V58.67H97.1846ZM98.3446 56.17V56.84H100.165V59.04H100.885V56.17H98.3446ZM97.9046 53.48V57.24H98.6346V54.13H100.885V53.48H97.9046ZM100.885 51.56H100.165V53.8H100.885V51.56ZM102.385 51.57V53.81H103.105V51.57H102.385ZM102.385 53.46V54.12H104.675V57.17H105.425V53.46H102.385ZM102.385 56.17V59.06H103.105V56.84H105.065V56.17H102.385ZM111.14 56.59H111.96C111.7 55.09 114.09 54.78 114.09 53.27C114.09 52.12 113.18 51.39 111.77 51.39C110.69 51.39 109.91 51.86 109.25 52.56L109.78 53.05C110.36 52.45 110.99 52.15 111.68 52.15C112.7 52.15 113.19 52.65 113.19 53.34C113.19 54.48 110.84 54.92 111.14 56.59ZM111.57 59.05C111.92 59.05 112.21 58.8 112.21 58.4C112.21 58 111.92 57.73 111.57 57.73C111.22 57.73 110.93 58 110.93 58.4C110.93 58.8 111.21 59.05 111.57 59.05ZM117.345 57.21V57.83H126.105V57.21H117.345ZM119.115 55.45V56.02H123.735V55.45H119.115ZM121.345 56.65V59C121.345 59.13 121.305 59.16 121.145 59.17C120.985 59.18 120.415 59.19 119.805 59.17C119.905 59.35 120.015 59.61 120.055 59.81C120.855 59.81 121.375 59.8 121.675 59.7C122.005 59.6 122.085 59.41 122.085 59.02V56.65H121.345ZM123.565 55.45V55.58C123.125 55.98 122.255 56.49 121.525 56.77C121.625 56.86 121.805 57.05 121.895 57.17C122.725 56.84 123.695 56.32 124.355 55.79L123.905 55.41L123.745 55.45H123.565ZM117.465 54.19V56.02H118.185V54.77H125.265V56.02H126.005V54.19H117.465ZM118.065 51.04L118.295 54.48H118.985L118.795 51.38C118.915 51.36 118.975 51.32 118.995 51.27L118.065 51.04ZM124.735 50.98C124.685 52.1 124.585 53.6 124.465 54.51H125.185C125.285 53.62 125.385 52.13 125.445 50.98H124.735ZM123.095 50.98V51.5H125.015V50.98H123.095ZM120.015 50.69C119.555 50.87 118.775 51.15 118.225 51.26L118.555 51.67C119.105 51.55 119.865 51.36 120.405 51.11L120.015 50.69ZM118.505 52.05V52.56H120.325V52.05H118.505ZM118.555 53.11V53.63H120.375V53.11H118.555ZM123.135 52.05V52.56H124.935V52.05H123.135ZM123.095 53.11V53.63H124.865V53.11H123.095ZM122.185 50.7C121.785 51.22 121.095 51.7 120.415 52.03C120.535 52.12 120.755 52.3 120.845 52.4C121.515 52.03 122.255 51.46 122.715 50.86L122.185 50.7ZM120.695 51.12C121.285 51.44 121.995 51.92 122.335 52.27L122.725 51.92C122.375 51.57 121.655 51.09 121.065 50.8L120.695 51.12ZM122.285 52.36C121.875 52.91 121.145 53.42 120.435 53.76C120.565 53.85 120.785 54.04 120.875 54.13C121.565 53.75 122.355 53.15 122.825 52.52L122.285 52.36ZM120.765 52.82C121.365 53.16 122.085 53.67 122.425 54.03L122.825 53.67C122.465 53.31 121.735 52.81 121.135 52.51L120.765 52.82ZM129.13 52.14V52.85H131.68V52.14H129.13ZM133.5 50.61V59.78H134.27V50.61H133.5ZM128.04 54.65C128.88 55.13 129.89 55.88 130.37 56.4L130.79 55.78C130.3 55.27 129.27 54.56 128.43 54.1L128.04 54.65ZM129.42 50.6C128.95 52.41 128.12 54.07 127.01 55.09C127.19 55.21 127.51 55.45 127.64 55.58C128.76 54.45 129.64 52.71 130.17 50.75L129.42 50.6ZM132.47 52.98L131.84 53.22C132.78 54.96 134.43 56.62 136.06 57.46C136.19 57.26 136.42 56.98 136.6 56.83C134.98 56.1 133.32 54.55 132.47 52.98ZM131.47 52.14V52.31C130.95 55.87 129.37 58.07 127.24 59.19C127.42 59.31 127.71 59.58 127.84 59.75C129.98 58.55 131.63 56.16 132.23 52.27L131.75 52.11L131.61 52.14H131.47ZM141.635 52.13H145.335V55.38H141.635V52.13ZM141.015 51.55V55.96H145.975V51.55H141.015ZM143.215 50.58C143.125 50.94 142.925 51.46 142.765 51.82L143.385 51.97C143.575 51.66 143.825 51.19 144.035 50.73L143.215 50.58ZM142.355 56.31C142.935 56.63 143.635 57.14 143.965 57.51L144.455 57.08C144.105 56.7 143.395 56.22 142.805 55.92L142.355 56.31ZM144.785 57.25C145.285 57.92 145.735 58.83 145.895 59.45L146.495 59.16C146.325 58.54 145.865 57.64 145.345 56.97L144.785 57.25ZM142.195 57.01V58.9C142.195 59.59 142.375 59.78 143.105 59.78C143.255 59.78 144.075 59.78 144.235 59.78C144.805 59.78 144.995 59.54 145.065 58.56C144.875 58.51 144.605 58.41 144.465 58.3C144.445 59.06 144.395 59.15 144.155 59.15C143.985 59.15 143.315 59.15 143.185 59.15C142.895 59.15 142.845 59.12 142.845 58.9V57.01H142.195ZM141.225 57.16C141.105 57.93 140.855 58.73 140.355 59.2L140.915 59.52C141.455 59.01 141.685 58.13 141.825 57.31L141.225 57.16ZM143.275 52.21C143.045 52.81 142.565 53.51 141.815 54.03C141.945 54.1 142.115 54.25 142.205 54.36C143.015 53.77 143.495 53.01 143.795 52.28L143.275 52.21ZM143.325 52.67L143.105 53.1H144.675V52.67H143.325ZM144.495 52.67V52.76C144.145 53.86 143.185 54.66 142.195 55.02C142.315 55.12 142.455 55.3 142.525 55.42C143.605 54.98 144.605 54.12 145.025 52.79L144.695 52.65L144.595 52.67H144.495ZM141.875 53.25C142.875 53.69 144.045 54.44 144.635 54.99L145.015 54.6C144.415 54.08 143.225 53.34 142.245 52.9L141.875 53.25ZM138.735 50.61C138.485 51.27 138.025 52.25 137.675 52.83L138.175 53.05C138.545 52.49 139.015 51.59 139.375 50.85L138.735 50.61ZM139.795 51.75C139.275 52.8 138.375 54.29 137.665 55.18L138.115 55.42C138.835 54.56 139.755 53.14 140.415 52.03L139.795 51.75ZM137.135 52.68C137.665 53.18 138.265 53.89 138.515 54.37L138.935 53.82C138.675 53.37 138.065 52.69 137.535 52.2L137.135 52.68ZM139.415 54.01C139.785 54.69 140.125 55.59 140.235 56.15L140.795 55.91C140.695 55.35 140.325 54.47 139.945 53.81L139.415 54.01ZM137.055 55.03L137.135 55.7C138.005 55.64 139.145 55.57 140.275 55.5V54.86C139.075 54.93 137.885 54.99 137.055 55.03ZM139.605 56.44C139.835 57.02 140.025 57.78 140.075 58.28L140.635 58.11C140.585 57.62 140.375 56.86 140.135 56.29L139.605 56.44ZM137.655 56.32C137.545 57.19 137.355 58.09 137.035 58.7C137.185 58.76 137.475 58.89 137.595 58.98C137.905 58.34 138.145 57.37 138.275 56.43L137.655 56.32ZM138.665 55.32V59.8H139.315V55.32H138.665ZM148.31 53.89C148.15 54.3 147.85 54.92 147.6 55.3L148.05 55.47C148.3 55.11 148.62 54.57 148.89 54.09L148.31 53.89ZM149.15 54.69C148.79 55.37 148.14 56.36 147.62 56.94L148.03 57.16C148.55 56.6 149.19 55.69 149.7 54.95L149.15 54.69ZM148.33 52.8H151.15V53.52H148.33V52.8ZM148.33 51.6H151.15V52.31H148.33V51.6ZM147.67 51.09V54.04H151.81V51.09H147.67ZM147.23 55.18C147.66 55.49 148.14 55.96 148.38 56.27L148.71 55.8C148.47 55.5 147.98 55.06 147.53 54.76L147.23 55.18ZM148.9 56.21C149.09 56.64 149.28 57.2 149.34 57.57L149.8 57.39C149.73 57.03 149.54 56.48 149.32 56.05L148.9 56.21ZM148.78 57.94C148.88 58.46 148.96 59.12 148.97 59.56L149.53 59.47C149.5 59.04 149.41 58.38 149.3 57.87L148.78 57.94ZM149.82 57.87C150.01 58.33 150.19 58.94 150.26 59.32L150.77 59.18C150.7 58.79 150.51 58.2 150.31 57.74L149.82 57.87ZM150.82 57.74C151.08 58.11 151.37 58.63 151.5 58.96L151.99 58.73C151.85 58.41 151.56 57.92 151.29 57.55L150.82 57.74ZM147.85 57.75C147.73 58.36 147.48 59.06 147.1 59.45L147.62 59.77C148.05 59.32 148.27 58.58 148.39 57.93L147.85 57.75ZM147.2 56.83L147.25 57.4C147.91 57.36 148.68 57.32 149.5 57.26L149.51 56.75C148.63 56.78 147.82 56.82 147.2 56.83ZM150.54 53.89C150.39 54.3 150.08 54.92 149.84 55.3L150.29 55.47C150.54 55.11 150.85 54.57 151.13 54.09L150.54 53.89ZM151.41 54.67C151.03 55.36 150.37 56.34 149.85 56.92L150.25 57.15C150.78 56.58 151.44 55.67 151.95 54.93L151.41 54.67ZM149.49 55.19C149.91 55.51 150.39 55.97 150.62 56.27L150.95 55.8C150.71 55.5 150.23 55.07 149.79 54.77L149.49 55.19ZM151.17 56.19C151.42 56.64 151.66 57.23 151.75 57.63L152.23 57.41C152.13 57.03 151.87 56.45 151.61 56.01L151.17 56.19ZM149.7 56.84L149.78 57.41C150.39 57.37 151.09 57.31 151.82 57.26V56.73C151.02 56.78 150.28 56.82 149.7 56.84ZM152.23 51.08V51.73H156.26V51.08H152.23ZM153.15 54.79H155.42V55.75H153.15V54.79ZM153.15 56.32H155.42V57.3H153.15V56.32ZM153.15 53.26H155.42V54.21H153.15V53.26ZM152.51 52.67V57.89H156.07V52.67H152.51ZM153.88 51.38C153.85 51.85 153.76 52.53 153.67 52.98L154.28 53.1C154.4 52.68 154.53 52.05 154.67 51.49L153.88 51.38ZM153.39 58.14C153.05 58.56 152.35 59.07 151.73 59.36C151.89 59.49 152.12 59.69 152.23 59.83C152.84 59.52 153.57 58.99 154.03 58.5L153.39 58.14ZM154.63 58.51C155.1 58.9 155.67 59.46 155.94 59.82L156.52 59.44C156.22 59.07 155.64 58.53 155.18 58.17L154.63 58.51ZM161.395 51.16V51.86H166.225V51.16H161.395ZM161.115 54.74V55.46H166.425V54.74H161.115ZM164.575 51.44V59.81H165.285V51.44H164.575ZM162.225 51.47V54.97C162.225 56.43 162.085 58.2 160.935 59.42C161.115 59.51 161.385 59.72 161.515 59.85C162.765 58.54 162.935 56.63 162.935 54.97V51.47H162.225ZM157.325 51.15V51.84H160.855V51.15H157.325ZM158.335 54.22V54.9H160.015V57.87H158.335V58.55H160.675V54.22H158.335ZM158.635 51.47C158.375 53.14 157.905 54.7 157.135 55.72C157.265 55.92 157.435 56.35 157.485 56.53C158.405 55.33 158.975 53.51 159.335 51.62L158.635 51.47ZM158.005 54.22V59.35H158.645V54.22H158.005ZM173.33 56.22V56.87H175.94V56.22H173.33ZM173.01 54.53V59.04L173.72 59.31V54.53H173.01ZM171.56 56.62L171 56.83C171.61 59.18 172.76 59.71 174.55 59.71H176.23C176.25 59.51 176.36 59.18 176.46 59.02C176.15 59.02 174.83 59.02 174.61 59.02C173.13 59.02 172.05 58.6 171.56 56.62ZM171.74 50.61C171.45 52.13 170.86 53.43 169.91 54.24C170.08 54.35 170.37 54.62 170.47 54.75C171.45 53.84 172.12 52.42 172.46 50.72L171.74 50.61ZM174.43 50.61C174.21 52.18 173.65 53.4 172.64 54.14C172.81 54.25 173.12 54.48 173.24 54.61C174.26 53.76 174.89 52.44 175.16 50.7L174.43 50.61ZM171.49 52.64C171.94 53 172.51 53.51 172.78 53.83L173.15 53.25C172.87 52.95 172.3 52.47 171.85 52.13L171.49 52.64ZM174.11 52.65C174.79 53.24 175.6 54.08 175.99 54.61L176.51 54.1C176.12 53.59 175.28 52.77 174.61 52.21L174.11 52.65ZM171.05 55.26C170.96 57.08 170.6 58.46 169.58 59.3C169.74 59.41 170.04 59.66 170.15 59.78C171.22 58.8 171.65 57.35 171.79 55.31L171.05 55.26ZM169.52 52.64C168.93 53.7 167.98 54.75 167.05 55.43C167.19 55.59 167.41 55.94 167.48 56.1C168.46 55.3 169.51 54.09 170.2 52.89L169.52 52.64ZM169.29 50.61C168.85 51.32 167.95 52.17 167.17 52.7C167.3 52.84 167.49 53.1 167.59 53.25C168.44 52.65 169.38 51.71 169.96 50.87L169.29 50.61ZM168.62 54.5V59.84H169.33V53.94L169.23 53.89L168.62 54.5ZM179.325 54.55H177.335V55.25H178.605V58.09H179.325V54.55ZM179.325 57.79H178.675C178.205 58.22 177.665 58.67 177.225 58.99L177.615 59.72C178.115 59.28 178.575 58.85 179.015 58.42C179.635 59.21 180.545 59.56 181.865 59.61C182.985 59.66 185.125 59.64 186.255 59.59C186.285 59.37 186.405 59.02 186.495 58.85C185.285 58.93 182.975 58.96 181.865 58.91C180.675 58.87 179.795 58.53 179.325 57.79ZM177.425 51.27C178.035 51.76 178.725 52.46 179.005 52.96L179.625 52.49C179.315 52 178.615 51.31 177.995 50.86L177.425 51.27ZM181.335 54.33H184.685V55.33H181.335V54.33ZM180.635 53.78V55.87H185.415V53.78H180.635ZM179.815 52.66V53.23H186.265V52.66H179.815ZM180.365 51.38V51.94H185.655V51.38H180.365ZM182.615 50.61V53.01H183.345V50.61H182.615ZM182.595 55.57V58.5H183.315V55.57H182.595ZM182.605 55.56C182.015 56.38 180.875 57.05 179.765 57.46C179.905 57.59 180.135 57.89 180.225 58.03C181.375 57.54 182.585 56.75 183.265 55.77L182.605 55.56ZM185.555 55.7C185.175 56.05 184.495 56.54 184.005 56.84L184.445 57.14C184.955 56.88 185.605 56.47 186.135 56.06L185.555 55.7ZM183.305 55.79L182.735 55.95C183.365 57.05 184.545 57.92 185.865 58.31C185.965 58.13 186.145 57.87 186.305 57.74C185.035 57.43 183.865 56.7 183.305 55.79ZM191.9 51.54V57.48L192.63 57.38V51.54H191.9ZM194.55 50.8V59.82H195.29V50.8H194.55ZM190.48 57.35L190.62 58.05L196.54 57.04L196.4 56.35L190.48 57.35ZM188.09 51.52V52.22H189.94V56.27H188.09V56.97H190.66V51.52H188.09ZM187.65 51.52V58.04H188.35V51.52H187.65ZM197.365 54.69V55.51H206.515V54.69H197.365ZM210.54 52.69V53.26H212.56V52.69H210.54ZM213.71 52.69V53.26H215.75V52.69H213.71ZM215.51 51.18V58.82C215.51 59.01 215.44 59.07 215.25 59.08C215.05 59.09 214.35 59.09 213.64 59.07C213.74 59.27 213.86 59.6 213.9 59.8C214.85 59.8 215.44 59.79 215.77 59.66C216.11 59.54 216.23 59.31 216.23 58.82V51.18H215.51ZM210.12 51.18V59.78H210.82V51.18H210.12ZM210.58 51.18V51.78H212.22V54.23H210.58V54.83H212.81V51.18H210.58ZM215.87 51.18H213.41V54.83H215.87V54.23H214.03V51.78H215.87V51.18ZM209.27 50.66C208.79 52.2 208 53.74 207.12 54.74C207.25 54.93 207.45 55.33 207.52 55.51C208.51 54.34 209.4 52.58 209.97 50.85L209.27 50.66ZM208.47 53.11V59.8H209.18V52.44L209.16 52.42L208.47 53.11ZM221.625 50.65C221.295 52.12 220.715 53.56 219.975 54.49C220.145 54.6 220.445 54.84 220.575 54.97C221.345 53.95 221.975 52.41 222.365 50.81L221.625 50.65ZM221.455 54.89C221.175 56.09 220.695 57.28 220.075 58.05C220.255 58.14 220.575 58.34 220.725 58.46C221.335 57.62 221.875 56.35 222.185 55.04L221.455 54.89ZM221.535 52.53L221.245 53.23H226.035V52.53H221.535ZM223.085 52.82V58.89C223.085 59.02 223.045 59.06 222.915 59.06C222.775 59.06 222.345 59.07 221.875 59.05C221.985 59.27 222.095 59.6 222.145 59.81C222.765 59.81 223.195 59.79 223.465 59.66C223.745 59.54 223.835 59.32 223.835 58.89V52.82H223.085ZM224.555 55.04C225.105 56.09 225.605 57.5 225.765 58.42L226.475 58.18C226.305 57.25 225.805 55.87 225.225 54.82L224.555 55.04ZM225.815 52.53V52.64C225.715 53.3 225.585 54.14 225.475 54.64L226.125 54.76C226.255 54.22 226.425 53.36 226.565 52.62L226.045 52.51L225.915 52.53H225.815ZM219.615 50.64C219.055 52.16 218.115 53.66 217.125 54.63C217.265 54.8 217.475 55.2 217.555 55.37C218.635 54.25 219.665 52.56 220.325 50.86L219.615 50.64ZM218.575 53.22V59.79H219.295V52.52L219.275 52.51L218.575 53.22ZM227.52 54.65V55.3H236.49V54.65H227.52ZM227.63 57.81V58.47H236.39V57.81H227.63ZM228.23 53.04V53.68H235.84V53.04H228.23ZM228.08 56.31V56.94H236.01V56.31H228.08ZM231.59 53.28V59.82H232.33V53.28H231.59ZM229.34 53.33V56.62H230.04V53.33H229.34ZM233.96 53.33V56.62H234.67V53.33H233.96ZM229.87 50.61V52.76H230.61V50.61H229.87ZM233.32 50.61V52.76H234.06V50.61H233.32ZM227.61 51.32V51.99H236.4V51.32H227.61ZM18.1346 66.29V71.67H18.8846V67.01H24.2446V71.62H25.0146V66.29H18.1346ZM18.4846 70.59V71.31H24.5546V70.59H18.4846ZM22.3646 72.42C23.3546 73.14 24.5746 74.17 25.1446 74.83L25.7946 74.37C25.1946 73.69 23.9446 72.7 22.9746 72.02L22.3646 72.42ZM19.8546 72C19.2746 72.8 18.1046 73.72 17.0446 74.28C17.2246 74.41 17.4946 74.66 17.6446 74.82C18.7246 74.21 19.9046 73.24 20.6446 72.32L19.8546 72ZM28.4396 71.57C27.5996 71.57 26.9096 72.25 26.9096 73.09C26.9096 73.93 27.5996 74.61 28.4396 74.61C29.2796 74.61 29.9596 73.93 29.9596 73.09C29.9596 72.25 29.2796 71.57 28.4396 71.57ZM28.4396 74.1C27.8796 74.1 27.4196 73.65 27.4196 73.09C27.4196 72.53 27.8796 72.08 28.4396 72.08C28.9996 72.08 29.4496 72.53 29.4496 73.09C29.4496 73.65 28.9996 74.1 28.4396 74.1ZM40.1146 67.69V68.26H42.1346V67.69H40.1146ZM43.2846 67.69V68.26H45.3246V67.69H43.2846ZM45.0846 66.18V73.82C45.0846 74.01 45.0146 74.07 44.8246 74.08C44.6246 74.09 43.9246 74.09 43.2146 74.07C43.3146 74.27 43.4346 74.6 43.4746 74.8C44.4246 74.8 45.0146 74.79 45.3446 74.66C45.6846 74.54 45.8046 74.31 45.8046 73.82V66.18H45.0846ZM39.6946 66.18V74.78H40.3946V66.18H39.6946ZM40.1546 66.18V66.78H41.7946V69.23H40.1546V69.83H42.3846V66.18H40.1546ZM45.4446 66.18H42.9846V69.83H45.4446V69.23H43.6046V66.78H45.4446V66.18ZM38.8446 65.66C38.3646 67.2 37.5746 68.74 36.6946 69.74C36.8246 69.93 37.0246 70.33 37.0946 70.51C38.0846 69.34 38.9746 67.58 39.5446 65.85L38.8446 65.66ZM38.0446 68.11V74.8H38.7546V67.44L38.7346 67.42L38.0446 68.11ZM48.4996 66.31V67.03H54.9696V66.31H48.4996ZM48.4996 68.64V69.35H54.9596V68.64H48.4996ZM48.4496 71.03V71.74H54.9796V71.03H48.4496ZM48.0796 66.31V69.93C48.0796 71.34 47.9696 73.12 46.8696 74.36C47.0296 74.46 47.3296 74.71 47.4496 74.86C48.6396 73.53 48.8196 71.46 48.8196 69.94V66.31H48.0796ZM54.6696 66.31V73.78C54.6696 73.97 54.5996 74.03 54.4096 74.04C54.2196 74.04 53.5396 74.05 52.8296 74.02C52.9396 74.22 53.0596 74.55 53.0896 74.75C54.0396 74.76 54.6196 74.75 54.9596 74.63C55.2896 74.5 55.4096 74.27 55.4096 73.78V66.31H54.6696ZM51.2196 66.58V74.71H51.9796V66.58H51.2196ZM57.1946 72.21V72.83H65.9546V72.21H57.1946ZM58.9646 70.45V71.02H63.5846V70.45H58.9646ZM61.1946 71.65V74C61.1946 74.13 61.1546 74.16 60.9946 74.17C60.8346 74.18 60.2646 74.19 59.6546 74.17C59.7546 74.35 59.8646 74.61 59.9046 74.81C60.7046 74.81 61.2246 74.8 61.5246 74.7C61.8546 74.6 61.9346 74.41 61.9346 74.02V71.65H61.1946ZM63.4146 70.45V70.58C62.9746 70.98 62.1046 71.49 61.3746 71.77C61.4746 71.86 61.6546 72.05 61.7446 72.17C62.5746 71.84 63.5446 71.32 64.2046 70.79L63.7546 70.41L63.5946 70.45H63.4146ZM57.3146 69.19V71.02H58.0346V69.77H65.1146V71.02H65.8546V69.19H57.3146ZM57.9146 66.04L58.1446 69.48H58.8346L58.6446 66.38C58.7646 66.36 58.8246 66.32 58.8446 66.27L57.9146 66.04ZM64.5846 65.98C64.5346 67.1 64.4346 68.6 64.3146 69.51H65.0346C65.1346 68.62 65.2346 67.13 65.2946 65.98H64.5846ZM62.9446 65.98V66.5H64.8646V65.98H62.9446ZM59.8646 65.69C59.4046 65.87 58.6246 66.15 58.0746 66.26L58.4046 66.67C58.9546 66.55 59.7146 66.36 60.2546 66.11L59.8646 65.69ZM58.3546 67.05V67.56H60.1746V67.05H58.3546ZM58.4046 68.11V68.63H60.2246V68.11H58.4046ZM62.9846 67.05V67.56H64.7846V67.05H62.9846ZM62.9446 68.11V68.63H64.7146V68.11H62.9446ZM62.0346 65.7C61.6346 66.22 60.9446 66.7 60.2646 67.03C60.3846 67.12 60.6046 67.3 60.6946 67.4C61.3646 67.03 62.1046 66.46 62.5646 65.86L62.0346 65.7ZM60.5446 66.12C61.1346 66.44 61.8446 66.92 62.1846 67.27L62.5746 66.92C62.2246 66.57 61.5046 66.09 60.9146 65.8L60.5446 66.12ZM62.1346 67.36C61.7246 67.91 60.9946 68.42 60.2846 68.76C60.4146 68.85 60.6346 69.04 60.7246 69.13C61.4146 68.75 62.2046 68.15 62.6746 67.52L62.1346 67.36ZM60.6146 67.82C61.2146 68.16 61.9346 68.67 62.2746 69.03L62.6746 68.67C62.3146 68.31 61.5846 67.81 60.9846 67.51L60.6146 67.82ZM75.0996 67.35C74.9596 68.11 74.6696 69.21 74.4196 69.88L75.0096 70.04C75.2696 69.4 75.5696 68.36 75.8196 67.51L75.0996 67.35ZM71.2296 67.57C71.4796 68.36 71.6996 69.38 71.7496 70.06L72.4096 69.89C72.3496 69.23 72.1096 68.21 71.8396 67.42L71.2296 67.57ZM70.9896 66.17V66.87H76.0196V66.17H70.9896ZM70.5996 70.48V71.2H76.2196V70.48H70.5996ZM73.0796 66.41V74.8H73.8096V66.41H73.0796ZM67.4496 68.63V69.23H70.4296V68.63H67.4496ZM67.4996 65.96V66.56H70.4096V65.96H67.4996ZM67.4496 69.97V70.57H70.4296V69.97H67.4496ZM66.9796 67.27V67.89H70.7796V67.27H66.9796ZM67.8096 71.32V71.94H69.7696V73.61H67.8096V74.24H70.4296V71.32H67.8096ZM67.4396 71.32V74.7H68.0896V71.32H67.4396ZM80.2446 67.21V67.92H84.6546V70.53H85.3946V67.21H80.2446ZM79.6846 70.18V70.9H86.2246V70.18H79.6846ZM82.2146 65.62V69.03C82.2146 71.01 81.9346 72.95 79.2246 74.29C79.4146 74.41 79.6946 74.67 79.8246 74.82C82.6546 73.38 82.9646 71.21 82.9646 69.04V65.62H82.2146ZM83.3246 70.52L82.6346 70.69C83.1546 72.67 84.1546 74.11 85.7846 74.83C85.8946 74.62 86.1346 74.33 86.3046 74.18C84.7546 73.59 83.7746 72.26 83.3246 70.52ZM77.5246 66.23C78.1646 66.53 78.9346 67.01 79.3146 67.37L79.7446 66.76C79.3646 66.41 78.5746 65.96 77.9446 65.69L77.5246 66.23ZM76.9946 68.95C77.6446 69.22 78.4346 69.67 78.8246 70.01L79.2546 69.39C78.8546 69.06 78.0446 68.63 77.4046 68.39L76.9946 68.95ZM77.2746 74.18L77.9246 74.66C78.4646 73.72 79.0946 72.46 79.5746 71.4L78.9946 70.94C78.4746 72.08 77.7746 73.41 77.2746 74.18ZM87.3296 66.55V67.24H95.9796V66.55H87.3296ZM91.2296 65.61V66.95H91.9996V65.61H91.2296ZM87.7596 68.3V74.79H88.4696V68.97H95.3096V68.3H87.7596ZM94.9096 68.3V73.88C94.9096 74.03 94.8596 74.08 94.6796 74.08C94.4996 74.09 93.8996 74.1 93.2496 74.07C93.3496 74.27 93.4696 74.61 93.4996 74.81C94.3296 74.81 94.8796 74.79 95.2096 74.68C95.5296 74.56 95.6296 74.32 95.6296 73.88V68.3H94.9096ZM90.2796 68.79C90.1996 69.84 89.8796 70.34 88.5296 70.61C88.6596 70.73 88.8296 70.99 88.8996 71.15C90.4396 70.78 90.8596 70.1 90.9596 68.79H90.2796ZM92.1396 68.79V69.97C92.1396 70.59 92.2996 70.75 93.0196 70.75C93.1596 70.75 93.9096 70.75 94.0596 70.75C94.5896 70.75 94.7696 70.55 94.8296 69.74C94.6496 69.7 94.3796 69.61 94.2496 69.51C94.2196 70.11 94.1796 70.17 93.9696 70.17C93.8096 70.17 93.2196 70.17 93.0896 70.17C92.8396 70.17 92.7996 70.15 92.7996 69.96V68.79H92.1396ZM89.7896 71.27V74.34H90.4596V71.27H89.7896ZM90.1896 71.27V71.86H92.9096V73.14H90.1896V73.73H93.5896V71.27H90.1896ZM89.2496 67.24C89.4696 67.63 89.6896 68.15 89.7796 68.49L90.5396 68.31C90.4396 67.98 90.2096 67.47 89.9796 67.09L89.2496 67.24ZM93.2796 67.06C93.1396 67.43 92.8796 67.99 92.6696 68.34L93.3996 68.49C93.6096 68.16 93.8596 67.69 94.0996 67.21L93.2796 67.06ZM98.6146 71.57C97.7746 71.57 97.0846 72.25 97.0846 73.09C97.0846 73.93 97.7746 74.61 98.6146 74.61C99.4546 74.61 100.135 73.93 100.135 73.09C100.135 72.25 99.4546 71.57 98.6146 71.57ZM98.6146 74.1C98.0546 74.1 97.5946 73.65 97.5946 73.09C97.5946 72.53 98.0546 72.08 98.6146 72.08C99.1746 72.08 99.6246 72.53 99.6246 73.09C99.6246 73.65 99.1746 74.1 98.6146 74.1Z" fill="#A8ABBD"/>
<path d="M247.694 241.835V243.031C247.694 243.552 247.645 244.006 247.547 244.394C247.45 244.778 247.307 245.097 247.118 245.351C246.932 245.601 246.704 245.788 246.434 245.912C246.167 246.036 245.861 246.098 245.516 246.098C245.243 246.098 244.992 246.059 244.764 245.98C244.536 245.902 244.333 245.784 244.154 245.624C243.978 245.461 243.828 245.258 243.705 245.014C243.581 244.77 243.487 244.483 243.421 244.154C243.356 243.822 243.324 243.448 243.324 243.031V241.835C243.324 241.311 243.373 240.858 243.47 240.478C243.571 240.097 243.714 239.781 243.9 239.53C244.089 239.28 244.318 239.094 244.588 238.974C244.859 238.85 245.165 238.788 245.506 238.788C245.78 238.788 246.031 238.829 246.258 238.91C246.49 238.988 246.693 239.105 246.869 239.262C247.048 239.418 247.198 239.618 247.318 239.862C247.442 240.103 247.534 240.388 247.596 240.717C247.661 241.046 247.694 241.418 247.694 241.835ZM247.113 243.1V241.762C247.113 241.439 247.09 241.146 247.045 240.883C247.002 240.619 246.939 240.388 246.854 240.189C246.769 239.991 246.662 239.825 246.532 239.691C246.405 239.558 246.255 239.459 246.083 239.394C245.913 239.325 245.721 239.291 245.506 239.291C245.243 239.291 245.01 239.345 244.808 239.452C244.61 239.556 244.444 239.713 244.31 239.921C244.177 240.126 244.076 240.383 244.007 240.692C243.942 241.002 243.91 241.358 243.91 241.762V243.1C243.91 243.419 243.931 243.71 243.973 243.974C244.016 244.234 244.081 244.465 244.169 244.667C244.256 244.869 244.364 245.04 244.491 245.18C244.621 245.316 244.771 245.421 244.94 245.492C245.113 245.561 245.305 245.595 245.516 245.595C245.786 245.595 246.021 245.541 246.219 245.434C246.418 245.323 246.584 245.162 246.717 244.95C246.851 244.735 246.95 244.473 247.015 244.164C247.08 243.852 247.113 243.497 247.113 243.1ZM251.957 238.891L248.988 246.61H248.461L251.43 238.891H251.957ZM254.282 242.123H254.878C255.242 242.123 255.547 242.061 255.791 241.938C256.038 241.811 256.224 241.643 256.347 241.435C256.474 241.226 256.538 240.995 256.538 240.741C256.538 240.455 256.484 240.204 256.377 239.989C256.269 239.771 256.105 239.602 255.884 239.481C255.665 239.358 255.386 239.296 255.044 239.296C254.744 239.296 254.477 239.354 254.243 239.472C254.009 239.589 253.823 239.757 253.686 239.975C253.55 240.193 253.481 240.453 253.481 240.756H252.9C252.9 240.368 252.993 240.028 253.179 239.735C253.364 239.439 253.62 239.208 253.945 239.042C254.271 238.876 254.637 238.793 255.044 238.793C255.464 238.793 255.828 238.869 256.138 239.022C256.45 239.175 256.691 239.398 256.86 239.691C257.033 239.984 257.119 240.341 257.119 240.761C257.119 240.976 257.072 241.187 256.977 241.396C256.886 241.604 256.749 241.793 256.567 241.962C256.385 242.128 256.159 242.261 255.888 242.362C255.618 242.463 255.304 242.514 254.946 242.514H254.282V242.123ZM254.282 242.626V242.24H254.946C255.353 242.24 255.701 242.287 255.991 242.382C256.281 242.473 256.518 242.603 256.704 242.772C256.893 242.938 257.031 243.132 257.119 243.354C257.207 243.575 257.251 243.812 257.251 244.066C257.251 244.392 257.197 244.68 257.09 244.931C256.982 245.181 256.829 245.395 256.631 245.57C256.435 245.743 256.204 245.875 255.937 245.966C255.674 246.054 255.384 246.098 255.068 246.098C254.782 246.098 254.502 246.055 254.228 245.971C253.958 245.886 253.714 245.761 253.496 245.595C253.281 245.425 253.11 245.214 252.983 244.96C252.856 244.703 252.793 244.407 252.793 244.071H253.374C253.374 244.371 253.445 244.636 253.589 244.867C253.732 245.095 253.93 245.274 254.184 245.404C254.442 245.531 254.736 245.595 255.068 245.595C255.403 245.595 255.69 245.538 255.928 245.424C256.168 245.307 256.352 245.136 256.479 244.911C256.606 244.687 256.67 244.411 256.67 244.086C256.67 243.744 256.593 243.466 256.44 243.251C256.29 243.036 256.081 242.878 255.81 242.777C255.543 242.676 255.233 242.626 254.878 242.626H254.282ZM262.837 241.835V243.031C262.837 243.552 262.788 244.006 262.691 244.394C262.593 244.778 262.45 245.097 262.261 245.351C262.076 245.601 261.848 245.788 261.578 245.912C261.311 246.036 261.005 246.098 260.66 246.098C260.386 246.098 260.135 246.059 259.908 245.98C259.68 245.902 259.476 245.784 259.297 245.624C259.121 245.461 258.972 245.258 258.848 245.014C258.724 244.77 258.63 244.483 258.565 244.154C258.5 243.822 258.467 243.448 258.467 243.031V241.835C258.467 241.311 258.516 240.858 258.614 240.478C258.715 240.097 258.858 239.781 259.043 239.53C259.232 239.28 259.462 239.094 259.732 238.974C260.002 238.85 260.308 238.788 260.65 238.788C260.923 238.788 261.174 238.829 261.402 238.91C261.633 238.988 261.836 239.105 262.012 239.262C262.191 239.418 262.341 239.618 262.461 239.862C262.585 240.103 262.678 240.388 262.74 240.717C262.805 241.046 262.837 241.418 262.837 241.835ZM262.256 243.1V241.762C262.256 241.439 262.233 241.146 262.188 240.883C262.146 240.619 262.082 240.388 261.997 240.189C261.913 239.991 261.805 239.825 261.675 239.691C261.548 239.558 261.399 239.459 261.226 239.394C261.057 239.325 260.865 239.291 260.65 239.291C260.386 239.291 260.153 239.345 259.952 239.452C259.753 239.556 259.587 239.713 259.454 239.921C259.32 240.126 259.219 240.383 259.151 240.692C259.086 241.002 259.053 241.358 259.053 241.762V243.1C259.053 243.419 259.074 243.71 259.117 243.974C259.159 244.234 259.224 244.465 259.312 244.667C259.4 244.869 259.507 245.04 259.634 245.18C259.764 245.316 259.914 245.421 260.083 245.492C260.256 245.561 260.448 245.595 260.66 245.595C260.93 245.595 261.164 245.541 261.363 245.434C261.561 245.323 261.727 245.162 261.861 244.95C261.994 244.735 262.093 244.473 262.159 244.164C262.224 243.852 262.256 243.497 262.256 243.1ZM268.409 241.835V243.031C268.409 243.552 268.36 244.006 268.263 244.394C268.165 244.778 268.022 245.097 267.833 245.351C267.647 245.601 267.42 245.788 267.149 245.912C266.882 246.036 266.576 246.098 266.231 246.098C265.958 246.098 265.707 246.059 265.479 245.98C265.252 245.902 265.048 245.784 264.869 245.624C264.693 245.461 264.544 245.258 264.42 245.014C264.296 244.77 264.202 244.483 264.137 244.154C264.072 243.822 264.039 243.448 264.039 243.031V241.835C264.039 241.311 264.088 240.858 264.186 240.478C264.286 240.097 264.43 239.781 264.615 239.53C264.804 239.28 265.034 239.094 265.304 238.974C265.574 238.85 265.88 238.788 266.222 238.788C266.495 238.788 266.746 238.829 266.974 238.91C267.205 238.988 267.408 239.105 267.584 239.262C267.763 239.418 267.913 239.618 268.033 239.862C268.157 240.103 268.25 240.388 268.312 240.717C268.377 241.046 268.409 241.418 268.409 241.835ZM267.828 243.1V241.762C267.828 241.439 267.805 241.146 267.76 240.883C267.717 240.619 267.654 240.388 267.569 240.189C267.485 239.991 267.377 239.825 267.247 239.691C267.12 239.558 266.97 239.459 266.798 239.394C266.629 239.325 266.437 239.291 266.222 239.291C265.958 239.291 265.725 239.345 265.523 239.452C265.325 239.556 265.159 239.713 265.025 239.921C264.892 240.126 264.791 240.383 264.723 240.692C264.658 241.002 264.625 241.358 264.625 241.762V243.1C264.625 243.419 264.646 243.71 264.688 243.974C264.731 244.234 264.796 244.465 264.884 244.667C264.972 244.869 265.079 245.04 265.206 245.18C265.336 245.316 265.486 245.421 265.655 245.492C265.828 245.561 266.02 245.595 266.231 245.595C266.502 245.595 266.736 245.541 266.935 245.434C267.133 245.323 267.299 245.162 267.433 244.95C267.566 244.735 267.665 244.473 267.73 244.164C267.796 243.852 267.828 243.497 267.828 243.1Z" fill="#A8ABBD"/>
</svg>
