<svg width="320" height="500" viewBox="0 0 320 500" fill="none" xmlns="http://www.w3.org/2000/svg">
<rect width="320" height="500" rx="15" fill="white"/>
<g clip-path="url(#clip0_39_7561)">
<rect x="28" y="440" width="270" height="50" rx="25" fill="#FF4E84"/>
<path d="M128.008 459.426L128.008 460.758L143.038 460.758L143.038 459.426L128.008 459.426ZM127.396 470.316L127.396 471.666L143.542 471.666L143.542 470.316L127.396 470.316ZM134.704 455.898L134.704 460.164L136.108 460.164L136.108 455.898L134.704 455.898ZM138.988 461.586C138.448 464.34 137.386 468.21 136.468 470.514L137.764 470.82C138.7 468.534 139.78 464.826 140.536 461.874L138.988 461.586ZM130.42 462.018C131.302 464.376 131.986 467.436 132.094 469.416L133.462 469.092C133.336 467.076 132.652 464.07 131.698 461.694L130.42 462.018ZM155.98 457.878L155.98 467.922L157.276 467.922L157.276 457.878L155.98 457.878ZM159.94 456.258L159.94 470.73C159.94 471.036 159.832 471.126 159.526 471.144C159.22 471.144 158.194 471.162 157.078 471.126C157.276 471.522 157.474 472.116 157.546 472.476C159.058 472.476 159.958 472.458 160.498 472.206C161.038 471.99 161.272 471.594 161.272 470.712L161.272 456.258L159.94 456.258ZM145.738 458.22L145.738 459.444L155.116 459.444L155.116 458.22L145.738 458.22ZM149.788 456.006L149.788 458.976L151.102 458.976L151.102 456.006L149.788 456.006ZM145.702 462.432C146.98 463.278 148.546 464.52 149.266 465.384L150.076 464.376C149.32 463.548 147.736 462.342 146.476 461.55L145.702 462.432ZM150.616 468.768C151.894 469.83 153.478 471.342 154.216 472.278L155.26 471.324C154.486 470.388 152.866 468.966 151.624 467.94L150.616 468.768ZM149.518 458.904C148.87 460.038 147.718 461.604 146.836 462.594L147.844 463.116C148.762 462.18 149.896 460.74 150.796 459.498L149.518 458.904ZM152.398 460.83C150.976 463.35 148.312 465.798 145.666 467.166C145.99 467.436 146.368 467.832 146.566 468.138C149.32 466.608 151.984 464.052 153.604 461.316L152.398 460.83ZM153.748 464.232C151.984 467.22 148.78 469.902 145.36 471.378C145.702 471.666 146.08 472.116 146.296 472.458C149.806 470.802 153.01 467.976 154.936 464.772L153.748 464.232ZM168.166 458.31L168.166 463.332C168.166 466.302 167.734 469.326 163.9 471.468C164.206 471.684 164.674 472.17 164.872 472.476C169.012 470.136 169.516 466.716 169.516 463.35L169.516 458.31L168.166 458.31ZM175.024 456.24L175.024 472.44L176.392 472.44L176.392 456.24L175.024 456.24ZM164.08 463.152L164.08 464.448L180.28 464.448L180.28 463.152L164.08 463.152ZM172.09 456.168C170.308 457.248 167.086 458.256 164.242 458.904C164.44 459.21 164.656 459.696 164.728 460.02C167.626 459.354 170.92 458.418 173.116 457.266L172.09 456.168ZM188.452 457.014L188.452 458.274L195.382 458.274L195.382 457.014L188.452 457.014ZM194.824 457.014L194.824 457.176C194.608 458.616 194.068 461.478 193.6 463.494L194.842 463.638C195.274 461.64 195.796 458.958 196.102 457.086L195.184 456.942L194.986 457.014L194.824 457.014ZM194.662 461.568L194.302 462.792L197.668 462.792L197.668 461.568L194.662 461.568ZM197.218 461.568L197.218 461.838C196.264 466.716 193.618 469.848 190.27 471.432C190.558 471.63 190.99 472.134 191.188 472.44C194.608 470.694 197.416 467.31 198.514 461.838L197.722 461.514L197.47 461.568L197.218 461.568ZM191.368 458.976L190.378 459.156C191.422 465.456 193.474 470.514 198.154 472.458C198.352 472.116 198.73 471.612 199.036 471.36C194.464 469.686 192.358 464.79 191.368 458.976ZM185.05 455.898C184.582 457.086 183.754 458.814 183.07 459.84L184.006 460.272C184.708 459.282 185.554 457.68 186.238 456.366L185.05 455.898ZM187.066 457.95C186.112 459.894 184.42 462.63 183.088 464.25L183.916 464.718C185.248 463.134 186.976 460.524 188.2 458.454L187.066 457.95ZM182.206 459.678C183.178 460.542 184.312 461.802 184.798 462.648L185.518 461.622C185.032 460.812 183.898 459.642 182.89 458.796L182.206 459.678ZM186.634 462.126C187.336 463.314 188.038 464.898 188.272 465.906L189.298 465.438C189.046 464.448 188.326 462.9 187.588 461.748L186.634 462.126ZM182.152 463.962L182.26 465.186C183.934 465.078 186.13 464.934 188.326 464.772L188.344 463.674C186.022 463.8 183.718 463.908 182.152 463.962ZM186.94 466.356C187.39 467.364 187.84 468.696 188.002 469.578L189.046 469.218C188.866 468.354 188.416 467.022 187.912 466.05L186.94 466.356ZM183.16 466.176C182.944 467.76 182.584 469.362 181.99 470.46C182.278 470.586 182.818 470.838 183.052 470.982C183.628 469.83 184.078 468.084 184.33 466.392L183.16 466.176ZM185.104 464.466L185.104 472.494L186.31 472.494L186.31 464.466L185.104 464.466ZM190.198 457.77L190.198 460.938C190.198 464.034 189.964 468.408 187.336 471.702C187.642 471.846 188.128 472.206 188.344 472.404C191.098 468.948 191.404 464.304 191.404 460.938L191.404 457.77L190.198 457.77Z" fill="white"/>
</g>
<path d="M117.432 15.72V20.184C117.432 22.824 117.048 25.512 113.64 27.416C113.912 27.608 114.328 28.04 114.504 28.312C118.184 26.232 118.632 23.192 118.632 20.2V15.72H117.432ZM123.528 13.88V28.28H124.744V13.88H123.528ZM113.8 20.024V21.176H128.2V20.024H113.8ZM120.92 13.816C119.336 14.776 116.472 15.672 113.944 16.248C114.12 16.52 114.312 16.952 114.376 17.24C116.952 16.648 119.88 15.816 121.832 14.792L120.92 13.816ZM135.464 14.568V15.688H141.624V14.568H135.464ZM141.128 14.568V14.712C140.936 15.992 140.456 18.536 140.04 20.328L141.144 20.456C141.528 18.68 141.992 16.296 142.264 14.632L141.448 14.504L141.272 14.568H141.128ZM140.984 18.616L140.664 19.704H143.656V18.616H140.984ZM143.256 18.616V18.856C142.408 23.192 140.056 25.976 137.08 27.384C137.336 27.56 137.72 28.008 137.896 28.28C140.936 26.728 143.432 23.72 144.408 18.856L143.704 18.568L143.48 18.616H143.256ZM138.056 16.312L137.176 16.472C138.104 22.072 139.928 26.568 144.088 28.296C144.264 27.992 144.6 27.544 144.872 27.32C140.808 25.832 138.936 21.48 138.056 16.312ZM132.44 13.576C132.024 14.632 131.288 16.168 130.68 17.08L131.512 17.464C132.136 16.584 132.888 15.16 133.496 13.992L132.44 13.576ZM134.232 15.4C133.384 17.128 131.88 19.56 130.696 21L131.432 21.416C132.616 20.008 134.152 17.688 135.24 15.848L134.232 15.4ZM129.912 16.936C130.776 17.704 131.784 18.824 132.216 19.576L132.856 18.664C132.424 17.944 131.416 16.904 130.52 16.152L129.912 16.936ZM133.848 19.112C134.472 20.168 135.096 21.576 135.304 22.472L136.216 22.056C135.992 21.176 135.352 19.8 134.696 18.776L133.848 19.112ZM129.864 20.744L129.96 21.832C131.448 21.736 133.4 21.608 135.352 21.464L135.368 20.488C133.304 20.6 131.256 20.696 129.864 20.744ZM134.12 22.872C134.52 23.768 134.92 24.952 135.064 25.736L135.992 25.416C135.832 24.648 135.432 23.464 134.984 22.6L134.12 22.872ZM130.76 22.712C130.568 24.12 130.248 25.544 129.72 26.52C129.976 26.632 130.456 26.856 130.664 26.984C131.176 25.96 131.576 24.408 131.8 22.904L130.76 22.712ZM132.488 21.192V28.328H133.56V21.192H132.488ZM137.016 15.24V18.056C137.016 20.808 136.808 24.696 134.472 27.624C134.744 27.752 135.176 28.072 135.368 28.248C137.816 25.176 138.088 21.048 138.088 18.056V15.24H137.016ZM150.695 24.9219L153.687 15.625H155.851L151.773 27H150.312L150.695 24.9219ZM147.929 15.625L150.898 24.9219L151.304 27H149.835L145.773 15.625H147.929ZM159.538 15.625V27H157.577V15.625H159.538ZM166.616 22.7578H163.655V21.2031H166.616C167.132 21.2031 167.548 21.1198 167.866 20.9531C168.184 20.7865 168.415 20.5573 168.561 20.2656C168.712 19.9688 168.788 19.6302 168.788 19.25C168.788 18.8906 168.712 18.5547 168.561 18.2422C168.415 17.9245 168.184 17.6693 167.866 17.4766C167.548 17.2839 167.132 17.1875 166.616 17.1875H164.257V27H162.296V15.625H166.616C167.496 15.625 168.244 15.7812 168.858 16.0938C169.478 16.401 169.949 16.8281 170.272 17.375C170.595 17.9167 170.757 18.5365 170.757 19.2344C170.757 19.9688 170.595 20.599 170.272 21.125C169.949 21.651 169.478 22.0547 168.858 22.3359C168.244 22.6172 167.496 22.7578 166.616 22.7578ZM175.31 19.032H184.094V21.448H175.31V19.032ZM174.286 18.216V22.264H185.182V18.216H174.286ZM176.91 16.488V17.336H182.494V16.488H176.91ZM179.102 18.472V21.816H180.126V18.472H179.102ZM179.598 14.536C181.23 16.104 184.11 17.688 186.462 18.504C186.638 18.2 186.91 17.768 187.166 17.512C184.686 16.776 181.902 15.304 180.094 13.56H178.958C177.63 15.112 174.926 16.744 172.206 17.672C172.43 17.928 172.702 18.344 172.846 18.616C175.502 17.624 178.174 15.992 179.598 14.536ZM176.286 19.512C176.686 20.088 177.054 20.872 177.182 21.384L178.11 21.048C177.95 20.536 177.566 19.784 177.15 19.224L176.286 19.512ZM182.046 19.16C181.854 19.704 181.438 20.552 181.134 21.096L181.982 21.384C182.302 20.904 182.702 20.168 183.07 19.48L182.046 19.16ZM175.23 23.032V28.28H176.414V23.88H183.054V28.264H184.27V23.032H175.23ZM175.934 24.952V25.832H183.582V24.952H175.934ZM175.934 26.92V27.784H183.582V26.92H175.934ZM192.222 15.16H199.822V16.808H192.222V15.16ZM191.022 14.184V17.8H201.086V14.184H191.022ZM191.534 21.592H200.494V22.728H191.534V21.592ZM191.534 23.576H200.494V24.728H191.534V23.576ZM191.534 19.624H200.494V20.744H191.534V19.624ZM190.334 18.728V25.608H201.726V18.728H190.334ZM193.39 25.592C192.382 26.248 190.286 27.016 188.606 27.416C188.894 27.656 189.294 28.04 189.502 28.296C191.15 27.88 193.23 27.112 194.51 26.328L193.39 25.592ZM197.294 26.424C198.99 26.92 201.166 27.752 202.35 28.312L203.39 27.448C202.142 26.92 199.998 26.136 198.334 25.64L197.294 26.424Z" fill="#383A44"/>
<path d="M102.06 130.92C101.496 132.132 100.512 133.308 99.492 134.064C99.708 134.208 100.068 134.496 100.236 134.664C101.244 133.824 102.276 132.528 102.936 131.172L102.06 130.92ZM101.64 132.3L101.34 133.116H109.908V132.3H101.64ZM99.636 135.144V135.96H110.364V135.144H99.636ZM99.828 138.012V138.828H110.196V138.012H99.828ZM103.464 132.576V138.408H104.244V132.576H103.464ZM101.316 132.576V138.444H102.132V132.576H101.316ZM105.636 132.576V138.444H106.404V132.576H105.636ZM107.832 132.576V138.444H108.66V132.576H107.832ZM103.14 139.644C103.284 140.364 103.38 141.3 103.38 141.864L104.268 141.732C104.256 141.18 104.124 140.268 103.968 139.56L103.14 139.644ZM105.588 139.644C105.9 140.364 106.2 141.3 106.308 141.876L107.196 141.684C107.076 141.12 106.752 140.184 106.428 139.5L105.588 139.644ZM108.036 139.572C108.636 140.316 109.32 141.348 109.608 141.984L110.508 141.66C110.184 141.012 109.476 140.004 108.876 139.284L108.036 139.572ZM101.04 139.332C100.74 140.208 100.176 141.12 99.552 141.624L100.404 141.984C101.04 141.408 101.592 140.448 101.904 139.548L101.04 139.332ZM116.874 133.728V134.484H121.35V133.728H116.874ZM115.002 140.916L115.302 141.792C116.466 141.528 118.074 141.18 119.586 140.832L119.526 140.04C117.846 140.376 116.106 140.724 115.002 140.916ZM116.358 131.46V140.988H117.234V131.46H116.358ZM116.874 131.46V132.252H120.894V135.996H116.874V136.788H121.77V131.46H116.874ZM119.19 136.272L118.446 136.416C118.998 138.948 120.114 140.976 121.986 141.924C122.118 141.696 122.382 141.36 122.586 141.18C120.798 140.388 119.706 138.516 119.19 136.272ZM121.578 137.064C121.074 137.64 120.174 138.396 119.526 138.864L120.09 139.32C120.762 138.876 121.614 138.204 122.286 137.58L121.578 137.064ZM112.002 131.448V141.972H112.854V132.264H115.074V131.448H112.002ZM114.81 131.448V131.7C114.534 132.528 114.042 133.98 113.562 135.072C114.498 136.008 114.75 136.8 114.75 137.46C114.762 137.832 114.69 138.144 114.486 138.276C114.366 138.348 114.222 138.384 114.066 138.396C113.85 138.408 113.586 138.408 113.274 138.372C113.418 138.612 113.49 138.972 113.502 139.188C113.802 139.212 114.138 139.212 114.414 139.176C114.666 139.152 114.894 139.08 115.074 138.96C115.434 138.708 115.59 138.216 115.59 137.556C115.59 136.812 115.362 135.96 114.39 134.964C114.834 134.016 115.338 132.78 115.722 131.784L115.11 131.412L114.978 131.448H114.81ZM126.048 133.02H132.024V133.692H126.048V133.02ZM126.048 131.856H132.024V132.504H126.048V131.856ZM125.184 131.316V134.232H132.924V131.316H125.184ZM125.82 137.736H132.384V138.42H125.82V137.736ZM125.82 136.524H132.384V137.196H125.82V136.524ZM124.968 135.96V138.972H133.272V135.96H124.968ZM128.592 136.164V141.336H129.48V136.164H128.592ZM123.684 134.736V135.432H134.448V134.736H123.684ZM124.632 139.632V140.268H133.536V139.632H124.632ZM123.612 140.964V141.672H134.508V140.964H123.612ZM136.026 133.728V135.816H136.89V134.448H145.254V135.9H146.142V133.728H136.026ZM144.918 130.92C142.974 131.316 139.362 131.556 136.422 131.64C136.494 131.82 136.59 132.132 136.602 132.324C139.602 132.252 143.238 132.012 145.518 131.544L144.918 130.92ZM137.502 132.444C137.85 132.876 138.198 133.488 138.318 133.884L139.098 133.56C138.954 133.14 138.594 132.564 138.222 132.144L137.502 132.444ZM140.118 132.216C140.442 132.684 140.742 133.332 140.826 133.74L141.618 133.464C141.522 133.032 141.198 132.408 140.862 131.952L140.118 132.216ZM143.334 135.456C144.018 136.008 144.822 136.824 145.182 137.364L145.842 136.872C145.47 136.332 144.654 135.552 143.958 135.024L143.334 135.456ZM139.962 134.832C140.598 135.108 141.354 135.564 141.75 135.888L142.218 135.348C141.834 135.024 141.042 134.604 140.418 134.34L139.962 134.832ZM144.15 131.94C143.886 132.492 143.37 133.284 142.998 133.788L143.658 134.076C144.066 133.608 144.582 132.912 145.014 132.276L144.15 131.94ZM143.43 138.048V138.192C142.17 140.052 139.026 140.928 135.726 141.24C135.894 141.42 136.122 141.78 136.206 141.996C139.554 141.576 142.83 140.628 144.354 138.396L143.79 138.024L143.634 138.048H143.43ZM138.954 138.528L138.246 138.828C139.782 140.688 142.71 141.648 145.974 141.984C146.094 141.744 146.31 141.372 146.502 141.18C143.262 140.928 140.334 140.088 138.954 138.528ZM139.77 137.052C138.906 138.132 137.382 139.056 135.894 139.632C136.074 139.764 136.386 140.064 136.53 140.232C137.982 139.584 139.566 138.552 140.562 137.34L139.77 137.052ZM138.99 135.156V136.308C138.99 137.076 139.254 137.256 140.346 137.256C140.562 137.256 142.05 137.256 142.29 137.256C143.07 137.256 143.31 137.028 143.394 136.056C143.166 136.008 142.854 135.912 142.674 135.792C142.638 136.5 142.554 136.584 142.182 136.584C141.858 136.584 140.646 136.584 140.418 136.584C139.914 136.584 139.83 136.548 139.83 136.296V135.156H138.99ZM137.814 135.168C137.55 135.888 137.058 136.596 136.338 136.992L136.974 137.508C137.766 137.04 138.222 136.236 138.51 135.456L137.814 135.168ZM139.218 138.048L138.546 138.72H143.634V138.048H139.218ZM150.768 134.28V140.304C150.768 141.48 151.14 141.804 152.412 141.804C152.688 141.804 154.476 141.804 154.764 141.804C156.072 141.804 156.348 141.132 156.48 138.864C156.216 138.804 155.844 138.636 155.628 138.456C155.532 140.532 155.424 140.976 154.716 140.976C154.308 140.976 152.796 140.976 152.496 140.976C151.836 140.976 151.692 140.868 151.692 140.304V134.28H150.768ZM150.864 131.664C152.316 132.18 154.068 133.08 154.992 133.776L155.568 132.984C154.62 132.336 152.88 131.472 151.428 130.98L150.864 131.664ZM148.764 135.24C148.596 136.8 148.2 138.552 147.396 139.608L148.212 140.1C149.076 138.948 149.448 137.028 149.628 135.42L148.764 135.24ZM155.76 135.252C156.78 136.608 157.68 138.48 157.944 139.74L158.844 139.308C158.544 138.036 157.644 136.224 156.564 134.856L155.76 135.252ZM161.034 142.284C162.294 141.852 163.11 140.868 163.11 139.572C163.11 138.732 162.75 138.18 162.078 138.18C161.598 138.18 161.166 138.48 161.166 139.044C161.166 139.62 161.574 139.908 162.066 139.908C162.294 139.908 162.534 139.848 162.702 139.632L162.054 138.72L162.282 139.74C162.282 140.64 161.742 141.252 160.758 141.66L161.034 142.284ZM171.72 140.88V141.612H182.64V140.88H171.72ZM171.768 133.032V133.716H182.604V133.032H171.768ZM171.972 135.864V136.56H182.412V135.864H171.972ZM173.184 138.372V141.264H174.024V139.092H175.548V141.264H176.388V139.092H177.936V141.264H178.764V139.092H180.312V141.264H181.2V138.372H173.184ZM176.676 130.908V136.08H177.564V130.908H176.676ZM173.064 131.628V132.288H180.324V134.472H172.992V135.132H181.2V131.628H173.064ZM173.208 136.68C172.968 137.388 172.476 138.096 171.78 138.48L172.404 139.02C173.196 138.54 173.64 137.748 173.916 136.956L173.208 136.68ZM175.176 136.86C175.32 137.292 175.452 137.856 175.464 138.228L176.28 138.072C176.244 137.712 176.1 137.148 175.944 136.728L175.176 136.86ZM177.588 136.896C177.876 137.316 178.176 137.904 178.284 138.288L179.064 138.036C178.944 137.664 178.632 137.1 178.332 136.68L177.588 136.896ZM180.132 136.932C180.768 137.484 181.512 138.3 181.86 138.828L182.568 138.444C182.208 137.928 181.464 137.16 180.804 136.608L180.132 136.932ZM188.334 137.796V138.492H193.11V137.796H188.334ZM187.218 131.868V132.552H194.346V131.868H187.218ZM187.506 133.32V133.98H194.046V133.32H187.506ZM186.846 134.82V135.504H194.694V134.82H186.846ZM188.334 139.404V140.076H193.146V139.404H188.334ZM187.722 136.212V141.948H188.562V136.908H193.11V136.212H187.722ZM192.894 136.212V140.94C192.894 141.096 192.846 141.144 192.678 141.144C192.51 141.156 191.934 141.156 191.334 141.132C191.442 141.36 191.562 141.696 191.598 141.912C192.45 141.924 192.99 141.912 193.326 141.78C193.662 141.648 193.758 141.408 193.758 140.952V136.212H192.894ZM190.29 130.92V135.036H191.178V130.92H190.29ZM185.022 130.92V141.948H185.85V130.92H185.022ZM184.074 133.236C184.002 134.184 183.81 135.504 183.534 136.332L184.23 136.56C184.506 135.66 184.71 134.268 184.746 133.332L184.074 133.236ZM185.958 132.924C186.198 133.488 186.474 134.232 186.594 134.688L187.218 134.388C187.11 133.944 186.822 133.236 186.558 132.684L185.958 132.924ZM197.94 140.928V141.588H204.576V140.928H197.94ZM197.388 139.068V141.972H198.276V139.728H204.228V141.96H205.152V139.068H197.388ZM196.188 131.772V132.468H206.328V131.772H196.188ZM197.04 133.284V133.956H205.524V133.284H197.04ZM195.816 137.676V138.396H206.652V137.676H195.816ZM200.748 130.908V133.572H201.66V130.908H200.748ZM198.456 136.896C198.672 137.22 198.888 137.688 198.948 138L199.812 137.736C199.716 137.436 199.512 136.992 199.272 136.668L198.456 136.896ZM203.1 136.608C202.992 136.956 202.74 137.46 202.536 137.796L203.304 138C203.52 137.7 203.808 137.268 204.06 136.812L203.1 136.608ZM198.456 135.192H204V136.152H198.456V135.192ZM197.604 134.568V136.764H204.9V134.568H197.604ZM209.154 138.024V138.624H213.186V138.024H209.154ZM209.154 139.332V139.932H213.186V139.332H209.154ZM209.142 140.64V141.312H213.51V140.64H209.142ZM207.774 131.748V132.444H213.786V131.748H207.774ZM210.858 137.148V140.988H211.626V137.148H210.858ZM209.202 130.932V133.176H210.006V130.932H209.202ZM211.53 130.932V133.176H212.334V130.932H211.53ZM208.794 134.016H209.814V135.06H208.794V134.016ZM208.146 133.416V135.66H210.486V133.416H208.146ZM211.65 134.016H212.754V135.06H211.65V134.016ZM211.002 133.416V135.66H213.426V133.416H211.002ZM209.466 136.668H209.394L208.686 137.424V141.936H209.466V137.316H213.498V136.668H209.466ZM211.23 135.708C211.122 136.08 210.906 136.62 210.714 136.992L211.35 137.184C211.542 136.86 211.794 136.38 212.034 135.924L211.23 135.708ZM209.202 135.648C208.854 136.74 208.254 137.808 207.558 138.54C207.702 138.696 207.966 139.056 208.074 139.224C208.842 138.384 209.538 137.112 209.97 135.852L209.202 135.648ZM214.566 133.092V133.92H218.13V133.092H214.566ZM216.018 133.44H215.586V135.576C215.598 136.536 215.286 139.62 212.982 141.24C213.126 141.408 213.39 141.768 213.486 141.96C215.286 140.676 215.898 138.432 216.018 137.448C216.114 138.408 216.666 140.724 218.298 141.96C218.43 141.744 218.682 141.384 218.85 141.192C216.75 139.632 216.438 136.5 216.45 135.576V133.44H216.018ZM214.674 130.908C214.446 132.792 214.026 134.64 213.258 135.816C213.474 135.936 213.858 136.2 214.014 136.332C214.794 135.048 215.274 133.092 215.562 131.04L214.674 130.908ZM217.83 133.092V133.26C217.758 134.16 217.602 135.312 217.422 136.02L218.082 136.344C218.346 135.552 218.562 134.304 218.694 133.248L218.106 133.032L217.974 133.092H217.83Z" fill="#6F7387"/>
<path d="M290.133 14.1559C290.431 13.8426 290.836 13.6667 291.258 13.6667C291.68 13.6667 292.084 13.8426 292.383 14.1559L298.01 20.0641L303.636 14.1559C303.937 13.8515 304.339 13.6831 304.756 13.6869C305.173 13.6907 305.572 13.8664 305.867 14.1762C306.162 14.486 306.33 14.9051 306.333 15.3432C306.337 15.7813 306.176 16.2034 305.887 16.5185L300.26 22.4268L305.887 28.335C306.176 28.6501 306.337 29.0722 306.333 29.5103C306.33 29.9484 306.162 30.3675 305.867 30.6773C305.572 30.9871 305.173 31.1628 304.756 31.1666C304.339 31.1704 303.937 31.002 303.636 30.6976L298.01 24.7894L292.383 30.6976C292.083 31.002 291.681 31.1704 291.263 31.1666C290.846 31.1628 290.447 30.9871 290.152 30.6773C289.857 30.3675 289.69 29.9484 289.686 29.5103C289.682 29.0722 289.843 28.6501 290.133 28.335L295.759 22.4268L290.133 16.5185C289.834 16.2052 289.667 15.7803 289.667 15.3372C289.667 14.8941 289.834 14.4692 290.133 14.1559Z" fill="#A8ABBD"/>
<path d="M138 74.6682C138 73.0071 138.357 71.3626 139.051 69.8308C139.745 68.299 140.762 66.9107 142.042 65.7469C143.322 64.5832 144.84 63.6674 146.507 63.053C148.174 62.4386 149.956 62.138 151.75 62.1688C153.872 62.1584 155.973 62.5657 157.912 63.3638C159.852 64.1619 161.586 65.3326 163 66.7982C164.414 65.3326 166.148 64.1619 168.088 63.3638C170.027 62.5657 172.128 62.1584 174.25 62.1688C176.044 62.138 177.826 62.4386 179.493 63.053C181.16 63.6674 182.678 64.5832 183.958 65.7469C185.238 66.9107 186.255 68.299 186.949 69.8308C187.643 71.3626 188 73.0071 188 74.6682C188 87.0657 172.053 96.4263 163 103.833C153.968 96.3638 138 87.0749 138 74.6682Z" fill="#FF4E84"/>
<circle cx="156" cy="180" r="4" fill="#C4C4C4"/>
<circle cx="143" cy="180" r="4" fill="#4A4D5A"/>
<circle cx="169" cy="180" r="4" fill="#C4C4C4"/>
<circle cx="182" cy="180" r="4" fill="#C4C4C4"/>
<rect x="25.5" y="220.5" width="269" height="49" rx="14.5" fill="white" stroke="#FF4E84"/>
<path d="M199.554 239.203V252H197.348L191.608 242.833V252H189.402V239.203H191.608L197.365 248.388V239.203H199.554ZM207.543 239.203V252H205.354V239.203H207.543ZM211.559 239.203V240.961H201.373V239.203H211.559ZM218.362 237.155V239.783H217.008V237.155H218.362ZM218.195 251.508V253.863H216.85V251.508H218.195ZM219.522 248.669C219.522 248.329 219.452 248.033 219.311 247.781C219.176 247.523 218.953 247.292 218.643 247.087C218.332 246.876 217.916 246.68 217.395 246.498C216.645 246.234 215.989 245.938 215.426 245.61C214.869 245.276 214.436 244.866 214.125 244.38C213.821 243.888 213.668 243.275 213.668 242.543C213.668 241.822 213.832 241.198 214.161 240.671C214.494 240.144 214.957 239.736 215.549 239.449C216.141 239.162 216.832 239.019 217.623 239.019C218.233 239.019 218.781 239.109 219.267 239.291C219.759 239.473 220.178 239.739 220.524 240.091C220.869 240.442 221.133 240.876 221.315 241.392C221.502 241.901 221.596 242.487 221.596 243.149H219.487C219.487 242.774 219.443 242.44 219.355 242.147C219.273 241.849 219.15 241.597 218.986 241.392C218.822 241.181 218.622 241.02 218.388 240.908C218.16 240.797 217.899 240.741 217.606 240.741C217.19 240.741 216.847 240.82 216.577 240.979C216.308 241.131 216.109 241.342 215.98 241.611C215.857 241.881 215.795 242.188 215.795 242.534C215.795 242.868 215.86 243.161 215.989 243.413C216.118 243.665 216.337 243.894 216.648 244.099C216.964 244.298 217.398 244.5 217.949 244.705C218.704 244.975 219.358 245.276 219.909 245.61C220.465 245.938 220.893 246.346 221.192 246.832C221.496 247.312 221.649 247.919 221.649 248.651C221.649 249.407 221.473 250.049 221.121 250.576C220.776 251.104 220.289 251.505 219.662 251.78C219.041 252.05 218.318 252.185 217.492 252.185C216.97 252.185 216.452 252.117 215.936 251.982C215.426 251.842 214.963 251.613 214.547 251.297C214.131 250.98 213.8 250.562 213.554 250.04C213.308 249.513 213.185 248.868 213.185 248.106H215.312C215.312 248.563 215.373 248.944 215.496 249.249C215.619 249.554 215.786 249.794 215.997 249.97C216.208 250.146 216.443 250.271 216.701 250.348C216.964 250.424 217.228 250.462 217.492 250.462C217.931 250.462 218.3 250.389 218.599 250.242C218.904 250.09 219.132 249.879 219.285 249.609C219.443 249.334 219.522 249.021 219.522 248.669ZM232.441 250.312V252H223.863V250.55L228.029 246.006C228.486 245.49 228.847 245.045 229.11 244.67C229.374 244.295 229.559 243.958 229.664 243.659C229.775 243.354 229.831 243.059 229.831 242.771C229.831 242.367 229.755 242.013 229.603 241.708C229.456 241.397 229.239 241.154 228.952 240.979C228.665 240.797 228.316 240.706 227.906 240.706C227.432 240.706 227.033 240.809 226.711 241.014C226.389 241.219 226.146 241.503 225.981 241.866C225.817 242.224 225.735 242.634 225.735 243.097H223.617C223.617 242.353 223.787 241.673 224.127 241.058C224.467 240.437 224.959 239.944 225.604 239.581C226.248 239.212 227.024 239.027 227.933 239.027C228.788 239.027 229.515 239.171 230.112 239.458C230.71 239.745 231.164 240.152 231.475 240.68C231.791 241.207 231.949 241.831 231.949 242.552C231.949 242.95 231.885 243.346 231.756 243.738C231.627 244.131 231.442 244.523 231.202 244.916C230.968 245.303 230.689 245.692 230.367 246.085C230.045 246.472 229.69 246.864 229.304 247.263L226.535 250.312H232.441ZM236.677 246.05L234.99 245.637L235.684 239.203H242.584V240.996H237.442L237.09 244.134C237.29 244.017 237.565 243.902 237.917 243.791C238.268 243.674 238.67 243.615 239.121 243.615C239.724 243.615 240.263 243.715 240.738 243.914C241.218 244.107 241.626 244.392 241.96 244.767C242.294 245.136 242.548 245.587 242.724 246.12C242.9 246.647 242.988 247.242 242.988 247.904C242.988 248.496 242.9 249.05 242.724 249.565C242.554 250.081 242.297 250.535 241.951 250.928C241.605 251.32 241.169 251.628 240.641 251.851C240.12 252.067 239.502 252.176 238.787 252.176C238.254 252.176 237.741 252.1 237.249 251.947C236.762 251.789 236.326 251.558 235.939 251.253C235.552 250.942 235.242 250.562 235.007 250.11C234.773 249.653 234.638 249.129 234.603 248.537H236.677C236.73 248.953 236.844 249.308 237.02 249.601C237.202 249.888 237.442 250.107 237.741 250.26C238.04 250.412 238.385 250.488 238.778 250.488C239.135 250.488 239.443 250.427 239.701 250.304C239.959 250.175 240.172 249.993 240.342 249.759C240.518 249.519 240.647 249.237 240.729 248.915C240.817 248.593 240.861 248.235 240.861 247.843C240.861 247.468 240.811 247.125 240.712 246.814C240.618 246.504 240.474 246.234 240.281 246.006C240.093 245.777 239.856 245.602 239.569 245.479C239.282 245.35 238.951 245.285 238.576 245.285C238.072 245.285 237.685 245.358 237.416 245.505C237.152 245.651 236.906 245.833 236.677 246.05ZM253.385 244.529V246.621C253.385 247.623 253.285 248.479 253.086 249.188C252.893 249.891 252.612 250.462 252.242 250.901C251.873 251.341 251.431 251.663 250.915 251.868C250.406 252.073 249.834 252.176 249.201 252.176C248.698 252.176 248.229 252.111 247.795 251.982C247.367 251.854 246.981 251.651 246.635 251.376C246.289 251.101 245.993 250.746 245.747 250.312C245.507 249.873 245.32 249.349 245.185 248.739C245.056 248.13 244.991 247.424 244.991 246.621V244.529C244.991 243.521 245.091 242.672 245.29 241.98C245.49 241.283 245.774 240.718 246.143 240.284C246.512 239.845 246.951 239.525 247.461 239.326C247.977 239.127 248.551 239.027 249.184 239.027C249.694 239.027 250.162 239.092 250.59 239.221C251.024 239.344 251.41 239.54 251.75 239.81C252.096 240.079 252.389 240.431 252.629 240.864C252.875 241.292 253.063 241.811 253.192 242.42C253.321 243.023 253.385 243.727 253.385 244.529ZM251.267 246.92V244.213C251.267 243.703 251.238 243.255 251.179 242.868C251.12 242.476 251.032 242.145 250.915 241.875C250.804 241.6 250.663 241.377 250.493 241.207C250.324 241.031 250.13 240.905 249.913 240.829C249.697 240.747 249.453 240.706 249.184 240.706C248.856 240.706 248.563 240.771 248.305 240.899C248.047 241.022 247.83 241.222 247.655 241.497C247.479 241.772 247.344 242.136 247.25 242.587C247.162 243.032 247.118 243.574 247.118 244.213V246.92C247.118 247.436 247.148 247.89 247.206 248.282C247.265 248.675 247.353 249.012 247.47 249.293C247.587 249.568 247.728 249.797 247.892 249.979C248.062 250.154 248.255 250.283 248.472 250.365C248.695 250.447 248.938 250.488 249.201 250.488C249.535 250.488 249.831 250.424 250.089 250.295C250.347 250.166 250.564 249.961 250.74 249.68C250.915 249.393 251.047 249.021 251.135 248.563C251.223 248.106 251.267 247.559 251.267 246.92ZM263.976 244.529V246.621C263.976 247.623 263.876 248.479 263.677 249.188C263.483 249.891 263.202 250.462 262.833 250.901C262.464 251.341 262.021 251.663 261.506 251.868C260.996 252.073 260.425 252.176 259.792 252.176C259.288 252.176 258.819 252.111 258.386 251.982C257.958 251.854 257.571 251.651 257.226 251.376C256.88 251.101 256.584 250.746 256.338 250.312C256.098 249.873 255.91 249.349 255.775 248.739C255.646 248.13 255.582 247.424 255.582 246.621V244.529C255.582 243.521 255.682 242.672 255.881 241.98C256.08 241.283 256.364 240.718 256.733 240.284C257.102 239.845 257.542 239.525 258.052 239.326C258.567 239.127 259.142 239.027 259.774 239.027C260.284 239.027 260.753 239.092 261.181 239.221C261.614 239.344 262.001 239.54 262.341 239.81C262.686 240.079 262.979 240.431 263.22 240.864C263.466 241.292 263.653 241.811 263.782 242.42C263.911 243.023 263.976 243.727 263.976 244.529ZM261.857 246.92V244.213C261.857 243.703 261.828 243.255 261.769 242.868C261.711 242.476 261.623 242.145 261.506 241.875C261.394 241.6 261.254 241.377 261.084 241.207C260.914 241.031 260.721 240.905 260.504 240.829C260.287 240.747 260.044 240.706 259.774 240.706C259.446 240.706 259.153 240.771 258.895 240.899C258.638 241.022 258.421 241.222 258.245 241.497C258.069 241.772 257.934 242.136 257.841 242.587C257.753 243.032 257.709 243.574 257.709 244.213V246.92C257.709 247.436 257.738 247.89 257.797 248.282C257.855 248.675 257.943 249.012 258.06 249.293C258.178 249.568 258.318 249.797 258.482 249.979C258.652 250.154 258.846 250.283 259.062 250.365C259.285 250.447 259.528 250.488 259.792 250.488C260.126 250.488 260.422 250.424 260.68 250.295C260.937 250.166 261.154 249.961 261.33 249.68C261.506 249.393 261.638 249.021 261.726 248.563C261.813 248.106 261.857 247.559 261.857 246.92Z" fill="#FF4E84"/>
<path d="M60.0559 239.992V250H58.7913V241.571L56.2414 242.501V241.359L59.8577 239.992H60.0559ZM70.3311 248.961V250H63.8165V249.091L67.0772 245.461C67.4783 245.014 67.7882 244.636 68.0069 244.326C68.2302 244.012 68.3852 243.731 68.4718 243.485C68.5629 243.235 68.6085 242.979 68.6085 242.72C68.6085 242.392 68.5401 242.095 68.4034 241.831C68.2712 241.562 68.0753 241.348 67.8155 241.188C67.5557 241.029 67.2413 240.949 66.8721 240.949C66.4301 240.949 66.061 241.036 65.7647 241.209C65.4731 241.378 65.2543 241.615 65.1085 241.92C64.9626 242.225 64.8897 242.576 64.8897 242.973H63.6251C63.6251 242.412 63.7481 241.899 63.9942 241.435C64.2403 240.97 64.6049 240.601 65.088 240.327C65.571 240.049 66.1658 239.91 66.8721 239.91C67.5011 239.91 68.0388 240.022 68.4854 240.245C68.932 240.464 69.2738 240.774 69.5108 241.175C69.7524 241.571 69.8731 242.036 69.8731 242.569C69.8731 242.861 69.823 243.157 69.7227 243.458C69.627 243.754 69.4926 244.05 69.3194 244.347C69.1508 244.643 68.9526 244.935 68.7247 245.222C68.5014 245.509 68.2621 245.791 68.0069 246.069L65.3409 248.961H70.3311ZM75.6665 239.094V251.12H76.6465V240.032H82.8485V251.008H83.8565V239.094H75.6665ZM77.2205 242.062V242.888H82.3725V242.062H77.2205ZM76.1985 249.342V250.28H83.4085V249.342H76.1985ZM79.3485 240.48V244.918H80.2025V240.48H79.3485ZM78.6205 245.212H80.9865V247.382H78.6205V245.212ZM77.8085 244.428V248.18H81.8265V244.428H77.8085ZM74.2105 238.31C73.5245 240.438 72.3765 242.552 71.1165 243.924C71.2985 244.176 71.5925 244.75 71.6765 245.002C73.0765 243.392 74.3785 240.984 75.1765 238.59L74.2105 238.31ZM73.0485 241.74V251.148H74.0425V240.76L74.0285 240.746L73.0485 241.74ZM88.4695 238.982V240.004H95.7775V238.982H88.4695ZM88.4695 242.356V243.364H95.8335V242.356H88.4695ZM88.3575 245.744V246.752H95.7635V245.744H88.3575ZM87.8255 238.982V243.308C87.8255 245.562 87.5875 248.404 85.3335 250.378C85.5575 250.532 85.9775 250.91 86.1315 251.134C88.5395 249.034 88.8895 245.73 88.8895 243.308V238.982H87.8255ZM95.3155 238.982V249.566C95.3155 249.874 95.2035 249.972 94.8815 249.986C94.5595 249.986 93.4115 250 92.2495 249.958C92.4315 250.252 92.6275 250.756 92.6975 251.064C94.2095 251.064 95.1335 251.05 95.6795 250.868C96.2115 250.686 96.4075 250.322 96.4075 249.58V238.982H95.3155Z" fill="#383A44"/>
<rect x="25" y="290" width="270" height="50" rx="15" fill="#EFEFEF"/>
<path d="M199.554 309.203V322H197.348L191.608 312.833V322H189.402V309.203H191.608L197.365 318.388V309.203H199.554ZM207.543 309.203V322H205.354V309.203H207.543ZM211.559 309.203V310.961H201.373V309.203H211.559ZM218.362 307.155V309.783H217.008V307.155H218.362ZM218.195 321.508V323.863H216.85V321.508H218.195ZM219.522 318.669C219.522 318.329 219.452 318.033 219.311 317.781C219.176 317.523 218.953 317.292 218.643 317.087C218.332 316.876 217.916 316.68 217.395 316.498C216.645 316.234 215.989 315.938 215.426 315.61C214.869 315.276 214.436 314.866 214.125 314.38C213.821 313.888 213.668 313.275 213.668 312.543C213.668 311.822 213.832 311.198 214.161 310.671C214.494 310.144 214.957 309.736 215.549 309.449C216.141 309.162 216.832 309.019 217.623 309.019C218.233 309.019 218.781 309.109 219.267 309.291C219.759 309.473 220.178 309.739 220.524 310.091C220.869 310.442 221.133 310.876 221.315 311.392C221.502 311.901 221.596 312.487 221.596 313.149H219.487C219.487 312.774 219.443 312.44 219.355 312.147C219.273 311.849 219.15 311.597 218.986 311.392C218.822 311.181 218.622 311.02 218.388 310.908C218.16 310.797 217.899 310.741 217.606 310.741C217.19 310.741 216.847 310.82 216.577 310.979C216.308 311.131 216.109 311.342 215.98 311.611C215.857 311.881 215.795 312.188 215.795 312.534C215.795 312.868 215.86 313.161 215.989 313.413C216.118 313.665 216.337 313.894 216.648 314.099C216.964 314.298 217.398 314.5 217.949 314.705C218.704 314.975 219.358 315.276 219.909 315.61C220.465 315.938 220.893 316.346 221.192 316.832C221.496 317.312 221.649 317.919 221.649 318.651C221.649 319.407 221.473 320.049 221.121 320.576C220.776 321.104 220.289 321.505 219.662 321.78C219.041 322.05 218.318 322.185 217.492 322.185C216.97 322.185 216.452 322.117 215.936 321.982C215.426 321.842 214.963 321.613 214.547 321.297C214.131 320.98 213.8 320.562 213.554 320.04C213.308 319.513 213.185 318.868 213.185 318.106H215.312C215.312 318.563 215.373 318.944 215.496 319.249C215.619 319.554 215.786 319.794 215.997 319.97C216.208 320.146 216.443 320.271 216.701 320.348C216.964 320.424 217.228 320.462 217.492 320.462C217.931 320.462 218.3 320.389 218.599 320.242C218.904 320.09 219.132 319.879 219.285 319.609C219.443 319.334 219.522 319.021 219.522 318.669ZM229.646 309.159V322H227.528V311.673L224.391 312.736V310.987L229.392 309.159H229.646ZM236.941 314.644H238.207C238.699 314.644 239.106 314.559 239.428 314.389C239.756 314.219 240 313.984 240.158 313.686C240.316 313.387 240.395 313.044 240.395 312.657C240.395 312.253 240.322 311.907 240.175 311.62C240.035 311.327 239.818 311.102 239.525 310.943C239.238 310.785 238.872 310.706 238.426 310.706C238.051 310.706 237.712 310.782 237.407 310.935C237.108 311.081 236.871 311.292 236.695 311.567C236.519 311.837 236.431 312.159 236.431 312.534H234.304C234.304 311.854 234.483 311.251 234.84 310.724C235.198 310.196 235.684 309.783 236.299 309.484C236.921 309.18 237.618 309.027 238.391 309.027C239.217 309.027 239.938 309.165 240.553 309.44C241.174 309.71 241.658 310.114 242.004 310.653C242.349 311.192 242.522 311.86 242.522 312.657C242.522 313.021 242.437 313.39 242.267 313.765C242.097 314.14 241.845 314.482 241.511 314.793C241.177 315.098 240.761 315.347 240.263 315.54C239.765 315.728 239.188 315.821 238.532 315.821H236.941V314.644ZM236.941 316.296V315.136H238.532C239.282 315.136 239.921 315.224 240.448 315.399C240.981 315.575 241.415 315.818 241.749 316.129C242.083 316.434 242.326 316.782 242.478 317.175C242.636 317.567 242.715 317.983 242.715 318.423C242.715 319.021 242.607 319.554 242.39 320.022C242.179 320.485 241.878 320.878 241.485 321.2C241.092 321.522 240.632 321.766 240.105 321.93C239.584 322.094 239.015 322.176 238.4 322.176C237.849 322.176 237.322 322.1 236.818 321.947C236.314 321.795 235.863 321.569 235.464 321.271C235.066 320.966 234.75 320.588 234.515 320.137C234.287 319.68 234.172 319.152 234.172 318.555H236.291C236.291 318.936 236.379 319.272 236.554 319.565C236.736 319.853 236.988 320.078 237.31 320.242C237.638 320.406 238.013 320.488 238.435 320.488C238.881 320.488 239.264 320.409 239.587 320.251C239.909 320.093 240.155 319.858 240.325 319.548C240.501 319.237 240.589 318.862 240.589 318.423C240.589 317.925 240.492 317.521 240.298 317.21C240.105 316.899 239.83 316.671 239.472 316.524C239.115 316.372 238.693 316.296 238.207 316.296H236.941ZM253.385 314.529V316.621C253.385 317.623 253.285 318.479 253.086 319.188C252.893 319.891 252.612 320.462 252.242 320.901C251.873 321.341 251.431 321.663 250.915 321.868C250.406 322.073 249.834 322.176 249.201 322.176C248.698 322.176 248.229 322.111 247.795 321.982C247.367 321.854 246.981 321.651 246.635 321.376C246.289 321.101 245.993 320.746 245.747 320.312C245.507 319.873 245.32 319.349 245.185 318.739C245.056 318.13 244.991 317.424 244.991 316.621V314.529C244.991 313.521 245.091 312.672 245.29 311.98C245.49 311.283 245.774 310.718 246.143 310.284C246.512 309.845 246.951 309.525 247.461 309.326C247.977 309.127 248.551 309.027 249.184 309.027C249.694 309.027 250.162 309.092 250.59 309.221C251.024 309.344 251.41 309.54 251.75 309.81C252.096 310.079 252.389 310.431 252.629 310.864C252.875 311.292 253.063 311.811 253.192 312.42C253.321 313.023 253.385 313.727 253.385 314.529ZM251.267 316.92V314.213C251.267 313.703 251.238 313.255 251.179 312.868C251.12 312.476 251.032 312.145 250.915 311.875C250.804 311.6 250.663 311.377 250.493 311.207C250.324 311.031 250.13 310.905 249.913 310.829C249.697 310.747 249.453 310.706 249.184 310.706C248.856 310.706 248.563 310.771 248.305 310.899C248.047 311.022 247.83 311.222 247.655 311.497C247.479 311.772 247.344 312.136 247.25 312.587C247.162 313.032 247.118 313.574 247.118 314.213V316.92C247.118 317.436 247.148 317.89 247.206 318.282C247.265 318.675 247.353 319.012 247.47 319.293C247.587 319.568 247.728 319.797 247.892 319.979C248.062 320.154 248.255 320.283 248.472 320.365C248.695 320.447 248.938 320.488 249.201 320.488C249.535 320.488 249.831 320.424 250.089 320.295C250.347 320.166 250.564 319.961 250.74 319.68C250.915 319.393 251.047 319.021 251.135 318.563C251.223 318.106 251.267 317.559 251.267 316.92ZM263.976 314.529V316.621C263.976 317.623 263.876 318.479 263.677 319.188C263.483 319.891 263.202 320.462 262.833 320.901C262.464 321.341 262.021 321.663 261.506 321.868C260.996 322.073 260.425 322.176 259.792 322.176C259.288 322.176 258.819 322.111 258.386 321.982C257.958 321.854 257.571 321.651 257.226 321.376C256.88 321.101 256.584 320.746 256.338 320.312C256.098 319.873 255.91 319.349 255.775 318.739C255.646 318.13 255.582 317.424 255.582 316.621V314.529C255.582 313.521 255.682 312.672 255.881 311.98C256.08 311.283 256.364 310.718 256.733 310.284C257.102 309.845 257.542 309.525 258.052 309.326C258.567 309.127 259.142 309.027 259.774 309.027C260.284 309.027 260.753 309.092 261.181 309.221C261.614 309.344 262.001 309.54 262.341 309.81C262.686 310.079 262.979 310.431 263.22 310.864C263.466 311.292 263.653 311.811 263.782 312.42C263.911 313.023 263.976 313.727 263.976 314.529ZM261.857 316.92V314.213C261.857 313.703 261.828 313.255 261.769 312.868C261.711 312.476 261.623 312.145 261.506 311.875C261.394 311.6 261.254 311.377 261.084 311.207C260.914 311.031 260.721 310.905 260.504 310.829C260.287 310.747 260.044 310.706 259.774 310.706C259.446 310.706 259.153 310.771 258.895 310.899C258.638 311.022 258.421 311.222 258.245 311.497C258.069 311.772 257.934 312.136 257.841 312.587C257.753 313.032 257.709 313.574 257.709 314.213V316.92C257.709 317.436 257.738 317.89 257.797 318.282C257.855 318.675 257.943 319.012 258.06 319.293C258.178 319.568 258.318 319.797 258.482 319.979C258.652 320.154 258.846 320.283 259.062 320.365C259.285 320.447 259.528 320.488 259.792 320.488C260.126 320.488 260.422 320.424 260.68 320.295C260.937 320.166 261.154 319.961 261.33 319.68C261.506 319.393 261.638 319.021 261.726 318.563C261.813 318.106 261.857 317.559 261.857 316.92Z" fill="#6F7387"/>
<path d="M60.7082 310.033H60.8175V311.106H60.7082C60.0382 311.106 59.4777 311.216 59.0265 311.435C58.5754 311.649 58.2176 311.938 57.9533 312.303C57.689 312.663 57.4976 313.068 57.3791 313.52C57.2651 313.971 57.2082 314.429 57.2082 314.894V316.356C57.2082 316.799 57.2606 317.19 57.3654 317.532C57.4702 317.869 57.6138 318.154 57.7961 318.387C57.9783 318.619 58.1834 318.795 58.4113 318.913C58.6437 319.032 58.8852 319.091 59.1359 319.091C59.4276 319.091 59.6873 319.036 59.9152 318.927C60.1431 318.813 60.3345 318.656 60.4894 318.455C60.6489 318.25 60.7697 318.008 60.8517 317.73C60.9338 317.452 60.9748 317.147 60.9748 316.814C60.9748 316.518 60.9383 316.233 60.8654 315.96C60.7925 315.682 60.6808 315.436 60.5304 315.222C60.38 315.003 60.1909 314.832 59.963 314.709C59.7397 314.581 59.4731 314.518 59.1632 314.518C58.8123 314.518 58.4842 314.604 58.1789 314.777C57.8781 314.946 57.6297 315.169 57.4338 315.447C57.2423 315.721 57.133 316.019 57.1056 316.343L56.4357 316.336C56.4995 315.826 56.618 315.39 56.7912 315.03C56.9689 314.666 57.1877 314.369 57.4474 314.142C57.7117 313.909 58.0057 313.741 58.3293 313.636C58.6574 313.526 59.0037 313.472 59.3683 313.472C59.8651 313.472 60.2935 313.565 60.6535 313.752C61.0135 313.939 61.3097 314.189 61.5421 314.504C61.7746 314.814 61.9455 315.165 62.0548 315.557C62.1688 315.944 62.2257 316.343 62.2257 316.753C62.2257 317.222 62.1597 317.662 62.0275 318.072C61.8953 318.482 61.6971 318.842 61.4328 319.152C61.173 319.462 60.8517 319.704 60.4689 319.877C60.0861 320.05 59.6418 320.137 59.1359 320.137C58.5981 320.137 58.1287 320.027 57.7277 319.809C57.3267 319.585 56.994 319.289 56.7296 318.92C56.4653 318.551 56.2671 318.141 56.1349 317.689C56.0028 317.238 55.9367 316.78 55.9367 316.315V315.721C55.9367 315.019 56.0073 314.331 56.1486 313.656C56.2899 312.982 56.5337 312.371 56.88 311.824C57.231 311.277 57.7163 310.842 58.3361 310.519C58.9559 310.195 59.7466 310.033 60.7082 310.033ZM67.7115 309.094V321.12H68.6915V310.032H74.8935V321.008H75.9015V309.094H67.7115ZM69.2655 312.062V312.888H74.4175V312.062H69.2655ZM68.2435 319.342V320.28H75.4535V319.342H68.2435ZM71.3935 310.48V314.918H72.2475V310.48H71.3935ZM70.6655 315.212H73.0315V317.382H70.6655V315.212ZM69.8535 314.428V318.18H73.8715V314.428H69.8535ZM66.2555 308.31C65.5695 310.438 64.4215 312.552 63.1615 313.924C63.3435 314.176 63.6375 314.75 63.7215 315.002C65.1215 313.392 66.4235 310.984 67.2215 308.59L66.2555 308.31ZM65.0935 311.74V321.148H66.0875V310.76L66.0735 310.746L65.0935 311.74ZM80.5145 308.982V310.004H87.8225V308.982H80.5145ZM80.5145 312.356V313.364H87.8785V312.356H80.5145ZM80.4025 315.744V316.752H87.8085V315.744H80.4025ZM79.8705 308.982V313.308C79.8705 315.562 79.6325 318.404 77.3785 320.378C77.6025 320.532 78.0225 320.91 78.1765 321.134C80.5845 319.034 80.9345 315.73 80.9345 313.308V308.982H79.8705ZM87.3605 308.982V319.566C87.3605 319.874 87.2485 319.972 86.9265 319.986C86.6045 319.986 85.4565 320 84.2945 319.958C84.4765 320.252 84.6725 320.756 84.7425 321.064C86.2545 321.064 87.1785 321.05 87.7245 320.868C88.2565 320.686 88.4525 320.322 88.4525 319.58V308.982H87.3605Z" fill="#A8ABBD"/>
<rect x="25" y="360" width="270" height="50" rx="15" fill="#EFEFEF"/>
<path d="M204.849 379.203V392H202.643L196.904 382.833V392H194.698V379.203H196.904L202.661 388.388V379.203H204.849ZM212.838 379.203V392H210.649V379.203H212.838ZM216.855 379.203V380.961H206.668V379.203H216.855ZM223.657 377.155V379.783H222.303V377.155H223.657ZM223.49 391.508V393.863H222.145V391.508H223.49ZM224.817 388.669C224.817 388.329 224.747 388.033 224.606 387.781C224.471 387.523 224.249 387.292 223.938 387.087C223.628 386.876 223.212 386.68 222.69 386.498C221.94 386.234 221.284 385.938 220.721 385.61C220.165 385.276 219.731 384.866 219.421 384.38C219.116 383.888 218.964 383.275 218.964 382.543C218.964 381.822 219.128 381.198 219.456 380.671C219.79 380.144 220.253 379.736 220.844 379.449C221.436 379.162 222.128 379.019 222.919 379.019C223.528 379.019 224.076 379.109 224.562 379.291C225.054 379.473 225.473 379.739 225.819 380.091C226.165 380.442 226.428 380.876 226.61 381.392C226.798 381.901 226.891 382.487 226.891 383.149H224.782C224.782 382.774 224.738 382.44 224.65 382.147C224.568 381.849 224.445 381.597 224.281 381.392C224.117 381.181 223.918 381.02 223.683 380.908C223.455 380.797 223.194 380.741 222.901 380.741C222.485 380.741 222.142 380.82 221.873 380.979C221.603 381.131 221.404 381.342 221.275 381.611C221.152 381.881 221.091 382.188 221.091 382.534C221.091 382.868 221.155 383.161 221.284 383.413C221.413 383.665 221.632 383.894 221.943 384.099C222.259 384.298 222.693 384.5 223.244 384.705C224 384.975 224.653 385.276 225.204 385.61C225.76 385.938 226.188 386.346 226.487 386.832C226.792 387.312 226.944 387.919 226.944 388.651C226.944 389.407 226.768 390.049 226.417 390.576C226.071 391.104 225.585 391.505 224.958 391.78C224.337 392.05 223.613 392.185 222.787 392.185C222.265 392.185 221.747 392.117 221.231 391.982C220.721 391.842 220.258 391.613 219.842 391.297C219.426 390.98 219.095 390.562 218.849 390.04C218.603 389.513 218.48 388.868 218.48 388.106H220.607C220.607 388.563 220.669 388.944 220.792 389.249C220.915 389.554 221.082 389.794 221.293 389.97C221.504 390.146 221.738 390.271 221.996 390.348C222.259 390.424 222.523 390.462 222.787 390.462C223.226 390.462 223.595 390.389 223.894 390.242C224.199 390.09 224.427 389.879 224.58 389.609C224.738 389.334 224.817 389.021 224.817 388.669ZM231.646 384.644H232.911C233.404 384.644 233.811 384.559 234.133 384.389C234.461 384.219 234.704 383.984 234.863 383.686C235.021 383.387 235.1 383.044 235.1 382.657C235.1 382.253 235.027 381.907 234.88 381.62C234.74 381.327 234.523 381.102 234.23 380.943C233.943 380.785 233.576 380.706 233.131 380.706C232.756 380.706 232.416 380.782 232.112 380.935C231.813 381.081 231.576 381.292 231.4 381.567C231.224 381.837 231.136 382.159 231.136 382.534H229.009C229.009 381.854 229.188 381.251 229.545 380.724C229.903 380.196 230.389 379.783 231.004 379.484C231.625 379.18 232.323 379.027 233.096 379.027C233.922 379.027 234.643 379.165 235.258 379.44C235.879 379.71 236.363 380.114 236.708 380.653C237.054 381.192 237.227 381.86 237.227 382.657C237.227 383.021 237.142 383.39 236.972 383.765C236.802 384.14 236.55 384.482 236.216 384.793C235.882 385.098 235.466 385.347 234.968 385.54C234.47 385.728 233.893 385.821 233.237 385.821H231.646V384.644ZM231.646 386.296V385.136H233.237C233.987 385.136 234.625 385.224 235.153 385.399C235.686 385.575 236.119 385.818 236.453 386.129C236.787 386.434 237.031 386.782 237.183 387.175C237.341 387.567 237.42 387.983 237.42 388.423C237.42 389.021 237.312 389.554 237.095 390.022C236.884 390.485 236.582 390.878 236.19 391.2C235.797 391.522 235.337 391.766 234.81 391.93C234.288 392.094 233.72 392.176 233.105 392.176C232.554 392.176 232.027 392.1 231.523 391.947C231.019 391.795 230.568 391.569 230.169 391.271C229.771 390.966 229.454 390.588 229.22 390.137C228.992 389.68 228.877 389.152 228.877 388.555H230.995C230.995 388.936 231.083 389.272 231.259 389.565C231.441 389.853 231.693 390.078 232.015 390.242C232.343 390.406 232.718 390.488 233.14 390.488C233.585 390.488 233.969 390.409 234.291 390.251C234.614 390.093 234.86 389.858 235.03 389.548C235.205 389.237 235.293 388.862 235.293 388.423C235.293 387.925 235.197 387.521 235.003 387.21C234.81 386.899 234.534 386.671 234.177 386.524C233.82 386.372 233.398 386.296 232.911 386.296H231.646ZM248.09 384.529V386.621C248.09 387.623 247.99 388.479 247.791 389.188C247.598 389.891 247.316 390.462 246.947 390.901C246.578 391.341 246.136 391.663 245.62 391.868C245.11 392.073 244.539 392.176 243.906 392.176C243.402 392.176 242.934 392.111 242.5 391.982C242.072 391.854 241.686 391.651 241.34 391.376C240.994 391.101 240.698 390.746 240.452 390.312C240.212 389.873 240.024 389.349 239.89 388.739C239.761 388.13 239.696 387.424 239.696 386.621V384.529C239.696 383.521 239.796 382.672 239.995 381.98C240.194 381.283 240.478 380.718 240.848 380.284C241.217 379.845 241.656 379.525 242.166 379.326C242.682 379.127 243.256 379.027 243.889 379.027C244.398 379.027 244.867 379.092 245.295 379.221C245.728 379.344 246.115 379.54 246.455 379.81C246.801 380.079 247.094 380.431 247.334 380.864C247.58 381.292 247.768 381.811 247.896 382.42C248.025 383.023 248.09 383.727 248.09 384.529ZM245.972 386.92V384.213C245.972 383.703 245.942 383.255 245.884 382.868C245.825 382.476 245.737 382.145 245.62 381.875C245.509 381.6 245.368 381.377 245.198 381.207C245.028 381.031 244.835 380.905 244.618 380.829C244.401 380.747 244.158 380.706 243.889 380.706C243.561 380.706 243.268 380.771 243.01 380.899C242.752 381.022 242.535 381.222 242.359 381.497C242.184 381.772 242.049 382.136 241.955 382.587C241.867 383.032 241.823 383.574 241.823 384.213V386.92C241.823 387.436 241.852 387.89 241.911 388.282C241.97 388.675 242.058 389.012 242.175 389.293C242.292 389.568 242.433 389.797 242.597 389.979C242.767 390.154 242.96 390.283 243.177 390.365C243.399 390.447 243.643 390.488 243.906 390.488C244.24 390.488 244.536 390.424 244.794 390.295C245.052 390.166 245.269 389.961 245.444 389.68C245.62 389.393 245.752 389.021 245.84 388.563C245.928 388.106 245.972 387.559 245.972 386.92ZM258.68 384.529V386.621C258.68 387.623 258.581 388.479 258.381 389.188C258.188 389.891 257.907 390.462 257.538 390.901C257.169 391.341 256.726 391.663 256.211 391.868C255.701 392.073 255.129 392.176 254.497 392.176C253.993 392.176 253.524 392.111 253.09 391.982C252.663 391.854 252.276 391.651 251.93 391.376C251.585 391.101 251.289 390.746 251.043 390.312C250.802 389.873 250.615 389.349 250.48 388.739C250.351 388.13 250.287 387.424 250.287 386.621V384.529C250.287 383.521 250.386 382.672 250.586 381.98C250.785 381.283 251.069 380.718 251.438 380.284C251.807 379.845 252.247 379.525 252.756 379.326C253.272 379.127 253.846 379.027 254.479 379.027C254.989 379.027 255.458 379.092 255.885 379.221C256.319 379.344 256.706 379.54 257.046 379.81C257.391 380.079 257.684 380.431 257.924 380.864C258.171 381.292 258.358 381.811 258.487 382.42C258.616 383.023 258.68 383.727 258.68 384.529ZM256.562 386.92V384.213C256.562 383.703 256.533 383.255 256.474 382.868C256.416 382.476 256.328 382.145 256.211 381.875C256.099 381.6 255.959 381.377 255.789 381.207C255.619 381.031 255.425 380.905 255.209 380.829C254.992 380.747 254.749 380.706 254.479 380.706C254.151 380.706 253.858 380.771 253.6 380.899C253.342 381.022 253.126 381.222 252.95 381.497C252.774 381.772 252.639 382.136 252.546 382.587C252.458 383.032 252.414 383.574 252.414 384.213V386.92C252.414 387.436 252.443 387.89 252.502 388.282C252.56 388.675 252.648 389.012 252.765 389.293C252.882 389.568 253.023 389.797 253.187 389.979C253.357 390.154 253.55 390.283 253.767 390.365C253.99 390.447 254.233 390.488 254.497 390.488C254.831 390.488 255.127 390.424 255.384 390.295C255.642 390.166 255.859 389.961 256.035 389.68C256.211 389.393 256.342 389.021 256.43 388.563C256.518 388.106 256.562 387.559 256.562 386.92Z" fill="#6F7387"/>
<path d="M57.7004 384.401H58.6027C59.0448 384.401 59.4093 384.328 59.6964 384.183C59.9881 384.032 60.2046 383.829 60.3459 383.574C60.4917 383.314 60.5646 383.023 60.5646 382.699C60.5646 382.316 60.5008 381.995 60.3732 381.735C60.2456 381.476 60.0542 381.28 59.799 381.147C59.5438 381.015 59.2202 380.949 58.8283 380.949C58.4728 380.949 58.1584 381.02 57.8849 381.161C57.616 381.298 57.4041 381.494 57.2492 381.749C57.0988 382.004 57.0236 382.305 57.0236 382.651H55.7589C55.7589 382.146 55.8865 381.685 56.1418 381.271C56.397 380.856 56.7547 380.525 57.215 380.279C57.6798 380.033 58.2176 379.91 58.8283 379.91C59.4298 379.91 59.9562 380.017 60.4074 380.231C60.8586 380.441 61.2095 380.756 61.4601 381.175C61.7108 381.59 61.8361 382.107 61.8361 382.727C61.8361 382.977 61.7768 383.246 61.6584 383.533C61.5444 383.816 61.3644 384.08 61.1183 384.326C60.8768 384.572 60.5623 384.775 60.175 384.935C59.7876 385.09 59.3227 385.167 58.7804 385.167H57.7004V384.401ZM57.7004 385.44V384.682H58.7804C59.4139 384.682 59.938 384.757 60.3527 384.907C60.7674 385.058 61.0933 385.258 61.3302 385.509C61.5718 385.759 61.7404 386.035 61.8361 386.336C61.9364 386.632 61.9865 386.928 61.9865 387.225C61.9865 387.689 61.9067 388.102 61.7472 388.462C61.5923 388.822 61.3713 389.127 61.0841 389.378C60.8016 389.629 60.4689 389.818 60.0861 389.945C59.7033 390.073 59.2863 390.137 58.8351 390.137C58.4022 390.137 57.9943 390.075 57.6115 389.952C57.2332 389.829 56.8983 389.651 56.6066 389.419C56.3149 389.182 56.0871 388.893 55.923 388.551C55.7589 388.204 55.6769 387.81 55.6769 387.368H56.9416C56.9416 387.715 57.0168 388.018 57.1671 388.277C57.3221 388.537 57.5408 388.74 57.8234 388.886C58.1105 389.027 58.4477 389.098 58.8351 389.098C59.2225 389.098 59.5552 389.032 59.8332 388.899C60.1157 388.763 60.3322 388.558 60.4826 388.284C60.6375 388.011 60.715 387.667 60.715 387.252C60.715 386.837 60.6284 386.498 60.4552 386.233C60.2821 385.965 60.036 385.766 59.717 385.639C59.4025 385.507 59.0311 385.44 58.6027 385.44H57.7004ZM67.7115 379.094V391.12H68.6915V380.032H74.8935V391.008H75.9015V379.094H67.7115ZM69.2655 382.062V382.888H74.4175V382.062H69.2655ZM68.2435 389.342V390.28H75.4535V389.342H68.2435ZM71.3935 380.48V384.918H72.2475V380.48H71.3935ZM70.6655 385.212H73.0315V387.382H70.6655V385.212ZM69.8535 384.428V388.18H73.8715V384.428H69.8535ZM66.2555 378.31C65.5695 380.438 64.4215 382.552 63.1615 383.924C63.3435 384.176 63.6375 384.75 63.7215 385.002C65.1215 383.392 66.4235 380.984 67.2215 378.59L66.2555 378.31ZM65.0935 381.74V391.148H66.0875V380.76L66.0735 380.746L65.0935 381.74ZM80.5145 378.982V380.004H87.8225V378.982H80.5145ZM80.5145 382.356V383.364H87.8785V382.356H80.5145ZM80.4025 385.744V386.752H87.8085V385.744H80.4025ZM79.8705 378.982V383.308C79.8705 385.562 79.6325 388.404 77.3785 390.378C77.6025 390.532 78.0225 390.91 78.1765 391.134C80.5845 389.034 80.9345 385.73 80.9345 383.308V378.982H79.8705ZM87.3605 378.982V389.566C87.3605 389.874 87.2485 389.972 86.9265 389.986C86.6045 389.986 85.4565 390 84.2945 389.958C84.4765 390.252 84.6725 390.756 84.7425 391.064C86.2545 391.064 87.1785 391.05 87.7245 390.868C88.2565 390.686 88.4525 390.322 88.4525 389.58V378.982H87.3605Z" fill="#A8ABBD"/>
<defs>
<clipPath id="clip0_39_7561">
<rect x="28" y="440" width="270" height="50" rx="25" fill="white"/>
</clipPath>
</defs>
</svg>
