<svg width="320" height="430" viewBox="0 0 320 430" fill="none" xmlns="http://www.w3.org/2000/svg">
<rect width="320" height="430" rx="15" fill="white"/>
<g clip-path="url(#clip0_53_53196)">
<rect x="25" y="324" width="270" height="50" rx="25" fill="#FF4E84"/>
<path d="M151.198 348.592L151.198 349.636L158.236 349.636L158.236 348.592L151.198 348.592ZM151.198 351.544L151.198 352.606L158.236 352.606L158.236 351.544L151.198 351.544ZM151.216 354.514L151.216 355.666L159.082 355.666L159.082 354.514L151.216 354.514ZM149.164 341.734L149.164 344.812L150.334 344.812L150.334 342.904L157.786 342.904L157.786 344.812L158.992 344.812L158.992 341.734L149.164 341.734ZM154.132 346.45L154.132 355.126L155.392 355.126L155.392 346.45L154.132 346.45ZM151.684 345.586L151.576 345.586L150.406 346.81L150.406 356.44L151.684 356.44L151.684 346.756L158.542 346.756L158.542 345.586L151.684 345.586ZM153.376 339.88C152.494 343.192 150.838 345.982 148.462 347.71C148.75 347.944 149.236 348.448 149.434 348.7C151.864 346.774 153.646 343.786 154.672 340.132L153.376 339.88ZM155.248 343.444C155.032 344.236 154.564 345.37 154.186 346.09L155.23 346.396C155.608 345.712 156.094 344.704 156.526 343.768L155.248 343.444ZM142.756 341.104L142.756 342.346L149.11 342.346L149.11 341.104L142.756 341.104ZM144.574 346.36L144.574 347.566L147.454 347.566L147.454 353.056L144.574 353.056L144.574 354.244L148.642 354.244L148.642 346.36L144.574 346.36ZM144.88 341.698C144.448 345.082 143.674 348.268 142.234 350.302C142.486 350.608 142.864 351.274 143.008 351.58C144.682 349.222 145.618 345.676 146.176 341.896L144.88 341.698ZM144.016 346.36L144.016 355.648L145.15 355.648L145.15 346.36L144.016 346.36ZM163.978 345.388L163.978 346.684L174.472 346.684L174.472 345.388L163.978 345.388ZM169.162 349.69L169.162 350.968L175.228 350.968L175.228 349.69L169.162 349.69ZM168.442 346.054L168.442 354.982L169.846 355.162L169.846 346.054L168.442 346.054ZM164.176 348.232C163.78 351.49 162.808 354.064 160.792 355.63C161.116 355.828 161.692 356.296 161.908 356.53C163.942 354.766 165.076 352.012 165.58 348.376L164.176 348.232ZM165.022 350.554L163.924 350.968C165.472 355.36 168.406 356.206 172.69 356.206L176.92 356.206C176.974 355.81 177.208 355.162 177.424 354.838C176.542 354.856 173.428 354.856 172.762 354.856C169.108 354.856 166.3 354.226 165.022 350.554ZM168.424 339.898L168.424 342.814L169.846 342.814L169.846 339.898L168.424 339.898ZM161.656 341.95L161.656 345.874L162.988 345.874L162.988 343.246L175.318 343.246L175.318 345.874L176.704 345.874L176.704 341.95L161.656 341.95Z" fill="white"/>
</g>
<path d="M111.848 53.704V56.504H122.208V53.704H111.848ZM104.96 69.216V71.96H129.152V69.216H104.96ZM106.584 47.264V49.98H114.424V47.264H106.584ZM113.36 47.264V47.824C111.82 51.968 107.648 55.776 103.476 57.54C104.148 58.128 105.044 59.276 105.492 59.976C110.196 57.708 114.62 53.704 116.692 48.216L114.508 47.124L113.92 47.264H113.36ZM119.744 46.312L116.888 47.208C119.212 52.752 123.048 57.232 128.2 59.584C128.704 58.716 129.684 57.456 130.468 56.784C125.596 54.936 121.676 50.876 119.744 46.312ZM105.24 52.304C106.444 53.088 107.956 54.292 108.684 55.132L110.56 53.088C109.832 52.248 108.292 51.156 107.032 50.456L105.24 52.304ZM124.056 46.48C122.992 47.712 121.144 49.336 119.8 50.288L121.816 51.856C123.216 50.96 125.036 49.588 126.576 48.272L124.056 46.48ZM127.22 49.756C126.072 51.044 124.112 52.696 122.656 53.704L124.672 55.272C126.156 54.348 128.088 52.892 129.684 51.492L127.22 49.756ZM112.1 60.788H121.676V63.252H112.1V60.788ZM108.824 58.1V65.912H125.148V58.1H108.824ZM110.448 66.276C111.092 67.368 111.708 68.852 111.904 69.804L115.124 68.88C114.872 67.928 114.256 66.5 113.528 65.492L110.448 66.276ZM120.444 65.464C120.108 66.528 119.408 68.04 118.848 69.02L121.788 69.692C122.348 68.796 122.992 67.536 123.692 66.164L120.444 65.464ZM137.972 47.796V51.212H145.896V47.796H137.972ZM144.244 47.796C144.244 53.508 145.476 66.024 156.144 72.436C156.732 71.596 158.076 70.112 158.86 69.496C148.472 63.42 147.716 53.116 147.716 47.796H144.244ZM143.04 53.928C141.528 61.348 138.168 66.78 132.316 69.748C133.184 70.364 134.752 71.764 135.368 72.492C141.22 68.964 144.944 62.944 146.904 54.628L143.04 53.928ZM172.776 47.628V50.736H184.144V47.628H172.776ZM171.824 57.372V60.536H187.28V57.372H171.824ZM177.732 54.096V68.74C177.732 69.132 177.592 69.244 177.144 69.272C176.668 69.3 175.212 69.272 173.784 69.216C174.232 70.112 174.792 71.568 174.96 72.492C177.032 72.52 178.572 72.408 179.692 71.904C180.784 71.372 181.12 70.476 181.12 68.796V54.096H177.732ZM182.94 47.628V48.356C182.1 50.036 180.168 52.808 178.516 54.404C179.048 54.852 179.972 55.776 180.42 56.364C182.604 54.516 184.984 51.548 186.636 49.112L184.452 47.46L183.752 47.628H182.94ZM161.156 51.8V54.908H170.2V51.8H161.156ZM164.908 46.228C164.04 51.8 162.528 59.192 161.324 63.616L164.068 65.072C165.384 60.032 167.008 52.528 168.072 46.564L164.908 46.228ZM162.78 63.14C165.72 65.072 169.276 68.012 170.844 70.14L172.86 67.424C171.236 65.324 167.54 62.608 164.628 60.788L162.78 63.14ZM169.052 51.8V52.416C168.492 61.264 166 67.452 161.24 69.944C161.912 70.588 162.808 71.792 163.256 72.604C168.8 69.16 171.516 62.972 172.16 52.052L170.172 51.716L169.584 51.8H169.052ZM202.82 66.836C203.352 67.816 203.856 69.216 203.968 70.112L206.684 69.3C206.516 68.432 206.012 67.116 205.396 66.164L202.82 66.836ZM210.212 66.08C209.932 67.032 209.4 68.404 208.952 69.328L211.444 70.056C211.892 69.244 212.508 68.096 213.124 66.864L210.212 66.08ZM204.332 62.972H211.304V64.4H204.332V62.972ZM201.56 61.012V66.36H214.188V61.012H201.56ZM203.352 53.284H212.172V54.544H203.352V53.284ZM203.352 50.092H212.172V51.352H203.352V50.092ZM200.664 48.02V56.616H215V48.02H200.664ZM200.272 57.54V60.06H215.448V57.54H200.272ZM199.712 69.524V71.988H215.84V69.524H199.712ZM204.416 46.228V49.56H206.908V46.228H204.416ZM208.56 46.228V49.56H211.052V46.228H208.56ZM204.92 48.972V56.196H206.88V48.972H204.92ZM208.56 48.972V56.196H210.52V48.972H208.56ZM189.828 53.564V56.476H199.656V53.564H189.828ZM190.5 47.992V50.876H199.096V47.992H190.5ZM197.416 57.876V68.32H199.544V57.876H197.416ZM193.496 55.02V72.52H196.268V55.02H193.496ZM190.22 57.932V61.208C190.22 63.644 190.08 66.5 189.324 68.768C189.912 69.076 190.78 69.748 191.2 70.196C192.208 67.508 192.348 64.176 192.348 61.292V57.932H190.22Z" fill="#383A44"/>
<path d="M36.15 129.99V130.63H42.6V128.35H35.28V128.98H41.86V129.99H36.15ZM35.77 129.99C35.62 130.78 35.36 131.79 35.15 132.43L35.89 132.54C36.09 131.88 36.34 130.84 36.52 129.99H35.77ZM35.88 131.55L35.68 132.2H42.62V131.55H35.88ZM42.43 131.55V131.65C42.32 132.95 42.2 133.47 42.02 133.63C41.94 133.71 41.84 133.72 41.67 133.72C41.49 133.72 41.01 133.72 40.53 133.66C40.64 133.86 40.72 134.14 40.74 134.36C41.25 134.38 41.74 134.38 42 134.36C42.28 134.35 42.46 134.29 42.64 134.12C42.89 133.87 43.03 133.25 43.16 131.86C43.18 131.75 43.19 131.55 43.19 131.55H42.43ZM38.62 128.51V134.8H39.36V128.51H38.62ZM38.42 131.75C37.58 132.73 35.9 133.63 34.43 134.04C34.59 134.19 34.8 134.46 34.91 134.64C36.39 134.16 38.08 133.15 39.01 132.02L38.42 131.75ZM35.63 126.47V127.08H38.86V126.47H35.63ZM39.49 126.47V127.08H43.53V126.47H39.49ZM35.84 125.56C35.51 126.45 34.95 127.33 34.32 127.92C34.5 128.01 34.81 128.22 34.94 128.32C35.55 127.7 36.16 126.72 36.54 125.74L35.84 125.56ZM39.78 125.56C39.45 126.46 38.84 127.3 38.13 127.84C38.32 127.94 38.62 128.15 38.76 128.28C39.44 127.67 40.11 126.74 40.49 125.74L39.78 125.56ZM36.19 126.94C36.42 127.36 36.64 127.91 36.72 128.26L37.38 128C37.29 127.66 37.04 127.11 36.82 126.71L36.19 126.94ZM40.37 126.93C40.72 127.35 41.08 127.91 41.22 128.29L41.87 128.02C41.71 127.65 41.34 127.1 41 126.7L40.37 126.93ZM44.465 129.69V130.51H53.615V129.69H44.465ZM59.46 129.78L58.73 129.94C59.42 132.48 60.75 134.13 63.18 134.82C63.3 134.61 63.52 134.29 63.7 134.12C61.36 133.55 60.04 132.02 59.46 129.78ZM54.95 129.49V130.25H63.18V129.49H54.95ZM54.64 126.38V127.14H63.44V126.38H54.64ZM58.58 126.59V128.92C58.58 130.75 58.19 132.9 54.45 134.17C54.61 134.32 54.83 134.64 54.91 134.83C58.92 133.44 59.37 131.03 59.37 128.92V126.59H58.58Z" fill="#6F7387"/>
<path d="M98.768 91.268V92.048H103.22V91.268H98.768ZM95.78 97.928V98.684H106.232V97.928H95.78ZM96.5 88.388V89.144H100.052V88.388H96.5ZM99.764 88.388V88.556C99.02 90.464 97.076 92.144 95.312 92.888C95.492 93.044 95.732 93.356 95.852 93.548C97.76 92.66 99.764 90.944 100.664 88.64L100.088 88.34L99.92 88.388H99.764ZM101.792 87.956L101.036 88.208C102.056 90.488 103.892 92.444 106.016 93.404C106.16 93.164 106.412 92.84 106.628 92.66C104.552 91.856 102.716 89.996 101.792 87.956ZM96.176 90.08C96.8 90.464 97.52 91.064 97.88 91.484L98.384 90.932C98.036 90.5 97.292 89.948 96.656 89.588L96.176 90.08ZM104.204 88.028C103.724 88.556 102.872 89.288 102.26 89.732L102.812 90.164C103.436 89.744 104.264 89.096 104.888 88.508L104.204 88.028ZM105.548 89.444C105.044 89.984 104.156 90.716 103.508 91.148L104.06 91.58C104.72 91.172 105.584 90.524 106.22 89.924L105.548 89.444ZM98.552 93.776H103.412V95.36H98.552V93.776ZM97.664 93.032V96.104H104.336V93.032H97.664ZM98.36 96.296C98.684 96.824 98.984 97.556 99.104 98.024L99.956 97.76C99.836 97.292 99.524 96.584 99.188 96.068L98.36 96.296ZM102.824 96.032C102.632 96.56 102.248 97.34 101.948 97.808L102.716 98.036C103.016 97.568 103.376 96.908 103.7 96.272L102.824 96.032ZM109.754 88.652V89.564H113.15V88.652H109.754ZM112.694 88.652C112.694 90.908 113.09 96.02 117.89 98.924C118.058 98.708 118.418 98.324 118.622 98.168C113.882 95.36 113.618 90.8 113.618 88.652H112.694ZM112.358 91.004C111.626 94.4 110.126 96.824 107.462 98.216C107.702 98.384 108.11 98.756 108.278 98.948C110.93 97.388 112.514 94.856 113.378 91.196L112.358 91.004ZM120.8 90.932V91.748H124.328V90.932H120.8ZM120.368 88.568V97.712L121.22 97.532V88.568H120.368ZM119.528 97.436L119.828 98.348C121.016 98 122.66 97.508 124.184 97.04L124.076 96.188C122.384 96.668 120.632 97.16 119.528 97.436ZM122.564 94.988C123.344 96.032 124.184 97.448 124.496 98.36L125.288 97.94C124.952 97.04 124.1 95.66 123.284 94.628L122.564 94.988ZM120.776 88.568V89.408H123.992V93.224H120.776V94.064H124.832V88.568H120.776ZM129.188 88.58V95.888C129.188 96.056 129.14 96.116 128.972 96.116C128.78 96.116 128.204 96.128 127.556 96.104C127.712 96.368 127.856 96.812 127.88 97.088C128.72 97.088 129.296 97.076 129.644 96.896C130.016 96.728 130.112 96.416 130.112 95.9V88.58H129.188ZM125.744 88.58V98.972H126.656V89.48H129.692V88.58H125.744ZM140.042 89.048V97.652C140.042 97.904 139.958 97.988 139.694 98C139.406 98.012 138.434 98.024 137.462 97.976C137.606 98.24 137.786 98.684 137.846 98.948C139.034 98.948 139.874 98.936 140.354 98.78C140.822 98.636 140.978 98.324 140.978 97.676V89.048H140.042ZM132.986 91.448V96.884H133.862V91.448H132.986ZM133.358 91.448V92.3H137.006V95.06H133.358V95.924H137.906V91.448H133.358ZM131.75 88.772V89.684H142.454V88.772H131.75ZM143.696 88.496C145.556 90.26 145.808 92.204 145.808 94.4C145.808 95.96 145.712 97.52 145.412 97.904C145.328 98.024 145.22 98.072 145.052 98.096C144.812 98.12 144.392 98.12 143.888 98.084C144.044 98.336 144.128 98.672 144.14 98.948C144.584 98.972 145.04 98.972 145.412 98.9C145.7 98.852 145.928 98.72 146.084 98.516C146.552 97.868 146.672 96.164 146.672 94.412C146.672 92.096 146.396 89.948 144.332 88.028L143.696 88.496ZM145.82 92.324C145.328 93.428 144.332 94.676 143.456 95.3C143.66 95.468 143.912 95.768 144.044 95.984C144.944 95.228 145.952 93.872 146.48 92.708L145.82 92.324ZM146.42 87.992C145.796 89.216 144.656 90.596 143.48 91.508C143.672 91.652 143.96 91.904 144.092 92.072C145.292 91.088 146.456 89.732 147.2 88.388L146.42 87.992ZM147.164 88.808V89.528H154.58V88.808H147.164ZM147.956 94.388V94.988H154.556V94.388H147.956ZM147.5 95.54V96.224H153.296V95.54H147.5ZM148.268 92.024V92.54H153.848V92.024H148.268ZM148.268 93.2V93.704H153.848V93.2H148.268ZM148.988 87.908V90.212H149.804V87.908H148.988ZM150.668 91.076V94.7H151.472V91.076H150.668ZM151.772 87.908V90.212H152.6V87.908H151.772ZM148.496 89.804C148.088 90.788 147.404 91.736 146.648 92.384C146.828 92.516 147.104 92.804 147.224 92.948C147.992 92.228 148.76 91.124 149.24 90.008L148.496 89.804ZM147.956 91.412V94.772H148.748V90.932L147.956 91.412ZM148.4 90.8L148.088 91.412H154.208V90.8H148.4ZM151.016 89.9C150.908 90.212 150.68 90.692 150.512 91.028L151.208 91.196C151.412 90.908 151.64 90.5 151.88 90.068L151.016 89.9ZM153.068 95.54V95.672C152.048 97.256 149.504 97.988 146.768 98.276C146.912 98.456 147.104 98.792 147.188 98.996C149.996 98.612 152.696 97.76 153.908 95.84L153.416 95.516L153.26 95.54H153.068ZM149.132 96.14L148.4 96.416C149.54 97.88 151.76 98.684 154.28 98.984C154.388 98.768 154.604 98.432 154.784 98.264C152.336 98.036 150.128 97.376 149.132 96.14ZM160.922 90.596H164.894V91.58H160.922V90.596ZM160.922 88.976H164.894V89.948H160.922V88.976ZM160.058 88.292V92.264H165.794V88.292H160.058ZM159.314 93.092V93.848H166.37V93.092H159.314ZM159.038 94.88V95.672H166.586V94.88H159.038ZM163.886 93.752V97.952C163.886 98.108 163.838 98.156 163.646 98.168C163.466 98.18 162.866 98.18 162.182 98.156C162.302 98.396 162.446 98.732 162.482 98.972C163.382 98.972 163.958 98.972 164.318 98.828C164.678 98.696 164.786 98.456 164.786 97.976V93.752H163.886ZM160.082 96.284C160.622 96.812 161.27 97.556 161.558 98.036L162.242 97.532C161.93 97.064 161.27 96.356 160.718 95.852L160.082 96.284ZM158.378 90.596C157.658 91.844 156.494 93.08 155.402 93.872C155.558 94.076 155.81 94.556 155.882 94.736C157.07 93.8 158.354 92.348 159.17 90.92L158.378 90.596ZM158.15 87.956C157.634 88.808 156.554 89.804 155.594 90.428C155.75 90.608 155.978 90.956 156.074 91.16C157.142 90.452 158.294 89.324 159.014 88.292L158.15 87.956ZM157.298 92.72V98.96H158.174V91.892L158.138 91.868L157.298 92.72ZM170.948 91.268V92.048H175.4V91.268H170.948ZM167.96 97.928V98.684H178.412V97.928H167.96ZM168.68 88.388V89.144H172.232V88.388H168.68ZM171.944 88.388V88.556C171.2 90.464 169.256 92.144 167.492 92.888C167.672 93.044 167.912 93.356 168.032 93.548C169.94 92.66 171.944 90.944 172.844 88.64L172.268 88.34L172.1 88.388H171.944ZM173.972 87.956L173.216 88.208C174.236 90.488 176.072 92.444 178.196 93.404C178.34 93.164 178.592 92.84 178.808 92.66C176.732 91.856 174.896 89.996 173.972 87.956ZM168.356 90.08C168.98 90.464 169.7 91.064 170.06 91.484L170.564 90.932C170.216 90.5 169.472 89.948 168.836 89.588L168.356 90.08ZM176.384 88.028C175.904 88.556 175.052 89.288 174.44 89.732L174.992 90.164C175.616 89.744 176.444 89.096 177.068 88.508L176.384 88.028ZM177.728 89.444C177.224 89.984 176.336 90.716 175.688 91.148L176.24 91.58C176.9 91.172 177.764 90.524 178.4 89.924L177.728 89.444ZM170.732 93.776H175.592V95.36H170.732V93.776ZM169.844 93.032V96.104H176.516V93.032H169.844ZM170.54 96.296C170.864 96.824 171.164 97.556 171.284 98.024L172.136 97.76C172.016 97.292 171.704 96.584 171.368 96.068L170.54 96.296ZM175.004 96.032C174.812 96.56 174.428 97.34 174.128 97.808L174.896 98.036C175.196 97.568 175.556 96.908 175.88 96.272L175.004 96.032ZM181.934 88.652V89.564H185.33V88.652H181.934ZM184.874 88.652C184.874 90.908 185.27 96.02 190.07 98.924C190.238 98.708 190.598 98.324 190.802 98.168C186.062 95.36 185.798 90.8 185.798 88.652H184.874ZM184.538 91.004C183.806 94.4 182.306 96.824 179.642 98.216C179.882 98.384 180.29 98.756 180.458 98.948C183.11 97.388 184.694 94.856 185.558 91.196L184.538 91.004ZM196.604 88.544V89.384H201.872V88.544H196.604ZM196.196 92.756V93.62H202.796V92.756H196.196ZM199.028 91.16V97.82C199.028 98 198.968 98.06 198.764 98.072C198.548 98.084 197.876 98.084 197.12 98.06C197.24 98.3 197.396 98.696 197.444 98.936C198.404 98.948 199.028 98.924 199.424 98.78C199.796 98.636 199.928 98.372 199.928 97.832V91.16H199.028ZM201.548 88.544V88.748C201.068 89.528 200.072 90.656 199.208 91.304C199.364 91.424 199.616 91.664 199.748 91.832C200.708 91.112 201.824 89.948 202.544 88.928L201.956 88.496L201.764 88.544H201.548ZM191.756 90.404V91.244H195.704V90.404H191.756ZM193.568 87.932C193.16 90.212 192.44 93.428 191.912 95.264L192.668 95.66C193.208 93.668 193.964 90.428 194.42 88.028L193.568 87.932ZM192.356 94.88C193.7 95.66 195.248 96.884 195.968 97.784L196.508 97.052C195.788 96.164 194.204 95.012 192.86 94.256L192.356 94.88ZM195.404 90.404V90.584C195.104 94.664 193.856 97.208 191.852 98.264C192.044 98.444 192.296 98.768 192.416 98.984C194.624 97.664 195.932 95.12 196.256 90.476L195.716 90.368L195.548 90.404H195.404ZM209.426 96.596C209.654 97.04 209.858 97.664 209.918 98.072L210.662 97.844C210.602 97.46 210.398 96.86 210.134 96.404L209.426 96.596ZM212.63 96.38C212.498 96.812 212.234 97.46 212.03 97.868L212.714 98.072C212.918 97.688 213.182 97.136 213.422 96.608L212.63 96.38ZM209.57 94.772H213.218V95.732H209.57V94.772ZM208.802 94.172V96.332H214.01V94.172H208.802ZM209.162 90.812H213.59V91.664H209.162V90.812ZM209.162 89.384H213.59V90.224H209.162V89.384ZM208.406 88.76V92.288H214.382V88.76H208.406ZM208.118 92.852V93.572H214.658V92.852H208.118ZM207.902 98V98.696H214.802V98H207.902ZM210.098 87.92V89.192H210.818V87.92H210.098ZM211.874 87.92V89.192H212.594V87.92H211.874ZM210.206 89.072V92.108H210.806V89.072H210.206ZM211.874 89.072V92.108H212.474V89.072H211.874ZM203.858 91.124V91.928H207.842V91.124H203.858ZM204.158 88.712V89.516H207.566V88.712H204.158ZM207.098 92.78V97.22H207.734V92.78H207.098ZM205.526 91.472V98.96H206.294V91.472H205.526ZM204.086 92.792V94.208C204.086 95.3 204.026 96.572 203.678 97.568C203.846 97.652 204.11 97.844 204.23 97.988C204.65 96.86 204.722 95.468 204.722 94.232V92.792H204.086ZM220.904 95.108H221.684L221.924 90.452L221.96 89.024H220.628L220.664 90.452L220.904 95.108ZM221.3 98.06C221.72 98.06 222.068 97.76 222.068 97.28C222.068 96.8 221.72 96.476 221.3 96.476C220.868 96.476 220.52 96.8 220.52 97.28C220.52 97.76 220.868 98.06 221.3 98.06Z" fill="#6F7387"/>
<path d="M58.9637 194.533C59.0826 194.417 59.2245 194.325 59.3812 194.262C59.5378 194.199 59.706 194.167 59.8759 194.167C60.0458 194.167 60.214 194.199 60.3706 194.262C60.5272 194.325 60.6691 194.417 60.7881 194.533C61.2864 195.015 61.2934 195.793 60.8055 196.283L50.5023 207.934C50.3853 208.057 50.2434 208.156 50.0851 208.224C49.9269 208.293 49.7557 208.33 49.582 208.333C49.4083 208.336 49.2357 208.305 49.0749 208.243C48.914 208.18 48.7683 208.086 48.6466 207.968L42.3772 201.89C42.1354 201.655 42 201.337 42 201.007C42 200.677 42.1354 200.36 42.3772 200.124C42.4961 200.008 42.6381 199.915 42.7947 199.852C42.9513 199.789 43.1195 199.757 43.2894 199.757C43.4593 199.757 43.6275 199.789 43.7841 199.852C43.9407 199.915 44.0827 200.008 44.2016 200.124L49.5196 205.279L58.9289 194.57C58.9397 194.557 58.9513 194.545 58.9637 194.533Z" fill="#0ACF83"/>
<g filter="url(#filter0_d_53_53196)">
<rect x="25" y="144" width="50" height="40" rx="15" fill="white"/>
</g>
<path d="M57.5039 162.717L58.5098 164.47L59.5352 162.717H60.8291L59.2275 165.31L60.8926 168H59.5986L58.5244 166.174L57.4502 168H56.1514L57.8115 165.31L56.2148 162.717H57.5039ZM62.9732 163.913H63.6764C63.9498 163.913 64.176 163.866 64.3551 163.771C64.5374 163.677 64.6725 163.547 64.7604 163.381C64.8482 163.215 64.8922 163.024 64.8922 162.81C64.8922 162.585 64.8515 162.393 64.7701 162.233C64.692 162.071 64.5715 161.945 64.4088 161.857C64.2493 161.77 64.0458 161.726 63.7984 161.726C63.5901 161.726 63.4013 161.768 63.232 161.853C63.066 161.934 62.9342 162.051 62.8365 162.204C62.7389 162.354 62.69 162.533 62.69 162.741H61.5084C61.5084 162.364 61.6077 162.028 61.8063 161.735C62.0048 161.442 62.275 161.213 62.6168 161.047C62.9618 160.878 63.3492 160.793 63.7789 160.793C64.2379 160.793 64.6383 160.869 64.9801 161.022C65.3251 161.172 65.5937 161.397 65.7857 161.696C65.9778 161.996 66.0738 162.367 66.0738 162.81C66.0738 163.011 66.0266 163.216 65.9322 163.425C65.8378 163.633 65.6979 163.824 65.5123 163.996C65.3268 164.165 65.0956 164.304 64.8189 164.411C64.5423 164.515 64.2216 164.567 63.857 164.567H62.9732V163.913ZM62.9732 164.831V164.187H63.857C64.2737 164.187 64.6285 164.235 64.9215 164.333C65.2177 164.431 65.4586 164.566 65.6441 164.738C65.8297 164.908 65.9648 165.101 66.0494 165.319C66.1373 165.537 66.1813 165.769 66.1813 166.013C66.1813 166.345 66.121 166.641 66.0006 166.901C65.8834 167.159 65.7158 167.377 65.4977 167.556C65.2796 167.735 65.024 167.87 64.7311 167.961C64.4413 168.052 64.1256 168.098 63.7838 168.098C63.4778 168.098 63.1848 168.055 62.9049 167.971C62.6249 167.886 62.3743 167.761 62.1529 167.595C61.9316 167.425 61.7558 167.215 61.6256 166.965C61.4986 166.711 61.4352 166.418 61.4352 166.086H62.6119C62.6119 166.298 62.6607 166.485 62.7584 166.647C62.8593 166.807 62.9993 166.932 63.1783 167.023C63.3606 167.115 63.5689 167.16 63.8033 167.16C64.0507 167.16 64.2639 167.116 64.443 167.028C64.622 166.94 64.7587 166.81 64.8531 166.638C64.9508 166.465 64.9996 166.257 64.9996 166.013C64.9996 165.736 64.9459 165.511 64.8385 165.339C64.7311 165.166 64.5781 165.039 64.3795 164.958C64.1809 164.873 63.9465 164.831 63.6764 164.831H62.9732Z" fill="#6F7387"/>
<path d="M33 161.667C32.9999 161.003 33.1428 160.345 33.4204 159.732C33.698 159.12 34.1047 158.564 34.6168 158.099C35.1289 157.633 35.736 157.267 36.4028 157.021C37.0695 156.775 37.7825 156.655 38.5 156.668C39.349 156.663 40.1892 156.826 40.965 157.146C41.7408 157.465 42.4345 157.933 43 158.519C43.5655 157.933 44.2592 157.465 45.035 157.146C45.8108 156.826 46.651 156.663 47.5 156.668C48.2175 156.655 48.9305 156.775 49.5972 157.021C50.264 157.267 50.8711 157.633 51.3832 158.099C51.8953 158.564 52.302 159.12 52.5796 159.732C52.8572 160.345 53.0001 161.003 53 161.667C53 166.626 46.621 170.371 43 173.333C39.387 170.346 33 166.63 33 161.667Z" fill="#FF4E84"/>
<rect opacity="0.6" x="25" y="144" width="50" height="40" rx="15" fill="white"/>
<path d="M109.15 129.99V130.63H115.6V128.35H108.28V128.98H114.86V129.99H109.15ZM108.77 129.99C108.62 130.78 108.36 131.79 108.15 132.43L108.89 132.54C109.09 131.88 109.34 130.84 109.52 129.99H108.77ZM108.88 131.55L108.68 132.2H115.62V131.55H108.88ZM115.43 131.55V131.65C115.32 132.95 115.2 133.47 115.02 133.63C114.94 133.71 114.84 133.72 114.67 133.72C114.49 133.72 114.01 133.72 113.53 133.66C113.64 133.86 113.72 134.14 113.74 134.36C114.25 134.38 114.74 134.38 115 134.36C115.28 134.35 115.46 134.29 115.64 134.12C115.89 133.87 116.03 133.25 116.16 131.86C116.18 131.75 116.19 131.55 116.19 131.55H115.43ZM111.62 128.51V134.8H112.36V128.51H111.62ZM111.42 131.75C110.58 132.73 108.9 133.63 107.43 134.04C107.59 134.19 107.8 134.46 107.91 134.64C109.39 134.16 111.08 133.15 112.01 132.02L111.42 131.75ZM108.63 126.47V127.08H111.86V126.47H108.63ZM112.49 126.47V127.08H116.53V126.47H112.49ZM108.84 125.56C108.51 126.45 107.95 127.33 107.32 127.92C107.5 128.01 107.81 128.22 107.94 128.32C108.55 127.7 109.16 126.72 109.54 125.74L108.84 125.56ZM112.78 125.56C112.45 126.46 111.84 127.3 111.13 127.84C111.32 127.94 111.62 128.15 111.76 128.28C112.44 127.67 113.11 126.74 113.49 125.74L112.78 125.56ZM109.19 126.94C109.42 127.36 109.64 127.91 109.72 128.26L110.38 128C110.29 127.66 110.04 127.11 109.82 126.71L109.19 126.94ZM113.37 126.93C113.72 127.35 114.08 127.91 114.22 128.29L114.87 128.02C114.71 127.65 114.34 127.1 114 126.7L113.37 126.93ZM118.435 127.04V127.84H125.615V127.04H118.435ZM117.585 132.97V133.81H126.465V132.97H117.585ZM132.46 129.78L131.73 129.94C132.42 132.48 133.75 134.13 136.18 134.82C136.3 134.61 136.52 134.29 136.7 134.12C134.36 133.55 133.04 132.02 132.46 129.78ZM127.95 129.49V130.25H136.18V129.49H127.95ZM127.64 126.38V127.14H136.44V126.38H127.64ZM131.58 126.59V128.92C131.58 130.75 131.19 132.9 127.45 134.17C127.61 134.32 127.83 134.64 127.91 134.83C131.92 133.44 132.37 131.03 132.37 128.92V126.59H131.58Z" fill="#FF4E84"/>
<g filter="url(#filter1_d_53_53196)">
<rect x="98" y="144" width="50" height="40" rx="15" fill="white"/>
</g>
<path d="M130.504 162.717L131.51 164.47L132.535 162.717H133.829L132.228 165.31L133.893 168H132.599L131.524 166.174L130.45 168H129.151L130.812 165.31L129.215 162.717H130.504ZM135.973 163.913H136.676C136.95 163.913 137.176 163.866 137.355 163.771C137.537 163.677 137.672 163.547 137.76 163.381C137.848 163.215 137.892 163.024 137.892 162.81C137.892 162.585 137.851 162.393 137.77 162.233C137.692 162.071 137.572 161.945 137.409 161.857C137.249 161.77 137.046 161.726 136.798 161.726C136.59 161.726 136.401 161.768 136.232 161.853C136.066 161.934 135.934 162.051 135.837 162.204C135.739 162.354 135.69 162.533 135.69 162.741H134.508C134.508 162.364 134.608 162.028 134.806 161.735C135.005 161.442 135.275 161.213 135.617 161.047C135.962 160.878 136.349 160.793 136.779 160.793C137.238 160.793 137.638 160.869 137.98 161.022C138.325 161.172 138.594 161.397 138.786 161.696C138.978 161.996 139.074 162.367 139.074 162.81C139.074 163.011 139.027 163.216 138.932 163.425C138.838 163.633 138.698 163.824 138.512 163.996C138.327 164.165 138.096 164.304 137.819 164.411C137.542 164.515 137.222 164.567 136.857 164.567H135.973V163.913ZM135.973 164.831V164.187H136.857C137.274 164.187 137.629 164.235 137.921 164.333C138.218 164.431 138.459 164.566 138.644 164.738C138.83 164.908 138.965 165.101 139.049 165.319C139.137 165.537 139.181 165.769 139.181 166.013C139.181 166.345 139.121 166.641 139.001 166.901C138.883 167.159 138.716 167.377 138.498 167.556C138.28 167.735 138.024 167.87 137.731 167.961C137.441 168.052 137.126 168.098 136.784 168.098C136.478 168.098 136.185 168.055 135.905 167.971C135.625 167.886 135.374 167.761 135.153 167.595C134.932 167.425 134.756 167.215 134.626 166.965C134.499 166.711 134.435 166.418 134.435 166.086H135.612C135.612 166.298 135.661 166.485 135.758 166.647C135.859 166.807 135.999 166.932 136.178 167.023C136.361 167.115 136.569 167.16 136.803 167.16C137.051 167.16 137.264 167.116 137.443 167.028C137.622 166.94 137.759 166.81 137.853 166.638C137.951 166.465 138 166.257 138 166.013C138 165.736 137.946 165.511 137.838 165.339C137.731 165.166 137.578 165.039 137.379 164.958C137.181 164.873 136.947 164.831 136.676 164.831H135.973Z" fill="#6F7387"/>
<path d="M106 161.667C106 161.003 106.143 160.345 106.42 159.732C106.698 159.12 107.105 158.564 107.617 158.099C108.129 157.633 108.736 157.267 109.403 157.021C110.07 156.775 110.782 156.655 111.5 156.668C112.349 156.663 113.189 156.826 113.965 157.146C114.741 157.465 115.434 157.933 116 158.519C116.566 157.933 117.259 157.465 118.035 157.146C118.811 156.826 119.651 156.663 120.5 156.668C121.218 156.655 121.93 156.775 122.597 157.021C123.264 157.267 123.871 157.633 124.383 158.099C124.895 158.564 125.302 159.12 125.58 159.732C125.857 160.345 126 161.003 126 161.667C126 166.626 119.621 170.371 116 173.333C112.387 170.346 106 166.63 106 161.667Z" fill="#FF4E84"/>
<path d="M182.15 129.99V130.63H188.6V128.35H181.28V128.98H187.86V129.99H182.15ZM181.77 129.99C181.62 130.78 181.36 131.79 181.15 132.43L181.89 132.54C182.09 131.88 182.34 130.84 182.52 129.99H181.77ZM181.88 131.55L181.68 132.2H188.62V131.55H181.88ZM188.43 131.55V131.65C188.32 132.95 188.2 133.47 188.02 133.63C187.94 133.71 187.84 133.72 187.67 133.72C187.49 133.72 187.01 133.72 186.53 133.66C186.64 133.86 186.72 134.14 186.74 134.36C187.25 134.38 187.74 134.38 188 134.36C188.28 134.35 188.46 134.29 188.64 134.12C188.89 133.87 189.03 133.25 189.16 131.86C189.18 131.75 189.19 131.55 189.19 131.55H188.43ZM184.62 128.51V134.8H185.36V128.51H184.62ZM184.42 131.75C183.58 132.73 181.9 133.63 180.43 134.04C180.59 134.19 180.8 134.46 180.91 134.64C182.39 134.16 184.08 133.15 185.01 132.02L184.42 131.75ZM181.63 126.47V127.08H184.86V126.47H181.63ZM185.49 126.47V127.08H189.53V126.47H185.49ZM181.84 125.56C181.51 126.45 180.95 127.33 180.32 127.92C180.5 128.01 180.81 128.22 180.94 128.32C181.55 127.7 182.16 126.72 182.54 125.74L181.84 125.56ZM185.78 125.56C185.45 126.46 184.84 127.3 184.13 127.84C184.32 127.94 184.62 128.15 184.76 128.28C185.44 127.67 186.11 126.74 186.49 125.74L185.78 125.56ZM182.19 126.94C182.42 127.36 182.64 127.91 182.72 128.26L183.38 128C183.29 127.66 183.04 127.11 182.82 126.71L182.19 126.94ZM186.37 126.93C186.72 127.35 187.08 127.91 187.22 128.29L187.87 128.02C187.71 127.65 187.34 127.1 187 126.7L186.37 126.93ZM191.255 126.58V127.33H198.815V126.58H191.255ZM191.895 129.85V130.6H198.025V129.85H191.895ZM190.675 133.32V134.08H199.355V133.32H190.675ZM205.46 129.78L204.73 129.94C205.42 132.48 206.75 134.13 209.18 134.82C209.3 134.61 209.52 134.29 209.7 134.12C207.36 133.55 206.04 132.02 205.46 129.78ZM200.95 129.49V130.25H209.18V129.49H200.95ZM200.64 126.38V127.14H209.44V126.38H200.64ZM204.58 126.59V128.92C204.58 130.75 204.19 132.9 200.45 134.17C200.61 134.32 200.83 134.64 200.91 134.83C204.92 133.44 205.37 131.03 205.37 128.92V126.59H204.58Z" fill="#6F7387"/>
<g filter="url(#filter2_d_53_53196)">
<rect x="171" y="144" width="50" height="40" rx="15" fill="white"/>
</g>
<path d="M203.504 162.717L204.51 164.47L205.535 162.717H206.829L205.228 165.31L206.893 168H205.599L204.524 166.174L203.45 168H202.151L203.812 165.31L202.215 162.717H203.504ZM208.973 163.913H209.676C209.95 163.913 210.176 163.866 210.355 163.771C210.537 163.677 210.672 163.547 210.76 163.381C210.848 163.215 210.892 163.024 210.892 162.81C210.892 162.585 210.851 162.393 210.77 162.233C210.692 162.071 210.572 161.945 210.409 161.857C210.249 161.77 210.046 161.726 209.798 161.726C209.59 161.726 209.401 161.768 209.232 161.853C209.066 161.934 208.934 162.051 208.837 162.204C208.739 162.354 208.69 162.533 208.69 162.741H207.508C207.508 162.364 207.608 162.028 207.806 161.735C208.005 161.442 208.275 161.213 208.617 161.047C208.962 160.878 209.349 160.793 209.779 160.793C210.238 160.793 210.638 160.869 210.98 161.022C211.325 161.172 211.594 161.397 211.786 161.696C211.978 161.996 212.074 162.367 212.074 162.81C212.074 163.011 212.027 163.216 211.932 163.425C211.838 163.633 211.698 163.824 211.512 163.996C211.327 164.165 211.096 164.304 210.819 164.411C210.542 164.515 210.222 164.567 209.857 164.567H208.973V163.913ZM208.973 164.831V164.187H209.857C210.274 164.187 210.629 164.235 210.921 164.333C211.218 164.431 211.459 164.566 211.644 164.738C211.83 164.908 211.965 165.101 212.049 165.319C212.137 165.537 212.181 165.769 212.181 166.013C212.181 166.345 212.121 166.641 212.001 166.901C211.883 167.159 211.716 167.377 211.498 167.556C211.28 167.735 211.024 167.87 210.731 167.961C210.441 168.052 210.126 168.098 209.784 168.098C209.478 168.098 209.185 168.055 208.905 167.971C208.625 167.886 208.374 167.761 208.153 167.595C207.932 167.425 207.756 167.215 207.626 166.965C207.499 166.711 207.435 166.418 207.435 166.086H208.612C208.612 166.298 208.661 166.485 208.758 166.647C208.859 166.807 208.999 166.932 209.178 167.023C209.361 167.115 209.569 167.16 209.803 167.16C210.051 167.16 210.264 167.116 210.443 167.028C210.622 166.94 210.759 166.81 210.853 166.638C210.951 166.465 211 166.257 211 166.013C211 165.736 210.946 165.511 210.838 165.339C210.731 165.166 210.578 165.039 210.379 164.958C210.181 164.873 209.947 164.831 209.676 164.831H208.973Z" fill="#6F7387"/>
<path d="M179 161.667C179 161.003 179.143 160.345 179.42 159.732C179.698 159.12 180.105 158.564 180.617 158.099C181.129 157.633 181.736 157.267 182.403 157.021C183.07 156.775 183.782 156.655 184.5 156.668C185.349 156.663 186.189 156.826 186.965 157.146C187.741 157.465 188.434 157.933 189 158.519C189.566 157.933 190.259 157.465 191.035 157.146C191.811 156.826 192.651 156.663 193.5 156.668C194.218 156.655 194.93 156.775 195.597 157.021C196.264 157.267 196.871 157.633 197.383 158.099C197.895 158.564 198.302 159.12 198.58 159.732C198.857 160.345 199 161.003 199 161.667C199 166.626 192.621 170.371 189 173.333C185.387 170.346 179 166.63 179 161.667Z" fill="#FF4E84"/>
<path d="M255.15 129.99V130.63H261.6V128.35H254.28V128.98H260.86V129.99H255.15ZM254.77 129.99C254.62 130.78 254.36 131.79 254.15 132.43L254.89 132.54C255.09 131.88 255.34 130.84 255.52 129.99H254.77ZM254.88 131.55L254.68 132.2H261.62V131.55H254.88ZM261.43 131.55V131.65C261.32 132.95 261.2 133.47 261.02 133.63C260.94 133.71 260.84 133.72 260.67 133.72C260.49 133.72 260.01 133.72 259.53 133.66C259.64 133.86 259.72 134.14 259.74 134.36C260.25 134.38 260.74 134.38 261 134.36C261.28 134.35 261.46 134.29 261.64 134.12C261.89 133.87 262.03 133.25 262.16 131.86C262.18 131.75 262.19 131.55 262.19 131.55H261.43ZM257.62 128.51V134.8H258.36V128.51H257.62ZM257.42 131.75C256.58 132.73 254.9 133.63 253.43 134.04C253.59 134.19 253.8 134.46 253.91 134.64C255.39 134.16 257.08 133.15 258.01 132.02L257.42 131.75ZM254.63 126.47V127.08H257.86V126.47H254.63ZM258.49 126.47V127.08H262.53V126.47H258.49ZM254.84 125.56C254.51 126.45 253.95 127.33 253.32 127.92C253.5 128.01 253.81 128.22 253.94 128.32C254.55 127.7 255.16 126.72 255.54 125.74L254.84 125.56ZM258.78 125.56C258.45 126.46 257.84 127.3 257.13 127.84C257.32 127.94 257.62 128.15 257.76 128.28C258.44 127.67 259.11 126.74 259.49 125.74L258.78 125.56ZM255.19 126.94C255.42 127.36 255.64 127.91 255.72 128.26L256.38 128C256.29 127.66 256.04 127.11 255.82 126.71L255.19 126.94ZM259.37 126.93C259.72 127.35 260.08 127.91 260.22 128.29L260.87 128.02C260.71 127.65 260.34 127.1 260 126.7L259.37 126.93ZM263.925 126.52V134.52H264.675V127.25H271.365V134.44H272.155V126.52H263.925ZM264.325 133.08V133.81H271.795V133.08H264.325ZM268.595 127V130.12C268.595 130.73 268.665 130.9 268.845 131.03C269.015 131.16 269.285 131.21 269.515 131.21C269.645 131.21 270.045 131.21 270.195 131.21C270.395 131.21 270.655 131.18 270.805 131.12C270.975 131.04 271.085 130.93 271.145 130.75C271.215 130.57 271.245 130.1 271.265 129.69C271.075 129.63 270.825 129.5 270.685 129.38C270.675 129.82 270.665 130.15 270.625 130.3C270.605 130.44 270.545 130.51 270.475 130.54C270.415 130.57 270.275 130.58 270.145 130.58C270.005 130.58 269.775 130.58 269.675 130.58C269.565 130.58 269.475 130.56 269.405 130.53C269.345 130.5 269.325 130.39 269.325 130.19V127H268.595ZM266.555 126.98C266.485 128.98 266.275 130.48 264.825 131.29C264.995 131.41 265.215 131.66 265.305 131.84C266.915 130.89 267.195 129.23 267.295 126.98H266.555ZM278.46 129.78L277.73 129.94C278.42 132.48 279.75 134.13 282.18 134.82C282.3 134.61 282.52 134.29 282.7 134.12C280.36 133.55 279.04 132.02 278.46 129.78ZM273.95 129.49V130.25H282.18V129.49H273.95ZM273.64 126.38V127.14H282.44V126.38H273.64ZM277.58 126.59V128.92C277.58 130.75 277.19 132.9 273.45 134.17C273.61 134.32 273.83 134.64 273.91 134.83C277.92 133.44 278.37 131.03 278.37 128.92V126.59H277.58Z" fill="#6F7387"/>
<g filter="url(#filter3_d_53_53196)">
<rect x="244" y="144" width="50" height="40" rx="15" fill="white"/>
</g>
<path d="M276.504 162.717L277.51 164.47L278.535 162.717H279.829L278.228 165.31L279.893 168H278.599L277.524 166.174L276.45 168H275.151L276.812 165.31L275.215 162.717H276.504ZM281.973 163.913H282.676C282.95 163.913 283.176 163.866 283.355 163.771C283.537 163.677 283.672 163.547 283.76 163.381C283.848 163.215 283.892 163.024 283.892 162.81C283.892 162.585 283.851 162.393 283.77 162.233C283.692 162.071 283.572 161.945 283.409 161.857C283.249 161.77 283.046 161.726 282.798 161.726C282.59 161.726 282.401 161.768 282.232 161.853C282.066 161.934 281.934 162.051 281.837 162.204C281.739 162.354 281.69 162.533 281.69 162.741H280.508C280.508 162.364 280.608 162.028 280.806 161.735C281.005 161.442 281.275 161.213 281.617 161.047C281.962 160.878 282.349 160.793 282.779 160.793C283.238 160.793 283.638 160.869 283.98 161.022C284.325 161.172 284.594 161.397 284.786 161.696C284.978 161.996 285.074 162.367 285.074 162.81C285.074 163.011 285.027 163.216 284.932 163.425C284.838 163.633 284.698 163.824 284.512 163.996C284.327 164.165 284.096 164.304 283.819 164.411C283.542 164.515 283.222 164.567 282.857 164.567H281.973V163.913ZM281.973 164.831V164.187H282.857C283.274 164.187 283.629 164.235 283.921 164.333C284.218 164.431 284.459 164.566 284.644 164.738C284.83 164.908 284.965 165.101 285.049 165.319C285.137 165.537 285.181 165.769 285.181 166.013C285.181 166.345 285.121 166.641 285.001 166.901C284.883 167.159 284.716 167.377 284.498 167.556C284.28 167.735 284.024 167.87 283.731 167.961C283.441 168.052 283.126 168.098 282.784 168.098C282.478 168.098 282.185 168.055 281.905 167.971C281.625 167.886 281.374 167.761 281.153 167.595C280.932 167.425 280.756 167.215 280.626 166.965C280.499 166.711 280.435 166.418 280.435 166.086H281.612C281.612 166.298 281.661 166.485 281.758 166.647C281.859 166.807 281.999 166.932 282.178 167.023C282.361 167.115 282.569 167.16 282.803 167.16C283.051 167.16 283.264 167.116 283.443 167.028C283.622 166.94 283.759 166.81 283.853 166.638C283.951 166.465 284 166.257 284 166.013C284 165.736 283.946 165.511 283.838 165.339C283.731 165.166 283.578 165.039 283.379 164.958C283.181 164.873 282.947 164.831 282.676 164.831H281.973Z" fill="#6F7387"/>
<path d="M252 161.667C252 161.003 252.143 160.345 252.42 159.732C252.698 159.12 253.105 158.564 253.617 158.099C254.129 157.633 254.736 157.267 255.403 157.021C256.07 156.775 256.782 156.655 257.5 156.668C258.349 156.663 259.189 156.826 259.965 157.146C260.741 157.465 261.434 157.933 262 158.519C262.566 157.933 263.259 157.465 264.035 157.146C264.811 156.826 265.651 156.663 266.5 156.668C267.218 156.655 267.93 156.775 268.597 157.021C269.264 157.267 269.871 157.633 270.383 158.099C270.895 158.564 271.302 159.12 271.58 159.732C271.857 160.345 272 161.003 272 161.667C272 166.626 265.621 170.371 262 173.333C258.387 170.346 252 166.63 252 161.667Z" fill="#FF4E84"/>
<path d="M36.15 229.99V230.63H42.6V228.35H35.28V228.98H41.86V229.99H36.15ZM35.77 229.99C35.62 230.78 35.36 231.79 35.15 232.43L35.89 232.54C36.09 231.88 36.34 230.84 36.52 229.99H35.77ZM35.88 231.55L35.68 232.2H42.62V231.55H35.88ZM42.43 231.55V231.65C42.32 232.95 42.2 233.47 42.02 233.63C41.94 233.71 41.84 233.72 41.67 233.72C41.49 233.72 41.01 233.72 40.53 233.66C40.64 233.86 40.72 234.14 40.74 234.36C41.25 234.38 41.74 234.38 42 234.36C42.28 234.35 42.46 234.29 42.64 234.12C42.89 233.87 43.03 233.25 43.16 231.86C43.18 231.75 43.19 231.55 43.19 231.55H42.43ZM38.62 228.51V234.8H39.36V228.51H38.62ZM38.42 231.75C37.58 232.73 35.9 233.63 34.43 234.04C34.59 234.19 34.8 234.46 34.91 234.64C36.39 234.16 38.08 233.15 39.01 232.02L38.42 231.75ZM35.63 226.47V227.08H38.86V226.47H35.63ZM39.49 226.47V227.08H43.53V226.47H39.49ZM35.84 225.56C35.51 226.45 34.95 227.33 34.32 227.92C34.5 228.01 34.81 228.22 34.94 228.32C35.55 227.7 36.16 226.72 36.54 225.74L35.84 225.56ZM39.78 225.56C39.45 226.46 38.84 227.3 38.13 227.84C38.32 227.94 38.62 228.15 38.76 228.28C39.44 227.67 40.11 226.74 40.49 225.74L39.78 225.56ZM36.19 226.94C36.42 227.36 36.64 227.91 36.72 228.26L37.38 228C37.29 227.66 37.04 227.11 36.82 226.71L36.19 226.94ZM40.37 226.93C40.72 227.35 41.08 227.91 41.22 228.29L41.87 228.02C41.71 227.65 41.34 227.1 41 226.7L40.37 226.93ZM45.215 226.58V227.32H52.775V226.58H45.215ZM44.585 233.51V234.26H53.485V233.51H44.585ZM48.145 226.84C47.805 229.07 47.185 232.17 46.715 233.97H47.555C47.975 232.22 48.585 229.13 48.975 226.84H48.145ZM45.605 229.52V230.26H51.055V233.85H51.825V229.52H45.605ZM59.46 229.78L58.73 229.94C59.42 232.48 60.75 234.13 63.18 234.82C63.3 234.61 63.52 234.29 63.7 234.12C61.36 233.55 60.04 232.02 59.46 229.78ZM54.95 229.49V230.25H63.18V229.49H54.95ZM54.64 226.38V227.14H63.44V226.38H54.64ZM58.58 226.59V228.92C58.58 230.75 58.19 232.9 54.45 234.17C54.61 234.32 54.83 234.64 54.91 234.83C58.92 233.44 59.37 231.03 59.37 228.92V226.59H58.58Z" fill="#6F7387"/>
<g filter="url(#filter4_d_53_53196)">
<rect x="25" y="244" width="50" height="40" rx="15" fill="white"/>
</g>
<path d="M57.5039 262.717L58.5098 264.47L59.5352 262.717H60.8291L59.2275 265.31L60.8926 268H59.5986L58.5244 266.174L57.4502 268H56.1514L57.8115 265.31L56.2148 262.717H57.5039ZM62.9732 263.913H63.6764C63.9498 263.913 64.176 263.866 64.3551 263.771C64.5374 263.677 64.6725 263.547 64.7604 263.381C64.8482 263.215 64.8922 263.024 64.8922 262.81C64.8922 262.585 64.8515 262.393 64.7701 262.233C64.692 262.071 64.5715 261.945 64.4088 261.857C64.2493 261.77 64.0458 261.726 63.7984 261.726C63.5901 261.726 63.4013 261.768 63.232 261.853C63.066 261.934 62.9342 262.051 62.8365 262.204C62.7389 262.354 62.69 262.533 62.69 262.741H61.5084C61.5084 262.364 61.6077 262.028 61.8063 261.735C62.0048 261.442 62.275 261.213 62.6168 261.047C62.9618 260.878 63.3492 260.793 63.7789 260.793C64.2379 260.793 64.6383 260.869 64.9801 261.022C65.3251 261.172 65.5937 261.397 65.7857 261.696C65.9778 261.996 66.0738 262.367 66.0738 262.81C66.0738 263.011 66.0266 263.216 65.9322 263.425C65.8378 263.633 65.6979 263.824 65.5123 263.996C65.3268 264.165 65.0956 264.304 64.8189 264.411C64.5423 264.515 64.2216 264.567 63.857 264.567H62.9732V263.913ZM62.9732 264.831V264.187H63.857C64.2737 264.187 64.6285 264.235 64.9215 264.333C65.2177 264.431 65.4586 264.566 65.6441 264.738C65.8297 264.908 65.9648 265.101 66.0494 265.319C66.1373 265.537 66.1813 265.769 66.1813 266.013C66.1813 266.345 66.121 266.641 66.0006 266.901C65.8834 267.159 65.7158 267.377 65.4977 267.556C65.2796 267.735 65.024 267.87 64.7311 267.961C64.4413 268.052 64.1256 268.098 63.7838 268.098C63.4778 268.098 63.1848 268.055 62.9049 267.971C62.6249 267.886 62.3743 267.761 62.1529 267.595C61.9316 267.425 61.7558 267.215 61.6256 266.965C61.4986 266.711 61.4352 266.418 61.4352 266.086H62.6119C62.6119 266.298 62.6607 266.485 62.7584 266.647C62.8593 266.807 62.9993 266.932 63.1783 267.023C63.3606 267.115 63.5689 267.16 63.8033 267.16C64.0507 267.16 64.2639 267.116 64.443 267.028C64.622 266.94 64.7587 266.81 64.8531 266.638C64.9508 266.465 64.9996 266.257 64.9996 266.013C64.9996 265.736 64.9459 265.511 64.8385 265.339C64.7311 265.166 64.5781 265.039 64.3795 264.958C64.1809 264.873 63.9465 264.831 63.6764 264.831H62.9732Z" fill="#6F7387"/>
<path d="M33 261.667C32.9999 261.003 33.1428 260.345 33.4204 259.732C33.698 259.12 34.1047 258.564 34.6168 258.099C35.1289 257.633 35.736 257.267 36.4028 257.021C37.0695 256.775 37.7825 256.655 38.5 256.668C39.349 256.663 40.1892 256.826 40.965 257.146C41.7408 257.465 42.4345 257.933 43 258.519C43.5655 257.933 44.2592 257.465 45.035 257.146C45.8108 256.826 46.651 256.663 47.5 256.668C48.2175 256.655 48.9305 256.775 49.5972 257.021C50.264 257.267 50.8711 257.633 51.3832 258.099C51.8953 258.564 52.302 259.12 52.5796 259.732C52.8572 260.345 53.0001 261.003 53 261.667C53 266.626 46.621 270.371 43 273.333C39.387 270.346 33 266.63 33 261.667Z" fill="#FF4E84"/>
<path d="M109.15 229.99V230.63H115.6V228.35H108.28V228.98H114.86V229.99H109.15ZM108.77 229.99C108.62 230.78 108.36 231.79 108.15 232.43L108.89 232.54C109.09 231.88 109.34 230.84 109.52 229.99H108.77ZM108.88 231.55L108.68 232.2H115.62V231.55H108.88ZM115.43 231.55V231.65C115.32 232.95 115.2 233.47 115.02 233.63C114.94 233.71 114.84 233.72 114.67 233.72C114.49 233.72 114.01 233.72 113.53 233.66C113.64 233.86 113.72 234.14 113.74 234.36C114.25 234.38 114.74 234.38 115 234.36C115.28 234.35 115.46 234.29 115.64 234.12C115.89 233.87 116.03 233.25 116.16 231.86C116.18 231.75 116.19 231.55 116.19 231.55H115.43ZM111.62 228.51V234.8H112.36V228.51H111.62ZM111.42 231.75C110.58 232.73 108.9 233.63 107.43 234.04C107.59 234.19 107.8 234.46 107.91 234.64C109.39 234.16 111.08 233.15 112.01 232.02L111.42 231.75ZM108.63 226.47V227.08H111.86V226.47H108.63ZM112.49 226.47V227.08H116.53V226.47H112.49ZM108.84 225.56C108.51 226.45 107.95 227.33 107.32 227.92C107.5 228.01 107.81 228.22 107.94 228.32C108.55 227.7 109.16 226.72 109.54 225.74L108.84 225.56ZM112.78 225.56C112.45 226.46 111.84 227.3 111.13 227.84C111.32 227.94 111.62 228.15 111.76 228.28C112.44 227.67 113.11 226.74 113.49 225.74L112.78 225.56ZM109.19 226.94C109.42 227.36 109.64 227.91 109.72 228.26L110.38 228C110.29 227.66 110.04 227.11 109.82 226.71L109.19 226.94ZM113.37 226.93C113.72 227.35 114.08 227.91 114.22 228.29L114.87 228.02C114.71 227.65 114.34 227.1 114 226.7L113.37 226.93ZM117.625 227.97V228.74H126.425V227.97H117.625ZM121.585 225.65V228.36H122.395V225.65H121.585ZM119.945 230.12C119.385 231.66 118.455 233.21 117.445 234.19C117.655 234.31 118.025 234.58 118.175 234.72C119.165 233.66 120.145 232.01 120.785 230.33L119.945 230.12ZM123.205 230.44C124.165 231.78 125.205 233.59 125.615 234.7L126.435 234.34C125.995 233.2 124.905 231.44 123.955 230.13L123.205 230.44ZM132.46 229.78L131.73 229.94C132.42 232.48 133.75 234.13 136.18 234.82C136.3 234.61 136.52 234.29 136.7 234.12C134.36 233.55 133.04 232.02 132.46 229.78ZM127.95 229.49V230.25H136.18V229.49H127.95ZM127.64 226.38V227.14H136.44V226.38H127.64ZM131.58 226.59V228.92C131.58 230.75 131.19 232.9 127.45 234.17C127.61 234.32 127.83 234.64 127.91 234.83C131.92 233.44 132.37 231.03 132.37 228.92V226.59H131.58Z" fill="#6F7387"/>
<g filter="url(#filter5_d_53_53196)">
<rect x="98" y="244" width="50" height="40" rx="15" fill="white"/>
</g>
<path d="M130.504 262.717L131.51 264.47L132.535 262.717H133.829L132.228 265.31L133.893 268H132.599L131.524 266.174L130.45 268H129.151L130.812 265.31L129.215 262.717H130.504ZM135.973 263.913H136.676C136.95 263.913 137.176 263.866 137.355 263.771C137.537 263.677 137.672 263.547 137.76 263.381C137.848 263.215 137.892 263.024 137.892 262.81C137.892 262.585 137.851 262.393 137.77 262.233C137.692 262.071 137.572 261.945 137.409 261.857C137.249 261.77 137.046 261.726 136.798 261.726C136.59 261.726 136.401 261.768 136.232 261.853C136.066 261.934 135.934 262.051 135.837 262.204C135.739 262.354 135.69 262.533 135.69 262.741H134.508C134.508 262.364 134.608 262.028 134.806 261.735C135.005 261.442 135.275 261.213 135.617 261.047C135.962 260.878 136.349 260.793 136.779 260.793C137.238 260.793 137.638 260.869 137.98 261.022C138.325 261.172 138.594 261.397 138.786 261.696C138.978 261.996 139.074 262.367 139.074 262.81C139.074 263.011 139.027 263.216 138.932 263.425C138.838 263.633 138.698 263.824 138.512 263.996C138.327 264.165 138.096 264.304 137.819 264.411C137.542 264.515 137.222 264.567 136.857 264.567H135.973V263.913ZM135.973 264.831V264.187H136.857C137.274 264.187 137.629 264.235 137.921 264.333C138.218 264.431 138.459 264.566 138.644 264.738C138.83 264.908 138.965 265.101 139.049 265.319C139.137 265.537 139.181 265.769 139.181 266.013C139.181 266.345 139.121 266.641 139.001 266.901C138.883 267.159 138.716 267.377 138.498 267.556C138.28 267.735 138.024 267.87 137.731 267.961C137.441 268.052 137.126 268.098 136.784 268.098C136.478 268.098 136.185 268.055 135.905 267.971C135.625 267.886 135.374 267.761 135.153 267.595C134.932 267.425 134.756 267.215 134.626 266.965C134.499 266.711 134.435 266.418 134.435 266.086H135.612C135.612 266.298 135.661 266.485 135.758 266.647C135.859 266.807 135.999 266.932 136.178 267.023C136.361 267.115 136.569 267.16 136.803 267.16C137.051 267.16 137.264 267.116 137.443 267.028C137.622 266.94 137.759 266.81 137.853 266.638C137.951 266.465 138 266.257 138 266.013C138 265.736 137.946 265.511 137.838 265.339C137.731 265.166 137.578 265.039 137.379 264.958C137.181 264.873 136.947 264.831 136.676 264.831H135.973Z" fill="#6F7387"/>
<path d="M106 261.667C106 261.003 106.143 260.345 106.42 259.732C106.698 259.12 107.105 258.564 107.617 258.099C108.129 257.633 108.736 257.267 109.403 257.021C110.07 256.775 110.782 256.655 111.5 256.668C112.349 256.663 113.189 256.826 113.965 257.146C114.741 257.465 115.434 257.933 116 258.519C116.566 257.933 117.259 257.465 118.035 257.146C118.811 256.826 119.651 256.663 120.5 256.668C121.218 256.655 121.93 256.775 122.597 257.021C123.264 257.267 123.871 257.633 124.383 258.099C124.895 258.564 125.302 259.12 125.58 259.732C125.857 260.345 126 261.003 126 261.667C126 266.626 119.621 270.371 116 273.333C112.387 270.346 106 266.63 106 261.667Z" fill="#FF4E84"/>
<path d="M182.15 229.99V230.63H188.6V228.35H181.28V228.98H187.86V229.99H182.15ZM181.77 229.99C181.62 230.78 181.36 231.79 181.15 232.43L181.89 232.54C182.09 231.88 182.34 230.84 182.52 229.99H181.77ZM181.88 231.55L181.68 232.2H188.62V231.55H181.88ZM188.43 231.55V231.65C188.32 232.95 188.2 233.47 188.02 233.63C187.94 233.71 187.84 233.72 187.67 233.72C187.49 233.72 187.01 233.72 186.53 233.66C186.64 233.86 186.72 234.14 186.74 234.36C187.25 234.38 187.74 234.38 188 234.36C188.28 234.35 188.46 234.29 188.64 234.12C188.89 233.87 189.03 233.25 189.16 231.86C189.18 231.75 189.19 231.55 189.19 231.55H188.43ZM184.62 228.51V234.8H185.36V228.51H184.62ZM184.42 231.75C183.58 232.73 181.9 233.63 180.43 234.04C180.59 234.19 180.8 234.46 180.91 234.64C182.39 234.16 184.08 233.15 185.01 232.02L184.42 231.75ZM181.63 226.47V227.08H184.86V226.47H181.63ZM185.49 226.47V227.08H189.53V226.47H185.49ZM181.84 225.56C181.51 226.45 180.95 227.33 180.32 227.92C180.5 228.01 180.81 228.22 180.94 228.32C181.55 227.7 182.16 226.72 182.54 225.74L181.84 225.56ZM185.78 225.56C185.45 226.46 184.84 227.3 184.13 227.84C184.32 227.94 184.62 228.15 184.76 228.28C185.44 227.67 186.11 226.74 186.49 225.74L185.78 225.56ZM182.19 226.94C182.42 227.36 182.64 227.91 182.72 228.26L183.38 228C183.29 227.66 183.04 227.11 182.82 226.71L182.19 226.94ZM186.37 226.93C186.72 227.35 187.08 227.91 187.22 228.29L187.87 228.02C187.71 227.65 187.34 227.1 187 226.7L186.37 226.93ZM190.515 229.59L190.635 230.34L199.565 228.92L199.435 228.15L190.515 229.59ZM193.405 225.78V232.93C193.405 234.14 193.785 234.45 195.025 234.45C195.305 234.45 197.355 234.45 197.645 234.45C198.885 234.45 199.135 233.88 199.255 232.22C199.045 232.16 198.695 232.01 198.495 231.86C198.395 233.35 198.295 233.71 197.625 233.71C197.195 233.71 195.415 233.71 195.055 233.71C194.335 233.71 194.205 233.56 194.205 232.94V225.78H193.405ZM205.46 229.78L204.73 229.94C205.42 232.48 206.75 234.13 209.18 234.82C209.3 234.61 209.52 234.29 209.7 234.12C207.36 233.55 206.04 232.02 205.46 229.78ZM200.95 229.49V230.25H209.18V229.49H200.95ZM200.64 226.38V227.14H209.44V226.38H200.64ZM204.58 226.59V228.92C204.58 230.75 204.19 232.9 200.45 234.17C200.61 234.32 200.83 234.64 200.91 234.83C204.92 233.44 205.37 231.03 205.37 228.92V226.59H204.58Z" fill="#6F7387"/>
<g filter="url(#filter6_d_53_53196)">
<rect x="171" y="244" width="50" height="40" rx="15" fill="white"/>
</g>
<path d="M203.504 262.717L204.51 264.47L205.535 262.717H206.829L205.228 265.31L206.893 268H205.599L204.524 266.174L203.45 268H202.151L203.812 265.31L202.215 262.717H203.504ZM208.973 263.913H209.676C209.95 263.913 210.176 263.866 210.355 263.771C210.537 263.677 210.672 263.547 210.76 263.381C210.848 263.215 210.892 263.024 210.892 262.81C210.892 262.585 210.851 262.393 210.77 262.233C210.692 262.071 210.572 261.945 210.409 261.857C210.249 261.77 210.046 261.726 209.798 261.726C209.59 261.726 209.401 261.768 209.232 261.853C209.066 261.934 208.934 262.051 208.837 262.204C208.739 262.354 208.69 262.533 208.69 262.741H207.508C207.508 262.364 207.608 262.028 207.806 261.735C208.005 261.442 208.275 261.213 208.617 261.047C208.962 260.878 209.349 260.793 209.779 260.793C210.238 260.793 210.638 260.869 210.98 261.022C211.325 261.172 211.594 261.397 211.786 261.696C211.978 261.996 212.074 262.367 212.074 262.81C212.074 263.011 212.027 263.216 211.932 263.425C211.838 263.633 211.698 263.824 211.512 263.996C211.327 264.165 211.096 264.304 210.819 264.411C210.542 264.515 210.222 264.567 209.857 264.567H208.973V263.913ZM208.973 264.831V264.187H209.857C210.274 264.187 210.629 264.235 210.921 264.333C211.218 264.431 211.459 264.566 211.644 264.738C211.83 264.908 211.965 265.101 212.049 265.319C212.137 265.537 212.181 265.769 212.181 266.013C212.181 266.345 212.121 266.641 212.001 266.901C211.883 267.159 211.716 267.377 211.498 267.556C211.28 267.735 211.024 267.87 210.731 267.961C210.441 268.052 210.126 268.098 209.784 268.098C209.478 268.098 209.185 268.055 208.905 267.971C208.625 267.886 208.374 267.761 208.153 267.595C207.932 267.425 207.756 267.215 207.626 266.965C207.499 266.711 207.435 266.418 207.435 266.086H208.612C208.612 266.298 208.661 266.485 208.758 266.647C208.859 266.807 208.999 266.932 209.178 267.023C209.361 267.115 209.569 267.16 209.803 267.16C210.051 267.16 210.264 267.116 210.443 267.028C210.622 266.94 210.759 266.81 210.853 266.638C210.951 266.465 211 266.257 211 266.013C211 265.736 210.946 265.511 210.838 265.339C210.731 265.166 210.578 265.039 210.379 264.958C210.181 264.873 209.947 264.831 209.676 264.831H208.973Z" fill="#6F7387"/>
<path d="M179 261.667C179 261.003 179.143 260.345 179.42 259.732C179.698 259.12 180.105 258.564 180.617 258.099C181.129 257.633 181.736 257.267 182.403 257.021C183.07 256.775 183.782 256.655 184.5 256.668C185.349 256.663 186.189 256.826 186.965 257.146C187.741 257.465 188.434 257.933 189 258.519C189.566 257.933 190.259 257.465 191.035 257.146C191.811 256.826 192.651 256.663 193.5 256.668C194.218 256.655 194.93 256.775 195.597 257.021C196.264 257.267 196.871 257.633 197.383 258.099C197.895 258.564 198.302 259.12 198.58 259.732C198.857 260.345 199 261.003 199 261.667C199 266.626 192.621 270.371 189 273.333C185.387 270.346 179 266.63 179 261.667Z" fill="#FF4E84"/>
<defs>
<filter id="filter0_d_53_53196" x="5" y="124" width="90" height="80" filterUnits="userSpaceOnUse" color-interpolation-filters="sRGB">
<feFlood flood-opacity="0" result="BackgroundImageFix"/>
<feColorMatrix in="SourceAlpha" type="matrix" values="0 0 0 0 0 0 0 0 0 0 0 0 0 0 0 0 0 0 127 0" result="hardAlpha"/>
<feOffset/>
<feGaussianBlur stdDeviation="10"/>
<feComposite in2="hardAlpha" operator="out"/>
<feColorMatrix type="matrix" values="0 0 0 0 0 0 0 0 0 0 0 0 0 0 0 0 0 0 0.25 0"/>
<feBlend mode="normal" in2="BackgroundImageFix" result="effect1_dropShadow_53_53196"/>
<feBlend mode="normal" in="SourceGraphic" in2="effect1_dropShadow_53_53196" result="shape"/>
</filter>
<filter id="filter1_d_53_53196" x="78" y="124" width="90" height="80" filterUnits="userSpaceOnUse" color-interpolation-filters="sRGB">
<feFlood flood-opacity="0" result="BackgroundImageFix"/>
<feColorMatrix in="SourceAlpha" type="matrix" values="0 0 0 0 0 0 0 0 0 0 0 0 0 0 0 0 0 0 127 0" result="hardAlpha"/>
<feOffset/>
<feGaussianBlur stdDeviation="10"/>
<feComposite in2="hardAlpha" operator="out"/>
<feColorMatrix type="matrix" values="0 0 0 0 0 0 0 0 0 0 0 0 0 0 0 0 0 0 0.25 0"/>
<feBlend mode="normal" in2="BackgroundImageFix" result="effect1_dropShadow_53_53196"/>
<feBlend mode="normal" in="SourceGraphic" in2="effect1_dropShadow_53_53196" result="shape"/>
</filter>
<filter id="filter2_d_53_53196" x="151" y="124" width="90" height="80" filterUnits="userSpaceOnUse" color-interpolation-filters="sRGB">
<feFlood flood-opacity="0" result="BackgroundImageFix"/>
<feColorMatrix in="SourceAlpha" type="matrix" values="0 0 0 0 0 0 0 0 0 0 0 0 0 0 0 0 0 0 127 0" result="hardAlpha"/>
<feOffset/>
<feGaussianBlur stdDeviation="10"/>
<feComposite in2="hardAlpha" operator="out"/>
<feColorMatrix type="matrix" values="0 0 0 0 0 0 0 0 0 0 0 0 0 0 0 0 0 0 0.25 0"/>
<feBlend mode="normal" in2="BackgroundImageFix" result="effect1_dropShadow_53_53196"/>
<feBlend mode="normal" in="SourceGraphic" in2="effect1_dropShadow_53_53196" result="shape"/>
</filter>
<filter id="filter3_d_53_53196" x="224" y="124" width="90" height="80" filterUnits="userSpaceOnUse" color-interpolation-filters="sRGB">
<feFlood flood-opacity="0" result="BackgroundImageFix"/>
<feColorMatrix in="SourceAlpha" type="matrix" values="0 0 0 0 0 0 0 0 0 0 0 0 0 0 0 0 0 0 127 0" result="hardAlpha"/>
<feOffset/>
<feGaussianBlur stdDeviation="10"/>
<feComposite in2="hardAlpha" operator="out"/>
<feColorMatrix type="matrix" values="0 0 0 0 0 0 0 0 0 0 0 0 0 0 0 0 0 0 0.25 0"/>
<feBlend mode="normal" in2="BackgroundImageFix" result="effect1_dropShadow_53_53196"/>
<feBlend mode="normal" in="SourceGraphic" in2="effect1_dropShadow_53_53196" result="shape"/>
</filter>
<filter id="filter4_d_53_53196" x="5" y="224" width="90" height="80" filterUnits="userSpaceOnUse" color-interpolation-filters="sRGB">
<feFlood flood-opacity="0" result="BackgroundImageFix"/>
<feColorMatrix in="SourceAlpha" type="matrix" values="0 0 0 0 0 0 0 0 0 0 0 0 0 0 0 0 0 0 127 0" result="hardAlpha"/>
<feOffset/>
<feGaussianBlur stdDeviation="10"/>
<feComposite in2="hardAlpha" operator="out"/>
<feColorMatrix type="matrix" values="0 0 0 0 0 0 0 0 0 0 0 0 0 0 0 0 0 0 0.25 0"/>
<feBlend mode="normal" in2="BackgroundImageFix" result="effect1_dropShadow_53_53196"/>
<feBlend mode="normal" in="SourceGraphic" in2="effect1_dropShadow_53_53196" result="shape"/>
</filter>
<filter id="filter5_d_53_53196" x="78" y="224" width="90" height="80" filterUnits="userSpaceOnUse" color-interpolation-filters="sRGB">
<feFlood flood-opacity="0" result="BackgroundImageFix"/>
<feColorMatrix in="SourceAlpha" type="matrix" values="0 0 0 0 0 0 0 0 0 0 0 0 0 0 0 0 0 0 127 0" result="hardAlpha"/>
<feOffset/>
<feGaussianBlur stdDeviation="10"/>
<feComposite in2="hardAlpha" operator="out"/>
<feColorMatrix type="matrix" values="0 0 0 0 0 0 0 0 0 0 0 0 0 0 0 0 0 0 0.25 0"/>
<feBlend mode="normal" in2="BackgroundImageFix" result="effect1_dropShadow_53_53196"/>
<feBlend mode="normal" in="SourceGraphic" in2="effect1_dropShadow_53_53196" result="shape"/>
</filter>
<filter id="filter6_d_53_53196" x="151" y="224" width="90" height="80" filterUnits="userSpaceOnUse" color-interpolation-filters="sRGB">
<feFlood flood-opacity="0" result="BackgroundImageFix"/>
<feColorMatrix in="SourceAlpha" type="matrix" values="0 0 0 0 0 0 0 0 0 0 0 0 0 0 0 0 0 0 127 0" result="hardAlpha"/>
<feOffset/>
<feGaussianBlur stdDeviation="10"/>
<feComposite in2="hardAlpha" operator="out"/>
<feColorMatrix type="matrix" values="0 0 0 0 0 0 0 0 0 0 0 0 0 0 0 0 0 0 0.25 0"/>
<feBlend mode="normal" in2="BackgroundImageFix" result="effect1_dropShadow_53_53196"/>
<feBlend mode="normal" in="SourceGraphic" in2="effect1_dropShadow_53_53196" result="shape"/>
</filter>
<clipPath id="clip0_53_53196">
<rect x="25" y="324" width="270" height="50" rx="25" fill="white"/>
</clipPath>
</defs>
</svg>
