<svg width="320" height="170" viewBox="0 0 320 170" fill="none" xmlns="http://www.w3.org/2000/svg">
<rect width="320" height="170" rx="15" fill="white"/>
<path d="M50.7409 39.704V40.872H55.0929V39.704H50.7409ZM41.9089 30.6V31.768H48.0529V30.6H41.9089ZM50.1969 29.56V42.04H51.3649V30.712H54.4529V41.928H55.6689V29.56H50.1969ZM47.7329 30.6V30.888C47.6209 37.736 47.4769 40.104 47.1089 40.6C46.9649 40.808 46.8209 40.856 46.5809 40.84C46.2769 40.84 45.5889 40.84 44.8369 40.776C45.0449 41.112 45.1729 41.64 45.1889 41.992C45.9089 42.04 46.6449 42.04 47.0929 41.976C47.5729 41.928 47.8609 41.784 48.1489 41.368C48.6609 40.664 48.7729 38.328 48.9009 31.208C48.9009 31.048 48.9009 30.6 48.9009 30.6H47.7329ZM44.1809 27.784C44.1649 33.384 44.1809 38.664 41.5089 41.48C41.8129 41.656 42.2289 42.024 42.4369 42.296C45.2529 39.24 45.3329 33.688 45.3489 27.784H44.1809ZM61.0129 28.536V29.752H65.5409V28.536H61.0129ZM64.9329 28.536C64.9329 31.544 65.4609 38.36 71.8609 42.232C72.0849 41.944 72.5649 41.432 72.8369 41.224C66.5169 37.48 66.1649 31.4 66.1649 28.536H64.9329ZM64.4849 31.672C63.5089 36.2 61.5089 39.432 57.9569 41.288C58.2769 41.512 58.8209 42.008 59.0449 42.264C62.5809 40.184 64.6929 36.808 65.8449 31.928L64.4849 31.672ZM78.7556 38.9219L81.7478 29.625H83.9119L79.8337 41H78.3728L78.7556 38.9219ZM75.99 29.625L78.9587 38.9219L79.365 41H77.8962L73.8337 29.625H75.99ZM87.5991 29.625V41H85.6381V29.625H87.5991ZM94.6769 36.7578H91.7159V35.2031H94.6769C95.1925 35.2031 95.6092 35.1198 95.9269 34.9531C96.2446 34.7865 96.4764 34.5573 96.6222 34.2656C96.7732 33.9688 96.8487 33.6302 96.8487 33.25C96.8487 32.8906 96.7732 32.5547 96.6222 32.2422C96.4764 31.9245 96.2446 31.6693 95.9269 31.4766C95.6092 31.2839 95.1925 31.1875 94.6769 31.1875H92.3175V41H90.3566V29.625H94.6769C95.5571 29.625 96.3045 29.7812 96.9191 30.0938C97.5389 30.401 98.0102 30.8281 98.3331 31.375C98.656 31.9167 98.8175 32.5365 98.8175 33.2344C98.8175 33.9688 98.656 34.599 98.3331 35.125C98.0102 35.651 97.5389 36.0547 96.9191 36.3359C96.3045 36.6172 95.5571 36.7578 94.6769 36.7578ZM103.371 33.032H112.155V35.448H103.371V33.032ZM102.347 32.216V36.264H113.243V32.216H102.347ZM104.971 30.488V31.336H110.555V30.488H104.971ZM107.163 32.472V35.816H108.187V32.472H107.163ZM107.659 28.536C109.291 30.104 112.171 31.688 114.523 32.504C114.699 32.2 114.971 31.768 115.227 31.512C112.747 30.776 109.963 29.304 108.155 27.56H107.019C105.691 29.112 102.987 30.744 100.267 31.672C100.491 31.928 100.763 32.344 100.907 32.616C103.563 31.624 106.235 29.992 107.659 28.536ZM104.347 33.512C104.747 34.088 105.115 34.872 105.243 35.384L106.171 35.048C106.011 34.536 105.627 33.784 105.211 33.224L104.347 33.512ZM110.107 33.16C109.915 33.704 109.499 34.552 109.195 35.096L110.043 35.384C110.363 34.904 110.763 34.168 111.131 33.48L110.107 33.16ZM103.291 37.032V42.28H104.475V37.88H111.115V42.264H112.331V37.032H103.291ZM103.995 38.952V39.832H111.643V38.952H103.995ZM103.995 40.92V41.784H111.643V40.92H103.995ZM120.283 29.16H127.883V30.808H120.283V29.16ZM119.083 28.184V31.8H129.147V28.184H119.083ZM119.595 35.592H128.555V36.728H119.595V35.592ZM119.595 37.576H128.555V38.728H119.595V37.576ZM119.595 33.624H128.555V34.744H119.595V33.624ZM118.395 32.728V39.608H129.787V32.728H118.395ZM121.451 39.592C120.443 40.248 118.347 41.016 116.667 41.416C116.955 41.656 117.355 42.04 117.563 42.296C119.211 41.88 121.291 41.112 122.571 40.328L121.451 39.592ZM125.355 40.424C127.051 40.92 129.227 41.752 130.411 42.312L131.451 41.448C130.203 40.92 128.059 40.136 126.395 39.64L125.355 40.424ZM134.699 31.576V32.664H139.403V31.576H134.699ZM134.123 28.424V40.616L135.259 40.376V28.424H134.123ZM133.003 40.248L133.403 41.464C134.987 41 137.179 40.344 139.211 39.72L139.067 38.584C136.811 39.224 134.475 39.88 133.003 40.248ZM137.051 36.984C138.091 38.376 139.211 40.264 139.627 41.48L140.683 40.92C140.235 39.72 139.099 37.88 138.011 36.504L137.051 36.984ZM134.667 28.424V29.544H138.955V34.632H134.667V35.752H140.075V28.424H134.667ZM145.883 28.44V38.184C145.883 38.408 145.819 38.488 145.595 38.488C145.339 38.488 144.571 38.504 143.707 38.472C143.915 38.824 144.107 39.416 144.139 39.784C145.259 39.784 146.027 39.768 146.491 39.528C146.987 39.304 147.115 38.888 147.115 38.2V28.44H145.883ZM141.291 28.44V42.296H142.507V29.64H146.555V28.44H141.291ZM160.635 29.064V40.536C160.635 40.872 160.523 40.984 160.171 41C159.787 41.016 158.491 41.032 157.195 40.968C157.387 41.32 157.627 41.912 157.707 42.264C159.291 42.264 160.411 42.248 161.051 42.04C161.675 41.848 161.883 41.432 161.883 40.568V29.064H160.635ZM151.227 32.264V39.512H152.395V32.264H151.227ZM151.723 32.264V33.4H156.587V37.08H151.723V38.232H157.787V32.264H151.723ZM149.579 28.696V29.912H163.851V28.696H149.579ZM175.323 34.072C173.851 38.12 170.491 40.2 165.643 41.208C165.899 41.496 166.283 42.04 166.411 42.344C171.323 41.112 174.843 38.888 176.603 34.424L175.323 34.072ZM170.107 31.32C169.131 32.68 167.435 34.008 165.867 34.84C166.171 35.064 166.635 35.544 166.843 35.8C168.395 34.824 170.187 33.32 171.323 31.784L170.107 31.32ZM170.747 34.152L169.611 34.504C171.323 38.76 174.539 41.32 179.643 42.296C179.819 41.96 180.171 41.416 180.443 41.144C175.483 40.328 172.235 37.944 170.747 34.152ZM165.995 29.656V30.824H180.043V29.656H165.995ZM172.363 27.544V30.408H173.595V27.544H172.363ZM174.891 31.992C176.427 33.032 178.283 34.584 179.147 35.64L180.187 34.808C179.275 33.752 177.387 32.264 175.883 31.256L174.891 31.992ZM189.595 27.56C189.115 28.904 188.075 30.52 186.459 31.688C186.715 31.832 187.083 32.168 187.275 32.424C189.035 31.08 190.091 29.352 190.747 27.736L189.595 27.56ZM189.659 28.792L189.067 29.768H193.099V28.792H189.659ZM190.203 31.976C190.139 33.416 189.819 34.248 188.587 34.744C188.779 34.888 189.051 35.208 189.163 35.432C190.619 34.792 191.019 33.72 191.131 31.976H190.203ZM192.203 32.008V33.848C192.203 34.76 192.427 34.968 193.387 34.968C193.563 34.968 194.523 34.968 194.715 34.968C195.307 34.968 195.595 34.792 195.691 34.328C195.419 34.28 195.051 34.168 194.859 34.024C194.843 34.104 194.779 34.136 194.555 34.136C194.363 34.136 193.643 34.136 193.499 34.136C193.163 34.136 193.131 34.104 193.131 33.848V32.008H192.203ZM186.683 37.208V38.248H196.539V37.208H186.683ZM192.219 37.56L191.163 37.704C191.899 40.12 193.435 41.608 196.059 42.248C196.219 41.944 196.507 41.48 196.779 41.24C194.363 40.776 192.859 39.528 192.219 37.56ZM188.619 31.352H187.579V36.632H188.619V32.328H195.195V31.352H188.619ZM194.875 31.352V36.568H195.931V31.352H194.875ZM192.699 28.792V29.016C192.443 29.752 191.883 30.888 191.403 31.56C191.643 31.688 192.011 31.896 192.219 32.056C192.763 31.336 193.467 30.2 193.883 29.24L193.131 28.744L192.939 28.792H192.699ZM191.083 35.768C190.843 38.84 190.123 40.584 186.123 41.4C186.347 41.624 186.635 42.04 186.731 42.328C191.019 41.336 191.915 39.304 192.203 35.768H191.083ZM181.771 35.864L182.091 37.032C183.451 36.6 185.211 36.024 186.875 35.448L186.715 34.344C184.891 34.936 183.019 35.512 181.771 35.864ZM181.995 30.792V31.912H186.859V30.792H181.995ZM184.011 27.576V40.888C184.011 41.128 183.915 41.176 183.723 41.176C183.531 41.192 182.923 41.192 182.219 41.176C182.379 41.512 182.523 42.008 182.571 42.296C183.579 42.296 184.203 42.264 184.571 42.072C184.971 41.88 185.131 41.56 185.131 40.888V27.576H184.011ZM198.395 28.248V29.336H204.043V28.248H198.395ZM199.867 31.608V32.616H202.763V31.608H199.867ZM204.619 38.392V39.256H207.019V38.392H204.619ZM209.515 38.392V39.256H212.043V38.392H209.515ZM199.867 34.904V35.928H202.763V34.904H199.867ZM199.243 28.792V39.032H200.267V28.792H199.243ZM202.107 28.792V42.28H203.147V28.792H202.107ZM208.939 35.192V42.28H209.947V35.192H208.939ZM204.251 35.8V39.992H205.179V35.8H204.251ZM211.483 35.8V39.944H212.443V35.8H211.483ZM198.219 38.84L198.427 39.976C199.675 39.72 201.211 39.384 202.715 39.064L202.635 38.008C200.987 38.344 199.355 38.664 198.219 38.84ZM206.635 35.224V37.768C206.635 39.176 206.395 40.536 204.427 41.528C204.635 41.704 204.939 42.088 205.067 42.328C207.323 41.208 207.627 39.56 207.627 37.784V35.224H206.635ZM203.707 33.96L203.835 34.84C204.939 34.76 206.299 34.632 207.691 34.504V33.672C206.171 33.784 204.747 33.896 203.707 33.96ZM203.931 30.312C204.683 30.92 205.483 31.816 205.835 32.44L206.411 31.672C206.075 31.048 205.243 30.216 204.507 29.624L203.931 30.312ZM206.635 32.728C207.083 33.48 207.499 34.456 207.595 35.096L208.411 34.792C208.283 34.152 207.867 33.192 207.387 32.488L206.635 32.728ZM205.947 27.576C205.643 28.408 205.083 29.656 204.635 30.408L205.323 30.696C205.819 29.992 206.443 28.856 206.955 27.912L205.947 27.576ZM207.067 29.512C206.443 30.92 205.355 32.92 204.459 34.12L205.147 34.408C206.043 33.256 207.179 31.352 207.995 29.848L207.067 29.512ZM208.411 33.912L208.571 34.808C209.675 34.712 211.019 34.584 212.395 34.456L212.379 33.624C210.875 33.736 209.451 33.848 208.411 33.912ZM208.347 30.28C209.131 30.904 209.979 31.816 210.347 32.472L210.939 31.672C210.571 31.032 209.707 30.168 208.907 29.56L208.347 30.28ZM211.195 32.712C211.691 33.512 212.155 34.552 212.283 35.224L213.115 34.904C212.971 34.232 212.491 33.208 211.963 32.44L211.195 32.712ZM210.427 27.576C210.123 28.424 209.547 29.656 209.083 30.408L209.819 30.712C210.315 30.008 210.939 28.872 211.451 27.912L210.427 27.576ZM211.595 29.48C210.971 30.872 209.883 32.888 208.987 34.072L209.675 34.392C210.603 33.24 211.739 31.336 212.571 29.832L211.595 29.48ZM221.531 36.392V42.312H222.667V37.448H227.163V42.28H228.331V36.392H221.531ZM222.219 40.456V41.528H227.563V40.456H222.219ZM223.451 27.576C222.827 29.08 221.611 30.952 219.851 32.344C220.091 32.488 220.475 32.872 220.667 33.112C222.555 31.544 223.819 29.544 224.635 27.768L223.451 27.576ZM223.163 29.128L222.635 30.184H227.563V29.128H223.163ZM227.195 29.128V29.352C226.075 32.472 223.227 34.76 220.203 35.896C220.443 36.104 220.811 36.568 220.955 36.856C224.043 35.576 227.019 33.112 228.379 29.496L227.659 29.08L227.451 29.128H227.195ZM222.971 30.248L221.979 30.648C223.483 33.24 226.139 35.496 228.907 36.584C229.083 36.296 229.419 35.848 229.691 35.608C226.971 34.68 224.299 32.568 222.971 30.248ZM217.099 27.576C216.683 28.632 215.947 30.168 215.339 31.08L216.171 31.464C216.795 30.584 217.547 29.16 218.155 27.992L217.099 27.576ZM218.891 29.4C218.043 31.128 216.539 33.56 215.355 35L216.091 35.416C217.275 34.008 218.811 31.688 219.899 29.848L218.891 29.4ZM214.571 30.936C215.435 31.704 216.443 32.824 216.875 33.576L217.515 32.664C217.083 31.944 216.075 30.904 215.179 30.152L214.571 30.936ZM218.331 33.112C218.955 34.168 219.563 35.544 219.755 36.424L220.667 36.024C220.443 35.16 219.819 33.8 219.163 32.776L218.331 33.112ZM214.523 34.744L214.619 35.832C216.075 35.736 218.011 35.624 219.931 35.496L219.947 34.504C217.915 34.616 215.915 34.696 214.523 34.744ZM218.747 36.888C219.147 37.816 219.579 39.048 219.723 39.848L220.651 39.528C220.491 38.728 220.059 37.512 219.611 36.616L218.747 36.888ZM215.419 36.712C215.227 38.12 214.907 39.544 214.379 40.52C214.635 40.632 215.115 40.856 215.323 40.984C215.835 39.96 216.235 38.408 216.459 36.904L215.419 36.712ZM217.147 35.192V42.328H218.219V35.192H217.147ZM231.835 28.744C232.955 29.096 234.443 29.672 235.195 30.088L235.723 29.16C234.955 28.76 233.467 28.216 232.363 27.928L231.835 28.744ZM231.035 32.12L231.499 33.176C232.715 32.808 234.219 32.312 235.675 31.848L235.547 30.904C233.883 31.368 232.187 31.848 231.035 32.12ZM237.899 28.744L237.195 29.656H244.331V28.744H237.899ZM244.011 28.744V28.92C243.691 29.592 243.147 30.392 242.635 30.888L243.595 31.224C244.171 30.664 244.763 29.768 245.211 28.936L244.411 28.696L244.203 28.744H244.011ZM239.883 29.064C239.611 30.888 238.747 31.88 235.787 32.376C235.995 32.584 236.251 32.984 236.363 33.24C239.627 32.584 240.651 31.336 240.987 29.064H239.883ZM240.939 29.352L239.963 29.448C240.379 31.128 241.179 32.856 244.971 33.512C245.099 33.208 245.371 32.776 245.595 32.536C242.043 32.024 241.259 30.712 240.939 29.352ZM238.155 27.56C237.739 28.52 236.923 29.624 235.723 30.44C236.011 30.568 236.427 30.824 236.635 31.048C237.883 30.088 238.699 28.904 239.243 27.736L238.155 27.56ZM234.347 35.928H242.411V37.016H234.347V35.928ZM234.347 37.8H242.411V38.92H234.347V37.8ZM234.347 34.056H242.411V35.144H234.347V34.056ZM233.179 33.256V39.72H243.611V33.256H233.179ZM239.627 40.536C241.371 41.112 243.115 41.8 244.123 42.328L245.451 41.72C244.299 41.176 242.363 40.472 240.603 39.928L239.627 40.536ZM235.867 39.896C234.715 40.52 232.795 41.08 231.147 41.432C231.419 41.64 231.835 42.104 232.027 42.344C233.627 41.896 235.659 41.16 236.955 40.392L235.867 39.896ZM249.947 27.624V42.264H251.067V27.624H249.947ZM247.371 32.936V34.072H253.691V32.936H247.371ZM249.771 33.528C249.259 35.4 248.139 37.832 247.115 39.064C247.307 39.384 247.595 39.896 247.723 40.248C248.795 38.792 249.931 36.024 250.491 33.848L249.771 33.528ZM251.035 34.28L250.443 34.776C250.971 35.464 252.283 37.56 252.683 38.424L253.483 37.464C253.115 36.936 251.483 34.76 251.035 34.28ZM247.483 28.808C247.899 29.928 248.267 31.416 248.347 32.376L249.291 32.12C249.179 31.16 248.811 29.704 248.363 28.584L247.483 28.808ZM252.651 28.52C252.427 29.608 251.947 31.208 251.595 32.168L252.363 32.408C252.795 31.512 253.291 30.008 253.707 28.792L252.651 28.52ZM258.859 27.576V42.28H259.995V27.576H258.859ZM253.659 37.752L253.851 38.872L262.075 37.384L261.883 36.28L253.659 37.752ZM254.859 29.528C255.787 30.104 256.891 30.968 257.403 31.592L258.043 30.664C257.515 30.072 256.411 29.256 255.483 28.712L254.859 29.528ZM254.043 33.56C255.003 34.088 256.155 34.904 256.715 35.48L257.323 34.536C256.747 33.96 255.563 33.208 254.603 32.712L254.043 33.56ZM270.411 37.144H271.451L271.771 30.936L271.819 29.032H270.043L270.091 30.936L270.411 37.144ZM270.939 41.08C271.499 41.08 271.963 40.68 271.963 40.04C271.963 39.4 271.499 38.968 270.939 38.968C270.363 38.968 269.899 39.4 269.899 40.04C269.899 40.68 270.363 41.08 270.939 41.08Z" fill="#383A44"/>
<g clip-path="url(#clip0_39_6186)">
<rect x="25" y="70" width="270" height="40" rx="20" fill="#FF4E84"/>
<path d="M151.198 89.592L151.198 90.636L158.236 90.636L158.236 89.592L151.198 89.592ZM151.198 92.544L151.198 93.606L158.236 93.606L158.236 92.544L151.198 92.544ZM151.216 95.514L151.216 96.666L159.082 96.666L159.082 95.514L151.216 95.514ZM149.164 82.734L149.164 85.812L150.334 85.812L150.334 83.904L157.786 83.904L157.786 85.812L158.992 85.812L158.992 82.734L149.164 82.734ZM154.132 87.45L154.132 96.126L155.392 96.126L155.392 87.45L154.132 87.45ZM151.684 86.586L151.576 86.586L150.406 87.81L150.406 97.44L151.684 97.44L151.684 87.756L158.542 87.756L158.542 86.586L151.684 86.586ZM153.376 80.88C152.494 84.192 150.838 86.982 148.462 88.71C148.75 88.944 149.236 89.448 149.434 89.7C151.864 87.774 153.646 84.786 154.672 81.132L153.376 80.88ZM155.248 84.444C155.032 85.236 154.564 86.37 154.186 87.09L155.23 87.396C155.608 86.712 156.094 85.704 156.526 84.768L155.248 84.444ZM142.756 82.104L142.756 83.346L149.11 83.346L149.11 82.104L142.756 82.104ZM144.574 87.36L144.574 88.566L147.454 88.566L147.454 94.056L144.574 94.056L144.574 95.244L148.642 95.244L148.642 87.36L144.574 87.36ZM144.88 82.698C144.448 86.082 143.674 89.268 142.234 91.302C142.486 91.608 142.864 92.274 143.008 92.58C144.682 90.222 145.618 86.676 146.176 82.896L144.88 82.698ZM144.016 87.36L144.016 96.648L145.15 96.648L145.15 87.36L144.016 87.36ZM163.978 86.388L163.978 87.684L174.472 87.684L174.472 86.388L163.978 86.388ZM169.162 90.69L169.162 91.968L175.228 91.968L175.228 90.69L169.162 90.69ZM168.442 87.054L168.442 95.982L169.846 96.162L169.846 87.054L168.442 87.054ZM164.176 89.232C163.78 92.49 162.808 95.064 160.792 96.63C161.116 96.828 161.692 97.296 161.908 97.53C163.942 95.766 165.076 93.012 165.58 89.376L164.176 89.232ZM165.022 91.554L163.924 91.968C165.472 96.36 168.406 97.206 172.69 97.206L176.92 97.206C176.974 96.81 177.208 96.162 177.424 95.838C176.542 95.856 173.428 95.856 172.762 95.856C169.108 95.856 166.3 95.226 165.022 91.554ZM168.424 80.898L168.424 83.814L169.846 83.814L169.846 80.898L168.424 80.898ZM161.656 82.95L161.656 86.874L162.988 86.874L162.988 84.246L175.318 84.246L175.318 86.874L176.704 86.874L176.704 82.95L161.656 82.95Z" fill="white"/>
</g>
<g clip-path="url(#clip1_39_6186)">
<rect x="25" y="120" width="270" height="40" rx="20" fill="white"/>
<path d="M150.518 133.364L150.518 134.678L157.16 134.678L157.16 133.364L150.518 133.364ZM142.166 132.014L142.166 133.274L150.968 133.274L150.968 132.014L142.166 132.014ZM144.272 135.668L144.272 136.91L148.952 136.91L148.952 135.668L144.272 135.668ZM144.272 139.412L144.272 140.636L148.952 140.636L148.952 139.412L144.272 139.412ZM156.764 133.364L156.764 133.688C155.99 140.006 153.308 144.236 149.744 146.09C150.05 146.342 150.428 146.846 150.644 147.188C154.496 144.956 157.25 140.726 158.114 133.562L157.25 133.328L156.998 133.364L156.764 133.364ZM152.156 134.75L150.86 135.002C151.976 140.654 154.046 145.046 157.952 147.26C158.168 146.9 158.6 146.396 158.906 146.126C155.198 144.218 153.11 139.952 152.156 134.75ZM143.57 132.5L143.57 144.182L144.866 144.182L144.866 132.5L143.57 132.5ZM148.394 132.5L148.394 147.404L149.69 147.404L149.69 132.5L148.394 132.5ZM141.806 143.786L142.058 145.136C143.93 144.848 146.522 144.434 148.988 144.038L148.916 142.796C146.288 143.192 143.57 143.57 141.806 143.786ZM167.366 139.214L167.366 140.402L175.07 140.402L175.07 139.214L167.366 139.214ZM167.33 142.346L167.33 143.516L175.07 143.516L175.07 142.346L167.33 142.346ZM175.196 131.384C174.764 132.446 173.936 133.904 173.306 134.822L174.44 135.308C175.088 134.408 175.862 133.094 176.51 131.906L175.196 131.384ZM165.998 131.996C166.754 133.058 167.528 134.462 167.816 135.398L169.022 134.804C168.716 133.886 167.906 132.5 167.132 131.492L165.998 131.996ZM166.502 136.028L166.502 147.44L167.834 147.44L167.834 137.288L175.142 137.288L175.142 136.028L166.502 136.028ZM174.476 136.028L174.476 145.748C174.476 145.982 174.386 146.072 174.098 146.09C173.828 146.09 172.874 146.09 171.83 146.054C172.01 146.432 172.208 146.99 172.28 147.35C173.648 147.35 174.548 147.35 175.088 147.134C175.628 146.9 175.79 146.504 175.79 145.748L175.79 136.028L174.476 136.028ZM170.534 130.88L170.534 136.82L171.884 136.82L171.884 130.88L170.534 130.88ZM161.21 132.014C162.326 132.608 163.676 133.544 164.306 134.21L165.134 133.166C164.468 132.5 163.118 131.636 162.002 131.078L161.21 132.014ZM160.364 136.82C161.498 137.414 162.866 138.332 163.55 138.98L164.36 137.918C163.658 137.27 162.254 136.406 161.138 135.866L160.364 136.82ZM160.922 146.396L162.092 147.26C163.046 145.55 164.162 143.282 164.99 141.356L163.982 140.546C163.046 142.616 161.804 144.992 160.922 146.396Z" fill="#A8ABBD"/>
</g>
<rect x="26" y="121" width="268" height="38" rx="19" stroke="#A8ABBD" stroke-width="2"/>
<defs>
<clipPath id="clip0_39_6186">
<rect x="25" y="70" width="270" height="40" rx="20" fill="white"/>
</clipPath>
<clipPath id="clip1_39_6186">
<rect x="25" y="120" width="270" height="40" rx="20" fill="white"/>
</clipPath>
</defs>
</svg>
