<svg width="320" height="320" viewBox="0 0 320 320" fill="none" xmlns="http://www.w3.org/2000/svg">
<rect width="320" height="320" rx="15" fill="white"/>
<path d="M166.703 154.207L169.15 158.705L171.666 154.207H175.863L171.68 161.439L176.055 169H171.844L169.178 164.242L166.512 169H162.301L166.676 161.439L162.492 154.207H166.703ZM182.206 157.338H184.312C184.986 157.338 185.542 157.224 185.98 156.996C186.417 156.759 186.741 156.431 186.951 156.012C187.169 155.583 187.279 155.087 187.279 154.521C187.279 154.011 187.178 153.56 186.978 153.168C186.787 152.767 186.49 152.457 186.089 152.238C185.688 152.01 185.182 151.896 184.572 151.896C184.089 151.896 183.642 151.992 183.232 152.184C182.822 152.375 182.494 152.644 182.248 152.99C182.001 153.337 181.878 153.756 181.878 154.248H177.927C177.927 153.154 178.219 152.202 178.802 151.391C179.395 150.579 180.188 149.946 181.181 149.49C182.175 149.035 183.268 148.807 184.462 148.807C185.811 148.807 186.992 149.025 188.003 149.463C189.015 149.891 189.803 150.525 190.369 151.363C190.934 152.202 191.216 153.241 191.216 154.48C191.216 155.109 191.07 155.72 190.779 156.312C190.487 156.896 190.068 157.424 189.521 157.898C188.983 158.363 188.327 158.737 187.552 159.02C186.777 159.293 185.907 159.43 184.941 159.43H182.206V157.338ZM182.206 160.332V158.295H184.941C186.025 158.295 186.978 158.418 187.798 158.664C188.619 158.91 189.307 159.266 189.863 159.73C190.419 160.186 190.838 160.729 191.121 161.357C191.403 161.977 191.544 162.665 191.544 163.422C191.544 164.352 191.367 165.181 191.011 165.91C190.656 166.63 190.154 167.241 189.507 167.742C188.869 168.243 188.122 168.626 187.265 168.891C186.408 169.146 185.474 169.273 184.462 169.273C183.624 169.273 182.799 169.16 181.988 168.932C181.186 168.695 180.456 168.344 179.8 167.879C179.153 167.405 178.634 166.812 178.242 166.102C177.859 165.382 177.667 164.529 177.667 163.545H181.619C181.619 164.055 181.746 164.511 182.001 164.912C182.257 165.313 182.608 165.628 183.054 165.855C183.51 166.083 184.016 166.197 184.572 166.197C185.201 166.197 185.738 166.083 186.185 165.855C186.641 165.618 186.987 165.29 187.224 164.871C187.47 164.443 187.593 163.946 187.593 163.381C187.593 162.652 187.461 162.068 187.197 161.631C186.932 161.184 186.554 160.856 186.062 160.646C185.57 160.437 184.986 160.332 184.312 160.332H182.206ZM208.21 157.297V160.742C208.21 162.237 208.05 163.527 207.731 164.611C207.412 165.687 206.952 166.571 206.35 167.264C205.758 167.947 205.052 168.453 204.231 168.781C203.411 169.109 202.5 169.273 201.497 169.273C200.695 169.273 199.947 169.173 199.255 168.973C198.562 168.763 197.938 168.439 197.382 168.002C196.835 167.564 196.361 167.013 195.96 166.348C195.568 165.673 195.267 164.871 195.058 163.941C194.848 163.012 194.743 161.945 194.743 160.742V157.297C194.743 155.802 194.903 154.521 195.222 153.455C195.55 152.38 196.01 151.5 196.602 150.816C197.204 150.133 197.915 149.632 198.735 149.312C199.556 148.984 200.467 148.82 201.47 148.82C202.272 148.82 203.015 148.925 203.698 149.135C204.391 149.335 205.015 149.65 205.571 150.078C206.127 150.507 206.601 151.058 206.993 151.732C207.385 152.398 207.686 153.195 207.895 154.125C208.105 155.046 208.21 156.103 208.21 157.297ZM204.259 161.262V156.764C204.259 156.044 204.218 155.415 204.136 154.877C204.063 154.339 203.949 153.883 203.794 153.51C203.639 153.127 203.447 152.817 203.22 152.58C202.992 152.343 202.732 152.17 202.44 152.061C202.149 151.951 201.825 151.896 201.47 151.896C201.023 151.896 200.627 151.983 200.28 152.156C199.943 152.329 199.656 152.607 199.419 152.99C199.182 153.364 199 153.865 198.872 154.494C198.753 155.114 198.694 155.87 198.694 156.764V161.262C198.694 161.982 198.731 162.615 198.804 163.162C198.886 163.709 199.004 164.178 199.159 164.57C199.323 164.953 199.515 165.268 199.733 165.514C199.961 165.751 200.221 165.924 200.513 166.033C200.813 166.143 201.141 166.197 201.497 166.197C201.934 166.197 202.322 166.111 202.659 165.938C203.005 165.755 203.297 165.473 203.534 165.09C203.78 164.698 203.962 164.188 204.081 163.559C204.199 162.93 204.259 162.164 204.259 161.262Z" fill="#6F7387"/>
<path d="M103 152.335C103 151.006 103.286 149.69 103.841 148.465C104.396 147.239 105.209 146.129 106.234 145.198C107.258 144.267 108.472 143.534 109.806 143.042C111.139 142.551 112.565 142.31 114 142.335C115.698 142.327 117.378 142.653 118.93 143.291C120.482 143.93 121.869 144.866 123 146.039C124.131 144.866 125.518 143.93 127.07 143.291C128.622 142.653 130.302 142.327 132 142.335C133.435 142.31 134.861 142.551 136.194 143.042C137.528 143.534 138.742 144.267 139.766 145.198C140.791 146.129 141.604 147.239 142.159 148.465C142.714 149.69 143 151.006 143 152.335C143 162.253 130.242 169.741 123 175.667C115.774 169.691 103 162.26 103 152.335Z" fill="#FF4E84"/>
<g clip-path="url(#clip0_53_53194)">
<rect x="25" y="236" width="270" height="50" rx="25" fill="#FF4E84"/>
<path d="M151.198 260.592L151.198 261.636L158.236 261.636L158.236 260.592L151.198 260.592ZM151.198 263.544L151.198 264.606L158.236 264.606L158.236 263.544L151.198 263.544ZM151.216 266.514L151.216 267.666L159.082 267.666L159.082 266.514L151.216 266.514ZM149.164 253.734L149.164 256.812L150.334 256.812L150.334 254.904L157.786 254.904L157.786 256.812L158.992 256.812L158.992 253.734L149.164 253.734ZM154.132 258.45L154.132 267.126L155.392 267.126L155.392 258.45L154.132 258.45ZM151.684 257.586L151.576 257.586L150.406 258.81L150.406 268.44L151.684 268.44L151.684 258.756L158.542 258.756L158.542 257.586L151.684 257.586ZM153.376 251.88C152.494 255.192 150.838 257.982 148.462 259.71C148.75 259.944 149.236 260.448 149.434 260.7C151.864 258.774 153.646 255.786 154.672 252.132L153.376 251.88ZM155.248 255.444C155.032 256.236 154.564 257.37 154.186 258.09L155.23 258.396C155.608 257.712 156.094 256.704 156.526 255.768L155.248 255.444ZM142.756 253.104L142.756 254.346L149.11 254.346L149.11 253.104L142.756 253.104ZM144.574 258.36L144.574 259.566L147.454 259.566L147.454 265.056L144.574 265.056L144.574 266.244L148.642 266.244L148.642 258.36L144.574 258.36ZM144.88 253.698C144.448 257.082 143.674 260.268 142.234 262.302C142.486 262.608 142.864 263.274 143.008 263.58C144.682 261.222 145.618 257.676 146.176 253.896L144.88 253.698ZM144.016 258.36L144.016 267.648L145.15 267.648L145.15 258.36L144.016 258.36ZM163.978 257.388L163.978 258.684L174.472 258.684L174.472 257.388L163.978 257.388ZM169.162 261.69L169.162 262.968L175.228 262.968L175.228 261.69L169.162 261.69ZM168.442 258.054L168.442 266.982L169.846 267.162L169.846 258.054L168.442 258.054ZM164.176 260.232C163.78 263.49 162.808 266.064 160.792 267.63C161.116 267.828 161.692 268.296 161.908 268.53C163.942 266.766 165.076 264.012 165.58 260.376L164.176 260.232ZM165.022 262.554L163.924 262.968C165.472 267.36 168.406 268.206 172.69 268.206L176.92 268.206C176.974 267.81 177.208 267.162 177.424 266.838C176.542 266.856 173.428 266.856 172.762 266.856C169.108 266.856 166.3 266.226 165.022 262.554ZM168.424 251.898L168.424 254.814L169.846 254.814L169.846 251.898L168.424 251.898ZM161.656 253.95L161.656 257.874L162.988 257.874L162.988 255.246L175.318 255.246L175.318 257.874L176.704 257.874L176.704 253.95L161.656 253.95Z" fill="white"/>
</g>
<path d="M103.96 46.984V49.532H111.856V46.984H103.96ZM103.624 54.936V57.484H112.136V54.936H103.624ZM103.624 58.8V61.348H112.136V58.8H103.624ZM102.028 50.82V53.536H113.452V50.82H102.028ZM113.844 51.52V54.656H127.844V51.52H113.844ZM113.172 68.404V71.568H128.292V68.404H113.172ZM114.432 59.724V62.832H127.396V59.724H114.432ZM105.136 62.692V65.184H109.336V68.404H105.136V70.896H112.444V62.692H105.136ZM103.4 62.692V72.156H106.424V62.692H103.4ZM119.08 46.256V52.92H122.44V46.256H119.08ZM119.08 52.724V70H122.44V52.724H119.08ZM133.248 47.796V72.576H136.552V51.1H152.848V47.796H133.248ZM151.056 47.796V68.796C151.056 69.132 150.972 69.272 150.636 69.272C150.356 69.272 149.46 69.272 148.648 69.216C149.096 70.084 149.544 71.596 149.628 72.492C151.252 72.492 152.4 72.408 153.268 71.848C154.164 71.26 154.388 70.336 154.388 68.852V47.796H151.056ZM130.56 57.904V61.18H156.88V57.904H130.56ZM139.184 48.888V72.1H142.292V48.888H139.184ZM145.036 48.888V72.1H148.2V48.888H145.036ZM170.936 47.628V50.736H182.304V47.628H170.936ZM169.984 57.372V60.536H185.44V57.372H169.984ZM175.892 54.096V68.74C175.892 69.132 175.752 69.244 175.304 69.272C174.828 69.3 173.372 69.272 171.944 69.216C172.392 70.112 172.952 71.568 173.12 72.492C175.192 72.52 176.732 72.408 177.852 71.904C178.944 71.372 179.28 70.476 179.28 68.796V54.096H175.892ZM181.1 47.628V48.356C180.26 50.036 178.328 52.808 176.676 54.404C177.208 54.852 178.132 55.776 178.58 56.364C180.764 54.516 183.144 51.548 184.796 49.112L182.612 47.46L181.912 47.628H181.1ZM159.316 51.8V54.908H168.36V51.8H159.316ZM163.068 46.228C162.2 51.8 160.688 59.192 159.484 63.616L162.228 65.072C163.544 60.032 165.168 52.528 166.232 46.564L163.068 46.228ZM160.94 63.14C163.88 65.072 167.436 68.012 169.004 70.14L171.02 67.424C169.396 65.324 165.7 62.608 162.788 60.788L160.94 63.14ZM167.212 51.8V52.416C166.652 61.264 164.16 67.452 159.4 69.944C160.072 70.588 160.968 71.792 161.416 72.604C166.96 69.16 169.676 62.972 170.32 52.052L168.332 51.716L167.744 51.8H167.212ZM200.98 66.836C201.512 67.816 202.016 69.216 202.128 70.112L204.844 69.3C204.676 68.432 204.172 67.116 203.556 66.164L200.98 66.836ZM208.372 66.08C208.092 67.032 207.56 68.404 207.112 69.328L209.604 70.056C210.052 69.244 210.668 68.096 211.284 66.864L208.372 66.08ZM202.492 62.972H209.464V64.4H202.492V62.972ZM199.72 61.012V66.36H212.348V61.012H199.72ZM201.512 53.284H210.332V54.544H201.512V53.284ZM201.512 50.092H210.332V51.352H201.512V50.092ZM198.824 48.02V56.616H213.16V48.02H198.824ZM198.432 57.54V60.06H213.608V57.54H198.432ZM197.872 69.524V71.988H214V69.524H197.872ZM202.576 46.228V49.56H205.068V46.228H202.576ZM206.72 46.228V49.56H209.212V46.228H206.72ZM203.08 48.972V56.196H205.04V48.972H203.08ZM206.72 48.972V56.196H208.68V48.972H206.72ZM187.988 53.564V56.476H197.816V53.564H187.988ZM188.66 47.992V50.876H197.256V47.992H188.66ZM195.576 57.876V68.32H197.704V57.876H195.576ZM191.656 55.02V72.52H194.428V55.02H191.656ZM188.38 57.932V61.208C188.38 63.644 188.24 66.5 187.484 68.768C188.072 69.076 188.94 69.748 189.36 70.196C190.368 67.508 190.508 64.176 190.508 61.292V57.932H188.38Z" fill="#383A44"/>
<path d="M57.1427 94.724L57.3467 95.48C58.2467 95.288 59.3747 95.048 60.4907 94.796L60.4307 94.124C59.1947 94.364 57.9947 94.592 57.1427 94.724ZM61.0787 90.884V91.736H64.7267V90.884H61.0787ZM63.2147 88.028V97.928C63.2147 98.108 63.1547 98.156 62.9867 98.168C62.8187 98.168 62.2907 98.18 61.6907 98.156C61.7987 98.408 61.9307 98.78 61.9667 99.008C62.7827 99.008 63.2987 98.984 63.6227 98.828C63.9227 98.696 64.0427 98.444 64.0427 97.916V88.028H63.2147ZM61.3667 92.9C61.7027 93.836 61.9787 95.06 62.0267 95.84L62.7467 95.672C62.6747 94.88 62.3987 93.668 62.0387 92.744L61.3667 92.9ZM54.1067 91.556V92.276H56.9507V91.556H54.1067ZM54.1667 88.352V89.072H56.9267V88.352H54.1667ZM54.1067 93.164V93.884H56.9507V93.164H54.1067ZM53.6267 89.924V90.668H57.2147V89.924H53.6267ZM54.4547 94.784V95.528H56.2307V97.532H54.4547V98.276H56.9747V94.784H54.4547ZM54.0707 94.784V98.84H54.8027V94.784H54.0707ZM58.0907 90.824V91.52H60.4667V90.824H58.0907ZM58.0907 92.516V93.212H60.4667V92.516H58.0907ZM60.0707 89.132V97.988C60.0707 98.156 60.0107 98.216 59.8427 98.216C59.6987 98.216 59.1707 98.228 58.5827 98.204C58.7027 98.42 58.8227 98.756 58.8707 98.972C59.6507 98.972 60.1187 98.948 60.4187 98.816C60.7067 98.684 60.8267 98.432 60.8267 97.988V89.132H60.0707ZM60.5867 93.356C59.8067 94.976 58.4387 96.44 56.9747 97.352C57.1427 97.508 57.4427 97.856 57.5507 98.024C59.0267 96.992 60.4787 95.396 61.3787 93.608L60.5867 93.356ZM57.7307 89.132V94.976H58.4747V89.828H60.4067V89.132H57.7307ZM58.9907 87.908C58.9187 88.352 58.7267 89.012 58.5707 89.432L59.2787 89.6C59.4587 89.204 59.6747 88.628 59.8667 88.076L58.9907 87.908ZM69.1727 94.724L69.3767 95.48C70.2767 95.288 71.4047 95.048 72.5207 94.796L72.4607 94.124C71.2247 94.364 70.0247 94.592 69.1727 94.724ZM73.1087 90.884V91.736H76.7567V90.884H73.1087ZM75.2447 88.028V97.928C75.2447 98.108 75.1847 98.156 75.0167 98.168C74.8487 98.168 74.3207 98.18 73.7207 98.156C73.8287 98.408 73.9607 98.78 73.9967 99.008C74.8127 99.008 75.3287 98.984 75.6527 98.828C75.9527 98.696 76.0727 98.444 76.0727 97.916V88.028H75.2447ZM73.3967 92.9C73.7327 93.836 74.0087 95.06 74.0567 95.84L74.7767 95.672C74.7047 94.88 74.4287 93.668 74.0687 92.744L73.3967 92.9ZM66.1367 91.556V92.276H68.9807V91.556H66.1367ZM66.1967 88.352V89.072H68.9567V88.352H66.1967ZM66.1367 93.164V93.884H68.9807V93.164H66.1367ZM65.6567 89.924V90.668H69.2447V89.924H65.6567ZM66.4847 94.784V95.528H68.2607V97.532H66.4847V98.276H69.0047V94.784H66.4847ZM66.1007 94.784V98.84H66.8327V94.784H66.1007ZM70.1207 90.824V91.52H72.4967V90.824H70.1207ZM70.1207 92.516V93.212H72.4967V92.516H70.1207ZM72.1007 89.132V97.988C72.1007 98.156 72.0407 98.216 71.8727 98.216C71.7287 98.216 71.2007 98.228 70.6127 98.204C70.7327 98.42 70.8527 98.756 70.9007 98.972C71.6807 98.972 72.1487 98.948 72.4487 98.816C72.7367 98.684 72.8567 98.432 72.8567 97.988V89.132H72.1007ZM72.6167 93.356C71.8367 94.976 70.4687 96.44 69.0047 97.352C69.1727 97.508 69.4727 97.856 69.5807 98.024C71.0567 96.992 72.5087 95.396 73.4087 93.608L72.6167 93.356ZM69.7607 89.132V94.976H70.5047V89.828H72.4367V89.132H69.7607ZM71.0207 87.908C70.9487 88.352 70.7567 89.012 70.6007 89.432L71.3087 89.6C71.4887 89.204 71.7047 88.628 71.8967 88.076L71.0207 87.908ZM82.8467 87.932C82.4387 89.084 81.7307 90.176 80.9147 90.884C81.1187 91.016 81.4547 91.304 81.5867 91.46C82.4267 90.644 83.2067 89.42 83.6747 88.136L82.8467 87.932ZM82.7987 90.956C82.4747 91.796 81.9347 92.636 81.3107 93.212C81.5147 93.32 81.8747 93.548 82.0427 93.68C82.6427 93.056 83.2667 92.12 83.6387 91.172L82.7987 90.956ZM82.7267 89.108L82.4147 89.9H87.9347V89.108H82.7267ZM84.4907 89.648V93.824C84.4907 93.956 84.4547 93.992 84.2987 94.004C84.1427 94.016 83.6387 94.016 83.0747 93.992C83.2067 94.22 83.3267 94.556 83.3747 94.796C84.1307 94.796 84.6227 94.784 84.9347 94.652C85.2707 94.52 85.3547 94.28 85.3547 93.824V89.648H84.4907ZM86.0147 91.22C86.5787 92 87.1667 93.092 87.4067 93.8L88.1867 93.428C87.9347 92.732 87.3467 91.676 86.7587 90.896L86.0147 91.22ZM87.6827 89.108V89.24C87.4547 89.912 87.1307 90.74 86.8547 91.244L87.6347 91.4C87.9227 90.872 88.2947 89.996 88.5947 89.24L87.9707 89.084L87.8267 89.108H87.6827ZM80.8187 95.384V97.556C80.8187 98.504 81.1427 98.756 82.3907 98.756C82.6547 98.756 84.4427 98.756 84.7187 98.756C85.7507 98.756 86.0267 98.396 86.1347 96.944C85.8827 96.884 85.5227 96.752 85.3307 96.596C85.2707 97.784 85.1867 97.94 84.6587 97.94C84.2627 97.94 82.7627 97.94 82.4627 97.94C81.8267 97.94 81.7067 97.88 81.7067 97.556V95.384H80.8187ZM81.8507 95.024C82.6307 95.408 83.5187 96.056 83.9267 96.536L84.5747 95.948C84.1427 95.468 83.2187 94.856 82.4507 94.484L81.8507 95.024ZM85.7987 95.756C86.6987 96.524 87.5867 97.652 87.9347 98.444L88.7387 97.988C88.3667 97.172 87.4307 96.092 86.5427 95.336L85.7987 95.756ZM79.3547 95.528C79.1027 96.536 78.5867 97.496 77.6987 98.06L78.4427 98.576C79.3907 97.94 79.8587 96.872 80.1587 95.792L79.3547 95.528ZM80.5067 87.92C79.8227 89.24 78.6947 90.56 77.5667 91.412C77.7467 91.568 78.0467 91.928 78.1547 92.108C79.3187 91.16 80.5307 89.684 81.3107 88.196L80.5067 87.92ZM79.4027 90.176V94.784H80.2667V89.336L80.2547 89.324L79.4027 90.176ZM90.4847 88.364V89.084H93.6407V88.364H90.4847ZM90.3647 91.604V92.324H93.7487V91.604H90.3647ZM90.3647 93.212V93.932H93.7487V93.212H90.3647ZM89.7407 89.948V90.704H94.3847V89.948H89.7407ZM94.5527 90.296V91.148H100.553V90.296H94.5527ZM94.2047 97.736V98.588H100.781V97.736H94.2047ZM94.7567 93.836V94.676H100.373V93.836H94.7567ZM90.7487 94.82V95.528H92.9927V97.484H90.7487V98.192H93.8447V94.82H90.7487ZM90.2927 94.82V98.78H91.1207V94.82H90.2927ZM97.0367 87.956V90.704H97.9367V87.956H97.0367ZM97.0367 90.584V98.18H97.9367V90.584H97.0367ZM102.947 88.664V98.996H103.835V89.552H111.335V88.664H102.947ZM110.867 88.664V97.88C110.867 98.036 110.819 98.096 110.675 98.096C110.543 98.096 110.087 98.108 109.595 98.084C109.727 98.324 109.859 98.732 109.883 98.972C110.591 98.972 111.059 98.948 111.359 98.792C111.671 98.636 111.767 98.372 111.767 97.892V88.664H110.867ZM101.771 93.008V93.884H112.835V93.008H101.771ZM105.551 88.964V98.84H106.391V88.964H105.551ZM108.191 88.964V98.84H109.043V88.964H108.191ZM115.758 89.4688V98H114.287V89.4688H115.758ZM124.384 89.4688V98H122.913L119.087 91.8887V98H117.616V89.4688H119.087L122.925 95.5918V89.4688H124.384ZM126.764 89.4688H128.076L130.543 96.0488L133.004 89.4688H134.316L131.058 98H130.015L126.764 89.4688ZM126.166 89.4688H127.414L127.631 95.1641V98H126.166V89.4688ZM133.666 89.4688H134.92V98H133.449V95.1641L133.666 89.4688ZM142.28 96.834V98H137.751V96.834H142.28ZM138.167 89.4688V98H136.696V89.4688H138.167ZM141.688 93.0312V94.1797H137.751V93.0312H141.688ZM142.251 89.4688V90.6406H137.751V89.4688H142.251ZM149.095 96.834V98H144.566V96.834H149.095ZM144.982 89.4688V98H143.511V89.4688H144.982ZM148.503 93.0312V94.1797H144.566V93.0312H148.503ZM149.066 89.4688V90.6406H144.566V89.4688H149.066ZM153.953 89.4688V98H152.494V89.4688H153.953ZM156.631 89.4688V90.6406H149.84V89.4688H156.631ZM158.803 99.284C160.063 98.852 160.879 97.868 160.879 96.572C160.879 95.732 160.519 95.18 159.847 95.18C159.367 95.18 158.935 95.48 158.935 96.044C158.935 96.62 159.343 96.908 159.835 96.908C160.063 96.908 160.303 96.848 160.471 96.632L159.823 95.72L160.051 96.74C160.051 97.64 159.511 98.252 158.527 98.66L158.803 99.284ZM172.765 92.684V93.512H180.337V92.684H172.765ZM173.149 90.212V91.016H179.977V90.212H173.149ZM175.981 90.584V92.372C175.981 93.608 175.765 95.372 172.849 96.548C173.053 96.704 173.329 97.016 173.449 97.208C176.473 95.852 176.881 93.884 176.881 92.384V90.584H175.981ZM177.133 93.212L176.353 93.38C176.881 95.336 177.973 96.632 179.785 97.268C179.905 97.028 180.157 96.68 180.361 96.5C178.645 96.008 177.589 94.892 177.133 93.212ZM172.081 92.66H169.525V93.5H171.205V96.908H172.081V92.66ZM172.081 96.512H171.265C170.653 97.028 169.945 97.556 169.369 97.94L169.849 98.864C170.497 98.336 171.109 97.82 171.685 97.304C172.453 98.252 173.533 98.672 175.093 98.732C176.425 98.78 178.909 98.756 180.229 98.708C180.265 98.432 180.421 98 180.517 97.784C179.101 97.88 176.401 97.916 175.093 97.868C173.713 97.808 172.645 97.4 172.081 96.512ZM169.657 88.76C170.437 89.288 171.337 90.104 171.721 90.68L172.429 90.092C172.021 89.504 171.109 88.724 170.317 88.22L169.657 88.76ZM178.405 87.92C178.153 88.532 177.661 89.396 177.289 89.936L178.021 90.212C178.417 89.708 178.909 88.916 179.317 88.232L178.405 87.92ZM173.617 88.28C174.085 88.88 174.529 89.708 174.685 90.248L175.501 89.888C175.333 89.336 174.865 88.544 174.385 87.968L173.617 88.28ZM187.051 91.88V92.708H191.047V91.88H187.051ZM186.991 97.46V98.276H191.311V97.46H186.991ZM188.959 88.964C189.679 90.14 191.023 91.676 192.199 92.648C192.343 92.384 192.559 92.048 192.763 91.832C191.551 90.944 190.207 89.396 189.355 88.04H188.479C187.855 89.312 186.547 90.956 185.251 91.952C185.431 92.144 185.671 92.48 185.779 92.72C187.075 91.688 188.299 90.152 188.959 88.964ZM186.535 94.148V98.96H187.363V94.964H190.831V98.912H191.695V94.148H186.535ZM183.319 87.932C183.007 88.724 182.455 89.876 181.999 90.56L182.623 90.848C183.091 90.188 183.655 89.12 184.111 88.244L183.319 87.932ZM184.663 89.3C184.027 90.596 182.899 92.42 182.011 93.5L182.563 93.812C183.451 92.756 184.603 91.016 185.419 89.636L184.663 89.3ZM181.423 90.452C182.071 91.028 182.827 91.868 183.151 92.432L183.631 91.748C183.307 91.208 182.551 90.428 181.879 89.864L181.423 90.452ZM184.243 92.084C184.723 92.876 185.167 93.932 185.335 94.604L186.007 94.292C185.839 93.632 185.359 92.6 184.867 91.832L184.243 92.084ZM181.387 93.308L181.459 94.124C182.551 94.052 184.003 93.968 185.443 93.872L185.455 93.128C183.931 93.212 182.431 93.272 181.387 93.308ZM184.555 94.916C184.855 95.612 185.179 96.536 185.287 97.136L185.983 96.896C185.863 96.296 185.539 95.384 185.203 94.712L184.555 94.916ZM182.059 94.784C181.915 95.84 181.675 96.908 181.279 97.64C181.471 97.724 181.831 97.892 181.987 97.988C182.371 97.22 182.671 96.056 182.839 94.928L182.059 94.784ZM183.355 93.644V98.996H184.159V93.644H183.355ZM198.625 87.932C198.217 89.084 197.509 90.176 196.693 90.884C196.897 91.016 197.233 91.304 197.365 91.46C198.205 90.644 198.985 89.42 199.453 88.136L198.625 87.932ZM198.577 90.956C198.253 91.796 197.713 92.636 197.089 93.212C197.293 93.32 197.653 93.548 197.821 93.68C198.421 93.056 199.045 92.12 199.417 91.172L198.577 90.956ZM198.505 89.108L198.193 89.9H203.713V89.108H198.505ZM200.269 89.648V93.824C200.269 93.956 200.233 93.992 200.077 94.004C199.921 94.016 199.417 94.016 198.853 93.992C198.985 94.22 199.105 94.556 199.153 94.796C199.909 94.796 200.401 94.784 200.713 94.652C201.049 94.52 201.133 94.28 201.133 93.824V89.648H200.269ZM201.793 91.22C202.357 92 202.945 93.092 203.185 93.8L203.965 93.428C203.713 92.732 203.125 91.676 202.537 90.896L201.793 91.22ZM203.461 89.108V89.24C203.233 89.912 202.909 90.74 202.633 91.244L203.413 91.4C203.701 90.872 204.073 89.996 204.373 89.24L203.749 89.084L203.605 89.108H203.461ZM196.597 95.384V97.556C196.597 98.504 196.921 98.756 198.169 98.756C198.433 98.756 200.221 98.756 200.497 98.756C201.529 98.756 201.805 98.396 201.913 96.944C201.661 96.884 201.301 96.752 201.109 96.596C201.049 97.784 200.965 97.94 200.437 97.94C200.041 97.94 198.541 97.94 198.241 97.94C197.605 97.94 197.485 97.88 197.485 97.556V95.384H196.597ZM197.629 95.024C198.409 95.408 199.297 96.056 199.705 96.536L200.353 95.948C199.921 95.468 198.997 94.856 198.229 94.484L197.629 95.024ZM201.577 95.756C202.477 96.524 203.365 97.652 203.713 98.444L204.517 97.988C204.145 97.172 203.209 96.092 202.321 95.336L201.577 95.756ZM195.133 95.528C194.881 96.536 194.365 97.496 193.477 98.06L194.221 98.576C195.169 97.94 195.637 96.872 195.937 95.792L195.133 95.528ZM196.285 87.92C195.601 89.24 194.473 90.56 193.345 91.412C193.525 91.568 193.825 91.928 193.933 92.108C195.097 91.16 196.309 89.684 197.089 88.196L196.285 87.92ZM195.181 90.176V94.784H196.045V89.336L196.033 89.324L195.181 90.176ZM207.341 93.0957H208.185C208.513 93.0957 208.785 93.0391 209 92.9258C209.218 92.8125 209.38 92.6562 209.486 92.457C209.591 92.2578 209.644 92.0293 209.644 91.7715C209.644 91.502 209.595 91.2715 209.498 91.0801C209.404 90.8848 209.259 90.7344 209.064 90.6289C208.873 90.5234 208.629 90.4707 208.332 90.4707C208.082 90.4707 207.855 90.5215 207.652 90.623C207.453 90.7207 207.295 90.8613 207.177 91.0449C207.06 91.2246 207.002 91.4395 207.002 91.6895H205.584C205.584 91.2363 205.703 90.834 205.941 90.4824C206.179 90.1309 206.504 89.8555 206.914 89.6562C207.328 89.4531 207.793 89.3516 208.308 89.3516C208.859 89.3516 209.339 89.4434 209.75 89.627C210.164 89.8066 210.486 90.0762 210.716 90.4355C210.947 90.7949 211.062 91.2402 211.062 91.7715C211.062 92.0137 211.005 92.2598 210.892 92.5098C210.779 92.7598 210.611 92.9883 210.388 93.1953C210.166 93.3984 209.888 93.5645 209.556 93.6934C209.224 93.8184 208.839 93.8809 208.402 93.8809H207.341V93.0957ZM207.341 94.1973V93.4238H208.402C208.902 93.4238 209.328 93.4824 209.679 93.5996C210.035 93.7168 210.324 93.8789 210.546 94.0859C210.769 94.2891 210.931 94.5215 211.033 94.7832C211.138 95.0449 211.191 95.3223 211.191 95.6152C211.191 96.0137 211.119 96.3691 210.974 96.6816C210.834 96.9902 210.632 97.252 210.371 97.4668C210.109 97.6816 209.802 97.8438 209.451 97.9531C209.103 98.0625 208.724 98.1172 208.314 98.1172C207.947 98.1172 207.595 98.0664 207.259 97.9648C206.923 97.8633 206.623 97.7129 206.357 97.5137C206.091 97.3105 205.88 97.0586 205.724 96.7578C205.572 96.4531 205.496 96.1016 205.496 95.7031H206.908C206.908 95.957 206.966 96.1816 207.084 96.377C207.205 96.5684 207.373 96.7188 207.587 96.8281C207.806 96.9375 208.056 96.9922 208.337 96.9922C208.634 96.9922 208.89 96.9395 209.105 96.834C209.32 96.7285 209.484 96.5723 209.597 96.3652C209.714 96.1582 209.773 95.9082 209.773 95.6152C209.773 95.2832 209.709 95.0137 209.58 94.8066C209.451 94.5996 209.267 94.4473 209.029 94.3496C208.791 94.248 208.509 94.1973 208.185 94.1973H207.341ZM218.094 93.0195V94.4141C218.094 95.082 218.028 95.6523 217.895 96.125C217.766 96.5938 217.578 96.9746 217.332 97.2676C217.086 97.5605 216.791 97.7754 216.448 97.9121C216.108 98.0488 215.727 98.1172 215.305 98.1172C214.969 98.1172 214.657 98.0742 214.367 97.9883C214.082 97.9023 213.825 97.7676 213.594 97.584C213.364 97.4004 213.166 97.1641 213.002 96.875C212.842 96.582 212.717 96.2324 212.627 95.8262C212.541 95.4199 212.498 94.9492 212.498 94.4141V93.0195C212.498 92.3477 212.565 91.7812 212.698 91.3203C212.83 90.8555 213.02 90.4785 213.266 90.1895C213.512 89.8965 213.805 89.6836 214.145 89.5508C214.489 89.418 214.871 89.3516 215.293 89.3516C215.633 89.3516 215.946 89.3945 216.231 89.4805C216.52 89.5625 216.778 89.6934 217.004 89.873C217.235 90.0527 217.43 90.2871 217.59 90.5762C217.754 90.8613 217.879 91.207 217.965 91.6133C218.051 92.0156 218.094 92.4844 218.094 93.0195ZM216.682 94.6133V92.8086C216.682 92.4688 216.662 92.1699 216.623 91.9121C216.584 91.6504 216.526 91.4297 216.448 91.25C216.373 91.0664 216.28 90.918 216.166 90.8047C216.053 90.6875 215.924 90.6035 215.78 90.5527C215.635 90.498 215.473 90.4707 215.293 90.4707C215.075 90.4707 214.879 90.5137 214.707 90.5996C214.535 90.6816 214.391 90.8145 214.274 90.998C214.157 91.1816 214.067 91.4238 214.004 91.7246C213.946 92.0215 213.916 92.3828 213.916 92.8086V94.6133C213.916 94.957 213.936 95.2598 213.975 95.5215C214.014 95.7832 214.073 96.0078 214.151 96.1953C214.229 96.3789 214.323 96.5312 214.432 96.6523C214.545 96.7695 214.674 96.8555 214.819 96.9102C214.967 96.9648 215.129 96.9922 215.305 96.9922C215.528 96.9922 215.725 96.9492 215.897 96.8633C216.069 96.7773 216.213 96.6406 216.33 96.4531C216.448 96.2617 216.535 96.0137 216.594 95.709C216.653 95.4043 216.682 95.0391 216.682 94.6133ZM219.327 94.016V94.856H224.607V94.016H219.327ZM220.395 91.1H223.635V92.288H220.395V91.1ZM220.395 89.24H223.635V90.404H220.395V89.24ZM219.663 88.52V93.008H224.403V88.52H219.663ZM222.267 95.048L221.811 95.456C222.351 95.9 223.671 97.076 224.115 97.58L224.655 96.872C224.295 96.548 222.723 95.336 222.267 95.048ZM221.667 88.916V92.624H221.595V98.96H222.423V92.624H222.363V88.916H221.667ZM221.619 94.328C221.103 95.528 220.071 96.824 219.099 97.496C219.243 97.724 219.447 98.084 219.531 98.324C220.575 97.532 221.607 95.996 222.195 94.604L221.619 94.328ZM224.727 88.496V89.276H230.139V88.496H224.727ZM225.855 92.948H229.047V94.112H225.855V92.948ZM225.855 94.784H229.047V95.96H225.855V94.784ZM225.855 91.112H229.047V92.264H225.855V91.112ZM225.051 90.404V96.668H229.863V90.404H225.051ZM227.043 88.88C226.995 89.444 226.827 90.26 226.695 90.788L227.439 90.944C227.619 90.44 227.811 89.684 227.991 89.012L227.043 88.88ZM226.179 96.908C225.723 97.436 224.751 98.072 223.875 98.42C224.079 98.576 224.355 98.84 224.487 99.008C225.351 98.648 226.359 97.988 226.971 97.364L226.179 96.908ZM227.859 97.412C228.519 97.88 229.347 98.552 229.743 98.996L230.439 98.504C230.031 98.048 229.191 97.4 228.543 96.968L227.859 97.412ZM231.705 90.728V92.816H232.569V91.448H240.933V92.9H241.821V90.728H231.705ZM240.597 87.92C238.653 88.316 235.041 88.556 232.101 88.64C232.173 88.82 232.269 89.132 232.281 89.324C235.281 89.252 238.917 89.012 241.197 88.544L240.597 87.92ZM233.181 89.444C233.529 89.876 233.877 90.488 233.997 90.884L234.777 90.56C234.633 90.14 234.273 89.564 233.901 89.144L233.181 89.444ZM235.797 89.216C236.121 89.684 236.421 90.332 236.505 90.74L237.297 90.464C237.201 90.032 236.877 89.408 236.541 88.952L235.797 89.216ZM239.013 92.456C239.697 93.008 240.501 93.824 240.861 94.364L241.521 93.872C241.149 93.332 240.333 92.552 239.637 92.024L239.013 92.456ZM235.641 91.832C236.277 92.108 237.033 92.564 237.429 92.888L237.897 92.348C237.513 92.024 236.721 91.604 236.097 91.34L235.641 91.832ZM239.829 88.94C239.565 89.492 239.049 90.284 238.677 90.788L239.337 91.076C239.745 90.608 240.261 89.912 240.693 89.276L239.829 88.94ZM239.109 95.048V95.192C237.849 97.052 234.705 97.928 231.405 98.24C231.573 98.42 231.801 98.78 231.885 98.996C235.233 98.576 238.509 97.628 240.033 95.396L239.469 95.024L239.313 95.048H239.109ZM234.633 95.528L233.925 95.828C235.461 97.688 238.389 98.648 241.653 98.984C241.773 98.744 241.989 98.372 242.181 98.18C238.941 97.928 236.013 97.088 234.633 95.528ZM235.449 94.052C234.585 95.132 233.061 96.056 231.573 96.632C231.753 96.764 232.065 97.064 232.209 97.232C233.661 96.584 235.245 95.552 236.241 94.34L235.449 94.052ZM234.669 92.156V93.308C234.669 94.076 234.933 94.256 236.025 94.256C236.241 94.256 237.729 94.256 237.969 94.256C238.749 94.256 238.989 94.028 239.073 93.056C238.845 93.008 238.533 92.912 238.353 92.792C238.317 93.5 238.233 93.584 237.861 93.584C237.537 93.584 236.325 93.584 236.097 93.584C235.593 93.584 235.509 93.548 235.509 93.296V92.156H234.669ZM233.493 92.168C233.229 92.888 232.737 93.596 232.017 93.992L232.653 94.508C233.445 94.04 233.901 93.236 234.189 92.456L233.493 92.168ZM234.897 95.048L234.225 95.72H239.313V95.048H234.897ZM246.447 91.28V97.304C246.447 98.48 246.819 98.804 248.091 98.804C248.367 98.804 250.155 98.804 250.443 98.804C251.751 98.804 252.027 98.132 252.159 95.864C251.895 95.804 251.523 95.636 251.307 95.456C251.211 97.532 251.103 97.976 250.395 97.976C249.987 97.976 248.475 97.976 248.175 97.976C247.515 97.976 247.371 97.868 247.371 97.304V91.28H246.447ZM246.543 88.664C247.995 89.18 249.747 90.08 250.671 90.776L251.247 89.984C250.299 89.336 248.559 88.472 247.107 87.98L246.543 88.664ZM244.443 92.24C244.275 93.8 243.879 95.552 243.075 96.608L243.891 97.1C244.755 95.948 245.127 94.028 245.307 92.42L244.443 92.24ZM251.439 92.252C252.459 93.608 253.359 95.48 253.623 96.74L254.523 96.308C254.223 95.036 253.323 93.224 252.243 91.856L251.439 92.252ZM260.433 95.108H261.213L261.453 90.452L261.489 89.024H260.157L260.193 90.452L260.433 95.108ZM260.829 98.06C261.249 98.06 261.597 97.76 261.597 97.28C261.597 96.8 261.249 96.476 260.829 96.476C260.397 96.476 260.049 96.8 260.049 97.28C260.049 97.76 260.397 98.06 260.829 98.06Z" fill="#6F7387"/>
<defs>
<clipPath id="clip0_53_53194">
<rect x="25" y="236" width="270" height="50" rx="25" fill="white"/>
</clipPath>
</defs>
</svg>
