<svg width="200" height="138" viewBox="0 0 200 138" fill="none" xmlns="http://www.w3.org/2000/svg">
<g filter="url(#filter0_d_39_5885)">
<rect x="20" y="28" width="160" height="90" rx="15" fill="white"/>
<path d="M44.2109 51.834V53H39.9277V51.834H44.2109ZM40.3379 44.4688V53H38.8672V44.4688H40.3379ZM46.7488 46.6602V53H45.3308V46.6602H46.7488ZM45.237 44.9961C45.237 44.7812 45.3073 44.6035 45.448 44.4629C45.5925 44.3184 45.7917 44.2461 46.0456 44.2461C46.2956 44.2461 46.4929 44.3184 46.6374 44.4629C46.782 44.6035 46.8542 44.7812 46.8542 44.9961C46.8542 45.207 46.782 45.3828 46.6374 45.5234C46.4929 45.6641 46.2956 45.7344 46.0456 45.7344C45.7917 45.7344 45.5925 45.6641 45.448 45.5234C45.3073 45.3828 45.237 45.207 45.237 44.9961ZM49.726 48.0137V53H48.3139V46.6602H49.644L49.726 48.0137ZM49.4741 49.5957L49.017 49.5898C49.0209 49.1406 49.0834 48.7285 49.2045 48.3535C49.3295 47.9785 49.5014 47.6562 49.7202 47.3867C49.9428 47.1172 50.2084 46.9102 50.517 46.7656C50.8256 46.6172 51.1694 46.543 51.5483 46.543C51.853 46.543 52.1284 46.5859 52.3745 46.6719C52.6245 46.7539 52.8373 46.8887 53.0131 47.0762C53.1928 47.2637 53.3295 47.5078 53.4233 47.8086C53.517 48.1055 53.5639 48.4707 53.5639 48.9043V53H52.1459V48.8984C52.1459 48.5938 52.101 48.3535 52.0112 48.1777C51.9252 47.998 51.7983 47.8711 51.6303 47.7969C51.4663 47.7188 51.2612 47.6797 51.0151 47.6797C50.7729 47.6797 50.5561 47.7305 50.3647 47.832C50.1733 47.9336 50.0112 48.0723 49.8784 48.248C49.7495 48.4238 49.6498 48.627 49.5795 48.8574C49.5092 49.0879 49.4741 49.334 49.4741 49.5957ZM57.8302 53.1172C57.3615 53.1172 56.9377 53.041 56.5588 52.8887C56.1838 52.7324 55.8634 52.5156 55.5978 52.2383C55.3361 51.9609 55.1349 51.6348 54.9943 51.2598C54.8537 50.8848 54.7834 50.4805 54.7834 50.0469V49.8125C54.7834 49.3164 54.8556 48.8672 55.0002 48.4648C55.1447 48.0625 55.3459 47.7188 55.6037 47.4336C55.8615 47.1445 56.1662 46.9238 56.5177 46.7715C56.8693 46.6191 57.2502 46.543 57.6603 46.543C58.1134 46.543 58.5099 46.6191 58.8498 46.7715C59.1896 46.9238 59.4709 47.1387 59.6935 47.416C59.9201 47.6895 60.088 48.0156 60.1974 48.3945C60.3107 48.7734 60.3673 49.1914 60.3673 49.6484V50.252H55.4689V49.2383H58.9728V49.127C58.965 48.873 58.9142 48.6348 58.8205 48.4121C58.7306 48.1895 58.592 48.0098 58.4045 47.873C58.217 47.7363 57.967 47.668 57.6545 47.668C57.4201 47.668 57.2111 47.7188 57.0275 47.8203C56.8478 47.918 56.6974 48.0605 56.5763 48.248C56.4552 48.4355 56.3615 48.6621 56.2951 48.9277C56.2326 49.1895 56.2013 49.4844 56.2013 49.8125V50.0469C56.2013 50.3242 56.2384 50.582 56.3127 50.8203C56.3908 51.0547 56.5041 51.2598 56.6525 51.4355C56.8009 51.6113 56.9806 51.75 57.1916 51.8516C57.4025 51.9492 57.6427 51.998 57.9123 51.998C58.2521 51.998 58.5548 51.9297 58.8205 51.793C59.0861 51.6562 59.3166 51.4629 59.5119 51.2129L60.256 51.9336C60.1193 52.1328 59.9416 52.3242 59.7228 52.5078C59.5041 52.6875 59.2365 52.834 58.9201 52.9473C58.6076 53.0605 58.2443 53.1172 57.8302 53.1172ZM66.2281 44.4688V53H64.7574V44.4688H66.2281ZM70.5648 53H68.7425L68.7542 51.834H70.5648C71.0921 51.834 71.5335 51.7188 71.889 51.4883C72.2484 51.2578 72.5179 50.9277 72.6976 50.498C72.8812 50.0684 72.973 49.5566 72.973 48.9629V48.5C72.973 48.0391 72.9202 47.6309 72.8148 47.2754C72.7132 46.9199 72.5609 46.6211 72.3577 46.3789C72.1585 46.1367 71.9124 45.9531 71.6195 45.8281C71.3304 45.7031 70.9964 45.6406 70.6175 45.6406H68.7073V44.4688H70.6175C71.1839 44.4688 71.7015 44.5645 72.1702 44.7559C72.639 44.9434 73.0433 45.2148 73.3831 45.5703C73.7269 45.9258 73.9905 46.3516 74.1741 46.8477C74.3577 47.3438 74.4495 47.8984 74.4495 48.5117V48.9629C74.4495 49.5762 74.3577 50.1309 74.1741 50.627C73.9905 51.123 73.7269 51.5488 73.3831 51.9043C73.0394 52.2559 72.6292 52.5273 72.1527 52.7188C71.68 52.9062 71.1507 53 70.5648 53ZM69.557 44.4688V53H68.0863V44.4688H69.557ZM75.833 52.2969C75.833 52.0781 75.9073 51.8945 76.0557 51.7461C76.2041 51.5938 76.4053 51.5176 76.6592 51.5176C76.917 51.5176 77.1182 51.5938 77.2627 51.7461C77.4112 51.8945 77.4854 52.0781 77.4854 52.2969C77.4854 52.5156 77.4112 52.6992 77.2627 52.8477C77.1182 52.9961 76.917 53.0703 76.6592 53.0703C76.4053 53.0703 76.2041 52.9961 76.0557 52.8477C75.9073 52.6992 75.833 52.5156 75.833 52.2969ZM75.8389 47.3047C75.8389 47.0859 75.9131 46.9023 76.0616 46.7539C76.21 46.6016 76.4112 46.5254 76.6651 46.5254C76.9229 46.5254 77.1241 46.6016 77.2686 46.7539C77.417 46.9023 77.4912 47.0859 77.4912 47.3047C77.4912 47.5234 77.417 47.707 77.2686 47.8555C77.1241 48.0039 76.9229 48.0781 76.6651 48.0781C76.4112 48.0781 76.21 48.0039 76.0616 47.8555C75.9131 47.707 75.8389 47.5234 75.8389 47.3047ZM43.508 60.92V64.82H44.432V60.92H43.508ZM39.464 61.64C40.088 62.384 40.76 63.416 41.048 64.088L41.876 63.68C41.564 63.008 40.904 62.024 40.256 61.304L39.464 61.64ZM47.66 61.22C47.276 62.012 46.568 63.116 46.016 63.788L46.76 64.088C47.324 63.44 48.008 62.42 48.548 61.544L47.66 61.22ZM41.792 66.476V70.688H42.62V66.476H41.792ZM42.284 66.476V67.256H45.368V69.14H42.284V69.908H46.208V66.476H42.284ZM39.452 64.436V71.96H40.34V65.288H48.236V64.436H39.452ZM47.708 64.436V70.832C47.708 71 47.648 71.06 47.456 71.072C47.24 71.072 46.568 71.084 45.824 71.06C45.956 71.3 46.088 71.684 46.124 71.936C47.072 71.936 47.72 71.924 48.092 71.78C48.488 71.636 48.584 71.348 48.584 70.832V64.436H47.708ZM50.762 65.852V66.752H61.334V65.852H50.762ZM51.626 62.888V63.788H60.506V62.888H51.626ZM55.538 60.932V71.96H56.474V60.932H55.538ZM55.298 66.308C54.266 68.012 52.274 69.728 50.426 70.532C50.642 70.724 50.93 71.072 51.086 71.3C52.946 70.352 54.938 68.552 56.078 66.644L55.298 66.308ZM56.714 66.308L55.97 66.632C57.122 68.528 59.114 70.364 60.962 71.3C61.118 71.06 61.406 70.712 61.622 70.532C59.774 69.728 57.758 68 56.714 66.308ZM67.064 65.276C66.5 66.968 65.456 69.308 64.604 70.784L65.432 71.048C66.32 69.596 67.364 67.352 68.12 65.54L67.064 65.276ZM63.128 70.508L63.248 71.456C65.504 71.36 68.864 71.18 72.008 71L72.032 70.136C68.816 70.292 65.324 70.436 63.128 70.508ZM69.368 67.904C70.436 69.176 71.684 70.928 72.248 72.02L73.16 71.528C72.56 70.436 71.324 68.768 70.232 67.508L69.368 67.904ZM65.852 61.28C65.156 63.056 63.968 64.784 62.648 65.864C62.9 66.008 63.32 66.332 63.512 66.512C64.784 65.324 66.044 63.488 66.848 61.556L65.852 61.28ZM70.148 61.268L69.26 61.64C70.184 63.32 71.684 65.36 72.8 66.5C72.98 66.272 73.316 65.924 73.556 65.732C72.452 64.736 70.94 62.84 70.148 61.268ZM77.102 66.236V66.98H83.054V66.236H77.102ZM76.874 68.288V69.056H83.306V68.288H76.874ZM80.87 66.476V71.744H81.686V66.476H80.87ZM78.41 66.512V68.696C78.41 69.356 78.158 70.628 76.946 71.372C77.15 71.492 77.426 71.744 77.546 71.912C78.902 71 79.19 69.428 79.19 68.696V66.512H78.41ZM75.614 63.104V63.752H78.986V63.104H75.614ZM81.146 63.104V63.752H84.542V63.104H81.146ZM84.194 61.436V70.796C84.194 70.976 84.134 71.048 83.942 71.048C83.75 71.06 83.102 71.06 82.442 71.036C82.574 71.288 82.694 71.708 82.73 71.948C83.642 71.948 84.242 71.936 84.602 71.78C84.962 71.624 85.082 71.336 85.082 70.796V61.436H84.194ZM75.686 61.436V62.132H78.686V64.796H75.686V65.48H79.538V61.436H75.686ZM84.626 61.436H80.594V65.492H84.626V64.808H81.458V62.132H84.626V61.436ZM75.146 61.436V71.972H76.034V61.436H75.146Z" fill="#383A44"/>
<path d="M46.5 20L53.8612 32.75H39.1388L46.5 20Z" fill="white"/>
<g clip-path="url(#clip0_39_5885)">
<rect x="35" y="88" width="130" height="20" rx="10" fill="#FF4E84"/>
<path d="M94.9575 97.51L94.9575 98.09L97.1875 98.09L97.1875 97.51L94.9575 97.51ZM95.0275 94.2L95.0275 94.9L98.8875 94.9L98.8875 94.2L95.0275 94.2ZM95.0075 95.98L95.0075 96.58L96.8975 96.58L96.8975 99.09L95.0075 99.09L95.0075 99.7L97.5575 99.7L97.5575 95.98L95.0075 95.98ZM94.5975 95.98L94.5975 100.28L95.2575 100.28L95.2575 95.98L94.5975 95.98ZM98.6275 94.2L98.6275 94.37C98.5475 98.93 98.4475 100.61 98.1575 100.95C98.0475 101.08 97.9475 101.11 97.7575 101.11C97.5175 101.11 96.9475 101.1 96.3075 101.06C96.4375 101.25 96.5275 101.56 96.5475 101.76C97.1075 101.8 97.6875 101.81 98.0275 101.78C98.3775 101.74 98.5975 101.66 98.8075 101.37C99.1675 100.89 99.2575 99.33 99.3475 94.6C99.3475 94.49 99.3475 94.2 99.3475 94.2L98.6275 94.2ZM95.3175 92.59C94.9575 93.92 94.3475 95.22 93.5675 96.05C93.7475 96.17 94.0675 96.42 94.2075 96.55C94.9875 95.63 95.6575 94.23 96.0675 92.77L95.3175 92.59ZM90.8175 95.63L90.8175 96.23L93.6575 96.23L93.6575 95.63L90.8175 95.63ZM90.8575 92.96L90.8575 93.56L93.6175 93.56L93.6175 92.96L90.8575 92.96ZM90.8175 96.97L90.8175 97.57L93.6575 97.57L93.6575 96.97L90.8175 96.97ZM90.3675 94.27L90.3675 94.89L93.9175 94.89L93.9175 94.27L90.3675 94.27ZM91.1475 98.32L91.1475 98.94L93.0075 98.94L93.0075 100.61L91.1475 100.61L91.1475 101.24L93.6575 101.24L93.6575 98.32L91.1475 98.32ZM90.8075 98.32L90.8075 101.7L91.4475 101.7L91.4475 98.32L90.8075 98.32ZM103.422 97.46L103.422 98.09L106.142 98.09L106.142 99.76L103.422 99.76L103.422 100.39L106.842 100.39L106.842 97.46L103.422 97.46ZM103.092 97.46L103.092 100.99L103.792 100.99L103.792 97.46L103.092 97.46ZM101.282 94.48L101.282 95.04L104.062 95.04L104.062 94.48L101.282 94.48ZM105.892 94.48L105.892 95.04L108.722 95.04L108.722 94.48L105.892 94.48ZM108.392 93.03L108.392 100.79C108.392 100.98 108.332 101.04 108.142 101.04C107.952 101.05 107.292 101.06 106.632 101.03C106.742 101.24 106.872 101.59 106.902 101.8C107.782 101.8 108.362 101.79 108.702 101.67C109.022 101.54 109.142 101.3 109.142 100.8L109.142 93.03L108.392 93.03ZM101.342 93.03L101.342 93.64L103.832 93.64L103.832 95.95L101.342 95.95L101.342 96.56L104.542 96.56L104.542 93.03L101.342 93.03ZM108.782 93.03L105.442 93.03L105.442 96.56L108.782 96.56L108.782 95.96L106.162 95.96L106.162 93.63L108.782 93.63L108.782 93.03ZM100.922 93.03L100.922 101.81L101.662 101.81L101.662 93.03L100.922 93.03Z" fill="white"/>
</g>
</g>
<defs>
<filter id="filter0_d_39_5885" x="0" y="0" width="200" height="138" filterUnits="userSpaceOnUse" color-interpolation-filters="sRGB">
<feFlood flood-opacity="0" result="BackgroundImageFix"/>
<feColorMatrix in="SourceAlpha" type="matrix" values="0 0 0 0 0 0 0 0 0 0 0 0 0 0 0 0 0 0 127 0" result="hardAlpha"/>
<feOffset/>
<feGaussianBlur stdDeviation="10"/>
<feComposite in2="hardAlpha" operator="out"/>
<feColorMatrix type="matrix" values="0 0 0 0 0 0 0 0 0 0 0 0 0 0 0 0 0 0 0.25 0"/>
<feBlend mode="normal" in2="BackgroundImageFix" result="effect1_dropShadow_39_5885"/>
<feBlend mode="normal" in="SourceGraphic" in2="effect1_dropShadow_39_5885" result="shape"/>
</filter>
<clipPath id="clip0_39_5885">
<rect x="35" y="88" width="130" height="20" rx="10" fill="white"/>
</clipPath>
</defs>
</svg>
