<svg width="343" height="177" viewBox="0 0 343 177" fill="none" xmlns="http://www.w3.org/2000/svg">
<rect width="343" height="177" rx="15" fill="url(#paint0_linear_20_2177)"/>
<g filter="url(#filter0_d_20_2177)">
<circle cx="137" cy="138" r="25" fill="white"/>
<path d="M125.986 125.91C126.403 125.488 126.97 125.25 127.561 125.25C128.151 125.25 128.718 125.488 129.136 125.91L137.013 133.887L144.891 125.91C145.311 125.5 145.874 125.272 146.458 125.277C147.042 125.282 147.601 125.52 148.014 125.938C148.427 126.356 148.662 126.922 148.667 127.513C148.672 128.105 148.447 128.675 148.041 129.1L140.164 137.076L148.041 145.052C148.447 145.478 148.672 146.047 148.667 146.639C148.662 147.23 148.427 147.796 148.014 148.214C147.601 148.633 147.042 148.87 146.458 148.875C145.874 148.88 145.311 148.653 144.891 148.242L137.013 140.266L129.136 148.242C128.716 148.653 128.153 148.88 127.569 148.875C126.985 148.87 126.426 148.633 126.013 148.214C125.6 147.796 125.365 147.23 125.36 146.639C125.355 146.047 125.58 145.478 125.986 145.052L133.863 137.076L125.986 129.1C125.568 128.677 125.333 128.103 125.333 127.505C125.333 126.907 125.568 126.333 125.986 125.91Z" fill="#6F7387"/>
</g>
<g filter="url(#filter1_d_20_2177)">
<circle cx="207" cy="138" r="25" fill="white"/>
<path d="M192 135.001C192 134.004 192.214 133.018 192.631 132.098C193.047 131.179 193.657 130.346 194.425 129.648C195.193 128.95 196.104 128.4 197.104 128.032C198.104 127.663 199.174 127.483 200.25 127.501C201.523 127.495 202.784 127.739 203.947 128.218C205.111 128.697 206.152 129.4 207 130.279C207.848 129.4 208.889 128.697 210.053 128.218C211.216 127.739 212.477 127.495 213.75 127.501C214.826 127.483 215.896 127.663 216.896 128.032C217.896 128.4 218.807 128.95 219.575 129.648C220.343 130.346 220.953 131.179 221.369 132.098C221.786 133.018 222 134.004 222 135.001C222 142.439 212.431 148.056 207 152.5C201.58 148.018 192 142.445 192 135.001Z" fill="#FF4E84"/>
</g>
<path d="M24.1406 48.791C24.1406 48.4355 24.0859 48.1165 23.9766 47.834C23.8763 47.5423 23.6849 47.278 23.4023 47.041C23.1198 46.7949 22.7233 46.5534 22.2129 46.3164C21.7025 46.0794 21.0417 45.8333 20.2305 45.5781C19.3281 45.2865 18.4714 44.9583 17.6602 44.5938C16.8581 44.2292 16.1471 43.8053 15.5273 43.3223C14.9167 42.8301 14.4336 42.2604 14.0781 41.6133C13.7318 40.9661 13.5586 40.2142 13.5586 39.3574C13.5586 38.528 13.7409 37.776 14.1055 37.1016C14.4701 36.418 14.9805 35.8346 15.6367 35.3516C16.293 34.8594 17.0677 34.4811 17.9609 34.2168C18.8633 33.9525 19.8522 33.8203 20.9277 33.8203C22.3952 33.8203 23.6758 34.0846 24.7695 34.6133C25.8633 35.1419 26.7109 35.8665 27.3125 36.7871C27.9232 37.7077 28.2285 38.7604 28.2285 39.9453H24.1543C24.1543 39.362 24.0312 38.8516 23.7852 38.4141C23.5482 37.9674 23.1836 37.6165 22.6914 37.3613C22.2083 37.1061 21.5977 36.9785 20.8594 36.9785C20.1484 36.9785 19.556 37.0879 19.082 37.3066C18.6081 37.5163 18.2526 37.8034 18.0156 38.168C17.7786 38.5234 17.6602 38.9245 17.6602 39.3711C17.6602 39.7083 17.7422 40.0137 17.9062 40.2871C18.0794 40.5605 18.3346 40.8158 18.6719 41.0527C19.0091 41.2897 19.4238 41.513 19.916 41.7227C20.4082 41.9323 20.9779 42.1374 21.625 42.3379C22.7096 42.666 23.6621 43.0352 24.4824 43.4453C25.3118 43.8555 26.0046 44.3158 26.5605 44.8262C27.1165 45.3366 27.5358 45.9154 27.8184 46.5625C28.1009 47.2096 28.2422 47.9434 28.2422 48.7637C28.2422 49.6296 28.0736 50.4043 27.7363 51.0879C27.3991 51.7715 26.9115 52.3503 26.2734 52.8242C25.6354 53.2982 24.8743 53.6582 23.9902 53.9043C23.1061 54.1504 22.1172 54.2734 21.0234 54.2734C20.0391 54.2734 19.0684 54.1458 18.1113 53.8906C17.1543 53.6263 16.2839 53.2298 15.5 52.7012C14.7253 52.1725 14.1055 51.498 13.6406 50.6777C13.1758 49.8574 12.9434 48.8867 12.9434 47.7656H17.0586C17.0586 48.3854 17.1543 48.9095 17.3457 49.3379C17.5371 49.7663 17.806 50.1126 18.1523 50.377C18.5078 50.6413 18.9271 50.8327 19.4102 50.9512C19.9023 51.0697 20.4401 51.1289 21.0234 51.1289C21.7344 51.1289 22.3177 51.0286 22.7734 50.8281C23.2383 50.6276 23.5801 50.3496 23.7988 49.9941C24.0267 49.6387 24.1406 49.2376 24.1406 48.791ZM39.3295 50.6641V44.0742C39.3295 43.6003 39.2521 43.1947 39.0971 42.8574C38.9422 42.5111 38.7006 42.2422 38.3725 42.0508C38.0535 41.8594 37.6388 41.7637 37.1284 41.7637C36.6909 41.7637 36.3126 41.8411 35.9936 41.9961C35.6746 42.1419 35.4285 42.3561 35.2553 42.6387C35.0821 42.9121 34.9955 43.2357 34.9955 43.6094H31.058C31.058 42.9805 31.2039 42.3835 31.4955 41.8184C31.7872 41.2533 32.211 40.7565 32.767 40.3281C33.323 39.8906 33.9838 39.5488 34.7495 39.3027C35.5242 39.0566 36.3901 38.9336 37.3471 38.9336C38.4955 38.9336 39.5164 39.125 40.4096 39.5078C41.3028 39.8906 42.0047 40.4648 42.5151 41.2305C43.0346 41.9961 43.2944 42.9531 43.2944 44.1016V50.4316C43.2944 51.2428 43.3445 51.9082 43.4448 52.4277C43.545 52.9382 43.6909 53.3848 43.8823 53.7676V54H39.9037C39.7123 53.599 39.5665 53.0977 39.4662 52.4961C39.3751 51.8854 39.3295 51.2747 39.3295 50.6641ZM39.8491 44.9902L39.8764 47.2188H37.6752C37.1557 47.2188 36.7045 47.278 36.3217 47.3965C35.9389 47.515 35.6245 47.6836 35.3784 47.9023C35.1323 48.112 34.95 48.3581 34.8315 48.6406C34.7221 48.9232 34.6674 49.2331 34.6674 49.5703C34.6674 49.9076 34.7449 50.2129 34.8998 50.4863C35.0548 50.7507 35.2781 50.9603 35.5698 51.1152C35.8614 51.2611 36.2032 51.334 36.5952 51.334C37.1876 51.334 37.7026 51.2155 38.1401 50.9785C38.5776 50.7415 38.9148 50.4499 39.1518 50.1035C39.3979 49.7572 39.5255 49.429 39.5346 49.1191L40.5737 50.7871C40.4278 51.1608 40.2273 51.5482 39.9721 51.9492C39.726 52.3503 39.4116 52.7285 39.0287 53.084C38.6459 53.4303 38.1857 53.7174 37.6479 53.9453C37.1101 54.1641 36.4721 54.2734 35.7338 54.2734C34.795 54.2734 33.9428 54.0866 33.1772 53.7129C32.4207 53.3301 31.8191 52.806 31.3725 52.1406C30.935 51.4661 30.7162 50.7005 30.7162 49.8438C30.7162 49.069 30.8621 48.3809 31.1537 47.7793C31.4454 47.1777 31.8738 46.6719 32.4389 46.2617C33.0131 45.8424 33.7286 45.528 34.5854 45.3184C35.4422 45.0996 36.4357 44.9902 37.5659 44.9902H39.8491ZM50.827 42.4336V54H46.8895V39.207H50.5946L50.827 42.4336ZM55.2841 39.1113L55.2157 42.7617C55.0243 42.7344 54.7919 42.7116 54.5184 42.6934C54.2541 42.666 54.0126 42.6523 53.7938 42.6523C53.2378 42.6523 52.7548 42.7253 52.3446 42.8711C51.9436 43.0078 51.6063 43.2129 51.3329 43.4863C51.0686 43.7598 50.868 44.0924 50.7313 44.4844C50.6037 44.8763 50.5308 45.3229 50.5126 45.8242L49.7196 45.5781C49.7196 44.6211 49.8153 43.7415 50.0067 42.9395C50.1981 42.1283 50.4761 41.4219 50.8407 40.8203C51.2144 40.2188 51.6701 39.7539 52.2079 39.4258C52.7456 39.0977 53.3609 38.9336 54.0536 38.9336C54.2723 38.9336 54.4956 38.9518 54.7235 38.9883C54.9514 39.0156 55.1382 39.0566 55.2841 39.1113ZM65.223 50.6641V44.0742C65.223 43.6003 65.1455 43.1947 64.9905 42.8574C64.8356 42.5111 64.5941 42.2422 64.2659 42.0508C63.9469 41.8594 63.5322 41.7637 63.0218 41.7637C62.5843 41.7637 62.206 41.8411 61.887 41.9961C61.568 42.1419 61.3219 42.3561 61.1488 42.6387C60.9756 42.9121 60.889 43.2357 60.889 43.6094H56.9515C56.9515 42.9805 57.0973 42.3835 57.389 41.8184C57.6807 41.2533 58.1045 40.7565 58.6605 40.3281C59.2165 39.8906 59.8773 39.5488 60.6429 39.3027C61.4176 39.0566 62.2835 38.9336 63.2405 38.9336C64.389 38.9336 65.4098 39.125 66.303 39.5078C67.1963 39.8906 67.8981 40.4648 68.4085 41.2305C68.928 41.9961 69.1878 42.9531 69.1878 44.1016V50.4316C69.1878 51.2428 69.2379 51.9082 69.3382 52.4277C69.4385 52.9382 69.5843 53.3848 69.7757 53.7676V54H65.7972C65.6058 53.599 65.4599 53.0977 65.3597 52.4961C65.2685 51.8854 65.223 51.2747 65.223 50.6641ZM65.7425 44.9902L65.7698 47.2188H63.5687C63.0491 47.2188 62.598 47.278 62.2152 47.3965C61.8323 47.515 61.5179 47.6836 61.2718 47.9023C61.0257 48.112 60.8434 48.3581 60.7249 48.6406C60.6155 48.9232 60.5609 49.2331 60.5609 49.5703C60.5609 49.9076 60.6383 50.2129 60.7933 50.4863C60.9482 50.7507 61.1715 50.9603 61.4632 51.1152C61.7549 51.2611 62.0967 51.334 62.4886 51.334C63.081 51.334 63.596 51.2155 64.0335 50.9785C64.471 50.7415 64.8083 50.4499 65.0452 50.1035C65.2913 49.7572 65.4189 49.429 65.428 49.1191L66.4671 50.7871C66.3213 51.1608 66.1208 51.5482 65.8655 51.9492C65.6195 52.3503 65.305 52.7285 64.9222 53.084C64.5394 53.4303 64.0791 53.7174 63.5413 53.9453C63.0036 54.1641 62.3655 54.2734 61.6273 54.2734C60.6885 54.2734 59.8363 54.0866 59.0706 53.7129C58.3141 53.3301 57.7126 52.806 57.2659 52.1406C56.8284 51.4661 56.6097 50.7005 56.6097 49.8438C56.6097 49.069 56.7555 48.3809 57.0472 47.7793C57.3389 47.1777 57.7672 46.6719 58.3323 46.2617C58.9066 45.8424 59.6221 45.528 60.4788 45.3184C61.3356 45.0996 62.3291 44.9902 63.4593 44.9902H65.7425ZM76.6248 33V54H72.6873V33H76.6248ZM76.0642 46.084H74.9841C74.9933 45.054 75.13 44.1061 75.3943 43.2402C75.6586 42.3652 76.0369 41.6087 76.5291 40.9707C77.0213 40.3236 77.6091 39.8223 78.2927 39.4668C78.9854 39.1113 79.7511 38.9336 80.5896 38.9336C81.3188 38.9336 81.9796 39.0384 82.572 39.248C83.1736 39.4486 83.6886 39.7767 84.117 40.2324C84.5545 40.679 84.8917 41.2669 85.1287 41.9961C85.3657 42.7253 85.4841 43.6094 85.4841 44.6484V54H81.5193V44.6211C81.5193 43.9648 81.4236 43.4499 81.2322 43.0762C81.0499 42.6934 80.781 42.4245 80.4255 42.2695C80.0792 42.1055 79.6508 42.0234 79.1404 42.0234C78.5753 42.0234 78.0922 42.1283 77.6912 42.3379C77.2992 42.5475 76.9848 42.8392 76.7478 43.2129C76.5108 43.5775 76.3377 44.0059 76.2283 44.498C76.1189 44.9902 76.0642 45.5189 76.0642 46.084Z" fill="white"/>
<path d="M107.545 52.3125V54H98.9668V52.5498L103.133 48.0059C103.59 47.4902 103.95 47.0449 104.214 46.6699C104.478 46.2949 104.662 45.958 104.768 45.6592C104.879 45.3545 104.935 45.0586 104.935 44.7715C104.935 44.3672 104.858 44.0127 104.706 43.708C104.56 43.3975 104.343 43.1543 104.056 42.9785C103.769 42.7969 103.42 42.7061 103.01 42.7061C102.535 42.7061 102.137 42.8086 101.814 43.0137C101.492 43.2188 101.249 43.5029 101.085 43.8662C100.921 44.2236 100.839 44.6338 100.839 45.0967H98.7207C98.7207 44.3525 98.8906 43.6729 99.2305 43.0576C99.5703 42.4365 100.062 41.9443 100.707 41.5811C101.352 41.2119 102.128 41.0273 103.036 41.0273C103.892 41.0273 104.618 41.1709 105.216 41.458C105.813 41.7451 106.268 42.1523 106.578 42.6797C106.895 43.207 107.053 43.8311 107.053 44.5518C107.053 44.9502 106.988 45.3457 106.859 45.7383C106.73 46.1309 106.546 46.5234 106.306 46.916C106.071 47.3027 105.793 47.6924 105.471 48.085C105.148 48.4717 104.794 48.8643 104.407 49.2627L101.639 52.3125H107.545ZM117.898 46.5293V48.6211C117.898 49.623 117.798 50.4785 117.599 51.1875C117.406 51.8906 117.125 52.4619 116.756 52.9014C116.386 53.3408 115.944 53.6631 115.428 53.8682C114.919 54.0732 114.347 54.1758 113.714 54.1758C113.211 54.1758 112.742 54.1113 112.308 53.9824C111.881 53.8535 111.494 53.6514 111.148 53.376C110.802 53.1006 110.506 52.7461 110.26 52.3125C110.02 51.873 109.833 51.3486 109.698 50.7393C109.569 50.1299 109.505 49.4238 109.505 48.6211V46.5293C109.505 45.5215 109.604 44.6719 109.803 43.9805C110.003 43.2832 110.287 42.7178 110.656 42.2842C111.025 41.8447 111.464 41.5254 111.974 41.3262C112.49 41.127 113.064 41.0273 113.697 41.0273C114.207 41.0273 114.675 41.0918 115.103 41.2207C115.537 41.3438 115.923 41.54 116.263 41.8096C116.609 42.0791 116.902 42.4307 117.142 42.8643C117.388 43.292 117.576 43.8105 117.705 44.4199C117.834 45.0234 117.898 45.7266 117.898 46.5293ZM115.78 48.9199V46.2129C115.78 45.7031 115.751 45.2549 115.692 44.8682C115.633 44.4756 115.546 44.1445 115.428 43.875C115.317 43.5996 115.176 43.377 115.006 43.207C114.837 43.0312 114.643 42.9053 114.426 42.8291C114.21 42.7471 113.966 42.7061 113.697 42.7061C113.369 42.7061 113.076 42.7705 112.818 42.8994C112.56 43.0225 112.343 43.2217 112.168 43.4971C111.992 43.7725 111.857 44.1357 111.763 44.5869C111.675 45.0322 111.631 45.5742 111.631 46.2129V48.9199C111.631 49.4355 111.661 49.8896 111.719 50.2822C111.778 50.6748 111.866 51.0117 111.983 51.293C112.1 51.5684 112.241 51.7969 112.405 51.9785C112.575 52.1543 112.768 52.2832 112.985 52.3652C113.208 52.4473 113.451 52.4883 113.714 52.4883C114.048 52.4883 114.344 52.4238 114.602 52.2949C114.86 52.166 115.077 51.9609 115.253 51.6797C115.428 51.3926 115.56 51.0205 115.648 50.5635C115.736 50.1064 115.78 49.5586 115.78 48.9199Z" fill="white"/>
<path d="M133.87 53.334V54.648H144.004V53.334H133.87ZM133.258 47.772V55.44H134.626V49.068H143.302V55.404H144.724V47.772H133.258ZM136.876 38.826C136.048 40.752 134.572 43.398 133.384 45L134.554 45.504C135.76 43.92 137.272 41.436 138.352 39.348L136.876 38.826ZM141.196 41.742C143.05 43.254 145.102 45.432 146.002 46.926L147.154 46.026C146.218 44.532 144.094 42.408 142.258 40.95L141.196 41.742ZM131.134 44.406L131.224 45.792C134.662 45.648 140.098 45.414 145.156 45.144L145.228 43.848C140.098 44.082 134.554 44.316 131.134 44.406ZM149.512 43.452V44.802H154.804V43.452H149.512ZM158.53 39.222V52.56C158.53 54.504 159.034 55.044 160.708 55.044C161.068 55.044 163.228 55.044 163.606 55.044C165.37 55.044 165.73 53.874 165.892 50.58C165.514 50.49 164.938 50.22 164.596 49.95C164.47 52.938 164.344 53.712 163.516 53.712C163.048 53.712 161.248 53.712 160.852 53.712C160.078 53.712 159.916 53.532 159.916 52.596V39.222H158.53ZM154.138 39.222V55.296H155.524V39.222H154.138ZM164.398 41.994C163.048 43.236 160.816 44.766 158.818 45.864C159.016 46.152 159.286 46.62 159.394 46.926C161.428 45.81 163.732 44.442 165.388 43.164L164.398 41.994ZM148.954 51.804L149.584 53.154C151.132 52.506 153.166 51.66 155.056 50.832L154.804 49.608C152.662 50.454 150.412 51.318 148.954 51.804ZM174.946 38.808V42.174H176.368V38.808H174.946ZM174.964 42.606V55.494H176.35V42.606H174.964ZM167.62 41.382V42.696H183.838V41.382H167.62ZM169.474 45.162V53.208H170.824V46.476H181.3V45.162H169.474ZM180.778 45.162V51.498C180.778 51.75 180.688 51.822 180.364 51.84C180.058 51.858 178.96 51.858 177.736 51.822C177.934 52.2 178.15 52.74 178.204 53.154C179.752 53.154 180.76 53.136 181.39 52.92C181.984 52.686 182.164 52.272 182.164 51.498V45.162H180.778Z" fill="white"/>
<path d="M16.92 73.83V74.51H20.22V73.83H16.92ZM16.68 78.64V79.33H20.59V78.64H16.68ZM18.56 71.54C19.16 72.58 20.26 73.78 21.31 74.51C21.42 74.29 21.59 74 21.74 73.8C20.7 73.17 19.58 71.96 18.91 70.75H18.15C17.65 71.86 16.59 73.16 15.46 73.89C15.6 74.07 15.79 74.35 15.87 74.55C16.99 73.78 18.03 72.55 18.56 71.54ZM16.33 75.65V79.81H17.06V76.33H20.19V79.78H20.94V75.65H16.33ZM13.17 71.65V72.35H14.87V76.34H13.17V77.04H15.59V71.65H13.17ZM12.73 71.65V77.98H13.43V71.65H12.73ZM29.425 71.62H30.475V72.7H29.425V71.62ZM27.885 71.62H28.895V72.7H27.885V71.62ZM26.375 71.62H27.355V72.7H26.375V71.62ZM25.725 71.05V73.27H31.145V71.05H25.725ZM26.395 73.25C26.225 73.71 25.865 74.38 25.605 74.79L26.035 75.01C26.315 74.62 26.675 74.03 26.975 73.51L26.395 73.25ZM27.325 74.15C26.925 74.91 26.215 75.99 25.665 76.63L26.065 76.86C26.635 76.24 27.345 75.23 27.875 74.42L27.325 74.15ZM25.225 74.76C25.635 75.13 26.125 75.67 26.335 76.03L26.695 75.52C26.475 75.18 25.975 74.68 25.565 74.31L25.225 74.76ZM27.285 77.59C27.475 78.08 27.645 78.72 27.705 79.12L28.205 78.93C28.155 78.55 27.955 77.93 27.755 77.44L27.285 77.59ZM27.115 75.93C27.395 76.36 27.665 76.96 27.755 77.34L28.215 77.12C28.105 76.75 27.825 76.18 27.545 75.74L27.115 75.93ZM25.195 76.52L25.245 77.13C25.995 77.09 26.905 77.05 27.855 76.99L27.865 76.44C26.855 76.47 25.895 76.5 25.195 76.52ZM26.385 76.72V79.81H26.985V76.72H26.385ZM25.475 77.44C25.345 78.05 25.135 78.67 24.825 79.12C24.985 79.18 25.245 79.3 25.365 79.38C25.635 78.92 25.895 78.23 26.055 77.57L25.475 77.44ZM28.955 73.32C28.665 74.23 28.225 75.17 27.705 75.81C27.845 75.91 28.085 76.14 28.185 76.24C28.725 75.55 29.245 74.49 29.565 73.48L28.955 73.32ZM29.025 74.65H28.885L28.425 75.2V79.79H29.025V75.26H31.485V74.65H29.025ZM30.385 73.37C30.255 73.82 29.995 74.49 29.795 74.9L30.275 75.09C30.495 74.7 30.755 74.1 30.995 73.58L30.385 73.37ZM29.875 74.9V79.08H30.445V74.9H29.875ZM28.725 76.05V76.61H31.385V76.05H28.725ZM28.725 77.4V77.96H31.405V77.4H28.725ZM28.635 78.79V79.37H31.655V78.79H28.635ZM23.115 71.58V72.26H24.435V76.49H23.115V77.18H25.055V71.58H23.115ZM22.745 71.58V78.01H23.365V71.58H22.745ZM39.08 71.26C39.67 71.78 40.35 72.5 40.65 72.98L41.27 72.54C40.94 72.08 40.24 71.37 39.65 70.87L39.08 71.26ZM32.6 73.56V74.28H41.51V73.56H32.6ZM32.45 76.5L32.67 77.25C33.93 76.97 35.7 76.56 37.34 76.18L37.28 75.5C35.52 75.88 33.64 76.28 32.45 76.5ZM34.75 71.62V78.83C34.75 79.01 34.69 79.06 34.51 79.06C34.33 79.07 33.74 79.08 33.1 79.05C33.21 79.27 33.34 79.61 33.38 79.81C34.21 79.82 34.74 79.79 35.06 79.67C35.38 79.55 35.5 79.33 35.5 78.84V71.62H34.75ZM36.65 70.72C35.69 71.08 34.07 71.42 32.66 71.64C32.76 71.81 32.85 72.09 32.89 72.26C34.32 72.06 36.02 71.75 37.18 71.35L36.65 70.72ZM37.65 70.69C37.69 75.45 38.58 79.84 40.54 79.84C41.29 79.84 41.56 79.35 41.7 77.69C41.49 77.61 41.22 77.44 41.06 77.27C41 78.56 40.88 79.08 40.61 79.08C39.39 79.08 38.41 75.28 38.43 70.69H37.65ZM40.36 74.74C39.47 76.43 37.82 77.97 36.04 78.83C36.23 79 36.44 79.24 36.56 79.43C38.4 78.46 40.05 76.85 41.03 75.02L40.36 74.74ZM42.655 75.01V75.69H51.505V75.01H42.655ZM47.105 76.8V77.46H50.845V76.8H47.105ZM46.775 75.31V79.1H47.535V75.31H46.775ZM44.815 76.94L44.195 77.17C44.975 79.19 46.335 79.61 48.675 79.61H51.425C51.465 79.39 51.585 79.06 51.695 78.89C51.175 78.9 49.085 78.9 48.705 78.9C46.745 78.89 45.425 78.58 44.815 76.94ZM44.385 76.01C44.125 77.48 43.485 78.6 42.425 79.29C42.595 79.41 42.885 79.68 42.995 79.82C44.095 79.02 44.815 77.78 45.135 76.12L44.385 76.01ZM44.435 72.94H49.645V73.76H44.435V72.94ZM44.435 71.59H49.645V72.4H44.435V71.59ZM43.705 71.02V74.33H50.405V71.02H43.705ZM55.5912 72.8379L53.4672 79H52.183L54.8588 71.8906H55.6791L55.5912 72.8379ZM57.3686 79L55.2396 72.8379L55.1469 71.8906H55.9721L58.6576 79H57.3686ZM57.266 76.3633V77.335H53.3988V76.3633H57.266ZM60.6211 71.5V79H59.4395V71.5H60.6211ZM63.1949 73.7168V79H62.0133V73.7168H63.1949ZM61.9352 72.3301C61.9352 72.151 61.9938 72.0029 62.1109 71.8857C62.2314 71.7653 62.3974 71.7051 62.609 71.7051C62.8173 71.7051 62.9817 71.7653 63.1021 71.8857C63.2226 72.0029 63.2828 72.151 63.2828 72.3301C63.2828 72.5059 63.2226 72.6523 63.1021 72.7695C62.9817 72.8867 62.8173 72.9453 62.609 72.9453C62.3974 72.9453 62.2314 72.8867 62.1109 72.7695C61.9938 72.6523 61.9352 72.5059 61.9352 72.3301ZM66.6672 78.1602C66.8592 78.1602 67.0318 78.1227 67.1848 78.0479C67.341 77.9697 67.4663 77.8623 67.5607 77.7256C67.6584 77.5889 67.7121 77.431 67.7219 77.252H68.8303C68.8238 77.5938 68.7229 77.9046 68.5275 78.1846C68.3322 78.4645 68.0734 78.6875 67.7512 78.8535C67.4289 79.0163 67.0725 79.0977 66.6818 79.0977C66.2782 79.0977 65.9266 79.0293 65.6271 78.8926C65.3277 78.7526 65.0786 78.5605 64.8801 78.3164C64.6815 78.0723 64.5318 77.7907 64.4309 77.4717C64.3332 77.1527 64.2844 76.8109 64.2844 76.4463V76.2754C64.2844 75.9108 64.3332 75.569 64.4309 75.25C64.5318 74.9277 64.6815 74.6445 64.8801 74.4004C65.0786 74.1562 65.3277 73.9658 65.6271 73.8291C65.9266 73.6891 66.2766 73.6191 66.677 73.6191C67.1001 73.6191 67.4712 73.7038 67.7902 73.873C68.1092 74.0391 68.3599 74.2718 68.5422 74.5713C68.7277 74.8675 68.8238 75.2126 68.8303 75.6064H67.7219C67.7121 75.4111 67.6633 75.2354 67.5754 75.0791C67.4908 74.9196 67.3703 74.7926 67.2141 74.6982C67.0611 74.6038 66.8771 74.5566 66.6623 74.5566C66.4247 74.5566 66.2277 74.6055 66.0715 74.7031C65.9152 74.7975 65.7932 74.9277 65.7053 75.0938C65.6174 75.2565 65.5539 75.4404 65.5148 75.6455C65.479 75.8473 65.4611 76.0573 65.4611 76.2754V76.4463C65.4611 76.6644 65.479 76.876 65.5148 77.0811C65.5507 77.2861 65.6125 77.4701 65.7004 77.6328C65.7915 77.7923 65.9152 77.9209 66.0715 78.0186C66.2277 78.113 66.4263 78.1602 66.6672 78.1602ZM72.0877 79.0977C71.6971 79.0977 71.3439 79.0342 71.0281 78.9072C70.7156 78.777 70.4487 78.5964 70.2273 78.3652C70.0092 78.1341 69.8416 77.8623 69.7244 77.5498C69.6072 77.2373 69.5486 76.9004 69.5486 76.5391V76.3438C69.5486 75.9303 69.6089 75.556 69.7293 75.2207C69.8497 74.8854 70.0174 74.599 70.2322 74.3613C70.4471 74.1204 70.701 73.9365 70.9939 73.8096C71.2869 73.6826 71.6043 73.6191 71.9461 73.6191C72.3237 73.6191 72.6541 73.6826 72.9373 73.8096C73.2205 73.9365 73.4549 74.1156 73.6404 74.3467C73.8292 74.5745 73.9692 74.8464 74.0604 75.1621C74.1548 75.4779 74.202 75.8262 74.202 76.207V76.71H70.1199V75.8652H73.0398V75.7725C73.0333 75.5609 72.991 75.3623 72.9129 75.1768C72.838 74.9912 72.7225 74.8415 72.5662 74.7275C72.41 74.6136 72.2016 74.5566 71.9412 74.5566C71.7459 74.5566 71.5717 74.599 71.4188 74.6836C71.269 74.765 71.1437 74.8838 71.0428 75.04C70.9419 75.1963 70.8637 75.3851 70.8084 75.6064C70.7563 75.8245 70.7303 76.0703 70.7303 76.3438V76.5391C70.7303 76.7702 70.7612 76.985 70.823 77.1836C70.8882 77.3789 70.9826 77.5498 71.1063 77.6963C71.2299 77.8428 71.3797 77.9583 71.5555 78.043C71.7313 78.1243 71.9314 78.165 72.1561 78.165C72.4393 78.165 72.6915 78.1081 72.9129 77.9941C73.1342 77.8802 73.3263 77.7191 73.4891 77.5107L74.1092 78.1113C73.9952 78.2773 73.8471 78.4368 73.6648 78.5898C73.4826 78.7396 73.2596 78.8617 72.9959 78.9561C72.7355 79.0505 72.4327 79.0977 72.0877 79.0977ZM79.2095 76.59H79.8595L80.0595 72.71L80.0895 71.52H78.9795L79.0095 72.71L79.2095 76.59ZM79.5395 79.05C79.8895 79.05 80.1795 78.8 80.1795 78.4C80.1795 78 79.8895 77.73 79.5395 77.73C79.1795 77.73 78.8895 78 78.8895 78.4C78.8895 78.8 79.1795 79.05 79.5395 79.05ZM86.8145 78.94V79.49H92.3445V78.94H86.8145ZM86.3545 77.39V79.81H87.0945V77.94H92.0545V79.8H92.8245V77.39H86.3545ZM85.3545 71.31V71.89H93.8045V71.31H85.3545ZM86.0645 72.57V73.13H93.1345V72.57H86.0645ZM85.0445 76.23V76.83H94.0745V76.23H85.0445ZM89.1545 70.59V72.81H89.9145V70.59H89.1545ZM87.2445 75.58C87.4245 75.85 87.6045 76.24 87.6545 76.5L88.3745 76.28C88.2945 76.03 88.1245 75.66 87.9245 75.39L87.2445 75.58ZM91.1145 75.34C91.0245 75.63 90.8145 76.05 90.6445 76.33L91.2845 76.5C91.4645 76.25 91.7045 75.89 91.9145 75.51L91.1145 75.34ZM87.2445 74.16H91.8645V74.96H87.2445V74.16ZM86.5345 73.64V75.47H92.6145V73.64H86.5345ZM96.1595 76.52V77.02H99.5195V76.52H96.1595ZM96.1595 77.61V78.11H99.5195V77.61H96.1595ZM96.1495 78.7V79.26H99.7895V78.7H96.1495ZM95.0095 71.29V71.87H100.019V71.29H95.0095ZM97.5795 75.79V78.99H98.2195V75.79H97.5795ZM96.1995 70.61V72.48H96.8695V70.61H96.1995ZM98.1395 70.61V72.48H98.8095V70.61H98.1395ZM95.8595 73.18H96.7095V74.05H95.8595V73.18ZM95.3195 72.68V74.55H97.2695V72.68H95.3195ZM98.2395 73.18H99.1595V74.05H98.2395V73.18ZM97.6995 72.68V74.55H99.7195V72.68H97.6995ZM96.4195 75.39H96.3595L95.7695 76.02V79.78H96.4195V75.93H99.7795V75.39H96.4195ZM97.8895 74.59C97.7995 74.9 97.6195 75.35 97.4595 75.66L97.9895 75.82C98.1495 75.55 98.3595 75.15 98.5595 74.77L97.8895 74.59ZM96.1995 74.54C95.9095 75.45 95.4095 76.34 94.8295 76.95C94.9495 77.08 95.1695 77.38 95.2595 77.52C95.8995 76.82 96.4795 75.76 96.8395 74.71L96.1995 74.54ZM100.669 72.41V73.1H103.639V72.41H100.669ZM101.879 72.7H101.519V74.48C101.529 75.28 101.269 77.85 99.3495 79.2C99.4695 79.34 99.6895 79.64 99.7695 79.8C101.269 78.73 101.779 76.86 101.879 76.04C101.959 76.84 102.419 78.77 103.779 79.8C103.889 79.62 104.099 79.32 104.239 79.16C102.489 77.86 102.229 75.25 102.239 74.48V72.7H101.879ZM100.759 70.59C100.569 72.16 100.219 73.7 99.5795 74.68C99.7595 74.78 100.079 75 100.209 75.11C100.859 74.04 101.259 72.41 101.499 70.7L100.759 70.59ZM103.389 72.41V72.55C103.329 73.3 103.199 74.26 103.049 74.85L103.599 75.12C103.819 74.46 103.999 73.42 104.109 72.54L103.619 72.36L103.509 72.41H103.389ZM109.304 70.63C108.544 70.99 107.164 71.37 105.954 71.63C106.034 71.77 106.134 71.98 106.174 72.13C107.434 71.88 108.884 71.52 109.884 71.11L109.304 70.63ZM105.694 71.37V74.88C105.694 76.25 105.634 78.03 104.984 79.37C105.154 79.46 105.414 79.68 105.504 79.84C106.254 78.36 106.354 76.31 106.354 74.88V71.77C106.484 71.75 106.534 71.71 106.544 71.64L105.694 71.37ZM107.214 72.19V79.42H107.824V72.19H107.214ZM109.254 71.16L108.604 71.14C108.544 76.79 108.944 79.21 113.904 79.82C113.974 79.62 114.144 79.3 114.284 79.15C109.484 78.67 109.184 76.4 109.254 71.16ZM110.444 71.41V72.05H113.214V74.17H110.444V74.81H113.874V71.41H110.444ZM111.704 71.7V74.52H112.274V71.7H111.704ZM110.104 71.41V76.53C110.104 77.42 110.374 77.64 111.284 77.64C111.484 77.64 112.874 77.64 113.094 77.64C113.884 77.64 114.084 77.29 114.174 76.11C113.984 76.07 113.704 75.96 113.554 75.84C113.514 76.8 113.444 76.99 113.054 76.99C112.754 76.99 111.554 76.99 111.344 76.99C110.854 76.99 110.774 76.9 110.774 76.53V71.41H110.104ZM119.199 70.81V78.55H119.989V70.81H119.199ZM115.689 72.99V79.68H116.449V72.99H115.689ZM122.849 72.98V79.64H123.619V72.98H122.849ZM116.059 78.1V78.87H123.189V78.1H116.059ZM126.234 80.07C127.284 79.71 127.964 78.89 127.964 77.81C127.964 77.11 127.664 76.65 127.104 76.65C126.704 76.65 126.344 76.9 126.344 77.37C126.344 77.85 126.684 78.09 127.094 78.09C127.284 78.09 127.484 78.04 127.624 77.86L127.084 77.1L127.274 77.95C127.274 78.7 126.824 79.21 126.004 79.55L126.234 80.07ZM137.139 74.55H135.149V75.25H136.419V78.09H137.139V74.55ZM137.139 77.79H136.489C136.019 78.22 135.479 78.67 135.039 78.99L135.429 79.72C135.929 79.28 136.389 78.85 136.829 78.42C137.449 79.21 138.359 79.56 139.679 79.61C140.799 79.66 142.939 79.64 144.069 79.59C144.099 79.37 144.219 79.02 144.309 78.85C143.099 78.93 140.789 78.96 139.679 78.91C138.489 78.87 137.609 78.53 137.139 77.79ZM135.239 71.27C135.849 71.76 136.539 72.46 136.819 72.96L137.439 72.49C137.129 72 136.429 71.31 135.809 70.86L135.239 71.27ZM140.499 71.77V78.64H141.219V71.77H140.499ZM138.969 75.31H142.779V75.99H138.969V75.31ZM138.969 74.16H142.779V74.82H138.969V74.16ZM138.319 73.65V76.5H143.459V73.65H138.319ZM137.789 70.96V72.26H138.459V71.53H143.289V72.26H143.989V70.96H137.789ZM137.999 72.48V73.04H143.749V72.48H137.999ZM137.619 77.1V77.69H144.169V77.1H137.619ZM145.404 77.14V77.71H149.964V77.14H145.404ZM145.134 72.32V72.9H150.124V72.32H145.134ZM147.304 71.41V78.77H147.994V71.41H147.304ZM145.124 78.79L145.234 79.44C146.504 79.31 148.314 79.1 150.014 78.9L150.004 78.31C148.214 78.5 146.344 78.68 145.124 78.79ZM146.054 75.27H149.294V76.01H146.054V75.27ZM146.054 74.05H149.294V74.77H146.054V74.05ZM145.424 73.53V76.53H149.934V73.53H145.424ZM149.574 70.7C148.544 70.94 146.724 71.12 145.234 71.2C145.314 71.35 145.384 71.6 145.414 71.76C146.914 71.71 148.774 71.54 149.954 71.28L149.574 70.7ZM150.054 72.94V73.64H153.664V72.94H150.054ZM153.374 72.94V73.12C153.264 77.17 153.154 78.61 152.904 78.92C152.814 79.05 152.714 79.08 152.554 79.08C152.354 79.08 151.914 79.07 151.424 79.03C151.544 79.23 151.624 79.54 151.644 79.75C152.104 79.78 152.584 79.78 152.864 79.75C153.164 79.72 153.364 79.63 153.544 79.37C153.874 78.94 153.974 77.54 154.084 73.32C154.084 73.22 154.094 72.94 154.094 72.94H153.374ZM151.264 70.73C151.254 74.51 151.304 77.68 149.014 79.32C149.194 79.44 149.454 79.68 149.574 79.86C151.964 78.07 151.974 74.71 151.984 70.73H151.264ZM156.309 80.07C157.359 79.71 158.039 78.89 158.039 77.81C158.039 77.11 157.739 76.65 157.179 76.65C156.779 76.65 156.419 76.9 156.419 77.37C156.419 77.85 156.759 78.09 157.169 78.09C157.359 78.09 157.559 78.04 157.699 77.86L157.159 77.1L157.349 77.95C157.349 78.7 156.899 79.21 156.079 79.55L156.309 80.07ZM165.544 72.94V74.68H166.264V73.54H173.234V74.75H173.974V72.94H165.544ZM172.954 70.6C171.334 70.93 168.324 71.13 165.874 71.2C165.934 71.35 166.014 71.61 166.024 71.77C168.524 71.71 171.554 71.51 173.454 71.12L172.954 70.6ZM166.774 71.87C167.064 72.23 167.354 72.74 167.454 73.07L168.104 72.8C167.984 72.45 167.684 71.97 167.374 71.62L166.774 71.87ZM168.954 71.68C169.224 72.07 169.474 72.61 169.544 72.95L170.204 72.72C170.124 72.36 169.854 71.84 169.574 71.46L168.954 71.68ZM171.634 74.38C172.204 74.84 172.874 75.52 173.174 75.97L173.724 75.56C173.414 75.11 172.734 74.46 172.154 74.02L171.634 74.38ZM168.824 73.86C169.354 74.09 169.984 74.47 170.314 74.74L170.704 74.29C170.384 74.02 169.724 73.67 169.204 73.45L168.824 73.86ZM172.314 71.45C172.094 71.91 171.664 72.57 171.354 72.99L171.904 73.23C172.244 72.84 172.674 72.26 173.034 71.73L172.314 71.45ZM171.714 76.54V76.66C170.664 78.21 168.044 78.94 165.294 79.2C165.434 79.35 165.624 79.65 165.694 79.83C168.484 79.48 171.214 78.69 172.484 76.83L172.014 76.52L171.884 76.54H171.714ZM167.984 76.94L167.394 77.19C168.674 78.74 171.114 79.54 173.834 79.82C173.934 79.62 174.114 79.31 174.274 79.15C171.574 78.94 169.134 78.24 167.984 76.94ZM168.664 75.71C167.944 76.61 166.674 77.38 165.434 77.86C165.584 77.97 165.844 78.22 165.964 78.36C167.174 77.82 168.494 76.96 169.324 75.95L168.664 75.71ZM168.014 74.13V75.09C168.014 75.73 168.234 75.88 169.144 75.88C169.324 75.88 170.564 75.88 170.764 75.88C171.414 75.88 171.614 75.69 171.684 74.88C171.494 74.84 171.234 74.76 171.084 74.66C171.054 75.25 170.984 75.32 170.674 75.32C170.404 75.32 169.394 75.32 169.204 75.32C168.784 75.32 168.714 75.29 168.714 75.08V74.13H168.014ZM167.034 74.14C166.814 74.74 166.404 75.33 165.804 75.66L166.334 76.09C166.994 75.7 167.374 75.03 167.614 74.38L167.034 74.14ZM168.204 76.54L167.644 77.1H171.884V76.54H168.204ZM179.849 70.61C179.459 71.96 178.819 73.29 178.029 74.14C178.209 74.25 178.509 74.48 178.639 74.6C179.419 73.67 180.119 72.25 180.569 70.78L179.849 70.61ZM179.729 72.09L179.379 72.78H183.609V72.09H179.729ZM183.339 72.09V72.26C183.219 76.88 183.069 78.54 182.769 78.9C182.669 79.04 182.559 79.07 182.379 79.06C182.169 79.06 181.659 79.06 181.099 79.02C181.239 79.22 181.319 79.55 181.329 79.77C181.849 79.79 182.379 79.81 182.679 79.77C183.019 79.73 183.229 79.65 183.439 79.35C183.809 78.88 183.939 77.27 184.069 72.49C184.069 72.38 184.079 72.09 184.079 72.09H183.339ZM179.209 74.01V78.09H179.889V74.01H179.209ZM179.539 74.01V74.66H181.449V76.69H179.539V77.35H182.129V74.01H179.539ZM175.309 71.1C177.059 72.57 177.299 74.18 177.299 76.01C177.299 77.34 177.199 78.53 176.939 78.88C176.859 78.99 176.759 79.04 176.599 79.06C176.359 79.09 175.949 79.09 175.449 79.06C175.589 79.27 175.669 79.55 175.669 79.8C176.119 79.82 176.549 79.81 176.909 79.75C177.159 79.7 177.359 79.59 177.499 79.4C177.919 78.84 178.029 77.5 178.029 76.02C178.029 74.11 177.789 72.29 175.829 70.68L175.309 71.1ZM177.309 74.18C176.879 75.16 175.979 76.27 175.199 76.82C175.379 76.96 175.599 77.22 175.719 77.39C176.519 76.73 177.409 75.54 177.869 74.51L177.309 74.18ZM177.749 70.66C177.199 71.69 176.199 72.84 175.159 73.6C175.319 73.73 175.559 73.95 175.679 74.1C176.739 73.28 177.769 72.15 178.419 71.01L177.749 70.66ZM186.384 80.07C187.434 79.71 188.114 78.89 188.114 77.81C188.114 77.11 187.814 76.65 187.254 76.65C186.854 76.65 186.494 76.9 186.494 77.37C186.494 77.85 186.834 78.09 187.244 78.09C187.434 78.09 187.634 78.04 187.774 77.86L187.234 77.1L187.424 77.95C187.424 78.7 186.974 79.21 186.154 79.55L186.384 80.07ZM195.559 72V72.73H204.189V72H195.559ZM199.419 70.61V79.8H200.199V70.61H199.419ZM199.509 75.05C198.609 76.57 196.879 78.03 195.209 78.71C195.379 78.86 195.619 79.16 195.739 79.35C197.429 78.56 199.159 77.01 200.139 75.3L199.509 75.05ZM200.159 75.07L199.529 75.33C200.499 77.04 202.199 78.6 203.919 79.37C204.049 79.16 204.289 78.86 204.479 78.7C202.749 78.04 201.039 76.6 200.159 75.07ZM196.889 74.53C197.369 74.95 197.969 75.55 198.279 75.91L198.789 75.4C198.479 75.04 197.859 74.47 197.389 74.07L196.889 74.53ZM197.309 72.97C197.009 74.26 196.379 75.35 195.469 76.03C195.649 76.15 195.939 76.39 196.059 76.52C196.989 75.75 197.689 74.56 198.039 73.1L197.309 72.97ZM201.699 74.55C202.379 75.1 203.279 75.87 203.709 76.35L204.239 75.83C203.789 75.37 202.869 74.62 202.199 74.11L201.699 74.55ZM202.049 72.97C201.829 74.09 201.349 75.07 200.619 75.68C200.799 75.77 201.119 75.98 201.259 76.1C201.969 75.4 202.509 74.35 202.769 73.09L202.049 72.97ZM211.064 71.3C210.894 72.67 210.484 74.13 208.854 74.88C209.014 75 209.224 75.25 209.304 75.41C211.054 74.54 211.544 72.92 211.754 71.3H211.064ZM209.224 72.73C210.264 73.08 211.514 73.74 212.184 74.23L212.544 73.64C211.884 73.18 210.634 72.56 209.594 72.21L209.224 72.73ZM213.424 71.03V71.16C213.344 73.42 213.244 74.22 213.064 74.43C212.994 74.51 212.904 74.54 212.744 74.53C212.584 74.53 212.164 74.53 211.704 74.49C211.814 74.67 211.884 74.96 211.894 75.17C212.364 75.19 212.834 75.2 213.074 75.18C213.344 75.15 213.514 75.08 213.674 74.89C213.924 74.6 214.024 73.71 214.124 71.35C214.134 71.25 214.134 71.03 214.134 71.03H213.424ZM210.354 76.36V78.78C210.354 79.52 210.524 79.73 211.284 79.73C211.444 79.73 212.234 79.73 212.394 79.73C213.024 79.73 213.214 79.42 213.294 78.2C213.094 78.14 212.794 78.04 212.654 77.92C212.624 78.92 212.584 79.06 212.314 79.06C212.154 79.06 211.504 79.06 211.374 79.06C211.094 79.06 211.054 79.02 211.054 78.77V76.36H210.354ZM209.404 76.7C209.304 77.53 209.084 78.41 208.604 78.9L209.164 79.27C209.694 78.71 209.904 77.74 210.014 76.85L209.404 76.7ZM210.524 75.44C211.174 75.82 211.934 76.4 212.294 76.82L212.764 76.31C212.394 75.89 211.624 75.35 210.964 75L210.524 75.44ZM212.854 76.77C213.374 77.5 213.814 78.51 213.944 79.19L214.614 78.91C214.464 78.23 214.014 77.25 213.474 76.52L212.854 76.77ZM209.314 71.03V71.68H213.734V71.03H209.314ZM205.694 73.63V74.23H208.534V73.63H205.694ZM205.734 70.96V71.56H208.494V70.96H205.734ZM205.694 74.97V75.57H208.534V74.97H205.694ZM205.244 72.27V72.89H208.814V72.27H205.244ZM206.024 76.32V76.94H207.884V78.61H206.024V79.24H208.534V76.32H206.024ZM205.684 76.32V79.7H206.324V76.32H205.684ZM219.019 76.64V77.18H221.139V76.64H219.019ZM218.479 71.7V72.3H221.759V71.7H218.479ZM218.219 74.01V74.63H224.389V74.01H218.219ZM218.999 75.26V75.82H220.869V78.04H218.999V78.6H221.499V75.26H218.999ZM218.749 75.26V79.14H219.349V75.26H218.749ZM219.799 70.61V71.99H220.489V70.61H219.799ZM218.889 72.51C219.049 72.98 219.159 73.57 219.169 73.96L219.749 73.83C219.739 73.44 219.609 72.84 219.429 72.39L218.889 72.51ZM222.869 71.31C223.299 71.85 223.709 72.6 223.859 73.11L224.479 72.84C224.309 72.34 223.879 71.61 223.439 71.08L222.869 71.31ZM220.769 72.34C220.699 72.78 220.539 73.44 220.419 73.86L220.949 73.98C221.089 73.6 221.249 72.99 221.409 72.47L220.769 72.34ZM221.999 70.62C222.039 76.12 222.159 79.75 223.759 79.84C224.109 79.85 224.439 79.46 224.629 78.07C224.509 78.01 224.249 77.83 224.139 77.68C224.079 78.51 223.949 79.03 223.779 79.02C222.839 78.94 222.619 75.57 222.659 70.62H221.999ZM223.539 75.08C222.999 77.04 221.829 78.51 220.449 79.34C220.589 79.45 220.789 79.64 220.879 79.77C222.299 78.88 223.509 77.38 224.129 75.38L223.539 75.08ZM215.669 73.63V74.23H218.109V73.63H215.669ZM215.719 70.96V71.56H218.089V70.96H215.719ZM215.669 74.97V75.57H218.109V74.97H215.669ZM215.269 72.27V72.89H218.349V72.27H215.269ZM215.999 76.32V76.94H217.499V78.61H215.999V79.23H218.119V76.32H215.999ZM215.649 76.32V79.7H216.259V76.32H215.649ZM225.354 74.69V75.51H234.504V74.69H225.354ZM235.489 71.34V72.1H244.389V71.34H235.489ZM239.339 71.94V79.79H240.129V71.94H239.339ZM239.779 74.31C240.989 74.93 242.549 75.88 243.319 76.5L243.849 75.82C243.049 75.22 241.469 74.31 240.269 73.73L239.779 74.31ZM246.174 71.56V72.25H247.704V76.45H246.174V77.15H248.404V71.56H246.174ZM245.734 71.56V78.11H246.434V71.56H245.734ZM249.284 71.25V78.21C249.284 79.34 249.644 79.61 250.764 79.61C251.024 79.61 252.944 79.61 253.214 79.61C254.264 79.61 254.504 79.15 254.624 77.78C254.414 77.74 254.114 77.62 253.934 77.49C253.854 78.63 253.754 78.91 253.184 78.91C252.784 78.91 251.114 78.91 250.794 78.91C250.134 78.91 250.024 78.79 250.024 78.22V71.25H249.284ZM249.644 71.25V71.95H253.494V76.51H254.224V71.25H249.644ZM249.624 75.18V75.87H253.764V75.18H249.624ZM251.384 71.5V75.4H252.074V71.5H251.384ZM259.659 76.59H260.309L260.509 72.71L260.539 71.52H259.429L259.459 72.71L259.659 76.59ZM259.989 79.05C260.339 79.05 260.629 78.8 260.629 78.4C260.629 78 260.339 77.73 259.989 77.73C259.629 77.73 259.339 78 259.339 78.4C259.339 78.8 259.629 79.05 259.989 79.05Z" fill="white"/>
<defs>
<filter id="filter0_d_20_2177" x="102" y="103" width="70" height="70" filterUnits="userSpaceOnUse" color-interpolation-filters="sRGB">
<feFlood flood-opacity="0" result="BackgroundImageFix"/>
<feColorMatrix in="SourceAlpha" type="matrix" values="0 0 0 0 0 0 0 0 0 0 0 0 0 0 0 0 0 0 127 0" result="hardAlpha"/>
<feOffset/>
<feGaussianBlur stdDeviation="5"/>
<feComposite in2="hardAlpha" operator="out"/>
<feColorMatrix type="matrix" values="0 0 0 0 0 0 0 0 0 0 0 0 0 0 0 0 0 0 0.25 0"/>
<feBlend mode="normal" in2="BackgroundImageFix" result="effect1_dropShadow_20_2177"/>
<feBlend mode="normal" in="SourceGraphic" in2="effect1_dropShadow_20_2177" result="shape"/>
</filter>
<filter id="filter1_d_20_2177" x="172" y="103" width="70" height="70" filterUnits="userSpaceOnUse" color-interpolation-filters="sRGB">
<feFlood flood-opacity="0" result="BackgroundImageFix"/>
<feColorMatrix in="SourceAlpha" type="matrix" values="0 0 0 0 0 0 0 0 0 0 0 0 0 0 0 0 0 0 127 0" result="hardAlpha"/>
<feOffset/>
<feGaussianBlur stdDeviation="5"/>
<feComposite in2="hardAlpha" operator="out"/>
<feColorMatrix type="matrix" values="0 0 0 0 0 0 0 0 0 0 0 0 0 0 0 0 0 0 0.25 0"/>
<feBlend mode="normal" in2="BackgroundImageFix" result="effect1_dropShadow_20_2177"/>
<feBlend mode="normal" in="SourceGraphic" in2="effect1_dropShadow_20_2177" result="shape"/>
</filter>
<linearGradient id="paint0_linear_20_2177" x1="99.47" y1="184.08" x2="99.47" y2="1.52731e-07" gradientUnits="userSpaceOnUse">
<stop stop-color="#4A4D5A"/>
<stop offset="0.588542" stop-color="#4A4D5A" stop-opacity="0.476938"/>
<stop offset="1" stop-color="#4A4D5A" stop-opacity="0"/>
</linearGradient>
</defs>
</svg>
