<svg width="165" height="64" viewBox="0 0 165 64" fill="none" xmlns="http://www.w3.org/2000/svg">
<path d="M0 0H165V49C165 57.2843 158.284 64 150 64H15C6.71572 64 0 57.2843 0 49V0Z" fill="url(#paint0_linear_53_7943)"/>
<path d="M17.1406 12.0703C17.1406 11.8359 17.1042 11.6276 17.0312 11.4453C16.9635 11.263 16.8411 11.0964 16.6641 10.9453C16.487 10.7943 16.237 10.6484 15.9141 10.5078C15.5964 10.362 15.1901 10.2135 14.6953 10.0625C14.1536 9.89583 13.6536 9.71094 13.1953 9.50781C12.7422 9.29948 12.3464 9.0599 12.0078 8.78906C11.6693 8.51302 11.4062 8.19792 11.2188 7.84375C11.0312 7.48438 10.9375 7.07031 10.9375 6.60156C10.9375 6.13802 11.0339 5.71615 11.2266 5.33594C11.4245 4.95573 11.7031 4.6276 12.0625 4.35156C12.4271 4.07031 12.8568 3.85417 13.3516 3.70312C13.8464 3.54688 14.3932 3.46875 14.9922 3.46875C15.8359 3.46875 16.5625 3.625 17.1719 3.9375C17.7865 4.25 18.2578 4.66927 18.5859 5.19531C18.9193 5.72135 19.0859 6.30208 19.0859 6.9375H17.1406C17.1406 6.5625 17.0599 6.23177 16.8984 5.94531C16.7422 5.65365 16.5026 5.42448 16.1797 5.25781C15.862 5.09115 15.4583 5.00781 14.9688 5.00781C14.5052 5.00781 14.1198 5.07812 13.8125 5.21875C13.5052 5.35938 13.276 5.54948 13.125 5.78906C12.974 6.02865 12.8984 6.29948 12.8984 6.60156C12.8984 6.8151 12.9479 7.01042 13.0469 7.1875C13.1458 7.35938 13.2969 7.52083 13.5 7.67188C13.7031 7.81771 13.9583 7.95573 14.2656 8.08594C14.5729 8.21615 14.9349 8.34115 15.3516 8.46094C15.9818 8.64844 16.5312 8.85677 17 9.08594C17.4688 9.3099 17.8594 9.5651 18.1719 9.85156C18.4844 10.138 18.7188 10.4635 18.875 10.8281C19.0312 11.1875 19.1094 11.5964 19.1094 12.0547C19.1094 12.5339 19.013 12.9661 18.8203 13.3516C18.6276 13.7318 18.3516 14.0573 17.9922 14.3281C17.638 14.5938 17.2109 14.7995 16.7109 14.9453C16.2161 15.0859 15.6641 15.1562 15.0547 15.1562C14.5078 15.1562 13.9688 15.0833 13.4375 14.9375C12.9115 14.7917 12.4323 14.5703 12 14.2734C11.5677 13.9714 11.224 13.5964 10.9688 13.1484C10.7135 12.6953 10.5859 12.1667 10.5859 11.5625H12.5469C12.5469 11.9323 12.6094 12.2474 12.7344 12.5078C12.8646 12.7682 13.0443 12.9818 13.2734 13.1484C13.5026 13.3099 13.7682 13.4297 14.0703 13.5078C14.3776 13.5859 14.7057 13.625 15.0547 13.625C15.513 13.625 15.8958 13.5599 16.2031 13.4297C16.5156 13.2995 16.75 13.1172 16.9062 12.8828C17.0625 12.6484 17.1406 12.3776 17.1406 12.0703ZM25.7419 13.3047V9.27344C25.7419 8.97135 25.6872 8.71094 25.5778 8.49219C25.4684 8.27344 25.3018 8.10417 25.0778 7.98438C24.8591 7.86458 24.583 7.80469 24.2497 7.80469C23.9424 7.80469 23.6768 7.85677 23.4528 7.96094C23.2289 8.0651 23.0544 8.20573 22.9294 8.38281C22.8044 8.5599 22.7419 8.76042 22.7419 8.98438H20.8669C20.8669 8.65104 20.9476 8.32812 21.1091 8.01562C21.2705 7.70312 21.5049 7.42448 21.8122 7.17969C22.1195 6.9349 22.4867 6.74219 22.9137 6.60156C23.3408 6.46094 23.82 6.39062 24.3512 6.39062C24.9867 6.39062 25.5492 6.4974 26.0387 6.71094C26.5335 6.92448 26.9216 7.2474 27.2028 7.67969C27.4893 8.10677 27.6325 8.64323 27.6325 9.28906V13.0469C27.6325 13.4323 27.6585 13.7786 27.7106 14.0859C27.7679 14.388 27.8486 14.651 27.9528 14.875V15H26.0231C25.9346 14.7969 25.8643 14.5391 25.8122 14.2266C25.7653 13.9089 25.7419 13.6016 25.7419 13.3047ZM26.0153 9.85938L26.0309 11.0234H24.6794C24.3304 11.0234 24.0231 11.0573 23.7575 11.125C23.4919 11.1875 23.2705 11.2812 23.0934 11.4062C22.9164 11.5312 22.7835 11.6823 22.695 11.8594C22.6065 12.0365 22.5622 12.237 22.5622 12.4609C22.5622 12.6849 22.6143 12.8906 22.7184 13.0781C22.8226 13.2604 22.9736 13.4036 23.1716 13.5078C23.3747 13.612 23.6195 13.6641 23.9059 13.6641C24.2914 13.6641 24.6273 13.5859 24.9137 13.4297C25.2054 13.2682 25.4346 13.0729 25.6012 12.8438C25.7679 12.6094 25.8565 12.388 25.8669 12.1797L26.4762 13.0156C26.4137 13.2292 26.307 13.4583 26.1559 13.7031C26.0049 13.9479 25.807 14.1823 25.5622 14.4062C25.3226 14.625 25.0335 14.8047 24.695 14.9453C24.3617 15.0859 23.9762 15.1562 23.5387 15.1562C22.9867 15.1562 22.4945 15.0469 22.0622 14.8281C21.6299 14.6042 21.2914 14.3047 21.0466 13.9297C20.8018 13.5495 20.6794 13.1198 20.6794 12.6406C20.6794 12.1927 20.7627 11.7969 20.9294 11.4531C21.1012 11.1042 21.3512 10.8125 21.6794 10.5781C22.0127 10.3438 22.419 10.1667 22.8981 10.0469C23.3773 9.92188 23.9242 9.85938 24.5387 9.85938H26.0153ZM31.8119 8.15625V15H29.9291V6.54688H31.7259L31.8119 8.15625ZM34.3978 6.49219L34.3822 8.24219C34.2676 8.22135 34.1426 8.20573 34.0072 8.19531C33.877 8.1849 33.7468 8.17969 33.6166 8.17969C33.2936 8.17969 33.0098 8.22656 32.765 8.32031C32.5202 8.40885 32.3145 8.53906 32.1478 8.71094C31.9864 8.8776 31.8614 9.08073 31.7728 9.32031C31.6843 9.5599 31.6322 9.82812 31.6166 10.125L31.1869 10.1562C31.1869 9.625 31.239 9.13281 31.3431 8.67969C31.4473 8.22656 31.6035 7.82812 31.8119 7.48438C32.0254 7.14062 32.291 6.8724 32.6087 6.67969C32.9317 6.48698 33.3041 6.39062 33.7259 6.39062C33.8405 6.39062 33.9629 6.40104 34.0931 6.42188C34.2285 6.44271 34.3301 6.46615 34.3978 6.49219ZM40.3819 13.3047V9.27344C40.3819 8.97135 40.3272 8.71094 40.2178 8.49219C40.1084 8.27344 39.9418 8.10417 39.7178 7.98438C39.4991 7.86458 39.223 7.80469 38.8897 7.80469C38.5824 7.80469 38.3168 7.85677 38.0928 7.96094C37.8689 8.0651 37.6944 8.20573 37.5694 8.38281C37.4444 8.5599 37.3819 8.76042 37.3819 8.98438H35.5069C35.5069 8.65104 35.5876 8.32812 35.7491 8.01562C35.9105 7.70312 36.1449 7.42448 36.4522 7.17969C36.7595 6.9349 37.1267 6.74219 37.5537 6.60156C37.9808 6.46094 38.46 6.39062 38.9912 6.39062C39.6267 6.39062 40.1892 6.4974 40.6787 6.71094C41.1735 6.92448 41.5616 7.2474 41.8428 7.67969C42.1293 8.10677 42.2725 8.64323 42.2725 9.28906V13.0469C42.2725 13.4323 42.2985 13.7786 42.3506 14.0859C42.4079 14.388 42.4886 14.651 42.5928 14.875V15H40.6631C40.5746 14.7969 40.5043 14.5391 40.4522 14.2266C40.4053 13.9089 40.3819 13.6016 40.3819 13.3047ZM40.6553 9.85938L40.6709 11.0234H39.3194C38.9704 11.0234 38.6631 11.0573 38.3975 11.125C38.1319 11.1875 37.9105 11.2812 37.7334 11.4062C37.5564 11.5312 37.4235 11.6823 37.335 11.8594C37.2465 12.0365 37.2022 12.237 37.2022 12.4609C37.2022 12.6849 37.2543 12.8906 37.3584 13.0781C37.4626 13.2604 37.6136 13.4036 37.8116 13.5078C38.0147 13.612 38.2595 13.6641 38.5459 13.6641C38.9314 13.6641 39.2673 13.5859 39.5537 13.4297C39.8454 13.2682 40.0746 13.0729 40.2412 12.8438C40.4079 12.6094 40.4965 12.388 40.5069 12.1797L41.1162 13.0156C41.0537 13.2292 40.947 13.4583 40.7959 13.7031C40.6449 13.9479 40.447 14.1823 40.2022 14.4062C39.9626 14.625 39.6735 14.8047 39.335 14.9453C39.0017 15.0859 38.6162 15.1562 38.1787 15.1562C37.6267 15.1562 37.1345 15.0469 36.7022 14.8281C36.2699 14.6042 35.9314 14.3047 35.6866 13.9297C35.4418 13.5495 35.3194 13.1198 35.3194 12.6406C35.3194 12.1927 35.4027 11.7969 35.5694 11.4531C35.7412 11.1042 35.9912 10.8125 36.3194 10.5781C36.6527 10.3438 37.059 10.1667 37.5381 10.0469C38.0173 9.92188 38.5642 9.85938 39.1787 9.85938H40.6553ZM46.4206 3V15H44.5456V3H46.4206ZM46.0925 10.4609L45.4831 10.4531C45.4883 9.86979 45.5691 9.33073 45.7253 8.83594C45.8868 8.34115 46.1107 7.91146 46.3972 7.54688C46.6889 7.17708 47.0378 6.89323 47.4441 6.69531C47.8503 6.49219 48.3008 6.39062 48.7956 6.39062C49.2123 6.39062 49.5873 6.44792 49.9206 6.5625C50.2592 6.67708 50.5508 6.86198 50.7956 7.11719C51.0404 7.36719 51.2253 7.69531 51.3503 8.10156C51.4805 8.5026 51.5456 8.99219 51.5456 9.57031V15H49.655V9.55469C49.655 9.14844 49.5951 8.82552 49.4753 8.58594C49.3607 8.34635 49.1915 8.17448 48.9675 8.07031C48.7435 7.96094 48.4701 7.90625 48.1472 7.90625C47.8086 7.90625 47.5092 7.97396 47.2487 8.10938C46.9935 8.24479 46.78 8.42969 46.6081 8.66406C46.4362 8.89844 46.306 9.16927 46.2175 9.47656C46.1342 9.78385 46.0925 10.112 46.0925 10.4609ZM63.4708 13.875V15H57.752V14.0332L60.5294 11.0039C60.8341 10.6602 61.0743 10.3633 61.2501 10.1133C61.4259 9.86328 61.5489 9.63867 61.6192 9.43945C61.6934 9.23633 61.7305 9.03906 61.7305 8.84766C61.7305 8.57812 61.6798 8.3418 61.5782 8.13867C61.4805 7.93164 61.336 7.76953 61.1446 7.65234C60.9532 7.53125 60.7208 7.4707 60.4473 7.4707C60.1309 7.4707 59.8653 7.53906 59.6505 7.67578C59.4356 7.8125 59.2735 8.00195 59.1641 8.24414C59.0548 8.48242 59.0001 8.75586 59.0001 9.06445H57.588C57.588 8.56836 57.7012 8.11523 57.9278 7.70508C58.1544 7.29102 58.4825 6.96289 58.9122 6.7207C59.3419 6.47461 59.8595 6.35156 60.4649 6.35156C61.0352 6.35156 61.5196 6.44727 61.918 6.63867C62.3165 6.83008 62.6192 7.10156 62.8262 7.45312C63.0372 7.80469 63.1427 8.2207 63.1427 8.70117C63.1427 8.9668 63.0997 9.23047 63.0137 9.49219C62.9278 9.75391 62.8048 10.0156 62.6446 10.2773C62.4884 10.5352 62.3028 10.7949 62.088 11.0566C61.8731 11.3145 61.6368 11.5762 61.379 11.8418L59.5333 13.875H63.4708ZM66.0848 11.0332L64.9598 10.7578L65.4227 6.46875H70.0223V7.66406H66.5945L66.3602 9.75586C66.493 9.67773 66.6766 9.60156 66.9109 9.52734C67.1453 9.44922 67.4129 9.41016 67.7137 9.41016C68.116 9.41016 68.4754 9.47656 68.7918 9.60938C69.1121 9.73828 69.3836 9.92773 69.6063 10.1777C69.8289 10.4238 69.9988 10.7246 70.116 11.0801C70.2332 11.4316 70.2918 11.8281 70.2918 12.2695C70.2918 12.6641 70.2332 13.0332 70.116 13.377C70.0027 13.7207 69.8309 14.0234 69.6004 14.2852C69.3699 14.5469 69.0789 14.752 68.7273 14.9004C68.3797 15.0449 67.9676 15.1172 67.491 15.1172C67.1355 15.1172 66.7938 15.0664 66.4656 14.9648C66.1414 14.8594 65.8504 14.7051 65.5926 14.502C65.3348 14.2949 65.1277 14.041 64.9715 13.7402C64.8152 13.4355 64.7254 13.0859 64.702 12.6914H66.0848C66.1199 12.9688 66.1961 13.2051 66.3133 13.4004C66.4344 13.5918 66.5945 13.7383 66.7938 13.8398C66.993 13.9414 67.2234 13.9922 67.4852 13.9922C67.7234 13.9922 67.9285 13.9512 68.1004 13.8691C68.2723 13.7832 68.4148 13.6621 68.5281 13.5059C68.6453 13.3457 68.7313 13.1582 68.7859 12.9434C68.8445 12.7285 68.8738 12.4902 68.8738 12.2285C68.8738 11.9785 68.8406 11.75 68.7742 11.543C68.7117 11.3359 68.616 11.1562 68.4871 11.0039C68.3621 10.8516 68.2039 10.7344 68.0125 10.6523C67.8211 10.5664 67.6004 10.5234 67.3504 10.5234C67.0145 10.5234 66.7566 10.5723 66.577 10.6699C66.4012 10.7676 66.2371 10.8887 66.0848 11.0332ZM76.4064 14.556V15.432H83.1624V14.556H76.4064ZM75.9984 10.848V15.96H76.9104V11.712H82.6944V15.936H83.6424V10.848H75.9984ZM78.4104 4.884C77.8584 6.168 76.8744 7.932 76.0824 9L76.8624 9.336C77.6664 8.28 78.6744 6.624 79.3944 5.232L78.4104 4.884ZM81.2904 6.828C82.5264 7.836 83.8944 9.288 84.4944 10.284L85.2624 9.684C84.6384 8.688 83.2224 7.272 81.9984 6.3L81.2904 6.828ZM74.5824 8.604L74.6424 9.528C76.9344 9.432 80.5584 9.276 83.9304 9.096L83.9784 8.232C80.5584 8.388 76.8624 8.544 74.5824 8.604ZM86.6244 7.968V8.868H90.1524V7.968H86.6244ZM92.6364 5.148V14.04C92.6364 15.336 92.9724 15.696 94.0884 15.696C94.3284 15.696 95.7684 15.696 96.0204 15.696C97.1964 15.696 97.4364 14.916 97.5444 12.72C97.2924 12.66 96.9084 12.48 96.6804 12.3C96.5964 14.292 96.5124 14.808 95.9604 14.808C95.6484 14.808 94.4484 14.808 94.1844 14.808C93.6684 14.808 93.5604 14.688 93.5604 14.064V5.148H92.6364ZM89.7084 5.148V15.864H90.6324V5.148H89.7084ZM96.5484 6.996C95.6484 7.824 94.1604 8.844 92.8284 9.576C92.9604 9.768 93.1404 10.08 93.2124 10.284C94.5684 9.54 96.1044 8.628 97.2084 7.776L96.5484 6.996ZM86.2524 13.536L86.6724 14.436C87.7044 14.004 89.0604 13.44 90.3204 12.888L90.1524 12.072C88.7244 12.636 87.2244 13.212 86.2524 13.536ZM103.37 4.872V7.116H104.318V4.872H103.37ZM103.382 7.404V15.996H104.306V7.404H103.382ZM98.4864 6.588V7.464H109.298V6.588H98.4864ZM99.7224 9.108V14.472H100.622V9.984H107.606V9.108H99.7224ZM107.258 9.108V13.332C107.258 13.5 107.198 13.548 106.982 13.56C106.778 13.572 106.046 13.572 105.23 13.548C105.362 13.8 105.506 14.16 105.542 14.436C106.574 14.436 107.246 14.424 107.666 14.28C108.062 14.124 108.182 13.848 108.182 13.332V9.108H107.258Z" fill="white"/>
<circle cx="146.5" cy="41.5" r="12.5" fill="white"/>
<path d="M152.931 40.2467L148.809 39.6479L146.966 35.9139C146.916 35.8116 146.833 35.7289 146.731 35.6786C146.474 35.552 146.162 35.6575 146.034 35.9139L144.191 39.6479L140.069 40.2467C139.956 40.2629 139.852 40.3165 139.772 40.3976C139.676 40.4964 139.623 40.6293 139.625 40.7672C139.627 40.905 139.683 41.0365 139.782 41.1327L142.764 44.0391L142.06 48.1431C142.043 48.2386 142.054 48.3368 142.09 48.4266C142.127 48.5163 142.188 48.5941 142.266 48.651C142.345 48.708 142.437 48.7418 142.534 48.7487C142.631 48.7556 142.727 48.7353 142.813 48.69L146.5 46.7524L150.187 48.69C150.288 48.7436 150.404 48.7614 150.516 48.7419C150.799 48.6933 150.989 48.4255 150.94 48.1431L150.236 44.0391L153.218 41.1327C153.299 41.0532 153.353 40.9494 153.369 40.8358C153.413 40.5518 153.215 40.2889 152.931 40.2467Z" fill="#FFD809"/>
<path d="M11.944 32.221V32.887H14.275V32.221H11.944ZM11.548 29.494V37L12.241 36.829V29.494H11.548ZM10.342 36.829L10.558 37.522C11.674 37.261 13.195 36.901 14.626 36.55L14.554 35.902C13.042 36.253 11.422 36.622 10.342 36.829ZM17.866 31.411C17.218 31.924 16.12 32.527 15.139 32.941C15.229 33.085 15.337 33.319 15.382 33.481C16.399 33.049 17.542 32.518 18.37 31.978L17.866 31.411ZM14.95 29.494V36.289C14.95 37.27 15.184 37.531 16.075 37.531C16.246 37.531 17.398 37.531 17.587 37.531C18.442 37.531 18.622 37.018 18.712 35.551C18.523 35.506 18.244 35.38 18.073 35.254C18.019 36.559 17.965 36.892 17.542 36.892C17.29 36.892 16.336 36.892 16.138 36.892C15.715 36.892 15.634 36.802 15.634 36.298V29.494H14.95ZM20.105 32.734V33.274H25.235V32.734H20.105ZM22.373 32.095V33.031H22.994V32.095H22.373ZM21.392 34.282H24.029V35.119H21.392V34.282ZM20.798 33.805V35.596H24.65V33.805H20.798ZM21.329 31.186H24.083V31.744H21.329V31.186ZM21.329 30.214H24.083V30.772H21.329V30.214ZM20.717 29.782V32.176H24.713V29.782H20.717ZM22.373 35.263V37.072C22.373 37.162 22.346 37.189 22.238 37.189C22.121 37.198 21.788 37.198 21.374 37.18C21.473 37.342 21.59 37.558 21.626 37.72C22.13 37.72 22.463 37.72 22.697 37.63C22.931 37.54 22.994 37.387 22.994 37.081V35.263H22.373ZM21.068 35.821C20.852 36.307 20.474 36.784 20.069 37.117C20.213 37.207 20.456 37.369 20.564 37.468C20.969 37.099 21.392 36.532 21.653 35.974L21.068 35.821ZM23.561 36.091C23.912 36.478 24.317 37.009 24.506 37.342L25.037 37.054C24.839 36.721 24.425 36.208 24.074 35.83L23.561 36.091ZM27.314 29.602C26.81 30.295 25.883 31.033 25.1 31.447C25.262 31.573 25.469 31.78 25.586 31.924C26.414 31.438 27.35 30.655 27.953 29.863L27.314 29.602ZM27.557 32.095C26.999 32.824 25.991 33.598 25.136 34.039C25.307 34.165 25.514 34.372 25.631 34.516C26.522 34.003 27.539 33.193 28.187 32.356L27.557 32.095ZM27.791 34.642C27.179 35.704 26 36.64 24.776 37.171C24.947 37.315 25.145 37.549 25.253 37.711C26.558 37.099 27.746 36.082 28.448 34.876L27.791 34.642ZM31.254 32.806V33.355H36.915V32.806H31.254ZM31.254 31.366V31.924H36.915V31.366H31.254ZM30.894 34.246V34.84H37.257V34.246H30.894ZM37.113 34.246V34.354C36.996 36.163 36.879 36.847 36.69 37.036C36.618 37.108 36.537 37.126 36.375 37.126C36.213 37.126 35.79 37.126 35.349 37.072C35.448 37.252 35.52 37.522 35.529 37.702C35.988 37.729 36.447 37.729 36.681 37.711C36.933 37.693 37.104 37.63 37.266 37.459C37.518 37.18 37.644 36.442 37.779 34.543C37.788 34.444 37.797 34.246 37.797 34.246H37.113ZM33.585 35.479C33.828 36.001 34.053 36.685 34.125 37.099L34.683 36.946C34.611 36.532 34.377 35.857 34.125 35.362L33.585 35.479ZM35.043 35.344C35.349 35.722 35.682 36.253 35.817 36.595L36.339 36.37C36.195 36.028 35.862 35.515 35.538 35.146L35.043 35.344ZM32.037 35.542C32.181 36.118 32.307 36.856 32.307 37.342L32.928 37.243C32.901 36.748 32.775 36.019 32.613 35.443L32.037 35.542ZM30.741 35.227C30.597 36.01 30.291 36.82 29.724 37.297L30.273 37.648C30.885 37.117 31.164 36.235 31.335 35.389L30.741 35.227ZM33.657 30.205V34.489H34.323V30.205H33.657ZM30.894 29.881V34.525H31.551V30.475H37.23V29.881H30.894ZM45.814 30.286V36.739C45.814 36.928 45.751 36.991 45.553 37C45.337 37.009 44.608 37.018 43.879 36.982C43.987 37.18 44.122 37.513 44.167 37.711C45.058 37.711 45.688 37.702 46.048 37.585C46.399 37.477 46.516 37.243 46.516 36.757V30.286H45.814ZM40.522 32.086V36.163H41.179V32.086H40.522ZM40.801 32.086V32.725H43.537V34.795H40.801V35.443H44.212V32.086H40.801ZM39.595 30.079V30.763H47.623V30.079H39.595ZM49.223 33.463V34.138H57.395V33.463H49.223ZM52.967 32.014V36.847C52.967 37.009 52.904 37.054 52.715 37.063C52.517 37.072 51.851 37.072 51.122 37.045C51.239 37.243 51.365 37.549 51.419 37.747C52.283 37.747 52.868 37.729 53.201 37.621C53.543 37.513 53.669 37.306 53.669 36.856V32.014H52.967ZM50.15 30.07V30.736H56.027V30.07H50.15ZM55.793 30.07V30.223C55.226 30.862 54.029 31.717 53.048 32.185C53.183 32.302 53.39 32.518 53.489 32.671C54.542 32.131 55.82 31.24 56.639 30.412L56.126 30.034L55.973 30.07H55.793ZM63.846 33.076V34.525H64.485V33.076H63.846ZM61.623 33.328V33.76H63.369V33.328H61.623ZM61.524 34.192V34.624H63.342V34.192H61.524ZM64.98 34.192V34.624H66.897V34.192H64.98ZM64.98 33.328V33.76H66.798V33.328H64.98ZM65.088 31.627H65.97V32.428H65.088V31.627ZM63.765 31.627H64.629V32.428H63.765V31.627ZM62.478 31.627H63.306V32.428H62.478V31.627ZM61.884 31.168V32.887H66.591V31.168H61.884ZM61.38 30.178V30.718H66.996V30.178H61.38ZM63.837 29.44V30.466H64.485V29.44H63.837ZM64.062 34.525C63.45 35.11 62.244 35.533 61.146 35.776C61.254 35.893 61.443 36.172 61.515 36.307C62.649 35.983 63.936 35.461 64.638 34.723L64.062 34.525ZM61.632 37.081L61.803 37.639C62.649 37.486 63.747 37.279 64.809 37.063L64.773 36.559C63.63 36.766 62.433 36.964 61.632 37.081ZM66.312 34.957C65.925 35.281 65.259 35.731 64.773 35.983L65.124 36.307C65.61 36.073 66.267 35.695 66.771 35.344L66.312 34.957ZM64.503 34.795L63.972 34.939C64.485 36.262 65.466 37.279 66.789 37.729C66.879 37.576 67.059 37.333 67.203 37.207C65.943 36.838 64.962 35.929 64.503 34.795ZM59.922 29.44V37.711H60.543V29.44H59.922ZM59.166 31.177C59.157 31.96 59.04 32.941 58.743 33.499L59.184 33.688C59.499 33.076 59.625 32.041 59.625 31.249L59.166 31.177ZM60.651 31.042C60.858 31.636 61.02 32.41 61.056 32.869L61.515 32.707C61.479 32.257 61.299 31.51 61.083 30.925L60.651 31.042ZM62.541 35.695V37.216H63.171V35.47L62.856 35.371L62.541 35.695ZM70.099 32.32V32.932H75.292V32.32H70.099ZM72.358 30.889C72.286 33.301 72.106 34.894 69.991 35.695C70.135 35.821 70.324 36.064 70.396 36.217C72.655 35.308 72.907 33.526 72.997 30.889H72.358ZM73.051 32.662L72.493 32.752C72.835 34.471 73.555 35.623 74.959 36.19C75.049 36.019 75.238 35.758 75.382 35.641C74.059 35.182 73.357 34.147 73.051 32.662ZM68.938 29.863V37.72H69.613V30.511H75.787V37.72H76.48V29.863H68.938ZM69.334 36.667V37.315H76.066V36.667H69.334ZM78.368 33.76V34.363H86.423V33.76H78.368ZM80.33 31.132V31.681H85.262V31.132H80.33ZM80.33 32.437V32.986H85.262V32.437H80.33ZM78.8 37.036L78.971 37.666C80.051 37.477 81.599 37.216 83.039 36.955L83.012 36.361C81.473 36.613 79.835 36.892 78.8 37.036ZM82.436 33.922L81.824 34.084C82.553 36.01 83.966 37.243 86.144 37.747C86.234 37.558 86.423 37.288 86.567 37.153C84.488 36.748 83.066 35.614 82.436 33.922ZM85.478 34.444C84.92 34.885 83.966 35.47 83.282 35.812L83.741 36.172C84.443 35.839 85.343 35.317 86.018 34.813L85.478 34.444ZM79.961 29.8V34.012H80.645V30.376H85.55V29.8H79.961ZM79.952 33.949V37.126L80.645 37.045V33.949H79.952ZM88.716 34.255V34.822H95.547V34.255H88.716ZM87.942 30.385V30.979H92.262V30.385H87.942ZM93.063 29.755V30.268H95.538V29.755H93.063ZM93.081 30.889V31.375H95.601V30.889H93.081ZM92.946 32.014V32.491H95.493V32.014H92.946ZM89.103 35.596V36.154H95.106V35.596H89.103ZM88.104 36.946V37.513H96.096V36.946H88.104ZM91.749 34.507V37.288H92.424V34.507H91.749ZM89.814 29.449V30.646H90.444V29.449H89.814ZM88.617 30.718V32.482C88.617 33.202 88.815 33.445 89.553 33.445C89.715 33.445 90.858 33.445 91.101 33.445C91.389 33.445 91.695 33.436 91.848 33.391C91.821 33.247 91.794 32.986 91.776 32.815C91.614 32.851 91.29 32.869 91.083 32.869C90.858 32.869 89.778 32.869 89.553 32.869C89.301 32.869 89.238 32.77 89.238 32.5V30.718H88.617ZM95.34 29.755V29.872C95.259 32.176 95.169 32.995 95.016 33.193C94.953 33.283 94.872 33.301 94.746 33.292C94.611 33.292 94.287 33.292 93.927 33.256C94.008 33.409 94.071 33.634 94.08 33.796C94.458 33.814 94.818 33.814 95.025 33.796C95.259 33.778 95.421 33.715 95.556 33.544C95.781 33.274 95.871 32.428 95.952 30.043C95.961 29.953 95.961 29.755 95.961 29.755H95.34ZM92.847 29.755C92.802 31.519 92.667 32.833 91.641 33.562C91.785 33.661 91.965 33.868 92.046 34.012C93.207 33.175 93.414 31.717 93.468 29.755H92.847ZM97.858 32.59V33.22H105.742V32.59H97.858ZM101.431 31.6V34.849H102.124V31.6H101.431ZM99.289 36.667V37.297H104.428V36.667H99.289ZM98.893 34.435V37.711H99.559V35.065H104.131V37.702H104.815V34.435H98.893ZM97.876 30.277V30.898H105.715V30.277H97.876ZM99.856 29.449V31.888H100.522V29.449H99.856ZM103.033 29.449V31.888H103.708V29.449H103.033ZM111.032 29.719C110.969 30.916 110.969 35.245 107.297 37.117C107.504 37.27 107.729 37.477 107.846 37.648C111.572 35.623 111.707 31.132 111.779 29.719H111.032ZM111.752 29.899L111.104 29.962C111.167 30.79 111.419 35.821 115.235 37.648C115.343 37.459 115.55 37.234 115.748 37.081C112.04 35.38 111.779 30.601 111.752 29.899ZM14.167 43.575V50.784C14.167 50.964 14.104 51.027 13.915 51.027C13.735 51.036 13.087 51.045 12.421 51.018C12.538 51.216 12.664 51.531 12.7 51.729C13.555 51.729 14.113 51.711 14.437 51.594C14.761 51.486 14.896 51.288 14.896 50.784V43.575H14.167ZM16.345 45.87C17.11 47.157 17.839 48.849 18.055 49.911L18.775 49.623C18.541 48.534 17.776 46.887 16.993 45.618L16.345 45.87ZM11.809 45.681C11.584 46.896 11.089 48.453 10.288 49.407C10.468 49.479 10.765 49.641 10.927 49.767C11.746 48.759 12.268 47.13 12.565 45.807L11.809 45.681ZM23.2975 46.149H26.6455V47.31H23.2975V46.149ZM23.2975 44.448H26.6455V45.591H23.2975V44.448ZM22.6855 43.863V47.895H27.2935V43.863H22.6855ZM22.5685 48.948V49.569H27.4195V48.948H22.5685ZM21.8755 50.811V51.423H27.7165V50.811H21.8755ZM19.4275 44.052V44.691H22.2355V44.052H19.4275ZM19.5265 46.653V47.292H22.1095V46.653H19.5265ZM19.3375 50.1L19.4995 50.793C20.3005 50.523 21.3265 50.181 22.3075 49.848L22.1905 49.2C21.1465 49.551 20.0665 49.902 19.3375 50.1ZM20.5525 44.304V50.01L21.2005 49.884V44.304H20.5525ZM24.6745 44.142V47.607H24.6295V51.09H25.3135V47.607H25.2685V44.142H24.6745ZM31.321 44.862C31.897 45.528 32.482 46.455 32.716 47.076L33.364 46.725C33.103 46.113 32.527 45.222 31.924 44.565L31.321 44.862ZM28.36 50.046L28.603 50.748C29.602 50.316 30.97 49.713 32.221 49.137L32.068 48.48C30.718 49.074 29.278 49.686 28.36 50.046ZM33.76 48.858C34.624 49.74 35.704 50.955 36.208 51.702L36.784 51.171C36.253 50.433 35.137 49.263 34.282 48.417L33.76 48.858ZM35.011 43.908C34.606 47.823 33.652 50.028 30.538 51.162C30.709 51.306 30.979 51.603 31.078 51.747C34.228 50.433 35.281 48.138 35.74 43.98L35.011 43.908ZM29.458 43.935L29.611 49.884L30.304 49.857L30.151 43.908L29.458 43.935ZM39.2725 46.995H37.4815V47.625H38.6245V50.181H39.2725V46.995ZM39.2725 49.911H38.6875C38.2645 50.298 37.7785 50.703 37.3825 50.991L37.7335 51.648C38.1835 51.252 38.5975 50.865 38.9935 50.478C39.5515 51.189 40.3705 51.504 41.5585 51.549C42.5665 51.594 44.4925 51.576 45.5095 51.531C45.5365 51.333 45.6445 51.018 45.7255 50.865C44.6365 50.937 42.5575 50.964 41.5585 50.919C40.4875 50.883 39.6955 50.577 39.2725 49.911ZM37.5625 44.043C38.1115 44.484 38.7325 45.114 38.9845 45.564L39.5425 45.141C39.2635 44.7 38.6335 44.079 38.0755 43.674L37.5625 44.043ZM40.8475 45.942C41.0365 46.23 41.2075 46.626 41.2525 46.887L41.8735 46.725C41.8105 46.464 41.6305 46.077 41.4235 45.798L40.8475 45.942ZM40.2985 44.133V44.637H44.9875V44.133H40.2985ZM40.2355 47.931V48.435H45.1135V47.931H40.2355ZM39.8935 46.815V47.328H45.4735V46.815H39.8935ZM39.6955 45.312V45.834H45.5995V45.312H39.6955ZM39.7855 49.11V49.632H45.5275V49.11H39.7855ZM42.2605 43.44V45.645H42.9355V43.44H42.2605ZM42.2605 47.049V50.487H42.9355V47.049H42.2605ZM43.7275 45.762C43.6375 46.032 43.4485 46.455 43.3045 46.734L43.8355 46.896C43.9975 46.653 44.1955 46.293 44.3845 45.942L43.7275 45.762ZM49.222 48.048V48.597H54.685V48.048H49.222ZM49.933 49.47C50.401 49.758 50.995 50.19 51.283 50.478L51.661 50.01C51.364 49.731 50.761 49.326 50.293 49.056L49.933 49.47ZM52.849 47.517C53.182 47.706 53.587 48.003 53.785 48.201L54.136 47.85C53.929 47.643 53.515 47.373 53.182 47.193L52.849 47.517ZM49.888 48.3C49.816 49.479 49.6 50.631 48.709 51.261C48.853 51.36 49.033 51.567 49.123 51.702C50.131 50.964 50.401 49.695 50.5 48.3H49.888ZM51.508 43.449C51.526 48.048 52.093 51.729 53.902 51.738C54.505 51.738 54.703 51.441 54.82 50.424C54.676 50.37 54.469 50.253 54.343 50.127C54.298 50.946 54.208 51.153 53.947 51.153C52.723 51.153 52.066 47.931 52.111 43.449H51.508ZM53.524 48.741C53.02 49.857 51.994 50.766 50.644 51.288C50.77 51.396 50.941 51.603 51.022 51.72C52.408 51.144 53.515 50.199 54.1 48.957L53.524 48.741ZM52.156 45.015C52.543 45.312 52.993 45.744 53.2 46.041L53.488 45.618C53.281 45.33 52.831 44.916 52.435 44.646L52.156 45.015ZM53.839 46.104C54.073 46.527 54.298 47.094 54.379 47.445L54.82 47.238C54.748 46.896 54.505 46.356 54.253 45.942L53.839 46.104ZM52.273 46.734L52.372 47.256C52.966 47.202 53.65 47.139 54.37 47.067V46.599C53.578 46.653 52.831 46.698 52.273 46.734ZM53.2 43.53C53.047 43.971 52.75 44.619 52.525 45.015L52.912 45.195C53.164 44.826 53.47 44.241 53.722 43.737L53.2 43.53ZM53.938 44.43C53.596 45.159 52.984 46.185 52.507 46.806L52.885 47.022C53.371 46.41 53.983 45.447 54.442 44.673L53.938 44.43ZM49.105 45.015C49.492 45.312 49.942 45.744 50.149 46.041L50.437 45.618C50.239 45.33 49.78 44.916 49.393 44.646L49.105 45.015ZM50.671 46.158C50.887 46.59 51.085 47.148 51.148 47.499L51.589 47.31C51.535 46.968 51.319 46.419 51.085 46.005L50.671 46.158ZM49.141 46.833L49.24 47.364C49.834 47.31 50.527 47.247 51.247 47.175V46.689C50.446 46.752 49.708 46.806 49.141 46.833ZM50.158 43.53C49.996 43.971 49.708 44.628 49.483 45.033L49.87 45.204C50.113 44.835 50.419 44.241 50.68 43.746L50.158 43.53ZM50.896 44.43C50.536 45.186 49.897 46.248 49.393 46.887L49.78 47.094C50.293 46.473 50.923 45.474 51.391 44.673L50.896 44.43ZM46.549 45.393V46.023H49.276V45.393H46.549ZM47.692 43.44V51.711H48.304V43.44H47.692ZM47.665 45.771C47.449 47.049 46.909 48.624 46.36 49.434C46.468 49.578 46.621 49.83 46.693 49.992C47.287 49.092 47.818 47.319 48.07 45.897L47.665 45.771ZM48.259 46.365L47.98 46.626C48.196 46.977 48.763 48.039 48.943 48.489L49.285 47.994C49.141 47.733 48.439 46.608 48.259 46.365ZM59.4955 44.952L59.1805 45.6H63.7615V44.952H59.4955ZM60.6205 46.905V47.526H63.5545V46.905H60.6205ZM60.6115 48.885V49.524H63.6805V48.885H60.6115ZM60.2785 45.159V51.72H60.9715V45.159H60.2785ZM59.8375 43.548C59.3965 44.871 58.6675 46.185 57.8485 47.022C58.0015 47.13 58.2715 47.373 58.3705 47.49C59.1985 46.563 59.9815 45.15 60.4945 43.719L59.8375 43.548ZM57.6775 43.476C57.1645 44.844 56.3275 46.194 55.4275 47.067C55.5535 47.229 55.7605 47.589 55.8235 47.751C56.8045 46.743 57.7315 45.204 58.3255 43.683L57.6775 43.476ZM56.7145 45.798V51.711H57.3985V45.132L57.3805 45.123L56.7145 45.798ZM66.466 45.87V46.482H71.164V45.87H66.466ZM65.818 49.947V50.55H72.451V49.947H65.818ZM66.16 44.493V45.105H72.424V44.493H66.16ZM70.894 45.87V46.014C70.795 49.524 70.669 50.784 70.435 51.072C70.354 51.18 70.273 51.198 70.102 51.198C69.931 51.207 69.517 51.198 69.058 51.162C69.148 51.315 69.211 51.549 69.22 51.702C69.67 51.729 70.12 51.729 70.39 51.711C70.66 51.684 70.858 51.612 71.029 51.387C71.317 51.009 71.443 49.83 71.551 46.203C71.551 46.113 71.56 45.87 71.56 45.87H70.894ZM66.133 45.87C65.98 47.427 65.656 49.596 65.404 50.847L66.088 50.892C66.313 49.65 66.619 47.481 66.817 45.87H66.133ZM66.565 43.395C66.097 44.538 65.323 45.69 64.495 46.419C64.675 46.518 64.981 46.725 65.125 46.833C65.908 46.041 66.727 44.826 67.267 43.593L66.565 43.395ZM67.645 46.887C68.239 47.148 68.932 47.589 69.274 47.922L69.679 47.499C69.319 47.166 68.617 46.761 68.032 46.5L67.645 46.887ZM67.42 48.858C68.032 49.173 68.77 49.668 69.13 50.028L69.526 49.596C69.157 49.245 68.41 48.768 67.798 48.48L67.42 48.858ZM64.513 47.886V48.498H66.196V48.48H71.164V48.498H72.766V47.886H71.164V47.904H66.196V47.886H64.513ZM77.3065 43.458V48.012C77.3065 48.156 77.2525 48.192 77.0995 48.201C76.9375 48.201 76.3885 48.21 75.7945 48.192C75.9025 48.39 76.0105 48.687 76.0375 48.885C76.7935 48.885 77.2975 48.867 77.5945 48.759C77.9005 48.642 77.9905 48.444 77.9905 48.021V43.458H77.3065ZM79.2595 44.808C80.0335 45.744 80.8525 47.013 81.1675 47.832L81.8425 47.472C81.5005 46.635 80.6455 45.402 79.8625 44.502L79.2595 44.808ZM79.8535 47.265C79.0795 49.578 77.3515 50.667 74.1655 51.081C74.3095 51.252 74.4625 51.54 74.5255 51.747C77.8645 51.225 79.7005 50.019 80.5555 47.481L79.8535 47.265ZM75.3085 44.583C74.9755 45.573 74.2825 46.779 73.4995 47.544C73.6795 47.634 73.9405 47.823 74.0935 47.949C74.9035 47.13 75.6145 45.861 76.0465 44.763L75.3085 44.583ZM84.511 45.87V46.482H89.209V45.87H84.511ZM83.863 49.947V50.55H90.496V49.947H83.863ZM84.205 44.493V45.105H90.469V44.493H84.205ZM88.939 45.87V46.014C88.84 49.524 88.714 50.784 88.48 51.072C88.399 51.18 88.318 51.198 88.147 51.198C87.976 51.207 87.562 51.198 87.103 51.162C87.193 51.315 87.256 51.549 87.265 51.702C87.715 51.729 88.165 51.729 88.435 51.711C88.705 51.684 88.903 51.612 89.074 51.387C89.362 51.009 89.488 49.83 89.596 46.203C89.596 46.113 89.605 45.87 89.605 45.87H88.939ZM84.178 45.87C84.025 47.427 83.701 49.596 83.449 50.847L84.133 50.892C84.358 49.65 84.664 47.481 84.862 45.87H84.178ZM84.61 43.395C84.142 44.538 83.368 45.69 82.54 46.419C82.72 46.518 83.026 46.725 83.17 46.833C83.953 46.041 84.772 44.826 85.312 43.593L84.61 43.395ZM85.69 46.887C86.284 47.148 86.977 47.589 87.319 47.922L87.724 47.499C87.364 47.166 86.662 46.761 86.077 46.5L85.69 46.887ZM85.465 48.858C86.077 49.173 86.815 49.668 87.175 50.028L87.571 49.596C87.202 49.245 86.455 48.768 85.843 48.48L85.465 48.858ZM82.558 47.886V48.498H84.241V48.48H89.209V48.498H90.811V47.886H89.209V47.904H84.241V47.886H82.558ZM95.3515 43.458V48.012C95.3515 48.156 95.2975 48.192 95.1445 48.201C94.9825 48.201 94.4335 48.21 93.8395 48.192C93.9475 48.39 94.0555 48.687 94.0825 48.885C94.8385 48.885 95.3425 48.867 95.6395 48.759C95.9455 48.642 96.0355 48.444 96.0355 48.021V43.458H95.3515ZM97.3045 44.808C98.0785 45.744 98.8975 47.013 99.2125 47.832L99.8875 47.472C99.5455 46.635 98.6905 45.402 97.9075 44.502L97.3045 44.808ZM97.8985 47.265C97.1245 49.578 95.3965 50.667 92.2105 51.081C92.3545 51.252 92.5075 51.54 92.5705 51.747C95.9095 51.225 97.7455 50.019 98.6005 47.481L97.8985 47.265ZM93.3535 44.583C93.0205 45.573 92.3275 46.779 91.5445 47.544C91.7245 47.634 91.9855 47.823 92.1385 47.949C92.9485 47.13 93.6595 45.861 94.0915 44.763L93.3535 44.583ZM104.374 43.458V48.012C104.374 48.156 104.32 48.192 104.167 48.201C104.005 48.201 103.456 48.21 102.862 48.192C102.97 48.39 103.078 48.687 103.105 48.885C103.861 48.885 104.365 48.867 104.662 48.759C104.968 48.642 105.058 48.444 105.058 48.021V43.458H104.374ZM106.327 44.808C107.101 45.744 107.92 47.013 108.235 47.832L108.91 47.472C108.568 46.635 107.713 45.402 106.93 44.502L106.327 44.808ZM106.921 47.265C106.147 49.578 104.419 50.667 101.233 51.081C101.377 51.252 101.53 51.54 101.593 51.747C104.932 51.225 106.768 50.019 107.623 47.481L106.921 47.265ZM102.376 44.583C102.043 45.573 101.35 46.779 100.567 47.544C100.747 47.634 101.008 47.823 101.161 47.949C101.971 47.13 102.682 45.861 103.114 44.763L102.376 44.583ZM109.889 50.6792C109.889 50.5767 109.921 50.4902 109.986 50.4199C110.053 50.3467 110.144 50.3101 110.258 50.3101C110.375 50.3101 110.468 50.3452 110.535 50.4155C110.602 50.4858 110.636 50.5737 110.636 50.6792C110.636 50.7788 110.602 50.8638 110.535 50.9341C110.468 51.0044 110.375 51.0396 110.258 51.0396C110.144 51.0396 110.053 51.0044 109.986 50.9341C109.921 50.8638 109.889 50.7788 109.889 50.6792ZM112.065 50.6792C112.065 50.5767 112.097 50.4902 112.162 50.4199C112.229 50.3467 112.32 50.3101 112.434 50.3101C112.551 50.3101 112.644 50.3452 112.711 50.4155C112.778 50.4858 112.812 50.5737 112.812 50.6792C112.812 50.7788 112.778 50.8638 112.711 50.9341C112.644 51.0044 112.551 51.0396 112.434 51.0396C112.32 51.0396 112.229 51.0044 112.162 50.9341C112.097 50.8638 112.065 50.7788 112.065 50.6792ZM114.241 50.6792C114.241 50.5767 114.273 50.4902 114.337 50.4199C114.405 50.3467 114.496 50.3101 114.61 50.3101C114.727 50.3101 114.819 50.3452 114.887 50.4155C114.954 50.4858 114.988 50.5737 114.988 50.6792C114.988 50.7788 114.954 50.8638 114.887 50.9341C114.819 51.0044 114.727 51.0396 114.61 51.0396C114.496 51.0396 114.405 51.0044 114.337 50.9341C114.273 50.8638 114.241 50.7788 114.241 50.6792Z" fill="white"/>
<defs>
<linearGradient id="paint0_linear_53_7943" x1="47.85" y1="66.56" x2="47.85" y2="5.52246e-08" gradientUnits="userSpaceOnUse">
<stop stop-color="#4A4D5A"/>
<stop offset="0.588542" stop-color="#4A4D5A" stop-opacity="0.476938"/>
<stop offset="1" stop-color="#4A4D5A" stop-opacity="0"/>
</linearGradient>
</defs>
</svg>
