<svg width="140" height="64" viewBox="0 0 140 64" fill="none" xmlns="http://www.w3.org/2000/svg">
<rect width="140" height="64" rx="20" fill="#4A4D5A"/>
<path d="M54.3225 11.03C54.0825 11.72 53.6725 12.4 53.2125 12.89C53.3725 12.98 53.6425 13.17 53.7625 13.28C54.2125 12.76 54.6725 11.95 54.9725 11.19L54.3225 11.03ZM53.5525 15.7V16.18H58.2625V15.7H53.5525ZM58.1825 15.66V16.21H59.5525V15.66H58.1825ZM54.3225 12.69V13.19H58.4425V12.69H54.3225ZM53.6725 13.73V14.24H59.1625V13.73H53.6725ZM56.0025 12.9V13.97H56.6925V12.9H56.0025ZM54.8125 17.62V18.85C54.8125 19.5 55.0125 19.67 55.8325 19.67C55.9925 19.67 57.0525 19.67 57.2125 19.67C57.8225 19.67 58.0125 19.46 58.0825 18.61C57.9025 18.58 57.6325 18.48 57.5025 18.38C57.4725 19.01 57.4225 19.08 57.1425 19.08C56.9225 19.08 56.0625 19.08 55.9025 19.08C55.5425 19.08 55.4825 19.05 55.4825 18.85V17.62H54.8125ZM58.4425 10.61C57.5425 10.87 55.8625 11.08 54.4525 11.19C54.5325 11.32 54.6125 11.56 54.6425 11.7C56.1025 11.61 57.8525 11.4 58.9725 11.07L58.4425 10.61ZM54.1125 14.71V15.19H57.9725V16.7H54.1125V17.19H58.6425V14.71H54.1125ZM57.7425 17.82C58.2525 18.33 58.8125 19.05 59.0425 19.53L59.6125 19.16C59.3625 18.68 58.7925 18 58.2725 17.5L57.7425 17.82ZM55.7525 11.75C55.9425 12.05 56.1425 12.46 56.2125 12.73L56.8025 12.49C56.7125 12.23 56.5125 11.83 56.3025 11.54L55.7525 11.75ZM57.7525 11.63C58.2025 12.1 58.7225 12.76 58.9625 13.18L59.4925 12.82C59.2525 12.41 58.7125 11.77 58.2625 11.32L57.7525 11.63ZM55.4625 17.39C55.9025 17.63 56.4625 18.05 56.7425 18.34L57.1925 17.91C56.9025 17.64 56.3525 17.24 55.8825 17.01L55.4625 17.39ZM53.8425 17.64C53.6825 18.21 53.3525 18.85 52.8825 19.2L53.3925 19.58C53.9325 19.17 54.2325 18.47 54.4225 17.84L53.8425 17.64ZM50.7625 11.04V19.81H51.4225V11.72H52.9525V11.04H50.7625ZM52.7325 11.04V11.24C52.5525 11.92 52.2325 13.11 51.9125 14.03C52.5525 14.82 52.6825 15.51 52.6925 16.04C52.6925 16.35 52.6425 16.63 52.5125 16.74C52.4425 16.8 52.3425 16.83 52.2225 16.83C52.0925 16.84 51.9225 16.83 51.7225 16.82C51.8225 17 51.8825 17.28 51.8925 17.46C52.1025 17.47 52.3225 17.46 52.4925 17.44C52.6825 17.41 52.8425 17.36 52.9725 17.27C53.2325 17.07 53.3425 16.65 53.3425 16.12C53.3425 15.51 53.1925 14.79 52.5525 13.96C52.8425 13.14 53.1825 12.1 53.4225 11.28L52.9525 11.01L52.8525 11.04H52.7325ZM60.5875 11.31V11.95H69.3975V11.31H60.5875ZM62.5975 13.03V13.68H69.5075V13.03H62.5975ZM61.1575 14.79V15.41H62.5275V14.79H61.1575ZM60.3975 16.24V16.87H62.4875V16.24H60.3975ZM63.6775 18.13V18.65H66.4775V18.13H63.6775ZM62.9575 10.61V12.65H63.6975V10.61H62.9575ZM66.2275 10.61V12.66H66.9675V10.61H66.2275ZM64.8075 14.58V15.79H65.3475V14.58H64.8075ZM60.8375 13.08V15.72H61.4275V13.08H60.8375ZM64.8075 17.13V18.35H65.3475V17.13H64.8075ZM63.7375 15.52V16.02H65.8375V16.9H63.7375V17.39H66.3875V15.52H63.7375ZM63.4075 14.3V19.25H63.9775V14.82H66.3875V14.3H63.4075ZM62.2575 13.03V15.79C62.2575 16.93 62.1975 18.43 61.6075 19.5C61.7675 19.56 62.0575 19.72 62.1775 19.83C62.7975 18.7 62.8975 17.02 62.8975 15.8V13.03H62.2575ZM66.5675 12.37C66.6875 17.15 67.4175 19.82 68.7075 19.82C69.2975 19.82 69.5475 19.57 69.6575 18.23C69.4875 18.17 69.2675 18.03 69.1175 17.89C69.0675 18.88 68.9675 19.14 68.7575 19.15C68.0475 19.15 67.2875 16.95 67.2475 12.37H66.5675ZM67.6975 12.39C68.0575 12.61 68.4675 12.94 68.6575 13.19L69.1275 12.81C68.9275 12.57 68.4975 12.25 68.1375 12.04L67.6975 12.39ZM68.3275 14.3C67.8775 16.54 66.9575 18.3 65.4175 19.36C65.5775 19.47 65.8575 19.7 65.9775 19.82C67.5075 18.65 68.4775 16.83 68.9975 14.41L68.3275 14.3ZM60.9475 16.46V17.31C60.9475 17.94 60.8675 18.84 60.3275 19.49C60.4575 19.56 60.6775 19.71 60.7875 19.81C61.4075 19.09 61.5175 18.05 61.5175 17.33V16.46H60.9475ZM75.4625 13.3V14H79.6125V13.3H75.4625ZM70.4325 12.73V13.37H75.5725V12.73H70.4325ZM70.7925 14.92V15.55H75.2025V14.92H70.7925ZM71.0625 16.57V17.2H75.0025V16.57H71.0625ZM77.8225 10.67V18.88C77.8225 19.05 77.7525 19.11 77.5825 19.11C77.4225 19.12 76.8725 19.12 76.2725 19.1C76.3725 19.3 76.5025 19.62 76.5425 19.81C77.3525 19.82 77.8425 19.8 78.1425 19.67C78.4225 19.55 78.5425 19.34 78.5425 18.88V10.67H77.8225ZM75.7825 15.01C76.1825 15.75 76.5625 16.71 76.6625 17.31L77.3325 17.07C77.2325 16.46 76.8425 15.52 76.4125 14.79L75.7825 15.01ZM70.5325 11.13C70.8425 11.61 71.1325 12.25 71.2325 12.67L71.8125 12.4C71.7025 11.99 71.4025 11.37 71.0725 10.9L70.5325 11.13ZM71.2625 13.59C71.5025 14.01 71.7225 14.59 71.7825 14.95L72.4125 14.72C72.3425 14.36 72.1125 13.81 71.8625 13.39L71.2625 13.59ZM72.0025 10.65V13.04H72.6125V10.65H72.0025ZM72.6425 15.12V18.73H73.3525V15.12H72.6425ZM73.3825 10.65V13.04H74.0025V10.65H73.3825ZM70.4625 18.66L70.5725 19.37C71.8525 19.19 73.7325 18.94 75.4925 18.68L75.4725 18.02C73.6425 18.27 71.7125 18.51 70.4625 18.66ZM74.9525 10.84C74.7825 11.32 74.4325 12.03 74.1625 12.45L74.6825 12.68C74.9625 12.27 75.3225 11.64 75.6225 11.1L74.9525 10.84ZM74.1025 13.37C73.9825 13.78 73.7325 14.39 73.5325 14.76L74.1325 14.93C74.3325 14.58 74.5825 14.05 74.7925 13.56L74.1025 13.37ZM84.7975 15.92V19.81H85.5175V16.61H88.4675V19.75H89.2175V15.92H84.7975ZM88.7775 10.76C87.7675 11.09 85.9675 11.34 84.4575 11.48C84.5475 11.66 84.6475 11.94 84.6775 12.11C86.2375 11.99 88.0975 11.75 89.3175 11.39L88.7775 10.76ZM86.5675 11.53V16.27H87.3275V11.53H86.5675ZM84.2075 13.52V14.23H89.6775V13.52H84.2075ZM85.2675 18.62V19.3H88.8375V18.62H85.2675ZM80.8875 13.69V14.28H83.8175V13.69H80.8875ZM80.9475 10.96V11.56H83.8075V10.96H80.9475ZM80.8875 15.05V15.65H83.8175V15.05H80.8875ZM80.4175 12.3V12.92H84.1475V12.3H80.4175ZM81.2675 16.42V17.05H83.1875V18.72H81.2675V19.34H83.8475V16.42H81.2675ZM80.8775 16.42V19.8H81.5275V16.42H80.8775Z" fill="white"/>
<path d="M55.0925 44.95V45.67H59.5425V44.95H55.0925ZM50.7325 43.9V44.58H54.7425V43.9H50.7325ZM50.6525 48.06V48.74H54.8325V48.06H50.6525ZM50.4125 45.97V46.66H54.9425V45.97H50.4125ZM57.8125 42.7V50.83C57.8125 51 57.7525 51.05 57.5625 51.06C57.3925 51.06 56.8425 51.07 56.2125 51.05C56.3225 51.25 56.4525 51.58 56.4925 51.78C57.3325 51.78 57.8225 51.76 58.1325 51.64C58.4225 51.51 58.5525 51.3 58.5525 50.83V42.7H57.8125ZM55.4825 46.82C55.8425 47.56 56.2625 48.56 56.4525 49.14L57.1525 48.85C56.9325 48.29 56.4825 47.31 56.1225 46.59L55.4825 46.82ZM52.3825 42.6V46.33H53.1025V42.6H52.3825ZM52.3825 46.89V50.73H53.1025V46.89H52.3825ZM50.3225 50.64L50.4325 51.39C51.6825 51.18 53.4525 50.89 55.1325 50.6L55.1025 49.91C53.3525 50.18 51.5025 50.48 50.3225 50.64ZM65.3975 46.98H68.3475V47.83H65.3975V46.98ZM65.3975 48.38H68.3475V49.24H65.3975V48.38ZM65.3975 45.58H68.3475V46.42H65.3975V45.58ZM64.7075 45V49.82H69.0675V45H64.7075ZM66.4975 42.6V45.39H67.1875V42.6H66.4975ZM64.4175 43.11C64.7475 43.63 65.0775 44.32 65.2075 44.77L65.8375 44.49C65.6975 44.06 65.3475 43.38 65.0175 42.87L64.4175 43.11ZM68.6075 42.82C68.4275 43.33 68.0675 44.07 67.7875 44.52L68.3775 44.77C68.6675 44.33 69.0175 43.67 69.3175 43.08L68.6075 42.82ZM67.3875 50.38C67.9875 50.81 68.6675 51.38 69.0375 51.8L69.6875 51.42C69.2775 51 68.5675 50.44 67.9075 50L67.3875 50.38ZM65.7075 49.97C65.2775 50.44 64.3675 50.98 63.6275 51.29C63.7675 51.44 63.9675 51.67 64.0775 51.82C64.8375 51.48 65.7675 50.93 66.3475 50.38L65.7075 49.97ZM61.0675 45.08V45.73H63.9375V45.08H61.0675ZM60.5275 46.79V47.45H64.1875V46.79H60.5275ZM60.7575 48.11C60.9475 48.72 61.1075 49.5 61.1175 50.02L61.6775 49.88C61.6375 49.36 61.4775 48.59 61.2775 47.98L60.7575 48.11ZM60.4375 50.8L60.5875 51.5C61.6275 51.28 63.0075 50.98 64.3275 50.69L64.2775 50.06C62.8675 50.35 61.4075 50.64 60.4375 50.8ZM63.5375 47.89C63.4475 48.42 63.2675 49.21 63.1175 49.7L63.6075 49.84C63.7775 49.37 63.9475 48.65 64.1175 48.04L63.5375 47.89ZM62.0975 45.32V50.88L62.7575 50.77V45.32H62.0975ZM62.0675 42.61C61.7275 43.41 61.0875 44.43 60.1775 45.19C60.3175 45.29 60.5375 45.51 60.6475 45.66C61.6375 44.79 62.2875 43.73 62.6775 42.96V42.77H62.4575V42.61H62.0675ZM62.1875 42.61V43.14H62.3275C62.9175 43.64 63.5975 44.47 63.9375 44.97L64.4375 44.4C64.0875 43.89 63.3475 43.14 62.7475 42.61H62.1875ZM71.9625 43.31V44.03H78.4325V43.31H71.9625ZM71.9625 45.64V46.35H78.4225V45.64H71.9625ZM71.9125 48.03V48.74H78.4425V48.03H71.9125ZM71.5425 43.31V46.93C71.5425 48.34 71.4325 50.12 70.3325 51.36C70.4925 51.46 70.7925 51.71 70.9125 51.86C72.1025 50.53 72.2825 48.46 72.2825 46.94V43.31H71.5425ZM78.1325 43.31V50.78C78.1325 50.97 78.0625 51.03 77.8725 51.04C77.6825 51.04 77.0025 51.05 76.2925 51.02C76.4025 51.22 76.5225 51.55 76.5525 51.75C77.5025 51.76 78.0825 51.75 78.4225 51.63C78.7525 51.5 78.8725 51.27 78.8725 50.78V43.31H78.1325ZM74.6825 43.58V51.71H75.4425V43.58H74.6825ZM82.1975 47.91V48.61H87.9675V47.91H82.1975ZM82.2675 45.21V45.91H87.6575V49.15H88.4075V45.21H82.2675ZM87.4975 42.63C86.2375 43.07 83.9875 43.49 82.0375 43.75C82.1275 43.91 82.2275 44.18 82.2575 44.35C84.2575 44.09 86.5775 43.69 88.1175 43.19L87.4975 42.63ZM81.8075 43.54V46.77C81.8075 48.19 81.6775 49.98 80.4175 51.29C80.6075 51.38 80.8875 51.64 80.9975 51.8C82.3775 50.36 82.5675 48.27 82.5675 46.78V43.96C82.7075 43.94 82.7675 43.9 82.7775 43.82L81.8075 43.54Z" fill="white"/>
</svg>
