<svg width="295" height="150" viewBox="0 0 295 150" fill="none" xmlns="http://www.w3.org/2000/svg">
<rect width="295" height="150" rx="20" fill="#4A4D5A"/>
<path d="M129.951 26.598V27.326H139.163V26.598H129.951ZM129.195 28.264V29.006H139.807V28.264H129.195ZM137.805 24.568C136.111 24.932 132.821 25.156 130.161 25.212C130.245 25.394 130.357 25.688 130.371 25.884C133.101 25.828 136.433 25.618 138.477 25.17L137.805 24.568ZM134.011 25.338V30.056C134.011 30.252 133.927 30.322 133.689 30.336C133.465 30.35 132.569 30.35 131.659 30.322C131.785 30.56 131.925 30.896 131.995 31.134C133.199 31.134 133.955 31.134 134.431 31.022C134.893 30.896 135.033 30.644 135.033 30.07V25.338H134.011ZM129.615 21.32V22.09H134.361V21.32H129.615ZM134.739 21.32V22.09H139.611V21.32H134.739ZM131.617 20.354V24.638H132.415V20.354H131.617ZM136.657 20.354V24.512H137.469V20.354H136.657ZM131.631 21.712C131.127 22.552 130.133 23.448 129.223 23.868C129.405 24.008 129.643 24.288 129.769 24.47C130.707 23.966 131.701 22.916 132.233 21.936L131.631 21.712ZM136.629 21.712C136.139 22.538 135.159 23.392 134.263 23.798C134.445 23.952 134.683 24.218 134.809 24.4C135.719 23.91 136.713 22.888 137.231 21.936L136.629 21.712ZM137.567 21.796L136.965 22.062C137.497 22.93 138.505 23.938 139.345 24.442C139.485 24.232 139.737 23.966 139.919 23.812C139.093 23.406 138.099 22.566 137.567 21.796ZM132.345 22.23L131.869 22.58C132.317 22.874 133.395 23.672 133.731 24.008L134.277 23.42C133.983 23.196 132.709 22.44 132.345 22.23ZM133.297 18.254V19.92H134.375V18.254H133.297ZM128.663 19.36V20.256H139.765V19.36H128.663ZM128.061 19.36V23.742C128.061 25.772 127.963 28.544 126.871 30.532C127.095 30.644 127.501 30.966 127.683 31.162C128.859 29.048 129.041 25.898 129.041 23.742V19.36H128.061ZM147.262 28.852V29.678H151.868V28.852H147.262ZM148.074 21.488H152.274V22.678H148.074V21.488ZM148.074 19.542H152.274V20.718H148.074V19.542ZM147.08 18.716V23.504H153.31V18.716H147.08ZM148.158 23.308C147.738 24.47 146.87 25.842 145.428 26.808C145.652 26.948 145.96 27.284 146.1 27.522C147.696 26.388 148.634 24.89 149.18 23.462L148.158 23.308ZM148.06 24.596L147.64 25.45H152.96V24.596H148.06ZM152.75 24.596V24.792C152.624 28.488 152.47 29.776 152.232 30.084C152.12 30.238 152.008 30.252 151.798 30.252C151.588 30.252 151.112 30.252 150.566 30.196C150.706 30.448 150.804 30.826 150.818 31.092C151.392 31.12 151.952 31.12 152.274 31.092C152.624 31.064 152.862 30.966 153.072 30.686C153.436 30.238 153.576 28.908 153.73 25.058C153.73 24.918 153.744 24.596 153.744 24.596H152.75ZM149.348 27.018C149.964 27.494 150.748 28.138 151.14 28.572L151.672 27.984C151.28 27.578 150.482 26.948 149.866 26.528L149.348 27.018ZM146.814 26.388V30.28H147.682V26.388H146.814ZM149.67 25.576C149.404 26.696 148.718 27.536 147.738 28.068C147.92 28.208 148.172 28.502 148.27 28.656C149.348 28.012 150.132 27.004 150.44 25.66L149.67 25.576ZM141.228 20.984V21.922H146.282V20.984H141.228ZM141.438 23.616V24.54H146.156V23.616H141.438ZM140.99 26.738L141.214 27.704C142.628 27.424 144.518 27.046 146.324 26.654L146.254 25.744C144.322 26.122 142.306 26.514 140.99 26.738ZM141.592 18.604C141.956 19.332 142.292 20.312 142.404 20.956L143.314 20.634C143.202 20.004 142.838 19.066 142.46 18.324L141.592 18.604ZM145.218 18.24C145.05 18.968 144.686 20.018 144.392 20.676L145.204 20.956C145.526 20.34 145.89 19.374 146.226 18.548L145.218 18.24ZM143.314 21.222V25.282C143.314 26.948 143.16 29.188 141.102 30.35C141.326 30.546 141.634 30.896 141.788 31.12C144.028 29.72 144.336 27.27 144.336 25.282V21.222H143.314ZM161.969 21.278V30.28H162.991V21.278H161.969ZM158.105 26.822V27.746H166.995V26.822H158.105ZM157.195 29.846V30.77H167.863V29.846H157.195ZM159.463 21.516C159.197 23.294 158.539 24.722 157.335 25.618C157.559 25.758 157.979 26.066 158.133 26.234C159.365 25.212 160.121 23.658 160.443 21.614L159.463 21.516ZM159.113 23.728C159.827 24.372 160.695 25.282 161.115 25.842L161.745 25.156C161.325 24.61 160.429 23.742 159.715 23.14L159.113 23.728ZM165.091 21.516C164.825 23.224 164.139 24.568 162.949 25.408C163.173 25.562 163.565 25.884 163.705 26.052C164.937 25.072 165.735 23.588 166.057 21.628L165.091 21.516ZM164.643 23.7C165.539 24.442 166.673 25.492 167.233 26.15L167.891 25.436C167.317 24.806 166.155 23.798 165.273 23.084L164.643 23.7ZM161.395 18.254V20.41H162.473V18.254H161.395ZM156.649 19.724V20.718H167.821V19.724H156.649ZM156.103 19.724V23.616C156.103 25.646 156.005 28.488 154.913 30.504C155.165 30.616 155.613 30.896 155.809 31.092C156.943 28.95 157.125 25.772 157.125 23.63V19.724H156.103Z" fill="#A8ABBD"/>
<path d="M127.221 71.838V72.888H131.435V71.838H127.221ZM132.933 68.282V79.65C132.933 79.916 132.821 80 132.555 80.014C132.261 80.014 131.365 80.028 130.357 79.986C130.525 80.308 130.735 80.826 130.777 81.134C132.079 81.134 132.891 81.106 133.367 80.91C133.829 80.728 134.025 80.392 134.025 79.65V68.282H132.933ZM131.071 71.838V72.076C130.483 75.282 128.873 77.676 126.871 78.936C127.123 79.104 127.543 79.524 127.725 79.776C129.783 78.376 131.477 75.758 132.191 72.062L131.477 71.796L131.295 71.838H131.071ZM133.969 70.564L133.129 70.76C134.165 74.904 136.069 78.474 139.261 80.056C139.443 79.734 139.807 79.314 140.073 79.104C136.937 77.732 134.935 74.33 133.969 70.564ZM138.533 70.522C137.609 71.768 135.985 73.406 134.795 74.372L135.537 74.96C136.755 74.022 138.351 72.482 139.499 71.208L138.533 70.522ZM147.346 68.996V69.948H153.8V68.996H147.346ZM148.634 69.374C148.522 72.678 148.172 77.368 147.864 80.014H148.858C149.138 77.424 149.446 72.748 149.586 69.374H148.634ZM146.856 79.86L147.15 80.798C148.452 80.56 150.202 80.224 151.854 79.902L151.798 79.048C149.95 79.356 148.074 79.678 146.856 79.86ZM149.544 74.484C150.048 75.45 150.51 76.752 150.664 77.592L151.42 77.354C151.266 76.514 150.776 75.24 150.244 74.26L149.544 74.484ZM151.784 71.978C151.84 77.004 151.812 81.134 153.352 81.134C154.08 81.134 154.262 80.462 154.346 78.614C154.15 78.488 153.898 78.25 153.702 78.026C153.688 79.272 153.632 80.154 153.45 80.154C152.75 80.154 152.736 76.066 152.75 71.978H151.784ZM141.298 71.026V71.964H147.514V71.026H141.298ZM141.046 74.764V75.73H147.668V74.764H141.046ZM146.072 68.254C145.862 68.996 145.442 70.06 145.092 70.718L145.876 70.97C146.24 70.354 146.702 69.36 147.08 68.534L146.072 68.254ZM141.886 68.548C142.278 69.29 142.642 70.298 142.768 70.942L143.65 70.648C143.51 70.004 143.118 69.024 142.712 68.282L141.886 68.548ZM145.232 71.39V81.106H146.184V71.39H145.232ZM142.558 71.39V74.708C142.558 76.71 142.404 78.838 140.99 80.56C141.228 80.7 141.592 80.994 141.76 81.204C143.3 79.314 143.496 76.962 143.496 74.708V71.39H142.558ZM149.04 71.978L148.956 72.916H152.33V71.978H149.04ZM161.969 71.278V80.28H162.991V71.278H161.969ZM158.105 76.822V77.746H166.995V76.822H158.105ZM157.195 79.846V80.77H167.863V79.846H157.195ZM159.463 71.516C159.197 73.294 158.539 74.722 157.335 75.618C157.559 75.758 157.979 76.066 158.133 76.234C159.365 75.212 160.121 73.658 160.443 71.614L159.463 71.516ZM159.113 73.728C159.827 74.372 160.695 75.282 161.115 75.842L161.745 75.156C161.325 74.61 160.429 73.742 159.715 73.14L159.113 73.728ZM165.091 71.516C164.825 73.224 164.139 74.568 162.949 75.408C163.173 75.562 163.565 75.884 163.705 76.052C164.937 75.072 165.735 73.588 166.057 71.628L165.091 71.516ZM164.643 73.7C165.539 74.442 166.673 75.492 167.233 76.15L167.891 75.436C167.317 74.806 166.155 73.798 165.273 73.084L164.643 73.7ZM161.395 68.254V70.41H162.473V68.254H161.395ZM156.649 69.724V70.718H167.821V69.724H156.649ZM156.103 69.724V73.616C156.103 75.646 156.005 78.488 154.913 80.504C155.165 80.616 155.613 80.896 155.809 81.092C156.943 78.95 157.125 75.772 157.125 73.63V69.724H156.103Z" fill="white"/>
<path d="M130.441 120.144V124.778H131.323V120.144H130.441ZM128.747 121.32V122.034H132.989V121.32H128.747ZM128.747 122.846V123.546H132.989V122.846H128.747ZM128.229 124.386V125.114H133.451V124.386H128.229ZM131.085 118.436C130.931 118.912 130.609 119.612 130.343 120.06L131.029 120.27C131.309 119.864 131.659 119.248 131.967 118.66L131.085 118.436ZM129.027 118.254C128.579 119.57 127.823 120.844 126.941 121.698C127.123 121.866 127.417 122.244 127.529 122.426C128.481 121.46 129.335 119.976 129.881 118.478L129.027 118.254ZM136.503 120.102V124.834H137.385V120.102H136.503ZM134.781 121.32V122.034H139.177V121.32H134.781ZM134.781 122.846V123.546H139.177V122.846H134.781ZM134.263 124.386V125.114H139.695V124.386H134.263ZM137.077 118.436C136.909 118.912 136.559 119.612 136.307 120.06L136.979 120.284C137.273 119.864 137.623 119.234 137.945 118.66L137.077 118.436ZM135.019 118.254C134.543 119.598 133.759 120.928 132.863 121.81C133.059 121.978 133.367 122.356 133.479 122.524C134.431 121.53 135.327 120.004 135.887 118.492L135.019 118.254ZM128.985 119.78L128.327 120.522H133.283V119.78H128.985ZM128.229 120.662V124.764H129.153V119.976L128.229 120.662ZM134.963 119.78L134.305 120.522H139.485V119.78H134.963ZM134.263 120.662V124.764H135.173V119.934L134.263 120.662ZM127.907 125.982V126.878H137.469V125.982H127.907ZM137.105 125.982V126.136C135.467 128.656 131.141 129.832 127.109 130.182C127.291 130.434 127.473 130.868 127.557 131.134C131.799 130.672 136.279 129.384 138.239 126.388L137.539 125.94L137.343 125.982H137.105ZM130.609 126.71L129.657 127.158C131.603 129.44 135.145 130.714 139.135 131.162C139.275 130.868 139.555 130.406 139.793 130.154C135.845 129.804 132.275 128.656 130.609 126.71ZM143.832 124.834H151.294V126.472H143.832V124.834ZM143.832 122.356H151.294V123.98H143.832V122.356ZM142.824 121.46V127.368H152.344V121.46H142.824ZM146.954 121.768V126.948H147.976V121.768H146.954ZM145.246 119.15L144.63 120.018H149.11V119.15H145.246ZM145.134 118.198C144.392 119.556 143.006 121.25 141.116 122.468C141.354 122.65 141.718 123.014 141.872 123.266C143.888 121.838 145.33 120.046 146.296 118.422L145.134 118.198ZM148.774 119.15V119.346C148.48 120.004 147.836 120.984 147.262 121.586C147.528 121.712 147.892 121.936 148.116 122.09C148.732 121.446 149.488 120.438 149.908 119.556L149.166 119.094L149.012 119.15H148.774ZM145.344 128.292C145.512 129.16 145.624 130.308 145.624 130.98L146.702 130.84C146.688 130.182 146.534 129.076 146.338 128.208L145.344 128.292ZM148.144 128.32C148.55 129.16 148.956 130.294 149.096 130.98L150.118 130.714C149.95 130.028 149.516 128.922 149.096 128.096L148.144 128.32ZM150.902 128.222C151.7 129.104 152.624 130.35 152.988 131.134L153.996 130.672C153.59 129.846 152.652 128.656 151.84 127.802L150.902 128.222ZM143.02 127.928C142.6 128.978 141.858 130.042 141.046 130.63L141.984 131.162C142.838 130.476 143.566 129.314 144.014 128.194L143.02 127.928ZM161.969 121.278V130.28H162.991V121.278H161.969ZM158.105 126.822V127.746H166.995V126.822H158.105ZM157.195 129.846V130.77H167.863V129.846H157.195ZM159.463 121.516C159.197 123.294 158.539 124.722 157.335 125.618C157.559 125.758 157.979 126.066 158.133 126.234C159.365 125.212 160.121 123.658 160.443 121.614L159.463 121.516ZM159.113 123.728C159.827 124.372 160.695 125.282 161.115 125.842L161.745 125.156C161.325 124.61 160.429 123.742 159.715 123.14L159.113 123.728ZM165.091 121.516C164.825 123.224 164.139 124.568 162.949 125.408C163.173 125.562 163.565 125.884 163.705 126.052C164.937 125.072 165.735 123.588 166.057 121.628L165.091 121.516ZM164.643 123.7C165.539 124.442 166.673 125.492 167.233 126.15L167.891 125.436C167.317 124.806 166.155 123.798 165.273 123.084L164.643 123.7ZM161.395 118.254V120.41H162.473V118.254H161.395ZM156.649 119.724V120.718H167.821V119.724H156.649ZM156.103 119.724V123.616C156.103 125.646 156.005 128.488 154.913 130.504C155.165 130.616 155.613 130.896 155.809 131.092C156.943 128.95 157.125 125.772 157.125 123.63V119.724H156.103Z" fill="#A8ABBD"/>
</svg>
