<svg width="140" height="64" viewBox="0 0 140 64" fill="none" xmlns="http://www.w3.org/2000/svg">
<rect width="140" height="64" rx="20" fill="#4A4D5A"/>
<path d="M43.1275 11.73V12.43H49.5175V11.73H43.1275ZM43.9575 10.61V13.53C43.9575 15.45 43.8375 17.6 42.6475 19.36C42.8175 19.45 43.0875 19.65 43.2175 19.79C44.4975 17.91 44.6175 15.61 44.6175 13.52V10.61H43.9575ZM41.6175 10.6V19.79H42.3375V10.6H41.6175ZM40.7175 12.53C40.6975 13.41 40.5475 14.5 40.1975 15.11L40.6975 15.34C41.0775 14.65 41.2375 13.51 41.2375 12.61L40.7175 12.53ZM42.4075 12.41C42.6975 13.04 42.9575 13.86 43.0375 14.37L43.5475 14.14C43.4575 13.65 43.1875 12.85 42.8875 12.24L42.4075 12.41ZM47.0075 12.69H46.6575V15.31C46.6575 16.02 46.2975 18.13 44.1875 19.23C44.3175 19.38 44.5175 19.66 44.6075 19.81C46.2675 18.93 46.8775 17.33 46.9975 16.61C47.1175 17.32 47.6775 18.96 49.2275 19.81C49.3275 19.64 49.5275 19.36 49.6575 19.19C47.6875 18.13 47.3475 16 47.3475 15.31V12.69H47.0075ZM45.2375 13.95C45.1775 14.75 45.0175 15.65 44.6775 16.16L45.1875 16.44C45.5775 15.87 45.7075 14.92 45.7875 14.07L45.2375 13.95ZM48.8175 13.82C48.6275 14.51 48.2375 15.51 47.9375 16.11L48.4775 16.25C48.7975 15.68 49.1775 14.75 49.4775 13.98L48.8175 13.82ZM54.6725 10.59C54.3225 11.61 53.7325 12.63 53.0325 13.29C53.2225 13.38 53.5425 13.6 53.6825 13.72C54.3525 13 55.0025 11.9 55.4125 10.76L54.6725 10.59ZM54.6125 11.61L54.2825 12.24H59.4425V11.61H54.6125ZM54.9225 14.6H58.0825V15.29H54.9225V14.6ZM54.9225 13.43H58.0825V14.11H54.9225V13.43ZM54.2425 12.91V15.82H58.7825V12.91H54.2425ZM55.3925 15.63C54.9125 16.51 54.0225 17.29 53.1025 17.78C53.2525 17.89 53.5125 18.13 53.6225 18.26C54.5425 17.7 55.5025 16.82 56.0525 15.82L55.3925 15.63ZM55.1425 16.86L54.5425 17.05C55.4225 18.48 57.1025 19.46 59.2225 19.79C59.3225 19.61 59.5125 19.31 59.6725 19.16C57.6125 18.9 55.9025 18.05 55.1425 16.86ZM55.1725 16.49L54.7125 17.04H58.2625V16.49H55.1725ZM58.0625 16.49V16.6C57.2925 18.14 55.1725 18.92 53.0225 19.19C53.1525 19.36 53.3025 19.64 53.3625 19.82C55.6525 19.45 57.8725 18.58 58.8025 16.7L58.3425 16.46L58.2125 16.49H58.0625ZM52.6325 12.64C52.0425 13.7 51.0925 14.75 50.1625 15.43C50.3025 15.59 50.5225 15.94 50.5925 16.1C51.5725 15.3 52.6225 14.09 53.3125 12.89L52.6325 12.64ZM52.4025 10.61C51.9625 11.32 51.0625 12.17 50.2825 12.7C50.4125 12.84 50.6025 13.1 50.7025 13.25C51.5525 12.65 52.4925 11.71 53.0725 10.87L52.4025 10.61ZM51.7325 14.5V19.84H52.4425V13.94L52.3425 13.89L51.7325 14.5ZM64.3475 11.03C64.1075 11.72 63.6975 12.4 63.2375 12.89C63.3975 12.98 63.6675 13.17 63.7875 13.28C64.2375 12.76 64.6975 11.95 64.9975 11.19L64.3475 11.03ZM63.5775 15.7V16.18H68.2875V15.7H63.5775ZM68.2075 15.66V16.21H69.5775V15.66H68.2075ZM64.3475 12.69V13.19H68.4675V12.69H64.3475ZM63.6975 13.73V14.24H69.1875V13.73H63.6975ZM66.0275 12.9V13.97H66.7175V12.9H66.0275ZM64.8375 17.62V18.85C64.8375 19.5 65.0375 19.67 65.8575 19.67C66.0175 19.67 67.0775 19.67 67.2375 19.67C67.8475 19.67 68.0375 19.46 68.1075 18.61C67.9275 18.58 67.6575 18.48 67.5275 18.38C67.4975 19.01 67.4475 19.08 67.1675 19.08C66.9475 19.08 66.0875 19.08 65.9275 19.08C65.5675 19.08 65.5075 19.05 65.5075 18.85V17.62H64.8375ZM68.4675 10.61C67.5675 10.87 65.8875 11.08 64.4775 11.19C64.5575 11.32 64.6375 11.56 64.6675 11.7C66.1275 11.61 67.8775 11.4 68.9975 11.07L68.4675 10.61ZM64.1375 14.71V15.19H67.9975V16.7H64.1375V17.19H68.6675V14.71H64.1375ZM67.7675 17.82C68.2775 18.33 68.8375 19.05 69.0675 19.53L69.6375 19.16C69.3875 18.68 68.8175 18 68.2975 17.5L67.7675 17.82ZM65.7775 11.75C65.9675 12.05 66.1675 12.46 66.2375 12.73L66.8275 12.49C66.7375 12.23 66.5375 11.83 66.3275 11.54L65.7775 11.75ZM67.7775 11.63C68.2275 12.1 68.7475 12.76 68.9875 13.18L69.5175 12.82C69.2775 12.41 68.7375 11.77 68.2875 11.32L67.7775 11.63ZM65.4875 17.39C65.9275 17.63 66.4875 18.05 66.7675 18.34L67.2175 17.91C66.9275 17.64 66.3775 17.24 65.9075 17.01L65.4875 17.39ZM63.8675 17.64C63.7075 18.21 63.3775 18.85 62.9075 19.2L63.4175 19.58C63.9575 19.17 64.2575 18.47 64.4475 17.84L63.8675 17.64ZM60.7875 11.04V19.81H61.4475V11.72H62.9775V11.04H60.7875ZM62.7575 11.04V11.24C62.5775 11.92 62.2575 13.11 61.9375 14.03C62.5775 14.82 62.7075 15.51 62.7175 16.04C62.7175 16.35 62.6675 16.63 62.5375 16.74C62.4675 16.8 62.3675 16.83 62.2475 16.83C62.1175 16.84 61.9475 16.83 61.7475 16.82C61.8475 17 61.9075 17.28 61.9175 17.46C62.1275 17.47 62.3475 17.46 62.5175 17.44C62.7075 17.41 62.8675 17.36 62.9975 17.27C63.2575 17.07 63.3675 16.65 63.3675 16.12C63.3675 15.51 63.2175 14.79 62.5775 13.96C62.8675 13.14 63.2075 12.1 63.4475 11.28L62.9775 11.01L62.8775 11.04H62.7575ZM70.6125 11.31V11.95H79.4225V11.31H70.6125ZM72.6225 13.03V13.68H79.5325V13.03H72.6225ZM71.1825 14.79V15.41H72.5525V14.79H71.1825ZM70.4225 16.24V16.87H72.5125V16.24H70.4225ZM73.7025 18.13V18.65H76.5025V18.13H73.7025ZM72.9825 10.61V12.65H73.7225V10.61H72.9825ZM76.2525 10.61V12.66H76.9925V10.61H76.2525ZM74.8325 14.58V15.79H75.3725V14.58H74.8325ZM70.8625 13.08V15.72H71.4525V13.08H70.8625ZM74.8325 17.13V18.35H75.3725V17.13H74.8325ZM73.7625 15.52V16.02H75.8625V16.9H73.7625V17.39H76.4125V15.52H73.7625ZM73.4325 14.3V19.25H74.0025V14.82H76.4125V14.3H73.4325ZM72.2825 13.03V15.79C72.2825 16.93 72.2225 18.43 71.6325 19.5C71.7925 19.56 72.0825 19.72 72.2025 19.83C72.8225 18.7 72.9225 17.02 72.9225 15.8V13.03H72.2825ZM76.5925 12.37C76.7125 17.15 77.4425 19.82 78.7325 19.82C79.3225 19.82 79.5725 19.57 79.6825 18.23C79.5125 18.17 79.2925 18.03 79.1425 17.89C79.0925 18.88 78.9925 19.14 78.7825 19.15C78.0725 19.15 77.3125 16.95 77.2725 12.37H76.5925ZM77.7225 12.39C78.0825 12.61 78.4925 12.94 78.6825 13.19L79.1525 12.81C78.9525 12.57 78.5225 12.25 78.1625 12.04L77.7225 12.39ZM78.3525 14.3C77.9025 16.54 76.9825 18.3 75.4425 19.36C75.6025 19.47 75.8825 19.7 76.0025 19.82C77.5325 18.65 78.5025 16.83 79.0225 14.41L78.3525 14.3ZM70.9725 16.46V17.31C70.9725 17.94 70.8925 18.84 70.3525 19.49C70.4825 19.56 70.7025 19.71 70.8125 19.81C71.4325 19.09 71.5425 18.05 71.5425 17.33V16.46H70.9725ZM85.4875 13.3V14H89.6375V13.3H85.4875ZM80.4575 12.73V13.37H85.5975V12.73H80.4575ZM80.8175 14.92V15.55H85.2275V14.92H80.8175ZM81.0875 16.57V17.2H85.0275V16.57H81.0875ZM87.8475 10.67V18.88C87.8475 19.05 87.7775 19.11 87.6075 19.11C87.4475 19.12 86.8975 19.12 86.2975 19.1C86.3975 19.3 86.5275 19.62 86.5675 19.81C87.3775 19.82 87.8675 19.8 88.1675 19.67C88.4475 19.55 88.5675 19.34 88.5675 18.88V10.67H87.8475ZM85.8075 15.01C86.2075 15.75 86.5875 16.71 86.6875 17.31L87.3575 17.07C87.2575 16.46 86.8675 15.52 86.4375 14.79L85.8075 15.01ZM80.5575 11.13C80.8675 11.61 81.1575 12.25 81.2575 12.67L81.8375 12.4C81.7275 11.99 81.4275 11.37 81.0975 10.9L80.5575 11.13ZM81.2875 13.59C81.5275 14.01 81.7475 14.59 81.8075 14.95L82.4375 14.72C82.3675 14.36 82.1375 13.81 81.8875 13.39L81.2875 13.59ZM82.0275 10.65V13.04H82.6375V10.65H82.0275ZM82.6675 15.12V18.73H83.3775V15.12H82.6675ZM83.4075 10.65V13.04H84.0275V10.65H83.4075ZM80.4875 18.66L80.5975 19.37C81.8775 19.19 83.7575 18.94 85.5175 18.68L85.4975 18.02C83.6675 18.27 81.7375 18.51 80.4875 18.66ZM84.9775 10.84C84.8075 11.32 84.4575 12.03 84.1875 12.45L84.7075 12.68C84.9875 12.27 85.3475 11.64 85.6475 11.1L84.9775 10.84ZM84.1275 13.37C84.0075 13.78 83.7575 14.39 83.5575 14.76L84.1575 14.93C84.3575 14.58 84.6075 14.05 84.8175 13.56L84.1275 13.37ZM94.8225 15.92V19.81H95.5425V16.61H98.4925V19.75H99.2425V15.92H94.8225ZM98.8025 10.76C97.7925 11.09 95.9925 11.34 94.4825 11.48C94.5725 11.66 94.6725 11.94 94.7025 12.11C96.2625 11.99 98.1225 11.75 99.3425 11.39L98.8025 10.76ZM96.5925 11.53V16.27H97.3525V11.53H96.5925ZM94.2325 13.52V14.23H99.7025V13.52H94.2325ZM95.2925 18.62V19.3H98.8625V18.62H95.2925ZM90.9125 13.69V14.28H93.8425V13.69H90.9125ZM90.9725 10.96V11.56H93.8325V10.96H90.9725ZM90.9125 15.05V15.65H93.8425V15.05H90.9125ZM90.4425 12.3V12.92H94.1725V12.3H90.4425ZM91.2925 16.42V17.05H93.2125V18.72H91.2925V19.34H93.8725V16.42H91.2925ZM90.9025 16.42V19.8H91.5525V16.42H90.9025Z" fill="white"/>
<path d="M44.8975 43.33C45.7975 44.59 47.5475 46.08 49.0975 46.97C49.2275 46.75 49.4075 46.5 49.5975 46.31C48.0275 45.53 46.2775 44.07 45.2375 42.59H44.4675C43.6975 43.89 42.0275 45.48 40.3075 46.43C40.4675 46.59 40.6775 46.85 40.7775 47.03C42.4675 46.04 44.0775 44.55 44.8975 43.33ZM41.5175 48.53V49.2H48.3375V48.53H41.5175ZM41.9675 46.29V46.97H47.9475V46.29H41.9675ZM40.6975 50.85V51.53H49.2175V50.85H40.6975ZM44.5075 46.57V51.23H45.2975V46.57H44.5075ZM55.9625 43.2V51.81H56.6925V43.91H58.9625V43.2H55.9625ZM50.6325 43.71V44.38H55.4125V43.71H50.6325ZM50.3725 46.48V47.17H55.5425V46.48H50.3725ZM52.6425 42.64V44.12H53.3725V42.64H52.6425ZM51.2525 44.73C51.4625 45.24 51.6325 45.92 51.6825 46.36L52.3525 46.2C52.2925 45.76 52.1025 45.09 51.8825 44.59L51.2525 44.73ZM54.1225 44.52C54.0025 45.03 53.7625 45.77 53.5625 46.23L54.1625 46.39C54.3825 45.95 54.6225 45.28 54.8425 44.69L54.1225 44.52ZM51.3125 50.56V51.23H54.6025V50.56H51.3125ZM51.0425 48.04V51.81H51.7425V48.71H54.2625V51.76H54.9825V48.04H51.0425ZM58.7625 43.2V43.44C58.4625 44.23 57.9225 45.61 57.4125 46.64C58.4225 47.52 58.7125 48.27 58.7225 48.9C58.7225 49.27 58.6525 49.56 58.4325 49.69C58.3125 49.76 58.1725 49.8 58.0025 49.81C57.8025 49.82 57.5125 49.81 57.2225 49.79C57.3525 50 57.4225 50.32 57.4325 50.53C57.7225 50.54 58.0525 50.55 58.3025 50.52C58.5625 50.48 58.7825 50.41 58.9625 50.3C59.3125 50.06 59.4525 49.59 59.4525 48.98C59.4425 48.26 59.2025 47.47 58.1925 46.54C58.6525 45.62 59.1725 44.46 59.5825 43.52L59.0325 43.17L58.9125 43.2H58.7625ZM64.3675 47.37V47.94H69.0775V47.37H64.3675ZM63.7875 43.05V43.67H69.5875V43.05H63.7875ZM63.7375 48.67V49.29H69.5875V48.67H63.7375ZM67.7075 49.9C68.2175 50.38 68.8175 51.05 69.0975 51.47L69.6575 51.06C69.3675 50.64 68.7575 50 68.2475 49.54L67.7075 49.9ZM64.7475 44.95H68.6675V46.19H64.7475V44.95ZM64.1075 44.37V46.77H69.3275V44.37H64.1075ZM66.2875 48.95V51.05C66.2875 51.15 66.2575 51.19 66.1275 51.19C66.0175 51.2 65.6375 51.2 65.1575 51.19C65.2475 51.37 65.3475 51.62 65.3875 51.81C66.0075 51.81 66.4075 51.81 66.6675 51.7C66.9375 51.6 66.9875 51.41 66.9875 51.06V48.95H66.2875ZM64.8975 49.51C64.5675 50.02 63.9575 50.63 63.3675 51.01C63.5275 51.13 63.7275 51.32 63.8475 51.46C64.4475 51.04 65.0775 50.43 65.4775 49.84L64.8975 49.51ZM65.5875 43.39V44.72H66.1975V43.39H65.5875ZM65.6475 44.63V46.53H66.1975V44.63H65.6475ZM67.1275 43.39V44.72H67.7375V43.39H67.1275ZM67.1275 44.63V46.53H67.6775V44.63H67.1275ZM60.4975 44.77V45.48H63.7175V44.77H60.4975ZM61.9075 42.6V51.79H62.5975V42.6H61.9075ZM61.8875 45.19C61.6075 46.62 60.9575 48.36 60.2975 49.26C60.4175 49.42 60.5975 49.71 60.6775 49.9C61.3775 48.9 62.0375 46.93 62.3475 45.35L61.8875 45.19ZM62.5475 46.1L62.2075 46.42C62.4675 46.82 63.1575 47.99 63.3775 48.49L63.7975 47.93C63.6175 47.64 62.7775 46.38 62.5475 46.1ZM72.1125 47.93V48.59H78.9225V47.93H72.1125ZM70.8225 44.32V45.01H77.3625V44.32H70.8225ZM73.6425 46.12V46.79H78.2225V46.12H73.6425ZM78.6025 47.93V48.05C78.4425 50.04 78.2525 50.83 78.0225 51.06C77.9325 51.14 77.8325 51.16 77.6425 51.16C77.4525 51.16 76.9725 51.16 76.4725 51.1C76.5925 51.3 76.6725 51.59 76.6825 51.8C77.2025 51.82 77.7025 51.83 77.9525 51.81C78.2525 51.79 78.4425 51.72 78.6325 51.53C78.9525 51.2 79.1425 50.37 79.3225 48.26C79.3425 48.15 79.3525 47.93 79.3525 47.93H78.6025ZM76.3825 49.13C76.6825 49.55 76.9925 50.13 77.1225 50.49L77.6725 50.26C77.5425 49.9 77.2325 49.34 76.9125 48.93L76.3825 49.13ZM72.0625 42.9C72.4525 43.32 72.8725 43.91 73.0425 44.3L73.7425 43.98C73.5425 43.6 73.1025 43.03 72.7125 42.63L72.0625 42.9ZM73.4225 49.38C73.5925 50.03 73.7025 50.85 73.6825 51.39L74.3425 51.3C74.3425 50.76 74.2325 49.93 74.0325 49.3L73.4225 49.38ZM74.8925 49.29C75.1425 49.84 75.3825 50.57 75.4525 51.05L76.0725 50.88C75.9925 50.41 75.7425 49.7 75.4825 49.15L74.8925 49.29ZM72.1425 49.15C71.9425 49.92 71.5625 50.81 71.0025 51.34L71.5825 51.75C72.1925 51.14 72.5425 50.19 72.7725 49.36L72.1425 49.15ZM75.0925 42.6C74.3325 45.19 72.7925 47.75 70.3125 49.16C70.4425 49.32 70.6325 49.62 70.7225 49.8C73.3725 48.23 74.9425 45.59 75.8525 42.79L75.0925 42.6ZM77.1925 44.32C77.0825 44.96 76.9125 45.76 76.7725 46.29L77.4325 46.38C77.5825 45.84 77.7625 45.01 77.9025 44.32H77.1925ZM77.9425 46.12C77.8425 46.76 77.6725 47.57 77.5225 48.11L78.2025 48.19C78.3425 47.65 78.5125 46.81 78.6525 46.12H77.9425ZM81.4875 44.96V49.98C81.4875 51.23 81.9975 51.52 83.6275 51.52C83.9975 51.52 86.9775 51.52 87.3875 51.52C89.0375 51.52 89.3575 50.98 89.5575 49.13C89.3275 49.09 88.9975 48.96 88.7875 48.82C88.6575 50.44 88.4875 50.78 87.3875 50.78C86.7175 50.78 84.1075 50.78 83.5775 50.78C82.4775 50.78 82.2575 50.63 82.2575 50V44.96H81.4875ZM81.9075 46.6V47.35H87.8075V46.6H81.9075ZM80.9675 43.23V43.97H87.5075V47.84H88.2775V43.23H80.9675ZM93.9725 43.16V43.68H99.5025V43.16H93.9725ZM94.3225 44.16V44.66H99.2225V44.16H94.3225ZM96.3025 42.61V44.43H97.0325V42.61H96.3025ZM97.0225 45.27V45.72C97.0225 46.18 97.1625 46.27 97.7425 46.27C97.8425 46.27 98.5525 46.27 98.6725 46.27C99.0225 46.27 99.1725 46.19 99.2125 46C99.0825 45.98 98.9025 45.94 98.7925 45.87C98.7725 45.9 98.7325 45.9 98.5825 45.9C98.4425 45.9 97.8925 45.9 97.7825 45.9C97.5625 45.9 97.5325 45.88 97.5325 45.73V45.27H97.0225ZM95.8925 45.3C95.8725 45.81 95.6625 45.97 94.7125 46.04C94.8025 46.12 94.9125 46.29 94.9425 46.4C96.0625 46.29 96.3525 45.98 96.3625 45.3H95.8925ZM94.6625 45.5H98.7925V46.62H94.6625V45.5ZM94.0425 45.06V47.05H99.4325V45.06H94.0425ZM95.0225 48.67H98.4625V49.1H95.0225V48.67ZM95.0225 49.46H98.4625V49.92H95.0225V49.46ZM95.0225 47.88H98.4625V48.3H95.0225V47.88ZM94.3425 47.42V50.37H99.1625V47.42H94.3425ZM97.1725 50.74C97.8925 51.09 98.6825 51.52 99.1425 51.82L99.7525 51.4C99.2425 51.1 98.3825 50.68 97.6425 50.34L97.1725 50.74ZM95.5625 50.36C95.1325 50.72 94.2325 51.12 93.4725 51.34C93.6225 51.46 93.8425 51.67 93.9525 51.81C94.7025 51.58 95.6125 51.15 96.1825 50.73L95.5625 50.36ZM90.8525 45.63V46.23H93.4225V45.63H90.8525ZM90.9125 42.96V43.56H93.3925V42.96H90.9125ZM90.8525 46.97V47.57H93.4225V46.97H90.8525ZM90.4425 44.27V44.89H93.6725V44.27H90.4425ZM91.2025 48.32V48.94H92.7825V50.61H91.2025V51.23H93.4125V48.32H91.2025ZM90.8325 48.32V51.7H91.4525V48.32H90.8325Z" fill="white"/>
</svg>
