<svg width="24" height="24" viewBox="0 0 24 24" fill="none" xmlns="http://www.w3.org/2000/svg">
<g clip-path="url(#clip0_2101_38956)">
<path d="M7.51683 4.18793C4.65511 4.18793 2.34372 6.49932 2.34372 9.36105C2.34372 11.8706 4.17082 14.0058 6.54825 14.4461V16.4713L4.3029 16.4713C3.77458 16.4713 3.33432 16.9116 3.33432 17.4399C3.33432 17.9682 3.77458 18.4085 4.3029 18.4085L6.54825 18.4085L6.54825 21.7105C6.54825 22.2388 6.98852 22.6791 7.51683 22.6791C8.04515 22.6791 8.48542 22.2388 8.48542 21.7105L8.48542 18.4085L10.7308 18.4085C11.2591 18.4085 11.6994 17.9682 11.6994 17.4399C11.6994 16.9116 11.2591 16.4713 10.7308 16.4713L8.48542 16.4713L8.48542 14.4461C10.8849 13.9838 12.712 11.8926 12.69 9.36105C12.69 6.49932 10.3786 4.18793 7.51683 4.18793ZM10.7528 9.36105C10.7528 11.1661 9.29991 12.619 7.49482 12.619C5.68973 12.619 4.23686 11.1661 4.23686 9.36105C4.23686 7.55596 5.68973 6.10308 7.49482 6.10308C9.29991 6.10308 10.7748 7.57797 10.7528 9.36105Z" fill="#383A44"/>
<path d="M21.3018 1H17.2873C16.88 1 16.56 1.32 16.56 1.72726C16.56 2.13453 16.88 2.45452 17.2873 2.45452H19.5272L16.8509 5.13085C14.7855 3.58905 11.8474 3.73451 9.98556 5.5963C7.94923 7.63263 7.94923 10.978 9.98556 13.0144C12.0219 15.0507 15.3673 15.0507 17.4036 13.0144C19.2654 11.1526 19.44 8.18535 17.8691 6.14902L20.5454 3.47269V5.74175C20.5454 6.14902 20.8654 6.46901 21.2727 6.46901C21.6799 6.46901 21.9999 6.14902 21.9999 5.74175V1.72726C22.029 1.32 21.709 1 21.3018 1ZM16.4146 11.9962C14.9309 13.4798 12.5164 13.4798 11.0328 11.9962C9.54921 10.5126 9.54921 8.09808 11.0328 6.61447C12.5164 5.13085 14.9309 5.13085 16.4146 6.61447C17.8982 8.09808 17.8982 10.5126 16.4146 11.9962Z" fill="#383A44"/>
</g>
<defs>
<clipPath id="clip0_2101_38956">
<rect width="24" height="24" fill="white"/>
</clipPath>
</defs>
</svg>
