<svg width="24" height="24" viewBox="0 0 24 24" fill="none" xmlns="http://www.w3.org/2000/svg">
<path d="M20.8725 16.545C20.8725 14.55 19.2449 12.9225 17.25 12.9225C15.8774 12.9225 14.6999 13.695 14.085 14.8275H9.91493C9.29997 13.695 8.12247 12.9225 6.74996 12.9225C4.75498 12.9225 3.12744 14.55 3.12744 16.545C3.12744 18.5475 4.75497 20.175 6.74996 20.175C8.74494 20.175 10.3725 18.5475 10.3725 16.545C10.3725 16.47 10.3575 16.4025 10.3499 16.3275H13.65C13.6425 16.4025 13.6274 16.47 13.6274 16.545C13.6274 18.5475 15.255 20.175 17.25 20.175C19.2449 20.175 20.8725 18.5475 20.8725 16.545Z" fill="black"/>
<path d="M22.7025 11.085C21.525 10.755 20.3325 10.4775 19.14 10.2525L17.985 4.43246C17.94 4.21498 17.805 4.02748 17.6175 3.92246C17.4225 3.81746 17.19 3.80249 16.9875 3.87746C13.77 5.09246 10.23 5.09246 7.01246 3.87746C6.81 3.79498 6.5775 3.81746 6.39 3.92246C6.19499 4.02747 6.06 4.21497 6.015 4.43246L4.85997 10.2525C3.66749 10.4775 2.47498 10.7549 1.28996 11.085C0.892483 11.205 0.667491 11.6175 0.779968 12.0149C0.892483 12.4125 1.30498 12.6375 1.7025 12.5324C8.43748 10.605 15.5625 10.605 22.2975 12.5324C22.365 12.5475 22.4325 12.5625 22.5 12.5625C22.83 12.5625 23.13 12.3449 23.22 12.0149C23.3325 11.6175 23.1075 11.205 22.7025 11.085Z" fill="black"/>
</svg>
