<svg width="23" height="23" viewBox="0 0 23 23" fill="none" xmlns="http://www.w3.org/2000/svg">
<path d="M5 4.37495V20.4058C4.99993 20.5089 5.02436 20.6103 5.07088 20.6999C5.1174 20.7895 5.1844 20.8643 5.2653 20.9169C5.3462 20.9695 5.4382 20.9981 5.53225 20.9999C5.6263 21.0017 5.71915 20.9766 5.80167 20.9271L11.5 17.5191L17.1983 20.9271C17.2809 20.9766 17.3737 21.0017 17.4678 20.9999C17.5618 20.9981 17.6538 20.9695 17.7347 20.9169C17.8156 20.8643 17.8826 20.7895 17.9291 20.6999C17.9756 20.6103 18.0001 20.5089 18 20.4058V4.37495C18 3.74507 17.7717 3.14099 17.3654 2.69561C16.9591 2.25022 16.408 2 15.8333 2H7.16667C6.59203 2 6.04093 2.25022 5.6346 2.69561C5.22827 3.14099 5 3.74507 5 4.37495V4.37495Z" fill="#6F7387"/>
</svg>
