<svg width="16" height="16" viewBox="0 0 16 16" fill="none" xmlns="http://www.w3.org/2000/svg">
<path d="M5.35325 8.09459C5.35325 8.32551 5.26152 8.54696 5.09824 8.71024C4.93496 8.87352 4.71351 8.96525 4.48259 8.96525C4.25168 8.96525 4.03023 8.87352 3.86695 8.71024C3.70367 8.54696 3.61194 8.32551 3.61194 8.09459C3.61194 7.86368 3.70367 7.64223 3.86695 7.47895C4.03023 7.31567 4.25168 7.22394 4.48259 7.22394C4.71351 7.22394 4.93496 7.31567 5.09824 7.47895C5.26152 7.64223 5.35325 7.86368 5.35325 8.09459ZM8.83587 8.09459C8.83587 8.32551 8.74414 8.54696 8.58086 8.71024C8.41758 8.87352 8.19613 8.96525 7.96521 8.96525C7.7343 8.96525 7.51285 8.87352 7.34957 8.71024C7.18629 8.54696 7.09456 8.32551 7.09456 8.09459C7.09456 7.86368 7.18629 7.64223 7.34957 7.47895C7.51285 7.31567 7.7343 7.22394 7.96521 7.22394C8.19613 7.22394 8.41758 7.31567 8.58086 7.47895C8.74414 7.64223 8.83587 7.86368 8.83587 8.09459ZM11.4478 8.96525C11.6787 8.96525 11.9002 8.87352 12.0635 8.71024C12.2268 8.54696 12.3185 8.32551 12.3185 8.09459C12.3185 7.86368 12.2268 7.64223 12.0635 7.47895C11.9002 7.31567 11.6787 7.22394 11.4478 7.22394C11.2169 7.22394 10.9955 7.31567 10.8322 7.47895C10.6689 7.64223 10.5772 7.86368 10.5772 8.09459C10.5772 8.32551 10.6689 8.54696 10.8322 8.71024C10.9955 8.87352 11.2169 8.96525 11.4478 8.96525Z" fill="#6F7387"/>
<path d="M2.88497 14.8883L2.90238 14.8848C4.49568 14.5688 5.46907 14.1517 5.92181 13.9228C6.58838 14.1005 7.27538 14.1901 7.96524 14.1892C11.8118 14.1892 14.9305 11.4605 14.9305 8.09459C14.9305 4.72863 11.8118 2 7.96524 2C4.11869 2 1 4.72863 1 8.09459C1 9.62694 1.6469 11.0287 2.71519 12.0996C2.64045 12.7875 2.48739 13.4646 2.25897 14.1178L2.25636 14.1274C2.19144 14.3144 2.12059 14.4994 2.04392 14.682C1.97513 14.8439 2.10834 15.025 2.2816 14.9971C2.4833 14.9641 2.68445 14.9279 2.88497 14.8883ZM3.58149 12.1823C3.59369 12.0548 3.57762 11.9263 3.53443 11.8057C3.49124 11.6852 3.42199 11.5756 3.33161 11.4849C2.40872 10.5585 1.87066 9.37271 1.87066 8.09459C1.87066 5.31546 4.4861 2.87066 7.96524 2.87066C11.4444 2.87066 14.0598 5.31546 14.0598 8.09459C14.0598 10.8746 11.4444 13.3185 7.96524 13.3185C7.35152 13.3194 6.74033 13.2398 6.14731 13.0817C5.94008 13.0262 5.71964 13.0491 5.52828 13.1461C5.19133 13.3168 4.44867 13.6424 3.23497 13.9236C3.40429 13.3552 3.5203 12.7722 3.58149 12.1823Z" fill="#6F7387"/>
</svg>
