<svg width="" height="" viewBox="0 0 24 24" fill="none" xmlns="http://www.w3.org/2000/svg">
<path d="M19.3036 4H3.69643C2.71641 4.00102 1.77684 4.36604 1.08386 5.01498C0.39088 5.66391 0.0010871 6.54377 0 7.4615V16.6922C0.0010871 17.6099 0.39088 18.4898 1.08386 19.1387C1.77684 19.7876 2.71641 20.1527 3.69643 20.1537H4.92857V23.2306C4.92853 23.3768 4.97302 23.5201 5.05681 23.6435C5.14061 23.7669 5.26025 23.8654 5.4017 23.9274C5.54315 23.9894 5.70055 24.0124 5.85544 23.9936C6.01033 23.9749 6.1563 23.9151 6.27623 23.8214L10.9733 20.1537H19.3036C20.2836 20.1527 21.2232 19.7876 21.9161 19.1387C22.6091 18.4898 22.9989 17.6099 23 16.6922V7.4615C22.9989 6.54377 22.6091 5.66391 21.9161 5.01498C21.2232 4.36604 20.2836 4.00102 19.3036 4V4ZM6.57143 13.6153C6.2465 13.6153 5.92887 13.5251 5.65871 13.356C5.38854 13.187 5.17797 12.9467 5.05363 12.6656C4.92928 12.3845 4.89675 12.0751 4.96014 11.7767C5.02353 11.4783 5.18 11.2041 5.40975 10.989C5.63951 10.7738 5.93224 10.6273 6.25092 10.568C6.56961 10.5086 6.89993 10.5391 7.20012 10.6555C7.50032 10.7719 7.7569 10.9691 7.93741 11.2221C8.11793 11.4751 8.21429 11.7726 8.21429 12.0768C8.21429 12.4849 8.0412 12.8762 7.7331 13.1647C7.42501 13.4532 7.00714 13.6153 6.57143 13.6153ZM11.5 13.6153C11.1751 13.6153 10.8574 13.5251 10.5873 13.356C10.3171 13.187 10.1065 12.9467 9.9822 12.6656C9.85785 12.3845 9.82532 12.0751 9.88871 11.7767C9.9521 11.4783 10.1086 11.2041 10.3383 10.989C10.5681 10.7738 10.8608 10.6273 11.1795 10.568C11.4982 10.5086 11.8285 10.5391 12.1287 10.6555C12.4289 10.7719 12.6855 10.9691 12.866 11.2221C13.0465 11.4751 13.1429 11.7726 13.1429 12.0768C13.1429 12.4849 12.9698 12.8762 12.6617 13.1647C12.3536 13.4532 11.9357 13.6153 11.5 13.6153V13.6153ZM16.4286 13.6153C16.1036 13.6153 15.786 13.5251 15.5158 13.356C15.2457 13.187 15.0351 12.9467 14.9108 12.6656C14.7864 12.3845 14.7539 12.0751 14.8173 11.7767C14.8807 11.4783 15.0371 11.2041 15.2669 10.989C15.4967 10.7738 15.7894 10.6273 16.1081 10.568C16.4267 10.5086 16.7571 10.5391 17.0573 10.6555C17.3575 10.7719 17.614 10.9691 17.7946 11.2221C17.9751 11.4751 18.0714 11.7726 18.0714 12.0768C18.0714 12.4849 17.8983 12.8762 17.5902 13.1647C17.2822 13.4532 16.8643 13.6153 16.4286 13.6153Z" fill=""/>
</svg>
