<svg width="" height="" viewBox="0 0 24 24" fill="none" xmlns="http://www.w3.org/2000/svg">
<path d="M15.6845 1.74535C14.749 0.619818 13.4423 0 12 0C10.55 0 9.23902 0.616068 8.30779 1.73463C7.36647 2.86552 6.90783 4.40247 7.01552 6.06211C7.22898 9.33637 9.46497 11.9999 12 11.9999C14.535 11.9999 16.7672 9.33691 16.984 6.06318C17.0931 4.41855 16.6316 2.8848 15.6845 1.74535ZM20.4613 23.9999H3.53869C3.31719 24.0031 3.09783 23.9512 2.89658 23.8481C2.69532 23.7449 2.51723 23.5931 2.37526 23.4036C2.06277 22.9874 1.93682 22.419 2.03008 21.8442C2.43584 19.336 3.70215 17.229 5.69248 15.7499C7.4607 14.4369 9.70054 13.7142 12 13.7142C14.2995 13.7142 16.5393 14.4374 18.3075 15.7499C20.2978 17.2285 21.5642 19.3354 21.9699 21.8436C22.0632 22.4184 21.9372 22.9868 21.6247 23.4031C21.4828 23.5927 21.3047 23.7446 21.1035 23.8478C20.9022 23.9511 20.6828 24.003 20.4613 23.9999Z" fill=""/>
</svg>
