<svg width="24" height="24" viewBox="0 0 24 24" fill="none" xmlns="http://www.w3.org/2000/svg">
<g clip-path="url(#clip0_48_7460)">
<path d="M23.9999 7.99108C24.0008 8.24723 23.9442 8.50032 23.8345 8.73175C23.7247 8.96319 23.5645 9.16708 23.3657 9.32846L13.0809 17.6099C12.7742 17.8621 12.3895 18 11.9924 18C11.5954 18 11.2107 17.8621 10.904 17.6099L0.619231 9.03698C0.269178 8.74595 0.0490428 8.32774 0.00725287 7.87435C-0.034537 7.42097 0.105442 6.96955 0.396395 6.6194C0.687347 6.26925 1.10544 6.04906 1.5587 6.00726C2.01196 5.96545 2.46326 6.10547 2.81331 6.3965L12.001 14.0607L21.1887 6.65369C21.4403 6.44403 21.7467 6.31084 22.0716 6.2699C22.3965 6.22895 22.7264 6.28196 23.0221 6.42266C23.3178 6.56335 23.5671 6.78584 23.7404 7.06379C23.9137 7.34174 24.0037 7.66353 23.9999 7.99108Z" fill="black"/>
</g>
<defs>
<clipPath id="clip0_48_7460">
<rect width="24" height="24" fill="white" transform="translate(0 24) rotate(-90)"/>
</clipPath>
</defs>
</svg>
