<svg width="24" height="24" viewBox="0 0 24 24" fill="none" xmlns="http://www.w3.org/2000/svg">
<path d="M22 20.6875C22 21.4124 21.4124 22 20.6875 22H2.3125C1.58763 22 1 21.4124 1 20.6875C1 19.9626 1.58763 19.375 2.3125 19.375H20.6875C21.4124 19.375 22 19.9626 22 20.6875ZM10.5719 16.5297C10.8282 16.786 11.1641 16.9141 11.5 16.9141C11.8358 16.9141 12.1718 16.7859 12.4281 16.5297L17.0783 11.8794C17.5909 11.3669 17.5909 10.5358 17.0783 10.0233C16.5658 9.5107 15.7347 9.5107 15.2222 10.0233L12.8125 12.4329V2.3125C12.8125 1.58763 12.2249 1 11.5 1C10.7751 1 10.1875 1.58763 10.1875 2.3125V12.4329L7.77783 10.0233C7.26526 9.5107 6.43424 9.5107 5.92167 10.0233C5.4091 10.5358 5.4091 11.3669 5.92167 11.8794L10.5719 16.5297Z" fill="black"/>
</svg>
