<svg width="24" height="24" viewBox="0 0 24 24" fill="none" xmlns="http://www.w3.org/2000/svg">
<path d="M20.7551 3.2449C17.7619 0.251701 12.9267 0.251701 9.93354 3.2449C7.30874 5.8697 6.98639 10.0141 9.01256 12.9613L6.8943 15.0795L4.54579 12.731C3.9932 12.1784 3.07221 12.1784 2.51962 12.731C1.96703 13.2836 1.96703 14.2046 2.51962 14.7572L4.86813 17.1057L1.41444 20.5594C0.861852 21.112 0.861852 22.033 1.41444 22.5856C1.96703 23.1381 2.88802 23.1381 3.44061 22.5856L6.8943 19.1319L9.2428 21.4804C9.79539 22.033 10.7164 22.033 11.269 21.4804C11.8216 20.9278 11.8216 20.0068 11.269 19.4542L8.92046 17.1057L11.0387 14.9874C14.0319 17.0136 18.1303 16.7373 20.7551 14.0665C23.7483 11.0733 23.7483 6.23809 20.7551 3.2449ZM18.7289 12.0403C16.8409 13.9283 13.8017 13.9283 11.9137 12.0403C10.0256 10.1523 10.0256 7.11303 11.9137 5.22501C13.8017 3.337 16.8409 3.337 18.7289 5.22501C20.617 7.11303 20.617 10.1983 18.7289 12.0403Z" fill="#383A44"/>
</svg>
