<svg width="24" height="24" viewBox="0 0 24 24" fill="none" xmlns="http://www.w3.org/2000/svg">
<path d="M12.0954 18.4782C11.4726 18.4686 10.8722 18.2447 10.3953 17.8443L7.25446 15.0781C6.76023 14.6163 6.00446 14.5797 5.46793 14.9916L1.00166 18.2765V20.4087C0.969559 20.9807 1.40731 21.4704 1.97931 21.5025C2.00876 21.5042 2.03832 21.5046 2.06783 21.5037H17.8872C18.5211 21.5037 19.155 21.0427 19.155 20.4087V14.8187L13.4785 18.1036C13.0612 18.3544 12.5823 18.4842 12.0954 18.4782Z" fill="black"/>
<path d="M11.8649 12.8882C12.5651 12.8882 13.1327 12.3205 13.1327 11.6203C13.1327 10.9201 12.5651 10.3524 11.8649 10.3524C11.1646 10.3524 10.597 10.9201 10.597 11.6203C10.597 12.3205 11.1646 12.8882 11.8649 12.8882Z" fill="black"/>
<path d="M22.1517 5.25219C21.9678 5.00157 21.6837 4.84372 21.3737 4.81995L5.66964 3.00463C5.36348 2.97898 5.05793 3.06044 4.80522 3.23517C4.5814 3.42953 4.42924 3.69333 4.37298 3.98438L4.11365 6.23193H17.8872C19.2003 6.26172 20.2621 7.31084 20.3076 8.62355V18.7952C20.3076 18.7375 20.567 18.6799 20.6822 18.5646C20.9208 18.3773 21.0592 18.09 21.0568 17.7866L22.4111 6.08782C22.441 5.78563 22.3475 5.48422 22.1517 5.25219Z" fill="black"/>
<path d="M17.8871 7.3844H2.06782C1.43389 7.3844 1.00165 7.98949 1.00165 8.62342V16.8357L4.80519 14.0694C5.77071 13.3532 7.10641 13.4134 8.00365 14.2135L11.1733 16.9797C11.6512 17.3855 12.3339 17.4433 12.8733 17.1238L19.155 13.4643V8.62342C19.1114 7.94696 18.5644 7.41247 17.8871 7.3844ZM11.8648 14.0406C10.5281 14.0406 9.44437 12.9569 9.44437 11.6201C9.44437 10.2834 10.528 9.19966 11.8648 9.19966C13.2016 9.19966 14.2853 10.2833 14.2853 11.6201C14.2853 12.9569 13.2016 14.0406 11.8648 14.0406Z" fill="black"/>
</svg>
