<svg width="" height="" viewBox="0 0 16 16" fill="none" xmlns="http://www.w3.org/2000/svg">
<path d="M8.00012 4.38163L7.37273 3.7429C5.90006 2.24357 3.19972 2.76097 2.22495 4.64597C1.76731 5.53256 1.66405 6.81263 2.4997 8.44629C3.30473 10.0193 4.97953 11.9034 8.00012 13.9557C11.0207 11.9034 12.6946 10.0193 13.5005 8.44629C14.3362 6.81176 14.2338 5.53256 13.7753 4.64597C12.8005 2.76097 10.1002 2.24271 8.62752 3.74204L8.00012 4.38163ZM8.00012 15C-5.41666 6.21896 3.86912 -0.634616 7.84612 2.99064C7.89862 3.03831 7.95024 3.08771 8.00012 3.13884C8.04949 3.08775 8.10087 3.0386 8.15413 2.99151C12.1302 -0.636349 21.4169 6.21809 8.00012 15Z" fill=""/>
</svg>
