<svg width="78" height="78" viewBox="0 0 78 78" fill="none" xmlns="http://www.w3.org/2000/svg">
<circle cx="39" cy="39" r="39" fill="url(#paint0_linear_39_3189)"/>
<path fill-rule="evenodd" clip-rule="evenodd" d="M45.8712 22H32.1288C26.5437 22 22 26.5437 22 32.1288V45.8712C22 51.4563 26.5437 56 32.1288 56H45.8712C51.4563 56 56 51.4563 56 45.8712V32.1288C55.9999 26.5437 51.4562 22 45.8712 22ZM52.5796 45.8712C52.5796 49.5761 49.5761 52.5796 45.8712 52.5796H32.1288C28.4239 52.5796 25.4204 49.5761 25.4204 45.8712V32.1288C25.4204 28.4238 28.4239 25.4204 32.1288 25.4204H45.8712C49.5761 25.4204 52.5796 28.4238 52.5796 32.1288V45.8712ZM30.2064 38.9999C30.2064 34.1512 34.1512 30.2064 39 30.2064C43.8488 30.2064 47.7936 34.1511 47.7936 38.9999C47.7936 43.8487 43.8488 47.7935 39 47.7935C34.1512 47.7935 30.2064 43.8487 30.2064 38.9999ZM39 44.3732C36.0324 44.3732 33.6268 41.9676 33.6268 39C33.6268 36.0324 36.0325 33.6268 39 33.6268C41.9676 33.6268 44.3732 36.0324 44.3732 39C44.3732 41.9675 41.9675 44.3732 39 44.3732ZM47.8106 32.3795C48.9744 32.3795 49.9178 31.4361 49.9178 30.2724C49.9178 29.1087 48.9744 28.1653 47.8106 28.1653C46.6469 28.1653 45.7035 29.1087 45.7035 30.2724C45.7035 31.4361 46.6469 32.3795 47.8106 32.3795Z" fill="white"/>
<defs>
<linearGradient id="paint0_linear_39_3189" x1="0.260601" y1="-0.1303" x2="1.21778e-06" y2="77.8697" gradientUnits="userSpaceOnUse">
<stop stop-color="#7024C4"/>
<stop offset="0.415461" stop-color="#C21975"/>
<stop offset="0.702206" stop-color="#C74C4D"/>
<stop offset="1" stop-color="#E09B3D"/>
</linearGradient>
</defs>
</svg>
