<svg width="" height="" viewBox="0 0 24 24" fill="none" xmlns="http://www.w3.org/2000/svg">
<path d="M9.52857e-08 8.00072C-0.000147578 7.20339 0.171355 6.41404 0.504483 5.67878C0.837612 4.94353 1.32569 4.27713 1.94018 3.71853C2.55467 3.15993 3.28325 2.72033 4.08334 2.42544C4.88344 2.13054 5.73899 1.98626 6.6 2.00103C7.61875 1.99602 8.62703 2.19154 9.55799 2.57463C10.489 2.95773 11.3213 3.51964 12 4.22314C12.6787 3.51964 13.511 2.95773 14.442 2.57463C15.373 2.19154 16.3812 1.99602 17.4 2.00103C18.261 1.98626 19.1166 2.13054 19.9167 2.42544C20.7168 2.72033 21.4453 3.15993 22.0598 3.71853C22.6743 4.27713 23.1624 4.94353 23.4955 5.67878C23.8286 6.41404 24.0001 7.20339 24 8.00072C24 13.9515 16.3452 18.4446 12 22C7.6644 18.4146 9.52857e-08 13.956 9.52857e-08 8.00072Z" fill=""/>
</svg>
