<svg width="78" height="78" viewBox="0 0 78 78" fill="none" xmlns="http://www.w3.org/2000/svg">
<circle cx="39" cy="39" r="39" fill="#2CCF54"/>
<path d="M56.5 37.1224C56.5 29.1974 48.6498 22.75 38.9998 22.75C29.3512 22.75 21.5 29.1974 21.5 37.1224C21.5 44.2271 27.7258 50.1771 36.1355 51.3022C36.7055 51.4265 37.4811 51.6825 37.6774 52.1755C37.8538 52.6233 37.7928 53.3247 37.7337 53.777C37.7337 53.777 37.5284 55.0267 37.4841 55.2929C37.408 55.7407 37.1326 57.0441 38.9998 56.2476C40.8678 55.4511 49.0782 50.2419 52.7497 45.9651C55.2859 43.1505 56.5 40.2941 56.5 37.1224Z" fill="white"/>
<path d="M35.4443 33.2805H34.2168C34.0286 33.2805 33.8756 33.4348 33.8756 33.6244V41.3326C33.8756 41.5225 34.0286 41.6765 34.2168 41.6765H35.4443C35.6325 41.6765 35.7851 41.5225 35.7851 41.3326V33.6244C35.7851 33.4348 35.6325 33.2805 35.4443 33.2805Z" fill="#2CCF54"/>
<path d="M43.8932 33.2805H42.6657C42.4775 33.2805 42.3249 33.4348 42.3249 33.6244V38.2039L38.8306 33.4335C38.7659 33.3355 38.6611 33.287 38.5467 33.2805H37.3196C37.1314 33.2805 36.9784 33.4348 36.9784 33.6244V41.3326C36.9784 41.5225 37.1314 41.6765 37.3196 41.6765H38.5467C38.7353 41.6765 38.8879 41.5225 38.8879 41.3326V36.7545L42.3866 41.531C42.4494 41.6209 42.5561 41.6765 42.6657 41.6765H43.8932C44.0818 41.6765 44.2341 41.5225 44.2341 41.3326V33.6244C44.2341 33.4348 44.0818 33.2805 43.8932 33.2805Z" fill="#2CCF54"/>
<path d="M32.4854 39.7463H29.15V33.6249C29.15 33.4346 28.9974 33.2803 28.8095 33.2803H27.5817C27.3935 33.2803 27.2408 33.4346 27.2408 33.6249V41.3317C27.2408 41.5188 27.3928 41.6766 27.5814 41.6766H32.4854C32.6736 41.6766 32.8255 41.5219 32.8255 41.3317V40.0909C32.8255 39.9006 32.6736 39.7463 32.4854 39.7463Z" fill="#2CCF54"/>
<path d="M50.672 35.2106C50.8602 35.2106 51.0122 35.0566 51.0122 34.866V33.6252C51.0122 33.435 50.8602 33.2803 50.672 33.2803H45.7683C45.58 33.2803 45.4275 33.4378 45.4275 33.6249V41.332C45.4275 41.5186 45.5796 41.6766 45.7677 41.6766H50.672C50.8602 41.6766 51.0122 41.5219 51.0122 41.332V40.0909C51.0122 39.9009 50.8602 39.7463 50.672 39.7463H47.337V38.4434H50.672C50.8602 38.4434 51.0122 38.2891 51.0122 38.0989V36.858C51.0122 36.6678 50.8602 36.5131 50.672 36.5131H47.337V35.2106H50.672Z" fill="#2CCF54"/>
</svg>
