<svg width="40" height="40" viewBox="0 0 40 40" fill="none" xmlns="http://www.w3.org/2000/svg">
<circle cx="20" cy="20" r="20" fill="#00C300"/>
<path d="M33.215 19.637C33.215 13.772 27.335 9 20.108 9C12.881 9 7 13.772 7 19.637C7 24.895 11.663 29.299 17.962 30.132C18.389 30.224 18.97 30.414 19.117 30.778C19.249 31.109 19.203 31.628 19.159 31.963C19.159 31.963 19.006 32.888 18.972 33.085C18.915 33.416 18.709 34.381 20.107 33.792C21.506 33.203 27.655 29.347 30.405 26.181H30.404C32.305 24.099 33.215 21.984 33.215 19.637ZM14.977 23.127H12.373C11.994 23.127 11.686 22.819 11.686 22.439V17.23C11.686 16.851 11.994 16.543 12.373 16.543C12.752 16.543 13.06 16.851 13.06 17.23V21.751H14.977C15.356 21.751 15.664 22.059 15.664 22.438C15.664 22.818 15.356 23.127 14.977 23.127ZM17.67 22.439C17.67 22.818 17.362 23.127 16.983 23.127C16.604 23.127 16.296 22.819 16.296 22.439V17.23C16.296 16.851 16.604 16.543 16.983 16.543C17.362 16.543 17.67 16.851 17.67 17.23V22.439ZM23.94 22.439C23.94 22.736 23.752 22.998 23.47 23.091C23.399 23.115 23.325 23.127 23.252 23.127C23.037 23.127 22.832 23.024 22.703 22.852L20.034 19.217V22.439C20.034 22.818 19.726 23.127 19.346 23.127C18.967 23.127 18.658 22.819 18.658 22.439V17.23C18.658 16.934 18.847 16.672 19.128 16.578C19.199 16.554 19.272 16.543 19.346 16.543C19.56 16.543 19.766 16.646 19.895 16.818L22.565 20.453V17.23C22.565 16.851 22.874 16.543 23.253 16.543C23.632 16.543 23.94 16.851 23.94 17.23V22.439ZM28.154 19.147C28.533 19.147 28.842 19.455 28.842 19.835C28.842 20.214 28.534 20.522 28.154 20.522H26.237V21.752H28.154C28.533 21.752 28.842 22.06 28.842 22.439C28.842 22.818 28.533 23.127 28.154 23.127H25.55C25.172 23.127 24.863 22.819 24.863 22.439V19.836C24.863 19.835 24.863 19.835 24.863 19.835V19.834V17.233C24.863 17.232 24.863 17.232 24.863 17.231C24.863 16.852 25.171 16.544 25.55 16.544H28.154C28.533 16.544 28.842 16.852 28.842 17.231C28.842 17.61 28.534 17.918 28.154 17.918H26.237V19.148H28.154V19.147Z" fill="white"/>
</svg>
