<svg width="26" height="23" viewBox="0 0 26 23" fill="none" xmlns="http://www.w3.org/2000/svg">
<path fill-rule="evenodd" clip-rule="evenodd" d="M7.84461 22.151C8.33188 22.3404 8.84833 22.4344 9.36478 22.4344C10.1336 22.4344 10.901 22.227 11.5706 21.8213C11.9324 21.602 12.1352 21.4275 12.3482 21.2425C12.586 21.0366 12.9128 20.7547 13.7167 20.2027L12.535 18.5499C12.5131 18.5185 12.4664 18.5111 12.4343 18.5334C11.5735 19.1257 11.2059 19.4434 10.936 19.6776C10.7507 19.8387 10.6574 19.9193 10.4502 20.0446C9.90019 20.3773 9.22035 20.4384 8.63241 20.2102C7.89567 19.9238 7.67829 19.3494 7.62577 18.9183C7.52073 18.062 7.74103 17.1625 8.2458 16.3868L16.261 4.05742C16.2902 4.01266 16.3573 4.01415 16.3835 4.0604L22.5897 14.6593C22.6028 14.6817 22.6261 14.6951 22.6509 14.6951L25.0216 14.7235C25.0771 14.725 25.1121 14.6653 25.0844 14.6191L16.4886 0.0401093C16.4579 -0.0121023 16.3806 -0.0135941 16.3471 0.0371257L12.5793 5.83316L8.69356 0.052C8.66146 0.00426368 8.58998 0.0072473 8.5608 0.0564753L0 14.7234H2.39697C2.42323 14.7234 2.44657 14.71 2.4597 14.6876L8.6921 4.0335C8.71836 3.98875 8.78401 3.98726 8.81319 4.03052L11.3232 7.76539L6.44699 15.2665C5.67961 16.4465 5.34552 17.8308 5.50746 19.1645C5.67523 20.5503 6.52723 21.6378 7.84461 22.151Z" fill="url(#paint0_linear_2140_36291)"/>
<path fill-rule="evenodd" clip-rule="evenodd" d="M13.8886 10.2079C13.8448 10.1975 13.801 10.2273 13.7981 10.2706L13.6566 12.1099L13.5195 13.8851C13.5151 13.9448 13.5822 13.9821 13.6318 13.9477L14.6296 13.2572L16.7059 16.4526C16.767 16.5464 16.8283 16.6369 16.8884 16.7258C17.3249 17.3708 17.7015 17.9273 17.5258 19.0497C17.4587 19.4793 17.0575 19.9895 16.3193 20.2759C15.7314 20.5042 15.0515 20.443 14.5015 20.1103L14.4374 20.0716C13.8713 19.7299 13.1404 19.1332 12.5437 18.2277C12.5189 18.1905 12.4664 18.183 12.4343 18.2143L10.9725 19.6464C11.7962 20.9367 12.5479 21.3875 13.209 21.784C13.2457 21.806 13.2822 21.8279 13.3184 21.8497L13.3811 21.887C14.0522 22.2928 14.8196 22.5001 15.5884 22.5001C16.1034 22.5001 16.6213 22.4062 17.1086 22.2152C18.426 21.702 19.4968 20.5832 19.6602 19.1974C19.8677 17.4243 19.3039 16.5574 18.5652 15.4214C18.5456 15.3914 18.526 15.3612 18.5062 15.3308L16.3743 12.0499L17.4862 11.2805C17.5358 11.2462 17.5227 11.1701 17.4643 11.1552L15.7078 10.6897L13.8886 10.2079Z" fill="url(#paint1_linear_2140_36291)"/>
<defs>
<linearGradient id="paint0_linear_2140_36291" x1="15.2808" y1="0" x2="15.2808" y2="22.4344" gradientUnits="userSpaceOnUse">
<stop stop-color="#FF4E84"/>
<stop offset="1" stop-color="#E134EE"/>
</linearGradient>
<linearGradient id="paint1_linear_2140_36291" x1="15.5183" y1="10.2058" x2="15.5183" y2="13.9609" gradientUnits="userSpaceOnUse">
<stop stop-color="#FF4E84"/>
<stop offset="1" stop-color="#E134EE"/>
</linearGradient>
</defs>
</svg>
