<svg width="78" height="78" viewBox="0 0 78 78" fill="none" xmlns="http://www.w3.org/2000/svg">
<circle cx="39" cy="39" r="39" fill="#FF7262"/>
<path d="M55.7999 33.4833V48.45C55.7999 49.8424 55.2468 51.1778 54.2623 52.1623C53.2777 53.1469 51.9423 53.7 50.5499 53.7H27.45C26.0576 53.7 24.7222 53.1469 23.7376 52.1623C22.7531 51.1778 22.2 49.8424 22.2 48.45V33.4833L38.4666 43.0551C38.6282 43.1504 38.8123 43.2007 39 43.2007C39.1876 43.2007 39.3717 43.1504 39.5333 43.0551L55.7999 33.4833ZM50.5499 26.4C51.8418 26.3998 53.0883 26.8759 54.0511 27.7372C55.0139 28.5985 55.6253 29.7845 55.7685 31.0683L39 40.932L22.2315 31.0683C22.3746 29.7845 22.986 28.5985 23.9488 27.7372C24.9116 26.8759 26.1581 26.3998 27.45 26.4H50.5499Z" fill="white"/>
</svg>
