<svg width="24" height="24" viewBox="0 0 24 24" fill="none" xmlns="http://www.w3.org/2000/svg">
<path d="M21.8657 1H15.3437C14.6821 1 14.1622 1.51987 14.1622 2.18153C14.1622 2.84318 14.6821 3.36305 15.3437 3.36305H18.9828L14.6348 7.71106C11.2793 5.20623 6.50591 5.44254 3.4812 8.46724C0.172932 11.7755 0.172932 17.2105 3.4812 20.5188C6.78947 23.8271 12.2245 23.8271 15.5328 20.5188C18.5575 17.4941 18.841 12.6735 16.2889 9.3652L20.637 5.01719V8.70354C20.637 9.3652 21.1568 9.88507 21.8185 9.88507C22.4801 9.88507 23 9.3652 23 8.70354V2.18153C23.0473 1.51987 22.5274 1 21.8657 1ZM13.9259 18.8647C11.5156 21.275 7.59291 21.275 5.1826 18.8647C2.77229 16.4544 2.77229 12.5317 5.1826 10.1214C7.59291 7.71106 11.5156 7.71106 13.9259 10.1214C16.3362 12.5317 16.3362 16.4544 13.9259 18.8647Z" fill="#383A44"/>
</svg>
