<svg width="30" height="30" viewBox="0 0 30 30" fill="none" xmlns="http://www.w3.org/2000/svg">
<path d="M21.8182 7H8.18182C3.66818 7 0 10.5867 0 15C0 19.4133 3.66818 23 8.18182 23H21.8182C26.3318 23 30 19.4133 30 15C30 10.5867 26.3318 7 21.8182 7ZM21.8182 20.3333H8.18182C5.16818 20.3333 2.72727 17.9467 2.72727 15C2.72727 12.0533 5.16818 9.66667 8.18182 9.66667H21.8182C24.8318 9.66667 27.2727 12.0533 27.2727 15C27.2727 17.9467 24.8318 20.3333 21.8182 20.3333ZM8.18182 11C5.91818 11 4.09091 12.7867 4.09091 15C4.09091 17.2133 5.91818 19 8.18182 19C10.4455 19 12.2727 17.2133 12.2727 15C12.2727 12.7867 10.4455 11 8.18182 11Z" fill="#A8ABBD"/>
</svg>
