<svg width="30" height="30" viewBox="0 0 30 30" fill="none" xmlns="http://www.w3.org/2000/svg">
<path d="M22.5 8H7.5C5.51088 8 3.60322 8.7375 2.1967 10.0503C0.790176 11.363 0 13.1435 0 15C0 16.8565 0.790176 18.637 2.1967 19.9497C3.60322 21.2625 5.51088 22 7.5 22H22.5C24.4891 22 26.3968 21.2625 27.8033 19.9497C29.2098 18.637 30 16.8565 30 15C30 13.1435 29.2098 11.363 27.8033 10.0503C26.3968 8.7375 24.4891 8 22.5 8ZM22.5 19.2C21.3065 19.2 20.1619 18.7575 19.318 17.9698C18.4741 17.1822 18 16.1139 18 15C18 13.8861 18.4741 12.8178 19.318 12.0302C20.1619 11.2425 21.3065 10.8 22.5 10.8C23.6935 10.8 24.8381 11.2425 25.682 12.0302C26.5259 12.8178 27 13.8861 27 15C27 16.1139 26.5259 17.1822 25.682 17.9698C24.8381 18.7575 23.6935 19.2 22.5 19.2Z" fill="#FF4E84"/>
</svg>
