<svg width="78" height="78" viewBox="0 0 78 78" fill="none" xmlns="http://www.w3.org/2000/svg">
<circle cx="39" cy="39" r="39" fill="#FF4E84"/>
<path d="M52.1344 29.093L48.3902 25.3523C48.1261 25.0871 47.8122 24.8766 47.4665 24.733C47.1208 24.5894 46.7501 24.5155 46.3758 24.5156C45.6129 24.5156 44.8957 24.8145 44.3578 25.3523L40.3289 29.3812C40.0636 29.6454 39.8532 29.9593 39.7096 30.305C39.566 30.6507 39.4921 31.0214 39.4922 31.3957C39.4922 32.1586 39.791 32.8758 40.3289 33.4137L43.275 36.3598C42.5854 37.8798 41.6266 39.2626 40.4449 40.4414C39.2662 41.626 37.8835 42.5882 36.3633 43.282L33.4172 40.3359C33.1531 40.0707 32.8391 39.8602 32.4934 39.7166C32.1477 39.573 31.7771 39.4991 31.4027 39.4992C30.6398 39.4992 29.9227 39.798 29.3848 40.3359L25.3523 44.3613C25.0867 44.6259 24.8761 44.9404 24.7325 45.2868C24.5889 45.6331 24.5152 46.0044 24.5156 46.3793C24.5156 47.1422 24.8145 47.8594 25.3523 48.3973L29.0895 52.1344C29.9473 52.9957 31.132 53.4844 32.3484 53.4844C32.6051 53.4844 32.8512 53.4633 33.0938 53.4211C37.8328 52.6406 42.5332 50.1199 46.3266 46.3301C50.1164 42.5438 52.6336 37.8469 53.4246 33.0938C53.6637 31.6418 53.182 30.1477 52.1344 29.093Z" fill="white"/>
</svg>
