<svg width="24" height="24" viewBox="0 0 24 24" fill="none" xmlns="http://www.w3.org/2000/svg">
<path d="M12 1C5.93423 1 1 5.9347 1 12C1 18.0653 5.93423 23 12 23C18.0658 23 23 18.0653 23 12C23 5.9347 18.0658 1 12 1ZM16.373 12.3854L9.95632 16.5104C9.88113 16.5592 9.79429 16.5833 9.70835 16.5833C9.63315 16.5833 9.55705 16.5645 9.48904 16.5274C9.34131 16.4468 9.25 16.2928 9.25 16.125V7.875C9.25 7.70716 9.34131 7.55316 9.48904 7.4726C9.63406 7.39293 9.81577 7.39783 9.95632 7.48961L16.373 11.6146C16.5037 11.6987 16.5833 11.8442 16.5833 12C16.5833 12.1558 16.5037 12.3012 16.373 12.3854Z" fill="black"/>
</svg>
