<svg width="24" height="24" viewBox="0 0 24 24" fill="none" xmlns="http://www.w3.org/2000/svg">
<path d="M20.513 6.7543C20.267 7.06633 19.9547 7.32336 19.5971 7.50402C20.3971 8.85719 20.8281 10.4126 20.8281 12C20.8281 14.3581 19.9098 16.575 18.2424 18.2424C16.575 19.9098 14.3581 20.8281 12 20.8281C9.64191 20.8281 7.425 19.9098 5.75758 18.2424C4.09016 16.575 3.17188 14.3581 3.17188 12C3.17188 9.64191 4.09016 7.425 5.75758 5.75758C7.425 4.09016 9.64191 3.17188 12 3.17188C13.3473 3.17188 14.6551 3.47328 15.8464 4.05137C15.9974 3.67859 16.2284 3.34664 16.5183 3.07684C15.1257 2.36953 13.587 2 12 2C9.32891 2 6.8177 3.0402 4.92891 4.92891C3.0402 6.8177 2 9.32891 2 12C2 14.6711 3.0402 17.1823 4.92891 19.0711C6.8177 20.9598 9.32891 22 12 22C14.6711 22 17.1823 20.9598 19.0711 19.0711C20.9598 17.1823 22 14.6711 22 12C22 10.1419 21.4783 8.32246 20.513 6.7543Z" fill="#6F7387"/>
<path d="M12 6.20923C9.81969 6.20923 7.87325 7.42052 6.88669 9.27743C7.3088 9.29145 7.70677 9.40173 8.0595 9.58728C8.8811 8.24345 10.357 7.3811 12 7.3811C14.5469 7.3811 16.6189 9.45313 16.6189 12C16.6189 14.5468 14.5468 16.6188 12 16.6188C10.3559 16.6188 8.88051 15.7568 8.05923 14.4128C7.70649 14.5983 7.30852 14.7085 6.88641 14.7225C7.87262 16.5797 9.81829 17.7907 12 17.7907C15.193 17.7907 17.7907 15.193 17.7907 12C17.7907 8.80696 15.193 6.20923 12 6.20923Z" fill="#6F7387"/>
<path d="M12 14.3102C13.2759 14.3102 14.3102 13.2758 14.3102 11.9999C14.3102 10.724 13.2759 9.6897 12 9.6897C10.7241 9.6897 9.68976 10.724 9.68976 11.9999C9.68976 13.2758 10.7241 14.3102 12 14.3102Z" fill="#6F7387"/>
<path d="M6.7952 13.5921C7.67447 13.5921 8.38727 12.8793 8.38727 12C8.38727 11.1208 7.67447 10.408 6.7952 10.408C5.91592 10.408 5.20312 11.1208 5.20312 12C5.20312 12.8793 5.91592 13.5921 6.7952 13.5921Z" fill="#6F7387"/>
<path d="M18.3726 6.66302C19.2519 6.66302 19.9647 5.95023 19.9647 5.07095C19.9647 4.19168 19.2519 3.47888 18.3726 3.47888C17.4933 3.47888 16.7805 4.19168 16.7805 5.07095C16.7805 5.95023 17.4933 6.66302 18.3726 6.66302Z" fill="#6F7387"/>
</svg>
