<svg width="18" height="18" viewBox="0 0 24 24" fill="none" xmlns="http://www.w3.org/2000/svg">
<path d="M22.2889 8.3947L15.6938 7.43661L12.7455 1.46218C12.665 1.2986 12.5325 1.16618 12.3689 1.08569C11.9585 0.883169 11.4598 1.05194 11.2546 1.46218L8.30634 7.43661L1.71117 8.3947C1.52934 8.42066 1.3631 8.50634 1.23582 8.63617C1.08194 8.79426 0.997151 9.00694 1.00007 9.22749C1.003 9.44803 1.09339 9.6584 1.2514 9.81236L6.0231 14.4626L4.89576 21.029C4.86932 21.1818 4.88623 21.3389 4.94457 21.4825C5.00291 21.6261 5.10035 21.7506 5.22583 21.8416C5.35131 21.9327 5.49981 21.9869 5.6545 21.9979C5.80919 22.0089 5.96388 21.9764 6.10102 21.904L12.0001 18.8039L17.8991 21.904C18.0601 21.9897 18.2472 22.0183 18.4264 21.9871C18.8784 21.9092 19.1823 21.4808 19.1043 21.029L17.977 14.4626L22.7487 9.81236C22.8786 9.68513 22.9643 9.51896 22.9903 9.33721C23.0604 8.88283 22.7435 8.46221 22.2889 8.3947Z" fill=""/>
</svg>
