<svg width="78" height="78" viewBox="0 0 78 78" fill="none" xmlns="http://www.w3.org/2000/svg">
<circle cx="39" cy="39" r="39" fill="#2AA3EF"/>
<path fill-rule="evenodd" clip-rule="evenodd" d="M55 29.0775C53.8234 29.5994 52.5564 29.9523 51.2292 30.112C52.5847 29.2985 53.6257 28.0133 54.1152 26.481C52.8463 27.2332 51.4419 27.7793 49.9453 28.0727C48.748 26.7968 47.0424 26 45.1541 26C41.5283 26 38.5877 28.9382 38.5877 32.5636C38.5877 33.0799 38.648 33.5795 38.759 34.0606C33.3033 33.7876 28.467 31.1725 25.229 27.2017C24.6623 28.1712 24.3404 29.2985 24.3404 30.502C24.3404 32.7791 25.5001 34.7886 27.2603 35.9643C26.1834 35.9309 25.1706 35.6355 24.2877 35.1434C24.2877 35.1712 24.2877 35.1991 24.2877 35.2269C24.2877 38.4066 26.5487 41.0588 29.5532 41.6624C29.0016 41.8128 28.4237 41.8927 27.8232 41.8927C27.4015 41.8927 26.9892 41.8518 26.5882 41.7738C27.424 44.3815 29.8488 46.2796 32.7216 46.3335C30.4738 48.0923 27.6424 49.1417 24.5663 49.1417C24.0373 49.1417 23.5139 49.1119 23 49.0506C25.9048 50.9135 29.3556 52 33.0642 52C45.1391 52 51.7431 41.9986 51.7431 33.3251C51.7431 33.0391 51.7356 32.7586 51.7243 32.4763C53.0064 31.5514 54.1208 30.3943 55 29.0794V29.0775Z" fill="white"/>
</svg>
