<svg width="78" height="78" viewBox="0 0 78 78" fill="none" xmlns="http://www.w3.org/2000/svg">
<circle cx="39" cy="39" r="39" fill="#2CCF54"/>
<path d="M47.0006 32.9535C47.2656 32.9535 47.5307 32.9625 47.7912 32.976C46.6951 27.1945 40.6801 22.7742 33.4207 22.7742C25.3887 22.7742 18.875 28.1918 18.875 34.8762C18.875 38.5193 20.8336 41.8031 23.9018 44.0223C24.0283 44.1116 24.1315 44.2301 24.2027 44.3677C24.2738 44.5053 24.3108 44.658 24.3105 44.8129C24.3105 44.9207 24.2881 45.0195 24.2611 45.1229C24.0141 46.0348 23.6232 47.4947 23.6053 47.5621C23.5738 47.6789 23.5289 47.7957 23.5289 47.917C23.5289 48.182 23.7445 48.4022 24.0141 48.4022C24.1174 48.4022 24.2027 48.3617 24.2926 48.3123L27.4775 46.475C27.7156 46.3358 27.9717 46.2504 28.2502 46.2504C28.3939 46.2504 28.5377 46.2729 28.677 46.3133C30.1639 46.7401 31.7676 46.9781 33.4252 46.9781C33.6947 46.9781 33.9598 46.9736 34.2248 46.9602C33.9059 46.0168 33.7352 45.024 33.7352 43.9953C33.7352 37.8949 39.6738 32.9535 47.0006 32.9535ZM38.2723 29.0678C39.3414 29.0678 40.2129 29.9348 40.2129 31.0039C40.2129 32.0731 39.3459 32.9401 38.2723 32.9401C37.2031 32.9401 36.3316 32.0731 36.3316 31.0039C36.3316 29.9348 37.2031 29.0678 38.2723 29.0678ZM28.5736 32.9401C27.5045 32.9401 26.633 32.0731 26.633 31.0039C26.633 29.9348 27.5 29.0678 28.5736 29.0678C29.6473 29.0678 30.5143 29.9348 30.5143 31.0039C30.5143 32.0731 29.6428 32.9401 28.5736 32.9401ZM54.9338 51.6096C57.4898 49.7588 59.1205 47.0276 59.1205 43.9863C59.1205 38.416 53.6939 33.9014 46.9961 33.9014C40.3027 33.9014 34.8717 38.416 34.8717 43.9863C34.8717 49.5567 40.2982 54.0713 46.9961 54.0713C48.3797 54.0713 49.7184 53.8736 50.9537 53.5188C51.0705 53.4828 51.1873 53.4649 51.3086 53.4649C51.5422 53.4649 51.7533 53.5367 51.951 53.649L54.6059 55.1764C54.6822 55.2213 54.7541 55.2527 54.8395 55.2527C54.8927 55.2532 54.9455 55.2431 54.9949 55.223C55.0442 55.203 55.0891 55.1734 55.127 55.136C55.1644 55.0981 55.194 55.0532 55.214 55.0039C55.2341 54.9545 55.2442 54.9017 55.2437 54.8484C55.2437 54.7496 55.2033 54.6508 55.1809 54.552C55.1674 54.4981 54.8395 53.2807 54.6328 52.517C54.6104 52.4317 54.5924 52.3463 54.5924 52.261C54.5969 51.9959 54.7316 51.7578 54.9338 51.6096ZM42.9621 42.3781C42.0682 42.3781 41.3449 41.6549 41.3449 40.7654C41.3449 39.876 42.0682 39.1527 42.9621 39.1527C43.8561 39.1527 44.5793 39.876 44.5793 40.7654C44.5793 41.6549 43.8516 42.3781 42.9621 42.3781ZM51.0436 42.3781C50.1496 42.3781 49.4264 41.6549 49.4264 40.7654C49.4264 39.876 50.1496 39.1527 51.0436 39.1527C51.9375 39.1527 52.6607 39.876 52.6607 40.7654C52.6586 41.1933 52.4874 41.6029 52.1845 41.905C51.8815 42.2071 51.4714 42.3772 51.0436 42.3781Z" fill="white"/>
</svg>
