<svg width="24" height="24" viewBox="0 0 24 24" fill="none" xmlns="http://www.w3.org/2000/svg">
<g clip-path="url(#clip0_49_9905)">
<path d="M7.99108 0.000117243C8.24723 -0.000753462 8.50032 0.0557649 8.73176 0.165518C8.96319 0.275271 9.16709 0.435471 9.32846 0.634345L17.61 10.9191C17.8621 11.2258 18 11.6105 18 12.0076C18 12.4046 17.8621 12.7893 17.61 13.096L9.03698 23.3808C8.74595 23.7308 8.32774 23.951 7.87435 23.9927C7.42097 24.0345 6.96955 23.8946 6.6194 23.6036C6.26925 23.3127 6.04906 22.8946 6.00726 22.4413C5.96545 21.988 6.10547 21.5367 6.3965 21.1867L14.0607 11.999L6.6537 2.81128C6.44403 2.55967 6.31084 2.25329 6.2699 1.92838C6.22896 1.60347 6.28197 1.27363 6.42266 0.977896C6.56335 0.682162 6.78584 0.432909 7.06379 0.259628C7.34174 0.0863472 7.66353 -0.00370837 7.99108 0.000117243Z" fill="black"/>
</g>
<defs>
<clipPath id="clip0_49_9905">
<rect width="24" height="24" fill="white" transform="translate(24 24) rotate(-180)"/>
</clipPath>
</defs>
</svg>
