<svg width="24" height="24" viewBox="0 0 24 24" fill="none" xmlns="http://www.w3.org/2000/svg">
<path d="M12 1.5C9.81276 1.50258 7.71584 2.3726 6.16923 3.91922C4.62261 5.46584 3.75259 7.56276 3.75001 9.75C3.74739 11.5374 4.33124 13.2763 5.41201 14.7C5.41201 14.7 5.63701 14.9963 5.67376 15.039L12 22.5L18.3293 15.0353C18.3623 14.9955 18.588 14.7 18.588 14.7L18.5888 14.6978C19.669 13.2747 20.2526 11.5366 20.25 9.75C20.2474 7.56276 19.3774 5.46584 17.8308 3.91922C16.2842 2.3726 14.1873 1.50258 12 1.5V1.5ZM15.1575 10.2765L12.0023 13.5L8.84251 10.2765C8.46311 9.88478 8.25098 9.36083 8.25098 8.8155C8.25098 8.27017 8.46311 7.74622 8.84251 7.3545C9.02856 7.16327 9.25104 7.01127 9.49683 6.90748C9.74261 6.80369 10.0067 6.75021 10.2735 6.75021C10.5403 6.75021 10.8044 6.80369 11.0502 6.90748C11.296 7.01127 11.5185 7.16327 11.7045 7.3545L12.0023 7.65825L12.297 7.3545C12.4831 7.16327 12.7055 7.01127 12.9513 6.90748C13.1971 6.80369 13.4612 6.75021 13.728 6.75021C13.9948 6.75021 14.2589 6.80369 14.5047 6.90748C14.7505 7.01127 14.973 7.16327 15.159 7.3545C15.5384 7.74622 15.7505 8.27017 15.7505 8.8155C15.7505 9.36083 15.5384 9.88478 15.159 10.2765H15.1575Z" fill="black"/>
</svg>
