<svg width="16" height="16" viewBox="0 0 16 16" fill="none" xmlns="http://www.w3.org/2000/svg">
<path d="M1.72403 1.053C1.64033 1.01113 1.54656 0.993602 1.45339 1.0024C1.36022 1.01119 1.27138 1.04595 1.19699 1.10274C1.1226 1.15952 1.06564 1.23604 1.03259 1.32359C0.999536 1.41115 0.991719 1.50622 1.01003 1.598L2.41303 6.448C2.43919 6.53838 2.49032 6.61955 2.56055 6.68217C2.63078 6.74479 2.71725 6.78632 2.81003 6.802L8.50003 7.755C8.76803 7.808 8.76803 8.192 8.50003 8.245L2.81003 9.198C2.71725 9.21367 2.63078 9.25521 2.56055 9.31783C2.49032 9.38045 2.43919 9.46161 2.41303 9.552L1.01003 14.402C0.991719 14.4938 0.999536 14.5888 1.03259 14.6764C1.06564 14.764 1.1226 14.8405 1.19699 14.8973C1.27138 14.954 1.36022 14.9888 1.45339 14.9976C1.54656 15.0064 1.64033 14.9889 1.72403 14.947L14.724 8.447C14.807 8.40543 14.8767 8.3416 14.9254 8.26266C14.9742 8.18372 15 8.09277 15 8C15 7.90722 14.9742 7.81628 14.9254 7.73733C14.8767 7.65839 14.807 7.59457 14.724 7.553L1.72403 1.053Z" fill="black"/>
</svg>
