<svg width="24" height="24" viewBox="0 0 24 24" fill="none" xmlns="http://www.w3.org/2000/svg">
<path d="M16.0603 12.9082L10.4 19.2766C10.2005 19.5011 9.95571 19.6808 9.68175 19.8038C9.40779 19.9269 9.11087 19.9905 8.81055 19.9905C8.51022 19.9905 8.21331 19.9269 7.93935 19.8038C7.66539 19.6808 7.4206 19.5011 7.22111 19.2766L1.56079 12.9082C1.21465 12.5189 1.02344 12.0161 1.02344 11.4952C1.02344 10.9743 1.21465 10.4715 1.56079 10.0823L7.22111 3.71389C7.4206 3.4894 7.66539 3.30972 7.93935 3.18667C8.21331 3.06362 8.51022 3 8.81055 3C9.11087 3 9.40779 3.06362 9.68175 3.18667C9.95571 3.30972 10.2005 3.4894 10.4 3.71389L16.0603 10.0823C16.4064 10.4715 16.5977 10.9743 16.5977 11.4952C16.5977 12.0161 16.4064 12.5189 16.0603 12.9082V12.9082Z" stroke="#6F7387" stroke-width="1.5" stroke-linecap="round" stroke-linejoin="round"/>
<path d="M12.0001 5.51488L13.6001 3.71493C13.7996 3.49044 14.0444 3.31075 14.3184 3.1877C14.5923 3.06466 14.8892 3.00104 15.1896 3.00104C15.4899 3.00104 15.7868 3.06466 16.0608 3.1877C16.3347 3.31075 16.5795 3.49044 16.779 3.71493L22.4393 10.0833C22.7852 10.4725 22.9762 10.9751 22.9762 11.4957C22.9762 12.0164 22.7852 12.519 22.4393 12.9082L16.779 19.2766C16.5795 19.501 16.3347 19.6807 16.0608 19.8038C15.7868 19.9268 15.4899 19.9904 15.1896 19.9904C14.8892 19.9904 14.5923 19.9268 14.3184 19.8038C14.0444 19.6807 13.7996 19.501 13.6001 19.2766L12.0001 17.4745" stroke="#6F7387" stroke-width="1.5" stroke-linecap="round" stroke-linejoin="round"/>
<g clip-path="url(#clip0_241_375022)">
<path d="M11.501 10.4485L9.57737 10.169L8.71747 8.42649C8.69399 8.37878 8.65535 8.34016 8.60762 8.31668C8.48791 8.25761 8.34245 8.30684 8.2826 8.42649L7.4227 10.169L5.49911 10.4485C5.44608 10.456 5.39759 10.481 5.36047 10.5189C5.31559 10.565 5.29086 10.627 5.29171 10.6914C5.29256 10.7557 5.31893 10.8171 5.36501 10.862L6.75676 12.2183L6.42795 14.1335C6.42024 14.178 6.42517 14.2239 6.44219 14.2657C6.4592 14.3076 6.48762 14.3439 6.52422 14.3705C6.56082 14.3971 6.60413 14.4129 6.64925 14.4161C6.69437 14.4193 6.73949 14.4098 6.77949 14.3887L8.50004 13.4845L10.2206 14.3887C10.2676 14.4137 10.3221 14.422 10.3744 14.4129C10.5062 14.3902 10.5948 14.2653 10.5721 14.1335L10.2433 12.2183L11.6351 10.862C11.6729 10.8249 11.6979 10.7764 11.7055 10.7234C11.726 10.5908 11.6335 10.4682 11.501 10.4485Z" fill="#6F7387"/>
</g>
<defs>
<clipPath id="clip0_241_375022">
<rect width="7" height="7" fill="white" transform="translate(5 8)"/>
</clipPath>
</defs>
</svg>
