<svg width="24" height="24" viewBox="0 0 24 24" fill="none" xmlns="http://www.w3.org/2000/svg">
<path d="M20.3564 5.4399C20.4991 5.30062 20.6695 5.18998 20.8574 5.11444C21.0454 5.03891 21.2472 5 21.4511 5C21.6549 5 21.8567 5.03891 22.0447 5.11444C22.2327 5.18998 22.403 5.30062 22.5457 5.4399C23.1437 6.01794 23.152 6.952 22.5666 7.54005L10.2028 21.521C10.0624 21.6685 9.89206 21.787 9.70216 21.8693C9.51226 21.9516 9.3068 21.996 9.09836 21.9997C8.88991 22.0035 8.68285 21.9665 8.48986 21.8911C8.29686 21.8156 8.12198 21.7033 7.97592 21.561L0.452674 14.2685C0.162528 13.9855 0 13.6049 0 13.2084C0 12.812 0.162528 12.4314 0.452674 12.1484C0.595373 12.0091 0.765687 11.8984 0.953642 11.8229C1.1416 11.7474 1.34342 11.7085 1.54729 11.7085C1.75116 11.7085 1.95298 11.7474 2.14093 11.8229C2.32889 11.8984 2.4992 12.0091 2.6419 12.1484L9.02349 18.3348L20.3146 5.4839C20.3276 5.46844 20.3416 5.45375 20.3564 5.4399Z" fill="black"/>
</svg>
