<svg width="24" height="24" viewBox="0 0 24 24" fill="none" xmlns="http://www.w3.org/2000/svg">
<path d="M6.85713 2.85718L6.85713 15.4286M6.85713 17.7143L6.85713 21.1429M18.2857 2.85718L18.2857 15.4286M18.2857 17.7143L18.2857 21.1429M12.5714 8.57146L12.5714 21.1429M12.5714 2.85718L12.5714 6.28575M4.57141 16.5715C4.57141 16.2684 4.69182 15.9777 4.90615 15.7633C5.12047 15.549 5.41116 15.4286 5.71427 15.4286L7.99998 15.4286C8.30309 15.4286 8.59378 15.549 8.8081 15.7633C9.02243 15.9777 9.14284 16.2684 9.14284 16.5715C9.14284 16.8746 9.02243 17.1653 8.8081 17.3796C8.59378 17.5939 8.30309 17.7143 7.99998 17.7143L5.71427 17.7143C5.41116 17.7143 5.12047 17.5939 4.90615 17.3796C4.69182 17.1653 4.57141 16.8746 4.57141 16.5715ZM16 16.5715C16 16.2684 16.1204 15.9777 16.3347 15.7633C16.549 15.549 16.8397 15.4286 17.1428 15.4286L19.4286 15.4286C19.7317 15.4286 20.0224 15.549 20.2367 15.7633C20.451 15.9777 20.5714 16.2684 20.5714 16.5715C20.5714 16.8746 20.451 17.1653 20.2367 17.3796C20.0224 17.5939 19.7317 17.7143 19.4286 17.7143L17.1428 17.7143C16.8397 17.7143 16.549 17.5939 16.3347 17.3796C16.1204 17.1653 16 16.8746 16 16.5715ZM10.2857 7.42861C10.2857 7.1255 10.4061 6.83481 10.6204 6.62048C10.8348 6.40616 11.1254 6.28575 11.4286 6.28575L13.7143 6.28575C14.0174 6.28575 14.3081 6.40616 14.5224 6.62048C14.7367 6.83481 14.8571 7.1255 14.8571 7.42861C14.8571 7.73171 14.7367 8.0224 14.5224 8.23673C14.3081 8.45105 14.0174 8.57146 13.7143 8.57146L11.4286 8.57146C11.1254 8.57146 10.8348 8.45106 10.6204 8.23673C10.4061 8.0224 10.2857 7.73171 10.2857 7.42861Z" stroke="black" stroke-width="2" stroke-linecap="round" stroke-linejoin="round"/>
</svg>
