<svg width="24" height="24" viewBox="0 0 24 24" fill="none" xmlns="http://www.w3.org/2000/svg">
<g clip-path="url(#clip0_15_354)">
<path d="M9.75018 19.4998C11.8249 19.503 13.8462 18.8417 15.5178 17.6128H15.5163C15.5613 17.6728 15.6093 17.7298 15.6633 17.7853L21.4384 23.5602C21.7197 23.8417 22.1012 23.9999 22.4991 24C22.8971 24.0001 23.2787 23.8422 23.5602 23.561C23.8417 23.2797 23.9999 22.8981 24 22.5002C24.0001 22.1023 23.8422 21.7207 23.5609 21.4392L17.7858 15.6643C17.7322 15.61 17.6745 15.5599 17.6133 15.5143C18.842 13.8437 19.5033 11.8236 19.5004 9.74988C19.4996 7.16429 18.4721 4.68484 16.6437 2.85655C14.8154 1.02827 12.3358 0.000795197 9.75018 0C7.16427 0 4.68428 1.02722 2.85576 2.85567C1.02725 4.68413 0 7.16405 0 9.74988C0 12.3357 1.02725 14.8156 2.85576 16.6441C4.68428 18.4725 7.16427 19.4998 9.75018 19.4998ZM9.75018 6.72291C12.2462 4.21345 18.4878 8.60389 9.75018 14.2498C1.01252 8.60389 7.25413 4.21495 9.75018 6.72291Z" fill="#383A44"/>
</g>
<defs>
<clipPath id="clip0_15_354">
<rect width="24" height="24" fill="white"/>
</clipPath>
</defs>
</svg>
