<svg width="24" height="24" viewBox="0 0 24 24" fill="none" xmlns="http://www.w3.org/2000/svg">
<path d="M20.952 3.04794C20.281 2.37696 19.3709 2 18.422 2C17.4731 2 16.563 2.37696 15.892 3.04794L3.93999 14.9999C3.53362 15.4065 3.24803 15.9178 3.11499 16.4769L2.01999 21.0779C1.99034 21.2026 1.99312 21.3328 2.02806 21.456C2.06301 21.5793 2.12895 21.6916 2.2196 21.7821C2.31025 21.8727 2.42258 21.9385 2.54589 21.9733C2.6692 22.0081 2.79937 22.0107 2.92399 21.9809L7.52499 20.8849C8.08418 20.7519 8.59548 20.4663 9.00199 20.0599L20.952 8.10794C21.623 7.43694 21.9999 6.52687 21.9999 5.57794C21.9999 4.62901 21.623 3.71895 20.952 3.04794V3.04794ZM16.952 4.10794C17.145 3.9149 17.3742 3.76177 17.6264 3.6573C17.8787 3.55282 18.149 3.49905 18.422 3.49905C18.695 3.49905 18.9653 3.55282 19.2175 3.6573C19.4698 3.76177 19.6989 3.9149 19.892 4.10794C20.085 4.30099 20.2382 4.53016 20.3426 4.78239C20.4471 5.03461 20.5009 5.30494 20.5009 5.57794C20.5009 5.85095 20.4471 6.12128 20.3426 6.3735C20.2382 6.62572 20.085 6.8549 19.892 7.04794L19 7.93894L16.06 4.99994L16.952 4.10994V4.10794ZM15 6.06194L17.94 8.99994L7.93999 18.9999C7.72999 19.2099 7.46599 19.3569 7.17699 19.4259L3.76099 20.2389L4.57399 16.8229C4.64299 16.5349 4.79099 16.2699 5.00099 16.0599L15 6.05994V6.06194Z" fill="#383A44"/>
</svg>
