<svg width="24" height="24" viewBox="0 0 24 24" fill="none" xmlns="http://www.w3.org/2000/svg">
<path d="M5.24998 3C4.38803 3 3.56138 3.34241 2.95189 3.9519C2.34239 4.5614 1.99998 5.38805 1.99998 6.25V12.257C2.72019 11.6614 3.58082 11.26 4.49998 11.091V8.75C4.49998 7.88805 4.84239 7.0614 5.45189 6.4519C6.06138 5.84241 6.88803 5.5 7.74998 5.5H19V5.25C19 4.95453 18.9418 4.66194 18.8287 4.38896C18.7156 4.11598 18.5499 3.86794 18.341 3.65901C18.132 3.45008 17.884 3.28434 17.611 3.17127C17.338 3.0582 17.0455 3 16.75 3H5.24998ZM19.75 20.5H11.975L10.425 18.95C10.8422 18.1114 11.0384 17.1801 10.9949 16.2445C10.9514 15.3088 10.6696 14.3998 10.1763 13.6035C9.68305 12.8073 8.99459 12.1502 8.17621 11.6946C7.35783 11.2389 6.43665 10.9999 5.49998 11V8.75C5.49998 8.15326 5.73704 7.58097 6.15899 7.15901C6.58095 6.73705 7.15325 6.5 7.74998 6.5H19.75C20.3467 6.5 20.919 6.73705 21.341 7.15901C21.7629 7.58097 22 8.15326 22 8.75V18.25C22 18.8467 21.7629 19.419 21.341 19.841C20.919 20.2629 20.3467 20.5 19.75 20.5V20.5ZM8.10699 20.168C7.18736 20.8218 6.05565 21.1063 4.93615 20.9651C3.81666 20.8238 2.79108 20.2672 2.06268 19.4054C1.33427 18.5436 0.956199 17.4396 1.00339 16.3123C1.05058 15.1849 1.51959 14.1164 2.31747 13.3185C3.11535 12.5206 4.18386 12.0516 5.31125 12.0044C6.43863 11.9572 7.5426 12.3353 8.40437 13.0637C9.26614 13.7921 9.82281 14.8177 9.96406 15.9372C10.1053 17.0567 9.82082 18.1884 9.16698 19.108L11.78 21.72C11.8537 21.7887 11.9128 21.8715 11.9538 21.9635C11.9948 22.0555 12.0168 22.1548 12.0186 22.2555C12.0204 22.3562 12.0018 22.4562 11.9641 22.5496C11.9264 22.643 11.8702 22.7278 11.799 22.799C11.7278 22.8703 11.643 22.9264 11.5496 22.9641C11.4562 23.0018 11.3562 23.0204 11.2555 23.0186C11.1548 23.0168 11.0554 22.9948 10.9634 22.9538C10.8714 22.9128 10.7886 22.8537 10.72 22.78L8.10699 20.168ZM2.49998 16.5C2.49998 16.894 2.57758 17.2841 2.72835 17.6481C2.87911 18.012 3.10009 18.3427 3.37866 18.6213C3.65724 18.8999 3.98796 19.1209 4.35193 19.2716C4.71591 19.4224 5.10602 19.5 5.49998 19.5C5.89395 19.5 6.28406 19.4224 6.64804 19.2716C7.01201 19.1209 7.34273 18.8999 7.6213 18.6213C7.89988 18.3427 8.12086 18.012 8.27162 17.6481C8.42239 17.2841 8.49998 16.894 8.49998 16.5C8.49998 15.7044 8.18391 14.9413 7.6213 14.3787C7.0587 13.8161 6.29563 13.5 5.49998 13.5C4.70434 13.5 3.94127 13.8161 3.37866 14.3787C2.81606 14.9413 2.49998 15.7044 2.49998 16.5V16.5Z" fill="#383A44"/>
</svg>
