<svg width="60" height="40" viewBox="0 0 60 40" fill="none" xmlns="http://www.w3.org/2000/svg">
<g clip-path="url(#clip0_23_1791)">
<rect width="60" height="40" rx="20" fill="white"/>
<path d="M18.43 18.27L15.644 18.27L15.644 19.25L17.422 19.25L17.422 23.226L18.43 23.226L18.43 18.27ZM18.43 22.806L17.52 22.806C16.862 23.408 16.106 24.038 15.49 24.486L16.036 25.508C16.736 24.892 17.38 24.29 17.996 23.688C18.864 24.794 20.138 25.284 21.986 25.354C23.554 25.424 26.55 25.396 28.132 25.326C28.174 25.018 28.342 24.528 28.468 24.29C26.774 24.402 23.54 24.444 21.986 24.374C20.32 24.318 19.088 23.842 18.43 22.806ZM15.77 13.678C16.624 14.364 17.59 15.344 17.982 16.044L18.85 15.386C18.416 14.7 17.436 13.734 16.568 13.104L15.77 13.678ZM23.134 14.378L23.134 23.996L24.142 23.996L24.142 14.378L23.134 14.378ZM20.992 19.334L26.326 19.334L26.326 20.286L20.992 20.286L20.992 19.334ZM20.992 17.724L26.326 17.724L26.326 18.648L20.992 18.648L20.992 17.724ZM20.082 17.01L20.082 21L27.278 21L27.278 17.01L20.082 17.01ZM19.34 13.244L19.34 15.064L20.278 15.064L20.278 14.042L27.04 14.042L27.04 15.064L28.02 15.064L28.02 13.244L19.34 13.244ZM19.634 15.372L19.634 16.156L27.684 16.156L27.684 15.372L19.634 15.372ZM19.102 21.84L19.102 22.666L28.272 22.666L28.272 21.84L19.102 21.84ZM30.001 21.896L30.001 22.694L36.385 22.694L36.385 21.896L30.001 21.896ZM29.623 15.148L29.623 15.96L36.609 15.96L36.609 15.148L29.623 15.148ZM32.661 13.874L32.661 24.178L33.627 24.178L33.627 13.874L32.661 13.874ZM29.609 24.206L29.763 25.116C31.541 24.934 34.075 24.64 36.455 24.36L36.441 23.534C33.935 23.8 31.317 24.052 29.609 24.206ZM30.911 19.278L35.447 19.278L35.447 20.314L30.911 20.314L30.911 19.278ZM30.911 17.57L35.447 17.57L35.447 18.578L30.911 18.578L30.911 17.57ZM30.029 16.842L30.029 21.042L36.343 21.042L36.343 16.842L30.029 16.842ZM35.839 12.88C34.397 13.216 31.849 13.468 29.763 13.58C29.875 13.79 29.973 14.14 30.015 14.364C32.115 14.294 34.719 14.056 36.371 13.692L35.839 12.88ZM36.511 16.016L36.511 16.996L41.565 16.996L41.565 16.016L36.511 16.016ZM41.159 16.016L41.159 16.268C41.005 21.938 40.851 23.954 40.501 24.388C40.375 24.57 40.235 24.612 40.011 24.612C39.731 24.612 39.115 24.598 38.429 24.542C38.597 24.822 38.709 25.256 38.737 25.55C39.381 25.592 40.053 25.592 40.445 25.55C40.865 25.508 41.145 25.382 41.397 25.018C41.859 24.416 41.999 22.456 42.153 16.548C42.153 16.408 42.167 16.016 42.167 16.016L41.159 16.016ZM38.205 12.922C38.191 18.214 38.261 22.652 35.055 24.948C35.307 25.116 35.671 25.452 35.839 25.704C39.185 23.198 39.199 18.494 39.213 12.922L38.205 12.922Z" fill="#A8ABBD"/>
</g>
<rect x="0.5" y="0.5" width="59" height="39" rx="19.5" stroke="#A8ABBD"/>
<defs>
<clipPath id="clip0_23_1791">
<rect width="60" height="40" rx="20" fill="white"/>
</clipPath>
</defs>
</svg>
