<svg width="24" height="24" viewBox="0 0 24 24" fill="none" xmlns="http://www.w3.org/2000/svg">
<path fill-rule="evenodd" clip-rule="evenodd" d="M2.03403 7.91192C2.03403 6.83233 2.84004 5.99639 4.05391 5.99639C5.26778 5.99639 7.75823 5.96744 7.75823 5.96744C7.75823 5.96744 7.72023 5.06821 7.72023 3.92454C7.72023 2.78114 8.70806 2 9.89237 2C11.0769 2 16.9448 2.05159 17.5206 2.05159C18.0963 2.05159 18.5634 2.27273 19.2089 2.78101C19.8542 3.28955 20.8298 4.13951 21.313 4.70581C21.7961 5.27211 22 5.60273 22 6.06997C22 6.53734 22 15.9572 21.9925 17.0486C21.9852 18.1402 21.0143 18.947 19.8646 18.963C18.715 18.9789 16.2462 18.9789 16.2462 18.9789C16.2462 18.9789 16.3041 19.7862 16.3041 20.9279C16.3041 22.0697 15.2974 22.962 14.1535 22.9935C13.0096 23.025 5.21848 22.9304 4.10819 22.962C2.9979 22.9935 2 22.0879 2 20.978C2 19.868 2.03403 8.99139 2.03403 7.91192V7.91192ZM4.11228 8.41956L3.96921 20.3647C3.96836 20.4322 3.98044 20.4991 4.00476 20.5617C4.02907 20.6242 4.06514 20.6812 4.11087 20.7292C4.1566 20.7772 4.21107 20.8153 4.27114 20.8414C4.3312 20.8674 4.39566 20.8808 4.46077 20.8808L13.6403 20.9091C13.705 20.91 13.7692 20.8972 13.829 20.8717C13.8888 20.8461 13.9431 20.8083 13.9884 20.7605C14.0338 20.7127 14.0693 20.6559 14.093 20.5935C14.1166 20.5311 14.1278 20.4644 14.1259 20.3974L14.0988 19.2535C14.0982 19.2196 14.0912 19.1862 14.0781 19.1552C14.065 19.1242 14.0461 19.0962 14.0224 19.0729C13.9988 19.0495 13.9709 19.0312 13.9404 19.0191C13.9099 19.007 13.8774 19.0012 13.8447 19.0022C13.8447 19.0022 11.1291 19.0846 9.89945 19.0399C8.66969 18.9952 7.8289 18.1642 7.82853 17.0439C7.82815 15.9235 7.8289 8.14902 7.8289 8.14902C7.82897 8.11518 7.82255 8.08166 7.81003 8.0504C7.7975 8.01915 7.77912 7.99077 7.75594 7.96693C7.73275 7.94308 7.70524 7.92424 7.67497 7.91148C7.64471 7.89873 7.61231 7.89232 7.57964 7.89263L4.61502 7.90318C4.4827 7.90413 4.356 7.95871 4.26204 8.05522C4.16808 8.15173 4.11432 8.28251 4.11228 8.41956V8.41956ZM17.3399 3.88376C17.133 3.69723 16.9653 3.7757 16.9653 4.06026V6.28005C16.9653 6.42233 17.0763 6.53824 17.2133 6.53901L19.805 6.55201C20.0787 6.55342 20.133 6.40329 19.9262 6.21676L17.3399 3.88376V3.88376ZM10.1856 3.99273C10.1529 3.99242 10.1205 3.9988 10.0902 4.01149C10.0599 4.02418 10.0323 4.04295 10.009 4.0667C9.98565 4.09046 9.9671 4.11874 9.95436 4.14993C9.94163 4.18112 9.93495 4.21461 9.93472 4.24847L9.85698 16.6359C9.8565 16.6865 9.86573 16.7366 9.88411 16.7835C9.9025 16.8303 9.92969 16.8729 9.9641 16.9088C9.9985 16.9446 10.0394 16.9731 10.0845 16.9924C10.1296 17.0118 10.178 17.0216 10.2268 17.0215L19.5662 16.9975C19.6327 16.9972 19.6965 16.97 19.7439 16.9216C19.7914 16.8733 19.8187 16.8076 19.82 16.7387L19.9775 8.7085C19.9784 8.67487 19.9727 8.6414 19.9609 8.61008C19.949 8.57876 19.9312 8.55023 19.9085 8.52618C19.8858 8.50213 19.8587 8.48306 19.8287 8.47009C19.7987 8.45712 19.7666 8.45052 19.7341 8.45069C19.7341 8.45069 16.4837 8.4561 15.911 8.4561C15.3384 8.4561 14.9752 8.17024 14.9752 7.62221C14.9752 7.07418 14.9643 4.28192 14.9643 4.28192C14.9638 4.21329 14.9373 4.14761 14.8905 4.09904C14.8437 4.05048 14.7803 4.02292 14.7141 4.02231L10.1855 3.99273H10.1856Z" fill="#383A44"/>
</svg>
