<svg width="24" height="24" viewBox="0 0 24 24" fill="none" xmlns="http://www.w3.org/2000/svg">
<path d="M0 6.5625V18.4375C0 19.3823 0.395154 20.2885 1.09853 20.9566C1.80191 21.6247 2.7559 22 3.75063 22H20.2494C21.2441 22 22.1981 21.6247 22.9015 20.9566C23.6048 20.2885 24 19.3823 24 18.4375V6.5625C24 5.61767 23.6048 4.71153 22.9015 4.04343C22.1981 3.37533 21.2441 3 20.2494 3H3.75163C2.7569 3 1.80291 3.37533 1.09953 4.04343C0.396154 4.71153 0.00100033 5.61767 0.00100033 6.5625H0ZM14.9985 10.8375C14.9985 10.6485 15.0775 10.4673 15.2182 10.3337C15.3589 10.2001 15.5497 10.125 15.7486 10.125H19.2492C19.4482 10.125 19.639 10.2001 19.7796 10.3337C19.9203 10.4673 19.9993 10.6485 19.9993 10.8375C19.9993 11.0265 19.9203 11.2077 19.7796 11.3413C19.639 11.4749 19.4482 11.55 19.2492 11.55H15.7486C15.5497 11.55 15.3589 11.4749 15.2182 11.3413C15.0775 11.2077 14.9985 11.0265 14.9985 10.8375ZM15.7486 13.45H19.2492C19.4482 13.45 19.639 13.5251 19.7796 13.6587C19.9203 13.7923 19.9993 13.9735 19.9993 14.1625C19.9993 14.3515 19.9203 14.5327 19.7796 14.6663C19.639 14.7999 19.4482 14.875 19.2492 14.875H15.7486C15.5497 14.875 15.3589 14.7999 15.2182 14.6663C15.0775 14.5327 14.9985 14.3515 14.9985 14.1625C14.9985 13.9735 15.0775 13.7923 15.2182 13.6587C15.3589 13.5251 15.5497 13.45 15.7486 13.45V13.45ZM12.9982 10.6C12.9982 10.9779 12.8401 11.3404 12.5588 11.6076C12.2774 11.8749 11.8958 12.025 11.4979 12.025C11.1 12.025 10.7184 11.8749 10.4371 11.6076C10.1557 11.3404 9.99767 10.9779 9.99767 10.6C9.99767 10.2221 10.1557 9.85961 10.4371 9.59237C10.7184 9.32513 11.1 9.175 11.4979 9.175C11.8958 9.175 12.2774 9.32513 12.5588 9.59237C12.8401 9.85961 12.9982 10.2221 12.9982 10.6ZM4.99683 12.975H8.49742C8.76268 12.975 9.01707 13.0751 9.20464 13.2532C9.39221 13.4314 9.49758 13.673 9.49758 13.925V14.875C9.49758 14.875 9.49758 16.775 6.74712 16.775C3.99667 16.775 3.99667 14.875 3.99667 14.875V13.925C3.99667 13.673 4.10204 13.4314 4.28961 13.2532C4.47718 13.0751 4.73157 12.975 4.99683 12.975ZM8.49742 10.3625C8.49742 10.8034 8.31301 11.2263 7.98477 11.5381C7.65652 11.8498 7.21133 12.025 6.74712 12.025C6.28292 12.025 5.83772 11.8498 5.50948 11.5381C5.18124 11.2263 4.99683 10.8034 4.99683 10.3625C4.99683 9.92158 5.18124 9.49871 5.50948 9.18693C5.83772 8.87516 6.28292 8.7 6.74712 8.7C7.21133 8.7 7.65652 8.87516 7.98477 9.18693C8.31301 9.49871 8.49742 9.92158 8.49742 10.3625V10.3625ZM11.4979 15.825H10.2827C10.3886 15.5769 10.4576 15.316 10.4877 15.0498C10.4928 15.0024 10.4961 14.9549 10.4977 14.9073V13.925C10.4977 13.5792 10.3997 13.2543 10.2297 12.975H12.4981C12.7633 12.975 13.0177 13.0751 13.2053 13.2532C13.3929 13.4314 13.4982 13.673 13.4982 13.925C13.4982 14.4289 13.2875 14.9122 12.9124 15.2685C12.5372 15.6248 12.0284 15.825 11.4979 15.825Z" fill="#6F7387"/>
</svg>
