<svg width="24" height="24" viewBox="0 0 24 24" fill="none" xmlns="http://www.w3.org/2000/svg">
<path d="M16.0089 23.9999C15.7528 24.0008 15.4997 23.9442 15.2682 23.8345C15.0368 23.7247 14.8329 23.5645 14.6715 23.3657L6.39005 13.0809C6.13786 12.7742 6 12.3895 6 11.9924C6 11.5954 6.13786 11.2107 6.39005 10.904L14.963 0.619231C15.2541 0.269179 15.6723 0.0490432 16.1256 0.00725332C16.579 -0.0345366 17.0305 0.105442 17.3806 0.396395C17.7307 0.687348 17.9509 1.10544 17.9927 1.5587C18.0345 2.01196 17.8945 2.46326 17.6035 2.81331L9.93926 12.001L17.3463 21.1887C17.556 21.4403 17.6892 21.7467 17.7301 22.0716C17.771 22.3965 17.718 22.7264 17.5773 23.0221C17.4366 23.3178 17.2142 23.5671 16.9362 23.7404C16.6583 23.9137 16.3365 24.0037 16.0089 23.9999Z" fill="black"/>
</svg>
