<svg width="24" height="24" viewBox="0 0 24 24" fill="none" xmlns="http://www.w3.org/2000/svg">
<g clip-path="url(#clip0_15_356)">
<path d="M10.5466 22.5003C11.1794 23.4056 12.2452 24 13.4534 24H20.4845C22.426 24 24 22.465 24 20.5714V6.85714C24 4.9636 22.426 3.42857 20.4845 3.42857H15.6747L19.4385 16.5049C19.9632 18.328 18.8732 20.2207 17.0039 20.7325L10.5466 22.5003Z" fill="#383A44"/>
<path d="M0.131724 6.20931C-0.393015 4.38623 0.696981 2.49347 2.5663 1.98171L9.3357 0.128466C11.205 -0.383294 13.1458 0.679742 13.6705 2.50282L17.471 15.7067C17.9958 17.5298 16.9058 19.4226 15.0364 19.9343L8.26704 21.7876C6.39772 22.2994 4.45696 21.2363 3.93222 19.4132L0.131724 6.20931Z" fill="#383A44"/>
</g>
<defs>
<clipPath id="clip0_15_356">
<rect width="24" height="24" fill="white"/>
</clipPath>
</defs>
</svg>
