<svg width="24" height="24" viewBox="0 0 24 24" fill="none" xmlns="http://www.w3.org/2000/svg">
<path d="M2.5591 2.58705C2.9172 2.21116 3.40282 2 3.90917 2C4.41553 2 4.90115 2.21116 5.25925 2.58705L12.0115 9.67695L18.7638 2.58705C19.124 2.22182 19.6063 2.01972 20.107 2.02429C20.6077 2.02885 21.0866 2.23972 21.4407 2.61148C21.7947 2.98323 21.9956 3.48613 21.9999 4.01185C22.0043 4.53757 21.8118 5.04405 21.464 5.42221L14.7117 12.5121L21.464 19.602C21.8118 19.9802 22.0043 20.4866 21.9999 21.0124C21.9956 21.5381 21.7947 22.041 21.4407 22.4127C21.0866 22.7845 20.6077 22.9954 20.107 22.9999C19.6063 23.0045 19.124 22.8024 18.7638 22.4372L12.0115 15.3473L5.25925 22.4372C4.8991 22.8024 4.41673 23.0045 3.91605 22.9999C3.41536 22.9954 2.93641 22.7845 2.58236 22.4127C2.22831 22.041 2.02748 21.5381 2.02313 21.0124C2.01878 20.4866 2.21125 19.9802 2.5591 19.602L9.31138 12.5121L2.5591 5.42221C2.20111 5.04621 2 4.5363 2 4.00463C2 3.47296 2.20111 2.96306 2.5591 2.58705Z" fill="black"/>
</svg>
