<svg width="375" height="812" viewBox="0 0 375 812" fill="none" xmlns="http://www.w3.org/2000/svg">
<g clip-path="url(#clip0_40_8597)">
<rect width="375" height="812" fill="#383A44"/>
<g clip-path="url(#clip1_40_8597)">
<path d="M78 -2H297C294.894 -1.39731 293.418 0.495246 293.345 2.68446L293.317 3.5618C293.317 17.0587 282.375 28 268.878 28H106.122C92.6249 28 81.6835 17.0587 81.6835 3.5618L81.6545 2.68447C81.5823 0.49525 80.1059 -1.39731 78 -2Z" fill="black"/>
<path opacity="0.35" d="M336.5 20.0006C336.5 18.804 337.47 17.834 338.667 17.834H355.333C356.53 17.834 357.5 18.804 357.5 20.0007V26.0007C357.5 27.1973 356.53 28.1673 355.333 28.1673H338.667C337.47 28.1673 336.5 27.1973 336.5 26.0007V20.0006Z" stroke="white"/>
<path opacity="0.4" d="M359 21.001V25.001C359.805 24.6622 360.328 23.8741 360.328 23.001C360.328 22.1278 359.805 21.3398 359 21.001Z" fill="white"/>
<path d="M338 20.6673C338 19.9309 338.597 19.334 339.333 19.334H354.667C355.403 19.334 356 19.9309 356 20.6673V25.334C356 26.0704 355.403 26.6673 354.667 26.6673H339.333C338.597 26.6673 338 26.0704 338 25.334V20.6673Z" fill="white"/>
<path fill-rule="evenodd" clip-rule="evenodd" d="M323.33 19.6084C325.546 19.6085 327.678 20.4599 329.283 21.9867C329.404 22.1046 329.598 22.1031 329.717 21.9834L330.873 20.8167C330.933 20.756 330.967 20.6737 330.966 20.5882C330.966 20.5026 330.931 20.4207 330.87 20.3607C326.655 16.3212 320.005 16.3212 315.79 20.3607C315.729 20.4207 315.694 20.5025 315.694 20.5881C315.693 20.6737 315.727 20.7559 315.787 20.8167L316.943 21.9834C317.062 22.1033 317.256 22.1048 317.377 21.9867C318.983 20.4598 321.114 19.6084 323.33 19.6084ZM323.33 23.404C324.548 23.404 325.722 23.8565 326.624 24.6737C326.747 24.7897 326.939 24.7872 327.058 24.668L328.212 23.5014C328.273 23.4402 328.307 23.3572 328.306 23.2709C328.305 23.1846 328.27 23.1023 328.208 23.0424C325.46 20.486 321.204 20.486 318.455 23.0424C318.393 23.1023 318.358 23.1847 318.357 23.271C318.356 23.3573 318.39 23.4403 318.451 23.5014L319.605 24.668C319.724 24.7872 319.917 24.7897 320.039 24.6737C320.941 23.857 322.114 23.4046 323.33 23.404ZM325.643 25.9579C325.645 26.0444 325.611 26.1278 325.549 26.1884L323.552 28.204C323.494 28.2633 323.414 28.2966 323.33 28.2966C323.247 28.2966 323.167 28.2633 323.109 28.204L321.111 26.1884C321.049 26.1277 321.015 26.0443 321.017 25.9578C321.019 25.8713 321.057 25.7894 321.121 25.7314C322.396 24.6525 324.265 24.6525 325.54 25.7314C325.604 25.7894 325.642 25.8714 325.643 25.9579Z" fill="white"/>
<path fill-rule="evenodd" clip-rule="evenodd" d="M309.667 17.667H308.667C308.114 17.667 307.667 18.1147 307.667 18.667V27.3337C307.667 27.8859 308.114 28.3337 308.667 28.3337H309.667C310.219 28.3337 310.667 27.8859 310.667 27.3337V18.667C310.667 18.1147 310.219 17.667 309.667 17.667ZM304 20.0003H305C305.552 20.0003 306 20.448 306 21.0003V27.3337C306 27.8859 305.552 28.3337 305 28.3337H304C303.448 28.3337 303 27.8859 303 27.3337V21.0003C303 20.448 303.448 20.0003 304 20.0003ZM300.333 22.3337H299.333C298.781 22.3337 298.333 22.7814 298.333 23.3337V27.3337C298.333 27.8859 298.781 28.3337 299.333 28.3337H300.333C300.886 28.3337 301.333 27.8859 301.333 27.3337V23.3337C301.333 22.7814 300.886 22.3337 300.333 22.3337ZM295.667 24.3337H294.667C294.114 24.3337 293.667 24.7814 293.667 25.3337V27.3337C293.667 27.8859 294.114 28.3337 294.667 28.3337H295.667C296.219 28.3337 296.667 27.8859 296.667 27.3337V25.3337C296.667 24.7814 296.219 24.3337 295.667 24.3337Z" fill="white"/>
<path d="M37.3208 28.2568C40.0088 28.2568 41.6055 26.1548 41.6055 22.5952C41.6055 21.2549 41.3491 20.127 40.8584 19.2554C40.1479 17.9004 38.9248 17.168 37.3794 17.168C35.0796 17.168 33.4536 18.7134 33.4536 20.8813C33.4536 22.9175 34.9185 24.397 36.9326 24.397C38.1704 24.397 39.1738 23.8184 39.6719 22.8149H39.6938C39.6938 22.8149 39.7231 22.8149 39.7305 22.8149C39.7451 22.8149 39.7964 22.8149 39.7964 22.8149C39.7964 25.2319 38.8809 26.6748 37.3354 26.6748C36.4272 26.6748 35.7241 26.1768 35.4824 25.3784H33.6001C33.915 27.1143 35.3872 28.2568 37.3208 28.2568ZM37.3867 22.8955C36.1709 22.8955 35.3066 22.0312 35.3066 20.8228C35.3066 19.6436 36.2148 18.7427 37.394 18.7427C38.5732 18.7427 39.4814 19.6582 39.4814 20.8521C39.4814 22.0312 38.5952 22.8955 37.3867 22.8955Z" fill="white"/>
<path d="M44.6966 28.1543C45.3924 28.1543 45.8685 27.6562 45.8685 26.9971C45.8685 26.3306 45.3924 25.8398 44.6966 25.8398C44.0081 25.8398 43.5247 26.3306 43.5247 26.9971C43.5247 27.6562 44.0081 28.1543 44.6966 28.1543ZM44.6966 22.6611C45.3924 22.6611 45.8685 22.1704 45.8685 21.5112C45.8685 20.8447 45.3924 20.354 44.6966 20.354C44.0081 20.354 43.5247 20.8447 43.5247 21.5112C43.5247 22.1704 44.0081 22.6611 44.6966 22.6611Z" fill="white"/>
<path d="M52.7242 28.0005H54.5333V26.0303H55.9615V24.4336H54.5333V17.4316H51.8673C49.9996 20.2441 48.5128 22.5952 47.5606 24.3457V26.0303H52.7242V28.0005ZM49.3111 24.3677C50.5416 22.1997 51.6402 20.4639 52.651 18.9697H52.7535V24.4775H49.3111V24.3677Z" fill="white"/>
<path d="M59.9901 28.0005H61.8798V17.4316H59.9975L57.2362 19.3652V21.1816L59.8656 19.3359H59.9901V28.0005Z" fill="white"/>
</g>
<rect x="121" y="799" width="134" height="5" rx="2.5" fill="white"/>
<path d="M89.976 131.824V134.344H98.432V131.824H89.976ZM90.06 124.096V126.644H98.348V124.096H90.06ZM89.976 135.632V138.18H98.432V135.632H89.976ZM88.632 127.876V130.536H99.356V127.876H88.632ZM91.432 139.524V142.184H95.604V145.376H91.432V148.036H98.46V139.524H91.432ZM89.92 139.524V149.156H92.748V139.524H89.92ZM100.028 124.74V127.148H114.308V124.74H100.028ZM100.728 128.156V130.424H113.86V128.156H100.728ZM99.356 131.516V133.924H114.84V131.516H99.356ZM105.46 123.228V133.56H108.652V123.228H105.46ZM101.26 134.988V149.492H104.368V137.368H112.012V134.988H101.26ZM110.164 134.988V146.356C110.164 146.664 110.08 146.776 109.716 146.776C109.352 146.776 108.176 146.804 107.14 146.748C107.504 147.476 107.924 148.624 108.008 149.436C109.828 149.436 111.144 149.408 112.096 148.988C113.02 148.54 113.3 147.812 113.3 146.384V134.988H110.164ZM102.632 138.628V140.812H111.788V138.628H102.632ZM102.632 142.128V144.312H111.788V142.128H102.632ZM131.864 130.144V132.804H139.592V130.144H131.864ZM130.436 138.152V140.336H134.356V138.152H130.436ZM130.436 141.82V144.172H134.356V141.82H130.436ZM136.54 135.072V145.152H138.836V135.072H136.54ZM135.756 126.308C137.212 128.716 139.844 131.572 142.336 133.14C142.784 132.216 143.456 131.012 144.072 130.228C141.44 128.912 138.836 126.084 137.128 123.256H134.188C132.956 125.804 130.352 128.968 127.636 130.592C128.168 131.32 128.868 132.496 129.204 133.336C131.92 131.6 134.412 128.688 135.756 126.308ZM128.952 134.344V149.408H131.22V136.724H134.216V134.344H128.952ZM133.236 134.344V146.944C133.236 147.14 133.18 147.224 133.012 147.224C132.872 147.224 132.48 147.224 132.06 147.224C132.34 147.84 132.592 148.876 132.648 149.52C133.572 149.52 134.244 149.492 134.832 149.072C135.392 148.652 135.532 148.008 135.532 147V134.344H133.236ZM140.124 133.896V146.636C140.124 146.916 140.012 147 139.704 147.028C139.396 147.056 138.388 147.056 137.38 147.028C137.716 147.728 138.052 148.764 138.136 149.464C139.788 149.464 140.936 149.436 141.748 149.044C142.532 148.624 142.756 147.924 142.756 146.692V133.896H140.124ZM117.528 125.86V128.772H128.476V125.86H117.528ZM117.192 142.156V145.096H128.392V142.156H117.192ZM121.364 123.2V131.46H124.304V123.2H121.364ZM121.84 131.488V139.272H121.392V149.492H124.304V139.272H123.856V131.488H121.84ZM120.132 136.5H125.536V138.152H120.132V136.5ZM120.132 132.664H125.536V134.288H120.132V132.664ZM117.836 130.312V140.476H127.916V130.312H117.836ZM151.352 124.796V128.212H159.276V124.796H151.352ZM157.624 124.796C157.624 130.508 158.856 143.024 169.524 149.436C170.112 148.596 171.456 147.112 172.24 146.496C161.852 140.42 161.096 130.116 161.096 124.796H157.624ZM156.42 130.928C154.908 138.348 151.548 143.78 145.696 146.748C146.564 147.364 148.132 148.764 148.748 149.492C154.6 145.964 158.324 139.944 160.284 131.628L156.42 130.928ZM179.38 140.112V142.1H195.284V140.112H179.38ZM179.408 136.612V138.852H193.884V143.332H179.408V145.6H197.216V136.612H179.408ZM185.596 137.844V145.684C185.596 148.624 186.66 149.436 190.524 149.436C191.364 149.436 195.536 149.436 196.432 149.436C199.484 149.436 200.436 148.54 200.828 145.124C199.96 144.956 198.7 144.536 198 144.06C197.832 146.44 197.552 146.888 196.152 146.888C195.144 146.888 191.616 146.888 190.832 146.888C189.124 146.888 188.816 146.72 188.816 145.684V137.844H185.596ZM177.728 136.612V146.832H180.948V136.612H177.728ZM177.056 124.236V126.7H197.832V124.236H177.056ZM179.212 130.928V132.748H184.756V130.928H179.212ZM178.68 133.728V135.548H184.756V133.728H178.68ZM190.104 133.728V135.548H196.236V133.728H190.104ZM190.104 130.928V132.748H195.592V130.928H190.104ZM185.764 125.216V135.856H189.04V125.216H185.764ZM175.152 127.736V133.476H178.12V129.976H196.768V133.476H199.876V127.736H175.152ZM215.276 138.208V149.548H218.44V141.232H224.824V149.408H228.184V138.208H215.276ZM226.224 123.508C223.256 124.46 218.496 125.188 214.24 125.552C214.632 126.308 215.08 127.568 215.192 128.38C219.616 128.072 224.768 127.428 228.576 126.308L226.224 123.508ZM219.84 126.14V139.72H223.284V126.14H219.84ZM213.792 131.348V134.512H229.332V131.348H213.792ZM217.404 145.152V148.176H226.42V145.152H217.404ZM204.244 132.02V134.54H212.7V132.02H204.244ZM204.412 124.096V126.644H212.7V124.096H204.412ZM204.244 135.94V138.46H212.7V135.94H204.244ZM202.872 127.988V130.62H213.596V127.988H202.872ZM205.896 139.888V142.548H209.956V145.768H205.896V148.4H212.84V139.888H205.896ZM204.16 139.888V149.52H206.988V139.888H204.16ZM235.604 126.84H238.208V129.836H235.604V126.84ZM232.664 124.152V132.552H241.316V124.152H232.664ZM231.46 133.84V136.724H242.296V133.84H231.46ZM233.812 135.212C233.42 137.452 232.804 140.28 232.244 142.156L235.24 142.66C235.744 140.7 236.388 137.676 236.864 135.212H233.812ZM234.68 138.432L234.036 141.204H239.384V138.432H234.68ZM238.18 138.432V138.88C237.928 143.92 237.62 145.936 237.116 146.44C236.864 146.692 236.584 146.748 236.164 146.748C235.66 146.748 234.568 146.748 233.392 146.636C233.924 147.42 234.26 148.652 234.316 149.52C235.604 149.548 236.836 149.548 237.564 149.464C238.432 149.352 239.048 149.128 239.636 148.456C240.42 147.56 240.784 145.18 241.148 139.636C241.176 139.216 241.204 138.432 241.204 138.432H238.18ZM249.716 124.74V127.4H256.828V124.74H249.716ZM244.284 128.632V131.264H255.904V128.632H244.284ZM248.204 123.228V129.836H251.424V123.228H248.204ZM242.912 128.632V135.912C242.912 139.496 242.688 144.368 240.336 147.812C241.036 148.12 242.324 149.072 242.856 149.604C245.46 145.88 245.908 140 245.908 135.912V128.632H242.912ZM246.132 133.168L246.412 135.408L254.056 134.68L253.776 132.496L246.132 133.168ZM248.4 131.04V135.324C248.4 137.676 248.988 138.376 251.62 138.376C252.152 138.376 253.804 138.376 254.336 138.376C256.184 138.376 256.912 137.76 257.192 135.604C256.436 135.436 255.316 135.072 254.728 134.68C254.644 135.856 254.532 136.052 254 136.052C253.636 136.052 252.376 136.052 252.096 136.052C251.424 136.052 251.34 135.996 251.34 135.324V131.04H248.4ZM255.036 128.632V129.024C254.924 130.592 254.672 132.608 254.476 133.868L256.996 134.456C257.332 133.056 257.752 130.872 258.032 128.968L255.932 128.52L255.456 128.632H255.036ZM247.112 139.3C246.972 143.052 246.58 145.656 243.78 147.252C244.452 147.784 245.292 148.932 245.656 149.688C249.1 147.588 249.744 144.06 249.912 139.3H247.112ZM251.284 139.3V145.908C251.284 147.532 251.396 148.008 251.9 148.512C252.348 148.988 253.076 149.156 253.804 149.156C254.196 149.156 254.924 149.156 255.372 149.156C255.932 149.156 256.548 149.016 256.912 148.792C257.388 148.456 257.696 148.092 257.892 147.476C258.06 146.916 258.228 145.572 258.256 144.228C257.5 143.976 256.464 143.416 255.932 142.94C255.932 144.088 255.904 145.096 255.848 145.516C255.792 145.768 255.708 145.964 255.596 146.048C255.512 146.132 255.316 146.188 255.176 146.188C255.008 146.188 254.756 146.188 254.644 146.188C254.476 146.188 254.308 146.132 254.224 146.02C254.168 145.964 254.14 145.768 254.14 145.628V139.3H251.284ZM260.272 124.264V127.316H270.912V124.264H260.272ZM263.52 133.196V136.08H267.188V143.22H263.52V146.104H270.1V133.196H263.52ZM263.296 125.86C262.736 130.956 261.7 135.856 259.544 138.936C260.132 139.692 261.056 141.372 261.336 142.156C264.136 138.348 265.62 132.412 266.432 126.336L263.296 125.86ZM262.092 133.196V148.316H264.976V133.196H262.092ZM273.404 128.66V131.264H284.604V128.66H273.404ZM273.404 132.888V135.52H284.604V132.888H273.404ZM271.808 137.228V140.112H283.904V137.228H271.808ZM277.604 125.804V138.376H280.6V125.804H277.604ZM274.188 142.072C274.468 143.724 274.608 145.852 274.552 147.252L276.848 146.888C276.876 145.488 276.68 143.416 276.344 141.764L274.188 142.072ZM277.1 141.904C277.576 143.276 278.024 145.04 278.136 146.188L280.292 145.572C280.124 144.424 279.648 142.688 279.144 141.372L277.1 141.904ZM279.9 141.372C280.516 142.408 281.132 143.78 281.384 144.676L283.176 143.92C282.896 143.052 282.252 141.708 281.552 140.728L279.9 141.372ZM271.416 140.896C271.192 143.192 270.66 145.544 269.568 147L271.892 148.26C273.152 146.636 273.628 144.004 273.88 141.512L271.416 140.896ZM271.808 124.236V138.768H274.86V127.12H285.416V124.236H271.808ZM282.924 137.228V137.732C282.728 143.696 282.448 145.908 282 146.468C281.748 146.72 281.524 146.804 281.132 146.804C280.684 146.804 279.788 146.776 278.78 146.692C279.256 147.476 279.564 148.68 279.62 149.548C280.852 149.604 282 149.576 282.672 149.492C283.484 149.38 284.072 149.128 284.632 148.428C285.36 147.532 285.668 144.928 285.92 138.432C285.948 138.04 285.976 137.228 285.976 137.228H282.924Z" fill="white"/>
<g clip-path="url(#clip2_40_8597)">
<rect x="40" y="256" width="295" height="50" rx="25" fill="#FF4E84"/>
<path d="M154.236 272.56L154.236 274.544L155.436 274.544L155.436 272.56L154.236 272.56ZM148.028 273.856L148.028 276.688L149.148 276.688L149.148 274.896L160.524 274.896L160.524 276.688L161.676 276.688L161.676 273.856L148.028 273.856ZM149.772 276.192L149.772 277.168L159.932 277.168L159.932 276.192L149.772 276.192ZM154.3 275.104C154.028 277.552 153.116 278.608 149.116 279.12C149.308 279.344 149.564 279.776 149.66 280.032C154.012 279.376 155.1 278.032 155.452 275.104L154.3 275.104ZM153.868 278.112C155.772 278.624 158.188 279.52 159.42 280.208L160.028 279.344C158.748 278.656 156.316 277.808 154.46 277.36L153.868 278.112ZM147.772 280.032L147.772 281.104L161.948 281.104L161.948 280.032L147.772 280.032ZM158.444 280.72L158.444 285.904C158.444 286.128 158.364 286.176 158.108 286.208C157.852 286.208 156.972 286.208 155.98 286.176C156.14 286.512 156.316 286.96 156.364 287.28C157.628 287.28 158.46 287.28 158.956 287.104C159.484 286.928 159.628 286.608 159.628 285.936L159.628 280.72L158.444 280.72ZM149.868 282.096L149.868 286.448L150.988 286.448L150.988 282.096L149.868 282.096ZM150.412 282.096L150.412 283.04L155.02 283.04L155.02 284.688L150.412 284.688L150.412 285.632L156.156 285.632L156.156 282.096L150.412 282.096ZM168.268 278.912L168.268 280.016L178.364 280.016L178.364 278.912L168.268 278.912ZM168.78 275.616L168.78 276.688L177.884 276.688L177.884 275.616L168.78 275.616ZM172.556 276.112L172.556 278.496C172.556 280.144 172.268 282.496 168.38 284.064C168.652 284.272 169.02 284.688 169.18 284.944C173.212 283.136 173.756 280.512 173.756 278.512L173.756 276.112L172.556 276.112ZM174.092 279.616L173.052 279.84C173.756 282.448 175.212 284.176 177.628 285.024C177.788 284.704 178.124 284.24 178.396 284C176.108 283.344 174.7 281.856 174.092 279.616ZM167.356 278.88L163.948 278.88L163.948 280L166.188 280L166.188 284.544L167.356 284.544L167.356 278.88ZM167.356 284.016L166.268 284.016C165.452 284.704 164.508 285.408 163.74 285.92L164.38 287.152C165.244 286.448 166.06 285.76 166.828 285.072C167.852 286.336 169.292 286.896 171.372 286.976C173.148 287.04 176.46 287.008 178.22 286.944C178.268 286.576 178.476 286 178.604 285.712C176.716 285.84 173.116 285.888 171.372 285.824C169.532 285.744 168.108 285.2 167.356 284.016ZM164.124 273.68C165.164 274.384 166.364 275.472 166.876 276.24L167.82 275.456C167.276 274.672 166.06 273.632 165.004 272.96L164.124 273.68ZM175.788 272.56C175.452 273.376 174.796 274.528 174.3 275.248L175.276 275.616C175.804 274.944 176.46 273.888 177.004 272.976L175.788 272.56ZM169.404 273.04C170.028 273.84 170.62 274.944 170.828 275.664L171.916 275.184C171.692 274.448 171.068 273.392 170.428 272.624L169.404 273.04ZM189.42 273.68C189.148 275.872 188.492 278.208 185.884 279.408C186.14 279.6 186.476 280 186.604 280.256C189.404 278.864 190.188 276.272 190.524 273.68L189.42 273.68ZM186.476 275.968C188.14 276.528 190.14 277.584 191.212 278.368L191.788 277.424C190.732 276.688 188.732 275.696 187.068 275.136L186.476 275.968ZM193.196 273.248L193.196 273.456C193.068 277.072 192.908 278.352 192.62 278.688C192.508 278.816 192.364 278.864 192.108 278.848C191.852 278.848 191.18 278.848 190.444 278.784C190.62 279.072 190.732 279.536 190.748 279.872C191.5 279.904 192.252 279.92 192.636 279.888C193.068 279.84 193.34 279.728 193.596 279.424C193.996 278.96 194.156 277.536 194.316 273.76C194.332 273.6 194.332 273.248 194.332 273.248L193.196 273.248ZM188.284 281.776L188.284 285.648C188.284 286.832 188.556 287.168 189.772 287.168C190.028 287.168 191.292 287.168 191.548 287.168C192.556 287.168 192.86 286.672 192.988 284.72C192.668 284.624 192.188 284.464 191.964 284.272C191.916 285.872 191.852 286.096 191.42 286.096C191.164 286.096 190.124 286.096 189.916 286.096C189.468 286.096 189.404 286.032 189.404 285.632L189.404 281.776L188.284 281.776ZM186.764 282.32C186.604 283.648 186.252 285.056 185.484 285.84L186.38 286.432C187.228 285.536 187.564 283.984 187.74 282.56L186.764 282.32ZM188.556 280.304C189.596 280.912 190.812 281.84 191.388 282.512L192.14 281.696C191.548 281.024 190.316 280.16 189.26 279.6L188.556 280.304ZM192.284 282.432C193.116 283.6 193.82 285.216 194.028 286.304L195.1 285.856C194.86 284.768 194.14 283.2 193.276 282.032L192.284 282.432ZM186.62 273.248L186.62 274.288L193.692 274.288L193.692 273.248L186.62 273.248ZM180.828 277.408L180.828 278.368L185.372 278.368L185.372 277.408L180.828 277.408ZM180.892 273.136L180.892 274.096L185.308 274.096L185.308 273.136L180.892 273.136ZM180.828 279.552L180.828 280.512L185.372 280.512L185.372 279.552L180.828 279.552ZM180.108 275.232L180.108 276.224L185.82 276.224L185.82 275.232L180.108 275.232ZM181.356 281.712L181.356 282.704L184.332 282.704L184.332 285.376L181.356 285.376L181.356 286.384L185.372 286.384L185.372 281.712L181.356 281.712ZM180.812 281.712L180.812 287.12L181.836 287.12L181.836 281.712L180.812 281.712ZM202.348 273.184L202.348 274.144L205.468 274.144L205.468 273.184L202.348 273.184ZM204.14 277.152L204.14 278.112L208.636 278.112L208.636 277.152L204.14 277.152ZM201.916 285.744L201.916 286.8L211.052 286.8L211.052 285.744L201.916 285.744ZM209.436 273.024C209.004 273.456 208.204 274.144 207.66 274.528L208.172 275.04C208.748 274.688 209.484 274.192 210.124 273.68L209.436 273.024ZM210.412 274.688C209.98 275.152 209.148 275.84 208.604 276.224L209.116 276.784C209.708 276.432 210.46 275.904 211.116 275.392L210.412 274.688ZM207.996 282.912C207.836 283.648 207.436 284.736 207.148 285.424L208.108 285.696C208.428 285.04 208.796 284.064 209.132 283.184L207.996 282.912ZM203.756 283.184C204.124 283.984 204.46 285.024 204.556 285.712L205.628 285.392C205.516 284.704 205.164 283.68 204.78 282.928L203.756 283.184ZM204.124 280.096L208.62 280.096L208.62 281.84L204.124 281.84L204.124 280.096ZM203.02 279.136L203.02 282.8L209.772 282.8L209.772 279.136L203.02 279.136ZM202.108 275.344C202.716 275.808 203.42 276.496 203.74 276.976L204.46 276.208C204.124 275.744 203.404 275.104 202.78 274.672L202.108 275.344ZM205.036 273.184L205.036 273.376C204.508 275.632 203.004 277.568 201.372 278.416C201.612 278.64 201.916 279.056 202.06 279.328C203.868 278.256 205.436 276.176 206.108 273.408L205.42 273.136L205.228 273.184L205.036 273.184ZM207.532 272.608L206.524 272.832C207.228 275.584 208.556 277.92 210.556 279.072C210.732 278.784 211.068 278.352 211.34 278.144C209.468 277.2 208.156 275.024 207.532 272.608ZM197.116 277.408L197.116 278.368L201.436 278.368L201.436 277.408L197.116 277.408ZM197.196 273.136L197.196 274.096L201.372 274.096L201.372 273.136L197.196 273.136ZM197.116 279.552L197.116 280.512L201.436 280.512L201.436 279.552L197.116 279.552ZM196.428 275.232L196.428 276.224L201.9 276.224L201.9 275.232L196.428 275.232ZM197.676 281.712L197.676 282.704L200.428 282.704L200.428 285.376L197.676 285.376L197.676 286.368L201.436 286.368L201.436 281.712L197.676 281.712ZM197.084 281.712L197.084 287.12L198.108 287.12L198.108 281.712L197.084 281.712ZM212.908 273.328L212.908 274.432L218.78 274.432L218.78 273.328L212.908 273.328ZM214.556 278.32L214.556 279.376L217.116 279.376L217.116 284.176L214.556 284.176L214.556 285.232L218.188 285.232L218.188 278.32L214.556 278.32ZM214.844 273.856C214.46 276.864 213.788 279.728 212.524 281.552C212.748 281.808 213.116 282.384 213.228 282.64C214.684 280.544 215.5 277.392 215.996 274.032L214.844 273.856ZM214.028 278.32L214.028 286.56L215.084 286.56L215.084 278.32L214.028 278.32ZM220.06 275.76L220.06 276.736L226.54 276.736L226.54 275.76L220.06 275.76ZM220.06 278.224L220.06 279.216L226.54 279.216L226.54 278.224L220.06 278.224ZM219.468 280.736L219.468 281.792L226.492 281.792L226.492 280.736L219.468 280.736ZM222.78 273.792L222.78 281.184L223.868 281.184L223.868 273.792L222.78 273.792ZM220.796 283.072C220.972 284.016 221.068 285.232 221.036 286.032L221.916 285.888C221.932 285.104 221.82 283.904 221.628 282.944L220.796 283.072ZM222.492 282.944C222.812 283.728 223.116 284.768 223.212 285.424L224.044 285.184C223.916 284.528 223.612 283.504 223.276 282.736L222.492 282.944ZM224.108 282.592C224.524 283.2 224.972 284 225.164 284.528L225.884 284.192C225.676 283.696 225.212 282.896 224.748 282.32L224.108 282.592ZM219.244 282.576C219.1 283.888 218.78 285.28 218.076 286.08L218.924 286.56C219.692 285.68 219.996 284.192 220.156 282.8L219.244 282.576ZM219.468 273.248L219.468 281.264L220.572 281.264L220.572 274.304L226.94 274.304L226.94 273.248L219.468 273.248ZM226.14 280.736L226.14 280.928C225.996 284.496 225.804 285.808 225.516 286.128C225.388 286.272 225.26 286.304 225.004 286.304C224.764 286.304 224.124 286.288 223.436 286.224C223.612 286.528 223.724 286.96 223.74 287.28C224.444 287.312 225.132 287.312 225.5 287.28C225.932 287.248 226.204 287.136 226.46 286.832C226.876 286.368 227.052 284.992 227.228 281.232C227.244 281.072 227.244 280.736 227.244 280.736L226.14 280.736Z" fill="white"/>
</g>
<rect x="115.5" y="176.5" width="219" height="49" rx="24.5" fill="#4A4D5A" stroke="#6F7387"/>
<path d="M139.075 200.23V201.748C139.075 202.564 139.002 203.252 138.856 203.812C138.711 204.373 138.501 204.824 138.228 205.166C137.954 205.508 137.624 205.756 137.236 205.911C136.854 206.062 136.421 206.137 135.938 206.137C135.555 206.137 135.201 206.089 134.878 205.993C134.554 205.897 134.263 205.745 134.003 205.535C133.748 205.321 133.529 205.043 133.347 204.701C133.164 204.359 133.025 203.945 132.93 203.457C132.834 202.969 132.786 202.4 132.786 201.748V200.23C132.786 199.415 132.859 198.731 133.005 198.18C133.155 197.628 133.367 197.186 133.641 196.854C133.914 196.516 134.242 196.275 134.625 196.129C135.012 195.983 135.445 195.91 135.924 195.91C136.311 195.91 136.667 195.958 136.99 196.054C137.318 196.145 137.61 196.293 137.865 196.498C138.12 196.699 138.337 196.967 138.515 197.305C138.697 197.637 138.836 198.045 138.932 198.528C139.027 199.011 139.075 199.579 139.075 200.23ZM137.804 201.953V200.019C137.804 199.572 137.776 199.18 137.722 198.843C137.672 198.501 137.596 198.209 137.496 197.968C137.396 197.726 137.268 197.53 137.113 197.38C136.963 197.229 136.787 197.12 136.587 197.052C136.391 196.979 136.17 196.942 135.924 196.942C135.623 196.942 135.356 196.999 135.124 197.113C134.892 197.223 134.696 197.398 134.536 197.64C134.381 197.881 134.263 198.198 134.181 198.59C134.099 198.982 134.058 199.458 134.058 200.019V201.953C134.058 202.4 134.083 202.794 134.133 203.136C134.188 203.478 134.267 203.774 134.372 204.024C134.477 204.271 134.604 204.473 134.755 204.633C134.905 204.792 135.078 204.911 135.274 204.988C135.475 205.061 135.696 205.098 135.938 205.098C136.247 205.098 136.519 205.038 136.751 204.92C136.983 204.801 137.177 204.617 137.332 204.366C137.492 204.111 137.61 203.785 137.688 203.389C137.765 202.988 137.804 202.509 137.804 201.953ZM141.995 204.94H142.125C142.854 204.94 143.446 204.838 143.902 204.633C144.358 204.428 144.709 204.152 144.955 203.806C145.201 203.459 145.37 203.07 145.461 202.637C145.552 202.199 145.597 201.75 145.597 201.29V199.766C145.597 199.314 145.545 198.913 145.44 198.562C145.34 198.212 145.199 197.918 145.016 197.681C144.839 197.444 144.636 197.264 144.408 197.141C144.18 197.018 143.939 196.956 143.683 196.956C143.392 196.956 143.13 197.015 142.897 197.134C142.669 197.248 142.476 197.41 142.316 197.619C142.161 197.829 142.043 198.075 141.961 198.357C141.879 198.64 141.838 198.948 141.838 199.28C141.838 199.576 141.874 199.864 141.947 200.142C142.02 200.42 142.132 200.67 142.282 200.894C142.432 201.117 142.619 201.295 142.843 201.427C143.07 201.554 143.337 201.618 143.642 201.618C143.925 201.618 144.189 201.563 144.435 201.454C144.686 201.34 144.907 201.188 145.098 200.996C145.294 200.8 145.449 200.579 145.563 200.333C145.682 200.087 145.75 199.829 145.768 199.561H146.37C146.37 199.939 146.295 200.312 146.144 200.682C145.999 201.046 145.793 201.379 145.529 201.68C145.265 201.98 144.955 202.222 144.599 202.404C144.244 202.582 143.857 202.671 143.437 202.671C142.945 202.671 142.519 202.575 142.159 202.384C141.799 202.192 141.503 201.937 141.27 201.618C141.042 201.299 140.872 200.944 140.758 200.552C140.648 200.155 140.594 199.754 140.594 199.349C140.594 198.875 140.66 198.43 140.792 198.016C140.924 197.601 141.12 197.236 141.38 196.922C141.639 196.603 141.961 196.354 142.344 196.177C142.731 195.999 143.178 195.91 143.683 195.91C144.253 195.91 144.738 196.024 145.139 196.252C145.541 196.48 145.866 196.785 146.117 197.168C146.372 197.551 146.559 197.981 146.678 198.46C146.796 198.938 146.855 199.431 146.855 199.937V200.395C146.855 200.91 146.821 201.434 146.753 201.967C146.689 202.495 146.564 203.001 146.377 203.484C146.195 203.967 145.928 204.4 145.577 204.783C145.226 205.161 144.768 205.462 144.203 205.686C143.642 205.904 142.95 206.014 142.125 206.014H141.995V204.94ZM154.895 200.23V201.748C154.895 202.564 154.822 203.252 154.676 203.812C154.531 204.373 154.321 204.824 154.048 205.166C153.774 205.508 153.444 205.756 153.056 205.911C152.674 206.062 152.241 206.137 151.757 206.137C151.375 206.137 151.021 206.089 150.698 205.993C150.374 205.897 150.083 205.745 149.823 205.535C149.568 205.321 149.349 205.043 149.167 204.701C148.984 204.359 148.845 203.945 148.75 203.457C148.654 202.969 148.606 202.4 148.606 201.748V200.23C148.606 199.415 148.679 198.731 148.825 198.18C148.975 197.628 149.187 197.186 149.461 196.854C149.734 196.516 150.062 196.275 150.445 196.129C150.832 195.983 151.265 195.91 151.744 195.91C152.131 195.91 152.487 195.958 152.81 196.054C153.138 196.145 153.43 196.293 153.685 196.498C153.94 196.699 154.157 196.967 154.335 197.305C154.517 197.637 154.656 198.045 154.752 198.528C154.847 199.011 154.895 199.579 154.895 200.23ZM153.624 201.953V200.019C153.624 199.572 153.596 199.18 153.542 198.843C153.492 198.501 153.416 198.209 153.316 197.968C153.216 197.726 153.088 197.53 152.933 197.38C152.783 197.229 152.607 197.12 152.407 197.052C152.211 196.979 151.99 196.942 151.744 196.942C151.443 196.942 151.176 196.999 150.944 197.113C150.712 197.223 150.516 197.398 150.356 197.64C150.201 197.881 150.083 198.198 150.001 198.59C149.919 198.982 149.878 199.458 149.878 200.019V201.953C149.878 202.4 149.903 202.794 149.953 203.136C150.007 203.478 150.087 203.774 150.192 204.024C150.297 204.271 150.424 204.473 150.575 204.633C150.725 204.792 150.898 204.911 151.094 204.988C151.295 205.061 151.516 205.098 151.757 205.098C152.067 205.098 152.339 205.038 152.571 204.92C152.803 204.801 152.997 204.617 153.152 204.366C153.312 204.111 153.43 203.785 153.507 203.389C153.585 202.988 153.624 202.509 153.624 201.953ZM162.805 200.23V201.748C162.805 202.564 162.732 203.252 162.586 203.812C162.441 204.373 162.231 204.824 161.958 205.166C161.684 205.508 161.354 205.756 160.966 205.911C160.584 206.062 160.151 206.137 159.667 206.137C159.285 206.137 158.931 206.089 158.608 205.993C158.284 205.897 157.993 205.745 157.733 205.535C157.478 205.321 157.259 205.043 157.077 204.701C156.894 204.359 156.755 203.945 156.66 203.457C156.564 202.969 156.516 202.4 156.516 201.748V200.23C156.516 199.415 156.589 198.731 156.735 198.18C156.885 197.628 157.097 197.186 157.371 196.854C157.644 196.516 157.972 196.275 158.355 196.129C158.742 195.983 159.175 195.91 159.654 195.91C160.041 195.91 160.397 195.958 160.72 196.054C161.048 196.145 161.34 196.293 161.595 196.498C161.85 196.699 162.067 196.967 162.245 197.305C162.427 197.637 162.566 198.045 162.662 198.528C162.757 199.011 162.805 199.579 162.805 200.23ZM161.534 201.953V200.019C161.534 199.572 161.506 199.18 161.452 198.843C161.402 198.501 161.326 198.209 161.226 197.968C161.126 197.726 160.998 197.53 160.843 197.38C160.693 197.229 160.517 197.12 160.317 197.052C160.121 196.979 159.9 196.942 159.654 196.942C159.353 196.942 159.086 196.999 158.854 197.113C158.622 197.223 158.426 197.398 158.266 197.64C158.111 197.881 157.993 198.198 157.911 198.59C157.829 198.982 157.788 199.458 157.788 200.019V201.953C157.788 202.4 157.813 202.794 157.863 203.136C157.917 203.478 157.997 203.774 158.102 204.024C158.207 204.271 158.334 204.473 158.485 204.633C158.635 204.792 158.808 204.911 159.004 204.988C159.205 205.061 159.426 205.098 159.667 205.098C159.977 205.098 160.249 205.038 160.481 204.92C160.713 204.801 160.907 204.617 161.062 204.366C161.222 204.111 161.34 203.785 161.417 203.389C161.495 202.988 161.534 202.509 161.534 201.953ZM170.715 200.23V201.748C170.715 202.564 170.642 203.252 170.496 203.812C170.351 204.373 170.141 204.824 169.868 205.166C169.594 205.508 169.264 205.756 168.876 205.911C168.494 206.062 168.061 206.137 167.577 206.137C167.195 206.137 166.841 206.089 166.518 205.993C166.194 205.897 165.903 205.745 165.643 205.535C165.388 205.321 165.169 205.043 164.987 204.701C164.804 204.359 164.665 203.945 164.57 203.457C164.474 202.969 164.426 202.4 164.426 201.748V200.23C164.426 199.415 164.499 198.731 164.645 198.18C164.795 197.628 165.007 197.186 165.281 196.854C165.554 196.516 165.882 196.275 166.265 196.129C166.652 195.983 167.085 195.91 167.564 195.91C167.951 195.91 168.307 195.958 168.63 196.054C168.958 196.145 169.25 196.293 169.505 196.498C169.76 196.699 169.977 196.967 170.155 197.305C170.337 197.637 170.476 198.045 170.572 198.528C170.667 199.011 170.715 199.579 170.715 200.23ZM169.444 201.953V200.019C169.444 199.572 169.416 199.18 169.362 198.843C169.312 198.501 169.236 198.209 169.136 197.968C169.036 197.726 168.908 197.53 168.753 197.38C168.603 197.229 168.427 197.12 168.227 197.052C168.031 196.979 167.81 196.942 167.564 196.942C167.263 196.942 166.996 196.999 166.764 197.113C166.532 197.223 166.336 197.398 166.176 197.64C166.021 197.881 165.903 198.198 165.821 198.59C165.739 198.982 165.698 199.458 165.698 200.019V201.953C165.698 202.4 165.723 202.794 165.773 203.136C165.827 203.478 165.907 203.774 166.012 204.024C166.117 204.271 166.244 204.473 166.395 204.633C166.545 204.792 166.718 204.911 166.914 204.988C167.115 205.061 167.336 205.098 167.577 205.098C167.887 205.098 168.159 205.038 168.391 204.92C168.623 204.801 168.817 204.617 168.972 204.366C169.132 204.111 169.25 203.785 169.327 203.389C169.405 202.988 169.444 202.509 169.444 201.953ZM178.625 200.23V201.748C178.625 202.564 178.552 203.252 178.406 203.812C178.261 204.373 178.051 204.824 177.778 205.166C177.504 205.508 177.174 205.756 176.786 205.911C176.404 206.062 175.971 206.137 175.487 206.137C175.105 206.137 174.751 206.089 174.428 205.993C174.104 205.897 173.813 205.745 173.553 205.535C173.298 205.321 173.079 205.043 172.897 204.701C172.714 204.359 172.575 203.945 172.48 203.457C172.384 202.969 172.336 202.4 172.336 201.748V200.23C172.336 199.415 172.409 198.731 172.555 198.18C172.705 197.628 172.917 197.186 173.191 196.854C173.464 196.516 173.792 196.275 174.175 196.129C174.562 195.983 174.995 195.91 175.474 195.91C175.861 195.91 176.217 195.958 176.54 196.054C176.868 196.145 177.16 196.293 177.415 196.498C177.67 196.699 177.887 196.967 178.065 197.305C178.247 197.637 178.386 198.045 178.482 198.528C178.577 199.011 178.625 199.579 178.625 200.23ZM177.354 201.953V200.019C177.354 199.572 177.326 199.18 177.272 198.843C177.222 198.501 177.146 198.209 177.046 197.968C176.946 197.726 176.818 197.53 176.663 197.38C176.513 197.229 176.337 197.12 176.137 197.052C175.941 196.979 175.72 196.942 175.474 196.942C175.173 196.942 174.906 196.999 174.674 197.113C174.442 197.223 174.246 197.398 174.086 197.64C173.931 197.881 173.813 198.198 173.731 198.59C173.649 198.982 173.608 199.458 173.608 200.019V201.953C173.608 202.4 173.633 202.794 173.683 203.136C173.737 203.478 173.817 203.774 173.922 204.024C174.027 204.271 174.154 204.473 174.305 204.633C174.455 204.792 174.628 204.911 174.824 204.988C175.025 205.061 175.246 205.098 175.487 205.098C175.797 205.098 176.069 205.038 176.301 204.92C176.533 204.801 176.727 204.617 176.882 204.366C177.042 204.111 177.16 203.785 177.237 203.389C177.315 202.988 177.354 202.509 177.354 201.953ZM186.535 200.23V201.748C186.535 202.564 186.462 203.252 186.316 203.812C186.171 204.373 185.961 204.824 185.688 205.166C185.414 205.508 185.084 205.756 184.696 205.911C184.314 206.062 183.881 206.137 183.397 206.137C183.015 206.137 182.661 206.089 182.338 205.993C182.014 205.897 181.723 205.745 181.463 205.535C181.208 205.321 180.989 205.043 180.807 204.701C180.624 204.359 180.485 203.945 180.39 203.457C180.294 202.969 180.246 202.4 180.246 201.748V200.23C180.246 199.415 180.319 198.731 180.465 198.18C180.615 197.628 180.827 197.186 181.101 196.854C181.374 196.516 181.702 196.275 182.085 196.129C182.472 195.983 182.905 195.91 183.384 195.91C183.771 195.91 184.127 195.958 184.45 196.054C184.778 196.145 185.07 196.293 185.325 196.498C185.58 196.699 185.797 196.967 185.975 197.305C186.157 197.637 186.296 198.045 186.392 198.528C186.487 199.011 186.535 199.579 186.535 200.23ZM185.264 201.953V200.019C185.264 199.572 185.236 199.18 185.182 198.843C185.132 198.501 185.056 198.209 184.956 197.968C184.856 197.726 184.728 197.53 184.573 197.38C184.423 197.229 184.247 197.12 184.047 197.052C183.851 196.979 183.63 196.942 183.384 196.942C183.083 196.942 182.816 196.999 182.584 197.113C182.352 197.223 182.156 197.398 181.996 197.64C181.841 197.881 181.723 198.198 181.641 198.59C181.559 198.982 181.518 199.458 181.518 200.019V201.953C181.518 202.4 181.543 202.794 181.593 203.136C181.647 203.478 181.727 203.774 181.832 204.024C181.937 204.271 182.064 204.473 182.215 204.633C182.365 204.792 182.538 204.911 182.734 204.988C182.935 205.061 183.156 205.098 183.397 205.098C183.707 205.098 183.979 205.038 184.211 204.92C184.443 204.801 184.637 204.617 184.792 204.366C184.952 204.111 185.07 203.785 185.147 203.389C185.225 202.988 185.264 202.509 185.264 201.953ZM194.445 200.23V201.748C194.445 202.564 194.372 203.252 194.226 203.812C194.081 204.373 193.871 204.824 193.598 205.166C193.324 205.508 192.994 205.756 192.606 205.911C192.224 206.062 191.791 206.137 191.307 206.137C190.925 206.137 190.571 206.089 190.248 205.993C189.924 205.897 189.633 205.745 189.373 205.535C189.118 205.321 188.899 205.043 188.717 204.701C188.534 204.359 188.395 203.945 188.3 203.457C188.204 202.969 188.156 202.4 188.156 201.748V200.23C188.156 199.415 188.229 198.731 188.375 198.18C188.525 197.628 188.737 197.186 189.011 196.854C189.284 196.516 189.612 196.275 189.995 196.129C190.382 195.983 190.815 195.91 191.294 195.91C191.681 195.91 192.037 195.958 192.36 196.054C192.688 196.145 192.98 196.293 193.235 196.498C193.49 196.699 193.707 196.967 193.885 197.305C194.067 197.637 194.206 198.045 194.302 198.528C194.397 199.011 194.445 199.579 194.445 200.23ZM193.174 201.953V200.019C193.174 199.572 193.146 199.18 193.092 198.843C193.042 198.501 192.966 198.209 192.866 197.968C192.766 197.726 192.638 197.53 192.483 197.38C192.333 197.229 192.157 197.12 191.957 197.052C191.761 196.979 191.54 196.942 191.294 196.942C190.993 196.942 190.726 196.999 190.494 197.113C190.262 197.223 190.066 197.398 189.906 197.64C189.751 197.881 189.633 198.198 189.551 198.59C189.469 198.982 189.428 199.458 189.428 200.019V201.953C189.428 202.4 189.453 202.794 189.503 203.136C189.557 203.478 189.637 203.774 189.742 204.024C189.847 204.271 189.974 204.473 190.125 204.633C190.275 204.792 190.448 204.911 190.644 204.988C190.845 205.061 191.066 205.098 191.307 205.098C191.617 205.098 191.889 205.038 192.121 204.92C192.353 204.801 192.547 204.617 192.702 204.366C192.862 204.111 192.98 203.785 193.057 203.389C193.135 202.988 193.174 202.509 193.174 201.953ZM202.355 200.23V201.748C202.355 202.564 202.282 203.252 202.136 203.812C201.991 204.373 201.781 204.824 201.508 205.166C201.234 205.508 200.904 205.756 200.516 205.911C200.134 206.062 199.701 206.137 199.217 206.137C198.835 206.137 198.481 206.089 198.158 205.993C197.834 205.897 197.543 205.745 197.283 205.535C197.028 205.321 196.809 205.043 196.627 204.701C196.444 204.359 196.305 203.945 196.21 203.457C196.114 202.969 196.066 202.4 196.066 201.748V200.23C196.066 199.415 196.139 198.731 196.285 198.18C196.435 197.628 196.647 197.186 196.921 196.854C197.194 196.516 197.522 196.275 197.905 196.129C198.292 195.983 198.725 195.91 199.204 195.91C199.591 195.91 199.947 195.958 200.27 196.054C200.598 196.145 200.89 196.293 201.145 196.498C201.4 196.699 201.617 196.967 201.795 197.305C201.977 197.637 202.116 198.045 202.212 198.528C202.307 199.011 202.355 199.579 202.355 200.23ZM201.084 201.953V200.019C201.084 199.572 201.056 199.18 201.002 198.843C200.952 198.501 200.876 198.209 200.776 197.968C200.676 197.726 200.548 197.53 200.393 197.38C200.243 197.229 200.067 197.12 199.867 197.052C199.671 196.979 199.45 196.942 199.204 196.942C198.903 196.942 198.636 196.999 198.404 197.113C198.172 197.223 197.976 197.398 197.816 197.64C197.661 197.881 197.543 198.198 197.461 198.59C197.379 198.982 197.338 199.458 197.338 200.019V201.953C197.338 202.4 197.363 202.794 197.413 203.136C197.467 203.478 197.547 203.774 197.652 204.024C197.757 204.271 197.884 204.473 198.035 204.633C198.185 204.792 198.358 204.911 198.554 204.988C198.755 205.061 198.976 205.098 199.217 205.098C199.527 205.098 199.799 205.038 200.031 204.92C200.263 204.801 200.457 204.617 200.612 204.366C200.772 204.111 200.89 203.785 200.967 203.389C201.045 202.988 201.084 202.509 201.084 201.953ZM210.265 200.23V201.748C210.265 202.564 210.192 203.252 210.046 203.812C209.901 204.373 209.691 204.824 209.418 205.166C209.144 205.508 208.814 205.756 208.426 205.911C208.044 206.062 207.611 206.137 207.128 206.137C206.745 206.137 206.391 206.089 206.068 205.993C205.744 205.897 205.453 205.745 205.193 205.535C204.938 205.321 204.719 205.043 204.537 204.701C204.354 204.359 204.215 203.945 204.12 203.457C204.024 202.969 203.976 202.4 203.976 201.748V200.23C203.976 199.415 204.049 198.731 204.195 198.18C204.345 197.628 204.557 197.186 204.831 196.854C205.104 196.516 205.432 196.275 205.815 196.129C206.202 195.983 206.635 195.91 207.114 195.91C207.501 195.91 207.857 195.958 208.18 196.054C208.508 196.145 208.8 196.293 209.055 196.498C209.31 196.699 209.527 196.967 209.705 197.305C209.887 197.637 210.026 198.045 210.122 198.528C210.217 199.011 210.265 199.579 210.265 200.23ZM208.994 201.953V200.019C208.994 199.572 208.966 199.18 208.912 198.843C208.862 198.501 208.786 198.209 208.686 197.968C208.586 197.726 208.458 197.53 208.303 197.38C208.153 197.229 207.977 197.12 207.777 197.052C207.581 196.979 207.36 196.942 207.114 196.942C206.813 196.942 206.546 196.999 206.314 197.113C206.082 197.223 205.886 197.398 205.726 197.64C205.571 197.881 205.453 198.198 205.371 198.59C205.289 198.982 205.248 199.458 205.248 200.019V201.953C205.248 202.4 205.273 202.794 205.323 203.136C205.378 203.478 205.457 203.774 205.562 204.024C205.667 204.271 205.794 204.473 205.945 204.633C206.095 204.792 206.268 204.911 206.464 204.988C206.665 205.061 206.886 205.098 207.128 205.098C207.437 205.098 207.709 205.038 207.941 204.92C208.173 204.801 208.367 204.617 208.522 204.366C208.682 204.111 208.8 203.785 208.878 203.389C208.955 202.988 208.994 202.509 208.994 201.953ZM218.175 200.23V201.748C218.175 202.564 218.102 203.252 217.956 203.812C217.811 204.373 217.601 204.824 217.328 205.166C217.054 205.508 216.724 205.756 216.336 205.911C215.954 206.062 215.521 206.137 215.037 206.137C214.655 206.137 214.301 206.089 213.978 205.993C213.654 205.897 213.363 205.745 213.103 205.535C212.848 205.321 212.629 205.043 212.447 204.701C212.264 204.359 212.125 203.945 212.03 203.457C211.934 202.969 211.886 202.4 211.886 201.748V200.23C211.886 199.415 211.959 198.731 212.105 198.18C212.255 197.628 212.467 197.186 212.741 196.854C213.014 196.516 213.342 196.275 213.725 196.129C214.112 195.983 214.545 195.91 215.024 195.91C215.411 195.91 215.767 195.958 216.09 196.054C216.418 196.145 216.71 196.293 216.965 196.498C217.22 196.699 217.437 196.967 217.615 197.305C217.797 197.637 217.936 198.045 218.032 198.528C218.127 199.011 218.175 199.579 218.175 200.23ZM216.904 201.953V200.019C216.904 199.572 216.876 199.18 216.822 198.843C216.772 198.501 216.696 198.209 216.596 197.968C216.496 197.726 216.368 197.53 216.213 197.38C216.063 197.229 215.887 197.12 215.687 197.052C215.491 196.979 215.27 196.942 215.024 196.942C214.723 196.942 214.456 196.999 214.224 197.113C213.992 197.223 213.796 197.398 213.636 197.64C213.481 197.881 213.363 198.198 213.281 198.59C213.199 198.982 213.158 199.458 213.158 200.019V201.953C213.158 202.4 213.183 202.794 213.233 203.136C213.287 203.478 213.367 203.774 213.472 204.024C213.577 204.271 213.704 204.473 213.855 204.633C214.005 204.792 214.178 204.911 214.374 204.988C214.575 205.061 214.796 205.098 215.037 205.098C215.347 205.098 215.619 205.038 215.851 204.92C216.083 204.801 216.277 204.617 216.432 204.366C216.592 204.111 216.71 203.785 216.787 203.389C216.865 202.988 216.904 202.509 216.904 201.953Z" fill="white"/>
<rect x="40.5" y="176.5" width="68" height="49" rx="24.5" fill="#4A4D5A" stroke="#6F7387"/>
<path d="M64.3555 200.661V201.851H57.5332V200.661H64.3555ZM61.5801 197.756V205.002H60.3154V197.756H61.5801ZM72.0809 203.307C72.0809 203.913 71.9396 204.428 71.6571 204.852C71.3791 205.271 71.0008 205.59 70.5223 205.809C70.0483 206.027 69.5129 206.137 68.9159 206.137C68.3189 206.137 67.7811 206.027 67.3026 205.809C66.8241 205.59 66.4458 205.271 66.1678 204.852C65.8898 204.428 65.7508 203.913 65.7508 203.307C65.7508 202.91 65.826 202.548 65.9764 202.22C66.1314 201.887 66.3478 201.598 66.6258 201.352C66.9084 201.105 67.2411 200.916 67.6239 200.784C68.0112 200.647 68.4373 200.579 68.9022 200.579C69.5129 200.579 70.0575 200.698 70.536 200.935C71.0145 201.167 71.3905 201.488 71.6639 201.898C71.9419 202.309 72.0809 202.778 72.0809 203.307ZM70.8094 203.279C70.8094 202.91 70.7297 202.584 70.5702 202.302C70.4107 202.015 70.1873 201.791 69.9002 201.632C69.6131 201.472 69.2804 201.393 68.9022 201.393C68.5148 201.393 68.1799 201.472 67.8973 201.632C67.6193 201.791 67.4028 202.015 67.2479 202.302C67.0929 202.584 67.0155 202.91 67.0155 203.279C67.0155 203.662 67.0907 203.99 67.2411 204.264C67.396 204.533 67.6148 204.74 67.8973 204.886C68.1844 205.027 68.5239 205.098 68.9159 205.098C69.3078 205.098 69.645 205.027 69.9276 204.886C70.2101 204.74 70.4266 204.533 70.577 204.264C70.7319 203.99 70.8094 203.662 70.8094 203.279ZM71.8485 198.638C71.8485 199.121 71.7209 199.556 71.4657 199.943C71.2105 200.331 70.8618 200.636 70.4198 200.859C69.9777 201.083 69.4764 201.194 68.9159 201.194C68.3462 201.194 67.8381 201.083 67.3914 200.859C66.9494 200.636 66.603 200.331 66.3524 199.943C66.1017 199.556 65.9764 199.121 65.9764 198.638C65.9764 198.059 66.1017 197.567 66.3524 197.161C66.6076 196.756 66.9562 196.446 67.3983 196.231C67.8403 196.017 68.3439 195.91 68.909 195.91C69.4787 195.91 69.9845 196.017 70.4266 196.231C70.8687 196.446 71.215 196.756 71.4657 197.161C71.7209 197.567 71.8485 198.059 71.8485 198.638ZM70.5838 198.658C70.5838 198.326 70.5132 198.032 70.3719 197.776C70.2306 197.521 70.0347 197.321 69.784 197.175C69.5334 197.024 69.2417 196.949 68.909 196.949C68.5763 196.949 68.2847 197.02 68.034 197.161C67.7879 197.298 67.5942 197.494 67.453 197.749C67.3162 198.004 67.2479 198.307 67.2479 198.658C67.2479 199 67.3162 199.299 67.453 199.554C67.5942 199.809 67.7902 200.007 68.0409 200.148C68.2915 200.29 68.5832 200.36 68.9159 200.36C69.2485 200.36 69.5379 200.29 69.784 200.148C70.0347 200.007 70.2306 199.809 70.3719 199.554C70.5132 199.299 70.5838 199 70.5838 198.658ZM79.9909 203.307C79.9909 203.913 79.8496 204.428 79.5671 204.852C79.2891 205.271 78.9108 205.59 78.4323 205.809C77.9583 206.027 77.4229 206.137 76.8259 206.137C76.2289 206.137 75.6911 206.027 75.2126 205.809C74.7341 205.59 74.3558 205.271 74.0778 204.852C73.7998 204.428 73.6608 203.913 73.6608 203.307C73.6608 202.91 73.736 202.548 73.8864 202.22C74.0414 201.887 74.2578 201.598 74.5358 201.352C74.8184 201.105 75.1511 200.916 75.5339 200.784C75.9212 200.647 76.3473 200.579 76.8122 200.579C77.4229 200.579 77.9675 200.698 78.446 200.935C78.9245 201.167 79.3005 201.488 79.5739 201.898C79.8519 202.309 79.9909 202.778 79.9909 203.307ZM78.7194 203.279C78.7194 202.91 78.6397 202.584 78.4802 202.302C78.3207 202.015 78.0973 201.791 77.8102 201.632C77.5231 201.472 77.1904 201.393 76.8122 201.393C76.4248 201.393 76.0899 201.472 75.8073 201.632C75.5293 201.791 75.3128 202.015 75.1579 202.302C75.0029 202.584 74.9255 202.91 74.9255 203.279C74.9255 203.662 75.0007 203.99 75.1511 204.264C75.306 204.533 75.5248 204.74 75.8073 204.886C76.0944 205.027 76.4339 205.098 76.8259 205.098C77.2178 205.098 77.555 205.027 77.8376 204.886C78.1201 204.74 78.3366 204.533 78.487 204.264C78.6419 203.99 78.7194 203.662 78.7194 203.279ZM79.7585 198.638C79.7585 199.121 79.6309 199.556 79.3757 199.943C79.1205 200.331 78.7718 200.636 78.3298 200.859C77.8877 201.083 77.3864 201.194 76.8259 201.194C76.2562 201.194 75.7481 201.083 75.3014 200.859C74.8594 200.636 74.513 200.331 74.2624 199.943C74.0117 199.556 73.8864 199.121 73.8864 198.638C73.8864 198.059 74.0117 197.567 74.2624 197.161C74.5176 196.756 74.8662 196.446 75.3083 196.231C75.7503 196.017 76.2539 195.91 76.819 195.91C77.3887 195.91 77.8945 196.017 78.3366 196.231C78.7787 196.446 79.125 196.756 79.3757 197.161C79.6309 197.567 79.7585 198.059 79.7585 198.638ZM78.4938 198.658C78.4938 198.326 78.4232 198.032 78.2819 197.776C78.1406 197.521 77.9447 197.321 77.694 197.175C77.4434 197.024 77.1517 196.949 76.819 196.949C76.4863 196.949 76.1947 197.02 75.944 197.161C75.6979 197.298 75.5042 197.494 75.363 197.749C75.2262 198.004 75.1579 198.307 75.1579 198.658C75.1579 199 75.2262 199.299 75.363 199.554C75.5042 199.809 75.7002 200.007 75.9509 200.148C76.2015 200.29 76.4932 200.36 76.8259 200.36C77.1585 200.36 77.4479 200.29 77.694 200.148C77.9447 200.007 78.1406 199.809 78.2819 199.554C78.4232 199.299 78.4938 199 78.4938 198.658ZM86.479 196.033H86.5884V197.106H86.479C85.8091 197.106 85.2486 197.216 84.7974 197.435C84.3462 197.649 83.9885 197.938 83.7241 198.303C83.4598 198.663 83.2684 199.068 83.1499 199.52C83.036 199.971 82.979 200.429 82.979 200.894V202.356C82.979 202.799 83.0314 203.19 83.1362 203.532C83.2411 203.869 83.3846 204.154 83.5669 204.387C83.7492 204.619 83.9543 204.795 84.1821 204.913C84.4146 205.032 84.6561 205.091 84.9068 205.091C85.1984 205.091 85.4582 205.036 85.6861 204.927C85.9139 204.813 86.1053 204.656 86.2603 204.455C86.4198 204.25 86.5405 204.008 86.6226 203.73C86.7046 203.452 86.7456 203.147 86.7456 202.814C86.7456 202.518 86.7092 202.233 86.6362 201.96C86.5633 201.682 86.4517 201.436 86.3013 201.222C86.1509 201.003 85.9618 200.832 85.7339 200.709C85.5106 200.581 85.244 200.518 84.9341 200.518C84.5832 200.518 84.2551 200.604 83.9497 200.777C83.6489 200.946 83.4006 201.169 83.2046 201.447C83.0132 201.721 82.9038 202.019 82.8765 202.343L82.2066 202.336C82.2704 201.826 82.3889 201.39 82.562 201.03C82.7398 200.666 82.9585 200.369 83.2183 200.142C83.4826 199.909 83.7765 199.741 84.1001 199.636C84.4282 199.526 84.7746 199.472 85.1392 199.472C85.6359 199.472 86.0643 199.565 86.4243 199.752C86.7844 199.939 87.0806 200.189 87.313 200.504C87.5454 200.814 87.7163 201.165 87.8257 201.557C87.9396 201.944 87.9966 202.343 87.9966 202.753C87.9966 203.222 87.9305 203.662 87.7984 204.072C87.6662 204.482 87.468 204.842 87.2036 205.152C86.9439 205.462 86.6226 205.704 86.2398 205.877C85.857 206.05 85.4126 206.137 84.9068 206.137C84.369 206.137 83.8996 206.027 83.4986 205.809C83.0975 205.585 82.7648 205.289 82.5005 204.92C82.2362 204.551 82.0379 204.141 81.9058 203.689C81.7736 203.238 81.7075 202.78 81.7075 202.315V201.721C81.7075 201.019 81.7782 200.331 81.9195 199.656C82.0607 198.982 82.3045 198.371 82.6509 197.824C83.0018 197.277 83.4872 196.842 84.107 196.519C84.7267 196.195 85.5174 196.033 86.479 196.033Z" fill="white"/>
</g>
<defs>
<clipPath id="clip0_40_8597">
<rect width="375" height="812" fill="white"/>
</clipPath>
<clipPath id="clip1_40_8597">
<rect width="375" height="44" fill="white"/>
</clipPath>
<clipPath id="clip2_40_8597">
<rect x="40" y="256" width="295" height="50" rx="25" fill="white"/>
</clipPath>
</defs>
</svg>
