<svg width="375" height="812" viewBox="0 0 375 812" fill="none" xmlns="http://www.w3.org/2000/svg">
<g clip-path="url(#clip0_40_8589)">
<rect width="375" height="812" fill="#383A44"/>
<g clip-path="url(#clip1_40_8589)">
<path d="M78 -2H297C294.894 -1.39731 293.418 0.495246 293.345 2.68446L293.317 3.5618C293.317 17.0587 282.375 28 268.878 28H106.122C92.6249 28 81.6835 17.0587 81.6835 3.5618L81.6545 2.68447C81.5823 0.49525 80.1059 -1.39731 78 -2Z" fill="black"/>
<path opacity="0.35" d="M336.5 20.0006C336.5 18.804 337.47 17.834 338.667 17.834H355.333C356.53 17.834 357.5 18.804 357.5 20.0007V26.0007C357.5 27.1973 356.53 28.1673 355.333 28.1673H338.667C337.47 28.1673 336.5 27.1973 336.5 26.0007V20.0006Z" stroke="white"/>
<path opacity="0.4" d="M359 21.001V25.001C359.805 24.6622 360.328 23.8741 360.328 23.001C360.328 22.1278 359.805 21.3398 359 21.001Z" fill="white"/>
<path d="M338 20.6673C338 19.9309 338.597 19.334 339.333 19.334H354.667C355.403 19.334 356 19.9309 356 20.6673V25.334C356 26.0704 355.403 26.6673 354.667 26.6673H339.333C338.597 26.6673 338 26.0704 338 25.334V20.6673Z" fill="white"/>
<path fill-rule="evenodd" clip-rule="evenodd" d="M323.33 19.6084C325.546 19.6085 327.678 20.4599 329.283 21.9867C329.404 22.1046 329.598 22.1031 329.717 21.9834L330.873 20.8167C330.933 20.756 330.967 20.6737 330.966 20.5882C330.966 20.5026 330.931 20.4207 330.87 20.3607C326.655 16.3212 320.005 16.3212 315.79 20.3607C315.729 20.4207 315.694 20.5025 315.694 20.5881C315.693 20.6737 315.727 20.7559 315.787 20.8167L316.943 21.9834C317.062 22.1033 317.256 22.1048 317.377 21.9867C318.983 20.4598 321.114 19.6084 323.33 19.6084ZM323.33 23.404C324.548 23.404 325.722 23.8565 326.624 24.6737C326.747 24.7897 326.939 24.7872 327.058 24.668L328.212 23.5014C328.273 23.4402 328.307 23.3572 328.306 23.2709C328.305 23.1846 328.27 23.1023 328.208 23.0424C325.46 20.486 321.204 20.486 318.455 23.0424C318.393 23.1023 318.358 23.1847 318.357 23.271C318.356 23.3573 318.39 23.4403 318.451 23.5014L319.605 24.668C319.724 24.7872 319.917 24.7897 320.039 24.6737C320.941 23.857 322.114 23.4046 323.33 23.404ZM325.643 25.9579C325.645 26.0444 325.611 26.1278 325.549 26.1884L323.552 28.204C323.494 28.2633 323.414 28.2966 323.33 28.2966C323.247 28.2966 323.167 28.2633 323.109 28.204L321.111 26.1884C321.049 26.1277 321.015 26.0443 321.017 25.9578C321.019 25.8713 321.057 25.7894 321.121 25.7314C322.396 24.6525 324.265 24.6525 325.54 25.7314C325.604 25.7894 325.642 25.8714 325.643 25.9579Z" fill="white"/>
<path fill-rule="evenodd" clip-rule="evenodd" d="M309.667 17.667H308.667C308.114 17.667 307.667 18.1147 307.667 18.667V27.3337C307.667 27.8859 308.114 28.3337 308.667 28.3337H309.667C310.219 28.3337 310.667 27.8859 310.667 27.3337V18.667C310.667 18.1147 310.219 17.667 309.667 17.667ZM304 20.0003H305C305.552 20.0003 306 20.448 306 21.0003V27.3337C306 27.8859 305.552 28.3337 305 28.3337H304C303.448 28.3337 303 27.8859 303 27.3337V21.0003C303 20.448 303.448 20.0003 304 20.0003ZM300.333 22.3337H299.333C298.781 22.3337 298.333 22.7814 298.333 23.3337V27.3337C298.333 27.8859 298.781 28.3337 299.333 28.3337H300.333C300.886 28.3337 301.333 27.8859 301.333 27.3337V23.3337C301.333 22.7814 300.886 22.3337 300.333 22.3337ZM295.667 24.3337H294.667C294.114 24.3337 293.667 24.7814 293.667 25.3337V27.3337C293.667 27.8859 294.114 28.3337 294.667 28.3337H295.667C296.219 28.3337 296.667 27.8859 296.667 27.3337V25.3337C296.667 24.7814 296.219 24.3337 295.667 24.3337Z" fill="white"/>
<path d="M37.3208 28.2568C40.0088 28.2568 41.6055 26.1548 41.6055 22.5952C41.6055 21.2549 41.3491 20.127 40.8584 19.2554C40.1479 17.9004 38.9248 17.168 37.3794 17.168C35.0796 17.168 33.4536 18.7134 33.4536 20.8813C33.4536 22.9175 34.9185 24.397 36.9326 24.397C38.1704 24.397 39.1738 23.8184 39.6719 22.8149H39.6938C39.6938 22.8149 39.7231 22.8149 39.7305 22.8149C39.7451 22.8149 39.7964 22.8149 39.7964 22.8149C39.7964 25.2319 38.8809 26.6748 37.3354 26.6748C36.4272 26.6748 35.7241 26.1768 35.4824 25.3784H33.6001C33.915 27.1143 35.3872 28.2568 37.3208 28.2568ZM37.3867 22.8955C36.1709 22.8955 35.3066 22.0312 35.3066 20.8228C35.3066 19.6436 36.2148 18.7427 37.394 18.7427C38.5732 18.7427 39.4814 19.6582 39.4814 20.8521C39.4814 22.0312 38.5952 22.8955 37.3867 22.8955Z" fill="white"/>
<path d="M44.6966 28.1543C45.3924 28.1543 45.8685 27.6562 45.8685 26.9971C45.8685 26.3306 45.3924 25.8398 44.6966 25.8398C44.0081 25.8398 43.5247 26.3306 43.5247 26.9971C43.5247 27.6562 44.0081 28.1543 44.6966 28.1543ZM44.6966 22.6611C45.3924 22.6611 45.8685 22.1704 45.8685 21.5112C45.8685 20.8447 45.3924 20.354 44.6966 20.354C44.0081 20.354 43.5247 20.8447 43.5247 21.5112C43.5247 22.1704 44.0081 22.6611 44.6966 22.6611Z" fill="white"/>
<path d="M52.7242 28.0005H54.5333V26.0303H55.9615V24.4336H54.5333V17.4316H51.8673C49.9996 20.2441 48.5128 22.5952 47.5606 24.3457V26.0303H52.7242V28.0005ZM49.3111 24.3677C50.5416 22.1997 51.6402 20.4639 52.651 18.9697H52.7535V24.4775H49.3111V24.3677Z" fill="white"/>
<path d="M59.9901 28.0005H61.8798V17.4316H59.9975L57.2362 19.3652V21.1816L59.8656 19.3359H59.9901V28.0005Z" fill="white"/>
</g>
<rect x="121" y="799" width="134" height="5" rx="2.5" fill="white"/>
<path d="M89.976 131.824V134.344H98.432V131.824H89.976ZM90.06 124.096V126.644H98.348V124.096H90.06ZM89.976 135.632V138.18H98.432V135.632H89.976ZM88.632 127.876V130.536H99.356V127.876H88.632ZM91.432 139.524V142.184H95.604V145.376H91.432V148.036H98.46V139.524H91.432ZM89.92 139.524V149.156H92.748V139.524H89.92ZM100.028 124.74V127.148H114.308V124.74H100.028ZM100.728 128.156V130.424H113.86V128.156H100.728ZM99.356 131.516V133.924H114.84V131.516H99.356ZM105.46 123.228V133.56H108.652V123.228H105.46ZM101.26 134.988V149.492H104.368V137.368H112.012V134.988H101.26ZM110.164 134.988V146.356C110.164 146.664 110.08 146.776 109.716 146.776C109.352 146.776 108.176 146.804 107.14 146.748C107.504 147.476 107.924 148.624 108.008 149.436C109.828 149.436 111.144 149.408 112.096 148.988C113.02 148.54 113.3 147.812 113.3 146.384V134.988H110.164ZM102.632 138.628V140.812H111.788V138.628H102.632ZM102.632 142.128V144.312H111.788V142.128H102.632ZM131.864 130.144V132.804H139.592V130.144H131.864ZM130.436 138.152V140.336H134.356V138.152H130.436ZM130.436 141.82V144.172H134.356V141.82H130.436ZM136.54 135.072V145.152H138.836V135.072H136.54ZM135.756 126.308C137.212 128.716 139.844 131.572 142.336 133.14C142.784 132.216 143.456 131.012 144.072 130.228C141.44 128.912 138.836 126.084 137.128 123.256H134.188C132.956 125.804 130.352 128.968 127.636 130.592C128.168 131.32 128.868 132.496 129.204 133.336C131.92 131.6 134.412 128.688 135.756 126.308ZM128.952 134.344V149.408H131.22V136.724H134.216V134.344H128.952ZM133.236 134.344V146.944C133.236 147.14 133.18 147.224 133.012 147.224C132.872 147.224 132.48 147.224 132.06 147.224C132.34 147.84 132.592 148.876 132.648 149.52C133.572 149.52 134.244 149.492 134.832 149.072C135.392 148.652 135.532 148.008 135.532 147V134.344H133.236ZM140.124 133.896V146.636C140.124 146.916 140.012 147 139.704 147.028C139.396 147.056 138.388 147.056 137.38 147.028C137.716 147.728 138.052 148.764 138.136 149.464C139.788 149.464 140.936 149.436 141.748 149.044C142.532 148.624 142.756 147.924 142.756 146.692V133.896H140.124ZM117.528 125.86V128.772H128.476V125.86H117.528ZM117.192 142.156V145.096H128.392V142.156H117.192ZM121.364 123.2V131.46H124.304V123.2H121.364ZM121.84 131.488V139.272H121.392V149.492H124.304V139.272H123.856V131.488H121.84ZM120.132 136.5H125.536V138.152H120.132V136.5ZM120.132 132.664H125.536V134.288H120.132V132.664ZM117.836 130.312V140.476H127.916V130.312H117.836ZM151.352 124.796V128.212H159.276V124.796H151.352ZM157.624 124.796C157.624 130.508 158.856 143.024 169.524 149.436C170.112 148.596 171.456 147.112 172.24 146.496C161.852 140.42 161.096 130.116 161.096 124.796H157.624ZM156.42 130.928C154.908 138.348 151.548 143.78 145.696 146.748C146.564 147.364 148.132 148.764 148.748 149.492C154.6 145.964 158.324 139.944 160.284 131.628L156.42 130.928ZM179.38 140.112V142.1H195.284V140.112H179.38ZM179.408 136.612V138.852H193.884V143.332H179.408V145.6H197.216V136.612H179.408ZM185.596 137.844V145.684C185.596 148.624 186.66 149.436 190.524 149.436C191.364 149.436 195.536 149.436 196.432 149.436C199.484 149.436 200.436 148.54 200.828 145.124C199.96 144.956 198.7 144.536 198 144.06C197.832 146.44 197.552 146.888 196.152 146.888C195.144 146.888 191.616 146.888 190.832 146.888C189.124 146.888 188.816 146.72 188.816 145.684V137.844H185.596ZM177.728 136.612V146.832H180.948V136.612H177.728ZM177.056 124.236V126.7H197.832V124.236H177.056ZM179.212 130.928V132.748H184.756V130.928H179.212ZM178.68 133.728V135.548H184.756V133.728H178.68ZM190.104 133.728V135.548H196.236V133.728H190.104ZM190.104 130.928V132.748H195.592V130.928H190.104ZM185.764 125.216V135.856H189.04V125.216H185.764ZM175.152 127.736V133.476H178.12V129.976H196.768V133.476H199.876V127.736H175.152ZM215.276 138.208V149.548H218.44V141.232H224.824V149.408H228.184V138.208H215.276ZM226.224 123.508C223.256 124.46 218.496 125.188 214.24 125.552C214.632 126.308 215.08 127.568 215.192 128.38C219.616 128.072 224.768 127.428 228.576 126.308L226.224 123.508ZM219.84 126.14V139.72H223.284V126.14H219.84ZM213.792 131.348V134.512H229.332V131.348H213.792ZM217.404 145.152V148.176H226.42V145.152H217.404ZM204.244 132.02V134.54H212.7V132.02H204.244ZM204.412 124.096V126.644H212.7V124.096H204.412ZM204.244 135.94V138.46H212.7V135.94H204.244ZM202.872 127.988V130.62H213.596V127.988H202.872ZM205.896 139.888V142.548H209.956V145.768H205.896V148.4H212.84V139.888H205.896ZM204.16 139.888V149.52H206.988V139.888H204.16ZM235.604 126.84H238.208V129.836H235.604V126.84ZM232.664 124.152V132.552H241.316V124.152H232.664ZM231.46 133.84V136.724H242.296V133.84H231.46ZM233.812 135.212C233.42 137.452 232.804 140.28 232.244 142.156L235.24 142.66C235.744 140.7 236.388 137.676 236.864 135.212H233.812ZM234.68 138.432L234.036 141.204H239.384V138.432H234.68ZM238.18 138.432V138.88C237.928 143.92 237.62 145.936 237.116 146.44C236.864 146.692 236.584 146.748 236.164 146.748C235.66 146.748 234.568 146.748 233.392 146.636C233.924 147.42 234.26 148.652 234.316 149.52C235.604 149.548 236.836 149.548 237.564 149.464C238.432 149.352 239.048 149.128 239.636 148.456C240.42 147.56 240.784 145.18 241.148 139.636C241.176 139.216 241.204 138.432 241.204 138.432H238.18ZM249.716 124.74V127.4H256.828V124.74H249.716ZM244.284 128.632V131.264H255.904V128.632H244.284ZM248.204 123.228V129.836H251.424V123.228H248.204ZM242.912 128.632V135.912C242.912 139.496 242.688 144.368 240.336 147.812C241.036 148.12 242.324 149.072 242.856 149.604C245.46 145.88 245.908 140 245.908 135.912V128.632H242.912ZM246.132 133.168L246.412 135.408L254.056 134.68L253.776 132.496L246.132 133.168ZM248.4 131.04V135.324C248.4 137.676 248.988 138.376 251.62 138.376C252.152 138.376 253.804 138.376 254.336 138.376C256.184 138.376 256.912 137.76 257.192 135.604C256.436 135.436 255.316 135.072 254.728 134.68C254.644 135.856 254.532 136.052 254 136.052C253.636 136.052 252.376 136.052 252.096 136.052C251.424 136.052 251.34 135.996 251.34 135.324V131.04H248.4ZM255.036 128.632V129.024C254.924 130.592 254.672 132.608 254.476 133.868L256.996 134.456C257.332 133.056 257.752 130.872 258.032 128.968L255.932 128.52L255.456 128.632H255.036ZM247.112 139.3C246.972 143.052 246.58 145.656 243.78 147.252C244.452 147.784 245.292 148.932 245.656 149.688C249.1 147.588 249.744 144.06 249.912 139.3H247.112ZM251.284 139.3V145.908C251.284 147.532 251.396 148.008 251.9 148.512C252.348 148.988 253.076 149.156 253.804 149.156C254.196 149.156 254.924 149.156 255.372 149.156C255.932 149.156 256.548 149.016 256.912 148.792C257.388 148.456 257.696 148.092 257.892 147.476C258.06 146.916 258.228 145.572 258.256 144.228C257.5 143.976 256.464 143.416 255.932 142.94C255.932 144.088 255.904 145.096 255.848 145.516C255.792 145.768 255.708 145.964 255.596 146.048C255.512 146.132 255.316 146.188 255.176 146.188C255.008 146.188 254.756 146.188 254.644 146.188C254.476 146.188 254.308 146.132 254.224 146.02C254.168 145.964 254.14 145.768 254.14 145.628V139.3H251.284ZM260.272 124.264V127.316H270.912V124.264H260.272ZM263.52 133.196V136.08H267.188V143.22H263.52V146.104H270.1V133.196H263.52ZM263.296 125.86C262.736 130.956 261.7 135.856 259.544 138.936C260.132 139.692 261.056 141.372 261.336 142.156C264.136 138.348 265.62 132.412 266.432 126.336L263.296 125.86ZM262.092 133.196V148.316H264.976V133.196H262.092ZM273.404 128.66V131.264H284.604V128.66H273.404ZM273.404 132.888V135.52H284.604V132.888H273.404ZM271.808 137.228V140.112H283.904V137.228H271.808ZM277.604 125.804V138.376H280.6V125.804H277.604ZM274.188 142.072C274.468 143.724 274.608 145.852 274.552 147.252L276.848 146.888C276.876 145.488 276.68 143.416 276.344 141.764L274.188 142.072ZM277.1 141.904C277.576 143.276 278.024 145.04 278.136 146.188L280.292 145.572C280.124 144.424 279.648 142.688 279.144 141.372L277.1 141.904ZM279.9 141.372C280.516 142.408 281.132 143.78 281.384 144.676L283.176 143.92C282.896 143.052 282.252 141.708 281.552 140.728L279.9 141.372ZM271.416 140.896C271.192 143.192 270.66 145.544 269.568 147L271.892 148.26C273.152 146.636 273.628 144.004 273.88 141.512L271.416 140.896ZM271.808 124.236V138.768H274.86V127.12H285.416V124.236H271.808ZM282.924 137.228V137.732C282.728 143.696 282.448 145.908 282 146.468C281.748 146.72 281.524 146.804 281.132 146.804C280.684 146.804 279.788 146.776 278.78 146.692C279.256 147.476 279.564 148.68 279.62 149.548C280.852 149.604 282 149.576 282.672 149.492C283.484 149.38 284.072 149.128 284.632 148.428C285.36 147.532 285.668 144.928 285.92 138.432C285.948 138.04 285.976 137.228 285.976 137.228H282.924Z" fill="white"/>
<g clip-path="url(#clip2_40_8589)">
<rect x="40" y="256" width="295" height="50" rx="25" fill="#FF4E84"/>
<path d="M154.236 272.56L154.236 274.544L155.436 274.544L155.436 272.56L154.236 272.56ZM148.028 273.856L148.028 276.688L149.148 276.688L149.148 274.896L160.524 274.896L160.524 276.688L161.676 276.688L161.676 273.856L148.028 273.856ZM149.772 276.192L149.772 277.168L159.932 277.168L159.932 276.192L149.772 276.192ZM154.3 275.104C154.028 277.552 153.116 278.608 149.116 279.12C149.308 279.344 149.564 279.776 149.66 280.032C154.012 279.376 155.1 278.032 155.452 275.104L154.3 275.104ZM153.868 278.112C155.772 278.624 158.188 279.52 159.42 280.208L160.028 279.344C158.748 278.656 156.316 277.808 154.46 277.36L153.868 278.112ZM147.772 280.032L147.772 281.104L161.948 281.104L161.948 280.032L147.772 280.032ZM158.444 280.72L158.444 285.904C158.444 286.128 158.364 286.176 158.108 286.208C157.852 286.208 156.972 286.208 155.98 286.176C156.14 286.512 156.316 286.96 156.364 287.28C157.628 287.28 158.46 287.28 158.956 287.104C159.484 286.928 159.628 286.608 159.628 285.936L159.628 280.72L158.444 280.72ZM149.868 282.096L149.868 286.448L150.988 286.448L150.988 282.096L149.868 282.096ZM150.412 282.096L150.412 283.04L155.02 283.04L155.02 284.688L150.412 284.688L150.412 285.632L156.156 285.632L156.156 282.096L150.412 282.096ZM168.268 278.912L168.268 280.016L178.364 280.016L178.364 278.912L168.268 278.912ZM168.78 275.616L168.78 276.688L177.884 276.688L177.884 275.616L168.78 275.616ZM172.556 276.112L172.556 278.496C172.556 280.144 172.268 282.496 168.38 284.064C168.652 284.272 169.02 284.688 169.18 284.944C173.212 283.136 173.756 280.512 173.756 278.512L173.756 276.112L172.556 276.112ZM174.092 279.616L173.052 279.84C173.756 282.448 175.212 284.176 177.628 285.024C177.788 284.704 178.124 284.24 178.396 284C176.108 283.344 174.7 281.856 174.092 279.616ZM167.356 278.88L163.948 278.88L163.948 280L166.188 280L166.188 284.544L167.356 284.544L167.356 278.88ZM167.356 284.016L166.268 284.016C165.452 284.704 164.508 285.408 163.74 285.92L164.38 287.152C165.244 286.448 166.06 285.76 166.828 285.072C167.852 286.336 169.292 286.896 171.372 286.976C173.148 287.04 176.46 287.008 178.22 286.944C178.268 286.576 178.476 286 178.604 285.712C176.716 285.84 173.116 285.888 171.372 285.824C169.532 285.744 168.108 285.2 167.356 284.016ZM164.124 273.68C165.164 274.384 166.364 275.472 166.876 276.24L167.82 275.456C167.276 274.672 166.06 273.632 165.004 272.96L164.124 273.68ZM175.788 272.56C175.452 273.376 174.796 274.528 174.3 275.248L175.276 275.616C175.804 274.944 176.46 273.888 177.004 272.976L175.788 272.56ZM169.404 273.04C170.028 273.84 170.62 274.944 170.828 275.664L171.916 275.184C171.692 274.448 171.068 273.392 170.428 272.624L169.404 273.04ZM189.42 273.68C189.148 275.872 188.492 278.208 185.884 279.408C186.14 279.6 186.476 280 186.604 280.256C189.404 278.864 190.188 276.272 190.524 273.68L189.42 273.68ZM186.476 275.968C188.14 276.528 190.14 277.584 191.212 278.368L191.788 277.424C190.732 276.688 188.732 275.696 187.068 275.136L186.476 275.968ZM193.196 273.248L193.196 273.456C193.068 277.072 192.908 278.352 192.62 278.688C192.508 278.816 192.364 278.864 192.108 278.848C191.852 278.848 191.18 278.848 190.444 278.784C190.62 279.072 190.732 279.536 190.748 279.872C191.5 279.904 192.252 279.92 192.636 279.888C193.068 279.84 193.34 279.728 193.596 279.424C193.996 278.96 194.156 277.536 194.316 273.76C194.332 273.6 194.332 273.248 194.332 273.248L193.196 273.248ZM188.284 281.776L188.284 285.648C188.284 286.832 188.556 287.168 189.772 287.168C190.028 287.168 191.292 287.168 191.548 287.168C192.556 287.168 192.86 286.672 192.988 284.72C192.668 284.624 192.188 284.464 191.964 284.272C191.916 285.872 191.852 286.096 191.42 286.096C191.164 286.096 190.124 286.096 189.916 286.096C189.468 286.096 189.404 286.032 189.404 285.632L189.404 281.776L188.284 281.776ZM186.764 282.32C186.604 283.648 186.252 285.056 185.484 285.84L186.38 286.432C187.228 285.536 187.564 283.984 187.74 282.56L186.764 282.32ZM188.556 280.304C189.596 280.912 190.812 281.84 191.388 282.512L192.14 281.696C191.548 281.024 190.316 280.16 189.26 279.6L188.556 280.304ZM192.284 282.432C193.116 283.6 193.82 285.216 194.028 286.304L195.1 285.856C194.86 284.768 194.14 283.2 193.276 282.032L192.284 282.432ZM186.62 273.248L186.62 274.288L193.692 274.288L193.692 273.248L186.62 273.248ZM180.828 277.408L180.828 278.368L185.372 278.368L185.372 277.408L180.828 277.408ZM180.892 273.136L180.892 274.096L185.308 274.096L185.308 273.136L180.892 273.136ZM180.828 279.552L180.828 280.512L185.372 280.512L185.372 279.552L180.828 279.552ZM180.108 275.232L180.108 276.224L185.82 276.224L185.82 275.232L180.108 275.232ZM181.356 281.712L181.356 282.704L184.332 282.704L184.332 285.376L181.356 285.376L181.356 286.384L185.372 286.384L185.372 281.712L181.356 281.712ZM180.812 281.712L180.812 287.12L181.836 287.12L181.836 281.712L180.812 281.712ZM202.348 273.184L202.348 274.144L205.468 274.144L205.468 273.184L202.348 273.184ZM204.14 277.152L204.14 278.112L208.636 278.112L208.636 277.152L204.14 277.152ZM201.916 285.744L201.916 286.8L211.052 286.8L211.052 285.744L201.916 285.744ZM209.436 273.024C209.004 273.456 208.204 274.144 207.66 274.528L208.172 275.04C208.748 274.688 209.484 274.192 210.124 273.68L209.436 273.024ZM210.412 274.688C209.98 275.152 209.148 275.84 208.604 276.224L209.116 276.784C209.708 276.432 210.46 275.904 211.116 275.392L210.412 274.688ZM207.996 282.912C207.836 283.648 207.436 284.736 207.148 285.424L208.108 285.696C208.428 285.04 208.796 284.064 209.132 283.184L207.996 282.912ZM203.756 283.184C204.124 283.984 204.46 285.024 204.556 285.712L205.628 285.392C205.516 284.704 205.164 283.68 204.78 282.928L203.756 283.184ZM204.124 280.096L208.62 280.096L208.62 281.84L204.124 281.84L204.124 280.096ZM203.02 279.136L203.02 282.8L209.772 282.8L209.772 279.136L203.02 279.136ZM202.108 275.344C202.716 275.808 203.42 276.496 203.74 276.976L204.46 276.208C204.124 275.744 203.404 275.104 202.78 274.672L202.108 275.344ZM205.036 273.184L205.036 273.376C204.508 275.632 203.004 277.568 201.372 278.416C201.612 278.64 201.916 279.056 202.06 279.328C203.868 278.256 205.436 276.176 206.108 273.408L205.42 273.136L205.228 273.184L205.036 273.184ZM207.532 272.608L206.524 272.832C207.228 275.584 208.556 277.92 210.556 279.072C210.732 278.784 211.068 278.352 211.34 278.144C209.468 277.2 208.156 275.024 207.532 272.608ZM197.116 277.408L197.116 278.368L201.436 278.368L201.436 277.408L197.116 277.408ZM197.196 273.136L197.196 274.096L201.372 274.096L201.372 273.136L197.196 273.136ZM197.116 279.552L197.116 280.512L201.436 280.512L201.436 279.552L197.116 279.552ZM196.428 275.232L196.428 276.224L201.9 276.224L201.9 275.232L196.428 275.232ZM197.676 281.712L197.676 282.704L200.428 282.704L200.428 285.376L197.676 285.376L197.676 286.368L201.436 286.368L201.436 281.712L197.676 281.712ZM197.084 281.712L197.084 287.12L198.108 287.12L198.108 281.712L197.084 281.712ZM212.908 273.328L212.908 274.432L218.78 274.432L218.78 273.328L212.908 273.328ZM214.556 278.32L214.556 279.376L217.116 279.376L217.116 284.176L214.556 284.176L214.556 285.232L218.188 285.232L218.188 278.32L214.556 278.32ZM214.844 273.856C214.46 276.864 213.788 279.728 212.524 281.552C212.748 281.808 213.116 282.384 213.228 282.64C214.684 280.544 215.5 277.392 215.996 274.032L214.844 273.856ZM214.028 278.32L214.028 286.56L215.084 286.56L215.084 278.32L214.028 278.32ZM220.06 275.76L220.06 276.736L226.54 276.736L226.54 275.76L220.06 275.76ZM220.06 278.224L220.06 279.216L226.54 279.216L226.54 278.224L220.06 278.224ZM219.468 280.736L219.468 281.792L226.492 281.792L226.492 280.736L219.468 280.736ZM222.78 273.792L222.78 281.184L223.868 281.184L223.868 273.792L222.78 273.792ZM220.796 283.072C220.972 284.016 221.068 285.232 221.036 286.032L221.916 285.888C221.932 285.104 221.82 283.904 221.628 282.944L220.796 283.072ZM222.492 282.944C222.812 283.728 223.116 284.768 223.212 285.424L224.044 285.184C223.916 284.528 223.612 283.504 223.276 282.736L222.492 282.944ZM224.108 282.592C224.524 283.2 224.972 284 225.164 284.528L225.884 284.192C225.676 283.696 225.212 282.896 224.748 282.32L224.108 282.592ZM219.244 282.576C219.1 283.888 218.78 285.28 218.076 286.08L218.924 286.56C219.692 285.68 219.996 284.192 220.156 282.8L219.244 282.576ZM219.468 273.248L219.468 281.264L220.572 281.264L220.572 274.304L226.94 274.304L226.94 273.248L219.468 273.248ZM226.14 280.736L226.14 280.928C225.996 284.496 225.804 285.808 225.516 286.128C225.388 286.272 225.26 286.304 225.004 286.304C224.764 286.304 224.124 286.288 223.436 286.224C223.612 286.528 223.724 286.96 223.74 287.28C224.444 287.312 225.132 287.312 225.5 287.28C225.932 287.248 226.204 287.136 226.46 286.832C226.876 286.368 227.052 284.992 227.228 281.232C227.244 281.072 227.244 280.736 227.244 280.736L226.14 280.736Z" fill="white"/>
</g>
<rect x="115" y="176" width="220" height="50" rx="25" fill="#4A4D5A"/>
<path d="M139.77 197.824V198.692H143.648V197.824H139.77ZM138.874 201.646V202.402H141.17V201.646H138.874ZM138.874 203.564V204.362H141.17V203.564H138.874ZM142.346 200.078V205.006H143.116V200.078H142.346ZM141.716 195.276C142.5 196.536 143.886 197.922 145.174 198.748C145.328 198.454 145.538 198.076 145.748 197.824C144.432 197.124 143.018 195.724 142.15 194.296H141.198C140.54 195.626 139.182 197.152 137.782 198.006C137.95 198.23 138.188 198.594 138.3 198.86C139.714 197.95 141.016 196.508 141.716 195.276ZM138.398 199.77V207.078H139.168V200.568H141.016V199.77H138.398ZM140.778 199.77V206.21C140.778 206.322 140.736 206.364 140.638 206.364C140.54 206.364 140.26 206.364 139.938 206.364C140.022 206.574 140.134 206.91 140.162 207.12C140.666 207.12 141.002 207.106 141.254 206.98C141.478 206.826 141.548 206.602 141.548 206.224V199.77H140.778ZM144.222 199.546V206.084C144.222 206.238 144.166 206.28 144.012 206.294C143.858 206.308 143.34 206.308 142.752 206.294C142.864 206.518 142.99 206.868 143.018 207.078C143.844 207.078 144.348 207.078 144.684 206.952C144.992 206.798 145.09 206.56 145.09 206.098V199.546H144.222ZM132.714 195.752V196.69H138.048V195.752H132.714ZM132.546 203.746V204.684H138.006V203.746H132.546ZM134.856 194.24V198.09H135.794V194.24H134.856ZM134.968 198.146V202.22H134.856V207.148H135.794V202.22H135.682V198.146H134.968ZM133.708 200.554H136.942V201.828H133.708V200.554ZM133.708 198.538H136.942V199.798H133.708V198.538ZM132.924 197.74V202.612H137.74V197.74H132.924ZM149.213 195.094V196.158H153.175V195.094H149.213ZM152.643 195.094C152.643 197.726 153.105 203.69 158.705 207.078C158.901 206.826 159.321 206.378 159.559 206.196C154.029 202.92 153.721 197.6 153.721 195.094H152.643ZM152.251 197.838C151.397 201.8 149.647 204.628 146.539 206.252C146.819 206.448 147.295 206.882 147.491 207.106C150.585 205.286 152.433 202.332 153.441 198.062L152.251 197.838ZM161.596 197.376V207.134H162.66V198.412H172.068V197.376H161.596ZM171.55 197.376V205.748C171.55 205.972 171.48 206.042 171.228 206.056C170.962 206.07 170.066 206.07 169.156 206.042C169.31 206.336 169.478 206.812 169.52 207.12C170.696 207.12 171.522 207.106 171.998 206.938C172.474 206.756 172.614 206.42 172.614 205.762V197.376H171.55ZM164.046 194.87V195.808H167.042V194.87H164.046ZM166.328 194.87V195.388H166.552C166.762 199.462 167.84 202.416 170.654 203.816C170.822 203.536 171.172 203.13 171.396 202.906C168.652 201.73 167.658 198.902 167.49 194.87H166.328ZM166.44 197.656C166.076 200.288 164.9 202.038 162.786 203.074C163.01 203.242 163.346 203.648 163.5 203.886C165.754 202.724 166.958 200.708 167.434 197.824L166.44 197.656ZM178.739 197.166C177.941 198.188 176.625 199.168 175.365 199.798C175.589 199.994 175.967 200.414 176.121 200.624C177.395 199.882 178.823 198.72 179.747 197.488L178.739 197.166ZM182.309 197.754C183.611 198.566 185.179 199.756 185.935 200.568L186.719 199.854C185.921 199.056 184.311 197.894 183.023 197.152L182.309 197.754ZM181.119 199.686C182.421 201.268 184.885 203.018 186.971 203.998C187.139 203.704 187.391 203.312 187.629 203.06C185.473 202.178 183.079 200.512 181.581 198.72H180.531C179.425 200.316 177.101 202.178 174.735 203.256C174.945 203.48 175.211 203.872 175.337 204.124C177.675 202.99 179.971 201.198 181.119 199.686ZM177.241 202.43V207.134H178.263V203.368H183.933V207.078H184.997V202.43H177.241ZM177.731 205.72V206.658H184.493V205.72H177.731ZM180.531 194.24V196.074H181.609V194.24H180.531ZM175.253 195.542V198.09H176.289V196.494H185.879V198.09H186.943V195.542H175.253Z" fill="#A8ABBD"/>
<rect x="40" y="176" width="69" height="50" rx="25" fill="#4A4D5A"/>
<path d="M64.3555 200.661V201.851H57.5332V200.661H64.3555ZM61.5801 197.756V205.002H60.3154V197.756H61.5801ZM72.0809 203.307C72.0809 203.913 71.9396 204.428 71.6571 204.852C71.3791 205.271 71.0008 205.59 70.5223 205.809C70.0483 206.027 69.5129 206.137 68.9159 206.137C68.3189 206.137 67.7811 206.027 67.3026 205.809C66.8241 205.59 66.4458 205.271 66.1678 204.852C65.8898 204.428 65.7508 203.913 65.7508 203.307C65.7508 202.91 65.826 202.548 65.9764 202.22C66.1314 201.887 66.3478 201.598 66.6258 201.352C66.9084 201.105 67.2411 200.916 67.6239 200.784C68.0112 200.647 68.4373 200.579 68.9022 200.579C69.5129 200.579 70.0575 200.698 70.536 200.935C71.0145 201.167 71.3905 201.488 71.6639 201.898C71.9419 202.309 72.0809 202.778 72.0809 203.307ZM70.8094 203.279C70.8094 202.91 70.7297 202.584 70.5702 202.302C70.4107 202.015 70.1873 201.791 69.9002 201.632C69.6131 201.472 69.2804 201.393 68.9022 201.393C68.5148 201.393 68.1799 201.472 67.8973 201.632C67.6193 201.791 67.4028 202.015 67.2479 202.302C67.0929 202.584 67.0155 202.91 67.0155 203.279C67.0155 203.662 67.0907 203.99 67.2411 204.264C67.396 204.533 67.6148 204.74 67.8973 204.886C68.1844 205.027 68.5239 205.098 68.9159 205.098C69.3078 205.098 69.645 205.027 69.9276 204.886C70.2101 204.74 70.4266 204.533 70.577 204.264C70.7319 203.99 70.8094 203.662 70.8094 203.279ZM71.8485 198.638C71.8485 199.121 71.7209 199.556 71.4657 199.943C71.2105 200.331 70.8618 200.636 70.4198 200.859C69.9777 201.083 69.4764 201.194 68.9159 201.194C68.3462 201.194 67.8381 201.083 67.3914 200.859C66.9494 200.636 66.603 200.331 66.3524 199.943C66.1017 199.556 65.9764 199.121 65.9764 198.638C65.9764 198.059 66.1017 197.567 66.3524 197.161C66.6076 196.756 66.9562 196.446 67.3983 196.231C67.8403 196.017 68.3439 195.91 68.909 195.91C69.4787 195.91 69.9845 196.017 70.4266 196.231C70.8687 196.446 71.215 196.756 71.4657 197.161C71.7209 197.567 71.8485 198.059 71.8485 198.638ZM70.5838 198.658C70.5838 198.326 70.5132 198.032 70.3719 197.776C70.2306 197.521 70.0347 197.321 69.784 197.175C69.5334 197.024 69.2417 196.949 68.909 196.949C68.5763 196.949 68.2847 197.02 68.034 197.161C67.7879 197.298 67.5942 197.494 67.453 197.749C67.3162 198.004 67.2479 198.307 67.2479 198.658C67.2479 199 67.3162 199.299 67.453 199.554C67.5942 199.809 67.7902 200.007 68.0409 200.148C68.2915 200.29 68.5832 200.36 68.9159 200.36C69.2485 200.36 69.5379 200.29 69.784 200.148C70.0347 200.007 70.2306 199.809 70.3719 199.554C70.5132 199.299 70.5838 199 70.5838 198.658ZM79.9909 203.307C79.9909 203.913 79.8496 204.428 79.5671 204.852C79.2891 205.271 78.9108 205.59 78.4323 205.809C77.9583 206.027 77.4229 206.137 76.8259 206.137C76.2289 206.137 75.6911 206.027 75.2126 205.809C74.7341 205.59 74.3558 205.271 74.0778 204.852C73.7998 204.428 73.6608 203.913 73.6608 203.307C73.6608 202.91 73.736 202.548 73.8864 202.22C74.0414 201.887 74.2578 201.598 74.5358 201.352C74.8184 201.105 75.1511 200.916 75.5339 200.784C75.9212 200.647 76.3473 200.579 76.8122 200.579C77.4229 200.579 77.9675 200.698 78.446 200.935C78.9245 201.167 79.3005 201.488 79.5739 201.898C79.8519 202.309 79.9909 202.778 79.9909 203.307ZM78.7194 203.279C78.7194 202.91 78.6397 202.584 78.4802 202.302C78.3207 202.015 78.0973 201.791 77.8102 201.632C77.5231 201.472 77.1904 201.393 76.8122 201.393C76.4248 201.393 76.0899 201.472 75.8073 201.632C75.5293 201.791 75.3128 202.015 75.1579 202.302C75.0029 202.584 74.9255 202.91 74.9255 203.279C74.9255 203.662 75.0007 203.99 75.1511 204.264C75.306 204.533 75.5248 204.74 75.8073 204.886C76.0944 205.027 76.4339 205.098 76.8259 205.098C77.2178 205.098 77.555 205.027 77.8376 204.886C78.1201 204.74 78.3366 204.533 78.487 204.264C78.6419 203.99 78.7194 203.662 78.7194 203.279ZM79.7585 198.638C79.7585 199.121 79.6309 199.556 79.3757 199.943C79.1205 200.331 78.7718 200.636 78.3298 200.859C77.8877 201.083 77.3864 201.194 76.8259 201.194C76.2562 201.194 75.7481 201.083 75.3014 200.859C74.8594 200.636 74.513 200.331 74.2624 199.943C74.0117 199.556 73.8864 199.121 73.8864 198.638C73.8864 198.059 74.0117 197.567 74.2624 197.161C74.5176 196.756 74.8662 196.446 75.3083 196.231C75.7503 196.017 76.2539 195.91 76.819 195.91C77.3887 195.91 77.8945 196.017 78.3366 196.231C78.7787 196.446 79.125 196.756 79.3757 197.161C79.6309 197.567 79.7585 198.059 79.7585 198.638ZM78.4938 198.658C78.4938 198.326 78.4232 198.032 78.2819 197.776C78.1406 197.521 77.9447 197.321 77.694 197.175C77.4434 197.024 77.1517 196.949 76.819 196.949C76.4863 196.949 76.1947 197.02 75.944 197.161C75.6979 197.298 75.5042 197.494 75.363 197.749C75.2262 198.004 75.1579 198.307 75.1579 198.658C75.1579 199 75.2262 199.299 75.363 199.554C75.5042 199.809 75.7002 200.007 75.9509 200.148C76.2015 200.29 76.4932 200.36 76.8259 200.36C77.1585 200.36 77.4479 200.29 77.694 200.148C77.9447 200.007 78.1406 199.809 78.2819 199.554C78.4232 199.299 78.4938 199 78.4938 198.658ZM86.479 196.033H86.5884V197.106H86.479C85.8091 197.106 85.2486 197.216 84.7974 197.435C84.3462 197.649 83.9885 197.938 83.7241 198.303C83.4598 198.663 83.2684 199.068 83.1499 199.52C83.036 199.971 82.979 200.429 82.979 200.894V202.356C82.979 202.799 83.0314 203.19 83.1362 203.532C83.2411 203.869 83.3846 204.154 83.5669 204.387C83.7492 204.619 83.9543 204.795 84.1821 204.913C84.4146 205.032 84.6561 205.091 84.9068 205.091C85.1984 205.091 85.4582 205.036 85.6861 204.927C85.9139 204.813 86.1053 204.656 86.2603 204.455C86.4198 204.25 86.5405 204.008 86.6226 203.73C86.7046 203.452 86.7456 203.147 86.7456 202.814C86.7456 202.518 86.7092 202.233 86.6362 201.96C86.5633 201.682 86.4517 201.436 86.3013 201.222C86.1509 201.003 85.9618 200.832 85.7339 200.709C85.5106 200.581 85.244 200.518 84.9341 200.518C84.5832 200.518 84.2551 200.604 83.9497 200.777C83.6489 200.946 83.4006 201.169 83.2046 201.447C83.0132 201.721 82.9038 202.019 82.8765 202.343L82.2066 202.336C82.2704 201.826 82.3889 201.39 82.562 201.03C82.7398 200.666 82.9585 200.369 83.2183 200.142C83.4826 199.909 83.7765 199.741 84.1001 199.636C84.4282 199.526 84.7746 199.472 85.1392 199.472C85.6359 199.472 86.0643 199.565 86.4243 199.752C86.7844 199.939 87.0806 200.189 87.313 200.504C87.5454 200.814 87.7163 201.165 87.8257 201.557C87.9396 201.944 87.9966 202.343 87.9966 202.753C87.9966 203.222 87.9305 203.662 87.7984 204.072C87.6662 204.482 87.468 204.842 87.2036 205.152C86.9439 205.462 86.6226 205.704 86.2398 205.877C85.857 206.05 85.4126 206.137 84.9068 206.137C84.369 206.137 83.8996 206.027 83.4986 205.809C83.0975 205.585 82.7648 205.289 82.5005 204.92C82.2362 204.551 82.0379 204.141 81.9058 203.689C81.7736 203.238 81.7075 202.78 81.7075 202.315V201.721C81.7075 201.019 81.7782 200.331 81.9195 199.656C82.0607 198.982 82.3045 198.371 82.6509 197.824C83.0018 197.277 83.4872 196.842 84.107 196.519C84.7267 196.195 85.5174 196.033 86.479 196.033Z" fill="white"/>
</g>
<defs>
<clipPath id="clip0_40_8589">
<rect width="375" height="812" fill="white"/>
</clipPath>
<clipPath id="clip1_40_8589">
<rect width="375" height="44" fill="white"/>
</clipPath>
<clipPath id="clip2_40_8589">
<rect x="40" y="256" width="295" height="50" rx="25" fill="white"/>
</clipPath>
</defs>
</svg>
