<svg width="375" height="812" viewBox="0 0 375 812" fill="none" xmlns="http://www.w3.org/2000/svg">
<g clip-path="url(#clip0_40_8572)">
<rect width="375" height="812" fill="#383A44"/>
<g clip-path="url(#clip1_40_8572)">
<path d="M78 -2H297C294.894 -1.39731 293.418 0.495246 293.345 2.68446L293.317 3.5618C293.317 17.0587 282.375 28 268.878 28H106.122C92.6249 28 81.6835 17.0587 81.6835 3.5618L81.6545 2.68447C81.5823 0.49525 80.1059 -1.39731 78 -2Z" fill="black"/>
<path opacity="0.35" d="M336.5 20.0006C336.5 18.804 337.47 17.834 338.667 17.834H355.333C356.53 17.834 357.5 18.804 357.5 20.0007V26.0007C357.5 27.1973 356.53 28.1673 355.333 28.1673H338.667C337.47 28.1673 336.5 27.1973 336.5 26.0007V20.0006Z" stroke="white"/>
<path opacity="0.4" d="M359 21.001V25.001C359.805 24.6622 360.328 23.8741 360.328 23.001C360.328 22.1278 359.805 21.3398 359 21.001Z" fill="white"/>
<path d="M338 20.6673C338 19.9309 338.597 19.334 339.333 19.334H354.667C355.403 19.334 356 19.9309 356 20.6673V25.334C356 26.0704 355.403 26.6673 354.667 26.6673H339.333C338.597 26.6673 338 26.0704 338 25.334V20.6673Z" fill="white"/>
<path fill-rule="evenodd" clip-rule="evenodd" d="M323.33 19.6084C325.546 19.6085 327.678 20.4599 329.283 21.9867C329.404 22.1046 329.598 22.1031 329.717 21.9834L330.873 20.8167C330.933 20.756 330.967 20.6737 330.966 20.5882C330.966 20.5026 330.931 20.4207 330.87 20.3607C326.655 16.3212 320.005 16.3212 315.79 20.3607C315.729 20.4207 315.694 20.5025 315.694 20.5881C315.693 20.6737 315.727 20.7559 315.787 20.8167L316.943 21.9834C317.062 22.1033 317.256 22.1048 317.377 21.9867C318.983 20.4598 321.114 19.6084 323.33 19.6084ZM323.33 23.404C324.548 23.404 325.722 23.8565 326.624 24.6737C326.747 24.7897 326.939 24.7872 327.058 24.668L328.212 23.5014C328.273 23.4402 328.307 23.3572 328.306 23.2709C328.305 23.1846 328.27 23.1023 328.208 23.0424C325.46 20.486 321.204 20.486 318.455 23.0424C318.393 23.1023 318.358 23.1847 318.357 23.271C318.356 23.3573 318.39 23.4403 318.451 23.5014L319.605 24.668C319.724 24.7872 319.917 24.7897 320.039 24.6737C320.941 23.857 322.114 23.4046 323.33 23.404ZM325.643 25.9579C325.645 26.0444 325.611 26.1278 325.549 26.1884L323.552 28.204C323.494 28.2633 323.414 28.2966 323.33 28.2966C323.247 28.2966 323.167 28.2633 323.109 28.204L321.111 26.1884C321.049 26.1277 321.015 26.0443 321.017 25.9578C321.019 25.8713 321.057 25.7894 321.121 25.7314C322.396 24.6525 324.265 24.6525 325.54 25.7314C325.604 25.7894 325.642 25.8714 325.643 25.9579Z" fill="white"/>
<path fill-rule="evenodd" clip-rule="evenodd" d="M309.667 17.667H308.667C308.114 17.667 307.667 18.1147 307.667 18.667V27.3337C307.667 27.8859 308.114 28.3337 308.667 28.3337H309.667C310.219 28.3337 310.667 27.8859 310.667 27.3337V18.667C310.667 18.1147 310.219 17.667 309.667 17.667ZM304 20.0003H305C305.552 20.0003 306 20.448 306 21.0003V27.3337C306 27.8859 305.552 28.3337 305 28.3337H304C303.448 28.3337 303 27.8859 303 27.3337V21.0003C303 20.448 303.448 20.0003 304 20.0003ZM300.333 22.3337H299.333C298.781 22.3337 298.333 22.7814 298.333 23.3337V27.3337C298.333 27.8859 298.781 28.3337 299.333 28.3337H300.333C300.886 28.3337 301.333 27.8859 301.333 27.3337V23.3337C301.333 22.7814 300.886 22.3337 300.333 22.3337ZM295.667 24.3337H294.667C294.114 24.3337 293.667 24.7814 293.667 25.3337V27.3337C293.667 27.8859 294.114 28.3337 294.667 28.3337H295.667C296.219 28.3337 296.667 27.8859 296.667 27.3337V25.3337C296.667 24.7814 296.219 24.3337 295.667 24.3337Z" fill="white"/>
<path d="M37.3208 28.2568C40.0088 28.2568 41.6055 26.1548 41.6055 22.5952C41.6055 21.2549 41.3491 20.127 40.8584 19.2554C40.1479 17.9004 38.9248 17.168 37.3794 17.168C35.0796 17.168 33.4536 18.7134 33.4536 20.8813C33.4536 22.9175 34.9185 24.397 36.9326 24.397C38.1704 24.397 39.1738 23.8184 39.6719 22.8149H39.6938C39.6938 22.8149 39.7231 22.8149 39.7305 22.8149C39.7451 22.8149 39.7964 22.8149 39.7964 22.8149C39.7964 25.2319 38.8809 26.6748 37.3354 26.6748C36.4272 26.6748 35.7241 26.1768 35.4824 25.3784H33.6001C33.915 27.1143 35.3872 28.2568 37.3208 28.2568ZM37.3867 22.8955C36.1709 22.8955 35.3066 22.0312 35.3066 20.8228C35.3066 19.6436 36.2148 18.7427 37.394 18.7427C38.5732 18.7427 39.4814 19.6582 39.4814 20.8521C39.4814 22.0312 38.5952 22.8955 37.3867 22.8955Z" fill="white"/>
<path d="M44.6966 28.1543C45.3924 28.1543 45.8685 27.6562 45.8685 26.9971C45.8685 26.3306 45.3924 25.8398 44.6966 25.8398C44.0081 25.8398 43.5247 26.3306 43.5247 26.9971C43.5247 27.6562 44.0081 28.1543 44.6966 28.1543ZM44.6966 22.6611C45.3924 22.6611 45.8685 22.1704 45.8685 21.5112C45.8685 20.8447 45.3924 20.354 44.6966 20.354C44.0081 20.354 43.5247 20.8447 43.5247 21.5112C43.5247 22.1704 44.0081 22.6611 44.6966 22.6611Z" fill="white"/>
<path d="M52.7242 28.0005H54.5333V26.0303H55.9615V24.4336H54.5333V17.4316H51.8673C49.9996 20.2441 48.5128 22.5952 47.5606 24.3457V26.0303H52.7242V28.0005ZM49.3111 24.3677C50.5416 22.1997 51.6402 20.4639 52.651 18.9697H52.7535V24.4775H49.3111V24.3677Z" fill="white"/>
<path d="M59.9901 28.0005H61.8798V17.4316H59.9975L57.2362 19.3652V21.1816L59.8656 19.3359H59.9901V28.0005Z" fill="white"/>
</g>
<path d="M128.088 265.614H114L164.316 181.325C164.487 181.042 164.908 181.025 165.096 181.299L192.458 221.103C192.587 221.292 192.535 221.54 192.338 221.66L182.563 227.816C182.366 227.936 182.108 227.884 181.98 227.704L165.799 204.163C165.628 203.914 165.242 203.923 165.088 204.18L128.457 265.408C128.38 265.537 128.242 265.614 128.088 265.614Z" fill="url(#paint0_linear_40_8572)"/>
<path d="M169.041 309.928C166.005 309.928 162.97 309.388 160.106 308.299C152.363 305.35 147.355 299.1 146.369 291.136C145.417 283.471 147.381 275.516 151.891 268.735L210.079 181.213C210.276 180.922 210.73 180.93 210.911 181.231L261.432 265.014C261.595 265.28 261.389 265.623 261.064 265.614L247.13 265.451C246.984 265.451 246.847 265.374 246.77 265.245L210.293 204.335C210.139 204.069 209.744 204.06 209.573 204.317L162.464 275.173C159.497 279.631 158.202 284.8 158.82 289.721C159.128 292.199 160.406 295.499 164.736 297.145C168.192 298.457 172.187 298.106 175.42 296.194C176.638 295.474 177.186 295.011 178.275 294.085C179.862 292.739 182.023 290.913 187.082 287.509C187.27 287.381 187.545 287.424 187.673 287.604L194.619 297.102C189.894 300.274 187.973 301.895 186.576 303.078C185.324 304.141 184.132 305.144 182.005 306.404C178.07 308.736 173.559 309.928 169.041 309.928Z" fill="url(#paint1_linear_40_8572)"/>
<path fill-rule="evenodd" clip-rule="evenodd" d="M195.631 239.663C195.373 239.603 195.116 239.775 195.099 240.023L194.267 250.594L193.461 260.796C193.435 261.139 193.83 261.353 194.121 261.156L199.985 257.188L212.188 275.55C212.547 276.089 212.907 276.609 213.26 277.12C215.826 280.827 218.04 284.025 217.007 290.475C216.613 292.944 214.255 295.876 209.916 297.522C206.46 298.834 202.464 298.482 199.232 296.571L198.855 296.348C195.528 294.385 191.232 290.955 187.725 285.752C187.579 285.537 187.27 285.494 187.082 285.674L178.49 293.904C183.331 301.319 187.749 303.91 191.635 306.189C191.851 306.315 192.065 306.441 192.278 306.567L192.646 306.781C196.591 309.113 201.101 310.304 205.62 310.304C208.647 310.304 211.691 309.764 214.555 308.667C222.298 305.718 228.591 299.288 229.552 291.324C230.771 281.134 227.458 276.152 223.116 269.624C223.001 269.451 222.885 269.278 222.769 269.103L210.24 250.25L216.776 245.827C217.067 245.63 216.99 245.193 216.647 245.107L206.323 242.432L195.631 239.663Z" fill="url(#paint2_linear_40_8572)"/>
<g clip-path="url(#clip2_40_8572)">
<rect x="40" y="575" width="295" height="50" rx="25" fill="#FF4E84"/>
<path d="M127.5 593.336L127.5 594.456L137.772 594.456L137.772 593.336L127.5 593.336ZM129.084 597.032L136.076 597.032L136.076 599.432L129.084 599.432L129.084 597.032ZM127.98 596.008L127.98 600.456L137.244 600.456L137.244 596.008L127.98 596.008ZM128.972 600.776L127.98 601.112C129.676 604.04 132.956 605.704 137.196 606.312C137.356 605.976 137.66 605.496 137.916 605.24C133.756 604.776 130.476 603.288 128.972 600.776ZM131.948 591.624L131.948 598.696C131.948 601.4 131.676 604.136 126.924 605.336C127.164 605.592 127.5 606.072 127.644 606.344C132.604 604.872 133.132 601.8 133.132 598.712L133.132 591.624L131.948 591.624ZM126.812 591.528C125.884 593.96 124.316 596.344 122.7 597.864C122.924 598.152 123.26 598.776 123.372 599.048C125.148 597.272 126.86 594.584 127.948 591.88L126.812 591.528ZM125.132 595.72L125.132 606.36L126.284 606.36L126.284 594.6L126.268 594.584L125.132 595.72ZM141.82 592.696L141.82 593.848L152.172 593.848L152.172 592.696L141.82 592.696ZM141.82 596.424L141.82 597.56L152.156 597.56L152.156 596.424L141.82 596.424ZM141.74 600.248L141.74 601.384L152.188 601.384L152.188 600.248L141.74 600.248ZM141.148 592.696L141.148 598.488C141.148 600.744 140.972 603.592 139.212 605.576C139.468 605.736 139.948 606.136 140.14 606.376C142.044 604.248 142.332 600.936 142.332 598.504L142.332 592.696L141.148 592.696ZM151.692 592.696L151.692 604.648C151.692 604.952 151.58 605.048 151.276 605.064C150.972 605.064 149.884 605.08 148.748 605.032C148.924 605.352 149.116 605.88 149.164 606.2C150.684 606.216 151.612 606.2 152.156 606.008C152.684 605.8 152.876 605.432 152.876 604.648L152.876 592.696L151.692 592.696ZM146.172 593.128L146.172 606.136L147.388 606.136L147.388 593.128L146.172 593.128ZM158.204 601.24L158.204 602.056L167.788 602.056L167.788 601.24L158.204 601.24ZM158.236 599.272L158.236 600.136L167.292 600.136L167.292 603.16L158.236 603.16L158.236 604.04L168.476 604.04L168.476 599.272L158.236 599.272ZM162.332 599.704L162.332 604.52C162.332 605.832 162.844 606.152 164.636 606.152C165.036 606.152 167.932 606.152 168.348 606.152C169.868 606.152 170.236 605.656 170.412 603.704C170.076 603.64 169.628 603.48 169.356 603.288C169.276 604.904 169.132 605.192 168.268 605.192C167.644 605.192 165.18 605.192 164.7 605.192C163.676 605.192 163.484 605.08 163.484 604.536L163.484 599.704L162.332 599.704ZM157.612 599.272L157.612 604.872L158.764 604.872L158.764 599.272L157.612 599.272ZM157.164 592.248L157.164 593.192L168.86 593.192L168.86 592.248L157.164 592.248ZM158.156 595.912L158.156 596.68L161.548 596.68L161.548 595.912L158.156 595.912ZM157.836 597.56L157.836 598.312L161.564 598.312L161.564 597.56L157.836 597.56ZM164.396 597.56L164.396 598.312L168.236 598.312L168.236 597.56L164.396 597.56ZM164.396 595.912L164.396 596.68L167.852 596.68L167.852 595.912L164.396 595.912ZM162.38 592.616L162.38 598.728L163.548 598.728L163.548 592.616L162.38 592.616ZM156.236 594.168L156.236 597.288L157.324 597.288L157.324 595.048L168.684 595.048L168.684 597.288L169.82 597.288L169.82 594.168L156.236 594.168ZM178.956 600.072L178.956 606.296L180.108 606.296L180.108 601.176L184.828 601.176L184.828 606.2L186.028 606.2L186.028 600.072L178.956 600.072ZM185.324 591.816C183.708 592.344 180.828 592.744 178.412 592.968C178.556 593.256 178.716 593.704 178.764 593.976C181.26 593.784 184.236 593.4 186.188 592.824L185.324 591.816ZM181.788 593.048L181.788 600.632L183.004 600.632L183.004 593.048L181.788 593.048ZM178.012 596.232L178.012 597.368L186.764 597.368L186.764 596.232L178.012 596.232ZM179.708 604.392L179.708 605.48L185.42 605.48L185.42 604.392L179.708 604.392ZM172.7 596.504L172.7 597.448L177.388 597.448L177.388 596.504L172.7 596.504ZM172.796 592.136L172.796 593.096L177.372 593.096L177.372 592.136L172.796 592.136ZM172.7 598.68L172.7 599.64L177.388 599.64L177.388 598.68L172.7 598.68ZM171.948 594.28L171.948 595.272L177.916 595.272L177.916 594.28L171.948 594.28ZM173.308 600.872L173.308 601.88L176.38 601.88L176.38 604.552L173.308 604.552L173.308 605.544L177.436 605.544L177.436 600.872L173.308 600.872ZM172.684 600.872L172.684 606.28L173.724 606.28L173.724 600.872L172.684 600.872ZM190.124 593.176L192.508 593.176L192.508 595.608L190.124 595.608L190.124 593.176ZM189.036 592.168L189.036 596.632L193.644 596.632L193.644 592.168L189.036 592.168ZM188.3 597.752L188.3 598.808L194.332 598.808L194.332 597.752L188.3 597.752ZM189.804 598.232C189.564 599.448 189.196 601.048 188.876 602.072L189.964 602.28C190.252 601.224 190.636 599.56 190.908 598.232L189.804 598.232ZM189.932 600.232L189.66 601.256L192.908 601.256L192.908 600.232L189.932 600.232ZM192.46 600.232L192.46 600.424C192.268 603.576 192.028 604.808 191.708 605.128C191.58 605.272 191.42 605.304 191.18 605.288C190.924 605.288 190.3 605.288 189.612 605.224C189.804 605.512 189.932 605.976 189.948 606.28C190.62 606.312 191.276 606.312 191.628 606.296C192.06 606.248 192.332 606.152 192.604 605.864C193.052 605.384 193.292 604.072 193.548 600.728C193.564 600.552 193.58 600.232 193.58 600.232L192.46 600.232ZM198.492 592.664L198.492 593.656L202.316 593.656L202.316 592.664L198.492 592.664ZM195.276 594.744L195.276 595.72L202.332 595.72L202.332 594.744L195.276 594.744ZM197.916 591.56L197.916 595.256L199.068 595.256L199.068 591.56L197.916 591.56ZM194.764 594.744L194.764 598.84C194.764 600.904 194.62 603.688 193.228 605.72C193.5 605.832 193.948 606.168 194.14 606.376C195.628 604.248 195.852 601.08 195.852 598.84L195.852 594.744L194.764 594.744ZM196.236 597.384L196.348 598.264L201.084 597.752L200.972 596.92L196.236 597.384ZM197.98 595.832L197.98 598.696C197.98 599.72 198.268 599.976 199.42 599.976C199.66 599.976 200.94 599.976 201.18 599.976C202.044 599.976 202.348 599.656 202.444 598.424C202.156 598.36 201.74 598.216 201.516 598.072C201.468 598.968 201.404 599.08 201.052 599.08C200.78 599.08 199.756 599.08 199.564 599.08C199.116 599.08 199.052 599.032 199.052 598.696L199.052 595.832L197.98 595.832ZM201.996 594.744L201.996 594.904C201.9 595.752 201.708 596.84 201.548 597.512L202.476 597.736C202.668 597.016 202.924 595.864 203.116 594.888L202.364 594.696L202.172 594.744L201.996 594.744ZM197.148 600.68C197.052 603.032 196.7 604.584 194.956 605.48C195.196 605.672 195.516 606.072 195.66 606.344C197.612 605.272 198.076 603.4 198.188 600.68L197.148 600.68ZM199.5 600.664L199.5 604.584C199.5 605.32 199.564 605.56 199.82 605.784C200.06 605.976 200.428 606.04 200.78 606.04C200.956 606.04 201.484 606.04 201.692 606.04C201.996 606.04 202.348 605.976 202.54 605.88C202.78 605.736 202.956 605.56 203.052 605.256C203.132 604.984 203.212 604.184 203.228 603.432C202.924 603.336 202.524 603.128 202.316 602.936C202.316 603.656 202.3 604.28 202.252 604.536C202.22 604.712 202.14 604.824 202.044 604.872C201.964 604.92 201.756 604.952 201.612 604.952C201.42 604.952 201.164 604.952 201.036 604.952C200.876 604.952 200.748 604.92 200.652 604.872C200.572 604.84 200.54 604.728 200.54 604.616L200.54 600.664L199.5 600.664ZM204.748 592.328L204.748 593.432L210.62 593.432L210.62 592.328L204.748 592.328ZM206.396 597.32L206.396 598.376L208.956 598.376L208.956 603.176L206.396 603.176L206.396 604.232L210.028 604.232L210.028 597.32L206.396 597.32ZM206.684 592.856C206.3 595.864 205.628 598.728 204.364 600.552C204.588 600.808 204.956 601.384 205.068 601.64C206.524 599.544 207.34 596.392 207.836 593.032L206.684 592.856ZM205.868 597.32L205.868 605.56L206.924 605.56L206.924 597.32L205.868 597.32ZM211.9 594.76L211.9 595.736L218.38 595.736L218.38 594.76L211.9 594.76ZM211.9 597.224L211.9 598.216L218.38 598.216L218.38 597.224L211.9 597.224ZM211.308 599.736L211.308 600.792L218.332 600.792L218.332 599.736L211.308 599.736ZM214.62 592.792L214.62 600.184L215.708 600.184L215.708 592.792L214.62 592.792ZM212.636 602.072C212.812 603.016 212.908 604.232 212.876 605.032L213.756 604.888C213.772 604.104 213.66 602.904 213.468 601.944L212.636 602.072ZM214.332 601.944C214.652 602.728 214.956 603.768 215.052 604.424L215.884 604.184C215.756 603.528 215.452 602.504 215.116 601.736L214.332 601.944ZM215.948 601.592C216.364 602.2 216.812 603 217.004 603.528L217.724 603.192C217.516 602.696 217.052 601.896 216.588 601.32L215.948 601.592ZM211.084 601.576C210.94 602.888 210.62 604.28 209.916 605.08L210.764 605.56C211.532 604.68 211.836 603.192 211.996 601.8L211.084 601.576ZM211.308 592.248L211.308 600.264L212.412 600.264L212.412 593.304L218.78 593.304L218.78 592.248L211.308 592.248ZM217.98 599.736L217.98 599.928C217.836 603.496 217.644 604.808 217.356 605.128C217.228 605.272 217.1 605.304 216.844 605.304C216.604 605.304 215.964 605.288 215.276 605.224C215.452 605.528 215.564 605.96 215.58 606.28C216.284 606.312 216.972 606.312 217.34 606.28C217.772 606.248 218.044 606.136 218.3 605.832C218.716 605.368 218.892 603.992 219.068 600.232C219.084 600.072 219.084 599.736 219.084 599.736L217.98 599.736ZM225.324 596.024L225.324 597.064L231.26 597.064L231.26 596.024L225.324 596.024ZM221.34 604.904L221.34 605.912L235.276 605.912L235.276 604.904L221.34 604.904ZM222.3 592.184L222.3 593.192L227.036 593.192L227.036 592.184L222.3 592.184ZM226.652 592.184L226.652 592.408C225.66 594.952 223.068 597.192 220.716 598.184C220.956 598.392 221.276 598.808 221.436 599.064C223.98 597.88 226.652 595.592 227.852 592.52L227.084 592.12L226.86 592.184L226.652 592.184ZM229.356 591.608L228.348 591.944C229.708 594.984 232.156 597.592 234.988 598.872C235.18 598.552 235.516 598.12 235.804 597.88C233.036 596.808 230.588 594.328 229.356 591.608ZM221.868 594.44C222.7 594.952 223.66 595.752 224.14 596.312L224.812 595.576C224.348 595 223.356 594.264 222.508 593.784L221.868 594.44ZM232.572 591.704C231.932 592.408 230.796 593.384 229.98 593.976L230.716 594.552C231.548 593.992 232.652 593.128 233.484 592.344L232.572 591.704ZM234.364 593.592C233.692 594.312 232.508 595.288 231.644 595.864L232.38 596.44C233.26 595.896 234.412 595.032 235.26 594.232L234.364 593.592ZM225.036 599.368L231.516 599.368L231.516 601.48L225.036 601.48L225.036 599.368ZM223.852 598.376L223.852 602.472L232.748 602.472L232.748 598.376L223.852 598.376ZM224.78 602.728C225.212 603.432 225.612 604.408 225.772 605.032L226.908 604.68C226.748 604.056 226.332 603.112 225.884 602.424L224.78 602.728ZM230.732 602.376C230.476 603.08 229.964 604.12 229.564 604.744L230.588 605.048C230.988 604.424 231.468 603.544 231.9 602.696L230.732 602.376ZM240.252 592.536L240.252 593.752L244.78 593.752L244.78 592.536L240.252 592.536ZM244.172 592.536C244.172 595.544 244.7 602.36 251.1 606.232C251.324 605.944 251.804 605.432 252.076 605.224C245.756 601.48 245.404 595.4 245.404 592.536L244.172 592.536ZM243.724 595.672C242.748 600.2 240.748 603.432 237.196 605.288C237.516 605.512 238.06 606.008 238.284 606.264C241.82 604.184 243.932 600.808 245.084 595.928L243.724 595.672Z" fill="white"/>
</g>
<g clip-path="url(#clip3_40_8572)">
<rect x="40" y="653" width="295" height="50" rx="25" fill="white"/>
<path d="M143.82 671.336L143.82 672.456L154.092 672.456L154.092 671.336L143.82 671.336ZM145.404 675.032L152.396 675.032L152.396 677.432L145.404 677.432L145.404 675.032ZM144.3 674.008L144.3 678.456L153.564 678.456L153.564 674.008L144.3 674.008ZM145.292 678.776L144.3 679.112C145.996 682.04 149.276 683.704 153.516 684.312C153.676 683.976 153.98 683.496 154.236 683.24C150.076 682.776 146.796 681.288 145.292 678.776ZM148.268 669.624L148.268 676.696C148.268 679.4 147.996 682.136 143.244 683.336C143.484 683.592 143.82 684.072 143.964 684.344C148.924 682.872 149.452 679.8 149.452 676.712L149.452 669.624L148.268 669.624ZM143.132 669.528C142.204 671.96 140.636 674.344 139.02 675.864C139.244 676.152 139.58 676.776 139.692 677.048C141.468 675.272 143.18 672.584 144.268 669.88L143.132 669.528ZM141.452 673.72L141.452 684.36L142.604 684.36L142.604 672.6L142.588 672.584L141.452 673.72ZM158.14 670.696L158.14 671.848L168.492 671.848L168.492 670.696L158.14 670.696ZM158.14 674.424L158.14 675.56L168.476 675.56L168.476 674.424L158.14 674.424ZM158.06 678.248L158.06 679.384L168.508 679.384L168.508 678.248L158.06 678.248ZM157.468 670.696L157.468 676.488C157.468 678.744 157.292 681.592 155.532 683.576C155.788 683.736 156.268 684.136 156.46 684.376C158.364 682.248 158.652 678.936 158.652 676.504L158.652 670.696L157.468 670.696ZM168.012 670.696L168.012 682.648C168.012 682.952 167.9 683.048 167.596 683.064C167.292 683.064 166.204 683.08 165.068 683.032C165.244 683.352 165.436 683.88 165.484 684.2C167.004 684.216 167.932 684.2 168.476 684.008C169.004 683.8 169.196 683.432 169.196 682.648L169.196 670.696L168.012 670.696ZM162.492 671.128L162.492 684.136L163.708 684.136L163.708 671.128L162.492 671.128ZM177.804 670.328L177.804 671.304L185.212 671.304L185.212 670.328L177.804 670.328ZM177.612 674.76L177.612 675.752L185.5 675.752L185.5 674.76L177.612 674.76ZM177.612 676.984L177.612 677.976L185.468 677.976L185.468 676.984L177.612 676.984ZM178.076 682.536L178.076 683.528L185.02 683.528L185.02 682.536L178.076 682.536ZM176.3 672.536L176.3 673.544L186.716 673.544L186.716 672.536L176.3 672.536ZM177.452 679.208L177.452 684.28L178.604 684.28L178.604 680.184L184.444 680.184L184.444 684.232L185.644 684.232L185.644 679.208L177.452 679.208ZM175.756 669.608C174.828 672.04 173.26 674.424 171.644 675.944C171.868 676.232 172.204 676.856 172.316 677.128C174.092 675.352 175.804 672.664 176.892 669.96L175.756 669.608ZM174.092 673.736L174.092 684.248L175.244 684.248L175.244 672.616L175.228 672.6L174.092 673.736ZM195.612 674.696L195.612 684.264L196.764 684.264L196.764 675.784L201.052 675.784L201.052 684.184L202.268 684.184L202.268 674.696L195.612 674.696ZM188.604 675.944L188.604 677.048L195.116 677.048L195.116 675.944L188.604 675.944ZM196.172 677.384L196.172 678.312L201.628 678.312L201.628 677.384L196.172 677.384ZM196.172 679.944L196.172 680.904L201.628 680.904L201.628 679.944L196.172 679.944ZM196.172 682.568L196.172 683.576L201.628 683.576L201.628 682.568L196.172 682.568ZM191.404 674.12L191.404 684.296L192.572 684.296L192.572 674.12L191.404 674.12ZM192.396 677.512L191.724 678.056C192.364 678.648 193.852 680.28 194.364 681L195.132 680.04C194.732 679.624 192.908 677.912 192.396 677.512ZM190.316 671.112L190.316 672.152L195.452 672.152L195.452 671.112L190.316 671.112ZM196.604 671.128L196.604 672.152L202.812 672.152L202.812 671.128L196.604 671.128ZM190.604 669.496C190.108 671.112 189.244 672.712 188.236 673.768C188.524 673.912 189.02 674.248 189.244 674.44C190.22 673.288 191.164 671.528 191.772 669.784L190.604 669.496ZM196.892 669.496C196.428 671.096 195.596 672.632 194.54 673.608C194.828 673.768 195.34 674.104 195.564 674.312C196.588 673.224 197.532 671.544 198.06 669.784L196.892 669.496ZM191.276 671.896C191.692 672.664 192.108 673.688 192.252 674.328L193.308 673.88C193.148 673.256 192.684 672.248 192.268 671.528L191.276 671.896ZM197.836 671.912C198.428 672.648 199.068 673.672 199.308 674.312L200.348 673.88C200.076 673.224 199.42 672.232 198.812 671.528L197.836 671.912ZM191.388 676.504C190.732 678.328 189.388 680.52 188.188 681.64C188.46 681.88 188.796 682.28 188.956 682.568C190.188 681.256 191.58 678.936 192.268 677.016L191.388 676.504ZM209.004 674.024L209.004 675.064L214.94 675.064L214.94 674.024L209.004 674.024ZM205.02 682.904L205.02 683.912L218.956 683.912L218.956 682.904L205.02 682.904ZM205.98 670.184L205.98 671.192L210.716 671.192L210.716 670.184L205.98 670.184ZM210.332 670.184L210.332 670.408C209.34 672.952 206.748 675.192 204.396 676.184C204.636 676.392 204.956 676.808 205.116 677.064C207.66 675.88 210.332 673.592 211.532 670.52L210.764 670.12L210.54 670.184L210.332 670.184ZM213.036 669.608L212.028 669.944C213.388 672.984 215.836 675.592 218.668 676.872C218.86 676.552 219.196 676.12 219.484 675.88C216.716 674.808 214.268 672.328 213.036 669.608ZM205.548 672.44C206.38 672.952 207.34 673.752 207.82 674.312L208.492 673.576C208.028 673 207.036 672.264 206.188 671.784L205.548 672.44ZM216.252 669.704C215.612 670.408 214.476 671.384 213.66 671.976L214.396 672.552C215.228 671.992 216.332 671.128 217.164 670.344L216.252 669.704ZM218.044 671.592C217.372 672.312 216.188 673.288 215.324 673.864L216.06 674.44C216.94 673.896 218.092 673.032 218.94 672.232L218.044 671.592ZM208.716 677.368L215.196 677.368L215.196 679.48L208.716 679.48L208.716 677.368ZM207.532 676.376L207.532 680.472L216.428 680.472L216.428 676.376L207.532 676.376ZM208.46 680.728C208.892 681.432 209.292 682.408 209.452 683.032L210.588 682.68C210.428 682.056 210.012 681.112 209.564 680.424L208.46 680.728ZM214.412 680.376C214.156 681.08 213.644 682.12 213.244 682.744L214.268 683.048C214.668 682.424 215.148 681.544 215.58 680.696L214.412 680.376ZM223.932 670.536L223.932 671.752L228.46 671.752L228.46 670.536L223.932 670.536ZM227.852 670.536C227.852 673.544 228.38 680.36 234.78 684.232C235.004 683.944 235.484 683.432 235.756 683.224C229.436 679.48 229.084 673.4 229.084 670.536L227.852 670.536ZM227.404 673.672C226.428 678.2 224.428 681.432 220.876 683.288C221.196 683.512 221.74 684.008 221.964 684.264C225.5 682.184 227.612 678.808 228.764 673.928L227.404 673.672Z" fill="#FF4E84"/>
</g>
<rect x="41" y="654" width="293" height="48" rx="24" stroke="#FF4E84" stroke-width="2"/>
<rect x="121" y="799" width="134" height="5" rx="2.5" fill="white"/>
</g>
<defs>
<linearGradient id="paint0_linear_40_8572" x1="153.264" y1="181.103" x2="153.264" y2="265.614" gradientUnits="userSpaceOnUse">
<stop stop-color="#FF4E84"/>
<stop offset="1" stop-color="#E134EE"/>
</linearGradient>
<linearGradient id="paint1_linear_40_8572" x1="203.812" y1="181" x2="203.812" y2="309.928" gradientUnits="userSpaceOnUse">
<stop stop-color="#FF4E84"/>
<stop offset="1" stop-color="#E134EE"/>
</linearGradient>
<linearGradient id="paint2_linear_40_8572" x1="205.208" y1="239.651" x2="205.208" y2="261.231" gradientUnits="userSpaceOnUse">
<stop stop-color="#FF4E84"/>
<stop offset="1" stop-color="#E134EE"/>
</linearGradient>
<clipPath id="clip0_40_8572">
<rect width="375" height="812" fill="white"/>
</clipPath>
<clipPath id="clip1_40_8572">
<rect width="375" height="44" fill="white"/>
</clipPath>
<clipPath id="clip2_40_8572">
<rect x="40" y="575" width="295" height="50" rx="25" fill="white"/>
</clipPath>
<clipPath id="clip3_40_8572">
<rect x="40" y="653" width="295" height="50" rx="25" fill="white"/>
</clipPath>
</defs>
</svg>
