<svg width="320" height="250" viewBox="0 0 320 250" fill="none" xmlns="http://www.w3.org/2000/svg">
<rect width="320" height="250" rx="15" fill="white"/>
<path d="M95.6 27.912V28.92H110.16V27.912H95.6ZM95.984 19.864V20.92H109.76V19.864H95.984ZM101.152 26.232C100.16 27.8 98.672 29.944 97.648 31.24L98.784 31.624C99.808 30.312 101.28 28.216 102.32 26.552L101.152 26.232ZM105.952 28.264C104.672 31.384 101.536 32.52 95.824 32.824C96.016 33.096 96.208 33.528 96.288 33.88C102.288 33.432 105.696 32.12 107.104 28.6L105.952 28.264ZM98.512 31.08C102.576 31.832 106.496 32.92 108.944 33.928L109.664 32.952C107.184 31.976 103.072 30.904 99.12 30.2L98.512 31.08ZM100.352 20.264V25.848H101.488V20.264H100.352ZM104.08 20.264V25.848H105.216V20.264H104.08ZM97.904 23.272H107.888V25.448H97.904V23.272ZM96.784 22.296V26.44H109.088V22.296H96.784ZM121.664 20.168V21.24H124.624V20.168H121.664ZM117.968 20.952V21.976H121.344V20.952H117.968ZM121.824 23.128V24.136H124.592V23.128H121.824ZM121.792 26.12V27.128H124.512V26.12H121.792ZM113.904 23.128V24.136H116.624V23.128H113.904ZM113.968 26.104V27.128H116.64V26.104H113.968ZM113.264 20.28L113.584 29.576H114.672L114.384 20.904C114.576 20.872 114.656 20.808 114.688 20.712L113.264 20.28ZM123.968 20.168C123.984 23.112 123.856 27.192 123.68 29.544H124.816C124.976 27.24 125.072 23.176 125.088 20.168H123.968ZM116.208 19.32C115.568 19.752 114.496 20.328 113.568 20.76C113.696 21 113.888 21.384 113.952 21.592C114.976 21.208 116.176 20.696 117.152 20.184L116.208 19.32ZM117.44 25.32V29.48H118.432V25.32H117.44ZM117.456 19.304V24.616H120.576V23.64H118.496V19.304H117.456ZM119.984 23.64V29.464H121.024V23.64H119.984ZM111.904 29.064V30.184H126.512V29.064H111.904ZM120.688 31.208C122.4 32.056 124.224 33.144 125.296 33.928L126.416 33.112C125.248 32.312 123.312 31.24 121.536 30.408L120.688 31.208ZM116.496 30.44C115.504 31.32 113.584 32.424 112.032 33.064C112.32 33.288 112.736 33.672 112.944 33.912C114.464 33.24 116.352 32.152 117.616 31.16L116.496 30.44ZM132.928 24.104V25.272H136V24.104H132.928ZM132.496 19.176V32.152L133.728 31.992V19.176H132.496ZM129.52 22.408V32.6L130.688 32.44V22.408H129.52ZM128.224 32.392L128.432 33.672C130.448 33.288 133.36 32.76 136.096 32.248L136 31.048C133.168 31.56 130.16 32.088 128.224 32.392ZM141.504 22.664C140.496 23.592 138.736 24.712 137.152 25.512C137.312 25.768 137.536 26.184 137.616 26.44C139.296 25.64 141.168 24.632 142.496 23.624L141.504 22.664ZM136.8 19.176V31.176C136.8 32.904 137.216 33.368 138.704 33.368C139.008 33.368 140.816 33.368 141.136 33.368C142.576 33.368 142.896 32.472 143.04 29.88C142.704 29.8 142.208 29.592 141.888 29.352C141.808 31.624 141.712 32.2 141.04 32.2C140.656 32.2 139.168 32.2 138.848 32.2C138.176 32.2 138.064 32.04 138.064 31.208V19.176H136.8ZM151.008 19.656C150.896 21.784 150.896 29.48 144.368 32.808C144.736 33.08 145.136 33.448 145.344 33.752C151.968 30.152 152.208 22.168 152.336 19.656H151.008ZM152.288 19.976L151.136 20.088C151.248 21.56 151.696 30.504 158.48 33.752C158.672 33.416 159.04 33.016 159.392 32.744C152.8 29.72 152.336 21.224 152.288 19.976ZM160.896 19.864V20.936H166.432V19.864H160.896ZM162.208 23.224V24.232H165.088V23.224H162.208ZM162.208 26.52V27.544H165.088V26.52H162.208ZM161.712 20.408V30.648H162.72V20.408H161.712ZM164.512 20.392V33.896H165.552V20.392H164.512ZM160.72 30.472L160.944 31.592C162.16 31.336 163.664 31 165.136 30.664L165.056 29.624C163.44 29.96 161.84 30.28 160.72 30.472ZM165.904 29.4L166.304 30.424C167.296 30.088 168.496 29.672 169.68 29.256L169.568 28.392C168.192 28.792 166.864 29.16 165.904 29.4ZM166.928 20.664V29.384H167.904V21.048L166.928 20.664ZM169.312 22.008V26.856C169.312 29.272 169.008 31.512 166.4 33.16C166.64 33.32 166.96 33.688 167.104 33.896C169.936 32.104 170.304 29.592 170.304 26.872V22.008H169.312ZM173.968 20.296V29.416C173.968 29.56 173.92 29.608 173.792 29.608C173.68 29.608 173.296 29.608 172.864 29.592C173.008 29.864 173.152 30.312 173.184 30.584C173.84 30.584 174.272 30.552 174.592 30.376C174.896 30.2 174.976 29.896 174.976 29.432V20.296H173.968ZM169.888 19.192C169.184 19.784 167.984 20.6 167.12 21.048L167.824 21.704C168.704 21.256 169.856 20.568 170.72 19.896L169.888 19.192ZM171.44 20.296V33.88H172.432V21.304H174.544V20.296H171.44ZM185.136 25.848L183.968 26.104C185.072 30.168 187.2 32.808 191.088 33.912C191.28 33.576 191.632 33.064 191.92 32.792C188.176 31.88 186.064 29.432 185.136 25.848ZM177.92 25.384V26.6H191.088V25.384H177.92ZM177.424 20.408V21.624H191.504V20.408H177.424ZM183.728 20.744V24.472C183.728 27.4 183.104 30.84 177.12 32.872C177.376 33.112 177.728 33.624 177.856 33.928C184.272 31.704 184.992 27.848 184.992 24.472V20.744H183.728ZM194.576 20.696V21.816H197.136V28.2H194.576V29.32H198.24V20.696H194.576ZM193.952 20.696V30.824H195.04V20.696H193.952ZM200.048 22.44V23.416H207.056V22.44H200.048ZM200.048 24.92V25.896H207.056V24.92H200.048ZM199.392 27.432V28.456H207.008V27.432H199.392ZM199.392 19.912V27.992H200.528V20.968H207.376V19.912H199.392ZM202.976 20.392V27.912H204.08V20.392H202.976ZM206.736 27.432V27.624C206.56 31.096 206.368 32.392 206.08 32.696C205.952 32.856 205.792 32.888 205.552 32.888C205.296 32.888 204.672 32.872 203.984 32.808C204.16 33.096 204.272 33.544 204.288 33.848C205.008 33.88 205.696 33.88 206.064 33.864C206.48 33.816 206.752 33.72 207.008 33.432C207.424 32.936 207.632 31.56 207.824 27.928C207.84 27.768 207.84 27.432 207.84 27.432H206.736ZM199.136 29.24C198.944 30.504 198.544 31.96 197.856 32.824L198.736 33.288C199.456 32.376 199.824 30.808 200.032 29.496L199.136 29.24ZM200.784 29.496C201.04 30.52 201.184 31.816 201.136 32.664L202.032 32.52C202.064 31.672 201.92 30.376 201.632 29.368L200.784 29.496ZM202.544 29.384C202.944 30.232 203.312 31.368 203.424 32.12L204.272 31.832C204.128 31.112 203.744 29.976 203.328 29.128L202.544 29.384ZM204.304 29.112C204.752 29.784 205.184 30.68 205.36 31.304L206.112 30.984C205.92 30.392 205.472 29.496 205.008 28.824L204.304 29.112ZM216.224 28.744H217.536C217.12 26.344 220.944 25.848 220.944 23.432C220.944 21.592 219.488 20.424 217.232 20.424C215.504 20.424 214.256 21.176 213.2 22.296L214.048 23.08C214.976 22.12 215.984 21.64 217.088 21.64C218.72 21.64 219.504 22.44 219.504 23.544C219.504 25.368 215.744 26.072 216.224 28.744ZM216.912 32.68C217.472 32.68 217.936 32.28 217.936 31.64C217.936 31 217.472 30.568 216.912 30.568C216.352 30.568 215.888 31 215.888 31.64C215.888 32.28 216.336 32.68 216.912 32.68Z" fill="#383A44"/>
<path d="M123.652 44.28V44.96H129.482V44.28H123.652ZM125.992 39.98L125.652 40.54H128.542L128.702 39.98H125.992ZM127.492 42.98V47.52C127.492 47.66 127.442 47.69 127.292 47.7C127.122 47.71 126.592 47.71 125.992 47.69C126.092 47.9 126.192 48.21 126.222 48.41C127.032 48.41 127.522 48.4 127.812 48.28C128.122 48.16 128.212 47.94 128.212 47.52V42.98H127.492ZM126.392 39.22C125.802 40.11 124.672 41.02 123.432 41.56C123.582 41.67 123.802 41.89 123.912 42.02C125.172 41.41 126.382 40.46 127.112 39.43L126.392 39.22ZM124.342 45.67C124.812 46.12 125.312 46.76 125.522 47.18L126.142 46.79C125.912 46.37 125.392 45.76 124.922 45.32L124.342 45.67ZM125.392 40.93C126.012 41.29 126.722 41.85 127.052 42.24L127.482 41.83C127.142 41.44 126.412 40.91 125.792 40.57L125.392 40.93ZM124.222 41.69C124.812 42.09 125.482 42.68 125.792 43.1L126.262 42.72C125.942 42.3 125.262 41.73 124.662 41.35L124.222 41.69ZM120.312 44.23V44.89H122.942V44.23H120.312ZM122.622 39.21V48.4H123.322V39.21H122.622ZM120.862 44.48V45.11C120.862 45.89 120.772 47.14 120.222 48.06C120.402 48.13 120.672 48.3 120.802 48.42C121.422 47.42 121.522 46 121.522 45.13V44.48H120.862ZM128.432 39.98V40.1C127.682 41.94 125.652 43.13 123.682 43.6C123.812 43.73 123.982 43.98 124.052 44.15C126.172 43.58 128.272 42.35 129.162 40.18L128.702 39.95L128.572 39.98H128.432ZM120.742 39.65V42.75H123.042V42.07H121.412V39.65H120.742ZM132.208 42.62H137.698V44.13H132.208V42.62ZM131.568 42.11V44.64H138.378V42.11H131.568ZM133.208 41.03V41.56H136.698V41.03H133.208ZM134.578 42.27V44.36H135.217V42.27H134.578ZM134.888 39.81C135.908 40.79 137.708 41.78 139.178 42.29C139.288 42.1 139.458 41.83 139.618 41.67C138.068 41.21 136.328 40.29 135.198 39.2H134.488C133.658 40.17 131.968 41.19 130.267 41.77C130.408 41.93 130.578 42.19 130.668 42.36C132.328 41.74 133.998 40.72 134.888 39.81ZM132.818 42.92C133.068 43.28 133.298 43.77 133.378 44.09L133.958 43.88C133.858 43.56 133.618 43.09 133.358 42.74L132.818 42.92ZM136.418 42.7C136.298 43.04 136.038 43.57 135.848 43.91L136.378 44.09C136.578 43.79 136.828 43.33 137.058 42.9L136.418 42.7ZM132.158 45.12V48.4H132.898V45.65H137.048V48.39H137.808V45.12H132.158ZM132.598 46.32V46.87H137.378V46.32H132.598ZM132.598 47.55V48.09H137.378V47.55H132.598ZM144.232 43.83V44.49H148.512V43.83H144.232ZM144.212 45.57V46.22H148.512V45.57H144.212ZM148.582 39.48C148.342 40.07 147.882 40.88 147.532 41.39L148.162 41.66C148.522 41.16 148.952 40.43 149.312 39.77L148.582 39.48ZM143.472 39.82C143.892 40.41 144.322 41.19 144.482 41.71L145.152 41.38C144.982 40.87 144.532 40.1 144.102 39.54L143.472 39.82ZM143.752 42.06V48.4H144.492V42.76H148.552V42.06H143.752ZM148.182 42.06V47.46C148.182 47.59 148.132 47.64 147.972 47.65C147.822 47.65 147.292 47.65 146.712 47.63C146.812 47.84 146.922 48.15 146.962 48.35C147.722 48.35 148.222 48.35 148.522 48.23C148.822 48.1 148.912 47.88 148.912 47.46V42.06H148.182ZM145.992 39.2V42.5H146.742V39.2H145.992ZM140.812 39.83C141.432 40.16 142.182 40.68 142.532 41.05L142.992 40.47C142.622 40.1 141.872 39.62 141.252 39.31L140.812 39.83ZM140.342 42.5C140.972 42.83 141.732 43.34 142.112 43.7L142.562 43.11C142.172 42.75 141.392 42.27 140.772 41.97L140.342 42.5ZM140.652 47.82L141.302 48.3C141.832 47.35 142.452 46.09 142.912 45.02L142.352 44.57C141.832 45.72 141.142 47.04 140.652 47.82ZM150.598 40.28V40.93H154.218V40.28H150.598ZM154.588 42.68L154.698 43.35L159.228 42.63L159.118 41.96L154.588 42.68ZM154.378 44.94L154.478 45.62L159.598 44.84L159.498 44.17L154.378 44.94ZM158.328 39.25C157.488 39.85 155.888 40.44 154.458 40.84C154.558 40.99 154.668 41.25 154.708 41.41C156.208 41 157.878 40.43 158.958 39.75L158.328 39.25ZM156.238 40.66V47.09C156.238 48.01 156.468 48.25 157.308 48.25C157.468 48.25 158.458 48.25 158.638 48.25C159.388 48.25 159.578 47.82 159.658 46.45C159.458 46.4 159.178 46.28 159.008 46.15C158.968 47.34 158.908 47.61 158.588 47.61C158.378 47.61 157.558 47.61 157.398 47.61C157.028 47.61 156.968 47.53 156.968 47.1V40.66H156.238ZM150.448 43.6V44.26H154.418V43.6H150.448ZM150.798 41.92V42.57H154.038V41.92H150.798ZM152.158 39.2V48.39H152.868V39.2H152.158ZM152.118 43.83C151.758 44.77 150.988 45.93 150.328 46.54C150.438 46.7 150.608 47 150.688 47.2C151.418 46.51 152.198 45.16 152.608 44.05L152.118 43.83ZM152.798 44.07L152.368 44.44C152.718 44.85 153.578 45.99 153.878 46.49L154.358 45.89C154.128 45.59 153.088 44.36 152.798 44.07ZM160.452 43.29V44.11H169.602V43.29H160.452ZM170.528 44.28V44.98H174.928V44.28H170.528ZM171.418 41.85H174.118V42.84H171.418V41.85ZM171.418 40.3H174.118V41.27H171.418V40.3ZM170.808 39.7V43.44H174.758V39.7H170.808ZM172.978 45.14L172.598 45.48C173.048 45.85 174.148 46.83 174.518 47.25L174.968 46.66C174.668 46.39 173.358 45.38 172.978 45.14ZM172.478 40.03V43.12H172.418V48.4H173.108V43.12H173.058V40.03H172.478ZM172.438 44.54C172.008 45.54 171.148 46.62 170.338 47.18C170.458 47.37 170.628 47.67 170.698 47.87C171.568 47.21 172.428 45.93 172.918 44.77L172.438 44.54ZM175.028 39.68V40.33H179.538V39.68H175.028ZM175.968 43.39H178.628V44.36H175.968V43.39ZM175.968 44.92H178.628V45.9H175.968V44.92ZM175.968 41.86H178.628V42.82H175.968V41.86ZM175.298 41.27V46.49H179.308V41.27H175.298ZM176.958 40C176.918 40.47 176.778 41.15 176.668 41.59L177.288 41.72C177.438 41.3 177.598 40.67 177.748 40.11L176.958 40ZM176.238 46.69C175.858 47.13 175.048 47.66 174.318 47.95C174.488 48.08 174.718 48.3 174.828 48.44C175.548 48.14 176.388 47.59 176.898 47.07L176.238 46.69ZM177.638 47.11C178.188 47.5 178.878 48.06 179.208 48.43L179.788 48.02C179.448 47.64 178.748 47.1 178.208 46.74L177.638 47.11ZM180.843 41.54V43.28H181.563V42.14H188.533V43.35H189.273V41.54H180.843ZM188.253 39.2C186.633 39.53 183.623 39.73 181.173 39.8C181.233 39.95 181.312 40.21 181.323 40.37C183.823 40.31 186.853 40.11 188.753 39.72L188.253 39.2ZM182.073 40.47C182.363 40.83 182.653 41.34 182.753 41.67L183.403 41.4C183.283 41.05 182.983 40.57 182.673 40.22L182.073 40.47ZM184.253 40.28C184.523 40.67 184.773 41.21 184.843 41.55L185.503 41.32C185.423 40.96 185.153 40.44 184.873 40.06L184.253 40.28ZM186.933 42.98C187.503 43.44 188.173 44.12 188.473 44.57L189.023 44.16C188.713 43.71 188.033 43.06 187.453 42.62L186.933 42.98ZM184.123 42.46C184.653 42.69 185.283 43.07 185.613 43.34L186.003 42.89C185.683 42.62 185.023 42.27 184.503 42.05L184.123 42.46ZM187.613 40.05C187.393 40.51 186.963 41.17 186.653 41.59L187.203 41.83C187.543 41.44 187.973 40.86 188.333 40.33L187.613 40.05ZM187.013 45.14V45.26C185.963 46.81 183.343 47.54 180.593 47.8C180.733 47.95 180.923 48.25 180.993 48.43C183.783 48.08 186.513 47.29 187.783 45.43L187.313 45.12L187.183 45.14H187.013ZM183.283 45.54L182.693 45.79C183.973 47.34 186.413 48.14 189.133 48.42C189.233 48.22 189.413 47.91 189.573 47.75C186.873 47.54 184.433 46.84 183.283 45.54ZM183.963 44.31C183.243 45.21 181.973 45.98 180.733 46.46C180.883 46.57 181.143 46.82 181.263 46.96C182.473 46.42 183.793 45.56 184.623 44.55L183.963 44.31ZM183.313 42.73V43.69C183.313 44.33 183.533 44.48 184.443 44.48C184.623 44.48 185.863 44.48 186.063 44.48C186.713 44.48 186.913 44.29 186.983 43.48C186.793 43.44 186.533 43.36 186.383 43.26C186.353 43.85 186.283 43.92 185.973 43.92C185.703 43.92 184.693 43.92 184.503 43.92C184.083 43.92 184.013 43.89 184.013 43.68V42.73H183.313ZM182.333 42.74C182.113 43.34 181.703 43.93 181.103 44.26L181.633 44.69C182.293 44.3 182.673 43.63 182.913 42.98L182.333 42.74ZM183.503 45.14L182.943 45.7H187.183V45.14H183.503ZM193.127 42V47.02C193.127 48 193.437 48.27 194.497 48.27C194.727 48.27 196.217 48.27 196.457 48.27C197.547 48.27 197.777 47.71 197.887 45.82C197.667 45.77 197.357 45.63 197.177 45.48C197.097 47.21 197.007 47.58 196.417 47.58C196.077 47.58 194.817 47.58 194.567 47.58C194.017 47.58 193.897 47.49 193.897 47.02V42H193.127ZM193.207 39.82C194.417 40.25 195.877 41 196.647 41.58L197.127 40.92C196.337 40.38 194.887 39.66 193.677 39.25L193.207 39.82ZM191.457 42.8C191.317 44.1 190.987 45.56 190.317 46.44L190.997 46.85C191.717 45.89 192.027 44.29 192.177 42.95L191.457 42.8ZM197.287 42.81C198.137 43.94 198.887 45.5 199.107 46.55L199.857 46.19C199.607 45.13 198.857 43.62 197.957 42.48L197.287 42.81Z" fill="#6F7387"/>
<path d="M135.977 126.646H136.68C136.953 126.646 137.18 126.599 137.359 126.505C137.541 126.41 137.676 126.28 137.764 126.114C137.852 125.948 137.896 125.758 137.896 125.543C137.896 125.318 137.855 125.126 137.774 124.967C137.696 124.804 137.575 124.679 137.412 124.591C137.253 124.503 137.049 124.459 136.802 124.459C136.594 124.459 136.405 124.501 136.236 124.586C136.07 124.667 135.938 124.784 135.84 124.937C135.742 125.087 135.694 125.266 135.694 125.475H134.512C134.512 125.097 134.611 124.762 134.81 124.469C135.008 124.176 135.279 123.946 135.62 123.78C135.965 123.611 136.353 123.526 136.782 123.526C137.241 123.526 137.642 123.603 137.984 123.756C138.329 123.906 138.597 124.13 138.789 124.43C138.981 124.729 139.077 125.1 139.077 125.543C139.077 125.745 139.03 125.95 138.936 126.158C138.841 126.366 138.701 126.557 138.516 126.729C138.33 126.899 138.099 127.037 137.822 127.144C137.546 127.249 137.225 127.301 136.861 127.301H135.977V126.646ZM135.977 127.564V126.92H136.861C137.277 126.92 137.632 126.969 137.925 127.066C138.221 127.164 138.462 127.299 138.648 127.472C138.833 127.641 138.968 127.835 139.053 128.053C139.141 128.271 139.185 128.502 139.185 128.746C139.185 129.078 139.125 129.374 139.004 129.635C138.887 129.892 138.719 130.11 138.501 130.289C138.283 130.468 138.028 130.603 137.735 130.694C137.445 130.785 137.129 130.831 136.787 130.831C136.481 130.831 136.188 130.789 135.908 130.704C135.628 130.619 135.378 130.494 135.156 130.328C134.935 130.159 134.759 129.949 134.629 129.698C134.502 129.444 134.439 129.151 134.439 128.819H135.615C135.615 129.031 135.664 129.218 135.762 129.381C135.863 129.54 136.003 129.666 136.182 129.757C136.364 129.848 136.572 129.893 136.807 129.893C137.054 129.893 137.267 129.85 137.446 129.762C137.626 129.674 137.762 129.544 137.857 129.371C137.954 129.199 138.003 128.99 138.003 128.746C138.003 128.469 137.949 128.245 137.842 128.072C137.735 127.9 137.582 127.773 137.383 127.691C137.184 127.607 136.95 127.564 136.68 127.564H135.977ZM141.685 126.646H142.388C142.662 126.646 142.888 126.599 143.067 126.505C143.249 126.41 143.385 126.28 143.472 126.114C143.56 125.948 143.604 125.758 143.604 125.543C143.604 125.318 143.564 125.126 143.482 124.967C143.404 124.804 143.284 124.679 143.121 124.591C142.961 124.503 142.758 124.459 142.511 124.459C142.302 124.459 142.113 124.501 141.944 124.586C141.778 124.667 141.646 124.784 141.549 124.937C141.451 125.087 141.402 125.266 141.402 125.475H140.221C140.221 125.097 140.32 124.762 140.518 124.469C140.717 124.176 140.987 123.946 141.329 123.78C141.674 123.611 142.061 123.526 142.491 123.526C142.95 123.526 143.35 123.603 143.692 123.756C144.037 123.906 144.306 124.13 144.498 124.43C144.69 124.729 144.786 125.1 144.786 125.543C144.786 125.745 144.739 125.95 144.644 126.158C144.55 126.366 144.41 126.557 144.224 126.729C144.039 126.899 143.808 127.037 143.531 127.144C143.254 127.249 142.934 127.301 142.569 127.301H141.685V126.646ZM141.685 127.564V126.92H142.569C142.986 126.92 143.341 126.969 143.634 127.066C143.93 127.164 144.171 127.299 144.356 127.472C144.542 127.641 144.677 127.835 144.762 128.053C144.849 128.271 144.893 128.502 144.893 128.746C144.893 129.078 144.833 129.374 144.713 129.635C144.596 129.892 144.428 130.11 144.21 130.289C143.992 130.468 143.736 130.603 143.443 130.694C143.153 130.785 142.838 130.831 142.496 130.831C142.19 130.831 141.897 130.789 141.617 130.704C141.337 130.619 141.086 130.494 140.865 130.328C140.644 130.159 140.468 129.949 140.338 129.698C140.211 129.444 140.147 129.151 140.147 128.819H141.324C141.324 129.031 141.373 129.218 141.471 129.381C141.571 129.54 141.711 129.666 141.89 129.757C142.073 129.848 142.281 129.893 142.515 129.893C142.763 129.893 142.976 129.85 143.155 129.762C143.334 129.674 143.471 129.544 143.565 129.371C143.663 129.199 143.712 128.99 143.712 128.746C143.712 128.469 143.658 128.245 143.551 128.072C143.443 127.9 143.29 127.773 143.092 127.691C142.893 127.607 142.659 127.564 142.388 127.564H141.685ZM145.965 127.413V128.113H150.365V127.413H145.965ZM146.855 124.983H149.555V125.973H146.855V124.983ZM146.855 123.433H149.555V124.403H146.855V123.433ZM146.245 122.833V126.573H150.195V122.833H146.245ZM148.415 128.273L148.035 128.613C148.485 128.983 149.585 129.963 149.955 130.383L150.405 129.793C150.105 129.523 148.795 128.513 148.415 128.273ZM147.915 123.163V126.253H147.855V131.533H148.545V126.253H148.495V123.163H147.915ZM147.875 127.673C147.445 128.673 146.585 129.753 145.775 130.313C145.895 130.503 146.065 130.803 146.135 131.003C147.005 130.343 147.865 129.063 148.355 127.903L147.875 127.673ZM150.465 122.813V123.463H154.975V122.813H150.465ZM151.405 126.523H154.065V127.493H151.405V126.523ZM151.405 128.053H154.065V129.033H151.405V128.053ZM151.405 124.993H154.065V125.953H151.405V124.993ZM150.735 124.403V129.623H154.745V124.403H150.735ZM152.395 123.133C152.355 123.603 152.215 124.283 152.105 124.723L152.725 124.853C152.875 124.433 153.035 123.803 153.185 123.243L152.395 123.133ZM151.675 129.823C151.295 130.263 150.485 130.793 149.755 131.083C149.925 131.213 150.155 131.433 150.265 131.573C150.985 131.273 151.825 130.723 152.335 130.203L151.675 129.823ZM153.075 130.243C153.625 130.633 154.315 131.193 154.645 131.563L155.225 131.153C154.885 130.773 154.185 130.233 153.645 129.873L153.075 130.243ZM162.29 128.483C162.497 128.057 162.69 127.737 162.87 127.523H157.04V127.103H162.87C162.69 126.89 162.497 126.57 162.29 126.143H162.64C163.06 126.63 163.5 126.99 163.96 127.223V127.403C163.5 127.637 163.06 127.997 162.64 128.483H162.29ZM167.444 126.646H168.147C168.421 126.646 168.647 126.599 168.826 126.505C169.008 126.41 169.143 126.28 169.231 126.114C169.319 125.948 169.363 125.758 169.363 125.543C169.363 125.318 169.322 125.126 169.241 124.967C169.163 124.804 169.042 124.679 168.879 124.591C168.72 124.503 168.517 124.459 168.269 124.459C168.061 124.459 167.872 124.501 167.703 124.586C167.537 124.667 167.405 124.784 167.307 124.937C167.21 125.087 167.161 125.266 167.161 125.475H165.979C165.979 125.097 166.078 124.762 166.277 124.469C166.476 124.176 166.746 123.946 167.087 123.78C167.433 123.611 167.82 123.526 168.25 123.526C168.709 123.526 169.109 123.603 169.451 123.756C169.796 123.906 170.064 124.13 170.256 124.43C170.449 124.729 170.545 125.1 170.545 125.543C170.545 125.745 170.497 125.95 170.403 126.158C170.309 126.366 170.169 126.557 169.983 126.729C169.797 126.899 169.566 127.037 169.29 127.144C169.013 127.249 168.692 127.301 168.328 127.301H167.444V126.646ZM167.444 127.564V126.92H168.328C168.744 126.92 169.099 126.969 169.392 127.066C169.688 127.164 169.929 127.299 170.115 127.472C170.3 127.641 170.435 127.835 170.52 128.053C170.608 128.271 170.652 128.502 170.652 128.746C170.652 129.078 170.592 129.374 170.471 129.635C170.354 129.892 170.186 130.11 169.968 130.289C169.75 130.468 169.495 130.603 169.202 130.694C168.912 130.785 168.596 130.831 168.254 130.831C167.949 130.831 167.656 130.789 167.376 130.704C167.096 130.619 166.845 130.494 166.624 130.328C166.402 130.159 166.226 129.949 166.096 129.698C165.969 129.444 165.906 129.151 165.906 128.819H167.083C167.083 129.031 167.131 129.218 167.229 129.381C167.33 129.54 167.47 129.666 167.649 129.757C167.831 129.848 168.04 129.893 168.274 129.893C168.521 129.893 168.735 129.85 168.914 129.762C169.093 129.674 169.229 129.544 169.324 129.371C169.421 129.199 169.47 128.99 169.47 128.746C169.47 128.469 169.417 128.245 169.309 128.072C169.202 127.9 169.049 127.773 168.85 127.691C168.652 127.607 168.417 127.564 168.147 127.564H167.444ZM176.536 129.796V130.733H171.771V129.928L174.085 127.403C174.339 127.117 174.539 126.869 174.686 126.661C174.832 126.453 174.935 126.266 174.993 126.1C175.055 125.93 175.086 125.766 175.086 125.606C175.086 125.382 175.044 125.185 174.959 125.016C174.878 124.843 174.757 124.708 174.598 124.61C174.438 124.509 174.245 124.459 174.017 124.459C173.753 124.459 173.532 124.516 173.353 124.63C173.174 124.744 173.039 124.902 172.947 125.103C172.856 125.302 172.811 125.53 172.811 125.787H171.634C171.634 125.374 171.728 124.996 171.917 124.654C172.106 124.309 172.379 124.036 172.737 123.834C173.096 123.629 173.527 123.526 174.031 123.526C174.507 123.526 174.91 123.606 175.242 123.766C175.574 123.925 175.827 124.151 175.999 124.444C176.175 124.737 176.263 125.084 176.263 125.484C176.263 125.706 176.227 125.925 176.155 126.143C176.084 126.362 175.981 126.58 175.848 126.798C175.718 127.013 175.563 127.229 175.384 127.447C175.205 127.662 175.008 127.88 174.793 128.102L173.255 129.796H176.536ZM177.432 127.413V128.113H181.832V127.413H177.432ZM178.322 124.983H181.022V125.973H178.322V124.983ZM178.322 123.433H181.022V124.403H178.322V123.433ZM177.712 122.833V126.573H181.662V122.833H177.712ZM179.882 128.273L179.502 128.613C179.952 128.983 181.052 129.963 181.422 130.383L181.872 129.793C181.572 129.523 180.262 128.513 179.882 128.273ZM179.382 123.163V126.253H179.322V131.533H180.012V126.253H179.962V123.163H179.382ZM179.342 127.673C178.912 128.673 178.052 129.753 177.242 130.313C177.362 130.503 177.532 130.803 177.602 131.003C178.472 130.343 179.332 129.063 179.822 127.903L179.342 127.673ZM181.932 122.813V123.463H186.442V122.813H181.932ZM182.872 126.523H185.532V127.493H182.872V126.523ZM182.872 128.053H185.532V129.033H182.872V128.053ZM182.872 124.993H185.532V125.953H182.872V124.993ZM182.202 124.403V129.623H186.212V124.403H182.202ZM183.862 123.133C183.822 123.603 183.682 124.283 183.572 124.723L184.192 124.853C184.342 124.433 184.502 123.803 184.652 123.243L183.862 123.133ZM183.142 129.823C182.762 130.263 181.952 130.793 181.222 131.083C181.392 131.213 181.622 131.433 181.732 131.573C182.452 131.273 183.292 130.723 183.802 130.203L183.142 129.823ZM184.542 130.243C185.092 130.633 185.782 131.193 186.112 131.563L186.692 131.153C186.352 130.773 185.652 130.233 185.112 129.873L184.542 130.243Z" fill="#A8ABBD"/>
<g filter="url(#filter0_d_53_12682)">
<circle cx="160" cy="84.5333" r="20" fill="white"/>
</g>
<path d="M148 82.534C148 81.7367 148.171 80.9474 148.504 80.2121C148.838 79.4769 149.326 78.8105 149.94 78.2519C150.555 77.6933 151.283 77.2537 152.083 76.9588C152.883 76.6639 153.739 76.5196 154.6 76.5344C155.619 76.5293 156.627 76.7249 157.558 77.108C158.489 77.4911 159.321 78.053 160 78.7565C160.679 78.053 161.511 77.4911 162.442 77.108C163.373 76.7249 164.381 76.5293 165.4 76.5344C166.261 76.5196 167.117 76.6639 167.917 76.9588C168.717 77.2537 169.445 77.6933 170.06 78.2519C170.674 78.8105 171.162 79.4769 171.496 80.2121C171.829 80.9474 172 81.7367 172 82.534C172 88.4848 164.345 92.978 160 96.5333C155.664 92.948 148 88.4893 148 82.534Z" fill="#FF4E84"/>
<g clip-path="url(#clip0_53_12682)">
<rect x="25" y="145" width="270" height="40" rx="20" fill="#FF4E84"/>
<path d="M151.198 164.592L151.198 165.636L158.236 165.636L158.236 164.592L151.198 164.592ZM151.198 167.544L151.198 168.606L158.236 168.606L158.236 167.544L151.198 167.544ZM151.216 170.514L151.216 171.666L159.082 171.666L159.082 170.514L151.216 170.514ZM149.164 157.734L149.164 160.812L150.334 160.812L150.334 158.904L157.786 158.904L157.786 160.812L158.992 160.812L158.992 157.734L149.164 157.734ZM154.132 162.45L154.132 171.126L155.392 171.126L155.392 162.45L154.132 162.45ZM151.684 161.586L151.576 161.586L150.406 162.81L150.406 172.44L151.684 172.44L151.684 162.756L158.542 162.756L158.542 161.586L151.684 161.586ZM153.376 155.88C152.494 159.192 150.838 161.982 148.462 163.71C148.75 163.944 149.236 164.448 149.434 164.7C151.864 162.774 153.646 159.786 154.672 156.132L153.376 155.88ZM155.248 159.444C155.032 160.236 154.564 161.37 154.186 162.09L155.23 162.396C155.608 161.712 156.094 160.704 156.526 159.768L155.248 159.444ZM142.756 157.104L142.756 158.346L149.11 158.346L149.11 157.104L142.756 157.104ZM144.574 162.36L144.574 163.566L147.454 163.566L147.454 169.056L144.574 169.056L144.574 170.244L148.642 170.244L148.642 162.36L144.574 162.36ZM144.88 157.698C144.448 161.082 143.674 164.268 142.234 166.302C142.486 166.608 142.864 167.274 143.008 167.58C144.682 165.222 145.618 161.676 146.176 157.896L144.88 157.698ZM144.016 162.36L144.016 171.648L145.15 171.648L145.15 162.36L144.016 162.36ZM163.978 161.388L163.978 162.684L174.472 162.684L174.472 161.388L163.978 161.388ZM169.162 165.69L169.162 166.968L175.228 166.968L175.228 165.69L169.162 165.69ZM168.442 162.054L168.442 170.982L169.846 171.162L169.846 162.054L168.442 162.054ZM164.176 164.232C163.78 167.49 162.808 170.064 160.792 171.63C161.116 171.828 161.692 172.296 161.908 172.53C163.942 170.766 165.076 168.012 165.58 164.376L164.176 164.232ZM165.022 166.554L163.924 166.968C165.472 171.36 168.406 172.206 172.69 172.206L176.92 172.206C176.974 171.81 177.208 171.162 177.424 170.838C176.542 170.856 173.428 170.856 172.762 170.856C169.108 170.856 166.3 170.226 165.022 166.554ZM168.424 155.898L168.424 158.814L169.846 158.814L169.846 155.898L168.424 155.898ZM161.656 157.95L161.656 161.874L162.988 161.874L162.988 159.246L175.318 159.246L175.318 161.874L176.704 161.874L176.704 157.95L161.656 157.95Z" fill="white"/>
</g>
<g clip-path="url(#clip1_53_12682)">
<rect x="25" y="195" width="270" height="40" rx="20" fill="white"/>
<path d="M150.518 208.364L150.518 209.678L157.16 209.678L157.16 208.364L150.518 208.364ZM142.166 207.014L142.166 208.274L150.968 208.274L150.968 207.014L142.166 207.014ZM144.272 210.668L144.272 211.91L148.952 211.91L148.952 210.668L144.272 210.668ZM144.272 214.412L144.272 215.636L148.952 215.636L148.952 214.412L144.272 214.412ZM156.764 208.364L156.764 208.688C155.99 215.006 153.308 219.236 149.744 221.09C150.05 221.342 150.428 221.846 150.644 222.188C154.496 219.956 157.25 215.726 158.114 208.562L157.25 208.328L156.998 208.364L156.764 208.364ZM152.156 209.75L150.86 210.002C151.976 215.654 154.046 220.046 157.952 222.26C158.168 221.9 158.6 221.396 158.906 221.126C155.198 219.218 153.11 214.952 152.156 209.75ZM143.57 207.5L143.57 219.182L144.866 219.182L144.866 207.5L143.57 207.5ZM148.394 207.5L148.394 222.404L149.69 222.404L149.69 207.5L148.394 207.5ZM141.806 218.786L142.058 220.136C143.93 219.848 146.522 219.434 148.988 219.038L148.916 217.796C146.288 218.192 143.57 218.57 141.806 218.786ZM167.366 214.214L167.366 215.402L175.07 215.402L175.07 214.214L167.366 214.214ZM167.33 217.346L167.33 218.516L175.07 218.516L175.07 217.346L167.33 217.346ZM175.196 206.384C174.764 207.446 173.936 208.904 173.306 209.822L174.44 210.308C175.088 209.408 175.862 208.094 176.51 206.906L175.196 206.384ZM165.998 206.996C166.754 208.058 167.528 209.462 167.816 210.398L169.022 209.804C168.716 208.886 167.906 207.5 167.132 206.492L165.998 206.996ZM166.502 211.028L166.502 222.44L167.834 222.44L167.834 212.288L175.142 212.288L175.142 211.028L166.502 211.028ZM174.476 211.028L174.476 220.748C174.476 220.982 174.386 221.072 174.098 221.09C173.828 221.09 172.874 221.09 171.83 221.054C172.01 221.432 172.208 221.99 172.28 222.35C173.648 222.35 174.548 222.35 175.088 222.134C175.628 221.9 175.79 221.504 175.79 220.748L175.79 211.028L174.476 211.028ZM170.534 205.88L170.534 211.82L171.884 211.82L171.884 205.88L170.534 205.88ZM161.21 207.014C162.326 207.608 163.676 208.544 164.306 209.21L165.134 208.166C164.468 207.5 163.118 206.636 162.002 206.078L161.21 207.014ZM160.364 211.82C161.498 212.414 162.866 213.332 163.55 213.98L164.36 212.918C163.658 212.27 162.254 211.406 161.138 210.866L160.364 211.82ZM160.922 221.396L162.092 222.26C163.046 220.55 164.162 218.282 164.99 216.356L163.982 215.546C163.046 217.616 161.804 219.992 160.922 221.396Z" fill="#A8ABBD"/>
</g>
<rect x="26" y="196" width="268" height="38" rx="19" stroke="#A8ABBD" stroke-width="2"/>
<defs>
<filter id="filter0_d_53_12682" x="120" y="44.5333" width="80" height="80" filterUnits="userSpaceOnUse" color-interpolation-filters="sRGB">
<feFlood flood-opacity="0" result="BackgroundImageFix"/>
<feColorMatrix in="SourceAlpha" type="matrix" values="0 0 0 0 0 0 0 0 0 0 0 0 0 0 0 0 0 0 127 0" result="hardAlpha"/>
<feOffset/>
<feGaussianBlur stdDeviation="10"/>
<feComposite in2="hardAlpha" operator="out"/>
<feColorMatrix type="matrix" values="0 0 0 0 0 0 0 0 0 0 0 0 0 0 0 0 0 0 0.25 0"/>
<feBlend mode="normal" in2="BackgroundImageFix" result="effect1_dropShadow_53_12682"/>
<feBlend mode="normal" in="SourceGraphic" in2="effect1_dropShadow_53_12682" result="shape"/>
</filter>
<clipPath id="clip0_53_12682">
<rect x="25" y="145" width="270" height="40" rx="20" fill="white"/>
</clipPath>
<clipPath id="clip1_53_12682">
<rect x="25" y="195" width="270" height="40" rx="20" fill="white"/>
</clipPath>
</defs>
</svg>
