<svg width="335" height="250" viewBox="0 0 335 250" fill="none" xmlns="http://www.w3.org/2000/svg">
<rect x="7" width="320" height="250" rx="15" fill="white"/>
<path d="M127.72 29.7318V30.6918H132.408V29.7318H127.72ZM127.768 25.4598V26.4198H132.344V25.4598H127.768ZM127.72 31.8758V32.8358H132.408V31.8758H127.72ZM126.968 27.5558V28.5478H132.936V27.5558H126.968ZM128.248 34.0358V35.0278H131.352V37.6998H128.248V38.7078H132.408V34.0358H128.248ZM127.704 34.0358V39.4438H128.744V34.0358H127.704ZM133.288 25.9718V26.8998H141.336V25.9718H133.288ZM133.704 27.8598V28.7398H141.096V27.8598H133.704ZM132.888 29.7798V30.7078H141.688V29.7798H132.888ZM136.696 24.8838V30.5638H137.832V24.8838H136.696ZM134.088 31.6518V39.5878H135.224V32.5638H140.248V31.6518H134.088ZM139.576 31.6518V38.3238C139.576 38.5158 139.528 38.5638 139.32 38.5798C139.112 38.5798 138.456 38.5958 137.736 38.5638C137.88 38.8518 138.04 39.2678 138.088 39.5558C139.08 39.5558 139.752 39.5558 140.184 39.3958C140.584 39.2198 140.712 38.9318 140.712 38.3398V31.6518H139.576ZM134.6 33.7158V34.5798H140.152V33.7158H134.6ZM134.6 35.7318V36.5958H140.152V35.7318H134.6ZM151.56 28.9798V29.9718H155.992V28.9798H151.56ZM150.536 33.3478V34.2118H153.16V33.3478H150.536ZM150.536 35.5398V36.4518H153.16V35.5398H150.536ZM154.504 31.5558V37.1878H155.384V31.5558H154.504ZM153.784 26.0678C154.68 27.5078 156.264 29.0918 157.736 30.0358C157.912 29.6998 158.152 29.2678 158.392 28.9798C156.888 28.1798 155.272 26.5798 154.28 24.9478H153.192C152.44 26.4678 150.888 28.2118 149.288 29.1878C149.48 29.4438 149.752 29.8598 149.88 30.1638C151.496 29.1238 152.984 27.4758 153.784 26.0678ZM149.992 31.2038V39.5558H150.872V32.1158H152.984V31.2038H149.992ZM152.712 31.2038V38.5638C152.712 38.6918 152.664 38.7398 152.552 38.7398C152.44 38.7398 152.12 38.7398 151.752 38.7398C151.848 38.9798 151.976 39.3638 152.008 39.6038C152.584 39.6038 152.968 39.5878 153.256 39.4438C153.512 39.2678 153.592 39.0118 153.592 38.5798V31.2038H152.712ZM156.648 30.9478V38.4198C156.648 38.5958 156.584 38.6438 156.408 38.6598C156.232 38.6758 155.64 38.6758 154.968 38.6598C155.096 38.9158 155.24 39.3158 155.272 39.5558C156.216 39.5558 156.792 39.5558 157.176 39.4118C157.528 39.2358 157.64 38.9638 157.64 38.4358V30.9478H156.648ZM143.496 26.6118V27.6838H149.592V26.6118H143.496ZM143.304 35.7478V36.8198H149.544V35.7478H143.304ZM145.944 24.8838V29.2838H147.016V24.8838H145.944ZM146.072 29.3478V34.0038H145.944V39.6358H147.016V34.0038H146.888V29.3478H146.072ZM144.632 32.0998H148.328V33.5558H144.632V32.0998ZM144.632 29.7958H148.328V31.2358H144.632V29.7958ZM143.736 28.8838V34.4518H149.24V28.8838H143.736ZM162.632 25.8598V27.0758H167.16V25.8598H162.632ZM166.552 25.8598C166.552 28.8678 167.08 35.6838 173.48 39.5558C173.704 39.2678 174.184 38.7558 174.456 38.5478C168.136 34.8038 167.784 28.7238 167.784 25.8598H166.552ZM166.104 28.9958C165.128 33.5238 163.128 36.7558 159.576 38.6118C159.896 38.8358 160.44 39.3318 160.664 39.5878C164.2 37.5078 166.312 34.1318 167.464 29.2518L166.104 28.9958ZM178.232 29.4918C177.864 30.5798 177.16 31.6998 176.072 32.3398L177 32.9798C178.168 32.2758 178.808 31.0438 179.224 29.8438L178.232 29.4918ZM180.184 29.2198V32.3558C180.184 33.5398 180.6 33.8438 182.264 33.8438C182.616 33.8438 185.128 33.8438 185.496 33.8438C186.824 33.8438 187.16 33.4118 187.304 31.6518C187 31.5878 186.568 31.4278 186.312 31.2678C186.248 32.6598 186.12 32.8678 185.4 32.8678C184.84 32.8678 182.744 32.8678 182.328 32.8678C181.432 32.8678 181.272 32.7878 181.272 32.3558V29.2198H180.184ZM180.952 28.2918C181.928 28.7398 183.128 29.4918 183.704 30.0518L184.344 29.2678C183.736 28.7238 182.536 28.0198 181.56 27.5878L180.952 28.2918ZM186.968 30.1478C188.056 31.0598 189.256 32.3878 189.768 33.2678L190.696 32.6118C190.152 31.7158 188.92 30.4358 187.832 29.5558L186.968 30.1478ZM186.168 28.2278C184.056 31.0918 180.12 32.9798 175.912 34.0038C176.136 34.2598 176.488 34.7558 176.616 35.0118C180.792 33.8278 184.856 31.8278 187.208 28.6918L186.168 28.2278ZM182.664 34.0998V38.4038H183.896V34.0998H182.664ZM177.896 35.0118V39.6198H179.08V35.0118H177.896ZM187.704 35.0118V39.5718H188.904V35.0118H187.704ZM178.488 37.7958V38.9158H188.344V37.7958H178.488ZM182.664 24.8998V26.9798H183.896V24.8998H182.664ZM176.552 26.2598V29.3958H177.72V27.3478H188.904V29.3958H190.12V26.2598H176.552ZM192.408 25.6518V26.7558H198.28V25.6518H192.408ZM194.056 30.6438V31.6998H196.616V36.4998H194.056V37.5558H197.688V30.6438H194.056ZM194.344 26.1798C193.96 29.1878 193.288 32.0518 192.024 33.8758C192.248 34.1318 192.616 34.7078 192.728 34.9638C194.184 32.8678 195 29.7158 195.496 26.3558L194.344 26.1798ZM193.528 30.6438V38.8838H194.584V30.6438H193.528ZM199.56 28.0838V29.0598H206.04V28.0838H199.56ZM199.56 30.5478V31.5398H206.04V30.5478H199.56ZM198.968 33.0598V34.1158H205.992V33.0598H198.968ZM202.28 26.1158V33.5078H203.368V26.1158H202.28ZM200.296 35.3958C200.472 36.3398 200.568 37.5558 200.536 38.3558L201.416 38.2118C201.432 37.4278 201.32 36.2278 201.128 35.2678L200.296 35.3958ZM201.992 35.2678C202.312 36.0518 202.616 37.0918 202.712 37.7478L203.544 37.5078C203.416 36.8518 203.112 35.8278 202.776 35.0598L201.992 35.2678ZM203.608 34.9158C204.024 35.5238 204.472 36.3238 204.664 36.8518L205.384 36.5158C205.176 36.0198 204.712 35.2198 204.248 34.6438L203.608 34.9158ZM198.744 34.8998C198.6 36.2118 198.28 37.6038 197.576 38.4038L198.424 38.8838C199.192 38.0038 199.496 36.5158 199.656 35.1238L198.744 34.8998ZM198.968 25.5718V33.5878H200.072V26.6278H206.44V25.5718H198.968ZM205.64 33.0598V33.2518C205.496 36.8198 205.304 38.1318 205.016 38.4518C204.888 38.5958 204.76 38.6278 204.504 38.6278C204.264 38.6278 203.624 38.6118 202.936 38.5478C203.112 38.8518 203.224 39.2838 203.24 39.6038C203.944 39.6358 204.632 39.6358 205 39.6038C205.432 39.5718 205.704 39.4598 205.96 39.1558C206.376 38.6918 206.552 37.3158 206.728 33.5558C206.744 33.3958 206.744 33.0598 206.744 33.0598H205.64Z" fill="#383A44"/>
<g filter="url(#filter0_d_63_541567)">
<rect x="20" y="61" width="295" height="50" rx="25" fill="white"/>
</g>
<path d="M47.77 82.824V83.692H51.648V82.824H47.77ZM46.874 86.646V87.402H49.17V86.646H46.874ZM46.874 88.564V89.362H49.17V88.564H46.874ZM50.346 85.078V90.006H51.116V85.078H50.346ZM49.716 80.276C50.5 81.536 51.886 82.922 53.174 83.748C53.328 83.454 53.538 83.076 53.748 82.824C52.432 82.124 51.018 80.724 50.15 79.296H49.198C48.54 80.626 47.182 82.152 45.782 83.006C45.95 83.23 46.188 83.594 46.3 83.86C47.714 82.95 49.016 81.508 49.716 80.276ZM46.398 84.77V92.078H47.168V85.568H49.016V84.77H46.398ZM48.778 84.77V91.21C48.778 91.322 48.736 91.364 48.638 91.364C48.54 91.364 48.26 91.364 47.938 91.364C48.022 91.574 48.134 91.91 48.162 92.12C48.666 92.12 49.002 92.106 49.254 91.98C49.478 91.826 49.548 91.602 49.548 91.224V84.77H48.778ZM52.222 84.546V91.084C52.222 91.238 52.166 91.28 52.012 91.294C51.858 91.308 51.34 91.308 50.752 91.294C50.864 91.518 50.99 91.868 51.018 92.078C51.844 92.078 52.348 92.078 52.684 91.952C52.992 91.798 53.09 91.56 53.09 91.098V84.546H52.222ZM40.714 80.752V81.69H46.048V80.752H40.714ZM40.546 88.746V89.684H46.006V88.746H40.546ZM42.856 79.24V83.09H43.794V79.24H42.856ZM42.968 83.146V87.22H42.856V92.148H43.794V87.22H43.682V83.146H42.968ZM41.708 85.554H44.942V86.828H41.708V85.554ZM41.708 83.538H44.942V84.798H41.708V83.538ZM40.924 82.74V87.612H45.74V82.74H40.924ZM57.213 80.094V81.158H61.175V80.094H57.213ZM60.643 80.094C60.643 82.726 61.105 88.69 66.705 92.078C66.901 91.826 67.321 91.378 67.559 91.196C62.029 87.92 61.721 82.6 61.721 80.094H60.643ZM60.251 82.838C59.397 86.8 57.647 89.628 54.539 91.252C54.819 91.448 55.295 91.882 55.491 92.106C58.585 90.286 60.433 87.332 61.441 83.062L60.251 82.838ZM70.618 83.272C70.296 84.224 69.68 85.204 68.728 85.764L69.54 86.324C70.562 85.708 71.122 84.63 71.486 83.58L70.618 83.272ZM72.326 83.034V85.778C72.326 86.814 72.69 87.08 74.146 87.08C74.454 87.08 76.652 87.08 76.974 87.08C78.136 87.08 78.43 86.702 78.556 85.162C78.29 85.106 77.912 84.966 77.688 84.826C77.632 86.044 77.52 86.226 76.89 86.226C76.4 86.226 74.566 86.226 74.202 86.226C73.418 86.226 73.278 86.156 73.278 85.778V83.034H72.326ZM72.998 82.222C73.852 82.614 74.902 83.272 75.406 83.762L75.966 83.076C75.434 82.6 74.384 81.984 73.53 81.606L72.998 82.222ZM78.262 83.846C79.214 84.644 80.264 85.806 80.712 86.576L81.524 86.002C81.048 85.218 79.97 84.098 79.018 83.328L78.262 83.846ZM77.562 82.166C75.714 84.672 72.27 86.324 68.588 87.22C68.784 87.444 69.092 87.878 69.204 88.102C72.858 87.066 76.414 85.316 78.472 82.572L77.562 82.166ZM74.496 87.304V91.07H75.574V87.304H74.496ZM70.324 88.102V92.134H71.36V88.102H70.324ZM78.906 88.102V92.092H79.956V88.102H78.906ZM70.842 90.538V91.518H79.466V90.538H70.842ZM74.496 79.254V81.074H75.574V79.254H74.496ZM69.148 80.444V83.188H70.17V81.396H79.956V83.188H81.02V80.444H69.148ZM82.777 79.912V80.878H87.915V79.912H82.777ZM84.219 84.28V85.204H86.459V89.404H84.219V90.328H87.397V84.28H84.219ZM84.471 80.374C84.135 83.006 83.547 85.512 82.441 87.108C82.637 87.332 82.959 87.836 83.057 88.06C84.331 86.226 85.045 83.468 85.479 80.528L84.471 80.374ZM83.757 84.28V91.49H84.681V84.28H83.757ZM89.035 82.04V82.894H94.705V82.04H89.035ZM89.035 84.196V85.064H94.705V84.196H89.035ZM88.517 86.394V87.318H94.663V86.394H88.517ZM91.415 80.318V86.786H92.367V80.318H91.415ZM89.679 88.438C89.833 89.264 89.917 90.328 89.889 91.028L90.659 90.902C90.673 90.216 90.575 89.166 90.407 88.326L89.679 88.438ZM91.163 88.326C91.443 89.012 91.709 89.922 91.793 90.496L92.521 90.286C92.409 89.712 92.143 88.816 91.849 88.144L91.163 88.326ZM92.577 88.018C92.941 88.55 93.333 89.25 93.501 89.712L94.131 89.418C93.949 88.984 93.543 88.284 93.137 87.78L92.577 88.018ZM88.321 88.004C88.195 89.152 87.915 90.37 87.299 91.07L88.041 91.49C88.713 90.72 88.979 89.418 89.119 88.2L88.321 88.004ZM88.517 79.842V86.856H89.483V80.766H95.055V79.842H88.517ZM94.355 86.394V86.562C94.229 89.684 94.061 90.832 93.809 91.112C93.697 91.238 93.585 91.266 93.361 91.266C93.151 91.266 92.591 91.252 91.989 91.196C92.143 91.462 92.241 91.84 92.255 92.12C92.871 92.148 93.473 92.148 93.795 92.12C94.173 92.092 94.411 91.994 94.635 91.728C94.999 91.322 95.153 90.118 95.307 86.828C95.321 86.688 95.321 86.394 95.321 86.394H94.355Z" fill="#A8ABBD"/>
<path d="M277.873 91.129C276.028 89.819 274.568 88.115 273.743 87.039C273.512 86.742 273.387 86.3766 273.387 86.0005C273.387 85.6244 273.512 85.259 273.743 84.962C275.236 83.013 278.818 79 283 79C284.876 79 286.63 79.807 288.13 80.874" stroke="#A8ABBD" stroke-width="2" stroke-linecap="round" stroke-linejoin="round"/>
<path d="M281 92.704C281.649 92.8972 282.323 92.9969 283 93C287.182 93 290.764 88.987 292.257 87.038C292.488 86.7407 292.613 86.3751 292.613 85.9988C292.612 85.6226 292.487 85.2571 292.256 84.96C291.731 84.2755 291.168 83.6211 290.57 83M285.13 83.887C284.852 83.6047 284.521 83.3801 284.157 83.2263C283.792 83.0725 283.4 82.9924 283.004 82.9908C282.608 82.9891 282.215 83.0659 281.849 83.2166C281.483 83.3674 281.15 83.5892 280.87 83.8692C280.59 84.1492 280.368 84.4818 280.217 84.848C280.067 85.2142 279.99 85.6066 279.991 86.0026C279.993 86.3986 280.073 86.7904 280.227 87.1554C280.38 87.5203 280.605 87.8512 280.887 88.129L285.13 83.887ZM275 94L291 78L275 94Z" stroke="#A8ABBD" stroke-width="2" stroke-linecap="round" stroke-linejoin="round"/>
<g clip-path="url(#clip0_63_541567)">
<rect x="20" y="150" width="295" height="40" rx="20" fill="#FF4E84"/>
<path d="M158.698 169.592L158.698 170.636L165.736 170.636L165.736 169.592L158.698 169.592ZM158.698 172.544L158.698 173.606L165.736 173.606L165.736 172.544L158.698 172.544ZM158.716 175.514L158.716 176.666L166.582 176.666L166.582 175.514L158.716 175.514ZM156.664 162.734L156.664 165.812L157.834 165.812L157.834 163.904L165.286 163.904L165.286 165.812L166.492 165.812L166.492 162.734L156.664 162.734ZM161.632 167.45L161.632 176.126L162.892 176.126L162.892 167.45L161.632 167.45ZM159.184 166.586L159.076 166.586L157.906 167.81L157.906 177.44L159.184 177.44L159.184 167.756L166.042 167.756L166.042 166.586L159.184 166.586ZM160.876 160.88C159.994 164.192 158.338 166.982 155.962 168.71C156.25 168.944 156.736 169.448 156.934 169.7C159.364 167.774 161.146 164.786 162.172 161.132L160.876 160.88ZM162.748 164.444C162.532 165.236 162.064 166.37 161.686 167.09L162.73 167.396C163.108 166.712 163.594 165.704 164.026 164.768L162.748 164.444ZM150.256 162.104L150.256 163.346L156.61 163.346L156.61 162.104L150.256 162.104ZM152.074 167.36L152.074 168.566L154.954 168.566L154.954 174.056L152.074 174.056L152.074 175.244L156.142 175.244L156.142 167.36L152.074 167.36ZM152.38 162.698C151.948 166.082 151.174 169.268 149.734 171.302C149.986 171.608 150.364 172.274 150.508 172.58C152.182 170.222 153.118 166.676 153.676 162.896L152.38 162.698ZM151.516 167.36L151.516 176.648L152.65 176.648L152.65 167.36L151.516 167.36ZM171.478 166.388L171.478 167.684L181.972 167.684L181.972 166.388L171.478 166.388ZM176.662 170.69L176.662 171.968L182.728 171.968L182.728 170.69L176.662 170.69ZM175.942 167.054L175.942 175.982L177.346 176.162L177.346 167.054L175.942 167.054ZM171.676 169.232C171.28 172.49 170.308 175.064 168.292 176.63C168.616 176.828 169.192 177.296 169.408 177.53C171.442 175.766 172.576 173.012 173.08 169.376L171.676 169.232ZM172.522 171.554L171.424 171.968C172.972 176.36 175.906 177.206 180.19 177.206L184.42 177.206C184.474 176.81 184.708 176.162 184.924 175.838C184.042 175.856 180.928 175.856 180.262 175.856C176.608 175.856 173.8 175.226 172.522 171.554ZM175.924 160.898L175.924 163.814L177.346 163.814L177.346 160.898L175.924 160.898ZM169.156 162.95L169.156 166.874L170.488 166.874L170.488 164.246L182.818 164.246L182.818 166.874L184.204 166.874L184.204 162.95L169.156 162.95Z" fill="white"/>
</g>
<g clip-path="url(#clip1_63_541567)">
<rect x="20" y="200" width="295" height="40" rx="20" fill="white"/>
<path d="M158.518 213.364L158.518 214.678L165.16 214.678L165.16 213.364L158.518 213.364ZM150.166 212.014L150.166 213.274L158.968 213.274L158.968 212.014L150.166 212.014ZM152.272 215.668L152.272 216.91L156.952 216.91L156.952 215.668L152.272 215.668ZM152.272 219.412L152.272 220.636L156.952 220.636L156.952 219.412L152.272 219.412ZM164.764 213.364L164.764 213.688C163.99 220.006 161.308 224.236 157.744 226.09C158.05 226.342 158.428 226.846 158.644 227.188C162.496 224.956 165.25 220.726 166.114 213.562L165.25 213.328L164.998 213.364L164.764 213.364ZM160.156 214.75L158.86 215.002C159.976 220.654 162.046 225.046 165.952 227.26C166.168 226.9 166.6 226.396 166.906 226.126C163.198 224.218 161.11 219.952 160.156 214.75ZM151.57 212.5L151.57 224.182L152.866 224.182L152.866 212.5L151.57 212.5ZM156.394 212.5L156.394 227.404L157.69 227.404L157.69 212.5L156.394 212.5ZM149.806 223.786L150.058 225.136C151.93 224.848 154.522 224.434 156.988 224.038L156.916 222.796C154.288 223.192 151.57 223.57 149.806 223.786ZM175.366 219.214L175.366 220.402L183.07 220.402L183.07 219.214L175.366 219.214ZM175.33 222.346L175.33 223.516L183.07 223.516L183.07 222.346L175.33 222.346ZM183.196 211.384C182.764 212.446 181.936 213.904 181.306 214.822L182.44 215.308C183.088 214.408 183.862 213.094 184.51 211.906L183.196 211.384ZM173.998 211.996C174.754 213.058 175.528 214.462 175.816 215.398L177.022 214.804C176.716 213.886 175.906 212.5 175.132 211.492L173.998 211.996ZM174.502 216.028L174.502 227.44L175.834 227.44L175.834 217.288L183.142 217.288L183.142 216.028L174.502 216.028ZM182.476 216.028L182.476 225.748C182.476 225.982 182.386 226.072 182.098 226.09C181.828 226.09 180.874 226.09 179.83 226.054C180.01 226.432 180.208 226.99 180.28 227.35C181.648 227.35 182.548 227.35 183.088 227.134C183.628 226.9 183.79 226.504 183.79 225.748L183.79 216.028L182.476 216.028ZM178.534 210.88L178.534 216.82L179.884 216.82L179.884 210.88L178.534 210.88ZM169.21 212.014C170.326 212.608 171.676 213.544 172.306 214.21L173.134 213.166C172.468 212.5 171.118 211.636 170.002 211.078L169.21 212.014ZM168.364 216.82C169.498 217.414 170.866 218.332 171.55 218.98L172.36 217.918C171.658 217.27 170.254 216.406 169.138 215.866L168.364 216.82ZM168.922 226.396L170.092 227.26C171.046 225.55 172.162 223.282 172.99 221.356L171.982 220.546C171.046 222.616 169.804 224.992 168.922 226.396Z" fill="#A8ABBD"/>
</g>
<rect x="21" y="201" width="293" height="38" rx="19" stroke="#A8ABBD" stroke-width="2"/>
<defs>
<filter id="filter0_d_63_541567" x="0" y="41" width="335" height="90" filterUnits="userSpaceOnUse" color-interpolation-filters="sRGB">
<feFlood flood-opacity="0" result="BackgroundImageFix"/>
<feColorMatrix in="SourceAlpha" type="matrix" values="0 0 0 0 0 0 0 0 0 0 0 0 0 0 0 0 0 0 127 0" result="hardAlpha"/>
<feOffset/>
<feGaussianBlur stdDeviation="10"/>
<feComposite in2="hardAlpha" operator="out"/>
<feColorMatrix type="matrix" values="0 0 0 0 0 0 0 0 0 0 0 0 0 0 0 0 0 0 0.25 0"/>
<feBlend mode="normal" in2="BackgroundImageFix" result="effect1_dropShadow_63_541567"/>
<feBlend mode="normal" in="SourceGraphic" in2="effect1_dropShadow_63_541567" result="shape"/>
</filter>
<clipPath id="clip0_63_541567">
<rect x="20" y="150" width="295" height="40" rx="20" fill="white"/>
</clipPath>
<clipPath id="clip1_63_541567">
<rect x="20" y="200" width="295" height="40" rx="20" fill="white"/>
</clipPath>
</defs>
</svg>
