<svg width="375" height="35" viewBox="0 0 375 35" fill="none" xmlns="http://www.w3.org/2000/svg">
<path d="M24.47 18.866V19.888H28.278V18.866H24.47ZM16.742 10.9V11.922H22.118V10.9H16.742ZM23.994 9.99V20.91H25.016V10.998H27.718V20.812H28.782V9.99H23.994ZM21.838 10.9V11.152C21.74 17.144 21.614 19.216 21.292 19.65C21.166 19.832 21.04 19.874 20.83 19.86C20.564 19.86 19.962 19.86 19.304 19.804C19.486 20.098 19.598 20.56 19.612 20.868C20.242 20.91 20.886 20.91 21.278 20.854C21.698 20.812 21.95 20.686 22.202 20.322C22.65 19.706 22.748 17.662 22.86 11.432C22.86 11.292 22.86 10.9 22.86 10.9H21.838ZM18.73 8.436C18.716 13.336 18.73 17.956 16.392 20.42C16.658 20.574 17.022 20.896 17.204 21.134C19.668 18.46 19.738 13.602 19.752 8.436H18.73ZM33.213 9.094V10.158H37.175V9.094H33.213ZM36.643 9.094C36.643 11.726 37.105 17.69 42.705 21.078C42.901 20.826 43.321 20.378 43.559 20.196C38.029 16.92 37.721 11.6 37.721 9.094H36.643ZM36.251 11.838C35.397 15.8 33.647 18.628 30.539 20.252C30.819 20.448 31.295 20.882 31.491 21.106C34.585 19.286 36.433 16.332 37.441 12.062L36.251 11.838ZM48.4382 18.4893L51.3708 10.0469H52.7995L49.1149 20H48.0964L48.4382 18.4893ZM45.697 10.0469L48.6022 18.4893L48.9645 20H47.946L44.2682 10.0469H45.697ZM55.5894 10.0469V20H54.27V10.0469H55.5894ZM61.6947 16.0967H59.0355V15.0234H61.6947C62.2097 15.0234 62.6267 14.9414 62.9457 14.7773C63.2647 14.6133 63.4971 14.3854 63.6429 14.0938C63.7933 13.8021 63.8685 13.4694 63.8685 13.0957C63.8685 12.7539 63.7933 12.4326 63.6429 12.1318C63.4971 11.8311 63.2647 11.5895 62.9457 11.4072C62.6267 11.2204 62.2097 11.127 61.6947 11.127H59.3431V20H58.0238V10.0469H61.6947C62.4466 10.0469 63.0824 10.1768 63.6019 10.4365C64.1214 10.6963 64.5157 11.0563 64.7845 11.5166C65.0534 11.9723 65.1879 12.4941 65.1879 13.082C65.1879 13.7201 65.0534 14.2646 64.7845 14.7158C64.5157 15.167 64.1214 15.5111 63.6019 15.748C63.0824 15.9805 62.4466 16.0967 61.6947 16.0967Z" fill="white"/>
<path d="M110.66 11.992V12.736H113.984V11.992H110.66ZM109.892 15.268V15.916H111.86V15.268H109.892ZM109.892 16.912V17.596H111.86V16.912H109.892ZM112.868 13.924V18.148H113.528V13.924H112.868ZM112.328 9.808C113 10.888 114.188 12.076 115.292 12.784C115.424 12.532 115.604 12.208 115.784 11.992C114.656 11.392 113.444 10.192 112.7 8.968H111.884C111.32 10.108 110.156 11.416 108.956 12.148C109.1 12.34 109.304 12.652 109.4 12.88C110.612 12.1 111.728 10.864 112.328 9.808ZM109.484 13.66V19.924H110.144V14.344H111.728V13.66H109.484ZM111.524 13.66V19.18C111.524 19.276 111.488 19.312 111.404 19.312C111.32 19.312 111.08 19.312 110.804 19.312C110.876 19.492 110.972 19.78 110.996 19.96C111.428 19.96 111.716 19.948 111.932 19.84C112.124 19.708 112.184 19.516 112.184 19.192V13.66H111.524ZM114.476 13.468V19.072C114.476 19.204 114.428 19.24 114.296 19.252C114.164 19.264 113.72 19.264 113.216 19.252C113.312 19.444 113.42 19.744 113.444 19.924C114.152 19.924 114.584 19.924 114.872 19.816C115.136 19.684 115.22 19.48 115.22 19.084V13.468H114.476ZM104.612 10.216V11.02H109.184V10.216H104.612ZM104.468 17.068V17.872H109.148V17.068H104.468ZM106.448 8.92V12.22H107.252V8.92H106.448ZM106.544 12.268V15.76H106.448V19.984H107.252V15.76H107.156V12.268H106.544ZM105.464 14.332H108.236V15.424H105.464V14.332ZM105.464 12.604H108.236V13.684H105.464V12.604ZM104.792 11.92V16.096H108.92V11.92H104.792ZM118.754 9.652V10.564H122.15V9.652H118.754ZM121.694 9.652C121.694 11.908 122.09 17.02 126.89 19.924C127.058 19.708 127.418 19.324 127.622 19.168C122.882 16.36 122.618 11.8 122.618 9.652H121.694ZM121.358 12.004C120.626 15.4 119.126 17.824 116.462 19.216C116.702 19.384 117.11 19.756 117.278 19.948C119.93 18.388 121.514 15.856 122.378 12.196L121.358 12.004ZM129.368 11.608V19.972H130.28V12.496H138.344V11.608H129.368ZM137.9 11.608V18.784C137.9 18.976 137.84 19.036 137.624 19.048C137.396 19.06 136.628 19.06 135.848 19.036C135.98 19.288 136.124 19.696 136.16 19.96C137.168 19.96 137.876 19.948 138.284 19.804C138.692 19.648 138.812 19.36 138.812 18.796V11.608H137.9ZM131.468 9.46V10.264H134.036V9.46H131.468ZM133.424 9.46V9.904H133.616C133.796 13.396 134.72 15.928 137.132 17.128C137.276 16.888 137.576 16.54 137.768 16.348C135.416 15.34 134.564 12.916 134.42 9.46H133.424ZM133.52 11.848C133.208 14.104 132.2 15.604 130.388 16.492C130.58 16.636 130.868 16.984 131 17.188C132.932 16.192 133.964 14.464 134.372 11.992L133.52 11.848ZM144.062 11.428C143.378 12.304 142.25 13.144 141.17 13.684C141.362 13.852 141.686 14.212 141.818 14.392C142.91 13.756 144.134 12.76 144.926 11.704L144.062 11.428ZM147.122 11.932C148.238 12.628 149.582 13.648 150.23 14.344L150.902 13.732C150.218 13.048 148.838 12.052 147.734 11.416L147.122 11.932ZM146.102 13.588C147.218 14.944 149.33 16.444 151.118 17.284C151.262 17.032 151.478 16.696 151.682 16.48C149.834 15.724 147.782 14.296 146.498 12.76H145.598C144.65 14.128 142.658 15.724 140.63 16.648C140.81 16.84 141.038 17.176 141.146 17.392C143.15 16.42 145.118 14.884 146.102 13.588ZM142.778 15.94V19.972H143.654V16.744H148.514V19.924H149.426V15.94H142.778ZM143.198 18.76V19.564H148.994V18.76H143.198ZM145.598 8.92V10.492H146.522V8.92H145.598ZM141.074 10.036V12.22H141.962V10.852H150.182V12.22H151.094V10.036H141.074Z" fill="white"/>
<path d="M353.222 9.77805C352.831 9.38664 352.3 9.16675 351.746 9.16675C351.193 9.16675 350.662 9.38664 350.27 9.77805L343.298 16.75C343.061 16.9872 342.895 17.2854 342.817 17.6116L342.178 20.2955C342.161 20.3683 342.163 20.4442 342.183 20.5161C342.203 20.588 342.242 20.6535 342.295 20.7063C342.348 20.7591 342.413 20.7975 342.485 20.8178C342.557 20.8381 342.633 20.8397 342.706 20.8223L345.39 20.183C345.716 20.1054 346.014 19.9388 346.251 19.7017L353.222 12.7297C353.613 12.3383 353.833 11.8074 353.833 11.2539C353.833 10.7003 353.613 10.1695 353.222 9.77805ZM350.889 10.3964C351.001 10.2838 351.135 10.1944 351.282 10.1335C351.429 10.0726 351.587 10.0412 351.746 10.0412C351.905 10.0412 352.063 10.0726 352.21 10.1335C352.357 10.1944 352.491 10.2838 352.604 10.3964C352.716 10.509 352.806 10.6427 352.867 10.7898C352.928 10.9369 352.959 11.0946 352.959 11.2539C352.959 11.4131 352.928 11.5708 352.867 11.718C352.806 11.8651 352.716 11.9988 352.604 12.1114L352.083 12.6311L350.368 10.9167L350.889 10.3975V10.3964ZM349.75 11.5362L351.465 13.25L345.632 19.0834C345.509 19.2059 345.355 19.2916 345.187 19.3319L343.194 19.8061L343.668 17.8135C343.708 17.6455 343.795 17.4909 343.917 17.3684L349.75 11.535V11.5362Z" fill="#A8ABBD"/>
<path d="M0 34H375" stroke="#4A4D5A"/>
</svg>
