<svg width="375" height="31" viewBox="0 0 375 31" fill="none" xmlns="http://www.w3.org/2000/svg">
<path d="M41.26 18.028V18.904H44.524V18.028H41.26ZM34.636 11.2V12.076H39.244V11.2H34.636ZM40.852 10.42V19.78H41.728V11.284H44.044V19.696H44.956V10.42H40.852ZM39.004 11.2V11.416C38.92 16.552 38.812 18.328 38.536 18.7C38.428 18.856 38.32 18.892 38.14 18.88C37.912 18.88 37.396 18.88 36.832 18.832C36.988 19.084 37.084 19.48 37.096 19.744C37.636 19.78 38.188 19.78 38.524 19.732C38.884 19.696 39.1 19.588 39.316 19.276C39.7 18.748 39.784 16.996 39.88 11.656C39.88 11.536 39.88 11.2 39.88 11.2H39.004ZM36.34 9.088C36.328 13.288 36.34 17.248 34.336 19.36C34.564 19.492 34.876 19.768 35.032 19.972C37.144 17.68 37.204 13.516 37.216 9.088H36.34ZM48.754 9.652V10.564H52.15V9.652H48.754ZM51.694 9.652C51.694 11.908 52.09 17.02 56.89 19.924C57.058 19.708 57.418 19.324 57.622 19.168C52.882 16.36 52.618 11.8 52.618 9.652H51.694ZM51.358 12.004C50.626 15.4 49.126 17.824 46.462 19.216C46.702 19.384 47.11 19.756 47.278 19.948C49.93 18.388 51.514 15.856 52.378 12.196L51.358 12.004ZM61.851 17.4414L64.0952 10.4688H65.7182L62.6596 19H61.5639L61.851 17.4414ZM59.7768 10.4688L62.0034 17.4414L62.308 19H61.2065L58.1596 10.4688H59.7768ZM68.2736 10.4688V19H66.8029V10.4688H68.2736ZM73.372 15.8184H71.1512V14.6523H73.372C73.7587 14.6523 74.0712 14.5898 74.3095 14.4648C74.5477 14.3398 74.7216 14.168 74.8309 13.9492C74.9442 13.7266 75.0009 13.4727 75.0009 13.1875C75.0009 12.918 74.9442 12.666 74.8309 12.4316C74.7216 12.1934 74.5477 12.002 74.3095 11.8574C74.0712 11.7129 73.7587 11.6406 73.372 11.6406H71.6024V19H70.1317V10.4688H73.372C74.0321 10.4688 74.5927 10.5859 75.0536 10.8203C75.5184 11.0508 75.872 11.3711 76.1141 11.7812C76.3563 12.1875 76.4774 12.6523 76.4774 13.1758C76.4774 13.7266 76.3563 14.1992 76.1141 14.5938C75.872 14.9883 75.5184 15.291 75.0536 15.502C74.5927 15.7129 74.0321 15.8184 73.372 15.8184Z" fill="white"/>
<path d="M129.55 13.16V13.78H132.32V13.16H129.55ZM128.91 15.89V16.43H130.55V15.89H128.91ZM128.91 17.26V17.83H130.55V17.26H128.91ZM131.39 14.77V18.29H131.94V14.77H131.39ZM130.94 11.34C131.5 12.24 132.49 13.23 133.41 13.82C133.52 13.61 133.67 13.34 133.82 13.16C132.88 12.66 131.87 11.66 131.25 10.64H130.57C130.1 11.59 129.13 12.68 128.13 13.29C128.25 13.45 128.42 13.71 128.5 13.9C129.51 13.25 130.44 12.22 130.94 11.34ZM128.57 14.55V19.77H129.12V15.12H130.44V14.55H128.57ZM130.27 14.55V19.15C130.27 19.23 130.24 19.26 130.17 19.26C130.1 19.26 129.9 19.26 129.67 19.26C129.73 19.41 129.81 19.65 129.83 19.8C130.19 19.8 130.43 19.79 130.61 19.7C130.77 19.59 130.82 19.43 130.82 19.16V14.55H130.27ZM132.73 14.39V19.06C132.73 19.17 132.69 19.2 132.58 19.21C132.47 19.22 132.1 19.22 131.68 19.21C131.76 19.37 131.85 19.62 131.87 19.77C132.46 19.77 132.82 19.77 133.06 19.68C133.28 19.57 133.35 19.4 133.35 19.07V14.39H132.73ZM124.51 11.68V12.35H128.32V11.68H124.51ZM124.39 17.39V18.06H128.29V17.39H124.39ZM126.04 10.6V13.35H126.71V10.6H126.04ZM126.12 13.39V16.3H126.04V19.82H126.71V16.3H126.63V13.39H126.12ZM125.22 15.11H127.53V16.02H125.22V15.11ZM125.22 13.67H127.53V14.57H125.22V13.67ZM124.66 13.1V16.58H128.1V13.1H124.66ZM136.295 11.21V11.97H139.125V11.21H136.295ZM138.745 11.21C138.745 13.09 139.075 17.35 143.075 19.77C143.215 19.59 143.515 19.27 143.685 19.14C139.735 16.8 139.515 13 139.515 11.21H138.745ZM138.465 13.17C137.855 16 136.605 18.02 134.385 19.18C134.585 19.32 134.925 19.63 135.065 19.79C137.275 18.49 138.595 16.38 139.315 13.33L138.465 13.17ZM145.14 12.84V19.81H145.9V13.58H152.62V12.84H145.14ZM152.25 12.84V18.82C152.25 18.98 152.2 19.03 152.02 19.04C151.83 19.05 151.19 19.05 150.54 19.03C150.65 19.24 150.77 19.58 150.8 19.8C151.64 19.8 152.23 19.79 152.57 19.67C152.91 19.54 153.01 19.3 153.01 18.83V12.84H152.25ZM146.89 11.05V11.72H149.03V11.05H146.89ZM148.52 11.05V11.42H148.68C148.83 14.33 149.6 16.44 151.61 17.44C151.73 17.24 151.98 16.95 152.14 16.79C150.18 15.95 149.47 13.93 149.35 11.05H148.52ZM148.6 13.04C148.34 14.92 147.5 16.17 145.99 16.91C146.15 17.03 146.39 17.32 146.5 17.49C148.11 16.66 148.97 15.22 149.31 13.16L148.6 13.04ZM157.385 12.69C156.815 13.42 155.875 14.12 154.975 14.57C155.135 14.71 155.405 15.01 155.515 15.16C156.425 14.63 157.445 13.8 158.105 12.92L157.385 12.69ZM159.935 13.11C160.865 13.69 161.985 14.54 162.525 15.12L163.085 14.61C162.515 14.04 161.365 13.21 160.445 12.68L159.935 13.11ZM159.085 14.49C160.015 15.62 161.775 16.87 163.265 17.57C163.385 17.36 163.565 17.08 163.735 16.9C162.195 16.27 160.485 15.08 159.415 13.8H158.665C157.875 14.94 156.215 16.27 154.525 17.04C154.675 17.2 154.865 17.48 154.955 17.66C156.625 16.85 158.265 15.57 159.085 14.49ZM156.315 16.45V19.81H157.045V17.12H161.095V19.77H161.855V16.45H156.315ZM156.665 18.8V19.47H161.495V18.8H156.665ZM158.665 10.6V11.91H159.435V10.6H158.665ZM154.895 11.53V13.35H155.635V12.21H162.485V13.35H163.245V11.53H154.895Z" fill="white"/>
<path d="M353.222 9.77805C352.831 9.38664 352.3 9.16675 351.746 9.16675C351.193 9.16675 350.662 9.38664 350.27 9.77805L343.298 16.75C343.061 16.9872 342.895 17.2854 342.817 17.6116L342.178 20.2955C342.161 20.3683 342.163 20.4442 342.183 20.5161C342.203 20.588 342.242 20.6535 342.295 20.7063C342.348 20.7591 342.413 20.7975 342.485 20.8178C342.557 20.8381 342.633 20.8397 342.706 20.8223L345.39 20.183C345.716 20.1054 346.014 19.9388 346.251 19.7017L353.222 12.7297C353.613 12.3383 353.833 11.8074 353.833 11.2539C353.833 10.7003 353.613 10.1695 353.222 9.77805ZM350.889 10.3964C351.001 10.2838 351.135 10.1944 351.282 10.1335C351.429 10.0726 351.587 10.0412 351.746 10.0412C351.905 10.0412 352.063 10.0726 352.21 10.1335C352.357 10.1944 352.491 10.2838 352.604 10.3964C352.716 10.509 352.806 10.6427 352.867 10.7898C352.928 10.9369 352.959 11.0946 352.959 11.2539C352.959 11.4131 352.928 11.5708 352.867 11.718C352.806 11.8651 352.716 11.9988 352.604 12.1114L352.083 12.6311L350.368 10.9167L350.889 10.3975V10.3964ZM349.75 11.5362L351.465 13.25L345.632 19.0834C345.509 19.2059 345.355 19.2916 345.187 19.3319L343.194 19.8061L343.668 17.8135C343.708 17.6455 343.795 17.4909 343.917 17.3684L349.75 11.535V11.5362Z" fill="#A8ABBD"/>
<path d="M0 30H375" stroke="#4A4D5A"/>
<circle cx="23" cy="15" r="7" fill="#2CCF54"/>
<g clip-path="url(#clip0_39_12724)">
<path d="M26.1411 14.6631C26.1411 13.2406 24.7321 12.0834 23 12.0834C21.2682 12.0834 19.859 13.2406 19.859 14.6631C19.859 15.9383 20.9765 17.0062 22.4859 17.2082C22.5882 17.2305 22.7274 17.2764 22.7626 17.3649C22.7943 17.4453 22.7834 17.5712 22.7728 17.6524C22.7728 17.6524 22.7359 17.8767 22.728 17.9245C22.7143 18.0048 22.6649 18.2388 23 18.0958C23.3353 17.9529 24.8089 17.0179 25.4679 16.2502C25.9231 15.745 26.1411 15.2324 26.1411 14.6631Z" fill="white"/>
<path d="M22.3619 13.9735H22.1416C22.1078 13.9735 22.0803 14.0012 22.0803 14.0352V15.4187C22.0803 15.4528 22.1078 15.4805 22.1416 15.4805H22.3619C22.3957 15.4805 22.4231 15.4528 22.4231 15.4187V14.0352C22.4231 14.0012 22.3957 13.9735 22.3619 13.9735Z" fill="#2CCF54"/>
<path d="M23.8783 13.9735H23.658C23.6242 13.9735 23.5968 14.0012 23.5968 14.0352V14.8572L22.9696 14.001C22.958 13.9834 22.9392 13.9747 22.9187 13.9735H22.6984C22.6647 13.9735 22.6372 14.0012 22.6372 14.0352V15.4187C22.6372 15.4528 22.6647 15.4805 22.6984 15.4805H22.9187C22.9525 15.4805 22.9799 15.4528 22.9799 15.4187V14.597L23.6079 15.4544C23.6192 15.4705 23.6383 15.4805 23.658 15.4805H23.8783C23.9122 15.4805 23.9395 15.4528 23.9395 15.4187V14.0352C23.9395 14.0012 23.9122 13.9735 23.8783 13.9735Z" fill="#2CCF54"/>
<path d="M21.8307 15.134H21.2321V14.0353C21.2321 14.0011 21.2047 13.9734 21.171 13.9734H20.9506C20.9168 13.9734 20.8894 14.0011 20.8894 14.0353V15.4186C20.8894 15.4521 20.9167 15.4805 20.9505 15.4805H21.8307C21.8645 15.4805 21.8918 15.4527 21.8918 15.4186V15.1959C21.8918 15.1617 21.8645 15.134 21.8307 15.134Z" fill="#2CCF54"/>
<path d="M25.095 14.3199C25.1288 14.3199 25.1561 14.2923 25.1561 14.2581V14.0354C25.1561 14.0012 25.1288 13.9734 25.095 13.9734H24.2149C24.1811 13.9734 24.1537 14.0017 24.1537 14.0353V15.4186C24.1537 15.4521 24.181 15.4805 24.2147 15.4805H25.095C25.1288 15.4805 25.1561 15.4527 25.1561 15.4186V15.1959C25.1561 15.1618 25.1288 15.134 25.095 15.134H24.4964V14.9002H25.095C25.1288 14.9002 25.1561 14.8725 25.1561 14.8383V14.6156C25.1561 14.5815 25.1288 14.5537 25.095 14.5537H24.4964V14.3199H25.095Z" fill="#2CCF54"/>
</g>
<defs>
<clipPath id="clip0_39_12724">
<rect width="7.17949" height="7.17949" fill="white" transform="translate(19.4103 11.4103)"/>
</clipPath>
</defs>
</svg>
