<svg width="375" height="61" viewBox="0 0 375 61" fill="none" xmlns="http://www.w3.org/2000/svg">
<path d="M0 60H375" stroke="#4A4D5A"/>
<path d="M64.47 33.866V34.888H68.278V33.866H64.47ZM56.742 25.9V26.922H62.118V25.9H56.742ZM63.994 24.99V35.91H65.016V25.998H67.718V35.812H68.782V24.99H63.994ZM61.838 25.9V26.152C61.74 32.144 61.614 34.216 61.292 34.65C61.166 34.832 61.04 34.874 60.83 34.86C60.564 34.86 59.962 34.86 59.304 34.804C59.486 35.098 59.598 35.56 59.612 35.868C60.242 35.91 60.886 35.91 61.278 35.854C61.698 35.812 61.95 35.686 62.202 35.322C62.65 34.706 62.748 32.662 62.86 26.432C62.86 26.292 62.86 25.9 62.86 25.9H61.838ZM58.73 23.436C58.716 28.336 58.73 32.956 56.392 35.42C56.658 35.574 57.022 35.896 57.204 36.134C59.668 33.46 59.738 28.602 59.752 23.436H58.73ZM73.213 24.094V25.158H77.175V24.094H73.213ZM76.643 24.094C76.643 26.726 77.105 32.69 82.705 36.078C82.901 35.826 83.321 35.378 83.559 35.196C78.029 31.92 77.721 26.6 77.721 24.094H76.643ZM76.251 26.838C75.397 30.8 73.647 33.628 70.539 35.252C70.819 35.448 71.295 35.882 71.491 36.106C74.585 34.286 76.433 31.332 77.441 27.062L76.251 26.838ZM88.4382 33.4893L91.3708 25.0469H92.7995L89.1149 35H88.0964L88.4382 33.4893ZM85.697 25.0469L88.6022 33.4893L88.9645 35H87.946L84.2682 25.0469H85.697ZM95.5894 25.0469V35H94.27V25.0469H95.5894ZM101.695 31.0967H99.0355V30.0234H101.695C102.21 30.0234 102.627 29.9414 102.946 29.7773C103.265 29.6133 103.497 29.3854 103.643 29.0938C103.793 28.8021 103.869 28.4694 103.869 28.0957C103.869 27.7539 103.793 27.4326 103.643 27.1318C103.497 26.8311 103.265 26.5895 102.946 26.4072C102.627 26.2204 102.21 26.127 101.695 26.127H99.3431V35H98.0238V25.0469H101.695C102.447 25.0469 103.082 25.1768 103.602 25.4365C104.121 25.6963 104.516 26.0563 104.785 26.5166C105.053 26.9723 105.188 27.4941 105.188 28.082C105.188 28.7201 105.053 29.2646 104.785 29.7158C104.516 30.167 104.121 30.5111 103.602 30.748C103.082 30.9805 102.447 31.0967 101.695 31.0967Z" fill="white"/>
<path d="M340.873 21H355.127C355.285 21 355.44 21.0373 355.581 21.1089C355.722 21.1805 355.843 21.2844 355.936 21.412L359.759 26.668C359.827 26.7615 359.86 26.8757 359.854 26.9911C359.847 27.1065 359.8 27.216 359.722 27.301L348.367 39.602C348.277 39.6992 348.152 39.7568 348.02 39.7621C347.887 39.7673 347.758 39.7198 347.661 39.63C347.654 39.624 343.861 35.515 336.278 27.301C336.2 27.216 336.153 27.1065 336.146 26.9911C336.14 26.8757 336.173 26.7615 336.241 26.668L340.064 21.412C340.157 21.2844 340.278 21.1805 340.419 21.1089C340.56 21.0373 340.715 21 340.873 21ZM341.383 23L338.583 26.85L348 37.05L357.417 26.85L354.617 23H341.383Z" fill="#A8ABBD"/>
<circle cx="32" cy="30" r="16" fill="#2CCF54"/>
<path d="M39.1795 29.2298C39.1795 25.9785 35.959 23.3334 32 23.3334C28.0416 23.3334 24.8206 25.9785 24.8206 29.2298C24.8206 32.1445 27.3747 34.5855 30.8249 35.0471C31.0587 35.0981 31.3769 35.2032 31.4574 35.4054C31.5298 35.5891 31.5048 35.8769 31.4806 36.0624C31.4806 36.0624 31.3963 36.5751 31.3782 36.6843C31.3469 36.8681 31.2339 37.4028 32 37.076C32.7663 36.7493 36.1347 34.6122 37.6409 32.8575C38.6814 31.7028 39.1795 30.531 39.1795 29.2298Z" fill="white"/>
<path d="M30.5413 27.6535H30.0377C29.9605 27.6535 29.8977 27.7168 29.8977 27.7946V30.9569C29.8977 31.0349 29.9605 31.098 30.0377 31.098H30.5413C30.6185 31.098 30.6811 31.0349 30.6811 30.9569V27.7946C30.6811 27.7168 30.6185 27.6535 30.5413 27.6535Z" fill="#2CCF54"/>
<path d="M34.0075 27.6535H33.5039C33.4267 27.6535 33.3641 27.7168 33.3641 27.7946V29.6734L31.9305 27.7163C31.904 27.6761 31.861 27.6562 31.8141 27.6535H31.3106C31.2334 27.6535 31.1707 27.7168 31.1707 27.7946V30.9569C31.1707 31.0349 31.2334 31.098 31.3106 31.098H31.8141C31.8914 31.098 31.9541 31.0349 31.9541 30.9569V29.0788L33.3894 31.0383C33.4152 31.0752 33.4589 31.098 33.5039 31.098H34.0075C34.0849 31.098 34.1474 31.0349 34.1474 30.9569V27.7946C34.1474 27.7168 34.0849 27.6535 34.0075 27.6535Z" fill="#2CCF54"/>
<path d="M29.3274 30.3062H27.959V27.7949C27.959 27.7168 27.8964 27.6535 27.8193 27.6535H27.3156C27.2384 27.6535 27.1758 27.7168 27.1758 27.7949V30.9567C27.1758 31.0334 27.2381 31.0981 27.3155 31.0981H29.3274C29.4046 31.0981 29.4669 31.0347 29.4669 30.9567V30.4476C29.4669 30.3695 29.4046 30.3062 29.3274 30.3062Z" fill="#2CCF54"/>
<path d="M36.7886 28.4454C36.8658 28.4454 36.9281 28.3823 36.9281 28.3041V27.795C36.9281 27.717 36.8658 27.6535 36.7886 27.6535H34.7768C34.6995 27.6535 34.637 27.7181 34.637 27.7949V30.9568C34.637 31.0333 34.6994 31.0981 34.7765 31.0981H36.7886C36.8658 31.0981 36.9281 31.0347 36.9281 30.9568V30.4476C36.9281 30.3697 36.8658 30.3062 36.7886 30.3062H35.4204V29.7717H36.7886C36.8658 29.7717 36.9281 29.7084 36.9281 29.6304V29.1213C36.9281 29.0433 36.8658 28.9798 36.7886 28.9798H35.4204V28.4454H36.7886Z" fill="#2CCF54"/>
<path d="M145.77 25.824V26.692H149.648V25.824H145.77ZM144.874 29.646V30.402H147.17V29.646H144.874ZM144.874 31.564V32.362H147.17V31.564H144.874ZM148.346 28.078V33.006H149.116V28.078H148.346ZM147.716 23.276C148.5 24.536 149.886 25.922 151.174 26.748C151.328 26.454 151.538 26.076 151.748 25.824C150.432 25.124 149.018 23.724 148.15 22.296H147.198C146.54 23.626 145.182 25.152 143.782 26.006C143.95 26.23 144.188 26.594 144.3 26.86C145.714 25.95 147.016 24.508 147.716 23.276ZM144.398 27.77V35.078H145.168V28.568H147.016V27.77H144.398ZM146.778 27.77V34.21C146.778 34.322 146.736 34.364 146.638 34.364C146.54 34.364 146.26 34.364 145.938 34.364C146.022 34.574 146.134 34.91 146.162 35.12C146.666 35.12 147.002 35.106 147.254 34.98C147.478 34.826 147.548 34.602 147.548 34.224V27.77H146.778ZM150.222 27.546V34.084C150.222 34.238 150.166 34.28 150.012 34.294C149.858 34.308 149.34 34.308 148.752 34.294C148.864 34.518 148.99 34.868 149.018 35.078C149.844 35.078 150.348 35.078 150.684 34.952C150.992 34.798 151.09 34.56 151.09 34.098V27.546H150.222ZM138.714 23.752V24.69H144.048V23.752H138.714ZM138.546 31.746V32.684H144.006V31.746H138.546ZM140.856 22.24V26.09H141.794V22.24H140.856ZM140.968 26.146V30.22H140.856V35.148H141.794V30.22H141.682V26.146H140.968ZM139.708 28.554H142.942V29.828H139.708V28.554ZM139.708 26.538H142.942V27.798H139.708V26.538ZM138.924 25.74V30.612H143.74V25.74H138.924ZM155.213 23.094V24.158H159.175V23.094H155.213ZM158.643 23.094C158.643 25.726 159.105 31.69 164.705 35.078C164.901 34.826 165.321 34.378 165.559 34.196C160.029 30.92 159.721 25.6 159.721 23.094H158.643ZM158.251 25.838C157.397 29.8 155.647 32.628 152.539 34.252C152.819 34.448 153.295 34.882 153.491 35.106C156.585 33.286 158.433 30.332 159.441 26.062L158.251 25.838ZM167.596 25.376V35.134H168.66V26.412H178.068V25.376H167.596ZM177.55 25.376V33.748C177.55 33.972 177.48 34.042 177.228 34.056C176.962 34.07 176.066 34.07 175.156 34.042C175.31 34.336 175.478 34.812 175.52 35.12C176.696 35.12 177.522 35.106 177.998 34.938C178.474 34.756 178.614 34.42 178.614 33.762V25.376H177.55ZM170.046 22.87V23.808H173.042V22.87H170.046ZM172.328 22.87V23.388H172.552C172.762 27.462 173.84 30.416 176.654 31.816C176.822 31.536 177.172 31.13 177.396 30.906C174.652 29.73 173.658 26.902 173.49 22.87H172.328ZM172.44 25.656C172.076 28.288 170.9 30.038 168.786 31.074C169.01 31.242 169.346 31.648 169.5 31.886C171.754 30.724 172.958 28.708 173.434 25.824L172.44 25.656ZM184.739 25.166C183.941 26.188 182.625 27.168 181.365 27.798C181.589 27.994 181.967 28.414 182.121 28.624C183.395 27.882 184.823 26.72 185.747 25.488L184.739 25.166ZM188.309 25.754C189.611 26.566 191.179 27.756 191.935 28.568L192.719 27.854C191.921 27.056 190.311 25.894 189.023 25.152L188.309 25.754ZM187.119 27.686C188.421 29.268 190.885 31.018 192.971 31.998C193.139 31.704 193.391 31.312 193.629 31.06C191.473 30.178 189.079 28.512 187.581 26.72H186.531C185.425 28.316 183.101 30.178 180.735 31.256C180.945 31.48 181.211 31.872 181.337 32.124C183.675 30.99 185.971 29.198 187.119 27.686ZM183.241 30.43V35.134H184.263V31.368H189.933V35.078H190.997V30.43H183.241ZM183.731 33.72V34.658H190.493V33.72H183.731ZM186.531 22.24V24.074H187.609V22.24H186.531ZM181.253 23.542V26.09H182.289V24.494H191.879V26.09H192.943V23.542H181.253Z" fill="white"/>
</svg>
