<svg width="295" height="50" viewBox="0 0 295 50" fill="none" xmlns="http://www.w3.org/2000/svg">
<rect x="0.5" y="0.5" width="294" height="49" rx="24.5" fill="white" stroke="#FF4E84"/>
<path d="M27.77 21.824V22.692H31.648V21.824H27.77ZM26.874 25.646V26.402H29.17V25.646H26.874ZM26.874 27.564V28.362H29.17V27.564H26.874ZM30.346 24.078V29.006H31.116V24.078H30.346ZM29.716 19.276C30.5 20.536 31.886 21.922 33.174 22.748C33.328 22.454 33.538 22.076 33.748 21.824C32.432 21.124 31.018 19.724 30.15 18.296H29.198C28.54 19.626 27.182 21.152 25.782 22.006C25.95 22.23 26.188 22.594 26.3 22.86C27.714 21.95 29.016 20.508 29.716 19.276ZM26.398 23.77V31.078H27.168V24.568H29.016V23.77H26.398ZM28.778 23.77V30.21C28.778 30.322 28.736 30.364 28.638 30.364C28.54 30.364 28.26 30.364 27.938 30.364C28.022 30.574 28.134 30.91 28.162 31.12C28.666 31.12 29.002 31.106 29.254 30.98C29.478 30.826 29.548 30.602 29.548 30.224V23.77H28.778ZM32.222 23.546V30.084C32.222 30.238 32.166 30.28 32.012 30.294C31.858 30.308 31.34 30.308 30.752 30.294C30.864 30.518 30.99 30.868 31.018 31.078C31.844 31.078 32.348 31.078 32.684 30.952C32.992 30.798 33.09 30.56 33.09 30.098V23.546H32.222ZM20.714 19.752V20.69H26.048V19.752H20.714ZM20.546 27.746V28.684H26.006V27.746H20.546ZM22.856 18.24V22.09H23.794V18.24H22.856ZM22.968 22.146V26.22H22.856V31.148H23.794V26.22H23.682V22.146H22.968ZM21.708 24.554H24.942V25.828H21.708V24.554ZM21.708 22.538H24.942V23.798H21.708V22.538ZM20.924 21.74V26.612H25.74V21.74H20.924ZM37.213 19.094V20.158H41.175V19.094H37.213ZM40.643 19.094C40.643 21.726 41.105 27.69 46.705 31.078C46.901 30.826 47.321 30.378 47.559 30.196C42.029 26.92 41.721 21.6 41.721 19.094H40.643ZM40.251 21.838C39.397 25.8 37.647 28.628 34.539 30.252C34.819 30.448 35.295 30.882 35.491 31.106C38.585 29.286 40.433 26.332 41.441 22.062L40.251 21.838ZM50.618 22.272C50.296 23.224 49.68 24.204 48.728 24.764L49.54 25.324C50.562 24.708 51.122 23.63 51.486 22.58L50.618 22.272ZM52.326 22.034V24.778C52.326 25.814 52.69 26.08 54.146 26.08C54.454 26.08 56.652 26.08 56.974 26.08C58.136 26.08 58.43 25.702 58.556 24.162C58.29 24.106 57.912 23.966 57.688 23.826C57.632 25.044 57.52 25.226 56.89 25.226C56.4 25.226 54.566 25.226 54.202 25.226C53.418 25.226 53.278 25.156 53.278 24.778V22.034H52.326ZM52.998 21.222C53.852 21.614 54.902 22.272 55.406 22.762L55.966 22.076C55.434 21.6 54.384 20.984 53.53 20.606L52.998 21.222ZM58.262 22.846C59.214 23.644 60.264 24.806 60.712 25.576L61.524 25.002C61.048 24.218 59.97 23.098 59.018 22.328L58.262 22.846ZM57.562 21.166C55.714 23.672 52.27 25.324 48.588 26.22C48.784 26.444 49.092 26.878 49.204 27.102C52.858 26.066 56.414 24.316 58.472 21.572L57.562 21.166ZM54.496 26.304V30.07H55.574V26.304H54.496ZM50.324 27.102V31.134H51.36V27.102H50.324ZM58.906 27.102V31.092H59.956V27.102H58.906ZM50.842 29.538V30.518H59.466V29.538H50.842ZM54.496 18.254V20.074H55.574V18.254H54.496ZM49.148 19.444V22.188H50.17V20.396H59.956V22.188H61.02V19.444H49.148ZM62.777 18.912V19.878H67.915V18.912H62.777ZM64.219 23.28V24.204H66.459V28.404H64.219V29.328H67.397V23.28H64.219ZM64.471 19.374C64.135 22.006 63.547 24.512 62.441 26.108C62.637 26.332 62.959 26.836 63.057 27.06C64.331 25.226 65.045 22.468 65.479 19.528L64.471 19.374ZM63.757 23.28V30.49H64.681V23.28H63.757ZM69.035 21.04V21.894H74.705V21.04H69.035ZM69.035 23.196V24.064H74.705V23.196H69.035ZM68.517 25.394V26.318H74.663V25.394H68.517ZM71.415 19.318V25.786H72.367V19.318H71.415ZM69.679 27.438C69.833 28.264 69.917 29.328 69.889 30.028L70.659 29.902C70.673 29.216 70.575 28.166 70.407 27.326L69.679 27.438ZM71.163 27.326C71.443 28.012 71.709 28.922 71.793 29.496L72.521 29.286C72.409 28.712 72.143 27.816 71.849 27.144L71.163 27.326ZM72.577 27.018C72.941 27.55 73.333 28.25 73.501 28.712L74.131 28.418C73.949 27.984 73.543 27.284 73.137 26.78L72.577 27.018ZM68.321 27.004C68.195 28.152 67.915 29.37 67.299 30.07L68.041 30.49C68.713 29.72 68.979 28.418 69.119 27.2L68.321 27.004ZM68.517 18.842V25.856H69.483V19.766H75.055V18.842H68.517ZM74.355 25.394V25.562C74.229 28.684 74.061 29.832 73.809 30.112C73.697 30.238 73.585 30.266 73.361 30.266C73.151 30.266 72.591 30.252 71.989 30.196C72.143 30.462 72.241 30.84 72.255 31.12C72.871 31.148 73.473 31.148 73.795 31.12C74.173 31.092 74.411 30.994 74.635 30.728C74.999 30.322 75.153 29.118 75.307 25.828C75.321 25.688 75.321 25.394 75.321 25.394H74.355Z" fill="#4A4D5A"/>
<path d="M257.873 30.129C256.028 28.819 254.568 27.115 253.743 26.039C253.512 25.742 253.387 25.3766 253.387 25.0005C253.387 24.6244 253.512 24.259 253.743 23.962C255.236 22.013 258.818 18 263 18C264.876 18 266.63 18.807 268.13 19.874" stroke="#A8ABBD" stroke-width="2" stroke-linecap="round" stroke-linejoin="round"/>
<path d="M261 31.704C261.649 31.8972 262.323 31.9969 263 32C267.182 32 270.764 27.987 272.257 26.038C272.488 25.7407 272.613 25.3751 272.613 24.9988C272.612 24.6226 272.487 24.2571 272.256 23.96C271.731 23.2755 271.168 22.6211 270.57 22M265.13 22.887C264.852 22.6047 264.521 22.3801 264.157 22.2263C263.792 22.0725 263.4 21.9924 263.004 21.9908C262.608 21.9891 262.215 22.0659 261.849 22.2166C261.483 22.3674 261.15 22.5892 260.87 22.8692C260.59 23.1492 260.368 23.4818 260.217 23.848C260.067 24.2142 259.99 24.6066 259.991 25.0026C259.993 25.3986 260.073 25.7904 260.227 26.1554C260.38 26.5203 260.605 26.8512 260.887 27.129L265.13 22.887ZM255 33L271 17L255 33Z" stroke="#A8ABBD" stroke-width="2" stroke-linecap="round" stroke-linejoin="round"/>
</svg>
