<svg width="375" height="44" viewBox="0 0 375 44" fill="none" xmlns="http://www.w3.org/2000/svg">
<g clip-path="url(#clip0_53_51792)">
<rect x="10" y="42" width="176" height="2" rx="1" fill="#6F7387"/>
<path d="M69.363 23.72L69.663 24.62C70.647 24.332 71.919 23.936 73.143 23.552L73.035 22.748C71.667 23.12 70.287 23.504 69.363 23.72ZM72.639 15.98V26.96H73.515V15.98H72.639ZM70.179 17.312V23.828H71.043V17.312H70.179ZM75.447 18.152V19.004H80.511V18.152H75.447ZM75.771 15.92C75.327 17.924 74.547 19.868 73.479 21.092C73.695 21.236 74.067 21.56 74.211 21.74C75.315 20.384 76.167 18.308 76.695 16.1L75.771 15.92ZM78.951 18.56C78.219 22.376 76.707 24.812 73.623 26.192C73.791 26.384 74.067 26.792 74.151 26.996C77.367 25.424 79.011 22.82 79.851 18.704L78.951 18.56ZM75.771 18.848L74.955 19.004C75.747 22.748 77.235 25.652 80.031 26.996C80.163 26.756 80.451 26.408 80.655 26.228C77.967 25.076 76.467 22.268 75.771 18.848ZM81.705 16.772V17.54H92.277V16.772H81.705ZM84.117 18.836V19.616H92.409V18.836H84.117ZM82.389 20.948V21.692H84.033V20.948H82.389ZM81.477 22.688V23.444H83.985V22.688H81.477ZM85.413 24.956V25.58H88.773V24.956H85.413ZM84.549 15.932V18.38H85.437V15.932H84.549ZM88.473 15.932V18.392H89.361V15.932H88.473ZM86.769 20.696V22.148H87.417V20.696H86.769ZM82.005 18.896V22.064H82.713V18.896H82.005ZM86.769 23.756V25.22H87.417V23.756H86.769ZM85.485 21.824V22.424H88.005V23.48H85.485V24.068H88.665V21.824H85.485ZM85.089 20.36V26.3H85.773V20.984H88.665V20.36H85.089ZM83.709 18.836V22.148C83.709 23.516 83.637 25.316 82.929 26.6C83.121 26.672 83.469 26.864 83.613 26.996C84.357 25.64 84.477 23.624 84.477 22.16V18.836H83.709ZM88.881 18.044C89.025 23.78 89.901 26.984 91.449 26.984C92.157 26.984 92.457 26.684 92.589 25.076C92.385 25.004 92.121 24.836 91.941 24.668C91.881 25.856 91.761 26.168 91.509 26.18C90.657 26.18 89.745 23.54 89.697 18.044H88.881ZM90.237 18.068C90.669 18.332 91.161 18.728 91.389 19.028L91.953 18.572C91.713 18.284 91.197 17.9 90.765 17.648L90.237 18.068ZM90.993 20.36C90.453 23.048 89.349 25.16 87.501 26.432C87.693 26.564 88.029 26.84 88.173 26.984C90.009 25.58 91.173 23.396 91.797 20.492L90.993 20.36ZM82.137 22.952V23.972C82.137 24.728 82.041 25.808 81.393 26.588C81.549 26.672 81.813 26.852 81.945 26.972C82.689 26.108 82.821 24.86 82.821 23.996V22.952H82.137ZM101.451 16.712C102.159 17.336 102.975 18.2 103.335 18.776L104.079 18.248C103.683 17.696 102.843 16.844 102.135 16.244L101.451 16.712ZM93.675 19.472V20.336H104.367V19.472H93.675ZM93.495 23L93.759 23.9C95.271 23.564 97.395 23.072 99.363 22.616L99.291 21.8C97.179 22.256 94.923 22.736 93.495 23ZM96.255 17.144V25.796C96.255 26.012 96.183 26.072 95.967 26.072C95.751 26.084 95.043 26.096 94.275 26.06C94.407 26.324 94.563 26.732 94.611 26.972C95.607 26.984 96.243 26.948 96.627 26.804C97.011 26.66 97.155 26.396 97.155 25.808V17.144H96.255ZM98.535 16.064C97.383 16.496 95.439 16.904 93.747 17.168C93.867 17.372 93.975 17.708 94.023 17.912C95.739 17.672 97.779 17.3 99.171 16.82L98.535 16.064ZM99.735 16.028C99.783 21.74 100.851 27.008 103.203 27.008C104.103 27.008 104.427 26.42 104.595 24.428C104.343 24.332 104.019 24.128 103.827 23.924C103.755 25.472 103.611 26.096 103.287 26.096C101.823 26.096 100.647 21.536 100.671 16.028H99.735ZM102.987 20.888C101.919 22.916 99.939 24.764 97.803 25.796C98.031 26 98.283 26.288 98.427 26.516C100.635 25.352 102.615 23.42 103.791 21.224L102.987 20.888ZM106.617 17.852V18.656H109.425V24.884H106.617V25.7H110.265V17.852H106.617ZM106.077 17.852V26.66H106.917V17.852H106.077ZM106.557 21.188V21.992H109.869V21.188H106.557ZM107.913 15.896C107.817 16.52 107.589 17.432 107.385 18.008L108.105 18.188C108.345 17.648 108.645 16.82 108.885 16.076L107.913 15.896ZM111.969 17.816V18.656H115.653V17.816H111.969ZM115.341 17.816V18.008C115.173 23.3 114.981 25.292 114.585 25.724C114.453 25.88 114.309 25.916 114.069 25.916C113.793 25.916 113.073 25.904 112.293 25.844C112.461 26.084 112.569 26.456 112.593 26.72C113.265 26.756 113.973 26.78 114.381 26.732C114.801 26.696 115.077 26.588 115.341 26.24C115.821 25.652 115.989 23.792 116.181 18.284C116.181 18.152 116.181 17.816 116.181 17.816H115.341ZM112.221 15.872C111.837 17.54 111.177 19.196 110.361 20.252C110.577 20.372 110.949 20.624 111.105 20.768C111.933 19.628 112.641 17.864 113.085 16.076L112.221 15.872ZM111.669 20.936C112.329 21.812 113.133 23 113.493 23.732L114.261 23.252C113.877 22.544 113.049 21.38 112.365 20.528L111.669 20.936Z" fill="#6F7387"/>
<rect x="189" y="42" width="176" height="2" rx="1" fill="#FF4E84"/>
<path d="M266.391 16.712C267.099 17.336 267.915 18.2 268.275 18.776L269.019 18.248C268.623 17.696 267.783 16.844 267.075 16.244L266.391 16.712ZM258.615 19.472V20.336H269.307V19.472H258.615ZM258.435 23L258.699 23.9C260.211 23.564 262.335 23.072 264.303 22.616L264.231 21.8C262.119 22.256 259.863 22.736 258.435 23ZM261.195 17.144V25.796C261.195 26.012 261.123 26.072 260.907 26.072C260.691 26.084 259.983 26.096 259.215 26.06C259.347 26.324 259.503 26.732 259.551 26.972C260.547 26.984 261.183 26.948 261.567 26.804C261.951 26.66 262.095 26.396 262.095 25.808V17.144H261.195ZM263.475 16.064C262.323 16.496 260.379 16.904 258.687 17.168C258.807 17.372 258.915 17.708 258.963 17.912C260.679 17.672 262.719 17.3 264.111 16.82L263.475 16.064ZM264.675 16.028C264.723 21.74 265.791 27.008 268.143 27.008C269.043 27.008 269.367 26.42 269.535 24.428C269.283 24.332 268.959 24.128 268.767 23.924C268.695 25.472 268.551 26.096 268.227 26.096C266.763 26.096 265.587 21.536 265.611 16.028H264.675ZM267.927 20.888C266.859 22.916 264.879 24.764 262.743 25.796C262.971 26 263.223 26.288 263.367 26.516C265.575 25.352 267.555 23.42 268.731 21.224L267.927 20.888ZM270.393 23.72L270.693 24.62C271.677 24.332 272.949 23.936 274.173 23.552L274.065 22.748C272.697 23.12 271.317 23.504 270.393 23.72ZM273.669 15.98V26.96H274.545V15.98H273.669ZM271.209 17.312V23.828H272.073V17.312H271.209ZM276.477 18.152V19.004H281.541V18.152H276.477ZM276.801 15.92C276.357 17.924 275.577 19.868 274.509 21.092C274.725 21.236 275.097 21.56 275.241 21.74C276.345 20.384 277.197 18.308 277.725 16.1L276.801 15.92ZM279.981 18.56C279.249 22.376 277.737 24.812 274.653 26.192C274.821 26.384 275.097 26.792 275.181 26.996C278.397 25.424 280.041 22.82 280.881 18.704L279.981 18.56ZM276.801 18.848L275.985 19.004C276.777 22.748 278.265 25.652 281.061 26.996C281.193 26.756 281.481 26.408 281.685 26.228C278.997 25.076 277.497 22.268 276.801 18.848ZM282.735 16.772V17.54H293.307V16.772H282.735ZM285.147 18.836V19.616H293.439V18.836H285.147ZM283.419 20.948V21.692H285.063V20.948H283.419ZM282.507 22.688V23.444H285.015V22.688H282.507ZM286.443 24.956V25.58H289.803V24.956H286.443ZM285.579 15.932V18.38H286.467V15.932H285.579ZM289.503 15.932V18.392H290.391V15.932H289.503ZM287.799 20.696V22.148H288.447V20.696H287.799ZM283.035 18.896V22.064H283.743V18.896H283.035ZM287.799 23.756V25.22H288.447V23.756H287.799ZM286.515 21.824V22.424H289.035V23.48H286.515V24.068H289.695V21.824H286.515ZM286.119 20.36V26.3H286.803V20.984H289.695V20.36H286.119ZM284.739 18.836V22.148C284.739 23.516 284.667 25.316 283.959 26.6C284.151 26.672 284.499 26.864 284.643 26.996C285.387 25.64 285.507 23.624 285.507 22.16V18.836H284.739ZM289.911 18.044C290.055 23.78 290.931 26.984 292.479 26.984C293.187 26.984 293.487 26.684 293.619 25.076C293.415 25.004 293.151 24.836 292.971 24.668C292.911 25.856 292.791 26.168 292.539 26.18C291.687 26.18 290.775 23.54 290.727 18.044H289.911ZM291.267 18.068C291.699 18.332 292.191 18.728 292.419 19.028L292.983 18.572C292.743 18.284 292.227 17.9 291.795 17.648L291.267 18.068ZM292.023 20.36C291.483 23.048 290.379 25.16 288.531 26.432C288.723 26.564 289.059 26.84 289.203 26.984C291.039 25.58 292.203 23.396 292.827 20.492L292.023 20.36ZM283.167 22.952V23.972C283.167 24.728 283.071 25.808 282.423 26.588C282.579 26.672 282.843 26.852 282.975 26.972C283.719 26.108 283.851 24.86 283.851 23.996V22.952H283.167ZM295.617 17.852V18.656H298.425V24.884H295.617V25.7H299.265V17.852H295.617ZM295.077 17.852V26.66H295.917V17.852H295.077ZM295.557 21.188V21.992H298.869V21.188H295.557ZM296.913 15.896C296.817 16.52 296.589 17.432 296.385 18.008L297.105 18.188C297.345 17.648 297.645 16.82 297.885 16.076L296.913 15.896ZM300.969 17.816V18.656H304.653V17.816H300.969ZM304.341 17.816V18.008C304.173 23.3 303.981 25.292 303.585 25.724C303.453 25.88 303.309 25.916 303.069 25.916C302.793 25.916 302.073 25.904 301.293 25.844C301.461 26.084 301.569 26.456 301.593 26.72C302.265 26.756 302.973 26.78 303.381 26.732C303.801 26.696 304.077 26.588 304.341 26.24C304.821 25.652 304.989 23.792 305.181 18.284C305.181 18.152 305.181 17.816 305.181 17.816H304.341ZM301.221 15.872C300.837 17.54 300.177 19.196 299.361 20.252C299.577 20.372 299.949 20.624 300.105 20.768C300.933 19.628 301.641 17.864 302.085 16.076L301.221 15.872ZM300.669 20.936C301.329 21.812 302.133 23 302.493 23.732L303.261 23.252C302.877 22.544 302.049 21.38 301.365 20.528L300.669 20.936Z" fill="white"/>
</g>
<defs>
<clipPath id="clip0_53_51792">
<rect width="375" height="44" fill="white"/>
</clipPath>
</defs>
</svg>
