<svg width="375" height="70" viewBox="0 0 375 70" fill="none" xmlns="http://www.w3.org/2000/svg">
<g clip-path="url(#clip0_2162_43328)">
<rect width="375" height="70" fill="#FF4E84"/>
<rect width="375" height="70" transform="translate(-70)" fill="#383A44"/>
<circle cx="277" cy="45" r="10" fill="#FF4E84"/>
<path d="M278.423 40.4395V49H277.011V42.1152L274.919 42.8242V41.6582L278.253 40.4395H278.423Z" fill="white"/>
<path d="M29.25 15.625V27H27.2891V15.625H29.25ZM41.0309 15.625V27H39.07L33.9684 18.8516V27H32.0075V15.625H33.9684L39.0856 23.7891V15.625H41.0309ZM44.4837 15.625H46.2337L49.5228 24.3984L52.8041 15.625H54.5541L50.2103 27H48.8197L44.4837 15.625ZM43.6869 15.625H45.3509L45.64 23.2188V27H43.6869V15.625ZM53.6869 15.625H55.3587V27H53.3978V23.2188L53.6869 15.625ZM65.4522 25.4453V27H59.4131V25.4453H65.4522ZM59.9678 15.625V27H58.0069V15.625H59.9678ZM64.6631 20.375V21.9062H59.4131V20.375H64.6631ZM65.4131 15.625V17.1875H59.4131V15.625H65.4131ZM74.8191 25.4453V27H68.78V25.4453H74.8191ZM69.3347 15.625V27H67.3737V15.625H69.3347ZM74.03 20.375V21.9062H68.78V20.375H74.03ZM74.78 15.625V17.1875H68.78V15.625H74.78ZM81.5766 15.625V27H79.6312V15.625H81.5766ZM85.1469 15.625V17.1875H76.0922V15.625H85.1469ZM93.2186 13.8V26.616C93.2186 26.936 93.1066 27.048 92.7706 27.048C92.4506 27.064 91.2986 27.08 90.1146 27.032C90.3226 27.384 90.5466 27.944 90.6106 28.296C92.1306 28.296 93.1226 28.264 93.6986 28.056C94.2746 27.864 94.5146 27.512 94.5146 26.616V13.8H93.2186ZM97.0906 17.88C98.4506 20.168 99.7466 23.176 100.131 25.064L101.411 24.552C100.995 22.616 99.6346 19.688 98.2426 17.432L97.0906 17.88ZM89.0266 17.544C88.6266 19.704 87.7466 22.472 86.3226 24.168C86.6426 24.296 87.1706 24.584 87.4586 24.808C88.9146 23.016 89.8426 20.12 90.3706 17.768L89.0266 17.544ZM109.523 23.704V28.28H110.707V23.704H109.523ZM104.147 24.776V28.024H105.315V25.656H115.683V24.776H104.147ZM115.235 24.776V26.872C115.235 27.048 115.171 27.096 114.931 27.112C114.691 27.128 113.923 27.128 112.995 27.096C113.155 27.368 113.331 27.704 113.395 28.008C114.563 28.008 115.331 28.008 115.811 27.864C116.275 27.704 116.403 27.432 116.403 26.872V24.776H115.235ZM110.259 15V15.928H117.299V15H110.259ZM103.715 14.44V15.128H109.667V14.44H103.715ZM103.475 17.352V18.056H109.859V17.352H103.475ZM103.139 15.88V16.6H110.147V15.88H103.139ZM111.011 16.648C111.603 17.208 112.227 18.024 112.499 18.584L113.347 18.072C113.059 17.528 112.403 16.744 111.811 16.2L111.011 16.648ZM103.043 19.144L103.139 19.976C104.995 19.816 107.635 19.576 110.195 19.336L110.211 18.6C107.539 18.824 104.835 19.032 103.043 19.144ZM114.435 13.592V18.744C114.435 18.92 114.387 18.984 114.163 18.984C113.987 18.984 113.331 18.984 112.563 18.984C112.723 19.224 112.915 19.592 112.979 19.864C113.971 19.864 114.595 19.864 115.027 19.704C115.443 19.544 115.571 19.304 115.571 18.76V13.592H114.435ZM106.083 13.576V16.36H107.203V13.576H106.083ZM106.083 16.36V19.368H107.203V16.36H106.083ZM105.987 22.52H114.403V23.256H105.987V22.52ZM105.987 21.096H114.403V21.8H105.987V21.096ZM104.899 20.344V23.992H115.523V20.344H104.899ZM109.907 19.224C109.795 19.576 109.539 20.136 109.363 20.536L110.275 20.776C110.483 20.44 110.755 19.976 111.027 19.48L109.907 19.224ZM131.203 13.592C128.771 14.344 124.099 14.776 120.291 14.952C120.403 15.224 120.547 15.704 120.579 16.008C124.467 15.848 129.203 15.416 132.099 14.568L131.203 13.592ZM120.307 18.104V19.256H132.787V18.104H120.307ZM119.235 21.864V23.032H133.683V21.864H119.235ZM125.843 15.288V26.6C125.843 26.936 125.715 27.048 125.347 27.048C124.995 27.064 123.715 27.08 122.387 27.032C122.579 27.352 122.803 27.896 122.883 28.232C124.579 28.248 125.619 28.216 126.227 28.024C126.835 27.832 127.091 27.464 127.091 26.616V15.288H125.843Z" fill="white"/>
<g filter="url(#filter0_d_2162_43328)">
<path d="M264.5 16.4395V25H263.088V18.1152L260.996 18.8242V17.6582L264.33 16.4395H264.5ZM269.153 20.0957H269.997C270.325 20.0957 270.596 20.0391 270.811 19.9258C271.03 19.8125 271.192 19.6562 271.298 19.457C271.403 19.2578 271.456 19.0293 271.456 18.7715C271.456 18.502 271.407 18.2715 271.309 18.0801C271.216 17.8848 271.071 17.7344 270.876 17.6289C270.684 17.5234 270.44 17.4707 270.143 17.4707C269.893 17.4707 269.667 17.5215 269.464 17.623C269.264 17.7207 269.106 17.8613 268.989 18.0449C268.872 18.2246 268.813 18.4395 268.813 18.6895H267.395C267.395 18.2363 267.514 17.834 267.753 17.4824C267.991 17.1309 268.315 16.8555 268.725 16.6562C269.139 16.4531 269.604 16.3516 270.12 16.3516C270.671 16.3516 271.151 16.4434 271.561 16.627C271.975 16.8066 272.298 17.0762 272.528 17.4355C272.759 17.7949 272.874 18.2402 272.874 18.7715C272.874 19.0137 272.817 19.2598 272.704 19.5098C272.591 19.7598 272.423 19.9883 272.2 20.1953C271.977 20.3984 271.7 20.5645 271.368 20.6934C271.036 20.8184 270.651 20.8809 270.214 20.8809H269.153V20.0957ZM269.153 21.1973V20.4238H270.214C270.714 20.4238 271.139 20.4824 271.491 20.5996C271.846 20.7168 272.135 20.8789 272.358 21.0859C272.581 21.2891 272.743 21.5215 272.844 21.7832C272.95 22.0449 273.003 22.3223 273.003 22.6152C273.003 23.0137 272.93 23.3691 272.786 23.6816C272.645 23.9902 272.444 24.252 272.182 24.4668C271.921 24.6816 271.614 24.8438 271.262 24.9531C270.915 25.0625 270.536 25.1172 270.126 25.1172C269.759 25.1172 269.407 25.0664 269.071 24.9648C268.735 24.8633 268.434 24.7129 268.169 24.5137C267.903 24.3105 267.692 24.0586 267.536 23.7578C267.384 23.4531 267.307 23.1016 267.307 22.7031H268.719C268.719 22.957 268.778 23.1816 268.895 23.377C269.016 23.5684 269.184 23.7188 269.399 23.8281C269.618 23.9375 269.868 23.9922 270.149 23.9922C270.446 23.9922 270.702 23.9395 270.917 23.834C271.132 23.7285 271.296 23.5723 271.409 23.3652C271.526 23.1582 271.585 22.9082 271.585 22.6152C271.585 22.2832 271.52 22.0137 271.391 21.8066C271.262 21.5996 271.079 21.4473 270.841 21.3496C270.602 21.248 270.321 21.1973 269.997 21.1973H269.153ZM274.445 24.2969C274.445 24.0781 274.519 23.8945 274.667 23.7461C274.816 23.5938 275.017 23.5176 275.271 23.5176C275.529 23.5176 275.73 23.5938 275.874 23.7461C276.023 23.8945 276.097 24.0781 276.097 24.2969C276.097 24.5156 276.023 24.6992 275.874 24.8477C275.73 24.9961 275.529 25.0703 275.271 25.0703C275.017 25.0703 274.816 24.9961 274.667 24.8477C274.519 24.6992 274.445 24.5156 274.445 24.2969ZM274.451 19.3047C274.451 19.0859 274.525 18.9023 274.673 18.7539C274.822 18.6016 275.023 18.5254 275.277 18.5254C275.535 18.5254 275.736 18.6016 275.88 18.7539C276.029 18.9023 276.103 19.0859 276.103 19.3047C276.103 19.5234 276.029 19.707 275.88 19.8555C275.736 20.0039 275.535 20.0781 275.277 20.0781C275.023 20.0781 274.822 20.0039 274.673 19.8555C274.525 19.707 274.451 19.5234 274.451 19.3047ZM279.197 20.0957H280.041C280.369 20.0957 280.641 20.0391 280.856 19.9258C281.074 19.8125 281.236 19.6562 281.342 19.457C281.447 19.2578 281.5 19.0293 281.5 18.7715C281.5 18.502 281.451 18.2715 281.354 18.0801C281.26 17.8848 281.115 17.7344 280.92 17.6289C280.729 17.5234 280.485 17.4707 280.188 17.4707C279.938 17.4707 279.711 17.5215 279.508 17.623C279.309 17.7207 279.151 17.8613 279.033 18.0449C278.916 18.2246 278.858 18.4395 278.858 18.6895H277.44C277.44 18.2363 277.559 17.834 277.797 17.4824C278.035 17.1309 278.36 16.8555 278.77 16.6562C279.184 16.4531 279.649 16.3516 280.164 16.3516C280.715 16.3516 281.195 16.4434 281.606 16.627C282.02 16.8066 282.342 17.0762 282.572 17.4355C282.803 17.7949 282.918 18.2402 282.918 18.7715C282.918 19.0137 282.861 19.2598 282.748 19.5098C282.635 19.7598 282.467 19.9883 282.244 20.1953C282.022 20.3984 281.744 20.5645 281.412 20.6934C281.08 20.8184 280.695 20.8809 280.258 20.8809H279.197V20.0957ZM279.197 21.1973V20.4238H280.258C280.758 20.4238 281.184 20.4824 281.535 20.5996C281.891 20.7168 282.18 20.8789 282.403 21.0859C282.625 21.2891 282.787 21.5215 282.889 21.7832C282.994 22.0449 283.047 22.3223 283.047 22.6152C283.047 23.0137 282.975 23.3691 282.83 23.6816C282.69 23.9902 282.488 24.252 282.227 24.4668C281.965 24.6816 281.658 24.8438 281.307 24.9531C280.959 25.0625 280.58 25.1172 280.17 25.1172C279.803 25.1172 279.451 25.0664 279.115 24.9648C278.779 24.8633 278.479 24.7129 278.213 24.5137C277.947 24.3105 277.736 24.0586 277.58 23.7578C277.428 23.4531 277.352 23.1016 277.352 22.7031H278.764C278.764 22.957 278.822 23.1816 278.94 23.377C279.061 23.5684 279.229 23.7188 279.444 23.8281C279.662 23.9375 279.912 23.9922 280.194 23.9922C280.49 23.9922 280.746 23.9395 280.961 23.834C281.176 23.7285 281.34 23.5723 281.453 23.3652C281.57 23.1582 281.629 22.9082 281.629 22.6152C281.629 22.2832 281.565 22.0137 281.436 21.8066C281.307 21.5996 281.123 21.4473 280.885 21.3496C280.647 21.248 280.365 21.1973 280.041 21.1973H279.197ZM289.95 20.0195V21.4141C289.95 22.082 289.884 22.6523 289.751 23.125C289.622 23.5938 289.434 23.9746 289.188 24.2676C288.942 24.5605 288.647 24.7754 288.304 24.9121C287.964 25.0488 287.583 25.1172 287.161 25.1172C286.825 25.1172 286.513 25.0742 286.224 24.9883C285.938 24.9023 285.681 24.7676 285.45 24.584C285.22 24.4004 285.022 24.1641 284.858 23.875C284.698 23.582 284.573 23.2324 284.483 22.8262C284.397 22.4199 284.354 21.9492 284.354 21.4141V20.0195C284.354 19.3477 284.421 18.7812 284.554 18.3203C284.686 17.8555 284.876 17.4785 285.122 17.1895C285.368 16.8965 285.661 16.6836 286.001 16.5508C286.345 16.418 286.727 16.3516 287.149 16.3516C287.489 16.3516 287.802 16.3945 288.087 16.4805C288.376 16.5625 288.634 16.6934 288.86 16.873C289.091 17.0527 289.286 17.2871 289.446 17.5762C289.61 17.8613 289.735 18.207 289.821 18.6133C289.907 19.0156 289.95 19.4844 289.95 20.0195ZM288.538 21.6133V19.8086C288.538 19.4688 288.518 19.1699 288.479 18.9121C288.44 18.6504 288.382 18.4297 288.304 18.25C288.229 18.0664 288.136 17.918 288.022 17.8047C287.909 17.6875 287.78 17.6035 287.636 17.5527C287.491 17.498 287.329 17.4707 287.149 17.4707C286.931 17.4707 286.735 17.5137 286.563 17.5996C286.391 17.6816 286.247 17.8145 286.13 17.998C286.013 18.1816 285.923 18.4238 285.86 18.7246C285.802 19.0215 285.772 19.3828 285.772 19.8086V21.6133C285.772 21.957 285.792 22.2598 285.831 22.5215C285.87 22.7832 285.929 23.0078 286.007 23.1953C286.085 23.3789 286.179 23.5312 286.288 23.6523C286.401 23.7695 286.53 23.8555 286.675 23.9102C286.823 23.9648 286.985 23.9922 287.161 23.9922C287.384 23.9922 287.581 23.9492 287.753 23.8633C287.925 23.7773 288.069 23.6406 288.186 23.4531C288.304 23.2617 288.391 23.0137 288.45 22.709C288.509 22.4043 288.538 22.0391 288.538 21.6133Z" fill="white"/>
</g>
<path d="M26.882 41.06V42.054H39.146V41.06H26.882ZM30.298 46.058V46.968H36.878V46.058H30.298ZM29.556 43.678V52.12H30.592V44.616H36.71V43.678H29.556ZM36.472 43.678V50.804C36.472 51.014 36.388 51.084 36.15 51.098C35.898 51.098 35.044 51.112 34.106 51.07C34.26 51.364 34.414 51.798 34.456 52.092C35.66 52.092 36.444 52.092 36.892 51.924C37.368 51.756 37.494 51.434 37.494 50.818V43.678H36.472ZM31.46 39.24C30.704 42.054 29.052 45.022 26.546 46.744C26.756 46.954 27.078 47.318 27.218 47.556C29.892 45.68 31.572 42.572 32.524 39.492L31.46 39.24ZM30.298 48.424V49.334H36.878V48.424H30.298ZM52.117 39.59C50.395 40.22 47.357 40.78 44.753 41.116C44.865 41.368 45.019 41.76 45.061 42.012C47.721 41.69 50.857 41.172 52.901 40.472L52.117 39.59ZM44.277 45.246V46.254H53.475V45.246H44.277ZM44.823 50.58V51.588H53.251V50.58H44.823ZM48.449 41.144V50.86H49.499V41.144H48.449ZM42.625 42.964V52.12H43.675V41.956L43.661 41.928L42.625 42.964ZM44.151 39.254C43.283 41.452 41.841 43.594 40.329 44.966C40.539 45.232 40.861 45.778 40.973 46.03C42.611 44.434 44.179 42.012 45.173 39.576L44.151 39.254ZM58.816 40.612V41.62H67.538V40.612H58.816ZM65.466 40.976V50.678C65.466 50.958 65.382 51.028 65.088 51.042C64.766 51.056 63.744 51.07 62.624 51.028C62.778 51.336 62.946 51.812 63.002 52.106C64.374 52.12 65.298 52.092 65.816 51.924C66.32 51.742 66.516 51.434 66.516 50.678V40.976H65.466ZM59.236 43.594V49.418H60.216V43.594H59.236ZM59.684 43.594V44.532H62.638V47.5H59.684V48.438H63.632V43.594H59.684ZM57.794 39.254C57.066 41.354 55.876 43.44 54.588 44.784C54.77 45.022 55.078 45.582 55.176 45.82C56.604 44.266 57.948 41.9 58.788 39.562L57.794 39.254ZM56.478 42.908V52.106H57.528V41.9L57.514 41.886L56.478 42.908ZM72.879 46.044V46.926H76.687V49.264H72.879V50.146H77.667V46.044H72.879ZM72.417 46.044V50.986H73.397V46.044H72.417ZM69.883 41.872V42.656H73.775V41.872H69.883ZM76.337 41.872V42.656H80.299V41.872H76.337ZM79.837 39.842V50.706C79.837 50.972 79.753 51.056 79.487 51.056C79.221 51.07 78.297 51.084 77.373 51.042C77.527 51.336 77.709 51.826 77.751 52.12C78.983 52.12 79.795 52.106 80.271 51.938C80.719 51.756 80.887 51.42 80.887 50.72V39.842H79.837ZM69.967 39.842V40.696H73.453V43.93H69.967V44.784H74.447V39.842H69.967ZM80.383 39.842H75.707V44.784H80.383V43.944H76.715V40.682H80.383V39.842ZM69.379 39.842V52.134H70.415V39.842H69.379ZM84.548 42.39H87.278V43.454H84.548V42.39ZM84.548 40.598H87.278V41.648H84.548V40.598ZM83.61 39.842V44.238H88.258V39.842H83.61ZM82.77 45.274V46.086H89.084V45.274H82.77ZM89 39.94V40.724H95.384V39.94H89ZM85.57 45.526V50.3L86.466 50.86V45.526H85.57ZM86.046 47.598V48.396H88.846V47.598H86.046ZM91.772 40.136C91.646 40.738 91.408 41.606 91.184 42.18L91.968 42.362C92.22 41.844 92.5 41.046 92.766 40.332L91.772 40.136ZM90.498 44.378H93.844V45.428H90.498V44.378ZM90.498 46.156H93.844V47.234H90.498V46.156ZM90.498 42.586H93.844V43.622H90.498V42.586ZM89.546 41.816V48.004H94.824V41.816H89.546ZM90.708 48.256C90.176 48.9 89.266 49.53 88.398 49.936C88.594 50.09 88.944 50.426 89.098 50.58C89.966 50.104 90.988 49.306 91.604 48.522L90.708 48.256ZM83.75 46.856C83.68 48.578 83.456 50.468 82.602 51.49C82.826 51.644 83.134 51.952 83.274 52.162C84.268 50.972 84.548 48.872 84.632 46.856H83.75ZM84.408 48.228L83.75 48.466C84.912 51.364 87.166 51.826 90.736 51.826H95.286C95.342 51.546 95.51 51.14 95.664 50.916C94.838 50.944 91.366 50.944 90.736 50.944C87.586 50.944 85.402 50.636 84.408 48.228ZM92.668 48.634C93.424 49.152 94.362 49.964 94.81 50.524L95.58 50.034C95.118 49.502 94.194 48.718 93.382 48.228L92.668 48.634ZM98.373 47.528V48.228H103.077V47.528H98.373ZM98.373 49.054V49.754H103.077V49.054H98.373ZM98.359 50.58V51.364H103.455V50.58H98.359ZM96.763 40.206V41.018H103.777V40.206H96.763ZM100.361 46.506V50.986H101.257V46.506H100.361ZM98.429 39.254V41.872H99.367V39.254H98.429ZM101.145 39.254V41.872H102.083V39.254H101.145ZM97.953 42.852H99.143V44.07H97.953V42.852ZM97.197 42.152V44.77H99.927V42.152H97.197ZM101.285 42.852H102.573V44.07H101.285V42.852ZM100.529 42.152V44.77H103.357V42.152H100.529ZM98.737 45.946H98.653L97.827 46.828V52.092H98.737V46.702H103.441V45.946H98.737ZM100.795 44.826C100.669 45.26 100.417 45.89 100.193 46.324L100.935 46.548C101.159 46.17 101.453 45.61 101.733 45.078L100.795 44.826ZM98.429 44.756C98.023 46.03 97.323 47.276 96.511 48.13C96.679 48.312 96.987 48.732 97.113 48.928C98.009 47.948 98.821 46.464 99.325 44.994L98.429 44.756ZM104.687 41.774V42.74H108.845V41.774H104.687ZM106.381 42.18H105.877V44.672C105.891 45.792 105.527 49.39 102.839 51.28C103.007 51.476 103.315 51.896 103.427 52.12C105.527 50.622 106.241 48.004 106.381 46.856C106.493 47.976 107.137 50.678 109.041 52.12C109.195 51.868 109.489 51.448 109.685 51.224C107.235 49.404 106.871 45.75 106.885 44.672V42.18H106.381ZM104.813 39.226C104.547 41.424 104.057 43.58 103.161 44.952C103.413 45.092 103.861 45.4 104.043 45.554C104.953 44.056 105.513 41.774 105.849 39.38L104.813 39.226ZM108.495 41.774V41.97C108.411 43.02 108.229 44.364 108.019 45.19L108.789 45.568C109.097 44.644 109.349 43.188 109.503 41.956L108.817 41.704L108.663 41.774H108.495ZM113.556 44.77H110.84V45.75H112.562V49.726H113.556V44.77ZM113.556 49.306H112.66C112.016 49.922 111.274 50.552 110.672 51.014L111.218 52.008C111.89 51.378 112.52 50.776 113.122 50.174C114.004 51.28 115.278 51.784 117.14 51.854C118.736 51.91 121.788 51.882 123.384 51.812C123.426 51.518 123.594 51.042 123.72 50.818C121.998 50.93 118.708 50.972 117.126 50.902C115.46 50.832 114.214 50.356 113.556 49.306ZM110.91 40.094C111.722 40.794 112.632 41.802 112.996 42.502L113.878 41.914C113.486 41.2 112.548 40.234 111.722 39.576L110.91 40.094ZM118.862 40.29V50.342H119.842V41.2H122.628V40.29H118.862ZM115.096 40.304V48.032H116.076V40.584L115.096 40.304ZM122.082 40.29V47.514C122.082 47.682 122.026 47.738 121.872 47.738C121.69 47.752 121.158 47.752 120.528 47.738C120.668 47.976 120.808 48.382 120.85 48.634C121.704 48.634 122.264 48.634 122.614 48.466C122.964 48.312 123.076 48.032 123.076 47.528V40.29H122.082ZM117.938 39.212C117.35 39.674 116.286 40.22 115.376 40.598C115.502 40.808 115.642 41.144 115.698 41.354C116.706 41.004 117.854 40.514 118.722 39.982L117.938 39.212ZM114.172 47.878L114.452 48.83C115.572 48.494 117.042 48.074 118.428 47.668L118.302 46.744C116.776 47.192 115.222 47.612 114.172 47.878ZM131.203 46.114V46.926H134.325V46.114H131.203ZM131.301 41.48V42.46H136.705V41.48H131.301ZM131.273 43.972V44.812H133.919V48.326H131.273V49.18H134.843V43.972H131.273ZM130.699 43.972V49.992H131.623V43.972H130.699ZM136.341 41.48V41.718C136.229 48.102 136.089 50.454 135.683 50.93C135.529 51.112 135.389 51.154 135.123 51.154C134.787 51.154 133.989 51.14 133.093 51.084C133.275 51.35 133.401 51.784 133.429 52.064C134.213 52.12 135.025 52.134 135.501 52.092C135.991 52.036 136.299 51.924 136.593 51.518C137.097 50.846 137.223 48.662 137.349 42.04C137.349 41.886 137.349 41.48 137.349 41.48H136.341ZM131.707 39.226C131.203 41.088 130.349 42.908 129.257 44.07C129.509 44.238 129.957 44.588 130.153 44.77C131.245 43.482 132.183 41.522 132.757 39.478L131.707 39.226ZM125.407 43.482V44.322H129.383V43.482H125.407ZM125.463 39.744V40.584H129.327V39.744H125.463ZM125.407 45.358V46.198H129.383V45.358H125.407ZM124.777 41.578V42.446H129.747V41.578H124.777ZM125.869 47.248V48.116H128.473V50.454H125.869V51.336H129.383V47.248H125.869ZM125.393 47.248V51.98H126.289V47.248H125.393ZM143.054 46.044V46.926H146.862V49.264H143.054V50.146H147.842V46.044H143.054ZM142.592 46.044V50.986H143.572V46.044H142.592ZM140.058 41.872V42.656H143.95V41.872H140.058ZM146.512 41.872V42.656H150.474V41.872H146.512ZM150.012 39.842V50.706C150.012 50.972 149.928 51.056 149.662 51.056C149.396 51.07 148.472 51.084 147.548 51.042C147.702 51.336 147.884 51.826 147.926 52.12C149.158 52.12 149.97 52.106 150.446 51.938C150.894 51.756 151.062 51.42 151.062 50.72V39.842H150.012ZM140.142 39.842V40.696H143.628V43.93H140.142V44.784H144.622V39.842H140.142ZM150.558 39.842H145.882V44.784H150.558V43.944H146.89V40.682H150.558V39.842ZM139.554 39.842V52.134H140.59V39.842H139.554Z" fill="#6F7387"/>
<circle cx="-18.5" cy="34.5" r="27.5" fill="#4A4D5A"/>
<path d="M332 30H348M347 30L346.133 42.142C346.097 42.6466 345.871 43.1188 345.501 43.4636C345.131 43.8083 344.644 44 344.138 44H335.862C335.356 44 334.869 43.8083 334.499 43.4636C334.129 43.1188 333.903 42.6466 333.867 42.142L333 30H347ZM338 34V40V34ZM342 34V40V34ZM343 30V27C343 26.7348 342.895 26.4804 342.707 26.2929C342.52 26.1054 342.265 26 342 26H338C337.735 26 337.48 26.1054 337.293 26.2929C337.105 26.4804 337 26.7348 337 27V30H343Z" stroke="white" stroke-width="2" stroke-linecap="round" stroke-linejoin="round"/>
</g>
<defs>
<filter id="filter0_d_2162_43328" x="256.996" y="16.3516" width="36.9541" height="16.7656" filterUnits="userSpaceOnUse" color-interpolation-filters="sRGB">
<feFlood flood-opacity="0" result="BackgroundImageFix"/>
<feColorMatrix in="SourceAlpha" type="matrix" values="0 0 0 0 0 0 0 0 0 0 0 0 0 0 0 0 0 0 127 0" result="hardAlpha"/>
<feOffset dy="4"/>
<feGaussianBlur stdDeviation="2"/>
<feComposite in2="hardAlpha" operator="out"/>
<feColorMatrix type="matrix" values="0 0 0 0 0 0 0 0 0 0 0 0 0 0 0 0 0 0 0.25 0"/>
<feBlend mode="normal" in2="BackgroundImageFix" result="effect1_dropShadow_2162_43328"/>
<feBlend mode="normal" in="SourceGraphic" in2="effect1_dropShadow_2162_43328" result="shape"/>
</filter>
<clipPath id="clip0_2162_43328">
<rect width="375" height="70" fill="white"/>
</clipPath>
</defs>
</svg>
