<svg width="375" height="70" viewBox="0 0 375 70" fill="none" xmlns="http://www.w3.org/2000/svg">
<rect width="375" height="70" fill="#383A44"/>
<circle cx="347" cy="45" r="10" fill="#FF4E84"/>
<path d="M348.423 40.4395V49H347.011V42.1152L344.919 42.8242V41.6582L348.253 40.4395H348.423Z" fill="white"/>
<path d="M99.25 15.625V27H97.2891V15.625H99.25ZM111.031 15.625V27H109.07L103.968 18.8516V27H102.008V15.625H103.968L109.086 23.7891V15.625H111.031ZM114.484 15.625H116.234L119.523 24.3984L122.804 15.625H124.554L120.21 27H118.82L114.484 15.625ZM113.687 15.625H115.351L115.64 23.2188V27H113.687V15.625ZM123.687 15.625H125.359V27H123.398V23.2188L123.687 15.625ZM135.452 25.4453V27H129.413V25.4453H135.452ZM129.968 15.625V27H128.007V15.625H129.968ZM134.663 20.375V21.9062H129.413V20.375H134.663ZM135.413 15.625V17.1875H129.413V15.625H135.413ZM144.819 25.4453V27H138.78V25.4453H144.819ZM139.335 15.625V27H137.374V15.625H139.335ZM144.03 20.375V21.9062H138.78V20.375H144.03ZM144.78 15.625V17.1875H138.78V15.625H144.78ZM151.577 15.625V27H149.631V15.625H151.577ZM155.147 15.625V17.1875H146.092V15.625H155.147ZM163.219 13.8V26.616C163.219 26.936 163.107 27.048 162.771 27.048C162.451 27.064 161.299 27.08 160.115 27.032C160.323 27.384 160.547 27.944 160.611 28.296C162.131 28.296 163.123 28.264 163.699 28.056C164.275 27.864 164.515 27.512 164.515 26.616V13.8H163.219ZM167.091 17.88C168.451 20.168 169.747 23.176 170.131 25.064L171.411 24.552C170.995 22.616 169.635 19.688 168.243 17.432L167.091 17.88ZM159.027 17.544C158.627 19.704 157.747 22.472 156.323 24.168C156.643 24.296 157.171 24.584 157.459 24.808C158.915 23.016 159.843 20.12 160.371 17.768L159.027 17.544ZM179.523 23.704V28.28H180.707V23.704H179.523ZM174.147 24.776V28.024H175.315V25.656H185.683V24.776H174.147ZM185.235 24.776V26.872C185.235 27.048 185.171 27.096 184.931 27.112C184.691 27.128 183.923 27.128 182.995 27.096C183.155 27.368 183.331 27.704 183.395 28.008C184.563 28.008 185.331 28.008 185.811 27.864C186.275 27.704 186.403 27.432 186.403 26.872V24.776H185.235ZM180.259 15V15.928H187.299V15H180.259ZM173.715 14.44V15.128H179.667V14.44H173.715ZM173.475 17.352V18.056H179.859V17.352H173.475ZM173.139 15.88V16.6H180.147V15.88H173.139ZM181.011 16.648C181.603 17.208 182.227 18.024 182.499 18.584L183.347 18.072C183.059 17.528 182.403 16.744 181.811 16.2L181.011 16.648ZM173.043 19.144L173.139 19.976C174.995 19.816 177.635 19.576 180.195 19.336L180.211 18.6C177.539 18.824 174.835 19.032 173.043 19.144ZM184.435 13.592V18.744C184.435 18.92 184.387 18.984 184.163 18.984C183.987 18.984 183.331 18.984 182.563 18.984C182.723 19.224 182.915 19.592 182.979 19.864C183.971 19.864 184.595 19.864 185.027 19.704C185.443 19.544 185.571 19.304 185.571 18.76V13.592H184.435ZM176.083 13.576V16.36H177.203V13.576H176.083ZM176.083 16.36V19.368H177.203V16.36H176.083ZM175.987 22.52H184.403V23.256H175.987V22.52ZM175.987 21.096H184.403V21.8H175.987V21.096ZM174.899 20.344V23.992H185.523V20.344H174.899ZM179.907 19.224C179.795 19.576 179.539 20.136 179.363 20.536L180.275 20.776C180.483 20.44 180.755 19.976 181.027 19.48L179.907 19.224ZM201.203 13.592C198.771 14.344 194.099 14.776 190.291 14.952C190.403 15.224 190.547 15.704 190.579 16.008C194.467 15.848 199.203 15.416 202.099 14.568L201.203 13.592ZM190.307 18.104V19.256H202.787V18.104H190.307ZM189.235 21.864V23.032H203.683V21.864H189.235ZM195.843 15.288V26.6C195.843 26.936 195.715 27.048 195.347 27.048C194.995 27.064 193.715 27.08 192.387 27.032C192.579 27.352 192.803 27.896 192.883 28.232C194.579 28.248 195.619 28.216 196.227 28.024C196.835 27.832 197.091 27.464 197.091 26.616V15.288H195.843Z" fill="white"/>
<g filter="url(#filter0_d_2153_35684)">
<path d="M334.5 16.4395V25H333.088V18.1152L330.996 18.8242V17.6582L334.33 16.4395H334.5ZM339.153 20.0957H339.997C340.325 20.0957 340.596 20.0391 340.811 19.9258C341.03 19.8125 341.192 19.6562 341.298 19.457C341.403 19.2578 341.456 19.0293 341.456 18.7715C341.456 18.502 341.407 18.2715 341.309 18.0801C341.216 17.8848 341.071 17.7344 340.876 17.6289C340.684 17.5234 340.44 17.4707 340.143 17.4707C339.893 17.4707 339.667 17.5215 339.464 17.623C339.264 17.7207 339.106 17.8613 338.989 18.0449C338.872 18.2246 338.813 18.4395 338.813 18.6895H337.395C337.395 18.2363 337.514 17.834 337.753 17.4824C337.991 17.1309 338.315 16.8555 338.725 16.6562C339.139 16.4531 339.604 16.3516 340.12 16.3516C340.671 16.3516 341.151 16.4434 341.561 16.627C341.975 16.8066 342.298 17.0762 342.528 17.4355C342.759 17.7949 342.874 18.2402 342.874 18.7715C342.874 19.0137 342.817 19.2598 342.704 19.5098C342.591 19.7598 342.423 19.9883 342.2 20.1953C341.977 20.3984 341.7 20.5645 341.368 20.6934C341.036 20.8184 340.651 20.8809 340.214 20.8809H339.153V20.0957ZM339.153 21.1973V20.4238H340.214C340.714 20.4238 341.139 20.4824 341.491 20.5996C341.846 20.7168 342.135 20.8789 342.358 21.0859C342.581 21.2891 342.743 21.5215 342.844 21.7832C342.95 22.0449 343.003 22.3223 343.003 22.6152C343.003 23.0137 342.93 23.3691 342.786 23.6816C342.645 23.9902 342.444 24.252 342.182 24.4668C341.921 24.6816 341.614 24.8438 341.262 24.9531C340.915 25.0625 340.536 25.1172 340.126 25.1172C339.759 25.1172 339.407 25.0664 339.071 24.9648C338.735 24.8633 338.434 24.7129 338.169 24.5137C337.903 24.3105 337.692 24.0586 337.536 23.7578C337.384 23.4531 337.307 23.1016 337.307 22.7031H338.719C338.719 22.957 338.778 23.1816 338.895 23.377C339.016 23.5684 339.184 23.7188 339.399 23.8281C339.618 23.9375 339.868 23.9922 340.149 23.9922C340.446 23.9922 340.702 23.9395 340.917 23.834C341.132 23.7285 341.296 23.5723 341.409 23.3652C341.526 23.1582 341.585 22.9082 341.585 22.6152C341.585 22.2832 341.52 22.0137 341.391 21.8066C341.262 21.5996 341.079 21.4473 340.841 21.3496C340.602 21.248 340.321 21.1973 339.997 21.1973H339.153ZM344.445 24.2969C344.445 24.0781 344.519 23.8945 344.667 23.7461C344.816 23.5938 345.017 23.5176 345.271 23.5176C345.529 23.5176 345.73 23.5938 345.874 23.7461C346.023 23.8945 346.097 24.0781 346.097 24.2969C346.097 24.5156 346.023 24.6992 345.874 24.8477C345.73 24.9961 345.529 25.0703 345.271 25.0703C345.017 25.0703 344.816 24.9961 344.667 24.8477C344.519 24.6992 344.445 24.5156 344.445 24.2969ZM344.451 19.3047C344.451 19.0859 344.525 18.9023 344.673 18.7539C344.822 18.6016 345.023 18.5254 345.277 18.5254C345.535 18.5254 345.736 18.6016 345.88 18.7539C346.029 18.9023 346.103 19.0859 346.103 19.3047C346.103 19.5234 346.029 19.707 345.88 19.8555C345.736 20.0039 345.535 20.0781 345.277 20.0781C345.023 20.0781 344.822 20.0039 344.673 19.8555C344.525 19.707 344.451 19.5234 344.451 19.3047ZM349.197 20.0957H350.041C350.369 20.0957 350.641 20.0391 350.856 19.9258C351.074 19.8125 351.236 19.6562 351.342 19.457C351.447 19.2578 351.5 19.0293 351.5 18.7715C351.5 18.502 351.451 18.2715 351.354 18.0801C351.26 17.8848 351.115 17.7344 350.92 17.6289C350.729 17.5234 350.485 17.4707 350.188 17.4707C349.938 17.4707 349.711 17.5215 349.508 17.623C349.309 17.7207 349.151 17.8613 349.033 18.0449C348.916 18.2246 348.858 18.4395 348.858 18.6895H347.44C347.44 18.2363 347.559 17.834 347.797 17.4824C348.035 17.1309 348.36 16.8555 348.77 16.6562C349.184 16.4531 349.649 16.3516 350.164 16.3516C350.715 16.3516 351.195 16.4434 351.606 16.627C352.02 16.8066 352.342 17.0762 352.572 17.4355C352.803 17.7949 352.918 18.2402 352.918 18.7715C352.918 19.0137 352.861 19.2598 352.748 19.5098C352.635 19.7598 352.467 19.9883 352.244 20.1953C352.022 20.3984 351.744 20.5645 351.412 20.6934C351.08 20.8184 350.695 20.8809 350.258 20.8809H349.197V20.0957ZM349.197 21.1973V20.4238H350.258C350.758 20.4238 351.184 20.4824 351.535 20.5996C351.891 20.7168 352.18 20.8789 352.403 21.0859C352.625 21.2891 352.787 21.5215 352.889 21.7832C352.994 22.0449 353.047 22.3223 353.047 22.6152C353.047 23.0137 352.975 23.3691 352.83 23.6816C352.69 23.9902 352.488 24.252 352.227 24.4668C351.965 24.6816 351.658 24.8438 351.307 24.9531C350.959 25.0625 350.58 25.1172 350.17 25.1172C349.803 25.1172 349.451 25.0664 349.115 24.9648C348.779 24.8633 348.479 24.7129 348.213 24.5137C347.947 24.3105 347.736 24.0586 347.58 23.7578C347.428 23.4531 347.352 23.1016 347.352 22.7031H348.764C348.764 22.957 348.822 23.1816 348.94 23.377C349.061 23.5684 349.229 23.7188 349.444 23.8281C349.662 23.9375 349.912 23.9922 350.194 23.9922C350.49 23.9922 350.746 23.9395 350.961 23.834C351.176 23.7285 351.34 23.5723 351.453 23.3652C351.57 23.1582 351.629 22.9082 351.629 22.6152C351.629 22.2832 351.565 22.0137 351.436 21.8066C351.307 21.5996 351.123 21.4473 350.885 21.3496C350.647 21.248 350.365 21.1973 350.041 21.1973H349.197ZM359.95 20.0195V21.4141C359.95 22.082 359.884 22.6523 359.751 23.125C359.622 23.5938 359.434 23.9746 359.188 24.2676C358.942 24.5605 358.647 24.7754 358.304 24.9121C357.964 25.0488 357.583 25.1172 357.161 25.1172C356.825 25.1172 356.513 25.0742 356.224 24.9883C355.938 24.9023 355.681 24.7676 355.45 24.584C355.22 24.4004 355.022 24.1641 354.858 23.875C354.698 23.582 354.573 23.2324 354.483 22.8262C354.397 22.4199 354.354 21.9492 354.354 21.4141V20.0195C354.354 19.3477 354.421 18.7812 354.554 18.3203C354.686 17.8555 354.876 17.4785 355.122 17.1895C355.368 16.8965 355.661 16.6836 356.001 16.5508C356.345 16.418 356.727 16.3516 357.149 16.3516C357.489 16.3516 357.802 16.3945 358.087 16.4805C358.376 16.5625 358.634 16.6934 358.86 16.873C359.091 17.0527 359.286 17.2871 359.446 17.5762C359.61 17.8613 359.735 18.207 359.821 18.6133C359.907 19.0156 359.95 19.4844 359.95 20.0195ZM358.538 21.6133V19.8086C358.538 19.4688 358.518 19.1699 358.479 18.9121C358.44 18.6504 358.382 18.4297 358.304 18.25C358.229 18.0664 358.136 17.918 358.022 17.8047C357.909 17.6875 357.78 17.6035 357.636 17.5527C357.491 17.498 357.329 17.4707 357.149 17.4707C356.931 17.4707 356.735 17.5137 356.563 17.5996C356.391 17.6816 356.247 17.8145 356.13 17.998C356.013 18.1816 355.923 18.4238 355.86 18.7246C355.802 19.0215 355.772 19.3828 355.772 19.8086V21.6133C355.772 21.957 355.792 22.2598 355.831 22.5215C355.87 22.7832 355.929 23.0078 356.007 23.1953C356.085 23.3789 356.179 23.5312 356.288 23.6523C356.401 23.7695 356.53 23.8555 356.675 23.9102C356.823 23.9648 356.985 23.9922 357.161 23.9922C357.384 23.9922 357.581 23.9492 357.753 23.8633C357.925 23.7773 358.069 23.6406 358.186 23.4531C358.304 23.2617 358.391 23.0137 358.45 22.709C358.509 22.4043 358.538 22.0391 358.538 21.6133Z" fill="white"/>
</g>
<path d="M96.882 41.06V42.054H109.146V41.06H96.882ZM100.298 46.058V46.968H106.878V46.058H100.298ZM99.556 43.678V52.12H100.592V44.616H106.71V43.678H99.556ZM106.472 43.678V50.804C106.472 51.014 106.388 51.084 106.15 51.098C105.898 51.098 105.044 51.112 104.106 51.07C104.26 51.364 104.414 51.798 104.456 52.092C105.66 52.092 106.444 52.092 106.892 51.924C107.368 51.756 107.494 51.434 107.494 50.818V43.678H106.472ZM101.46 39.24C100.704 42.054 99.052 45.022 96.546 46.744C96.756 46.954 97.078 47.318 97.218 47.556C99.892 45.68 101.572 42.572 102.524 39.492L101.46 39.24ZM100.298 48.424V49.334H106.878V48.424H100.298ZM122.117 39.59C120.395 40.22 117.357 40.78 114.753 41.116C114.865 41.368 115.019 41.76 115.061 42.012C117.721 41.69 120.857 41.172 122.901 40.472L122.117 39.59ZM114.277 45.246V46.254H123.475V45.246H114.277ZM114.823 50.58V51.588H123.251V50.58H114.823ZM118.449 41.144V50.86H119.499V41.144H118.449ZM112.625 42.964V52.12H113.675V41.956L113.661 41.928L112.625 42.964ZM114.151 39.254C113.283 41.452 111.841 43.594 110.329 44.966C110.539 45.232 110.861 45.778 110.973 46.03C112.611 44.434 114.179 42.012 115.173 39.576L114.151 39.254ZM128.816 40.612V41.62H137.538V40.612H128.816ZM135.466 40.976V50.678C135.466 50.958 135.382 51.028 135.088 51.042C134.766 51.056 133.744 51.07 132.624 51.028C132.778 51.336 132.946 51.812 133.002 52.106C134.374 52.12 135.298 52.092 135.816 51.924C136.32 51.742 136.516 51.434 136.516 50.678V40.976H135.466ZM129.236 43.594V49.418H130.216V43.594H129.236ZM129.684 43.594V44.532H132.638V47.5H129.684V48.438H133.632V43.594H129.684ZM127.794 39.254C127.066 41.354 125.876 43.44 124.588 44.784C124.77 45.022 125.078 45.582 125.176 45.82C126.604 44.266 127.948 41.9 128.788 39.562L127.794 39.254ZM126.478 42.908V52.106H127.528V41.9L127.514 41.886L126.478 42.908ZM142.879 46.044V46.926H146.687V49.264H142.879V50.146H147.667V46.044H142.879ZM142.417 46.044V50.986H143.397V46.044H142.417ZM139.883 41.872V42.656H143.775V41.872H139.883ZM146.337 41.872V42.656H150.299V41.872H146.337ZM149.837 39.842V50.706C149.837 50.972 149.753 51.056 149.487 51.056C149.221 51.07 148.297 51.084 147.373 51.042C147.527 51.336 147.709 51.826 147.751 52.12C148.983 52.12 149.795 52.106 150.271 51.938C150.719 51.756 150.887 51.42 150.887 50.72V39.842H149.837ZM139.967 39.842V40.696H143.453V43.93H139.967V44.784H144.447V39.842H139.967ZM150.383 39.842H145.707V44.784H150.383V43.944H146.715V40.682H150.383V39.842ZM139.379 39.842V52.134H140.415V39.842H139.379ZM154.548 42.39H157.278V43.454H154.548V42.39ZM154.548 40.598H157.278V41.648H154.548V40.598ZM153.61 39.842V44.238H158.258V39.842H153.61ZM152.77 45.274V46.086H159.084V45.274H152.77ZM159 39.94V40.724H165.384V39.94H159ZM155.57 45.526V50.3L156.466 50.86V45.526H155.57ZM156.046 47.598V48.396H158.846V47.598H156.046ZM161.772 40.136C161.646 40.738 161.408 41.606 161.184 42.18L161.968 42.362C162.22 41.844 162.5 41.046 162.766 40.332L161.772 40.136ZM160.498 44.378H163.844V45.428H160.498V44.378ZM160.498 46.156H163.844V47.234H160.498V46.156ZM160.498 42.586H163.844V43.622H160.498V42.586ZM159.546 41.816V48.004H164.824V41.816H159.546ZM160.708 48.256C160.176 48.9 159.266 49.53 158.398 49.936C158.594 50.09 158.944 50.426 159.098 50.58C159.966 50.104 160.988 49.306 161.604 48.522L160.708 48.256ZM153.75 46.856C153.68 48.578 153.456 50.468 152.602 51.49C152.826 51.644 153.134 51.952 153.274 52.162C154.268 50.972 154.548 48.872 154.632 46.856H153.75ZM154.408 48.228L153.75 48.466C154.912 51.364 157.166 51.826 160.736 51.826H165.286C165.342 51.546 165.51 51.14 165.664 50.916C164.838 50.944 161.366 50.944 160.736 50.944C157.586 50.944 155.402 50.636 154.408 48.228ZM162.668 48.634C163.424 49.152 164.362 49.964 164.81 50.524L165.58 50.034C165.118 49.502 164.194 48.718 163.382 48.228L162.668 48.634ZM168.373 47.528V48.228H173.077V47.528H168.373ZM168.373 49.054V49.754H173.077V49.054H168.373ZM168.359 50.58V51.364H173.455V50.58H168.359ZM166.763 40.206V41.018H173.777V40.206H166.763ZM170.361 46.506V50.986H171.257V46.506H170.361ZM168.429 39.254V41.872H169.367V39.254H168.429ZM171.145 39.254V41.872H172.083V39.254H171.145ZM167.953 42.852H169.143V44.07H167.953V42.852ZM167.197 42.152V44.77H169.927V42.152H167.197ZM171.285 42.852H172.573V44.07H171.285V42.852ZM170.529 42.152V44.77H173.357V42.152H170.529ZM168.737 45.946H168.653L167.827 46.828V52.092H168.737V46.702H173.441V45.946H168.737ZM170.795 44.826C170.669 45.26 170.417 45.89 170.193 46.324L170.935 46.548C171.159 46.17 171.453 45.61 171.733 45.078L170.795 44.826ZM168.429 44.756C168.023 46.03 167.323 47.276 166.511 48.13C166.679 48.312 166.987 48.732 167.113 48.928C168.009 47.948 168.821 46.464 169.325 44.994L168.429 44.756ZM174.687 41.774V42.74H178.845V41.774H174.687ZM176.381 42.18H175.877V44.672C175.891 45.792 175.527 49.39 172.839 51.28C173.007 51.476 173.315 51.896 173.427 52.12C175.527 50.622 176.241 48.004 176.381 46.856C176.493 47.976 177.137 50.678 179.041 52.12C179.195 51.868 179.489 51.448 179.685 51.224C177.235 49.404 176.871 45.75 176.885 44.672V42.18H176.381ZM174.813 39.226C174.547 41.424 174.057 43.58 173.161 44.952C173.413 45.092 173.861 45.4 174.043 45.554C174.953 44.056 175.513 41.774 175.849 39.38L174.813 39.226ZM178.495 41.774V41.97C178.411 43.02 178.229 44.364 178.019 45.19L178.789 45.568C179.097 44.644 179.349 43.188 179.503 41.956L178.817 41.704L178.663 41.774H178.495ZM183.556 44.77H180.84V45.75H182.562V49.726H183.556V44.77ZM183.556 49.306H182.66C182.016 49.922 181.274 50.552 180.672 51.014L181.218 52.008C181.89 51.378 182.52 50.776 183.122 50.174C184.004 51.28 185.278 51.784 187.14 51.854C188.736 51.91 191.788 51.882 193.384 51.812C193.426 51.518 193.594 51.042 193.72 50.818C191.998 50.93 188.708 50.972 187.126 50.902C185.46 50.832 184.214 50.356 183.556 49.306ZM180.91 40.094C181.722 40.794 182.632 41.802 182.996 42.502L183.878 41.914C183.486 41.2 182.548 40.234 181.722 39.576L180.91 40.094ZM188.862 40.29V50.342H189.842V41.2H192.628V40.29H188.862ZM185.096 40.304V48.032H186.076V40.584L185.096 40.304ZM192.082 40.29V47.514C192.082 47.682 192.026 47.738 191.872 47.738C191.69 47.752 191.158 47.752 190.528 47.738C190.668 47.976 190.808 48.382 190.85 48.634C191.704 48.634 192.264 48.634 192.614 48.466C192.964 48.312 193.076 48.032 193.076 47.528V40.29H192.082ZM187.938 39.212C187.35 39.674 186.286 40.22 185.376 40.598C185.502 40.808 185.642 41.144 185.698 41.354C186.706 41.004 187.854 40.514 188.722 39.982L187.938 39.212ZM184.172 47.878L184.452 48.83C185.572 48.494 187.042 48.074 188.428 47.668L188.302 46.744C186.776 47.192 185.222 47.612 184.172 47.878ZM201.203 46.114V46.926H204.325V46.114H201.203ZM201.301 41.48V42.46H206.705V41.48H201.301ZM201.273 43.972V44.812H203.919V48.326H201.273V49.18H204.843V43.972H201.273ZM200.699 43.972V49.992H201.623V43.972H200.699ZM206.341 41.48V41.718C206.229 48.102 206.089 50.454 205.683 50.93C205.529 51.112 205.389 51.154 205.123 51.154C204.787 51.154 203.989 51.14 203.093 51.084C203.275 51.35 203.401 51.784 203.429 52.064C204.213 52.12 205.025 52.134 205.501 52.092C205.991 52.036 206.299 51.924 206.593 51.518C207.097 50.846 207.223 48.662 207.349 42.04C207.349 41.886 207.349 41.48 207.349 41.48H206.341ZM201.707 39.226C201.203 41.088 200.349 42.908 199.257 44.07C199.509 44.238 199.957 44.588 200.153 44.77C201.245 43.482 202.183 41.522 202.757 39.478L201.707 39.226ZM195.407 43.482V44.322H199.383V43.482H195.407ZM195.463 39.744V40.584H199.327V39.744H195.463ZM195.407 45.358V46.198H199.383V45.358H195.407ZM194.777 41.578V42.446H199.747V41.578H194.777ZM195.869 47.248V48.116H198.473V50.454H195.869V51.336H199.383V47.248H195.869ZM195.393 47.248V51.98H196.289V47.248H195.393ZM213.054 46.044V46.926H216.862V49.264H213.054V50.146H217.842V46.044H213.054ZM212.592 46.044V50.986H213.572V46.044H212.592ZM210.058 41.872V42.656H213.95V41.872H210.058ZM216.512 41.872V42.656H220.474V41.872H216.512ZM220.012 39.842V50.706C220.012 50.972 219.928 51.056 219.662 51.056C219.396 51.07 218.472 51.084 217.548 51.042C217.702 51.336 217.884 51.826 217.926 52.12C219.158 52.12 219.97 52.106 220.446 51.938C220.894 51.756 221.062 51.42 221.062 50.72V39.842H220.012ZM210.142 39.842V40.696H213.628V43.93H210.142V44.784H214.622V39.842H210.142ZM220.558 39.842H215.882V44.784H220.558V43.944H216.89V40.682H220.558V39.842ZM209.554 39.842V52.134H210.59V39.842H209.554Z" fill="#6F7387"/>
<circle cx="51.5" cy="34.5" r="27.5" fill="#4A4D5A"/>
<defs>
<filter id="filter0_d_2153_35684" x="326.996" y="16.3516" width="36.9541" height="16.7656" filterUnits="userSpaceOnUse" color-interpolation-filters="sRGB">
<feFlood flood-opacity="0" result="BackgroundImageFix"/>
<feColorMatrix in="SourceAlpha" type="matrix" values="0 0 0 0 0 0 0 0 0 0 0 0 0 0 0 0 0 0 127 0" result="hardAlpha"/>
<feOffset dy="4"/>
<feGaussianBlur stdDeviation="2"/>
<feComposite in2="hardAlpha" operator="out"/>
<feColorMatrix type="matrix" values="0 0 0 0 0 0 0 0 0 0 0 0 0 0 0 0 0 0 0.25 0"/>
<feBlend mode="normal" in2="BackgroundImageFix" result="effect1_dropShadow_2153_35684"/>
<feBlend mode="normal" in="SourceGraphic" in2="effect1_dropShadow_2153_35684" result="shape"/>
</filter>
</defs>
</svg>
