<svg width="375" height="70" viewBox="0 0 375 70" fill="none" xmlns="http://www.w3.org/2000/svg">
<circle cx="343" cy="41" r="6" fill="#FF4E84"/>
<path d="M344.29 36.2394V44.8H342.878V37.9152L340.786 38.6242V37.4582L344.12 36.2394H344.29Z" fill="white"/>
<path d="M99.25 15.625V27H97.2891V15.625H99.25ZM111.031 15.625V27H109.07L103.968 18.8516V27H102.008V15.625H103.968L109.086 23.7891V15.625H111.031ZM114.484 15.625H116.234L119.523 24.3984L122.804 15.625H124.554L120.21 27H118.82L114.484 15.625ZM113.687 15.625H115.351L115.64 23.2188V27H113.687V15.625ZM123.687 15.625H125.359V27H123.398V23.2188L123.687 15.625ZM135.452 25.4453V27H129.413V25.4453H135.452ZM129.968 15.625V27H128.007V15.625H129.968ZM134.663 20.375V21.9062H129.413V20.375H134.663ZM135.413 15.625V17.1875H129.413V15.625H135.413ZM144.819 25.4453V27H138.78V25.4453H144.819ZM139.335 15.625V27H137.374V15.625H139.335ZM144.03 20.375V21.9062H138.78V20.375H144.03ZM144.78 15.625V17.1875H138.78V15.625H144.78ZM151.577 15.625V27H149.631V15.625H151.577ZM155.147 15.625V17.1875H146.092V15.625H155.147ZM163.219 13.8V26.616C163.219 26.936 163.107 27.048 162.771 27.048C162.451 27.064 161.299 27.08 160.115 27.032C160.323 27.384 160.547 27.944 160.611 28.296C162.131 28.296 163.123 28.264 163.699 28.056C164.275 27.864 164.515 27.512 164.515 26.616V13.8H163.219ZM167.091 17.88C168.451 20.168 169.747 23.176 170.131 25.064L171.411 24.552C170.995 22.616 169.635 19.688 168.243 17.432L167.091 17.88ZM159.027 17.544C158.627 19.704 157.747 22.472 156.323 24.168C156.643 24.296 157.171 24.584 157.459 24.808C158.915 23.016 159.843 20.12 160.371 17.768L159.027 17.544ZM179.523 23.704V28.28H180.707V23.704H179.523ZM174.147 24.776V28.024H175.315V25.656H185.683V24.776H174.147ZM185.235 24.776V26.872C185.235 27.048 185.171 27.096 184.931 27.112C184.691 27.128 183.923 27.128 182.995 27.096C183.155 27.368 183.331 27.704 183.395 28.008C184.563 28.008 185.331 28.008 185.811 27.864C186.275 27.704 186.403 27.432 186.403 26.872V24.776H185.235ZM180.259 15V15.928H187.299V15H180.259ZM173.715 14.44V15.128H179.667V14.44H173.715ZM173.475 17.352V18.056H179.859V17.352H173.475ZM173.139 15.88V16.6H180.147V15.88H173.139ZM181.011 16.648C181.603 17.208 182.227 18.024 182.499 18.584L183.347 18.072C183.059 17.528 182.403 16.744 181.811 16.2L181.011 16.648ZM173.043 19.144L173.139 19.976C174.995 19.816 177.635 19.576 180.195 19.336L180.211 18.6C177.539 18.824 174.835 19.032 173.043 19.144ZM184.435 13.592V18.744C184.435 18.92 184.387 18.984 184.163 18.984C183.987 18.984 183.331 18.984 182.563 18.984C182.723 19.224 182.915 19.592 182.979 19.864C183.971 19.864 184.595 19.864 185.027 19.704C185.443 19.544 185.571 19.304 185.571 18.76V13.592H184.435ZM176.083 13.576V16.36H177.203V13.576H176.083ZM176.083 16.36V19.368H177.203V16.36H176.083ZM175.987 22.52H184.403V23.256H175.987V22.52ZM175.987 21.096H184.403V21.8H175.987V21.096ZM174.899 20.344V23.992H185.523V20.344H174.899ZM179.907 19.224C179.795 19.576 179.539 20.136 179.363 20.536L180.275 20.776C180.483 20.44 180.755 19.976 181.027 19.48L179.907 19.224ZM201.203 13.592C198.771 14.344 194.099 14.776 190.291 14.952C190.403 15.224 190.547 15.704 190.579 16.008C194.467 15.848 199.203 15.416 202.099 14.568L201.203 13.592ZM190.307 18.104V19.256H202.787V18.104H190.307ZM189.235 21.864V23.032H203.683V21.864H189.235ZM195.843 15.288V26.6C195.843 26.936 195.715 27.048 195.347 27.048C194.995 27.064 193.715 27.08 192.387 27.032C192.579 27.352 192.803 27.896 192.883 28.232C194.579 28.248 195.619 28.216 196.227 28.024C196.835 27.832 197.091 27.464 197.091 26.616V15.288H195.843Z" fill="white"/>
<path d="M333.389 17.8613V25H332.808V18.5986L330.874 19.3164V18.7646L333.291 17.8613H333.389ZM337.545 21.123H338.14C338.505 21.123 338.809 21.0612 339.053 20.9375C339.301 20.8105 339.486 20.6429 339.61 20.4346C339.737 20.2262 339.8 19.9951 339.8 19.7412C339.8 19.4548 339.747 19.2041 339.639 18.9893C339.532 18.7712 339.367 18.6019 339.146 18.4814C338.928 18.3577 338.648 18.2959 338.306 18.2959C338.007 18.2959 337.74 18.3545 337.505 18.4717C337.271 18.5889 337.086 18.7565 336.949 18.9746C336.812 19.1927 336.744 19.4531 336.744 19.7559H336.163C336.163 19.3685 336.255 19.0283 336.441 18.7354C336.627 18.4391 336.882 18.208 337.208 18.042C337.533 17.876 337.899 17.793 338.306 17.793C338.726 17.793 339.091 17.8695 339.4 18.0225C339.713 18.1755 339.953 18.3984 340.123 18.6914C340.295 18.9844 340.381 19.3408 340.381 19.7607C340.381 19.9756 340.334 20.1872 340.24 20.3955C340.149 20.6038 340.012 20.7926 339.83 20.9619C339.647 21.1279 339.421 21.2614 339.151 21.3623C338.881 21.4632 338.567 21.5137 338.209 21.5137H337.545V21.123ZM337.545 21.626V21.2402H338.209C338.615 21.2402 338.964 21.2874 339.254 21.3818C339.543 21.473 339.781 21.6032 339.966 21.7725C340.155 21.9385 340.294 22.1322 340.381 22.3535C340.469 22.5749 340.513 22.8125 340.513 23.0664C340.513 23.3919 340.46 23.68 340.352 23.9307C340.245 24.1813 340.092 24.3945 339.893 24.5703C339.698 24.7428 339.467 24.8747 339.2 24.9658C338.936 25.0537 338.646 25.0977 338.331 25.0977C338.044 25.0977 337.764 25.0553 337.491 24.9707C337.221 24.8861 336.976 24.7607 336.758 24.5947C336.544 24.4255 336.373 24.2139 336.246 23.96C336.119 23.7028 336.055 23.4066 336.055 23.0713H336.636C336.636 23.3708 336.708 23.6361 336.851 23.8672C336.994 24.0951 337.193 24.2741 337.447 24.4043C337.704 24.5312 337.999 24.5947 338.331 24.5947C338.666 24.5947 338.952 24.5378 339.19 24.4238C339.431 24.3066 339.615 24.1357 339.742 23.9111C339.869 23.6865 339.932 23.4115 339.932 23.0859C339.932 22.7441 339.856 22.4658 339.703 22.251C339.553 22.0361 339.343 21.8783 339.073 21.7773C338.806 21.6764 338.495 21.626 338.14 21.626H337.545ZM341.759 24.6436C341.759 24.5296 341.795 24.4336 341.866 24.3555C341.941 24.2741 342.042 24.2334 342.169 24.2334C342.299 24.2334 342.402 24.2725 342.477 24.3506C342.552 24.4287 342.589 24.5264 342.589 24.6436C342.589 24.7542 342.552 24.8486 342.477 24.9268C342.402 25.0049 342.299 25.0439 342.169 25.0439C342.042 25.0439 341.941 25.0049 341.866 24.9268C341.795 24.8486 341.759 24.7542 341.759 24.6436ZM341.774 20.1367C341.774 20.0228 341.809 19.9268 341.881 19.8486C341.956 19.7673 342.057 19.7266 342.184 19.7266C342.314 19.7266 342.417 19.7656 342.491 19.8438C342.566 19.9219 342.604 20.0195 342.604 20.1367C342.604 20.2474 342.566 20.3418 342.491 20.4199C342.417 20.498 342.314 20.5371 342.184 20.5371C342.057 20.5371 341.956 20.498 341.881 20.4199C341.809 20.3418 341.774 20.2474 341.774 20.1367ZM345.241 21.123H345.837C346.201 21.123 346.506 21.0612 346.75 20.9375C346.997 20.8105 347.183 20.6429 347.306 20.4346C347.433 20.2262 347.497 19.9951 347.497 19.7412C347.497 19.4548 347.443 19.2041 347.336 18.9893C347.228 18.7712 347.064 18.6019 346.843 18.4814C346.624 18.3577 346.345 18.2959 346.003 18.2959C345.703 18.2959 345.436 18.3545 345.202 18.4717C344.968 18.5889 344.782 18.7565 344.645 18.9746C344.509 19.1927 344.44 19.4531 344.44 19.7559H343.859C343.859 19.3685 343.952 19.0283 344.137 18.7354C344.323 18.4391 344.579 18.208 344.904 18.042C345.23 17.876 345.596 17.793 346.003 17.793C346.423 17.793 346.787 17.8695 347.096 18.0225C347.409 18.1755 347.65 18.3984 347.819 18.6914C347.992 18.9844 348.078 19.3408 348.078 19.7607C348.078 19.9756 348.031 20.1872 347.936 20.3955C347.845 20.6038 347.708 20.7926 347.526 20.9619C347.344 21.1279 347.118 21.2614 346.847 21.3623C346.577 21.4632 346.263 21.5137 345.905 21.5137H345.241V21.123ZM345.241 21.626V21.2402H345.905C346.312 21.2402 346.66 21.2874 346.95 21.3818C347.24 21.473 347.477 21.6032 347.663 21.7725C347.852 21.9385 347.99 22.1322 348.078 22.3535C348.166 22.5749 348.21 22.8125 348.21 23.0664C348.21 23.3919 348.156 23.68 348.049 23.9307C347.941 24.1813 347.788 24.3945 347.59 24.5703C347.394 24.7428 347.163 24.8747 346.896 24.9658C346.633 25.0537 346.343 25.0977 346.027 25.0977C345.741 25.0977 345.461 25.0553 345.187 24.9707C344.917 24.8861 344.673 24.7607 344.455 24.5947C344.24 24.4255 344.069 24.2139 343.942 23.96C343.815 23.7028 343.752 23.4066 343.752 23.0713H344.333C344.333 23.3708 344.404 23.6361 344.548 23.8672C344.691 24.0951 344.889 24.2741 345.143 24.4043C345.401 24.5312 345.695 24.5947 346.027 24.5947C346.362 24.5947 346.649 24.5378 346.887 24.4238C347.127 24.3066 347.311 24.1357 347.438 23.9111C347.565 23.6865 347.629 23.4115 347.629 23.0859C347.629 22.7441 347.552 22.4658 347.399 22.251C347.249 22.0361 347.04 21.8783 346.769 21.7773C346.502 21.6764 346.192 21.626 345.837 21.626H345.241ZM353.796 20.835V22.0312C353.796 22.5521 353.747 23.0062 353.65 23.3936C353.552 23.7777 353.409 24.0967 353.22 24.3506C353.035 24.6012 352.807 24.7884 352.537 24.9121C352.27 25.0358 351.964 25.0977 351.619 25.0977C351.345 25.0977 351.094 25.0586 350.867 24.9805C350.639 24.9023 350.435 24.7835 350.256 24.624C350.08 24.4613 349.931 24.2578 349.807 24.0137C349.683 23.7695 349.589 23.4831 349.524 23.1543C349.459 22.8223 349.426 22.4479 349.426 22.0312V20.835C349.426 20.3109 349.475 19.8584 349.573 19.4775C349.674 19.0967 349.817 18.7809 350.002 18.5303C350.191 18.2796 350.421 18.0941 350.691 17.9736C350.961 17.8499 351.267 17.7881 351.609 17.7881C351.882 17.7881 352.133 17.8288 352.361 17.9102C352.592 17.9883 352.795 18.1055 352.971 18.2617C353.15 18.418 353.3 18.6182 353.42 18.8623C353.544 19.1032 353.637 19.388 353.699 19.7168C353.764 20.0456 353.796 20.4183 353.796 20.835ZM353.215 22.0996V20.7617C353.215 20.4395 353.192 20.1465 353.147 19.8828C353.105 19.6191 353.041 19.388 352.956 19.1895C352.872 18.9909 352.764 18.8249 352.634 18.6914C352.507 18.5579 352.357 18.4587 352.185 18.3936C352.016 18.3252 351.824 18.291 351.609 18.291C351.345 18.291 351.112 18.3447 350.911 18.4521C350.712 18.5563 350.546 18.7126 350.413 18.9209C350.279 19.126 350.178 19.3831 350.11 19.6924C350.045 20.0016 350.012 20.3581 350.012 20.7617V22.0996C350.012 22.4186 350.033 22.71 350.076 22.9736C350.118 23.234 350.183 23.4652 350.271 23.667C350.359 23.8688 350.466 24.0397 350.593 24.1797C350.723 24.3164 350.873 24.4206 351.042 24.4922C351.215 24.5605 351.407 24.5947 351.619 24.5947C351.889 24.5947 352.123 24.541 352.322 24.4336C352.52 24.3229 352.686 24.1618 352.82 23.9502C352.953 23.7354 353.052 23.4733 353.118 23.1641C353.183 22.8516 353.215 22.4967 353.215 22.0996Z" fill="white"/>
<path d="M96.63 35.9V36.61H105.39V35.9H96.63ZM99.07 39.47V40.12H103.77V39.47H99.07ZM98.54 37.77V43.8H99.28V38.44H103.65V37.77H98.54ZM103.48 37.77V42.86C103.48 43.01 103.42 43.06 103.25 43.07C103.07 43.07 102.46 43.08 101.79 43.05C101.9 43.26 102.01 43.57 102.04 43.78C102.9 43.78 103.46 43.78 103.78 43.66C104.12 43.54 104.21 43.31 104.21 42.87V37.77H103.48ZM99.9 34.6C99.36 36.61 98.18 38.73 96.39 39.96C96.54 40.11 96.77 40.37 96.87 40.54C98.78 39.2 99.98 36.98 100.66 34.78L99.9 34.6ZM99.07 41.16V41.81H103.77V41.16H99.07ZM114.655 34.85C113.425 35.3 111.255 35.7 109.395 35.94C109.475 36.12 109.585 36.4 109.615 36.58C111.515 36.35 113.755 35.98 115.215 35.48L114.655 34.85ZM109.055 38.89V39.61H115.625V38.89H109.055ZM109.445 42.7V43.42H115.465V42.7H109.445ZM112.035 35.96V42.9H112.785V35.96H112.035ZM107.875 37.26V43.8H108.625V36.54L108.615 36.52L107.875 37.26ZM108.965 34.61C108.345 36.18 107.315 37.71 106.235 38.69C106.385 38.88 106.615 39.27 106.695 39.45C107.865 38.31 108.985 36.58 109.695 34.84L108.965 34.61ZM119.44 35.58V36.3H125.67V35.58H119.44ZM124.19 35.84V42.77C124.19 42.97 124.13 43.02 123.92 43.03C123.69 43.04 122.96 43.05 122.16 43.02C122.27 43.24 122.39 43.58 122.43 43.79C123.41 43.8 124.07 43.78 124.44 43.66C124.8 43.53 124.94 43.31 124.94 42.77V35.84H124.19ZM119.74 37.71V41.87H120.44V37.71H119.74ZM120.06 37.71V38.38H122.17V40.5H120.06V41.17H122.88V37.71H120.06ZM118.71 34.61C118.19 36.11 117.34 37.6 116.42 38.56C116.55 38.73 116.77 39.13 116.84 39.3C117.86 38.19 118.82 36.5 119.42 34.83L118.71 34.61ZM117.77 37.22V43.79H118.52V36.5L118.51 36.49L117.77 37.22ZM129.485 39.46V40.09H132.205V41.76H129.485V42.39H132.905V39.46H129.485ZM129.155 39.46V42.99H129.855V39.46H129.155ZM127.345 36.48V37.04H130.125V36.48H127.345ZM131.955 36.48V37.04H134.785V36.48H131.955ZM134.455 35.03V42.79C134.455 42.98 134.395 43.04 134.205 43.04C134.015 43.05 133.355 43.06 132.695 43.03C132.805 43.24 132.935 43.59 132.965 43.8C133.845 43.8 134.425 43.79 134.765 43.67C135.085 43.54 135.205 43.3 135.205 42.8V35.03H134.455ZM127.405 35.03V35.64H129.895V37.95H127.405V38.56H130.605V35.03H127.405ZM134.845 35.03H131.505V38.56H134.845V37.96H132.225V35.63H134.845V35.03ZM126.985 35.03V43.81H127.725V35.03H126.985ZM137.82 36.85H139.77V37.61H137.82V36.85ZM137.82 35.57H139.77V36.32H137.82V35.57ZM137.15 35.03V38.17H140.47V35.03H137.15ZM136.55 38.91V39.49H141.06V38.91H136.55ZM141 35.1V35.66H145.56V35.1H141ZM138.55 39.09V42.5L139.19 42.9V39.09H138.55ZM138.89 40.57V41.14H140.89V40.57H138.89ZM142.98 35.24C142.89 35.67 142.72 36.29 142.56 36.7L143.12 36.83C143.3 36.46 143.5 35.89 143.69 35.38L142.98 35.24ZM142.07 38.27H144.46V39.02H142.07V38.27ZM142.07 39.54H144.46V40.31H142.07V39.54ZM142.07 36.99H144.46V37.73H142.07V36.99ZM141.39 36.44V40.86H145.16V36.44H141.39ZM142.22 41.04C141.84 41.5 141.19 41.95 140.57 42.24C140.71 42.35 140.96 42.59 141.07 42.7C141.69 42.36 142.42 41.79 142.86 41.23L142.22 41.04ZM137.25 40.04C137.2 41.27 137.04 42.62 136.43 43.35C136.59 43.46 136.81 43.68 136.91 43.83C137.62 42.98 137.82 41.48 137.88 40.04H137.25ZM137.72 41.02L137.25 41.19C138.08 43.26 139.69 43.59 142.24 43.59H145.49C145.53 43.39 145.65 43.1 145.76 42.94C145.17 42.96 142.69 42.96 142.24 42.96C139.99 42.96 138.43 42.74 137.72 41.02ZM143.62 41.31C144.16 41.68 144.83 42.26 145.15 42.66L145.7 42.31C145.37 41.93 144.71 41.37 144.13 41.02L143.62 41.31ZM147.695 40.52V41.02H151.055V40.52H147.695ZM147.695 41.61V42.11H151.055V41.61H147.695ZM147.685 42.7V43.26H151.325V42.7H147.685ZM146.545 35.29V35.87H151.555V35.29H146.545ZM149.115 39.79V42.99H149.755V39.79H149.115ZM147.735 34.61V36.48H148.405V34.61H147.735ZM149.675 34.61V36.48H150.345V34.61H149.675ZM147.395 37.18H148.245V38.05H147.395V37.18ZM146.855 36.68V38.55H148.805V36.68H146.855ZM149.775 37.18H150.695V38.05H149.775V37.18ZM149.235 36.68V38.55H151.255V36.68H149.235ZM147.955 39.39H147.895L147.305 40.02V43.78H147.955V39.93H151.315V39.39H147.955ZM149.425 38.59C149.335 38.9 149.155 39.35 148.995 39.66L149.525 39.82C149.685 39.55 149.895 39.15 150.095 38.77L149.425 38.59ZM147.735 38.54C147.445 39.45 146.945 40.34 146.365 40.95C146.485 41.08 146.705 41.38 146.795 41.52C147.435 40.82 148.015 39.76 148.375 38.71L147.735 38.54ZM152.205 36.41V37.1H155.175V36.41H152.205ZM153.415 36.7H153.055V38.48C153.065 39.28 152.805 41.85 150.885 43.2C151.005 43.34 151.225 43.64 151.305 43.8C152.805 42.73 153.315 40.86 153.415 40.04C153.495 40.84 153.955 42.77 155.315 43.8C155.425 43.62 155.635 43.32 155.775 43.16C154.025 41.86 153.765 39.25 153.775 38.48V36.7H153.415ZM152.295 34.59C152.105 36.16 151.755 37.7 151.115 38.68C151.295 38.78 151.615 39 151.745 39.11C152.395 38.04 152.795 36.41 153.035 34.7L152.295 34.59ZM154.925 36.41V36.55C154.865 37.3 154.735 38.26 154.585 38.85L155.135 39.12C155.355 38.46 155.535 37.42 155.645 36.54L155.155 36.36L155.045 36.41H154.925ZM158.54 38.55H156.6V39.25H157.83V42.09H158.54V38.55ZM158.54 41.79H157.9C157.44 42.23 156.91 42.68 156.48 43.01L156.87 43.72C157.35 43.27 157.8 42.84 158.23 42.41C158.86 43.2 159.77 43.56 161.1 43.61C162.24 43.65 164.42 43.63 165.56 43.58C165.59 43.37 165.71 43.03 165.8 42.87C164.57 42.95 162.22 42.98 161.09 42.93C159.9 42.88 159.01 42.54 158.54 41.79ZM156.65 35.21C157.23 35.71 157.88 36.43 158.14 36.93L158.77 36.51C158.49 36 157.82 35.31 157.23 34.84L156.65 35.21ZM162.33 35.35V42.53H163.03V36H165.02V35.35H162.33ZM159.64 35.36V40.88H160.34V35.56L159.64 35.36ZM164.63 35.35V40.51C164.63 40.63 164.59 40.67 164.48 40.67C164.35 40.68 163.97 40.68 163.52 40.67C163.62 40.84 163.72 41.13 163.75 41.31C164.36 41.31 164.76 41.31 165.01 41.19C165.26 41.08 165.34 40.88 165.34 40.52V35.35H164.63ZM161.67 34.58C161.25 34.91 160.49 35.3 159.84 35.57C159.93 35.72 160.03 35.96 160.07 36.11C160.79 35.86 161.61 35.51 162.23 35.13L161.67 34.58ZM158.98 40.77L159.18 41.45C159.98 41.21 161.03 40.91 162.02 40.62L161.93 39.96C160.84 40.28 159.73 40.58 158.98 40.77ZM171.145 39.51V40.09H173.375V39.51H171.145ZM171.215 36.2V36.9H175.075V36.2H171.215ZM171.195 37.98V38.58H173.085V41.09H171.195V41.7H173.745V37.98H171.195ZM170.785 37.98V42.28H171.445V37.98H170.785ZM174.815 36.2V36.37C174.735 40.93 174.635 42.61 174.345 42.95C174.235 43.08 174.135 43.11 173.945 43.11C173.705 43.11 173.135 43.1 172.495 43.06C172.625 43.25 172.715 43.56 172.735 43.76C173.295 43.8 173.875 43.81 174.215 43.78C174.565 43.74 174.785 43.66 174.995 43.37C175.355 42.89 175.445 41.33 175.535 36.6C175.535 36.49 175.535 36.2 175.535 36.2H174.815ZM171.505 34.59C171.145 35.92 170.535 37.22 169.755 38.05C169.935 38.17 170.255 38.42 170.395 38.55C171.175 37.63 171.845 36.23 172.255 34.77L171.505 34.59ZM167.005 37.63V38.23H169.845V37.63H167.005ZM167.045 34.96V35.56H169.805V34.96H167.045ZM167.005 38.97V39.57H169.845V38.97H167.005ZM166.555 36.27V36.89H170.105V36.27H166.555ZM167.335 40.32V40.94H169.195V42.61H167.335V43.24H169.845V40.32H167.335ZM166.995 40.32V43.7H167.635V40.32H166.995ZM179.61 39.46V40.09H182.33V41.76H179.61V42.39H183.03V39.46H179.61ZM179.28 39.46V42.99H179.98V39.46H179.28ZM177.47 36.48V37.04H180.25V36.48H177.47ZM182.08 36.48V37.04H184.91V36.48H182.08ZM184.58 35.03V42.79C184.58 42.98 184.52 43.04 184.33 43.04C184.14 43.05 183.48 43.06 182.82 43.03C182.93 43.24 183.06 43.59 183.09 43.8C183.97 43.8 184.55 43.79 184.89 43.67C185.21 43.54 185.33 43.3 185.33 42.8V35.03H184.58ZM177.53 35.03V35.64H180.02V37.95H177.53V38.56H180.73V35.03H177.53ZM184.97 35.03H181.63V38.56H184.97V37.96H182.35V35.63H184.97V35.03ZM177.11 35.03V43.81H177.85V35.03H177.11Z" fill="#6F7387"/>
<circle cx="50" cy="35" r="30" fill="#4A4D5A"/>
<path d="M35.4865 39.9402H32L44.4521 19.0805C44.4945 19.0105 44.5985 19.0063 44.6452 19.0742L51.4166 28.9248C51.4484 28.9715 51.4357 29.033 51.3869 29.0627L48.9678 30.586C48.919 30.6157 48.8553 30.603 48.8235 30.5584L44.8192 24.7325C44.7768 24.671 44.6813 24.6731 44.6431 24.7367L35.5777 39.8893C35.5586 39.9211 35.5247 39.9402 35.4865 39.9402Z" fill="url(#paint0_linear_242_386042)"/>
<path d="M45.6219 50.9067C44.8707 50.9067 44.1195 50.773 43.4107 50.5036C41.4945 49.7738 40.2552 48.2271 40.0112 46.2561C39.7757 44.3594 40.2616 42.3905 41.3778 40.7123L55.7779 19.0528C55.8267 18.9807 55.9392 18.9828 55.9837 19.057L68.4867 39.7916C68.5271 39.8573 68.4761 39.9422 68.3955 39.9401L64.9472 39.8998C64.9111 39.8998 64.8772 39.8807 64.8581 39.8489L55.8309 24.7748C55.7927 24.709 55.6951 24.7069 55.6527 24.7705L43.9943 42.3057C43.26 43.4089 42.9396 44.6882 43.0924 45.9061C43.1688 46.5192 43.485 47.336 44.5566 47.7434C45.4118 48.068 46.4006 47.981 47.2006 47.5079C47.502 47.3297 47.6378 47.2151 47.9073 46.986C48.2999 46.6529 48.8346 46.201 50.0866 45.3587C50.1333 45.3269 50.2012 45.3375 50.233 45.382L51.9519 47.7328C50.7826 48.5178 50.3073 48.9187 49.9614 49.2115C49.6516 49.4746 49.3566 49.7228 48.8304 50.0347C47.8563 50.6118 46.7402 50.9067 45.6219 50.9067Z" fill="url(#paint1_linear_242_386042)"/>
<path fill-rule="evenodd" clip-rule="evenodd" d="M52.2023 33.5178C52.1386 33.503 52.075 33.5454 52.0707 33.6069L51.8649 36.2229L51.6654 38.7476C51.6591 38.8325 51.7567 38.8855 51.8288 38.8367L53.2801 37.8548L56.3002 42.3992C56.389 42.5327 56.4781 42.6614 56.5655 42.7878C57.2005 43.7052 57.7483 44.4966 57.4927 46.0929C57.3951 46.704 56.8116 47.4295 55.7378 47.8369C54.8826 48.1615 53.8938 48.0745 53.0938 47.6014L53.0004 47.5462C52.177 47.0604 51.1139 46.2117 50.246 44.9239C50.2099 44.8709 50.1335 44.8603 50.0868 44.9048L47.9606 46.9416C49.1587 48.7766 50.2521 49.4178 51.2137 49.9817C51.2671 50.013 51.3202 50.0441 51.3728 50.0752L51.464 50.1282C52.4402 50.7053 53.5564 51.0002 54.6747 51.0002C55.4238 51.0002 56.1771 50.8666 56.8858 50.595C58.802 49.8652 60.3596 48.2739 60.5973 46.303C60.8991 43.7813 60.0791 42.5484 59.0045 40.9327C58.9761 40.89 58.9475 40.847 58.9187 40.8038L55.8178 36.1377L57.4352 35.0433C57.5074 34.9945 57.4883 34.8863 57.4034 34.8651L54.8485 34.2031L52.2023 33.5178Z" fill="url(#paint2_linear_242_386042)"/>
<defs>
<linearGradient id="paint0_linear_242_386042" x1="41.717" y1="19.0255" x2="41.717" y2="39.9402" gradientUnits="userSpaceOnUse">
<stop stop-color="#FF4E84"/>
<stop offset="1" stop-color="#E134EE"/>
</linearGradient>
<linearGradient id="paint1_linear_242_386042" x1="54.227" y1="19" x2="54.227" y2="50.9067" gradientUnits="userSpaceOnUse">
<stop stop-color="#FF4E84"/>
<stop offset="1" stop-color="#E134EE"/>
</linearGradient>
<linearGradient id="paint2_linear_242_386042" x1="54.5727" y1="33.5149" x2="54.5727" y2="38.8554" gradientUnits="userSpaceOnUse">
<stop stop-color="#FF4E84"/>
<stop offset="1" stop-color="#E134EE"/>
</linearGradient>
</defs>
</svg>
