<svg width="375" height="70" viewBox="0 0 375 70" fill="none" xmlns="http://www.w3.org/2000/svg">
<rect width="375" height="70" fill="#FF4E84"/>
<path d="M180 30H196M195 30L194.133 42.142C194.097 42.6466 193.871 43.1188 193.501 43.4636C193.131 43.8083 192.644 44 192.138 44H183.862C183.356 44 182.869 43.8083 182.499 43.4636C182.129 43.1188 181.903 42.6466 181.867 42.142L181 30H195ZM186 34V40V34ZM190 34V40V34ZM191 30V27C191 26.7348 190.895 26.4804 190.707 26.2929C190.52 26.1054 190.265 26 190 26H186C185.735 26 185.48 26.1054 185.293 26.2929C185.105 26.4804 185 26.7348 185 27V30H191Z" stroke="white" stroke-width="2" stroke-linecap="round" stroke-linejoin="round"/>
</svg>
