<svg width="375" height="31" viewBox="0 0 375 31" fill="none" xmlns="http://www.w3.org/2000/svg">
<path d="M21.55 13.16V13.78H24.32V13.16H21.55ZM20.91 15.89V16.43H22.55V15.89H20.91ZM20.91 17.26V17.83H22.55V17.26H20.91ZM23.39 14.77V18.29H23.94V14.77H23.39ZM22.94 11.34C23.5 12.24 24.49 13.23 25.41 13.82C25.52 13.61 25.67 13.34 25.82 13.16C24.88 12.66 23.87 11.66 23.25 10.64H22.57C22.1 11.59 21.13 12.68 20.13 13.29C20.25 13.45 20.42 13.71 20.5 13.9C21.51 13.25 22.44 12.22 22.94 11.34ZM20.57 14.55V19.77H21.12V15.12H22.44V14.55H20.57ZM22.27 14.55V19.15C22.27 19.23 22.24 19.26 22.17 19.26C22.1 19.26 21.9 19.26 21.67 19.26C21.73 19.41 21.81 19.65 21.83 19.8C22.19 19.8 22.43 19.79 22.61 19.7C22.77 19.59 22.82 19.43 22.82 19.16V14.55H22.27ZM24.73 14.39V19.06C24.73 19.17 24.69 19.2 24.58 19.21C24.47 19.22 24.1 19.22 23.68 19.21C23.76 19.37 23.85 19.62 23.87 19.77C24.46 19.77 24.82 19.77 25.06 19.68C25.28 19.57 25.35 19.4 25.35 19.07V14.39H24.73ZM16.51 11.68V12.35H20.32V11.68H16.51ZM16.39 17.39V18.06H20.29V17.39H16.39ZM18.04 10.6V13.35H18.71V10.6H18.04ZM18.12 13.39V16.3H18.04V19.82H18.71V16.3H18.63V13.39H18.12ZM17.22 15.11H19.53V16.02H17.22V15.11ZM17.22 13.67H19.53V14.57H17.22V13.67ZM16.66 13.1V16.58H20.1V13.1H16.66ZM28.295 11.21V11.97H31.125V11.21H28.295ZM30.745 11.21C30.745 13.09 31.075 17.35 35.075 19.77C35.215 19.59 35.515 19.27 35.685 19.14C31.735 16.8 31.515 13 31.515 11.21H30.745ZM30.465 13.17C29.855 16 28.605 18.02 26.385 19.18C26.585 19.32 26.925 19.63 27.065 19.79C29.275 18.49 30.595 16.38 31.315 13.33L30.465 13.17ZM37.14 12.84V19.81H37.9V13.58H44.62V12.84H37.14ZM44.25 12.84V18.82C44.25 18.98 44.2 19.03 44.02 19.04C43.83 19.05 43.19 19.05 42.54 19.03C42.65 19.24 42.77 19.58 42.8 19.8C43.64 19.8 44.23 19.79 44.57 19.67C44.91 19.54 45.01 19.3 45.01 18.83V12.84H44.25ZM38.89 11.05V11.72H41.03V11.05H38.89ZM40.52 11.05V11.42H40.68C40.83 14.33 41.6 16.44 43.61 17.44C43.73 17.24 43.98 16.95 44.14 16.79C42.18 15.95 41.47 13.93 41.35 11.05H40.52ZM40.6 13.04C40.34 14.92 39.5 16.17 37.99 16.91C38.15 17.03 38.39 17.32 38.5 17.49C40.11 16.66 40.97 15.22 41.31 13.16L40.6 13.04ZM49.385 12.69C48.815 13.42 47.875 14.12 46.975 14.57C47.135 14.71 47.405 15.01 47.515 15.16C48.425 14.63 49.445 13.8 50.105 12.92L49.385 12.69ZM51.935 13.11C52.865 13.69 53.985 14.54 54.525 15.12L55.085 14.61C54.515 14.04 53.365 13.21 52.445 12.68L51.935 13.11ZM51.085 14.49C52.015 15.62 53.775 16.87 55.265 17.57C55.385 17.36 55.565 17.08 55.735 16.9C54.195 16.27 52.485 15.08 51.415 13.8H50.665C49.875 14.94 48.215 16.27 46.525 17.04C46.675 17.2 46.865 17.48 46.955 17.66C48.625 16.85 50.265 15.57 51.085 14.49ZM48.315 16.45V19.81H49.045V17.12H53.095V19.77H53.855V16.45H48.315ZM48.665 18.8V19.47H53.495V18.8H48.665ZM50.665 10.6V11.91H51.435V10.6H50.665ZM46.895 11.53V13.35H47.635V12.21H54.485V13.35H55.245V11.53H46.895Z" fill="white"/>
<path d="M352.875 11.1732C352.958 11.092 353.057 11.0274 353.167 10.9834C353.276 10.9393 353.394 10.9166 353.513 10.9166C353.632 10.9166 353.75 10.9393 353.859 10.9834C353.969 11.0274 354.068 11.092 354.152 11.1732C354.5 11.5104 354.505 12.0553 354.164 12.3983L346.952 20.5539C346.87 20.6399 346.77 20.709 346.66 20.7571C346.549 20.8051 346.429 20.831 346.307 20.8331C346.186 20.8353 346.065 20.8138 345.952 20.7698C345.84 20.7258 345.738 20.6602 345.653 20.5772L341.264 16.3233C341.095 16.1582 341 15.9361 341 15.7049C341 15.4736 341.095 15.2516 341.264 15.0865C341.347 15.0053 341.447 14.9407 341.556 14.8967C341.666 14.8526 341.784 14.8299 341.903 14.8299C342.022 14.8299 342.139 14.8526 342.249 14.8967C342.359 14.9407 342.458 15.0053 342.541 15.0865L346.264 18.6953L352.85 11.1989C352.858 11.1899 352.866 11.1813 352.875 11.1732Z" fill="#A8ABBD"/>
<path d="M0 30H375" stroke="#4A4D5A"/>
</svg>
