<svg width="375" height="136" viewBox="0 0 375 136" fill="none" xmlns="http://www.w3.org/2000/svg">
<path d="M0 135H375" stroke="#4A4D5A"/>
<path d="M21.55 13.16V13.78H24.32V13.16H21.55ZM20.91 15.89V16.43H22.55V15.89H20.91ZM20.91 17.26V17.83H22.55V17.26H20.91ZM23.39 14.77V18.29H23.94V14.77H23.39ZM22.94 11.34C23.5 12.24 24.49 13.23 25.41 13.82C25.52 13.61 25.67 13.34 25.82 13.16C24.88 12.66 23.87 11.66 23.25 10.64H22.57C22.1 11.59 21.13 12.68 20.13 13.29C20.25 13.45 20.42 13.71 20.5 13.9C21.51 13.25 22.44 12.22 22.94 11.34ZM20.57 14.55V19.77H21.12V15.12H22.44V14.55H20.57ZM22.27 14.55V19.15C22.27 19.23 22.24 19.26 22.17 19.26C22.1 19.26 21.9 19.26 21.67 19.26C21.73 19.41 21.81 19.65 21.83 19.8C22.19 19.8 22.43 19.79 22.61 19.7C22.77 19.59 22.82 19.43 22.82 19.16V14.55H22.27ZM24.73 14.39V19.06C24.73 19.17 24.69 19.2 24.58 19.21C24.47 19.22 24.1 19.22 23.68 19.21C23.76 19.37 23.85 19.62 23.87 19.77C24.46 19.77 24.82 19.77 25.06 19.68C25.28 19.57 25.35 19.4 25.35 19.07V14.39H24.73ZM16.51 11.68V12.35H20.32V11.68H16.51ZM16.39 17.39V18.06H20.29V17.39H16.39ZM18.04 10.6V13.35H18.71V10.6H18.04ZM18.12 13.39V16.3H18.04V19.82H18.71V16.3H18.63V13.39H18.12ZM17.22 15.11H19.53V16.02H17.22V15.11ZM17.22 13.67H19.53V14.57H17.22V13.67ZM16.66 13.1V16.58H20.1V13.1H16.66ZM28.295 11.21V11.97H31.125V11.21H28.295ZM30.745 11.21C30.745 13.09 31.075 17.35 35.075 19.77C35.215 19.59 35.515 19.27 35.685 19.14C31.735 16.8 31.515 13 31.515 11.21H30.745ZM30.465 13.17C29.855 16 28.605 18.02 26.385 19.18C26.585 19.32 26.925 19.63 27.065 19.79C29.275 18.49 30.595 16.38 31.315 13.33L30.465 13.17ZM37.14 12.84V19.81H37.9V13.58H44.62V12.84H37.14ZM44.25 12.84V18.82C44.25 18.98 44.2 19.03 44.02 19.04C43.83 19.05 43.19 19.05 42.54 19.03C42.65 19.24 42.77 19.58 42.8 19.8C43.64 19.8 44.23 19.79 44.57 19.67C44.91 19.54 45.01 19.3 45.01 18.83V12.84H44.25ZM38.89 11.05V11.72H41.03V11.05H38.89ZM40.52 11.05V11.42H40.68C40.83 14.33 41.6 16.44 43.61 17.44C43.73 17.24 43.98 16.95 44.14 16.79C42.18 15.95 41.47 13.93 41.35 11.05H40.52ZM40.6 13.04C40.34 14.92 39.5 16.17 37.99 16.91C38.15 17.03 38.39 17.32 38.5 17.49C40.11 16.66 40.97 15.22 41.31 13.16L40.6 13.04ZM49.385 12.69C48.815 13.42 47.875 14.12 46.975 14.57C47.135 14.71 47.405 15.01 47.515 15.16C48.425 14.63 49.445 13.8 50.105 12.92L49.385 12.69ZM51.935 13.11C52.865 13.69 53.985 14.54 54.525 15.12L55.085 14.61C54.515 14.04 53.365 13.21 52.445 12.68L51.935 13.11ZM51.085 14.49C52.015 15.62 53.775 16.87 55.265 17.57C55.385 17.36 55.565 17.08 55.735 16.9C54.195 16.27 52.485 15.08 51.415 13.8H50.665C49.875 14.94 48.215 16.27 46.525 17.04C46.675 17.2 46.865 17.48 46.955 17.66C48.625 16.85 50.265 15.57 51.085 14.49ZM48.315 16.45V19.81H49.045V17.12H53.095V19.77H53.855V16.45H48.315ZM48.665 18.8V19.47H53.495V18.8H48.665ZM50.665 10.6V11.91H51.435V10.6H50.665ZM46.895 11.53V13.35H47.635V12.21H54.485V13.35H55.245V11.53H46.895Z" fill="white"/>
<path d="M333.973 122.123H334.568C334.933 122.123 335.237 122.061 335.481 121.938C335.729 121.811 335.914 121.643 336.038 121.435C336.165 121.226 336.229 120.995 336.229 120.741C336.229 120.455 336.175 120.204 336.067 119.989C335.96 119.771 335.796 119.602 335.574 119.481C335.356 119.358 335.076 119.296 334.734 119.296C334.435 119.296 334.168 119.354 333.934 119.472C333.699 119.589 333.514 119.757 333.377 119.975C333.24 120.193 333.172 120.453 333.172 120.756H332.591C332.591 120.368 332.684 120.028 332.869 119.735C333.055 119.439 333.31 119.208 333.636 119.042C333.961 118.876 334.327 118.793 334.734 118.793C335.154 118.793 335.519 118.869 335.828 119.022C336.141 119.175 336.382 119.398 336.551 119.691C336.723 119.984 336.81 120.341 336.81 120.761C336.81 120.976 336.762 121.187 336.668 121.396C336.577 121.604 336.44 121.793 336.258 121.962C336.076 122.128 335.849 122.261 335.579 122.362C335.309 122.463 334.995 122.514 334.637 122.514H333.973V122.123ZM333.973 122.626V122.24H334.637C335.044 122.24 335.392 122.287 335.682 122.382C335.971 122.473 336.209 122.603 336.395 122.772C336.583 122.938 336.722 123.132 336.81 123.354C336.897 123.575 336.941 123.812 336.941 124.066C336.941 124.392 336.888 124.68 336.78 124.931C336.673 125.181 336.52 125.395 336.321 125.57C336.126 125.743 335.895 125.875 335.628 125.966C335.364 126.054 335.075 126.098 334.759 126.098C334.472 126.098 334.192 126.055 333.919 125.971C333.649 125.886 333.405 125.761 333.187 125.595C332.972 125.425 332.801 125.214 332.674 124.96C332.547 124.703 332.483 124.407 332.483 124.071H333.064C333.064 124.371 333.136 124.636 333.279 124.867C333.423 125.095 333.621 125.274 333.875 125.404C334.132 125.531 334.427 125.595 334.759 125.595C335.094 125.595 335.381 125.538 335.618 125.424C335.859 125.307 336.043 125.136 336.17 124.911C336.297 124.687 336.36 124.411 336.36 124.086C336.36 123.744 336.284 123.466 336.131 123.251C335.981 123.036 335.771 122.878 335.501 122.777C335.234 122.676 334.923 122.626 334.568 122.626H333.973ZM341.219 118.891L338.251 126.61H337.723L340.692 118.891H341.219ZM343.544 122.123H344.14C344.504 122.123 344.809 122.061 345.053 121.938C345.3 121.811 345.486 121.643 345.61 121.435C345.737 121.226 345.8 120.995 345.8 120.741C345.8 120.455 345.746 120.204 345.639 119.989C345.531 119.771 345.367 119.602 345.146 119.481C344.928 119.358 344.648 119.296 344.306 119.296C344.006 119.296 343.739 119.354 343.505 119.472C343.271 119.589 343.085 119.757 342.948 119.975C342.812 120.193 342.743 120.453 342.743 120.756H342.162C342.162 120.368 342.255 120.028 342.441 119.735C342.626 119.439 342.882 119.208 343.207 119.042C343.533 118.876 343.899 118.793 344.306 118.793C344.726 118.793 345.09 118.869 345.4 119.022C345.712 119.175 345.953 119.398 346.122 119.691C346.295 119.984 346.381 120.341 346.381 120.761C346.381 120.976 346.334 121.187 346.239 121.396C346.148 121.604 346.012 121.793 345.829 121.962C345.647 122.128 345.421 122.261 345.151 122.362C344.88 122.463 344.566 122.514 344.208 122.514H343.544V122.123ZM343.544 122.626V122.24H344.208C344.615 122.24 344.963 122.287 345.253 122.382C345.543 122.473 345.78 122.603 345.966 122.772C346.155 122.938 346.293 123.132 346.381 123.354C346.469 123.575 346.513 123.812 346.513 124.066C346.513 124.392 346.459 124.68 346.352 124.931C346.244 125.181 346.091 125.395 345.893 125.57C345.697 125.743 345.466 125.875 345.199 125.966C344.936 126.054 344.646 126.098 344.33 126.098C344.044 126.098 343.764 126.055 343.49 125.971C343.22 125.886 342.976 125.761 342.758 125.595C342.543 125.425 342.372 125.214 342.245 124.96C342.118 124.703 342.055 124.407 342.055 124.071H342.636C342.636 124.371 342.708 124.636 342.851 124.867C342.994 125.095 343.193 125.274 343.446 125.404C343.704 125.531 343.998 125.595 344.33 125.595C344.666 125.595 344.952 125.538 345.19 125.424C345.431 125.307 345.614 125.136 345.741 124.911C345.868 124.687 345.932 124.411 345.932 124.086C345.932 123.744 345.855 123.466 345.702 123.251C345.553 123.036 345.343 122.878 345.072 122.777C344.806 122.676 344.495 122.626 344.14 122.626H343.544ZM352.099 121.835V123.031C352.099 123.552 352.051 124.006 351.953 124.394C351.855 124.778 351.712 125.097 351.523 125.351C351.338 125.601 351.11 125.788 350.84 125.912C350.573 126.036 350.267 126.098 349.922 126.098C349.648 126.098 349.398 126.059 349.17 125.98C348.942 125.902 348.738 125.784 348.559 125.624C348.384 125.461 348.234 125.258 348.11 125.014C347.986 124.77 347.892 124.483 347.827 124.154C347.762 123.822 347.729 123.448 347.729 123.031V121.835C347.729 121.311 347.778 120.858 347.876 120.478C347.977 120.097 348.12 119.781 348.305 119.53C348.494 119.28 348.724 119.094 348.994 118.974C349.264 118.85 349.57 118.788 349.912 118.788C350.185 118.788 350.436 118.829 350.664 118.91C350.895 118.988 351.098 119.105 351.274 119.262C351.453 119.418 351.603 119.618 351.723 119.862C351.847 120.103 351.94 120.388 352.002 120.717C352.067 121.046 352.099 121.418 352.099 121.835ZM351.518 123.1V121.762C351.518 121.439 351.496 121.146 351.45 120.883C351.408 120.619 351.344 120.388 351.26 120.189C351.175 119.991 351.068 119.825 350.937 119.691C350.81 119.558 350.661 119.459 350.488 119.394C350.319 119.325 350.127 119.291 349.912 119.291C349.648 119.291 349.415 119.345 349.214 119.452C349.015 119.556 348.849 119.713 348.716 119.921C348.582 120.126 348.481 120.383 348.413 120.692C348.348 121.002 348.315 121.358 348.315 121.762V123.1C348.315 123.419 348.336 123.71 348.379 123.974C348.421 124.234 348.486 124.465 348.574 124.667C348.662 124.869 348.769 125.04 348.896 125.18C349.026 125.316 349.176 125.421 349.346 125.492C349.518 125.561 349.71 125.595 349.922 125.595C350.192 125.595 350.426 125.541 350.625 125.434C350.823 125.323 350.989 125.162 351.123 124.95C351.256 124.735 351.356 124.473 351.421 124.164C351.486 123.852 351.518 123.497 351.518 123.1ZM357.671 121.835V123.031C357.671 123.552 357.622 124.006 357.525 124.394C357.427 124.778 357.284 125.097 357.095 125.351C356.91 125.601 356.682 125.788 356.412 125.912C356.145 126.036 355.839 126.098 355.494 126.098C355.22 126.098 354.969 126.059 354.742 125.98C354.514 125.902 354.31 125.784 354.131 125.624C353.955 125.461 353.806 125.258 353.682 125.014C353.558 124.77 353.464 124.483 353.399 124.154C353.334 123.822 353.301 123.448 353.301 123.031V121.835C353.301 121.311 353.35 120.858 353.448 120.478C353.549 120.097 353.692 119.781 353.877 119.53C354.066 119.28 354.296 119.094 354.566 118.974C354.836 118.85 355.142 118.788 355.484 118.788C355.757 118.788 356.008 118.829 356.236 118.91C356.467 118.988 356.67 119.105 356.846 119.262C357.025 119.418 357.175 119.618 357.295 119.862C357.419 120.103 357.512 120.388 357.574 120.717C357.639 121.046 357.671 121.418 357.671 121.835ZM357.09 123.1V121.762C357.09 121.439 357.067 121.146 357.022 120.883C356.98 120.619 356.916 120.388 356.831 120.189C356.747 119.991 356.639 119.825 356.509 119.691C356.382 119.558 356.232 119.459 356.06 119.394C355.891 119.325 355.699 119.291 355.484 119.291C355.22 119.291 354.987 119.345 354.786 119.452C354.587 119.556 354.421 119.713 354.288 119.921C354.154 120.126 354.053 120.383 353.985 120.692C353.92 121.002 353.887 121.358 353.887 121.762V123.1C353.887 123.419 353.908 123.71 353.951 123.974C353.993 124.234 354.058 124.465 354.146 124.667C354.234 124.869 354.341 125.04 354.468 125.18C354.598 125.316 354.748 125.421 354.917 125.492C355.09 125.561 355.282 125.595 355.494 125.595C355.764 125.595 355.998 125.541 356.197 125.434C356.395 125.323 356.561 125.162 356.695 124.95C356.828 124.735 356.927 124.473 356.993 124.164C357.058 123.852 357.09 123.497 357.09 123.1Z" fill="#EFEFEF"/>
</svg>
