<svg width="375" height="30" viewBox="0 0 375 30" fill="none" xmlns="http://www.w3.org/2000/svg">
<g clip-path="url(#clip0_23_1866)">
<path d="M-1 30H374" stroke="#4A4D5A"/>
<g clip-path="url(#clip1_23_1866)">
<path d="M180.801 16.2965V17.3278H177.227V16.2965H180.801ZM178.258 14.7438H179.67V20.8844C179.67 21.0797 179.698 21.2301 179.753 21.3356C179.811 21.4371 179.891 21.5055 179.993 21.5406C180.094 21.5758 180.213 21.5934 180.35 21.5934C180.448 21.5934 180.542 21.5875 180.631 21.5758C180.721 21.5641 180.794 21.5524 180.848 21.5406L180.854 22.6188C180.737 22.6539 180.6 22.6852 180.444 22.7125C180.292 22.7399 180.116 22.7535 179.917 22.7535C179.592 22.7535 179.305 22.6969 179.055 22.5836C178.805 22.4664 178.61 22.277 178.469 22.0153C178.329 21.7535 178.258 21.4059 178.258 20.9723V14.7438ZM183.433 16.2965V22.6364H182.015V16.2965H183.433ZM181.921 14.6324C181.921 14.4176 181.991 14.2399 182.132 14.0992C182.277 13.9547 182.476 13.8824 182.73 13.8824C182.98 13.8824 183.177 13.9547 183.322 14.0992C183.466 14.2399 183.538 14.4176 183.538 14.6324C183.538 14.8434 183.466 15.0192 183.322 15.1598C183.177 15.3004 182.98 15.3707 182.73 15.3707C182.476 15.3707 182.277 15.3004 182.132 15.1598C181.991 15.0192 181.921 14.8434 181.921 14.6324ZM187.916 16.2965V17.3278H184.342V16.2965H187.916ZM185.373 14.7438H186.785V20.8844C186.785 21.0797 186.812 21.2301 186.867 21.3356C186.926 21.4371 187.006 21.5055 187.107 21.5406C187.209 21.5758 187.328 21.5934 187.465 21.5934C187.562 21.5934 187.656 21.5875 187.746 21.5758C187.836 21.5641 187.908 21.5524 187.963 21.5406L187.969 22.6188C187.852 22.6539 187.715 22.6852 187.559 22.7125C187.406 22.7399 187.23 22.7535 187.031 22.7535C186.707 22.7535 186.42 22.6969 186.17 22.5836C185.92 22.4664 185.725 22.277 185.584 22.0153C185.443 21.7535 185.373 21.4059 185.373 20.9723V14.7438ZM190.548 13.6364V22.6364H189.13V13.6364H190.548ZM194.919 22.7535C194.451 22.7535 194.027 22.6774 193.648 22.525C193.273 22.3688 192.953 22.152 192.687 21.8746C192.425 21.5973 192.224 21.2711 192.083 20.8961C191.943 20.5211 191.872 20.1168 191.872 19.6832V19.4489C191.872 18.9528 191.945 18.5035 192.089 18.1012C192.234 17.6989 192.435 17.3551 192.693 17.0699C192.951 16.7809 193.255 16.5602 193.607 16.4078C193.958 16.2555 194.339 16.1793 194.749 16.1793C195.203 16.1793 195.599 16.2555 195.939 16.4078C196.279 16.5602 196.56 16.775 196.783 17.0524C197.009 17.3258 197.177 17.652 197.287 18.0309C197.4 18.4098 197.456 18.8278 197.456 19.2848V19.8883H192.558V18.8746H196.062V18.7633C196.054 18.5094 196.003 18.2711 195.91 18.0485C195.82 17.8258 195.681 17.6461 195.494 17.5094C195.306 17.3727 195.056 17.3043 194.744 17.3043C194.509 17.3043 194.3 17.3551 194.117 17.4567C193.937 17.5543 193.787 17.6969 193.665 17.8844C193.544 18.0719 193.451 18.2985 193.384 18.5641C193.322 18.8258 193.29 19.1207 193.29 19.4489V19.6832C193.29 19.9606 193.328 20.2184 193.402 20.4567C193.48 20.691 193.593 20.8961 193.742 21.0719C193.89 21.2477 194.07 21.3864 194.281 21.4879C194.492 21.5856 194.732 21.6344 195.001 21.6344C195.341 21.6344 195.644 21.566 195.91 21.4293C196.175 21.2926 196.406 21.0992 196.601 20.8492L197.345 21.5699C197.208 21.7692 197.031 21.9606 196.812 22.1442C196.593 22.3239 196.326 22.4703 196.009 22.5836C195.697 22.6969 195.333 22.7535 194.919 22.7535Z" fill="#FF4E84"/>
</g>
</g>
<defs>
<clipPath id="clip0_23_1866">
<rect width="375" height="30" fill="white"/>
</clipPath>
<clipPath id="clip1_23_1866">
<rect width="374" height="17" fill="white" transform="translate(0 8)"/>
</clipPath>
</defs>
</svg>
