<svg width="375" height="61" viewBox="0 0 375 61" fill="none" xmlns="http://www.w3.org/2000/svg">
<path d="M0 60H375" stroke="#4A4D5A"/>
<path d="M28.47 33.866V34.888H32.278V33.866H28.47ZM20.742 25.9V26.922H26.118V25.9H20.742ZM27.994 24.99V35.91H29.016V25.998H31.718V35.812H32.782V24.99H27.994ZM25.838 25.9V26.152C25.74 32.144 25.614 34.216 25.292 34.65C25.166 34.832 25.04 34.874 24.83 34.86C24.564 34.86 23.962 34.86 23.304 34.804C23.486 35.098 23.598 35.56 23.612 35.868C24.242 35.91 24.886 35.91 25.278 35.854C25.698 35.812 25.95 35.686 26.202 35.322C26.65 34.706 26.748 32.662 26.86 26.432C26.86 26.292 26.86 25.9 26.86 25.9H25.838ZM22.73 23.436C22.716 28.336 22.73 32.956 20.392 35.42C20.658 35.574 21.022 35.896 21.204 36.134C23.668 33.46 23.738 28.602 23.752 23.436H22.73ZM37.213 24.094V25.158H41.175V24.094H37.213ZM40.643 24.094C40.643 26.726 41.105 32.69 46.705 36.078C46.901 35.826 47.321 35.378 47.559 35.196C42.029 31.92 41.721 26.6 41.721 24.094H40.643ZM40.251 26.838C39.397 30.8 37.647 33.628 34.539 35.252C34.819 35.448 35.295 35.882 35.491 36.106C38.585 34.286 40.433 31.332 41.441 27.062L40.251 26.838ZM52.4382 33.4893L55.3708 25.0469H56.7995L53.1149 35H52.0964L52.4382 33.4893ZM49.697 25.0469L52.6022 33.4893L52.9645 35H51.946L48.2682 25.0469H49.697ZM59.5894 25.0469V35H58.27V25.0469H59.5894ZM65.6947 31.0967H63.0355V30.0234H65.6947C66.2097 30.0234 66.6267 29.9414 66.9457 29.7773C67.2647 29.6133 67.4971 29.3854 67.6429 29.0938C67.7933 28.8021 67.8685 28.4694 67.8685 28.0957C67.8685 27.7539 67.7933 27.4326 67.6429 27.1318C67.4971 26.8311 67.2647 26.5895 66.9457 26.4072C66.6267 26.2204 66.2097 26.127 65.6947 26.127H63.3431V35H62.0238V25.0469H65.6947C66.4466 25.0469 67.0824 25.1768 67.6019 25.4365C68.1214 25.6963 68.5157 26.0563 68.7845 26.5166C69.0534 26.9723 69.1879 27.4941 69.1879 28.082C69.1879 28.7201 69.0534 29.2646 68.7845 29.7158C68.5157 30.167 68.1214 30.5111 67.6019 30.748C67.0824 30.9805 66.4466 31.0967 65.6947 31.0967Z" fill="white"/>
<path d="M339.046 23.875H347.954C348.053 23.875 348.15 23.8983 348.238 23.9431C348.326 23.9878 348.402 24.0527 348.46 24.1325L350.849 27.4175C350.892 27.476 350.913 27.5473 350.908 27.6194C350.904 27.6916 350.875 27.76 350.826 27.8131L343.729 35.5012C343.673 35.562 343.595 35.598 343.512 35.6013C343.43 35.6046 343.349 35.5749 343.288 35.5187C343.284 35.515 340.913 32.9469 336.174 27.8131C336.125 27.76 336.096 27.6916 336.091 27.6194C336.087 27.5473 336.108 27.476 336.151 27.4175L338.54 24.1325C338.598 24.0527 338.674 23.9878 338.762 23.9431C338.85 23.8983 338.947 23.875 339.046 23.875ZM339.364 25.125L337.614 27.5313L343.5 33.9062L349.386 27.5313L347.636 25.125H339.364Z" fill="#A8ABBD"/>
</svg>
