<svg width="253" height="70" viewBox="0 0 253 70" fill="none" xmlns="http://www.w3.org/2000/svg">
<g filter="url(#filter0_d_23_3436)">
<g clip-path="url(#clip0_23_3436)">
<rect x="20" y="20" width="213" height="30" rx="15" fill="#E134EE"/>
<path d="M58.7203 31.544L58.7203 38.572C58.7203 40.322 59.4343 40.728 61.7163 40.728C62.2343 40.728 66.4063 40.728 66.9803 40.728C69.2903 40.728 69.7383 39.972 70.0183 37.382C69.6963 37.326 69.2343 37.144 68.9403 36.948C68.7583 39.216 68.5203 39.692 66.9803 39.692C66.0423 39.692 62.3883 39.692 61.6463 39.692C60.1063 39.692 59.7983 39.482 59.7983 38.6L59.7983 31.544L58.7203 31.544ZM59.3083 33.84L59.3083 34.89L67.5683 34.89L67.5683 33.84L59.3083 33.84ZM57.9923 29.122L57.9923 30.158L67.1483 30.158L67.1483 35.576L68.2263 35.576L68.2263 29.122L57.9923 29.122ZM76.4513 29.038L76.4513 29.976L83.9973 29.976L83.9973 29.038L76.4513 29.038ZM76.8293 36.22L76.8293 37.158L83.6473 37.158L83.6473 36.22L76.8293 36.22ZM75.9333 39.79L75.9333 40.728L84.1793 40.728L84.1793 39.79L75.9333 39.79ZM79.6713 36.584L79.6713 40.364L80.7213 40.364L80.7213 36.584L79.6713 36.584ZM77.7953 30.41C77.4733 31.082 76.8713 32.132 76.3113 32.986C77.0393 33.966 77.6833 35.044 77.9773 35.772L78.8453 35.408C78.5513 34.778 77.9353 33.784 77.3333 32.972C77.7813 32.258 78.3413 31.362 78.7053 30.648L77.7953 30.41ZM80.2173 30.41C79.8953 31.082 79.2653 32.132 78.6633 32.986C79.4473 33.952 80.1333 35.044 80.4693 35.772L81.3093 35.394C81.0013 34.764 80.3433 33.784 79.6993 32.972C80.1753 32.258 80.7493 31.362 81.1413 30.648L80.2173 30.41ZM82.6393 30.41C82.3033 31.082 81.6453 32.132 81.0433 32.986C81.8553 33.952 82.5973 35.044 82.9473 35.772L83.8013 35.366C83.4513 34.736 82.7513 33.756 82.0793 32.972C82.5693 32.258 83.1433 31.376 83.5493 30.662L82.6393 30.41ZM73.4693 28.254C73.1053 29.178 72.4473 30.55 71.9433 31.362L72.6573 31.67C73.2033 30.9 73.8613 29.64 74.3933 28.604L73.4693 28.254ZM75.0373 29.85C74.2673 31.32 72.9513 33.406 71.9013 34.652L72.5453 35.016C73.5953 33.798 74.9533 31.81 75.9193 30.256L75.0373 29.85ZM71.2293 31.166C71.9713 31.88 72.8113 32.874 73.1613 33.546L73.7633 32.762C73.3993 32.118 72.5453 31.18 71.7893 30.494L71.2293 31.166ZM74.4913 33.056C75.0513 33.98 75.5973 35.226 75.7793 36.01L76.6053 35.632C76.4093 34.862 75.8353 33.658 75.2473 32.734L74.4913 33.056ZM71.1173 34.442L71.2293 35.38C72.5033 35.296 74.1833 35.198 75.8493 35.086L75.8493 34.204C74.0853 34.302 72.3353 34.386 71.1173 34.442ZM74.8553 36.444C75.1913 37.256 75.4853 38.32 75.5693 39.006L76.3813 38.754C76.2833 38.068 75.9893 37.018 75.6253 36.206L74.8553 36.444ZM71.9573 36.248C71.8033 37.466 71.5373 38.726 71.0893 39.58C71.2993 39.678 71.7193 39.86 71.8873 39.972C72.3353 39.076 72.6573 37.732 72.8393 36.402L71.9573 36.248ZM73.4413 34.848L73.4413 41.12L74.3653 41.12L74.3653 34.848L73.4413 34.848ZM85.6423 30.06L85.6423 31.054L97.9063 31.054L97.9063 30.06L85.6423 30.06ZM89.0583 35.058L89.0583 35.968L95.6383 35.968L95.6383 35.058L89.0583 35.058ZM88.3163 32.678L88.3163 41.12L89.3523 41.12L89.3523 33.616L95.4703 33.616L95.4703 32.678L88.3163 32.678ZM95.2323 32.678L95.2323 39.804C95.2323 40.014 95.1483 40.084 94.9103 40.098C94.6583 40.098 93.8043 40.112 92.8663 40.07C93.0203 40.364 93.1743 40.798 93.2163 41.092C94.4203 41.092 95.2043 41.092 95.6523 40.924C96.1283 40.756 96.2543 40.434 96.2543 39.818L96.2543 32.678L95.2323 32.678ZM90.2203 28.24C89.4643 31.054 87.8123 34.022 85.3063 35.744C85.5163 35.954 85.8383 36.318 85.9783 36.556C88.6523 34.68 90.3323 31.572 91.2843 28.492L90.2203 28.24ZM89.0583 37.424L89.0583 38.334L95.6383 38.334L95.6383 37.424L89.0583 37.424ZM106.144 38.9609L106.144 40L99.6293 40L99.6293 39.0908L102.89 35.4609C103.291 35.0143 103.601 34.6361 103.82 34.3262C104.043 34.0117 104.198 33.7314 104.285 33.4854C104.376 33.2347 104.421 32.9795 104.421 32.7197C104.421 32.3916 104.353 32.0954 104.216 31.8311C104.084 31.5622 103.888 31.348 103.628 31.1885C103.369 31.029 103.054 30.9492 102.685 30.9492C102.243 30.9492 101.874 31.0358 101.578 31.209C101.286 31.3776 101.067 31.6146 100.921 31.9199C100.775 32.2253 100.703 32.5762 100.703 32.9727L99.4379 32.9727C99.4379 32.4121 99.5609 31.8994 99.807 31.4346C100.053 30.9697 100.418 30.6006 100.901 30.3271C101.384 30.0492 101.979 29.9102 102.685 29.9102C103.314 29.9102 103.852 30.0218 104.298 30.2451C104.745 30.4639 105.087 30.7738 105.324 31.1748C105.565 31.5713 105.686 32.0361 105.686 32.5693C105.686 32.861 105.636 33.1572 105.536 33.458C105.44 33.7542 105.305 34.0505 105.132 34.3467C104.964 34.6429 104.765 34.9346 104.538 35.2217C104.314 35.5088 104.075 35.7913 103.82 36.0693L101.154 38.9609L106.144 38.9609ZM114.054 38.9609L114.054 40L107.539 40L107.539 39.0908L110.8 35.4609C111.201 35.0143 111.511 34.6361 111.73 34.3262C111.953 34.0117 112.108 33.7314 112.195 33.4854C112.286 33.2347 112.331 32.9795 112.331 32.7197C112.331 32.3916 112.263 32.0954 112.126 31.8311C111.994 31.5622 111.798 31.348 111.538 31.1885C111.279 31.029 110.964 30.9492 110.595 30.9492C110.153 30.9492 109.784 31.0358 109.488 31.209C109.196 31.3776 108.977 31.6146 108.831 31.9199C108.685 32.2253 108.613 32.5762 108.613 32.9727L107.348 32.9727C107.348 32.4121 107.471 31.8994 107.717 31.4346C107.963 30.9697 108.328 30.6006 108.811 30.3271C109.294 30.0492 109.889 29.9102 110.595 29.9102C111.224 29.9102 111.762 30.0218 112.208 30.2451C112.655 30.4639 112.997 30.7738 113.234 31.1748C113.475 31.5713 113.596 32.0361 113.596 32.5693C113.596 32.861 113.546 33.1572 113.446 33.458C113.35 33.7542 113.215 34.0505 113.042 34.3467C112.874 34.6429 112.675 34.9346 112.448 35.2217C112.224 35.5088 111.985 35.7913 111.73 36.0693L109.064 38.9609L114.054 38.9609ZM121.691 34.2305L121.691 35.748C121.691 36.5638 121.618 37.252 121.472 37.8125C121.326 38.373 121.116 38.8242 120.843 39.166C120.569 39.5078 120.239 39.7562 119.852 39.9111C119.469 40.0615 119.036 40.1367 118.553 40.1367C118.17 40.1367 117.817 40.0889 117.493 39.9932C117.17 39.8975 116.878 39.7448 116.618 39.5352C116.363 39.321 116.144 39.043 115.962 38.7012C115.78 38.3594 115.641 37.9447 115.545 37.457C115.449 36.9694 115.401 36.3997 115.401 35.748L115.401 34.2305C115.401 33.4147 115.474 32.7311 115.62 32.1797C115.771 31.6283 115.982 31.1862 116.256 30.8535C116.529 30.5163 116.857 30.2747 117.24 30.1289C117.628 29.9831 118.061 29.9102 118.539 29.9102C118.927 29.9102 119.282 29.958 119.606 30.0537C119.934 30.1449 120.225 30.293 120.481 30.498C120.736 30.6986 120.952 30.9674 121.13 31.3047C121.312 31.6374 121.451 32.0452 121.547 32.5283C121.643 33.0114 121.691 33.5788 121.691 34.2305ZM120.419 35.9531L120.419 34.0186C120.419 33.5719 120.392 33.18 120.337 32.8428C120.287 32.501 120.212 32.2093 120.111 31.9678C120.011 31.7262 119.884 31.5303 119.729 31.3799C119.578 31.2295 119.403 31.1201 119.202 31.0518C119.006 30.9788 118.785 30.9424 118.539 30.9424C118.238 30.9424 117.972 30.9993 117.739 31.1133C117.507 31.2227 117.311 31.3981 117.151 31.6396C116.996 31.8812 116.878 32.1979 116.796 32.5898C116.714 32.9818 116.673 33.458 116.673 34.0186L116.673 35.9531C116.673 36.3997 116.698 36.7939 116.748 37.1357C116.803 37.4775 116.883 37.7738 116.987 38.0244C117.092 38.2705 117.22 38.4733 117.37 38.6328C117.521 38.7923 117.694 38.9108 117.89 38.9883C118.09 39.0612 118.311 39.0977 118.553 39.0977C118.863 39.0977 119.134 39.0384 119.366 38.9199C119.599 38.8014 119.792 38.6169 119.947 38.3662C120.107 38.111 120.225 37.7852 120.303 37.3887C120.38 36.9876 120.419 36.5091 120.419 35.9531ZM128.797 28.674C128.699 30.536 128.699 37.27 122.987 40.182C123.309 40.42 123.659 40.742 123.841 41.008C129.637 37.858 129.847 30.872 129.959 28.674L128.797 28.674ZM129.917 28.954L128.909 29.052C129.007 30.34 129.399 38.166 135.335 41.008C135.503 40.714 135.825 40.364 136.133 40.126C130.365 37.48 129.959 30.046 129.917 28.954ZM139.71 39.916L139.71 40.686L147.452 40.686L147.452 39.916L139.71 39.916ZM139.066 37.746L139.066 41.134L140.102 41.134L140.102 38.516L147.046 38.516L147.046 41.12L148.124 41.12L148.124 37.746L139.066 37.746ZM137.666 29.234L137.666 30.046L149.496 30.046L149.496 29.234L137.666 29.234ZM138.66 30.998L138.66 31.782L148.558 31.782L148.558 30.998L138.66 30.998ZM137.232 36.122L137.232 36.962L149.874 36.962L149.874 36.122L137.232 36.122ZM142.986 28.226L142.986 31.334L144.05 31.334L144.05 28.226L142.986 28.226ZM140.312 35.212C140.564 35.59 140.816 36.136 140.886 36.5L141.894 36.192C141.782 35.842 141.544 35.324 141.264 34.946L140.312 35.212ZM145.73 34.876C145.604 35.282 145.31 35.87 145.072 36.262L145.968 36.5C146.22 36.15 146.556 35.646 146.85 35.114L145.73 34.876ZM140.312 33.224L146.78 33.224L146.78 34.344L140.312 34.344L140.312 33.224ZM139.318 32.496L139.318 35.058L147.83 35.058L147.83 32.496L139.318 32.496ZM152.793 36.528L152.793 37.228L157.497 37.228L157.497 36.528L152.793 36.528ZM152.793 38.054L152.793 38.754L157.497 38.754L157.497 38.054L152.793 38.054ZM152.779 39.58L152.779 40.364L157.875 40.364L157.875 39.58L152.779 39.58ZM151.183 29.206L151.183 30.018L158.197 30.018L158.197 29.206L151.183 29.206ZM154.781 35.506L154.781 39.986L155.677 39.986L155.677 35.506L154.781 35.506ZM152.849 28.254L152.849 30.872L153.787 30.872L153.787 28.254L152.849 28.254ZM155.565 28.254L155.565 30.872L156.503 30.872L156.503 28.254L155.565 28.254ZM152.373 31.852L153.563 31.852L153.563 33.07L152.373 33.07L152.373 31.852ZM151.617 31.152L151.617 33.77L154.347 33.77L154.347 31.152L151.617 31.152ZM155.705 31.852L156.993 31.852L156.993 33.07L155.705 33.07L155.705 31.852ZM154.949 31.152L154.949 33.77L157.777 33.77L157.777 31.152L154.949 31.152ZM153.157 34.946L153.073 34.946L152.247 35.828L152.247 41.092L153.157 41.092L153.157 35.702L157.861 35.702L157.861 34.946L153.157 34.946ZM155.215 33.826C155.089 34.26 154.837 34.89 154.613 35.324L155.355 35.548C155.579 35.17 155.873 34.61 156.153 34.078L155.215 33.826ZM152.849 33.756C152.443 35.03 151.743 36.276 150.931 37.13C151.099 37.312 151.407 37.732 151.533 37.928C152.429 36.948 153.241 35.464 153.745 33.994L152.849 33.756ZM159.107 30.774L159.107 31.74L163.265 31.74L163.265 30.774L159.107 30.774ZM160.801 31.18L160.297 31.18L160.297 33.672C160.311 34.792 159.947 38.39 157.259 40.28C157.427 40.476 157.735 40.896 157.847 41.12C159.947 39.622 160.661 37.004 160.801 35.856C160.913 36.976 161.557 39.678 163.461 41.12C163.615 40.868 163.909 40.448 164.105 40.224C161.655 38.404 161.291 34.75 161.305 33.672L161.305 31.18L160.801 31.18ZM159.233 28.226C158.967 30.424 158.477 32.58 157.581 33.952C157.833 34.092 158.281 34.4 158.463 34.554C159.373 33.056 159.933 30.774 160.269 28.38L159.233 28.226ZM162.915 30.774L162.915 30.97C162.831 32.02 162.649 33.364 162.439 34.19L163.209 34.568C163.517 33.644 163.769 32.188 163.923 30.956L163.237 30.704L163.083 30.774L162.915 30.774ZM171.098 33.014L171.098 39.748C171.098 40 171 40.084 170.692 40.098C170.37 40.112 169.292 40.112 168.13 40.07C168.298 40.378 168.494 40.826 168.564 41.134C169.978 41.134 170.916 41.12 171.462 40.952C172.008 40.798 172.19 40.476 172.19 39.776L172.19 33.014L171.098 33.014ZM166.002 29.346L166.002 30.368L176.11 30.368L176.11 29.346L166.002 29.346ZM175.732 29.346L175.732 29.598C174.85 30.76 173.002 32.37 171.406 33.252C171.63 33.406 171.966 33.756 172.12 33.98C173.856 33 175.83 31.348 177.076 29.864L176.264 29.276L176.012 29.346L175.732 29.346ZM185.175 28.31C184.713 30.368 183.901 32.384 182.865 33.686C183.103 33.84 183.523 34.176 183.705 34.358C184.783 32.93 185.665 30.774 186.211 28.534L185.175 28.31ZM184.937 34.246C184.545 35.926 183.873 37.592 183.005 38.67C183.257 38.796 183.705 39.076 183.915 39.244C184.769 38.068 185.525 36.29 185.959 34.456L184.937 34.246ZM185.049 30.942L184.643 31.922L191.349 31.922L191.349 30.942L185.049 30.942ZM187.219 31.348L187.219 39.846C187.219 40.028 187.163 40.084 186.981 40.084C186.785 40.084 186.183 40.098 185.525 40.07C185.679 40.378 185.833 40.84 185.903 41.134C186.771 41.134 187.373 41.106 187.751 40.924C188.143 40.756 188.269 40.448 188.269 39.846L188.269 31.348L187.219 31.348ZM189.277 34.456C190.047 35.926 190.747 37.9 190.971 39.188L191.965 38.852C191.727 37.55 191.027 35.618 190.215 34.148L189.277 34.456ZM191.041 30.942L191.041 31.096C190.901 32.02 190.719 33.196 190.565 33.896L191.475 34.064C191.657 33.308 191.895 32.104 192.091 31.068L191.363 30.914L191.181 30.942L191.041 30.942ZM182.361 28.296C181.577 30.424 180.261 32.524 178.875 33.882C179.071 34.12 179.365 34.68 179.477 34.918C180.989 33.35 182.431 30.984 183.355 28.604L182.361 28.296ZM180.905 31.908L180.905 41.106L181.913 41.106L181.913 30.928L181.885 30.914L180.905 31.908ZM195.168 30.0469L195.079 37.1904L193.938 37.1904L193.842 30.0469L195.168 30.0469ZM193.801 39.3643C193.801 39.1592 193.862 38.986 193.985 38.8447C194.113 38.7035 194.3 38.6328 194.546 38.6328C194.788 38.6328 194.972 38.7035 195.1 38.8447C195.232 38.986 195.298 39.1592 195.298 39.3643C195.298 39.5602 195.232 39.7288 195.1 39.8701C194.972 40.0114 194.788 40.082 194.546 40.082C194.3 40.082 194.113 40.0114 193.985 39.8701C193.862 39.7288 193.801 39.5602 193.801 39.3643Z" fill="white"/>
</g>
</g>
<defs>
<filter id="filter0_d_23_3436" x="0" y="0" width="253" height="70" filterUnits="userSpaceOnUse" color-interpolation-filters="sRGB">
<feFlood flood-opacity="0" result="BackgroundImageFix"/>
<feColorMatrix in="SourceAlpha" type="matrix" values="0 0 0 0 0 0 0 0 0 0 0 0 0 0 0 0 0 0 127 0" result="hardAlpha"/>
<feOffset/>
<feGaussianBlur stdDeviation="10"/>
<feComposite in2="hardAlpha" operator="out"/>
<feColorMatrix type="matrix" values="0 0 0 0 0 0 0 0 0 0 0 0 0 0 0 0 0 0 0.25 0"/>
<feBlend mode="normal" in2="BackgroundImageFix" result="effect1_dropShadow_23_3436"/>
<feBlend mode="normal" in="SourceGraphic" in2="effect1_dropShadow_23_3436" result="shape"/>
</filter>
<clipPath id="clip0_23_3436">
<rect x="20" y="20" width="213" height="30" rx="15" fill="white"/>
</clipPath>
</defs>
</svg>
