<svg width="270" height="50" viewBox="0 0 270 50" fill="none" xmlns="http://www.w3.org/2000/svg">
<rect x="0.5" y="0.5" width="269" height="49" rx="14.5" fill="white" stroke="#FF4E84"/>
<path d="M174.554 19.2031V32H172.348L166.608 22.833V32H164.402V19.2031H166.608L172.365 28.3877V19.2031H174.554ZM182.543 19.2031V32H180.354V19.2031H182.543ZM186.559 19.2031V20.9609H176.373V19.2031H186.559ZM193.362 17.1553V19.7832H192.008V17.1553H193.362ZM193.195 31.5078V33.8633H191.85V31.5078H193.195ZM194.522 28.6689C194.522 28.3291 194.452 28.0332 194.311 27.7812C194.176 27.5234 193.953 27.292 193.643 27.0869C193.332 26.876 192.916 26.6797 192.395 26.498C191.645 26.2344 190.989 25.9385 190.426 25.6104C189.869 25.2764 189.436 24.8662 189.125 24.3799C188.821 23.8877 188.668 23.2754 188.668 22.543C188.668 21.8223 188.832 21.1982 189.161 20.6709C189.494 20.1436 189.957 19.7363 190.549 19.4492C191.141 19.1621 191.832 19.0186 192.623 19.0186C193.233 19.0186 193.781 19.1094 194.267 19.291C194.759 19.4727 195.178 19.7393 195.524 20.0908C195.869 20.4424 196.133 20.876 196.315 21.3916C196.502 21.9014 196.596 22.4873 196.596 23.1494H194.487C194.487 22.7744 194.443 22.4404 194.355 22.1475C194.273 21.8486 194.15 21.5967 193.986 21.3916C193.822 21.1807 193.622 21.0195 193.388 20.9082C193.16 20.7969 192.899 20.7412 192.606 20.7412C192.19 20.7412 191.847 20.8203 191.577 20.9785C191.308 21.1309 191.109 21.3418 190.98 21.6113C190.857 21.8809 190.795 22.1885 190.795 22.5342C190.795 22.8682 190.86 23.1611 190.989 23.4131C191.118 23.665 191.337 23.8936 191.648 24.0986C191.964 24.2979 192.398 24.5 192.949 24.7051C193.704 24.9746 194.358 25.2764 194.909 25.6104C195.465 25.9385 195.893 26.3457 196.192 26.832C196.496 27.3125 196.649 27.9189 196.649 28.6514C196.649 29.4072 196.473 30.0488 196.121 30.5762C195.776 31.1035 195.289 31.5049 194.662 31.7803C194.041 32.0498 193.318 32.1846 192.492 32.1846C191.97 32.1846 191.452 32.1172 190.936 31.9824C190.426 31.8418 189.963 31.6133 189.547 31.2969C189.131 30.9805 188.8 30.5615 188.554 30.04C188.308 29.5127 188.185 28.8682 188.185 28.1064H190.312C190.312 28.5635 190.373 28.9443 190.496 29.249C190.619 29.5537 190.786 29.7939 190.997 29.9697C191.208 30.1455 191.443 30.2715 191.701 30.3477C191.964 30.4238 192.228 30.4619 192.492 30.4619C192.931 30.4619 193.3 30.3887 193.599 30.2422C193.904 30.0898 194.132 29.8789 194.285 29.6094C194.443 29.334 194.522 29.0205 194.522 28.6689ZM207.441 30.3125V32H198.863V30.5498L203.029 26.0059C203.486 25.4902 203.847 25.0449 204.11 24.6699C204.374 24.2949 204.559 23.958 204.664 23.6592C204.775 23.3545 204.831 23.0586 204.831 22.7715C204.831 22.3672 204.755 22.0127 204.603 21.708C204.456 21.3975 204.239 21.1543 203.952 20.9785C203.665 20.7969 203.316 20.7061 202.906 20.7061C202.432 20.7061 202.033 20.8086 201.711 21.0137C201.389 21.2188 201.146 21.5029 200.981 21.8662C200.817 22.2236 200.735 22.6338 200.735 23.0967H198.617C198.617 22.3525 198.787 21.6729 199.127 21.0576C199.467 20.4365 199.959 19.9443 200.604 19.5811C201.248 19.2119 202.024 19.0273 202.933 19.0273C203.788 19.0273 204.515 19.1709 205.112 19.458C205.71 19.7451 206.164 20.1523 206.475 20.6797C206.791 21.207 206.949 21.8311 206.949 22.5518C206.949 22.9502 206.885 23.3457 206.756 23.7383C206.627 24.1309 206.442 24.5234 206.202 24.916C205.968 25.3027 205.689 25.6924 205.367 26.085C205.045 26.4717 204.69 26.8643 204.304 27.2627L201.535 30.3125H207.441ZM211.677 26.0498L209.99 25.6367L210.684 19.2031H217.584V20.9961H212.442L212.09 24.1338C212.29 24.0166 212.565 23.9023 212.917 23.791C213.268 23.6738 213.67 23.6152 214.121 23.6152C214.724 23.6152 215.263 23.7148 215.738 23.9141C216.218 24.1074 216.626 24.3916 216.96 24.7666C217.294 25.1357 217.548 25.5869 217.724 26.1201C217.9 26.6475 217.988 27.2422 217.988 27.9043C217.988 28.4961 217.9 29.0498 217.724 29.5654C217.554 30.0811 217.297 30.5352 216.951 30.9277C216.605 31.3203 216.169 31.6279 215.641 31.8506C215.12 32.0674 214.502 32.1758 213.787 32.1758C213.254 32.1758 212.741 32.0996 212.249 31.9473C211.762 31.7891 211.326 31.5576 210.939 31.2529C210.552 30.9424 210.242 30.5615 210.007 30.1104C209.773 29.6533 209.638 29.1289 209.603 28.5371H211.677C211.73 28.9531 211.844 29.3076 212.02 29.6006C212.202 29.8877 212.442 30.1074 212.741 30.2598C213.04 30.4121 213.385 30.4883 213.778 30.4883C214.135 30.4883 214.443 30.4268 214.701 30.3037C214.959 30.1748 215.172 29.9932 215.342 29.7588C215.518 29.5186 215.647 29.2373 215.729 28.915C215.817 28.5928 215.861 28.2354 215.861 27.8428C215.861 27.4678 215.811 27.125 215.712 26.8145C215.618 26.5039 215.474 26.2344 215.281 26.0059C215.093 25.7773 214.856 25.6016 214.569 25.4785C214.282 25.3496 213.951 25.2852 213.576 25.2852C213.072 25.2852 212.685 25.3584 212.416 25.5049C212.152 25.6514 211.906 25.833 211.677 26.0498ZM228.385 24.5293V26.6211C228.385 27.623 228.285 28.4785 228.086 29.1875C227.893 29.8906 227.612 30.4619 227.242 30.9014C226.873 31.3408 226.431 31.6631 225.915 31.8682C225.406 32.0732 224.834 32.1758 224.201 32.1758C223.698 32.1758 223.229 32.1113 222.795 31.9824C222.367 31.8535 221.981 31.6514 221.635 31.376C221.289 31.1006 220.993 30.7461 220.747 30.3125C220.507 29.873 220.32 29.3486 220.185 28.7393C220.056 28.1299 219.991 27.4238 219.991 26.6211V24.5293C219.991 23.5215 220.091 22.6719 220.29 21.9805C220.49 21.2832 220.774 20.7178 221.143 20.2842C221.512 19.8447 221.951 19.5254 222.461 19.3262C222.977 19.127 223.551 19.0273 224.184 19.0273C224.694 19.0273 225.162 19.0918 225.59 19.2207C226.024 19.3438 226.41 19.54 226.75 19.8096C227.096 20.0791 227.389 20.4307 227.629 20.8643C227.875 21.292 228.063 21.8105 228.192 22.4199C228.321 23.0234 228.385 23.7266 228.385 24.5293ZM226.267 26.9199V24.2129C226.267 23.7031 226.238 23.2549 226.179 22.8682C226.12 22.4756 226.032 22.1445 225.915 21.875C225.804 21.5996 225.663 21.377 225.493 21.207C225.324 21.0312 225.13 20.9053 224.913 20.8291C224.697 20.7471 224.453 20.7061 224.184 20.7061C223.856 20.7061 223.563 20.7705 223.305 20.8994C223.047 21.0225 222.83 21.2217 222.655 21.4971C222.479 21.7725 222.344 22.1357 222.25 22.5869C222.162 23.0322 222.118 23.5742 222.118 24.2129V26.9199C222.118 27.4355 222.148 27.8896 222.206 28.2822C222.265 28.6748 222.353 29.0117 222.47 29.293C222.587 29.5684 222.728 29.7969 222.892 29.9785C223.062 30.1543 223.255 30.2832 223.472 30.3652C223.695 30.4473 223.938 30.4883 224.201 30.4883C224.535 30.4883 224.831 30.4238 225.089 30.2949C225.347 30.166 225.564 29.9609 225.74 29.6797C225.915 29.3926 226.047 29.0205 226.135 28.5635C226.223 28.1064 226.267 27.5586 226.267 26.9199ZM238.976 24.5293V26.6211C238.976 27.623 238.876 28.4785 238.677 29.1875C238.483 29.8906 238.202 30.4619 237.833 30.9014C237.464 31.3408 237.021 31.6631 236.506 31.8682C235.996 32.0732 235.425 32.1758 234.792 32.1758C234.288 32.1758 233.819 32.1113 233.386 31.9824C232.958 31.8535 232.571 31.6514 232.226 31.376C231.88 31.1006 231.584 30.7461 231.338 30.3125C231.098 29.873 230.91 29.3486 230.775 28.7393C230.646 28.1299 230.582 27.4238 230.582 26.6211V24.5293C230.582 23.5215 230.682 22.6719 230.881 21.9805C231.08 21.2832 231.364 20.7178 231.733 20.2842C232.102 19.8447 232.542 19.5254 233.052 19.3262C233.567 19.127 234.142 19.0273 234.774 19.0273C235.284 19.0273 235.753 19.0918 236.181 19.2207C236.614 19.3438 237.001 19.54 237.341 19.8096C237.686 20.0791 237.979 20.4307 238.22 20.8643C238.466 21.292 238.653 21.8105 238.782 22.4199C238.911 23.0234 238.976 23.7266 238.976 24.5293ZM236.857 26.9199V24.2129C236.857 23.7031 236.828 23.2549 236.769 22.8682C236.711 22.4756 236.623 22.1445 236.506 21.875C236.394 21.5996 236.254 21.377 236.084 21.207C235.914 21.0312 235.721 20.9053 235.504 20.8291C235.287 20.7471 235.044 20.7061 234.774 20.7061C234.446 20.7061 234.153 20.7705 233.895 20.8994C233.638 21.0225 233.421 21.2217 233.245 21.4971C233.069 21.7725 232.934 22.1357 232.841 22.5869C232.753 23.0322 232.709 23.5742 232.709 24.2129V26.9199C232.709 27.4355 232.738 27.8896 232.797 28.2822C232.855 28.6748 232.943 29.0117 233.06 29.293C233.178 29.5684 233.318 29.7969 233.482 29.9785C233.652 30.1543 233.846 30.2832 234.062 30.3652C234.285 30.4473 234.528 30.4883 234.792 30.4883C235.126 30.4883 235.422 30.4238 235.68 30.2949C235.937 30.166 236.154 29.9609 236.33 29.6797C236.506 29.3926 236.638 29.0205 236.726 28.5635C236.813 28.1064 236.857 27.5586 236.857 26.9199Z" fill="#FF4E84"/>
<path d="M35.0559 19.9922V30H33.7913V21.5713L31.2414 22.501V21.3594L34.8577 19.9922H35.0559ZM45.3311 28.9609V30H38.8165V29.0908L42.0772 25.4609C42.4783 25.0143 42.7882 24.6361 43.0069 24.3262C43.2302 24.0117 43.3852 23.7314 43.4718 23.4854C43.5629 23.2347 43.6085 22.9795 43.6085 22.7197C43.6085 22.3916 43.5401 22.0954 43.4034 21.8311C43.2712 21.5622 43.0753 21.348 42.8155 21.1885C42.5557 21.029 42.2413 20.9492 41.8721 20.9492C41.4301 20.9492 41.061 21.0358 40.7647 21.209C40.4731 21.3776 40.2543 21.6146 40.1085 21.9199C39.9626 22.2253 39.8897 22.5762 39.8897 22.9727H38.6251C38.6251 22.4121 38.7481 21.8994 38.9942 21.4346C39.2403 20.9697 39.6049 20.6006 40.088 20.3271C40.571 20.0492 41.1658 19.9102 41.8721 19.9102C42.5011 19.9102 43.0388 20.0218 43.4854 20.2451C43.932 20.4639 44.2738 20.7738 44.5108 21.1748C44.7524 21.5713 44.8731 22.0361 44.8731 22.5693C44.8731 22.861 44.823 23.1572 44.7227 23.458C44.627 23.7542 44.4926 24.0505 44.3194 24.3467C44.1508 24.6429 43.9526 24.9346 43.7247 25.2217C43.5014 25.5088 43.2621 25.7913 43.0069 26.0693L40.3409 28.9609H45.3311ZM50.6665 19.094V31.12H51.6465V20.032H57.8485V31.008H58.8565V19.094H50.6665ZM52.2205 22.062V22.888H57.3725V22.062H52.2205ZM51.1985 29.342V30.28H58.4085V29.342H51.1985ZM54.3485 20.48V24.918H55.2025V20.48H54.3485ZM53.6205 25.212H55.9865V27.382H53.6205V25.212ZM52.8085 24.428V28.18H56.8265V24.428H52.8085ZM49.2105 18.31C48.5245 20.438 47.3765 22.552 46.1165 23.924C46.2985 24.176 46.5925 24.75 46.6765 25.002C48.0765 23.392 49.3785 20.984 50.1765 18.59L49.2105 18.31ZM48.0485 21.74V31.148H49.0425V20.76L49.0285 20.746L48.0485 21.74ZM63.4695 18.982V20.004H70.7775V18.982H63.4695ZM63.4695 22.356V23.364H70.8335V22.356H63.4695ZM63.3575 25.744V26.752H70.7635V25.744H63.3575ZM62.8255 18.982V23.308C62.8255 25.562 62.5875 28.404 60.3335 30.378C60.5575 30.532 60.9775 30.91 61.1315 31.134C63.5395 29.034 63.8895 25.73 63.8895 23.308V18.982H62.8255ZM70.3155 18.982V29.566C70.3155 29.874 70.2035 29.972 69.8815 29.986C69.5595 29.986 68.4115 30 67.2495 29.958C67.4315 30.252 67.6275 30.756 67.6975 31.064C69.2095 31.064 70.1335 31.05 70.6795 30.868C71.2115 30.686 71.4075 30.322 71.4075 29.58V18.982H70.3155Z" fill="#383A44"/>
</svg>
