<svg width="270" height="50" viewBox="0 0 270 50" fill="none" xmlns="http://www.w3.org/2000/svg">
<rect width="270" height="50" rx="15" fill="#EFEFEF"/>
<path d="M174.655 19.2031V32H172.449L166.71 22.833V32H164.504V19.2031H166.71L172.467 28.3877V19.2031H174.655ZM182.644 19.2031V32H180.456V19.2031H182.644ZM186.661 19.2031V20.9609H176.474V19.2031H186.661ZM193.463 17.1553V19.7832H192.11V17.1553H193.463ZM193.296 31.5078V33.8633H191.952V31.5078H193.296ZM194.623 28.6689C194.623 28.3291 194.553 28.0332 194.413 27.7812C194.278 27.5234 194.055 27.292 193.745 27.0869C193.434 26.876 193.018 26.6797 192.497 26.498C191.747 26.2344 191.09 25.9385 190.528 25.6104C189.971 25.2764 189.538 24.8662 189.227 24.3799C188.922 23.8877 188.77 23.2754 188.77 22.543C188.77 21.8223 188.934 21.1982 189.262 20.6709C189.596 20.1436 190.059 19.7363 190.651 19.4492C191.243 19.1621 191.934 19.0186 192.725 19.0186C193.334 19.0186 193.882 19.1094 194.369 19.291C194.861 19.4727 195.28 19.7393 195.625 20.0908C195.971 20.4424 196.235 20.876 196.416 21.3916C196.604 21.9014 196.698 22.4873 196.698 23.1494H194.588C194.588 22.7744 194.544 22.4404 194.456 22.1475C194.374 21.8486 194.251 21.5967 194.087 21.3916C193.923 21.1807 193.724 21.0195 193.49 20.9082C193.261 20.7969 193 20.7412 192.707 20.7412C192.291 20.7412 191.949 20.8203 191.679 20.9785C191.41 21.1309 191.21 21.3418 191.081 21.6113C190.958 21.8809 190.897 22.1885 190.897 22.5342C190.897 22.8682 190.961 23.1611 191.09 23.4131C191.219 23.665 191.439 23.8936 191.749 24.0986C192.066 24.2979 192.499 24.5 193.05 24.7051C193.806 24.9746 194.459 25.2764 195.01 25.6104C195.567 25.9385 195.995 26.3457 196.293 26.832C196.598 27.3125 196.75 27.9189 196.75 28.6514C196.75 29.4072 196.575 30.0488 196.223 30.5762C195.877 31.1035 195.391 31.5049 194.764 31.7803C194.143 32.0498 193.419 32.1846 192.593 32.1846C192.072 32.1846 191.553 32.1172 191.038 31.9824C190.528 31.8418 190.065 31.6133 189.649 31.2969C189.233 30.9805 188.902 30.5615 188.656 30.04C188.41 29.5127 188.287 28.8682 188.287 28.1064H190.414C190.414 28.5635 190.475 28.9443 190.598 29.249C190.721 29.5537 190.888 29.7939 191.099 29.9697C191.31 30.1455 191.544 30.2715 191.802 30.3477C192.066 30.4238 192.33 30.4619 192.593 30.4619C193.033 30.4619 193.402 30.3887 193.701 30.2422C194.005 30.0898 194.234 29.8789 194.386 29.6094C194.544 29.334 194.623 29.0205 194.623 28.6689ZM204.748 19.1592V32H202.63V21.6729L199.492 22.7363V20.9873L204.493 19.1592H204.748ZM212.043 24.6436H213.308C213.801 24.6436 214.208 24.5586 214.53 24.3887C214.858 24.2188 215.101 23.9844 215.259 23.6855C215.418 23.3867 215.497 23.0439 215.497 22.6572C215.497 22.2529 215.424 21.9072 215.277 21.6201C215.136 21.3271 214.92 21.1016 214.627 20.9434C214.34 20.7852 213.973 20.7061 213.528 20.7061C213.153 20.7061 212.813 20.7822 212.509 20.9346C212.21 21.0811 211.972 21.292 211.797 21.5674C211.621 21.8369 211.533 22.1592 211.533 22.5342H209.406C209.406 21.8545 209.585 21.251 209.942 20.7236C210.3 20.1963 210.786 19.7832 211.401 19.4844C212.022 19.1797 212.719 19.0273 213.493 19.0273C214.319 19.0273 215.04 19.165 215.655 19.4404C216.276 19.71 216.759 20.1143 217.105 20.6533C217.451 21.1924 217.624 21.8604 217.624 22.6572C217.624 23.0205 217.539 23.3896 217.369 23.7646C217.199 24.1396 216.947 24.4824 216.613 24.793C216.279 25.0977 215.863 25.3467 215.365 25.54C214.867 25.7275 214.29 25.8213 213.634 25.8213H212.043V24.6436ZM212.043 26.2959V25.1357H213.634C214.384 25.1357 215.022 25.2236 215.55 25.3994C216.083 25.5752 216.516 25.8184 216.85 26.1289C217.184 26.4336 217.427 26.7822 217.58 27.1748C217.738 27.5674 217.817 27.9834 217.817 28.4229C217.817 29.0205 217.709 29.5537 217.492 30.0225C217.281 30.4854 216.979 30.8779 216.587 31.2002C216.194 31.5225 215.734 31.7656 215.207 31.9297C214.685 32.0938 214.117 32.1758 213.502 32.1758C212.951 32.1758 212.424 32.0996 211.92 31.9473C211.416 31.7949 210.965 31.5693 210.566 31.2705C210.168 30.9658 209.851 30.5879 209.617 30.1367C209.388 29.6797 209.274 29.1523 209.274 28.5547H211.392C211.392 28.9355 211.48 29.2725 211.656 29.5654C211.838 29.8525 212.09 30.0781 212.412 30.2422C212.74 30.4062 213.115 30.4883 213.537 30.4883C213.982 30.4883 214.366 30.4092 214.688 30.251C215.01 30.0928 215.257 29.8584 215.426 29.5479C215.602 29.2373 215.69 28.8623 215.69 28.4229C215.69 27.9248 215.593 27.5205 215.4 27.21C215.207 26.8994 214.931 26.6709 214.574 26.5244C214.217 26.3721 213.795 26.2959 213.308 26.2959H212.043ZM228.487 24.5293V26.6211C228.487 27.623 228.387 28.4785 228.188 29.1875C227.994 29.8906 227.713 30.4619 227.344 30.9014C226.975 31.3408 226.533 31.6631 226.017 31.8682C225.507 32.0732 224.936 32.1758 224.303 32.1758C223.799 32.1758 223.33 32.1113 222.897 31.9824C222.469 31.8535 222.082 31.6514 221.737 31.376C221.391 31.1006 221.095 30.7461 220.849 30.3125C220.609 29.873 220.421 29.3486 220.286 28.7393C220.158 28.1299 220.093 27.4238 220.093 26.6211V24.5293C220.093 23.5215 220.193 22.6719 220.392 21.9805C220.591 21.2832 220.875 20.7178 221.244 20.2842C221.614 19.8447 222.053 19.5254 222.563 19.3262C223.078 19.127 223.653 19.0273 224.286 19.0273C224.795 19.0273 225.264 19.0918 225.692 19.2207C226.125 19.3438 226.512 19.54 226.852 19.8096C227.198 20.0791 227.491 20.4307 227.731 20.8643C227.977 21.292 228.164 21.8105 228.293 22.4199C228.422 23.0234 228.487 23.7266 228.487 24.5293ZM226.369 26.9199V24.2129C226.369 23.7031 226.339 23.2549 226.281 22.8682C226.222 22.4756 226.134 22.1445 226.017 21.875C225.906 21.5996 225.765 21.377 225.595 21.207C225.425 21.0312 225.232 20.9053 225.015 20.8291C224.798 20.7471 224.555 20.7061 224.286 20.7061C223.957 20.7061 223.664 20.7705 223.407 20.8994C223.149 21.0225 222.932 21.2217 222.756 21.4971C222.58 21.7725 222.446 22.1357 222.352 22.5869C222.264 23.0322 222.22 23.5742 222.22 24.2129V26.9199C222.22 27.4355 222.249 27.8896 222.308 28.2822C222.367 28.6748 222.454 29.0117 222.572 29.293C222.689 29.5684 222.829 29.7969 222.994 29.9785C223.163 30.1543 223.357 30.2832 223.574 30.3652C223.796 30.4473 224.039 30.4883 224.303 30.4883C224.637 30.4883 224.933 30.4238 225.191 30.2949C225.449 30.166 225.665 29.9609 225.841 29.6797C226.017 29.3926 226.149 29.0205 226.237 28.5635C226.325 28.1064 226.369 27.5586 226.369 26.9199ZM239.077 24.5293V26.6211C239.077 27.623 238.978 28.4785 238.778 29.1875C238.585 29.8906 238.304 30.4619 237.935 30.9014C237.565 31.3408 237.123 31.6631 236.607 31.8682C236.098 32.0732 235.526 32.1758 234.894 32.1758C234.39 32.1758 233.921 32.1113 233.487 31.9824C233.06 31.8535 232.673 31.6514 232.327 31.376C231.981 31.1006 231.686 30.7461 231.439 30.3125C231.199 29.873 231.012 29.3486 230.877 28.7393C230.748 28.1299 230.684 27.4238 230.684 26.6211V24.5293C230.684 23.5215 230.783 22.6719 230.982 21.9805C231.182 21.2832 231.466 20.7178 231.835 20.2842C232.204 19.8447 232.644 19.5254 233.153 19.3262C233.669 19.127 234.243 19.0273 234.876 19.0273C235.386 19.0273 235.854 19.0918 236.282 19.2207C236.716 19.3438 237.103 19.54 237.442 19.8096C237.788 20.0791 238.081 20.4307 238.321 20.8643C238.567 21.292 238.755 21.8105 238.884 22.4199C239.013 23.0234 239.077 23.7266 239.077 24.5293ZM236.959 26.9199V24.2129C236.959 23.7031 236.93 23.2549 236.871 22.8682C236.812 22.4756 236.725 22.1445 236.607 21.875C236.496 21.5996 236.355 21.377 236.186 21.207C236.016 21.0312 235.822 20.9053 235.605 20.8291C235.389 20.7471 235.146 20.7061 234.876 20.7061C234.548 20.7061 234.255 20.7705 233.997 20.8994C233.739 21.0225 233.522 21.2217 233.347 21.4971C233.171 21.7725 233.036 22.1357 232.942 22.5869C232.854 23.0322 232.811 23.5742 232.811 24.2129V26.9199C232.811 27.4355 232.84 27.8896 232.898 28.2822C232.957 28.6748 233.045 29.0117 233.162 29.293C233.279 29.5684 233.42 29.7969 233.584 29.9785C233.754 30.1543 233.947 30.2832 234.164 30.3652C234.387 30.4473 234.63 30.4883 234.894 30.4883C235.228 30.4883 235.523 30.4238 235.781 30.2949C236.039 30.166 236.256 29.9609 236.432 29.6797C236.607 29.3926 236.739 29.0205 236.827 28.5635C236.915 28.1064 236.959 27.5586 236.959 26.9199Z" fill="#6F7387"/>
<path d="M51.4268 25.2627L50.415 25.0029L50.9141 20.0469H56.0205V21.2158H51.9873L51.6865 23.9229C51.8688 23.818 52.099 23.7201 52.377 23.6289C52.6595 23.5378 52.9831 23.4922 53.3477 23.4922C53.8079 23.4922 54.2204 23.5719 54.585 23.7314C54.9495 23.8864 55.2594 24.1097 55.5146 24.4014C55.7744 24.693 55.9727 25.0439 56.1094 25.4541C56.2461 25.8643 56.3145 26.3223 56.3145 26.8281C56.3145 27.3066 56.2484 27.7464 56.1162 28.1475C55.9886 28.5485 55.7949 28.8994 55.5352 29.2002C55.2754 29.4964 54.9473 29.7266 54.5508 29.8906C54.1589 30.0547 53.6963 30.1367 53.1631 30.1367C52.762 30.1367 52.3815 30.082 52.0215 29.9727C51.666 29.8587 51.347 29.6878 51.0645 29.46C50.7865 29.2275 50.5586 28.9404 50.3809 28.5986C50.2077 28.2523 50.0983 27.8467 50.0527 27.3818H51.2559C51.3105 27.7555 51.4199 28.07 51.584 28.3252C51.748 28.5804 51.9622 28.7741 52.2266 28.9062C52.4954 29.0339 52.8076 29.0977 53.1631 29.0977C53.4639 29.0977 53.7305 29.0452 53.9629 28.9404C54.1953 28.8356 54.3913 28.6852 54.5508 28.4893C54.7103 28.2933 54.8311 28.0563 54.9131 27.7783C54.9997 27.5003 55.043 27.1882 55.043 26.8418C55.043 26.5273 54.9997 26.2357 54.9131 25.9668C54.8265 25.6979 54.6966 25.4632 54.5234 25.2627C54.3548 25.0622 54.1475 24.9072 53.9014 24.7979C53.6553 24.6839 53.3727 24.627 53.0537 24.627C52.6299 24.627 52.3086 24.6839 52.0898 24.7979C51.8757 24.9118 51.6546 25.0667 51.4268 25.2627ZM61.684 19.094V31.12H62.664V20.032H68.866V31.008H69.874V19.094H61.684ZM63.238 22.062V22.888H68.39V22.062H63.238ZM62.216 29.342V30.28H69.426V29.342H62.216ZM65.366 20.48V24.918H66.22V20.48H65.366ZM64.638 25.212H67.004V27.382H64.638V25.212ZM63.826 24.428V28.18H67.844V24.428H63.826ZM60.228 18.31C59.542 20.438 58.394 22.552 57.134 23.924C57.316 24.176 57.61 24.75 57.694 25.002C59.094 23.392 60.396 20.984 61.194 18.59L60.228 18.31ZM59.066 21.74V31.148H60.06V20.76L60.046 20.746L59.066 21.74ZM72.037 21.516V23.952H73.045V22.356H82.803V24.05H83.839V21.516H72.037ZM82.411 18.24C80.143 18.702 75.929 18.982 72.499 19.08C72.583 19.29 72.695 19.654 72.709 19.878C76.209 19.794 80.451 19.514 83.111 18.968L82.411 18.24ZM73.759 20.018C74.165 20.522 74.571 21.236 74.711 21.698L75.621 21.32C75.453 20.83 75.033 20.158 74.599 19.668L73.759 20.018ZM76.811 19.752C77.189 20.298 77.539 21.054 77.637 21.53L78.561 21.208C78.449 20.704 78.071 19.976 77.679 19.444L76.811 19.752ZM80.563 23.532C81.361 24.176 82.299 25.128 82.719 25.758L83.489 25.184C83.055 24.554 82.103 23.644 81.291 23.028L80.563 23.532ZM76.629 22.804C77.371 23.126 78.253 23.658 78.715 24.036L79.261 23.406C78.813 23.028 77.889 22.538 77.161 22.23L76.629 22.804ZM81.515 19.43C81.207 20.074 80.605 20.998 80.171 21.586L80.941 21.922C81.417 21.376 82.019 20.564 82.523 19.822L81.515 19.43ZM80.675 26.556V26.724C79.205 28.894 75.537 29.916 71.687 30.28C71.883 30.49 72.149 30.91 72.247 31.162C76.153 30.672 79.975 29.566 81.753 26.962L81.095 26.528L80.913 26.556H80.675ZM75.453 27.116L74.627 27.466C76.419 29.636 79.835 30.756 83.643 31.148C83.783 30.868 84.035 30.434 84.259 30.21C80.479 29.916 77.063 28.936 75.453 27.116ZM76.405 25.394C75.397 26.654 73.619 27.732 71.883 28.404C72.093 28.558 72.457 28.908 72.625 29.104C74.319 28.348 76.167 27.144 77.329 25.73L76.405 25.394ZM75.495 23.182V24.526C75.495 25.422 75.803 25.632 77.077 25.632C77.329 25.632 79.065 25.632 79.345 25.632C80.255 25.632 80.535 25.366 80.633 24.232C80.367 24.176 80.003 24.064 79.793 23.924C79.751 24.75 79.653 24.848 79.219 24.848C78.841 24.848 77.427 24.848 77.161 24.848C76.573 24.848 76.475 24.806 76.475 24.512V23.182H75.495ZM74.123 23.196C73.815 24.036 73.241 24.862 72.401 25.324L73.143 25.926C74.067 25.38 74.599 24.442 74.935 23.532L74.123 23.196ZM75.761 26.556L74.977 27.34H80.913V26.556H75.761ZM89.236 22.16V29.188C89.236 30.56 89.67 30.938 91.154 30.938C91.476 30.938 93.562 30.938 93.898 30.938C95.424 30.938 95.746 30.154 95.9 27.508C95.592 27.438 95.158 27.242 94.906 27.032C94.794 29.454 94.668 29.972 93.842 29.972C93.366 29.972 91.602 29.972 91.252 29.972C90.482 29.972 90.314 29.846 90.314 29.188V22.16H89.236ZM89.348 19.108C91.042 19.71 93.086 20.76 94.164 21.572L94.836 20.648C93.73 19.892 91.7 18.884 90.006 18.31L89.348 19.108ZM86.898 23.28C86.702 25.1 86.24 27.144 85.302 28.376L86.254 28.95C87.262 27.606 87.696 25.366 87.906 23.49L86.898 23.28ZM95.06 23.294C96.25 24.876 97.3 27.06 97.608 28.53L98.658 28.026C98.308 26.542 97.258 24.428 95.998 22.832L95.06 23.294Z" fill="#383A44"/>
<path d="M30 22.6671C29.9999 22.202 30.1 21.7415 30.2943 21.3126C30.4886 20.8837 30.7733 20.495 31.1318 20.1691C31.4902 19.8433 31.9152 19.5869 32.382 19.4148C32.8487 19.2428 33.3477 19.1586 33.85 19.1673C34.4443 19.1643 35.0324 19.2784 35.5755 19.5019C36.1186 19.7253 36.6041 20.0531 37 20.4635C37.3959 20.0531 37.8814 19.7253 38.4245 19.5019C38.9676 19.2784 39.5557 19.1643 40.15 19.1673C40.6523 19.1586 41.1513 19.2428 41.618 19.4148C42.0848 19.5869 42.5098 19.8433 42.8682 20.1691C43.2267 20.495 43.5114 20.8837 43.7057 21.3126C43.9 21.7415 44.0001 22.202 44 22.6671C44 26.1384 39.5347 28.7594 37 30.8333C34.4709 28.7419 30 26.141 30 22.6671Z" fill="#FF4E84"/>
</svg>
