<svg width="295" height="50" viewBox="0 0 295 50" fill="none" xmlns="http://www.w3.org/2000/svg">
<g clip-path="url(#clip0_20_1164)">
<rect width="295" height="50" rx="25" fill="#FF4E84"/>
<path d="M131.527 21.4902L131.527 23.0371L126.165 23.0371L126.165 21.4902L131.527 21.4902ZM127.712 19.1611L129.83 19.1611L129.83 28.3721C129.83 28.665 129.871 28.8906 129.954 29.0488C130.041 29.2012 130.162 29.3037 130.314 29.3564C130.466 29.4092 130.645 29.4355 130.85 29.4355C130.996 29.4355 131.137 29.4268 131.272 29.4092C131.407 29.3916 131.515 29.374 131.597 29.3564L131.606 30.9736C131.43 31.0264 131.225 31.0732 130.991 31.1143C130.762 31.1553 130.498 31.1758 130.2 31.1758C129.713 31.1758 129.283 31.0908 128.908 30.9209C128.533 30.7451 128.24 30.4609 128.029 30.0684C127.818 29.6758 127.712 29.1543 127.712 28.5039L127.712 19.1611ZM135.789 21.4902L135.789 31L133.662 31L133.662 21.4902L135.789 21.4902ZM133.522 18.9941C133.522 18.6719 133.627 18.4053 133.838 18.1943C134.055 17.9775 134.354 17.8691 134.734 17.8691C135.109 17.8691 135.405 17.9775 135.622 18.1943C135.839 18.4053 135.947 18.6719 135.947 18.9941C135.947 19.3105 135.839 19.5742 135.622 19.7852C135.405 19.9961 135.109 20.1016 134.734 20.1016C134.354 20.1016 134.055 19.9961 133.838 19.7852C133.627 19.5742 133.522 19.3105 133.522 18.9941ZM142.829 21.4902L142.829 23.0371L137.467 23.0371L137.467 21.4902L142.829 21.4902ZM139.014 19.1611L141.132 19.1611L141.132 28.3721C141.132 28.665 141.174 28.8906 141.256 29.0488C141.343 29.2012 141.464 29.3037 141.616 29.3564C141.768 29.4092 141.947 29.4355 142.152 29.4355C142.299 29.4355 142.439 29.4268 142.574 29.4092C142.709 29.3916 142.817 29.374 142.899 29.3564L142.908 30.9736C142.732 31.0264 142.527 31.0732 142.293 31.1143C142.064 31.1553 141.8 31.1758 141.502 31.1758C141.015 31.1758 140.585 31.0908 140.21 30.9209C139.835 30.7451 139.542 30.4609 139.331 30.0684C139.12 29.6758 139.014 29.1543 139.014 28.5039L139.014 19.1611ZM147.091 17.5L147.091 31L144.964 31L144.964 17.5L147.091 17.5ZM153.964 31.1758C153.261 31.1758 152.625 31.0615 152.057 30.833C151.494 30.5986 151.014 30.2734 150.615 29.8574C150.223 29.4414 149.921 28.9521 149.71 28.3896C149.499 27.8271 149.394 27.2207 149.394 26.5703L149.394 26.2188C149.394 25.4746 149.502 24.8008 149.719 24.1973C149.936 23.5938 150.237 23.0781 150.624 22.6504C151.011 22.2168 151.468 21.8857 151.995 21.6572C152.522 21.4287 153.094 21.3145 153.709 21.3145C154.389 21.3145 154.983 21.4287 155.493 21.6572C156.003 21.8857 156.425 22.208 156.759 22.624C157.099 23.0342 157.351 23.5234 157.515 24.0918C157.685 24.6602 157.769 25.2871 157.769 25.9727L157.769 26.8779L150.422 26.8779L150.422 25.3574L155.678 25.3574L155.678 25.1904C155.666 24.8096 155.59 24.4521 155.449 24.1182C155.314 23.7842 155.106 23.5146 154.825 23.3096C154.544 23.1045 154.169 23.002 153.7 23.002C153.349 23.002 153.035 23.0781 152.76 23.2305C152.49 23.377 152.265 23.5908 152.083 23.8721C151.901 24.1533 151.761 24.4932 151.661 24.8916C151.567 25.2842 151.52 25.7266 151.52 26.2188L151.52 26.5703C151.52 26.9863 151.576 27.373 151.687 27.7305C151.805 28.082 151.975 28.3896 152.197 28.6533C152.42 28.917 152.689 29.125 153.006 29.2773C153.322 29.4238 153.683 29.4971 154.087 29.4971C154.597 29.4971 155.051 29.3945 155.449 29.1895C155.848 28.9844 156.193 28.6943 156.486 28.3193L157.602 29.4004C157.397 29.6992 157.131 29.9863 156.803 30.2617C156.475 30.5313 156.073 30.751 155.599 30.9209C155.13 31.0908 154.585 31.1758 153.964 31.1758ZM165.442 18.1592L165.442 31L163.324 31L163.324 20.6729L160.186 21.7363L160.186 19.9873L165.187 18.1592L165.442 18.1592Z" fill="white"/>
</g>
<defs>
<clipPath id="clip0_20_1164">
<rect width="295" height="50" rx="25" fill="white"/>
</clipPath>
</defs>
</svg>
