<svg width="355" height="50" viewBox="0 0 355 50" fill="none" xmlns="http://www.w3.org/2000/svg">
<g clip-path="url(#clip0_20_1163)">
<rect width="355" height="50" rx="25" fill="#E134EE"/>
<path d="M159.557 21.4336L159.557 23.4258L153.404 23.4258L153.404 21.4336L159.557 21.4336ZM154.928 18.8262L157.74 18.8262L157.74 28.8164C157.74 29.1224 157.779 29.3568 157.857 29.5195C157.942 29.6823 158.066 29.7962 158.229 29.8613C158.391 29.9199 158.596 29.9492 158.844 29.9492C159.02 29.9492 159.176 29.9427 159.312 29.9297C159.456 29.9102 159.576 29.8906 159.674 29.8711L159.684 31.9414C159.443 32.0195 159.182 32.0814 158.902 32.127C158.622 32.1725 158.313 32.1953 157.975 32.1953C157.356 32.1953 156.816 32.0944 156.354 31.8926C155.898 31.6842 155.546 31.3522 155.299 30.8965C155.051 30.4408 154.928 29.8418 154.928 29.0996L154.928 18.8262ZM164.527 21.4336L164.527 32L161.705 32L161.705 21.4336L164.527 21.4336ZM161.529 18.6797C161.529 18.2695 161.672 17.931 161.959 17.6641C162.245 17.3971 162.629 17.2637 163.111 17.2637C163.586 17.2637 163.967 17.3971 164.254 17.6641C164.546 17.931 164.693 18.2695 164.693 18.6797C164.693 19.0898 164.546 19.4284 164.254 19.6953C163.967 19.9622 163.586 20.0957 163.111 20.0957C162.629 20.0957 162.245 19.9622 161.959 19.6953C161.672 19.4284 161.529 19.0898 161.529 18.6797ZM172.427 21.4336L172.427 23.4258L166.275 23.4258L166.275 21.4336L172.427 21.4336ZM167.798 18.8262L170.611 18.8262L170.611 28.8164C170.611 29.1224 170.65 29.3568 170.728 29.5195C170.812 29.6823 170.936 29.7962 171.099 29.8613C171.262 29.9199 171.467 29.9492 171.714 29.9492C171.89 29.9492 172.046 29.9427 172.183 29.9297C172.326 29.9102 172.446 29.8906 172.544 29.8711L172.554 31.9414C172.313 32.0195 172.053 32.0814 171.773 32.127C171.493 32.1725 171.183 32.1953 170.845 32.1953C170.226 32.1953 169.686 32.0944 169.224 31.8926C168.768 31.6842 168.417 31.3522 168.169 30.8965C167.922 30.4408 167.798 29.8418 167.798 29.0996L167.798 18.8262ZM177.397 17L177.397 32L174.575 32L174.575 17L177.397 17ZM184.985 32.1953C184.164 32.1953 183.429 32.0651 182.778 31.8047C182.127 31.5378 181.573 31.1699 181.118 30.7012C180.668 30.2324 180.323 29.6888 180.082 29.0703C179.842 28.4453 179.721 27.7813 179.721 27.0781L179.721 26.6875C179.721 25.8867 179.835 25.1543 180.063 24.4902C180.291 23.8262 180.616 23.25 181.039 22.7617C181.469 22.2734 181.99 21.8991 182.602 21.6387C183.214 21.3717 183.904 21.2383 184.672 21.2383C185.421 21.2383 186.085 21.362 186.664 21.6094C187.244 21.8568 187.729 22.2083 188.12 22.6641C188.517 23.1198 188.816 23.6667 189.018 24.3047C189.22 24.9362 189.321 25.6393 189.321 26.4141L189.321 27.5859L180.922 27.5859L180.922 25.7109L186.557 25.7109L186.557 25.4961C186.557 25.1055 186.485 24.7572 186.342 24.4512C186.205 24.1387 185.997 23.8913 185.717 23.709C185.437 23.5267 185.079 23.4355 184.643 23.4355C184.272 23.4355 183.953 23.5169 183.686 23.6797C183.419 23.8424 183.201 24.0703 183.032 24.3633C182.869 24.6563 182.745 25.0013 182.661 25.3984C182.582 25.7891 182.543 26.2188 182.543 26.6875L182.543 27.0781C182.543 27.5013 182.602 27.8919 182.719 28.25C182.843 28.6081 183.015 28.9173 183.237 29.1777C183.465 29.4382 183.738 29.64 184.057 29.7832C184.383 29.9264 184.75 29.998 185.161 29.998C185.668 29.998 186.14 29.9004 186.577 29.7051C187.019 29.5033 187.4 29.2005 187.719 28.7969L189.086 30.2813C188.865 30.6003 188.562 30.9063 188.178 31.1992C187.801 31.4922 187.345 31.7331 186.811 31.9219C186.277 32.1042 185.668 32.1953 184.985 32.1953ZM198.061 17.752L198.061 32L195.248 32L195.248 20.9941L191.869 22.0684L191.869 19.8516L197.758 17.752L198.061 17.752Z" fill="white"/>
</g>
<defs>
<clipPath id="clip0_20_1163">
<rect width="355" height="50" rx="25" fill="white"/>
</clipPath>
</defs>
</svg>
