<svg width="270" height="50" viewBox="0 0 270 50" fill="none" xmlns="http://www.w3.org/2000/svg">
<rect width="270" height="50" rx="15" fill="#EFEFEF"/>
<path d="M174.554 19.2031V32H172.348L166.608 22.833V32H164.402V19.2031H166.608L172.365 28.3877V19.2031H174.554ZM182.543 19.2031V32H180.354V19.2031H182.543ZM186.559 19.2031V20.9609H176.373V19.2031H186.559ZM193.362 17.1553V19.7832H192.008V17.1553H193.362ZM193.195 31.5078V33.8633H191.85V31.5078H193.195ZM194.522 28.6689C194.522 28.3291 194.452 28.0332 194.311 27.7812C194.176 27.5234 193.953 27.292 193.643 27.0869C193.332 26.876 192.916 26.6797 192.395 26.498C191.645 26.2344 190.989 25.9385 190.426 25.6104C189.869 25.2764 189.436 24.8662 189.125 24.3799C188.821 23.8877 188.668 23.2754 188.668 22.543C188.668 21.8223 188.832 21.1982 189.161 20.6709C189.494 20.1436 189.957 19.7363 190.549 19.4492C191.141 19.1621 191.832 19.0186 192.623 19.0186C193.233 19.0186 193.781 19.1094 194.267 19.291C194.759 19.4727 195.178 19.7393 195.524 20.0908C195.869 20.4424 196.133 20.876 196.315 21.3916C196.502 21.9014 196.596 22.4873 196.596 23.1494H194.487C194.487 22.7744 194.443 22.4404 194.355 22.1475C194.273 21.8486 194.15 21.5967 193.986 21.3916C193.822 21.1807 193.622 21.0195 193.388 20.9082C193.16 20.7969 192.899 20.7412 192.606 20.7412C192.19 20.7412 191.847 20.8203 191.577 20.9785C191.308 21.1309 191.109 21.3418 190.98 21.6113C190.857 21.8809 190.795 22.1885 190.795 22.5342C190.795 22.8682 190.86 23.1611 190.989 23.4131C191.118 23.665 191.337 23.8936 191.648 24.0986C191.964 24.2979 192.398 24.5 192.949 24.7051C193.704 24.9746 194.358 25.2764 194.909 25.6104C195.465 25.9385 195.893 26.3457 196.192 26.832C196.496 27.3125 196.649 27.9189 196.649 28.6514C196.649 29.4072 196.473 30.0488 196.121 30.5762C195.776 31.1035 195.289 31.5049 194.662 31.7803C194.041 32.0498 193.318 32.1846 192.492 32.1846C191.97 32.1846 191.452 32.1172 190.936 31.9824C190.426 31.8418 189.963 31.6133 189.547 31.2969C189.131 30.9805 188.8 30.5615 188.554 30.04C188.308 29.5127 188.185 28.8682 188.185 28.1064H190.312C190.312 28.5635 190.373 28.9443 190.496 29.249C190.619 29.5537 190.786 29.7939 190.997 29.9697C191.208 30.1455 191.443 30.2715 191.701 30.3477C191.964 30.4238 192.228 30.4619 192.492 30.4619C192.931 30.4619 193.3 30.3887 193.599 30.2422C193.904 30.0898 194.132 29.8789 194.285 29.6094C194.443 29.334 194.522 29.0205 194.522 28.6689ZM204.646 19.1592V32H202.528V21.6729L199.391 22.7363V20.9873L204.392 19.1592H204.646ZM211.941 24.6436H213.207C213.699 24.6436 214.106 24.5586 214.428 24.3887C214.756 24.2188 215 23.9844 215.158 23.6855C215.316 23.3867 215.395 23.0439 215.395 22.6572C215.395 22.2529 215.322 21.9072 215.175 21.6201C215.035 21.3271 214.818 21.1016 214.525 20.9434C214.238 20.7852 213.872 20.7061 213.426 20.7061C213.051 20.7061 212.712 20.7822 212.407 20.9346C212.108 21.0811 211.871 21.292 211.695 21.5674C211.519 21.8369 211.431 22.1592 211.431 22.5342H209.304C209.304 21.8545 209.483 21.251 209.84 20.7236C210.198 20.1963 210.684 19.7832 211.299 19.4844C211.921 19.1797 212.618 19.0273 213.391 19.0273C214.217 19.0273 214.938 19.165 215.553 19.4404C216.174 19.71 216.658 20.1143 217.004 20.6533C217.349 21.1924 217.522 21.8604 217.522 22.6572C217.522 23.0205 217.437 23.3896 217.267 23.7646C217.097 24.1396 216.845 24.4824 216.511 24.793C216.177 25.0977 215.761 25.3467 215.263 25.54C214.765 25.7275 214.188 25.8213 213.532 25.8213H211.941V24.6436ZM211.941 26.2959V25.1357H213.532C214.282 25.1357 214.921 25.2236 215.448 25.3994C215.981 25.5752 216.415 25.8184 216.749 26.1289C217.083 26.4336 217.326 26.7822 217.478 27.1748C217.636 27.5674 217.715 27.9834 217.715 28.4229C217.715 29.0205 217.607 29.5537 217.39 30.0225C217.179 30.4854 216.878 30.8779 216.485 31.2002C216.092 31.5225 215.632 31.7656 215.105 31.9297C214.584 32.0938 214.015 32.1758 213.4 32.1758C212.849 32.1758 212.322 32.0996 211.818 31.9473C211.314 31.7949 210.863 31.5693 210.464 31.2705C210.066 30.9658 209.75 30.5879 209.515 30.1367C209.287 29.6797 209.172 29.1523 209.172 28.5547H211.291C211.291 28.9355 211.379 29.2725 211.554 29.5654C211.736 29.8525 211.988 30.0781 212.31 30.2422C212.638 30.4062 213.013 30.4883 213.435 30.4883C213.881 30.4883 214.264 30.4092 214.587 30.251C214.909 30.0928 215.155 29.8584 215.325 29.5479C215.501 29.2373 215.589 28.8623 215.589 28.4229C215.589 27.9248 215.492 27.5205 215.298 27.21C215.105 26.8994 214.83 26.6709 214.472 26.5244C214.115 26.3721 213.693 26.2959 213.207 26.2959H211.941ZM228.385 24.5293V26.6211C228.385 27.623 228.285 28.4785 228.086 29.1875C227.893 29.8906 227.612 30.4619 227.242 30.9014C226.873 31.3408 226.431 31.6631 225.915 31.8682C225.406 32.0732 224.834 32.1758 224.201 32.1758C223.698 32.1758 223.229 32.1113 222.795 31.9824C222.367 31.8535 221.981 31.6514 221.635 31.376C221.289 31.1006 220.993 30.7461 220.747 30.3125C220.507 29.873 220.32 29.3486 220.185 28.7393C220.056 28.1299 219.991 27.4238 219.991 26.6211V24.5293C219.991 23.5215 220.091 22.6719 220.29 21.9805C220.49 21.2832 220.774 20.7178 221.143 20.2842C221.512 19.8447 221.951 19.5254 222.461 19.3262C222.977 19.127 223.551 19.0273 224.184 19.0273C224.694 19.0273 225.162 19.0918 225.59 19.2207C226.024 19.3438 226.41 19.54 226.75 19.8096C227.096 20.0791 227.389 20.4307 227.629 20.8643C227.875 21.292 228.063 21.8105 228.192 22.4199C228.321 23.0234 228.385 23.7266 228.385 24.5293ZM226.267 26.9199V24.2129C226.267 23.7031 226.238 23.2549 226.179 22.8682C226.12 22.4756 226.032 22.1445 225.915 21.875C225.804 21.5996 225.663 21.377 225.493 21.207C225.324 21.0312 225.13 20.9053 224.913 20.8291C224.697 20.7471 224.453 20.7061 224.184 20.7061C223.856 20.7061 223.563 20.7705 223.305 20.8994C223.047 21.0225 222.83 21.2217 222.655 21.4971C222.479 21.7725 222.344 22.1357 222.25 22.5869C222.162 23.0322 222.118 23.5742 222.118 24.2129V26.9199C222.118 27.4355 222.148 27.8896 222.206 28.2822C222.265 28.6748 222.353 29.0117 222.47 29.293C222.587 29.5684 222.728 29.7969 222.892 29.9785C223.062 30.1543 223.255 30.2832 223.472 30.3652C223.695 30.4473 223.938 30.4883 224.201 30.4883C224.535 30.4883 224.831 30.4238 225.089 30.2949C225.347 30.166 225.564 29.9609 225.74 29.6797C225.915 29.3926 226.047 29.0205 226.135 28.5635C226.223 28.1064 226.267 27.5586 226.267 26.9199ZM238.976 24.5293V26.6211C238.976 27.623 238.876 28.4785 238.677 29.1875C238.483 29.8906 238.202 30.4619 237.833 30.9014C237.464 31.3408 237.021 31.6631 236.506 31.8682C235.996 32.0732 235.425 32.1758 234.792 32.1758C234.288 32.1758 233.819 32.1113 233.386 31.9824C232.958 31.8535 232.571 31.6514 232.226 31.376C231.88 31.1006 231.584 30.7461 231.338 30.3125C231.098 29.873 230.91 29.3486 230.775 28.7393C230.646 28.1299 230.582 27.4238 230.582 26.6211V24.5293C230.582 23.5215 230.682 22.6719 230.881 21.9805C231.08 21.2832 231.364 20.7178 231.733 20.2842C232.102 19.8447 232.542 19.5254 233.052 19.3262C233.567 19.127 234.142 19.0273 234.774 19.0273C235.284 19.0273 235.753 19.0918 236.181 19.2207C236.614 19.3438 237.001 19.54 237.341 19.8096C237.686 20.0791 237.979 20.4307 238.22 20.8643C238.466 21.292 238.653 21.8105 238.782 22.4199C238.911 23.0234 238.976 23.7266 238.976 24.5293ZM236.857 26.9199V24.2129C236.857 23.7031 236.828 23.2549 236.769 22.8682C236.711 22.4756 236.623 22.1445 236.506 21.875C236.394 21.5996 236.254 21.377 236.084 21.207C235.914 21.0312 235.721 20.9053 235.504 20.8291C235.287 20.7471 235.044 20.7061 234.774 20.7061C234.446 20.7061 234.153 20.7705 233.895 20.8994C233.638 21.0225 233.421 21.2217 233.245 21.4971C233.069 21.7725 232.934 22.1357 232.841 22.5869C232.753 23.0322 232.709 23.5742 232.709 24.2129V26.9199C232.709 27.4355 232.738 27.8896 232.797 28.2822C232.855 28.6748 232.943 29.0117 233.06 29.293C233.178 29.5684 233.318 29.7969 233.482 29.9785C233.652 30.1543 233.846 30.2832 234.062 30.3652C234.285 30.4473 234.528 30.4883 234.792 30.4883C235.126 30.4883 235.422 30.4238 235.68 30.2949C235.937 30.166 236.154 29.9609 236.33 29.6797C236.506 29.3926 236.638 29.0205 236.726 28.5635C236.813 28.1064 236.857 27.5586 236.857 26.9199Z" fill="#6F7387"/>
<path d="M35.7082 20.0332H35.8175V21.1064H35.7082C35.0382 21.1064 34.4777 21.2158 34.0265 21.4346C33.5754 21.6488 33.2176 21.9382 32.9533 22.3027C32.689 22.6628 32.4976 23.0684 32.3791 23.5195C32.2651 23.9707 32.2082 24.4287 32.2082 24.8936V26.3564C32.2082 26.7985 32.2606 27.1904 32.3654 27.5322C32.4702 27.8695 32.6138 28.1543 32.7961 28.3867C32.9783 28.6191 33.1834 28.7946 33.4113 28.9131C33.6437 29.0316 33.8852 29.0908 34.1359 29.0908C34.4276 29.0908 34.6873 29.0361 34.9152 28.9268C35.1431 28.8128 35.3345 28.6556 35.4894 28.4551C35.6489 28.25 35.7697 28.0085 35.8517 27.7305C35.9338 27.4525 35.9748 27.1471 35.9748 26.8145C35.9748 26.5182 35.9383 26.2334 35.8654 25.96C35.7925 25.682 35.6808 25.4359 35.5304 25.2217C35.38 25.0029 35.1909 24.832 34.963 24.709C34.7397 24.5814 34.4731 24.5176 34.1632 24.5176C33.8123 24.5176 33.4842 24.6042 33.1789 24.7773C32.8781 24.946 32.6297 25.1693 32.4338 25.4473C32.2423 25.7207 32.133 26.0192 32.1056 26.3428L31.4357 26.3359C31.4995 25.8255 31.618 25.3903 31.7912 25.0303C31.9689 24.6657 32.1877 24.3695 32.4474 24.1416C32.7117 23.9092 33.0057 23.7406 33.3293 23.6357C33.6574 23.5264 34.0037 23.4717 34.3683 23.4717C34.8651 23.4717 35.2935 23.5651 35.6535 23.752C36.0135 23.9388 36.3097 24.1895 36.5421 24.5039C36.7746 24.8138 36.9455 25.1647 37.0548 25.5566C37.1688 25.944 37.2257 26.3428 37.2257 26.7529C37.2257 27.2223 37.1597 27.6621 37.0275 28.0723C36.8953 28.4824 36.6971 28.8424 36.4328 29.1523C36.173 29.4622 35.8517 29.7038 35.4689 29.877C35.0861 30.0501 34.6418 30.1367 34.1359 30.1367C33.5981 30.1367 33.1287 30.0273 32.7277 29.8086C32.3267 29.5853 31.994 29.2891 31.7296 28.9199C31.4653 28.5508 31.2671 28.1406 31.1349 27.6895C31.0028 27.2383 30.9367 26.7803 30.9367 26.3154V25.7207C30.9367 25.0189 31.0073 24.3307 31.1486 23.6562C31.2899 22.9818 31.5337 22.3711 31.88 21.8242C32.231 21.2773 32.7163 20.8421 33.3361 20.5186C33.9559 20.195 34.7466 20.0332 35.7082 20.0332ZM42.7115 19.094V31.12H43.6915V20.032H49.8935V31.008H50.9015V19.094H42.7115ZM44.2655 22.062V22.888H49.4175V22.062H44.2655ZM43.2435 29.342V30.28H50.4535V29.342H43.2435ZM46.3935 20.48V24.918H47.2475V20.48H46.3935ZM45.6655 25.212H48.0315V27.382H45.6655V25.212ZM44.8535 24.428V28.18H48.8715V24.428H44.8535ZM41.2555 18.31C40.5695 20.438 39.4215 22.552 38.1615 23.924C38.3435 24.176 38.6375 24.75 38.7215 25.002C40.1215 23.392 41.4235 20.984 42.2215 18.59L41.2555 18.31ZM40.0935 21.74V31.148H41.0875V20.76L41.0735 20.746L40.0935 21.74ZM55.5145 18.982V20.004H62.8225V18.982H55.5145ZM55.5145 22.356V23.364H62.8785V22.356H55.5145ZM55.4025 25.744V26.752H62.8085V25.744H55.4025ZM54.8705 18.982V23.308C54.8705 25.562 54.6325 28.404 52.3785 30.378C52.6025 30.532 53.0225 30.91 53.1765 31.134C55.5845 29.034 55.9345 25.73 55.9345 23.308V18.982H54.8705ZM62.3605 18.982V29.566C62.3605 29.874 62.2485 29.972 61.9265 29.986C61.6045 29.986 60.4565 30 59.2945 29.958C59.4765 30.252 59.6725 30.756 59.7425 31.064C61.2545 31.064 62.1785 31.05 62.7245 30.868C63.2565 30.686 63.4525 30.322 63.4525 29.58V18.982H62.3605Z" fill="#A8ABBD"/>
</svg>
