<svg width="375" height="812" viewBox="0 0 375 812" fill="none" xmlns="http://www.w3.org/2000/svg">
<g clip-path="url(#clip0_40_8782)">
<rect width="375" height="812" fill="#383A44"/>
<g clip-path="url(#clip1_40_8782)">
<path d="M78 -2H297C294.894 -1.39731 293.418 0.495246 293.345 2.68446L293.317 3.5618C293.317 17.0587 282.375 28 268.878 28H106.122C92.6249 28 81.6835 17.0587 81.6835 3.5618L81.6545 2.68447C81.5823 0.49525 80.1059 -1.39731 78 -2Z" fill="black"/>
<path opacity="0.35" d="M336.5 20.0006C336.5 18.804 337.47 17.834 338.667 17.834H355.333C356.53 17.834 357.5 18.804 357.5 20.0007V26.0007C357.5 27.1973 356.53 28.1673 355.333 28.1673H338.667C337.47 28.1673 336.5 27.1973 336.5 26.0007V20.0006Z" stroke="white"/>
<path opacity="0.4" d="M359 21.001V25.001C359.805 24.6622 360.328 23.8741 360.328 23.001C360.328 22.1278 359.805 21.3398 359 21.001Z" fill="white"/>
<path d="M338 20.6673C338 19.9309 338.597 19.334 339.333 19.334H354.667C355.403 19.334 356 19.9309 356 20.6673V25.334C356 26.0704 355.403 26.6673 354.667 26.6673H339.333C338.597 26.6673 338 26.0704 338 25.334V20.6673Z" fill="white"/>
<path fill-rule="evenodd" clip-rule="evenodd" d="M323.33 19.6084C325.546 19.6085 327.677 20.4599 329.283 21.9867C329.404 22.1046 329.597 22.1031 329.716 21.9834L330.872 20.8167C330.933 20.756 330.966 20.6737 330.966 20.5882C330.965 20.5026 330.931 20.4207 330.87 20.3607C326.655 16.3212 320.005 16.3212 315.79 20.3607C315.729 20.4207 315.694 20.5025 315.693 20.5881C315.693 20.6737 315.726 20.7559 315.787 20.8167L316.943 21.9834C317.062 22.1033 317.255 22.1048 317.376 21.9867C318.982 20.4598 321.114 19.6084 323.33 19.6084ZM323.33 23.404C324.547 23.404 325.721 23.8565 326.624 24.6737C326.746 24.7897 326.938 24.7872 327.057 24.668L328.212 23.5014C328.273 23.4402 328.307 23.3572 328.306 23.2709C328.305 23.1846 328.269 23.1023 328.207 23.0424C325.459 20.486 321.203 20.486 318.455 23.0424C318.393 23.1023 318.357 23.1847 318.357 23.271C318.356 23.3573 318.39 23.4403 318.451 23.5014L319.605 24.668C319.724 24.7872 319.916 24.7897 320.038 24.6737C320.94 23.857 322.113 23.4046 323.33 23.404ZM325.643 25.9579C325.645 26.0444 325.611 26.1278 325.549 26.1884L323.552 28.204C323.493 28.2633 323.413 28.2966 323.33 28.2966C323.247 28.2966 323.167 28.2633 323.108 28.204L321.111 26.1884C321.049 26.1277 321.015 26.0443 321.017 25.9578C321.019 25.8713 321.056 25.7894 321.12 25.7314C322.396 24.6525 324.264 24.6525 325.54 25.7314C325.604 25.7894 325.641 25.8714 325.643 25.9579Z" fill="white"/>
<path fill-rule="evenodd" clip-rule="evenodd" d="M309.667 17.667H308.667C308.114 17.667 307.667 18.1147 307.667 18.667V27.3337C307.667 27.8859 308.114 28.3337 308.667 28.3337H309.667C310.219 28.3337 310.667 27.8859 310.667 27.3337V18.667C310.667 18.1147 310.219 17.667 309.667 17.667ZM304 20.0003H305C305.552 20.0003 306 20.448 306 21.0003V27.3337C306 27.8859 305.552 28.3337 305 28.3337H304C303.448 28.3337 303 27.8859 303 27.3337V21.0003C303 20.448 303.448 20.0003 304 20.0003ZM300.333 22.3337H299.333C298.781 22.3337 298.333 22.7814 298.333 23.3337V27.3337C298.333 27.8859 298.781 28.3337 299.333 28.3337H300.333C300.885 28.3337 301.333 27.8859 301.333 27.3337V23.3337C301.333 22.7814 300.885 22.3337 300.333 22.3337ZM295.667 24.3337H294.667C294.114 24.3337 293.667 24.7814 293.667 25.3337V27.3337C293.667 27.8859 294.114 28.3337 294.667 28.3337H295.667C296.219 28.3337 296.667 27.8859 296.667 27.3337V25.3337C296.667 24.7814 296.219 24.3337 295.667 24.3337Z" fill="white"/>
<path d="M37.3208 28.2568C40.0088 28.2568 41.6055 26.1548 41.6055 22.5952C41.6055 21.2549 41.3491 20.127 40.8584 19.2554C40.1479 17.9004 38.9248 17.168 37.3794 17.168C35.0796 17.168 33.4536 18.7134 33.4536 20.8813C33.4536 22.9175 34.9185 24.397 36.9326 24.397C38.1704 24.397 39.1738 23.8184 39.6719 22.8149H39.6938C39.6938 22.8149 39.7231 22.8149 39.7305 22.8149C39.7451 22.8149 39.7964 22.8149 39.7964 22.8149C39.7964 25.2319 38.8809 26.6748 37.3354 26.6748C36.4272 26.6748 35.7241 26.1768 35.4824 25.3784H33.6001C33.915 27.1143 35.3872 28.2568 37.3208 28.2568ZM37.3867 22.8955C36.1709 22.8955 35.3066 22.0312 35.3066 20.8228C35.3066 19.6436 36.2148 18.7427 37.394 18.7427C38.5732 18.7427 39.4814 19.6582 39.4814 20.8521C39.4814 22.0312 38.5952 22.8955 37.3867 22.8955Z" fill="white"/>
<path d="M44.6966 28.1543C45.3924 28.1543 45.8685 27.6562 45.8685 26.9971C45.8685 26.3306 45.3924 25.8398 44.6966 25.8398C44.0081 25.8398 43.5247 26.3306 43.5247 26.9971C43.5247 27.6562 44.0081 28.1543 44.6966 28.1543ZM44.6966 22.6611C45.3924 22.6611 45.8685 22.1704 45.8685 21.5112C45.8685 20.8447 45.3924 20.354 44.6966 20.354C44.0081 20.354 43.5247 20.8447 43.5247 21.5112C43.5247 22.1704 44.0081 22.6611 44.6966 22.6611Z" fill="white"/>
<path d="M52.7242 28.0005H54.5333V26.0303H55.9615V24.4336H54.5333V17.4316H51.8673C49.9996 20.2441 48.5128 22.5952 47.5606 24.3457V26.0303H52.7242V28.0005ZM49.3111 24.3677C50.5416 22.1997 51.6402 20.4639 52.651 18.9697H52.7535V24.4775H49.3111V24.3677Z" fill="white"/>
<path d="M59.9901 28.0005H61.8798V17.4316H59.9975L57.2362 19.3652V21.1816L59.8656 19.3359H59.9901V28.0005Z" fill="white"/>
</g>
<path d="M29.3408 76.9999C29.1273 77.0006 28.9164 76.9535 28.7235 76.8621C28.5307 76.7706 28.3608 76.6371 28.2263 76.4714L21.325 67.9008C21.1149 67.6452 21 67.3246 21 66.9937C21 66.6628 21.1149 66.3422 21.325 66.0866L28.4692 57.516C28.7117 57.2243 29.0602 57.0409 29.438 57.006C29.8159 56.9712 30.192 57.0879 30.4838 57.3303C30.7756 57.5728 30.9591 57.9212 30.994 58.2989C31.0288 58.6766 30.9121 59.0527 30.6696 59.3444L24.2827 67.0008L30.4553 74.6573C30.63 74.8669 30.741 75.1223 30.7751 75.393C30.8092 75.6638 30.765 75.9386 30.6478 76.1851C30.5305 76.4315 30.3451 76.6392 30.1135 76.7836C29.8819 76.928 29.6137 77.0031 29.3408 76.9999Z" fill="white"/>
<path d="M170.594 61.928V62.698H174.01V61.928H170.594ZM170.454 70.72V71.518H174.822V70.72H170.454ZM169.824 65.064V65.764H174.5V65.064H169.824ZM169.376 63.468V65.75C169.376 67.36 169.194 69.558 167.892 71.154C168.088 71.28 168.466 71.616 168.606 71.812C170.034 70.076 170.3 67.542 170.3 65.778V63.468H169.376ZM169.894 63.468V64.252H173.996V66.59H169.866V67.374H174.948V63.468H169.894ZM170.076 68.242V72.106H170.986V69.04H174.22V72.008H175.158V68.242H170.076ZM176.096 60.934V68.69H177.104V60.934H176.096ZM179.246 59.506V70.748C179.246 71 179.148 71.084 178.882 71.084C178.63 71.098 177.79 71.112 176.838 71.07C176.992 71.378 177.16 71.854 177.202 72.12C178.462 72.134 179.218 72.106 179.652 71.924C180.086 71.756 180.268 71.448 180.268 70.734V59.506H179.246ZM171.588 59.38C170.902 60.528 169.628 61.956 167.892 62.992C168.102 63.146 168.424 63.482 168.564 63.72C170.412 62.516 171.7 61.046 172.498 59.912V59.604H172.162V59.38H171.588ZM171.784 59.38V60.122H171.994C173.016 60.864 174.29 62.096 174.948 62.824L175.648 62.04C174.934 61.298 173.604 60.164 172.54 59.38H171.784ZM187.443 61.004V61.928H194.135V61.004H187.443ZM185.735 63.72V64.63H194.737V63.72H185.735ZM187.681 59.436C187.233 60.738 186.505 62.026 185.623 62.88C185.875 63.006 186.309 63.244 186.519 63.412C187.359 62.488 188.171 61.102 188.661 59.66L187.681 59.436ZM189.725 59.254V64.308H190.761V59.254H189.725ZM185.119 64.77H182.137V65.75H184.097V69.726H185.119V64.77ZM185.119 69.264H184.167C183.453 69.866 182.627 70.482 181.955 70.93L182.515 72.008C183.271 71.392 183.985 70.79 184.657 70.188C185.553 71.294 186.813 71.784 188.633 71.854C190.187 71.91 193.085 71.882 194.625 71.826C194.667 71.504 194.849 71 194.961 70.748C193.309 70.86 190.159 70.902 188.633 70.846C187.023 70.776 185.777 70.3 185.119 69.264ZM182.291 60.22C183.201 60.836 184.251 61.788 184.699 62.46L185.525 61.774C185.035 61.088 183.985 60.178 183.061 59.59L182.291 60.22ZM188.017 66.604H192.651V68.816H188.017V66.604ZM186.995 65.722V69.698H193.743V65.722H186.995ZM197.614 60.22V69.18C197.614 69.768 197.334 70.104 197.11 70.258C197.292 70.468 197.6 70.93 197.712 71.196L198.636 70.104V60.22H197.614ZM197.712 71.196C198.244 71.028 199.042 71.056 207.008 70.86C206.966 70.622 206.938 70.146 206.966 69.838L198.468 70.006L197.712 70.384V71.196ZM206.504 60.234V71.714H207.582V60.234H206.504ZM212.699 61.928V62.698H216.115V61.928H212.699ZM212.559 70.72V71.518H216.927V70.72H212.559ZM211.929 65.064V65.764H216.605V65.064H211.929ZM211.481 63.468V65.75C211.481 67.36 211.299 69.558 209.997 71.154C210.193 71.28 210.571 71.616 210.711 71.812C212.139 70.076 212.405 67.542 212.405 65.778V63.468H211.481ZM211.999 63.468V64.252H216.101V66.59H211.971V67.374H217.053V63.468H211.999ZM212.181 68.242V72.106H213.091V69.04H216.325V72.008H217.263V68.242H212.181ZM218.201 60.934V68.69H219.209V60.934H218.201ZM221.351 59.506V70.748C221.351 71 221.253 71.084 220.987 71.084C220.735 71.098 219.895 71.112 218.943 71.07C219.097 71.378 219.265 71.854 219.307 72.12C220.567 72.134 221.323 72.106 221.757 71.924C222.191 71.756 222.373 71.448 222.373 70.734V59.506H221.351ZM213.693 59.38C213.007 60.528 211.733 61.956 209.997 62.992C210.207 63.146 210.529 63.482 210.669 63.72C212.517 62.516 213.805 61.046 214.603 59.912V59.604H214.267V59.38H213.693ZM213.889 59.38V60.122H214.099C215.121 60.864 216.395 62.096 217.053 62.824L217.753 62.04C217.039 61.298 215.709 60.164 214.645 59.38H213.889ZM229.548 61.004V61.928H236.24V61.004H229.548ZM227.84 63.72V64.63H236.842V63.72H227.84ZM229.786 59.436C229.338 60.738 228.61 62.026 227.728 62.88C227.98 63.006 228.414 63.244 228.624 63.412C229.464 62.488 230.276 61.102 230.766 59.66L229.786 59.436ZM231.83 59.254V64.308H232.866V59.254H231.83ZM227.224 64.77H224.242V65.75H226.202V69.726H227.224V64.77ZM227.224 69.264H226.272C225.558 69.866 224.732 70.482 224.06 70.93L224.62 72.008C225.376 71.392 226.09 70.79 226.762 70.188C227.658 71.294 228.918 71.784 230.738 71.854C232.292 71.91 235.19 71.882 236.73 71.826C236.772 71.504 236.954 71 237.066 70.748C235.414 70.86 232.264 70.902 230.738 70.846C229.128 70.776 227.882 70.3 227.224 69.264ZM224.396 60.22C225.306 60.836 226.356 61.788 226.804 62.46L227.63 61.774C227.14 61.088 226.09 60.178 225.166 59.59L224.396 60.22ZM230.122 66.604H234.756V68.816H230.122V66.604ZM229.1 65.722V69.698H235.848V65.722H229.1Z" fill="white"/>
<rect x="121" y="799" width="134" height="5" rx="2.5" fill="white"/>
<g clip-path="url(#clip2_40_8782)">
<rect x="16" y="133" width="110" height="34" rx="17" fill="white"/>
<path d="M61.209 147.34L67.725 147.34L67.725 148.636L61.209 148.636L61.209 147.34ZM61.209 145.336L67.725 145.336L67.725 146.608L61.209 146.608L61.209 145.336ZM60.309 144.568L60.309 149.416L68.649 149.416L68.649 144.568L60.309 144.568ZM63.981 144.916L63.981 149.044L64.893 149.044L64.893 144.916L63.981 144.916ZM59.337 150.58L59.337 151.408L68.517 151.408L68.517 150.58L59.337 150.58ZM68.145 150.58L68.133 150.712C67.953 152.848 67.737 153.76 67.425 154.012C67.317 154.12 67.173 154.132 66.897 154.132C66.621 154.132 65.829 154.12 65.049 154.06C65.205 154.288 65.313 154.636 65.337 154.888C66.105 154.924 66.849 154.936 67.221 154.912C67.653 154.888 67.917 154.828 68.181 154.576C68.565 154.204 68.805 153.256 69.021 150.976C69.045 150.844 69.057 150.58 69.057 150.58L68.145 150.58ZM63.813 149.248C63.513 151.6 62.889 153.388 59.001 154.192C59.169 154.372 59.397 154.732 59.481 154.96C63.597 154.048 64.413 151.984 64.749 149.248L63.813 149.248ZM72.567 143.92L72.567 154.948L73.479 154.948L73.479 143.92L72.567 143.92ZM71.463 146.2C71.379 147.172 71.163 148.492 70.839 149.296L71.547 149.536C71.871 148.672 72.087 147.28 72.147 146.308L71.463 146.2ZM73.563 146.128C73.899 146.8 74.259 147.676 74.391 148.204L75.063 147.868C74.931 147.352 74.559 146.5 74.187 145.852L73.563 146.128ZM76.011 144.484C75.747 146.104 75.267 147.736 74.559 148.792C74.787 148.888 75.195 149.08 75.375 149.212C76.047 148.084 76.575 146.38 76.887 144.628L76.011 144.484ZM76.023 146.464L75.747 147.328L81.603 147.328L81.603 146.464L76.023 146.464ZM77.967 143.968L77.967 154.168L78.867 154.168L78.867 143.968L77.967 143.968ZM75.411 149.824L75.411 150.676L81.339 150.676L81.339 149.824L75.411 149.824ZM74.511 153.676L74.511 154.54L81.891 154.54L81.891 153.676L74.511 153.676Z" fill="#FF4E84"/>
</g>
<rect x="17" y="134" width="108" height="32" rx="16" stroke="#FF4E84" stroke-width="2"/>
<g clip-path="url(#clip3_40_8782)">
<rect x="132" y="133" width="110" height="34" rx="17" fill="white"/>
<path d="M175.085 146.8L175.085 147.7L185.921 147.7L185.921 146.8L175.085 146.8ZM179.573 143.932C178.721 146.284 177.353 149.572 176.417 151.48L177.305 151.804C178.241 149.836 179.621 146.548 180.545 144.1L179.573 143.932ZM183.113 147.196C182.285 151.504 180.413 153.436 175.181 154.132C175.361 154.36 175.565 154.72 175.661 154.996C181.097 154.192 183.173 152.068 184.073 147.436L183.113 147.196ZM177.029 151.024C179.837 151.996 183.281 153.7 184.949 155.02L185.633 154.192C183.857 152.86 180.365 151.24 177.617 150.328L177.029 151.024ZM188.567 143.92L188.567 154.948L189.479 154.948L189.479 143.92L188.567 143.92ZM187.463 146.2C187.379 147.172 187.163 148.492 186.839 149.296L187.547 149.536C187.871 148.672 188.087 147.28 188.147 146.308L187.463 146.2ZM189.563 146.128C189.899 146.8 190.259 147.676 190.391 148.204L191.063 147.868C190.931 147.352 190.559 146.5 190.187 145.852L189.563 146.128ZM192.011 144.484C191.747 146.104 191.267 147.736 190.559 148.792C190.787 148.888 191.195 149.08 191.375 149.212C192.047 148.084 192.575 146.38 192.887 144.628L192.011 144.484ZM192.023 146.464L191.747 147.328L197.603 147.328L197.603 146.464L192.023 146.464ZM193.967 143.968L193.967 154.168L194.867 154.168L194.867 143.968L193.967 143.968ZM191.411 149.824L191.411 150.676L197.339 150.676L197.339 149.824L191.411 149.824ZM190.511 153.676L190.511 154.54L197.891 154.54L197.891 153.676L190.511 153.676Z" fill="#A8ABBD"/>
</g>
<rect x="133" y="134" width="108" height="32" rx="16" stroke="#A8ABBD" stroke-width="2"/>
<g clip-path="url(#clip4_40_8782)">
<rect x="249" y="133" width="110" height="34" rx="17" fill="white"/>
<path d="M292.313 144.772L292.313 145.684L302.645 145.684L302.645 144.772L292.313 144.772ZM298.193 148.264C299.621 149.236 301.421 150.64 302.261 151.564L302.993 150.88C302.105 149.956 300.269 148.6 298.865 147.688L298.193 148.264ZM297.965 145.084C296.849 147.34 294.617 149.644 292.013 150.952C292.193 151.144 292.481 151.504 292.625 151.732C295.337 150.304 297.581 147.928 298.949 145.444L297.965 145.084ZM296.981 147.484L296.981 154.948L297.953 154.948L297.953 146.524L296.981 147.484ZM309.359 146.728L309.359 147.484L313.835 147.484L313.835 146.728L309.359 146.728ZM307.487 153.916L307.787 154.792C308.951 154.528 310.559 154.18 312.071 153.832L312.011 153.04C310.331 153.376 308.591 153.724 307.487 153.916ZM308.843 144.46L308.843 153.988L309.719 153.988L309.719 144.46L308.843 144.46ZM309.359 144.46L309.359 145.252L313.379 145.252L313.379 148.996L309.359 148.996L309.359 149.788L314.255 149.788L314.255 144.46L309.359 144.46ZM311.675 149.272L310.931 149.416C311.483 151.948 312.599 153.976 314.471 154.924C314.603 154.696 314.867 154.36 315.071 154.18C313.283 153.388 312.191 151.516 311.675 149.272ZM314.063 150.064C313.559 150.64 312.659 151.396 312.011 151.864L312.575 152.32C313.247 151.876 314.099 151.204 314.771 150.58L314.063 150.064ZM304.487 144.448L304.487 154.972L305.339 154.972L305.339 145.264L307.559 145.264L307.559 144.448L304.487 144.448ZM307.295 144.448L307.295 144.7C307.019 145.528 306.527 146.98 306.047 148.072C306.983 149.008 307.235 149.8 307.235 150.46C307.247 150.832 307.175 151.144 306.971 151.276C306.851 151.348 306.707 151.384 306.551 151.396C306.335 151.408 306.071 151.408 305.759 151.372C305.903 151.612 305.975 151.972 305.987 152.188C306.287 152.212 306.623 152.212 306.899 152.176C307.151 152.152 307.379 152.08 307.559 151.96C307.919 151.708 308.075 151.216 308.075 150.556C308.075 149.812 307.847 148.96 306.875 147.964C307.319 147.016 307.823 145.78 308.207 144.784L307.595 144.412L307.463 144.448L307.295 144.448Z" fill="#A8ABBD"/>
</g>
<rect x="250" y="134" width="108" height="32" rx="16" stroke="#A8ABBD" stroke-width="2"/>
<path d="M22.79 110.98C23.3 111.16 23.91 111.47 24.21 111.73L24.62 111.23C24.3 110.98 23.68 110.7 23.18 110.54L22.79 110.98ZM17.62 111.62V112.24H25.41V111.62H17.62ZM18.33 112.92V113.45H21.4V112.92H18.33ZM18.49 114.13V115.95H19.12V114.13H18.49ZM23.8 112.72C23.32 114.22 22.38 115.47 21.17 116.25C21.32 116.38 21.6 116.63 21.71 116.77C22.93 115.9 23.94 114.55 24.5 112.89L23.8 112.72ZM21.44 110.6C21.6 113.96 23.03 116.86 24.61 116.86C25.25 116.86 25.52 116.51 25.64 115.24C25.45 115.17 25.2 115.04 25.05 114.9C25 115.81 24.9 116.17 24.65 116.17C23.63 116.18 22.27 113.68 22.16 110.6H21.44ZM18.49 114.13V114.66H20.6V115.69H18.49V116.23H21.24V114.13H18.49ZM18.99 117.15V118.71C18.99 119.48 19.25 119.68 20.31 119.68C20.53 119.68 22.02 119.68 22.25 119.68C23.1 119.68 23.32 119.4 23.42 118.22C23.21 118.17 22.9 118.07 22.74 117.95C22.7 118.88 22.63 119 22.19 119C21.86 119 20.61 119 20.36 119C19.83 119 19.73 118.95 19.73 118.7V117.15H18.99ZM19.77 116.82C20.39 117.14 21.12 117.65 21.46 118.04L21.97 117.56C21.62 117.17 20.88 116.69 20.25 116.4L19.77 116.82ZM23.22 117.45C23.94 118.03 24.66 118.88 24.94 119.49L25.61 119.12C25.3 118.5 24.55 117.67 23.83 117.11L23.22 117.45ZM17.72 117.21C17.5 117.96 17.06 118.72 16.39 119.18L17.01 119.6C17.72 119.09 18.13 118.25 18.38 117.44L17.72 117.21ZM17.27 111.62V113.12C17.27 114.14 17.16 115.55 16.32 116.59C16.47 116.67 16.77 116.92 16.87 117.06C17.79 115.93 17.97 114.29 17.97 113.13V111.62H17.27ZM26.475 116.78V117.48H35.575V116.78H26.475ZM30.175 112.36V112.89H31.895V112.36H30.175ZM32.995 111.11V111.74H34.615V111.11H32.995ZM33.065 113.02V113.64H34.535V113.02H33.065ZM33.045 114.89V115.51H34.505V114.89H33.045ZM27.525 113.02V113.64H29.005V113.02H27.525ZM27.575 114.89V115.51H28.995V114.89H27.575ZM29.305 111.11V117.08H29.875V111.7H32.185V117.08H32.775V111.11H29.305ZM30.655 114.03H31.385V115.37H30.655V114.03ZM30.265 113.54V115.86H31.785V113.54H30.265ZM27.215 111.14L27.395 117.07H28.045L27.875 111.45C27.995 111.43 28.055 111.39 28.065 111.33L27.215 111.14ZM34.215 111.11C34.225 113 34.135 115.65 34.025 117.15H34.675C34.785 115.68 34.865 113.04 34.885 111.11H34.215ZM28.915 110.66C28.555 110.91 27.945 111.23 27.425 111.45C27.505 111.6 27.605 111.83 27.645 111.98C28.215 111.78 28.895 111.51 29.445 111.22L28.915 110.66ZM31.935 118.14C33.015 118.67 34.155 119.34 34.835 119.82L35.535 119.3C34.805 118.82 33.585 118.15 32.475 117.64L31.935 118.14ZM29.365 117.63C28.745 118.18 27.525 118.87 26.545 119.28C26.725 119.42 26.985 119.66 27.125 119.81C28.075 119.4 29.295 118.71 30.075 118.09L29.365 117.63ZM39.96 111.01V111.66H44.72V111.01H39.96ZM42.71 112.6V113.22H45.09V112.6H42.71ZM40.84 112.85V113.44H42.57V112.85H40.84ZM40.84 114.68V115.29H42.57V114.68H40.84ZM42.28 111.27V118.62H42.9V111.27H42.28ZM40.52 111.23V117.19L41.13 117.07V111.23H40.52ZM39.75 117.16L39.89 117.79C40.65 117.61 41.63 117.37 42.58 117.14L42.51 116.56C41.48 116.8 40.45 117.02 39.75 117.16ZM44.91 112.6V112.75C44.71 115.22 44.07 116.97 43.07 117.89C43.21 117.99 43.42 118.26 43.51 118.41C44.59 117.41 45.3 115.5 45.55 112.7L45.16 112.59L45.04 112.6H44.91ZM43.66 113.51L43.13 113.63C43.49 115.72 44.17 117.57 45.33 118.49C45.43 118.33 45.63 118.11 45.78 117.99C44.67 117.2 43.98 115.44 43.66 113.51ZM36.8 111.79V112.45H40.09V111.79H36.8ZM36.55 113.63V114.31H40.28V113.63H36.55ZM38.63 115.57V116.25H40.21V115.57H38.63ZM38.23 110.6V114.05H38.92V110.6H38.23ZM38.38 114.09V118.65H39.05V114.09H38.38ZM37.57 116.3L37.02 116.49C37.71 119.01 38.95 119.54 41.65 119.54H45.38C45.43 119.32 45.57 118.98 45.69 118.8C45.09 118.83 42.11 118.82 41.65 118.82C39.32 118.82 38.14 118.4 37.57 116.3ZM36.99 115.08C37.03 116.43 36.96 118.13 36.28 119.35C36.43 119.42 36.67 119.63 36.78 119.78C37.56 118.44 37.64 116.61 37.62 115.11L36.99 115.08ZM47.385 112.21V112.88H49.725V118.07H47.385V118.75H50.425V112.21H47.385ZM46.935 112.21V119.55H47.635V112.21H46.935ZM47.335 114.99V115.66H50.095V114.99H47.335ZM48.465 110.58C48.385 111.1 48.195 111.86 48.025 112.34L48.625 112.49C48.825 112.04 49.075 111.35 49.275 110.73L48.465 110.58ZM51.845 112.18V112.88H54.915V112.18H51.845ZM54.655 112.18V112.34C54.515 116.75 54.355 118.41 54.025 118.77C53.915 118.9 53.795 118.93 53.595 118.93C53.365 118.93 52.765 118.92 52.115 118.87C52.255 119.07 52.345 119.38 52.365 119.6C52.925 119.63 53.515 119.65 53.855 119.61C54.205 119.58 54.435 119.49 54.655 119.2C55.055 118.71 55.195 117.16 55.355 112.57C55.355 112.46 55.355 112.18 55.355 112.18H54.655ZM52.055 110.56C51.735 111.95 51.185 113.33 50.505 114.21C50.685 114.31 50.995 114.52 51.125 114.64C51.815 113.69 52.405 112.22 52.775 110.73L52.055 110.56ZM51.595 114.78C52.145 115.51 52.815 116.5 53.115 117.11L53.755 116.71C53.435 116.12 52.745 115.15 52.175 114.44L51.595 114.78Z" fill="#A8ABBD"/>
<path d="M0 187H375" stroke="#4A4D5A"/>
<path d="M0 275H375" stroke="#4A4D5A"/>
<path d="M0 363H375" stroke="#4A4D5A"/>
<path d="M21.25 219.61V220.32H25.62V219.61H21.25ZM20.93 212V220.8H21.66V212.71H25.49V212H20.93ZM16.89 216.04V219.67H17.52V216.04H16.89ZM17.56 212.68H19.51V214.44H17.56V212.68ZM16.89 212.02V215.1H20.21V212.02H16.89ZM18.26 214.77V219.34H18.94V214.77H18.26ZM16.33 219.59L16.48 220.31C17.59 220.04 19.13 219.68 20.58 219.32L20.5 218.64C18.98 219 17.37 219.38 16.33 219.59ZM18.59 216.55V217.22H20.41V216.55H18.59ZM21.26 214.38V215.08H24.33V217.22H21.26V217.92H25.06V214.38H21.26ZM26.445 212.47V213.08H31.295V212.47H26.445ZM28.495 211.6V212.76H29.225V211.6H28.495ZM27.525 218.87L27.585 219.41C28.255 219.36 29.055 219.3 29.895 219.24L29.885 218.73C28.985 218.79 28.155 218.84 27.525 218.87ZM30.435 216.95V220.07C30.435 220.18 30.395 220.21 30.275 220.22C30.165 220.22 29.765 220.23 29.325 220.21C29.415 220.37 29.505 220.63 29.535 220.79C30.145 220.79 30.525 220.79 30.765 220.69C31.015 220.59 31.075 220.41 31.075 220.08V216.95H30.435ZM29.195 218.05C29.475 218.58 29.725 219.28 29.805 219.72L30.275 219.57C30.195 219.14 29.915 218.45 29.635 217.92L29.195 218.05ZM27.745 214.01C28.455 214.41 29.295 215.01 29.705 215.44L30.035 215.03C29.625 214.62 28.775 214.04 28.065 213.67L27.745 214.01ZM28.535 216.02C28.425 216.95 28.185 218.32 27.965 219.11L28.485 219.21C28.715 218.45 28.985 217.14 29.185 216.13L28.535 216.02ZM26.655 216.95V220.81H27.285V217.52H30.705V216.95H26.655ZM26.925 213.5V216.27H30.805V213.5H30.225V215.72H27.485V213.5H26.925ZM29.295 213.34C28.955 214.14 28.325 214.85 27.635 215.33C27.765 215.41 27.985 215.58 28.065 215.67C28.755 215.15 29.435 214.35 29.825 213.48L29.295 213.34ZM32.035 215.54V216.19H35.445V215.54H32.035ZM32.035 217.55V218.21H35.445V217.55H32.035ZM32.055 219.59V220.29H35.645V219.59H32.055ZM32.405 211.61C32.045 213.03 31.455 214.47 30.735 215.4C30.905 215.52 31.185 215.75 31.305 215.86C32.025 214.85 32.665 213.3 33.085 211.76L32.405 211.61ZM34.145 211.71C34.015 212.32 33.715 213.21 33.475 213.76L34.065 213.92C34.325 213.4 34.615 212.58 34.865 211.88L34.145 211.71ZM32.425 213.51H32.315L31.735 214.13V220.82H32.425V214.19H35.535V213.51H32.425ZM33.595 213.82V219.95H34.245V213.82H33.595ZM36.65 214.5V215.07H41.12V214.5H36.65ZM36.5 219.06V219.65H41.24V219.06H36.5ZM41.91 214.37V215.04H44.83V214.37H41.91ZM38.55 213.98V220.8H39.2V213.98H38.55ZM37.51 217.28H40.25V217.95H37.51V217.28ZM37.51 216.14H40.25V216.8H37.51V216.14ZM36.89 215.64V218.45H40.88V215.64H36.89ZM41.54 214.37V219.54C41.54 220.47 41.81 220.7 42.75 220.7C42.95 220.7 44.32 220.7 44.55 220.7C45.4 220.7 45.61 220.31 45.71 218.97C45.5 218.93 45.21 218.81 45.04 218.68C44.99 219.79 44.92 220.01 44.5 220.01C44.21 220.01 43.04 220.01 42.82 220.01C42.34 220.01 42.25 219.93 42.25 219.54V214.37H41.54ZM44.46 214.37V217.34C44.46 217.47 44.43 217.49 44.29 217.5C44.14 217.51 43.69 217.51 43.14 217.49C43.25 217.69 43.37 217.99 43.4 218.2C44.09 218.2 44.54 218.19 44.82 218.07C45.11 217.94 45.18 217.73 45.18 217.36V214.37H44.46ZM37.68 212.38V213.02H40.91V212.38H37.68ZM41.54 212.38V213.02H45.58V212.38H41.54ZM37.87 211.56C37.56 212.35 37.01 213.14 36.4 213.66C36.58 213.75 36.89 213.96 37.02 214.08C37.6 213.51 38.2 212.63 38.58 211.74L37.87 211.56ZM41.81 211.56C41.49 212.36 40.89 213.12 40.23 213.61C40.41 213.7 40.73 213.88 40.88 213.99C41.52 213.46 42.16 212.62 42.52 211.73L41.81 211.56ZM38.24 212.88C38.45 213.21 38.67 213.66 38.74 213.95L39.42 213.75C39.32 213.47 39.09 213.03 38.88 212.71L38.24 212.88ZM42.45 212.87C42.77 213.23 43.11 213.74 43.25 214.06L43.93 213.84C43.77 213.51 43.42 213.02 43.1 212.67L42.45 212.87ZM48.195 214.43V214.89H53.975V214.43H48.195ZM48.425 217.18V217.64H53.605V217.18H48.425ZM51.155 216.65V219.46H51.835V216.65H51.155ZM49.525 215.69H52.585V216.35H49.525V215.69ZM48.885 215.28V216.75H53.265V215.28H48.885ZM50.405 212.84C50.255 213.4 50.035 214.13 49.845 214.61H50.525C50.685 214.17 50.895 213.49 51.045 212.92L50.405 212.84ZM48.835 217.75C48.765 218.14 48.655 218.61 48.555 218.94L49.135 219C49.235 218.66 49.335 218.23 49.415 217.81L48.835 217.75ZM48.805 213.4V213.84H52.385V214.66H53.025V213.4H48.805ZM49.015 218.25L48.915 218.72H53.945V218.25H49.015ZM46.895 212.04V220.81H47.605V212.73H54.515V220.81H55.255V212.04H46.895ZM47.335 219.7V220.38H54.925V219.7H47.335Z" fill="#A8ABBD"/>
<path d="M330.303 215.096H331.146C331.475 215.096 331.746 215.039 331.961 214.926C332.18 214.812 332.342 214.656 332.447 214.457C332.553 214.258 332.605 214.029 332.605 213.771C332.605 213.502 332.557 213.271 332.459 213.08C332.365 212.885 332.221 212.734 332.025 212.629C331.834 212.523 331.59 212.471 331.293 212.471C331.043 212.471 330.816 212.521 330.613 212.623C330.414 212.721 330.256 212.861 330.139 213.045C330.021 213.225 329.963 213.439 329.963 213.689H328.545C328.545 213.236 328.664 212.834 328.902 212.482C329.141 212.131 329.465 211.855 329.875 211.656C330.289 211.453 330.754 211.352 331.27 211.352C331.82 211.352 332.301 211.443 332.711 211.627C333.125 211.807 333.447 212.076 333.678 212.436C333.908 212.795 334.023 213.24 334.023 213.771C334.023 214.014 333.967 214.26 333.854 214.51C333.74 214.76 333.572 214.988 333.35 215.195C333.127 215.398 332.85 215.564 332.518 215.693C332.186 215.818 331.801 215.881 331.363 215.881H330.303V215.096ZM330.303 216.197V215.424H331.363C331.863 215.424 332.289 215.482 332.641 215.6C332.996 215.717 333.285 215.879 333.508 216.086C333.73 216.289 333.893 216.521 333.994 216.783C334.1 217.045 334.152 217.322 334.152 217.615C334.152 218.014 334.08 218.369 333.936 218.682C333.795 218.99 333.594 219.252 333.332 219.467C333.07 219.682 332.764 219.844 332.412 219.953C332.064 220.062 331.686 220.117 331.275 220.117C330.908 220.117 330.557 220.066 330.221 219.965C329.885 219.863 329.584 219.713 329.318 219.514C329.053 219.311 328.842 219.059 328.686 218.758C328.533 218.453 328.457 218.102 328.457 217.703H329.869C329.869 217.957 329.928 218.182 330.045 218.377C330.166 218.568 330.334 218.719 330.549 218.828C330.768 218.938 331.018 218.992 331.299 218.992C331.596 218.992 331.852 218.939 332.066 218.834C332.281 218.729 332.445 218.572 332.559 218.365C332.676 218.158 332.734 217.908 332.734 217.615C332.734 217.283 332.67 217.014 332.541 216.807C332.412 216.6 332.229 216.447 331.99 216.35C331.752 216.248 331.471 216.197 331.146 216.197H330.303ZM341.055 215.02V216.414C341.055 217.082 340.989 217.652 340.856 218.125C340.727 218.594 340.54 218.975 340.294 219.268C340.048 219.561 339.753 219.775 339.409 219.912C339.069 220.049 338.688 220.117 338.266 220.117C337.93 220.117 337.618 220.074 337.329 219.988C337.044 219.902 336.786 219.768 336.555 219.584C336.325 219.4 336.128 219.164 335.964 218.875C335.803 218.582 335.678 218.232 335.589 217.826C335.503 217.42 335.46 216.949 335.46 216.414V215.02C335.46 214.348 335.526 213.781 335.659 213.32C335.792 212.855 335.981 212.479 336.227 212.189C336.473 211.896 336.766 211.684 337.106 211.551C337.45 211.418 337.833 211.352 338.255 211.352C338.594 211.352 338.907 211.395 339.192 211.48C339.481 211.562 339.739 211.693 339.966 211.873C340.196 212.053 340.391 212.287 340.551 212.576C340.716 212.861 340.841 213.207 340.926 213.613C341.012 214.016 341.055 214.484 341.055 215.02ZM339.643 216.613V214.809C339.643 214.469 339.624 214.17 339.585 213.912C339.546 213.65 339.487 213.43 339.409 213.25C339.335 213.066 339.241 212.918 339.128 212.805C339.014 212.688 338.885 212.604 338.741 212.553C338.596 212.498 338.434 212.471 338.255 212.471C338.036 212.471 337.841 212.514 337.669 212.6C337.497 212.682 337.352 212.814 337.235 212.998C337.118 213.182 337.028 213.424 336.966 213.725C336.907 214.021 336.878 214.383 336.878 214.809V216.613C336.878 216.957 336.897 217.26 336.936 217.521C336.975 217.783 337.034 218.008 337.112 218.195C337.19 218.379 337.284 218.531 337.393 218.652C337.507 218.77 337.635 218.855 337.78 218.91C337.928 218.965 338.091 218.992 338.266 218.992C338.489 218.992 338.686 218.949 338.858 218.863C339.03 218.777 339.175 218.641 339.292 218.453C339.409 218.262 339.497 218.014 339.555 217.709C339.614 217.404 339.643 217.039 339.643 216.613ZM343.851 211V220H342.433V211H343.851ZM347.789 213.66L345.029 216.719L343.517 218.266L343.148 217.07L344.29 215.658L346.083 213.66H347.789ZM346.388 220L344.331 217.023L345.222 216.033L348.023 220H346.388ZM350.127 214.949V220H348.715V213.66H350.045L350.127 214.949ZM349.899 216.596L349.418 216.59C349.418 216.152 349.473 215.748 349.582 215.377C349.692 215.006 349.852 214.684 350.063 214.41C350.274 214.133 350.535 213.92 350.848 213.771C351.164 213.619 351.529 213.543 351.944 213.543C352.233 213.543 352.496 213.586 352.735 213.672C352.977 213.754 353.186 213.885 353.361 214.064C353.541 214.244 353.678 214.475 353.772 214.756C353.869 215.037 353.918 215.377 353.918 215.775V220H352.506V215.898C352.506 215.59 352.459 215.348 352.365 215.172C352.276 214.996 352.145 214.871 351.973 214.797C351.805 214.719 351.604 214.68 351.369 214.68C351.104 214.68 350.877 214.73 350.69 214.832C350.506 214.934 350.356 215.072 350.238 215.248C350.121 215.424 350.035 215.627 349.981 215.857C349.926 216.088 349.899 216.334 349.899 216.596ZM353.83 216.221L353.168 216.367C353.168 215.984 353.221 215.623 353.326 215.283C353.436 214.939 353.594 214.639 353.801 214.381C354.012 214.119 354.272 213.914 354.58 213.766C354.889 213.617 355.242 213.543 355.641 213.543C355.965 213.543 356.254 213.588 356.508 213.678C356.766 213.764 356.985 213.9 357.164 214.088C357.344 214.275 357.481 214.52 357.574 214.82C357.668 215.117 357.715 215.477 357.715 215.898V220H356.297V215.893C356.297 215.572 356.25 215.324 356.156 215.148C356.067 214.973 355.938 214.852 355.77 214.785C355.602 214.715 355.401 214.68 355.166 214.68C354.947 214.68 354.754 214.721 354.586 214.803C354.422 214.881 354.283 214.992 354.17 215.137C354.057 215.277 353.971 215.439 353.912 215.623C353.858 215.807 353.83 216.006 353.83 216.221Z" fill="#FF4E84"/>
<rect x="18" y="243" width="340" height="3" rx="1.5" fill="#FF4E84"/>
<rect x="149" y="243" width="212" height="3" rx="1.5" fill="#A8ABBD"/>
<circle cx="149" cy="244" r="9.5" fill="#FF4E84" stroke="white" stroke-width="3"/>
<path d="M18.77 299.57C18.28 300.92 17.45 302.22 16.5 303.05C16.69 303.15 17 303.4 17.15 303.53C18.08 302.63 18.97 301.24 19.52 299.76L18.77 299.57ZM18.61 300.81L18.25 301.54H25.06V300.81H18.61ZM18.12 303.08V306.15H18.87V303.78H24.84V303.08H18.12ZM16.47 305.77V306.5H25.53V305.77H16.47ZM21.12 301.19V308.81H21.89V301.19H21.12ZM31.105 304.3V304.97H34.815V304.3H31.105ZM31.915 302.8V303.42H34.555V302.8H31.915ZM32.385 304.69V308.8H33.065V304.69H32.385ZM34.445 304.3V307C34.445 307.1 34.415 307.13 34.295 307.13C34.175 307.14 33.805 307.14 33.365 307.13C33.455 307.32 33.555 307.59 33.565 307.79C34.185 307.79 34.565 307.78 34.805 307.67C35.055 307.55 35.125 307.35 35.125 307.02V304.3H34.445ZM33.225 300.37C33.685 301.41 34.495 302.63 35.325 303.39C35.425 303.18 35.605 302.91 35.745 302.73C34.915 302.06 34.045 300.79 33.535 299.61H32.855C32.475 300.74 31.635 302.09 30.765 302.84C30.895 303.01 31.065 303.27 31.155 303.45C32.045 302.66 32.815 301.41 33.225 300.37ZM27.965 302.79C27.895 303.44 27.735 304 27.345 304.37C27.445 304.45 27.605 304.6 27.665 304.67C28.085 304.25 28.315 303.6 28.415 302.84L27.965 302.79ZM29.225 302.8C29.145 303.44 28.945 303.98 28.535 304.34C28.645 304.42 28.795 304.57 28.855 304.64C29.305 304.23 29.555 303.59 29.665 302.85L29.225 302.8ZM27.965 305.52C27.885 306.18 27.725 306.73 27.335 307.12C27.425 307.19 27.585 307.35 27.655 307.42C28.085 306.99 28.315 306.33 28.405 305.57L27.965 305.52ZM29.235 305.53C29.155 306.19 28.955 306.73 28.545 307.11C28.645 307.18 28.805 307.33 28.865 307.4C29.315 306.98 29.565 306.33 29.665 305.58L29.235 305.53ZM26.415 301.83V302.44H31.145V301.83H26.415ZM28.935 300.49V301.07H30.815V300.49H28.935ZM27.065 304.81V305.37H30.525V304.81H27.065ZM27.065 307.59V308.17H30.545V307.59H27.065ZM28.545 299.61V302.16H29.185V299.61H28.545ZM27.135 300.18V302.13H27.745V300.18H27.135ZM26.775 302.78V308.72H27.345V302.78H26.775ZM30.175 302.78V308.58H30.765V302.78H30.175ZM27.885 303.7C28.075 303.92 28.305 304.24 28.425 304.43L28.745 304.14C28.625 303.96 28.395 303.67 28.185 303.45L27.885 303.7ZM29.125 303.72C29.385 304 29.685 304.39 29.845 304.64L30.155 304.33C30.005 304.11 29.685 303.73 29.415 303.45L29.125 303.72ZM27.865 306.44C28.075 306.67 28.325 306.99 28.445 307.2L28.755 306.9C28.635 306.71 28.395 306.42 28.165 306.19L27.865 306.44ZM29.135 306.47C29.395 306.76 29.705 307.16 29.875 307.41L30.185 307.1C30.025 306.87 29.705 306.5 29.425 306.2L29.135 306.47ZM36.65 302.5V303.07H41.12V302.5H36.65ZM36.5 307.06V307.65H41.24V307.06H36.5ZM41.91 302.37V303.04H44.83V302.37H41.91ZM38.55 301.98V308.8H39.2V301.98H38.55ZM37.51 305.28H40.25V305.95H37.51V305.28ZM37.51 304.14H40.25V304.8H37.51V304.14ZM36.89 303.64V306.45H40.88V303.64H36.89ZM41.54 302.37V307.54C41.54 308.47 41.81 308.7 42.75 308.7C42.95 308.7 44.32 308.7 44.55 308.7C45.4 308.7 45.61 308.31 45.71 306.97C45.5 306.93 45.21 306.81 45.04 306.68C44.99 307.79 44.92 308.01 44.5 308.01C44.21 308.01 43.04 308.01 42.82 308.01C42.34 308.01 42.25 307.93 42.25 307.54V302.37H41.54ZM44.46 302.37V305.34C44.46 305.47 44.43 305.49 44.29 305.5C44.14 305.51 43.69 305.51 43.14 305.49C43.25 305.69 43.37 305.99 43.4 306.2C44.09 306.2 44.54 306.19 44.82 306.07C45.11 305.94 45.18 305.73 45.18 305.36V302.37H44.46ZM37.68 300.38V301.02H40.91V300.38H37.68ZM41.54 300.38V301.02H45.58V300.38H41.54ZM37.87 299.56C37.56 300.35 37.01 301.14 36.4 301.66C36.58 301.75 36.89 301.96 37.02 302.08C37.6 301.51 38.2 300.63 38.58 299.74L37.87 299.56ZM41.81 299.56C41.49 300.36 40.89 301.12 40.23 301.61C40.41 301.7 40.73 301.88 40.88 301.99C41.52 301.46 42.16 300.62 42.52 299.73L41.81 299.56ZM38.24 300.88C38.45 301.21 38.67 301.66 38.74 301.95L39.42 301.75C39.32 301.47 39.09 301.03 38.88 300.71L38.24 300.88ZM42.45 300.87C42.77 301.23 43.11 301.74 43.25 302.06L43.93 301.84C43.77 301.51 43.42 301.02 43.1 300.67L42.45 300.87ZM48.195 302.43V302.89H53.975V302.43H48.195ZM48.425 305.18V305.64H53.605V305.18H48.425ZM51.155 304.65V307.46H51.835V304.65H51.155ZM49.525 303.69H52.585V304.35H49.525V303.69ZM48.885 303.28V304.75H53.265V303.28H48.885ZM50.405 300.84C50.255 301.4 50.035 302.13 49.845 302.61H50.525C50.685 302.17 50.895 301.49 51.045 300.92L50.405 300.84ZM48.835 305.75C48.765 306.14 48.655 306.61 48.555 306.94L49.135 307C49.235 306.66 49.335 306.23 49.415 305.81L48.835 305.75ZM48.805 301.4V301.84H52.385V302.66H53.025V301.4H48.805ZM49.015 306.25L48.915 306.72H53.945V306.25H49.015ZM46.895 300.04V308.81H47.605V300.73H54.515V308.81H55.255V300.04H46.895ZM47.335 307.7V308.38H54.925V307.7H47.335Z" fill="#A8ABBD"/>
<path d="M334.363 306.875V308H328.645V307.033L331.422 304.004C331.727 303.66 331.967 303.363 332.143 303.113C332.318 302.863 332.441 302.639 332.512 302.439C332.586 302.236 332.623 302.039 332.623 301.848C332.623 301.578 332.572 301.342 332.471 301.139C332.373 300.932 332.229 300.77 332.037 300.652C331.846 300.531 331.613 300.471 331.34 300.471C331.023 300.471 330.758 300.539 330.543 300.676C330.328 300.812 330.166 301.002 330.057 301.244C329.947 301.482 329.893 301.756 329.893 302.064H328.48C328.48 301.568 328.594 301.115 328.82 300.705C329.047 300.291 329.375 299.963 329.805 299.721C330.234 299.475 330.752 299.352 331.357 299.352C331.928 299.352 332.412 299.447 332.811 299.639C333.209 299.83 333.512 300.102 333.719 300.453C333.93 300.805 334.035 301.221 334.035 301.701C334.035 301.967 333.992 302.23 333.906 302.492C333.82 302.754 333.697 303.016 333.537 303.277C333.381 303.535 333.195 303.795 332.98 304.057C332.766 304.314 332.529 304.576 332.271 304.842L330.426 306.875H334.363ZM341.214 306.875V308H335.495V307.033L338.272 304.004C338.577 303.66 338.817 303.363 338.993 303.113C339.169 302.863 339.292 302.639 339.362 302.439C339.436 302.236 339.473 302.039 339.473 301.848C339.473 301.578 339.423 301.342 339.321 301.139C339.223 300.932 339.079 300.77 338.887 300.652C338.696 300.531 338.464 300.471 338.19 300.471C337.874 300.471 337.608 300.539 337.393 300.676C337.178 300.812 337.016 301.002 336.907 301.244C336.798 301.482 336.743 301.756 336.743 302.064H335.331C335.331 301.568 335.444 301.115 335.671 300.705C335.897 300.291 336.225 299.963 336.655 299.721C337.085 299.475 337.602 299.352 338.208 299.352C338.778 299.352 339.262 299.447 339.661 299.639C340.059 299.83 340.362 300.102 340.569 300.453C340.78 300.805 340.885 301.221 340.885 301.701C340.885 301.967 340.843 302.23 340.757 302.492C340.671 302.754 340.548 303.016 340.387 303.277C340.231 303.535 340.046 303.795 339.831 304.057C339.616 304.314 339.38 304.576 339.122 304.842L337.276 306.875H341.214ZM345.269 303.793V304.918H342.169V303.793H345.269ZM348.111 303.096H348.955C349.283 303.096 349.555 303.039 349.77 302.926C349.988 302.812 350.151 302.656 350.256 302.457C350.361 302.258 350.414 302.029 350.414 301.771C350.414 301.502 350.365 301.271 350.268 301.08C350.174 300.885 350.029 300.734 349.834 300.629C349.643 300.523 349.399 300.471 349.102 300.471C348.852 300.471 348.625 300.521 348.422 300.623C348.223 300.721 348.065 300.861 347.947 301.045C347.83 301.225 347.772 301.439 347.772 301.689H346.354C346.354 301.236 346.473 300.834 346.711 300.482C346.949 300.131 347.274 299.855 347.684 299.656C348.098 299.453 348.563 299.352 349.078 299.352C349.629 299.352 350.11 299.443 350.52 299.627C350.934 299.807 351.256 300.076 351.486 300.436C351.717 300.795 351.832 301.24 351.832 301.771C351.832 302.014 351.776 302.26 351.662 302.51C351.549 302.76 351.381 302.988 351.158 303.195C350.936 303.398 350.658 303.564 350.326 303.693C349.994 303.818 349.61 303.881 349.172 303.881H348.111V303.096ZM348.111 304.197V303.424H349.172C349.672 303.424 350.098 303.482 350.449 303.6C350.805 303.717 351.094 303.879 351.317 304.086C351.539 304.289 351.701 304.521 351.803 304.783C351.908 305.045 351.961 305.322 351.961 305.615C351.961 306.014 351.889 306.369 351.744 306.682C351.604 306.99 351.403 307.252 351.141 307.467C350.879 307.682 350.572 307.844 350.221 307.953C349.873 308.062 349.494 308.117 349.084 308.117C348.717 308.117 348.365 308.066 348.029 307.965C347.694 307.863 347.393 307.713 347.127 307.514C346.861 307.311 346.651 307.059 346.494 306.758C346.342 306.453 346.266 306.102 346.266 305.703H347.678C347.678 305.957 347.736 306.182 347.854 306.377C347.975 306.568 348.143 306.719 348.358 306.828C348.576 306.938 348.826 306.992 349.108 306.992C349.404 306.992 349.66 306.939 349.875 306.834C350.09 306.729 350.254 306.572 350.367 306.365C350.485 306.158 350.543 305.908 350.543 305.615C350.543 305.283 350.479 305.014 350.35 304.807C350.221 304.6 350.037 304.447 349.799 304.35C349.561 304.248 349.279 304.197 348.955 304.197H348.111ZM359.022 306.875V308H353.304V307.033L356.081 304.004C356.386 303.66 356.626 303.363 356.802 303.113C356.977 302.863 357.1 302.639 357.171 302.439C357.245 302.236 357.282 302.039 357.282 301.848C357.282 301.578 357.231 301.342 357.13 301.139C357.032 300.932 356.888 300.77 356.696 300.652C356.505 300.531 356.272 300.471 355.999 300.471C355.683 300.471 355.417 300.539 355.202 300.676C354.987 300.812 354.825 301.002 354.716 301.244C354.606 301.482 354.552 301.756 354.552 302.064H353.14C353.14 301.568 353.253 301.115 353.479 300.705C353.706 300.291 354.034 299.963 354.464 299.721C354.893 299.475 355.411 299.352 356.016 299.352C356.587 299.352 357.071 299.447 357.47 299.639C357.868 299.83 358.171 300.102 358.378 300.453C358.589 300.805 358.694 301.221 358.694 301.701C358.694 301.967 358.651 302.23 358.565 302.492C358.479 302.754 358.356 303.016 358.196 303.277C358.04 303.535 357.854 303.795 357.64 304.057C357.425 304.314 357.188 304.576 356.931 304.842L355.085 306.875H359.022Z" fill="#FF4E84"/>
<rect x="18" y="331" width="343" height="3" rx="1.5" fill="#A8ABBD"/>
<rect x="108.794" y="331" width="90.7941" height="3" rx="1.5" fill="#FF4E84"/>
<path d="M118.391 332C118.391 337.234 114.107 341.5 108.794 341.5C103.482 341.5 99.1973 337.234 99.1973 332C99.1973 326.766 103.482 322.5 108.794 322.5C114.107 322.5 118.391 326.766 118.391 332Z" fill="#FF4E84" stroke="white" stroke-width="3"/>
<circle cx="200" cy="332" r="9.5" fill="#FF4E84" stroke="white" stroke-width="3"/>
<path d="M159.95 472.83H164V473.66H159.95V472.83ZM159.95 471.48H164V472.3H159.95V471.48ZM159.21 470.94V474.2H164.77V470.94H159.21ZM157.57 467.88V468.54H166.44V467.88H157.57ZM161.59 466.6V470.63H162.34V466.6H161.59ZM161.16 468.07C160.36 469.19 158.79 470.27 157.35 470.76C157.51 470.91 157.73 471.18 157.84 471.36C159.31 470.78 160.89 469.61 161.79 468.32L161.16 468.07ZM162.75 468.08L162.14 468.32C163.05 469.58 164.65 470.73 166.14 471.29C166.25 471.09 166.47 470.81 166.64 470.67C165.16 470.2 163.56 469.17 162.75 468.08ZM157.73 474.81V475.48H166.3V474.81H157.73ZM169.615 471.05V475.83H170.335V471.65H174.695V475.83H175.445V471.05H169.615ZM167.605 469.73V470.35H176.435V469.73H167.605ZM168.335 468.39V468.99H175.855V468.39H168.335ZM170.105 472.33V472.86H175.015V472.33H170.105ZM170.105 473.57V474.09H175.015V473.57H170.105ZM170.035 474.83V475.43H175.015V474.83H170.035ZM175.275 466.68C173.685 467.01 170.635 467.15 168.195 467.17C168.265 467.33 168.335 467.59 168.355 467.76C170.825 467.75 173.895 467.6 175.755 467.23L175.275 466.68ZM171.175 467.37C170.645 469.58 169.475 471.77 167.355 472.99C167.505 473.13 167.725 473.41 167.825 473.57C170.065 472.24 171.285 469.95 171.955 467.53L171.175 467.37ZM177.66 467.16V467.85H181.97V467.16H177.66ZM182.68 470.01V470.73H186.7V470.01H182.68ZM184.85 470.48V475.81H185.59V470.48H184.85ZM182.39 467.59V470.26C182.39 471.79 182.25 473.8 180.86 475.28C181.04 475.37 181.31 475.62 181.42 475.78C182.92 474.17 183.13 471.88 183.13 470.26V467.97C183.27 467.95 183.32 467.91 183.33 467.84L182.39 467.59ZM178.03 468.89V471.59C178.03 472.74 177.96 474.28 177.26 475.36C177.42 475.45 177.73 475.68 177.85 475.82C178.62 474.64 178.74 472.87 178.74 471.59V468.89H178.03ZM185.84 466.72C185.09 467.15 183.74 467.58 182.55 467.86C182.65 468.03 182.77 468.3 182.81 468.47C184.06 468.18 185.51 467.77 186.5 467.29L185.84 466.72ZM178.44 468.89V469.58H180.99V471.33H178.44V472.01H181.72V468.89H178.44ZM187.705 467.9V468.61H196.465V467.9H187.705ZM190.145 471.47V472.12H194.845V471.47H190.145ZM189.615 469.77V475.8H190.355V470.44H194.725V469.77H189.615ZM194.555 469.77V474.86C194.555 475.01 194.495 475.06 194.325 475.07C194.145 475.07 193.535 475.08 192.865 475.05C192.975 475.26 193.085 475.57 193.115 475.78C193.975 475.78 194.535 475.78 194.855 475.66C195.195 475.54 195.285 475.31 195.285 474.87V469.77H194.555ZM190.975 466.6C190.435 468.61 189.255 470.73 187.465 471.96C187.615 472.11 187.845 472.37 187.945 472.54C189.855 471.2 191.055 468.98 191.735 466.78L190.975 466.6ZM190.145 473.16V473.81H194.845V473.16H190.145ZM197.55 472.78V473.48H206.65V472.78H197.55ZM201.25 468.36V468.89H202.97V468.36H201.25ZM204.07 467.11V467.74H205.69V467.11H204.07ZM204.14 469.02V469.64H205.61V469.02H204.14ZM204.12 470.89V471.51H205.58V470.89H204.12ZM198.6 469.02V469.64H200.08V469.02H198.6ZM198.65 470.89V471.51H200.07V470.89H198.65ZM200.38 467.11V473.08H200.95V467.7H203.26V473.08H203.85V467.11H200.38ZM201.73 470.03H202.46V471.37H201.73V470.03ZM201.34 469.54V471.86H202.86V469.54H201.34ZM198.29 467.14L198.47 473.07H199.12L198.95 467.45C199.07 467.43 199.13 467.39 199.14 467.33L198.29 467.14ZM205.29 467.11C205.3 469 205.21 471.65 205.1 473.15H205.75C205.86 471.68 205.94 469.04 205.96 467.11H205.29ZM199.99 466.66C199.63 466.91 199.02 467.23 198.5 467.45C198.58 467.6 198.68 467.83 198.72 467.98C199.29 467.78 199.97 467.51 200.52 467.22L199.99 466.66ZM203.01 474.14C204.09 474.67 205.23 475.34 205.91 475.82L206.61 475.3C205.88 474.82 204.66 474.15 203.55 473.64L203.01 474.14ZM200.44 473.63C199.82 474.18 198.6 474.87 197.62 475.28C197.8 475.42 198.06 475.66 198.2 475.81C199.15 475.4 200.37 474.71 201.15 474.09L200.44 473.63ZM211.035 467.01V467.66H215.795V467.01H211.035ZM213.785 468.6V469.22H216.165V468.6H213.785ZM211.915 468.85V469.44H213.645V468.85H211.915ZM211.915 470.68V471.29H213.645V470.68H211.915ZM213.355 467.27V474.62H213.975V467.27H213.355ZM211.595 467.23V473.19L212.205 473.07V467.23H211.595ZM210.825 473.16L210.965 473.79C211.725 473.61 212.705 473.37 213.655 473.14L213.585 472.56C212.555 472.8 211.525 473.02 210.825 473.16ZM215.985 468.6V468.75C215.785 471.22 215.145 472.97 214.145 473.89C214.285 473.99 214.495 474.26 214.585 474.41C215.665 473.41 216.375 471.5 216.625 468.7L216.235 468.59L216.115 468.6H215.985ZM214.735 469.51L214.205 469.63C214.565 471.72 215.245 473.57 216.405 474.49C216.505 474.33 216.705 474.11 216.855 473.99C215.745 473.2 215.055 471.44 214.735 469.51ZM207.875 467.79V468.45H211.165V467.79H207.875ZM207.625 469.63V470.31H211.355V469.63H207.625ZM209.705 471.57V472.25H211.285V471.57H209.705ZM209.305 466.6V470.05H209.995V466.6H209.305ZM209.455 470.09V474.65H210.125V470.09H209.455ZM208.645 472.3L208.095 472.49C208.785 475.01 210.025 475.54 212.725 475.54H216.455C216.505 475.32 216.645 474.98 216.765 474.8C216.165 474.83 213.185 474.82 212.725 474.82C210.395 474.82 209.215 474.4 208.645 472.3ZM208.065 471.08C208.105 472.43 208.035 474.13 207.355 475.35C207.505 475.42 207.745 475.63 207.855 475.78C208.635 474.44 208.715 472.61 208.695 471.11L208.065 471.08Z" fill="#FF4E84"/>
<path d="M16.45 391.78V392.48H25.55V391.78H16.45ZM20.15 387.36V387.89H21.87V387.36H20.15ZM22.97 386.11V386.74H24.59V386.11H22.97ZM23.04 388.02V388.64H24.51V388.02H23.04ZM23.02 389.89V390.51H24.48V389.89H23.02ZM17.5 388.02V388.64H18.98V388.02H17.5ZM17.55 389.89V390.51H18.97V389.89H17.55ZM19.28 386.11V392.08H19.85V386.7H22.16V392.08H22.75V386.11H19.28ZM20.63 389.03H21.36V390.37H20.63V389.03ZM20.24 388.54V390.86H21.76V388.54H20.24ZM17.19 386.14L17.37 392.07H18.02L17.85 386.45C17.97 386.43 18.03 386.39 18.04 386.33L17.19 386.14ZM24.19 386.11C24.2 388 24.11 390.65 24 392.15H24.65C24.76 390.68 24.84 388.04 24.86 386.11H24.19ZM18.89 385.66C18.53 385.91 17.92 386.23 17.4 386.45C17.48 386.6 17.58 386.83 17.62 386.98C18.19 386.78 18.87 386.51 19.42 386.22L18.89 385.66ZM21.91 393.14C22.99 393.67 24.13 394.34 24.81 394.82L25.51 394.3C24.78 393.82 23.56 393.15 22.45 392.64L21.91 393.14ZM19.34 392.63C18.72 393.18 17.5 393.87 16.52 394.28C16.7 394.42 16.96 394.66 17.1 394.81C18.05 394.4 19.27 393.71 20.05 393.09L19.34 392.63ZM29.935 386.01V386.66H34.695V386.01H29.935ZM32.685 387.6V388.22H35.065V387.6H32.685ZM30.815 387.85V388.44H32.545V387.85H30.815ZM30.815 389.68V390.29H32.545V389.68H30.815ZM32.255 386.27V393.62H32.875V386.27H32.255ZM30.495 386.23V392.19L31.105 392.07V386.23H30.495ZM29.725 392.16L29.865 392.79C30.625 392.61 31.605 392.37 32.555 392.14L32.485 391.56C31.455 391.8 30.425 392.02 29.725 392.16ZM34.885 387.6V387.75C34.685 390.22 34.045 391.97 33.045 392.89C33.185 392.99 33.395 393.26 33.485 393.41C34.565 392.41 35.275 390.5 35.525 387.7L35.135 387.59L35.015 387.6H34.885ZM33.635 388.51L33.105 388.63C33.465 390.72 34.145 392.57 35.305 393.49C35.405 393.33 35.605 393.11 35.755 392.99C34.645 392.2 33.955 390.44 33.635 388.51ZM26.775 386.79V387.45H30.065V386.79H26.775ZM26.525 388.63V389.31H30.255V388.63H26.525ZM28.605 390.57V391.25H30.185V390.57H28.605ZM28.205 385.6V389.05H28.895V385.6H28.205ZM28.355 389.09V393.65H29.025V389.09H28.355ZM27.545 391.3L26.995 391.49C27.685 394.01 28.925 394.54 31.625 394.54H35.355C35.405 394.32 35.545 393.98 35.665 393.8C35.065 393.83 32.085 393.82 31.625 393.82C29.295 393.82 28.115 393.4 27.545 391.3ZM26.965 390.08C27.005 391.43 26.935 393.13 26.255 394.35C26.405 394.42 26.645 394.63 26.755 394.78C27.535 393.44 27.615 391.61 27.595 390.11L26.965 390.08Z" fill="#A8ABBD"/>
<g clip-path="url(#clip5_40_8782)">
<rect x="16" y="408" width="60" height="40" rx="20" fill="white"/>
<path d="M34.43 426.27L31.644 426.27L31.644 427.25L33.422 427.25L33.422 431.226L34.43 431.226L34.43 426.27ZM34.43 430.806L33.52 430.806C32.862 431.408 32.106 432.038 31.49 432.486L32.036 433.508C32.736 432.892 33.38 432.29 33.996 431.688C34.864 432.794 36.138 433.284 37.986 433.354C39.554 433.424 42.55 433.396 44.132 433.326C44.174 433.018 44.342 432.528 44.468 432.29C42.774 432.402 39.54 432.444 37.986 432.374C36.32 432.318 35.088 431.842 34.43 430.806ZM31.77 421.678C32.624 422.364 33.59 423.344 33.982 424.044L34.85 423.386C34.416 422.7 33.436 421.734 32.568 421.104L31.77 421.678ZM39.134 422.378L39.134 431.996L40.142 431.996L40.142 422.378L39.134 422.378ZM36.992 427.334L42.326 427.334L42.326 428.286L36.992 428.286L36.992 427.334ZM36.992 425.724L42.326 425.724L42.326 426.648L36.992 426.648L36.992 425.724ZM36.082 425.01L36.082 429L43.278 429L43.278 425.01L36.082 425.01ZM35.34 421.244L35.34 423.064L36.278 423.064L36.278 422.042L43.04 422.042L43.04 423.064L44.02 423.064L44.02 421.244L35.34 421.244ZM35.634 423.372L35.634 424.156L43.684 424.156L43.684 423.372L35.634 423.372ZM35.102 429.84L35.102 430.666L44.272 430.666L44.272 429.84L35.102 429.84ZM46.001 429.896L46.001 430.694L52.385 430.694L52.385 429.896L46.001 429.896ZM45.623 423.148L45.623 423.96L52.609 423.96L52.609 423.148L45.623 423.148ZM48.661 421.874L48.661 432.178L49.627 432.178L49.627 421.874L48.661 421.874ZM45.609 432.206L45.763 433.116C47.541 432.934 50.075 432.64 52.455 432.36L52.441 431.534C49.935 431.8 47.317 432.052 45.609 432.206ZM46.911 427.278L51.447 427.278L51.447 428.314L46.911 428.314L46.911 427.278ZM46.911 425.57L51.447 425.57L51.447 426.578L46.911 426.578L46.911 425.57ZM46.029 424.842L46.029 429.042L52.343 429.042L52.343 424.842L46.029 424.842ZM51.839 420.88C50.397 421.216 47.849 421.468 45.763 421.58C45.875 421.79 45.973 422.14 46.015 422.364C48.115 422.294 50.719 422.056 52.371 421.692L51.839 420.88ZM52.511 424.016L52.511 424.996L57.565 424.996L57.565 424.016L52.511 424.016ZM57.159 424.016L57.159 424.268C57.005 429.938 56.851 431.954 56.501 432.388C56.375 432.57 56.235 432.612 56.011 432.612C55.731 432.612 55.115 432.598 54.429 432.542C54.597 432.822 54.709 433.256 54.737 433.55C55.381 433.592 56.053 433.592 56.445 433.55C56.865 433.508 57.145 433.382 57.397 433.018C57.859 432.416 57.999 430.456 58.153 424.548C58.153 424.408 58.167 424.016 58.167 424.016L57.159 424.016ZM54.205 420.922C54.191 426.214 54.261 430.652 51.055 432.948C51.307 433.116 51.671 433.452 51.839 433.704C55.185 431.198 55.199 426.494 55.213 420.922L54.205 420.922Z" fill="#A8ABBD"/>
</g>
<rect x="16.5" y="408.5" width="59" height="39" rx="19.5" stroke="#A8ABBD"/>
<g clip-path="url(#clip6_40_8782)">
<rect x="88" y="408" width="60" height="40" rx="20" fill="white"/>
<path d="M106.43 426.27L103.644 426.27L103.644 427.25L105.422 427.25L105.422 431.226L106.43 431.226L106.43 426.27ZM106.43 430.806L105.52 430.806C104.862 431.408 104.106 432.038 103.49 432.486L104.036 433.508C104.736 432.892 105.38 432.29 105.996 431.688C106.864 432.794 108.138 433.284 109.986 433.354C111.554 433.424 114.55 433.396 116.132 433.326C116.174 433.018 116.342 432.528 116.468 432.29C114.774 432.402 111.54 432.444 109.986 432.374C108.32 432.318 107.088 431.842 106.43 430.806ZM103.77 421.678C104.624 422.364 105.59 423.344 105.982 424.044L106.85 423.386C106.416 422.7 105.436 421.734 104.568 421.104L103.77 421.678ZM111.134 422.378L111.134 431.996L112.142 431.996L112.142 422.378L111.134 422.378ZM108.992 427.334L114.326 427.334L114.326 428.286L108.992 428.286L108.992 427.334ZM108.992 425.724L114.326 425.724L114.326 426.648L108.992 426.648L108.992 425.724ZM108.082 425.01L108.082 429L115.278 429L115.278 425.01L108.082 425.01ZM107.34 421.244L107.34 423.064L108.278 423.064L108.278 422.042L115.04 422.042L115.04 423.064L116.02 423.064L116.02 421.244L107.34 421.244ZM107.634 423.372L107.634 424.156L115.684 424.156L115.684 423.372L107.634 423.372ZM107.102 429.84L107.102 430.666L116.272 430.666L116.272 429.84L107.102 429.84ZM118.001 429.896L118.001 430.694L124.385 430.694L124.385 429.896L118.001 429.896ZM117.623 423.148L117.623 423.96L124.609 423.96L124.609 423.148L117.623 423.148ZM120.661 421.874L120.661 432.178L121.627 432.178L121.627 421.874L120.661 421.874ZM117.609 432.206L117.763 433.116C119.541 432.934 122.075 432.64 124.455 432.36L124.441 431.534C121.935 431.8 119.317 432.052 117.609 432.206ZM118.911 427.278L123.447 427.278L123.447 428.314L118.911 428.314L118.911 427.278ZM118.911 425.57L123.447 425.57L123.447 426.578L118.911 426.578L118.911 425.57ZM118.029 424.842L118.029 429.042L124.343 429.042L124.343 424.842L118.029 424.842ZM123.839 420.88C122.397 421.216 119.849 421.468 117.763 421.58C117.875 421.79 117.973 422.14 118.015 422.364C120.115 422.294 122.719 422.056 124.371 421.692L123.839 420.88ZM124.511 424.016L124.511 424.996L129.565 424.996L129.565 424.016L124.511 424.016ZM129.159 424.016L129.159 424.268C129.005 429.938 128.851 431.954 128.501 432.388C128.375 432.57 128.235 432.612 128.011 432.612C127.731 432.612 127.115 432.598 126.429 432.542C126.597 432.822 126.709 433.256 126.737 433.55C127.381 433.592 128.053 433.592 128.445 433.55C128.865 433.508 129.145 433.382 129.397 433.018C129.859 432.416 129.999 430.456 130.153 424.548C130.153 424.408 130.167 424.016 130.167 424.016L129.159 424.016ZM126.205 420.922C126.191 426.214 126.261 430.652 123.055 432.948C123.307 433.116 123.671 433.452 123.839 433.704C127.185 431.198 127.199 426.494 127.213 420.922L126.205 420.922Z" fill="#A8ABBD"/>
</g>
<rect x="88.5" y="408.5" width="59" height="39" rx="19.5" stroke="#A8ABBD"/>
<g clip-path="url(#clip7_40_8782)">
<rect x="160" y="408" width="60" height="40" rx="20" fill="white"/>
<path d="M178.43 426.27L175.644 426.27L175.644 427.25L177.422 427.25L177.422 431.226L178.43 431.226L178.43 426.27ZM178.43 430.806L177.52 430.806C176.862 431.408 176.106 432.038 175.49 432.486L176.036 433.508C176.736 432.892 177.38 432.29 177.996 431.688C178.864 432.794 180.138 433.284 181.986 433.354C183.554 433.424 186.55 433.396 188.132 433.326C188.174 433.018 188.342 432.528 188.468 432.29C186.774 432.402 183.54 432.444 181.986 432.374C180.32 432.318 179.088 431.842 178.43 430.806ZM175.77 421.678C176.624 422.364 177.59 423.344 177.982 424.044L178.85 423.386C178.416 422.7 177.436 421.734 176.568 421.104L175.77 421.678ZM183.134 422.378L183.134 431.996L184.142 431.996L184.142 422.378L183.134 422.378ZM180.992 427.334L186.326 427.334L186.326 428.286L180.992 428.286L180.992 427.334ZM180.992 425.724L186.326 425.724L186.326 426.648L180.992 426.648L180.992 425.724ZM180.082 425.01L180.082 429L187.278 429L187.278 425.01L180.082 425.01ZM179.34 421.244L179.34 423.064L180.278 423.064L180.278 422.042L187.04 422.042L187.04 423.064L188.02 423.064L188.02 421.244L179.34 421.244ZM179.634 423.372L179.634 424.156L187.684 424.156L187.684 423.372L179.634 423.372ZM179.102 429.84L179.102 430.666L188.272 430.666L188.272 429.84L179.102 429.84ZM190.001 429.896L190.001 430.694L196.385 430.694L196.385 429.896L190.001 429.896ZM189.623 423.148L189.623 423.96L196.609 423.96L196.609 423.148L189.623 423.148ZM192.661 421.874L192.661 432.178L193.627 432.178L193.627 421.874L192.661 421.874ZM189.609 432.206L189.763 433.116C191.541 432.934 194.075 432.64 196.455 432.36L196.441 431.534C193.935 431.8 191.317 432.052 189.609 432.206ZM190.911 427.278L195.447 427.278L195.447 428.314L190.911 428.314L190.911 427.278ZM190.911 425.57L195.447 425.57L195.447 426.578L190.911 426.578L190.911 425.57ZM190.029 424.842L190.029 429.042L196.343 429.042L196.343 424.842L190.029 424.842ZM195.839 420.88C194.397 421.216 191.849 421.468 189.763 421.58C189.875 421.79 189.973 422.14 190.015 422.364C192.115 422.294 194.719 422.056 196.371 421.692L195.839 420.88ZM196.511 424.016L196.511 424.996L201.565 424.996L201.565 424.016L196.511 424.016ZM201.159 424.016L201.159 424.268C201.005 429.938 200.851 431.954 200.501 432.388C200.375 432.57 200.235 432.612 200.011 432.612C199.731 432.612 199.115 432.598 198.429 432.542C198.597 432.822 198.709 433.256 198.737 433.55C199.381 433.592 200.053 433.592 200.445 433.55C200.865 433.508 201.145 433.382 201.397 433.018C201.859 432.416 201.999 430.456 202.153 424.548C202.153 424.408 202.167 424.016 202.167 424.016L201.159 424.016ZM198.205 420.922C198.191 426.214 198.261 430.652 195.055 432.948C195.307 433.116 195.671 433.452 195.839 433.704C199.185 431.198 199.199 426.494 199.213 420.922L198.205 420.922Z" fill="#A8ABBD"/>
</g>
<rect x="160.5" y="408.5" width="59" height="39" rx="19.5" stroke="#A8ABBD"/>
<g clip-path="url(#clip8_40_8782)">
<rect x="16" y="436" width="60" height="40" rx="20" fill="white"/>
<path d="M34.43 454.27L31.644 454.27L31.644 455.25L33.422 455.25L33.422 459.226L34.43 459.226L34.43 454.27ZM34.43 458.806L33.52 458.806C32.862 459.408 32.106 460.038 31.49 460.486L32.036 461.508C32.736 460.892 33.38 460.29 33.996 459.688C34.864 460.794 36.138 461.284 37.986 461.354C39.554 461.424 42.55 461.396 44.132 461.326C44.174 461.018 44.342 460.528 44.468 460.29C42.774 460.402 39.54 460.444 37.986 460.374C36.32 460.318 35.088 459.842 34.43 458.806ZM31.77 449.678C32.624 450.364 33.59 451.344 33.982 452.044L34.85 451.386C34.416 450.7 33.436 449.734 32.568 449.104L31.77 449.678ZM39.134 450.378L39.134 459.996L40.142 459.996L40.142 450.378L39.134 450.378ZM36.992 455.334L42.326 455.334L42.326 456.286L36.992 456.286L36.992 455.334ZM36.992 453.724L42.326 453.724L42.326 454.648L36.992 454.648L36.992 453.724ZM36.082 453.01L36.082 457L43.278 457L43.278 453.01L36.082 453.01ZM35.34 449.244L35.34 451.064L36.278 451.064L36.278 450.042L43.04 450.042L43.04 451.064L44.02 451.064L44.02 449.244L35.34 449.244ZM35.634 451.372L35.634 452.156L43.684 452.156L43.684 451.372L35.634 451.372ZM35.102 457.84L35.102 458.666L44.272 458.666L44.272 457.84L35.102 457.84ZM46.001 457.896L46.001 458.694L52.385 458.694L52.385 457.896L46.001 457.896ZM45.623 451.148L45.623 451.96L52.609 451.96L52.609 451.148L45.623 451.148ZM48.661 449.874L48.661 460.178L49.627 460.178L49.627 449.874L48.661 449.874ZM45.609 460.206L45.763 461.116C47.541 460.934 50.075 460.64 52.455 460.36L52.441 459.534C49.935 459.8 47.317 460.052 45.609 460.206ZM46.911 455.278L51.447 455.278L51.447 456.314L46.911 456.314L46.911 455.278ZM46.911 453.57L51.447 453.57L51.447 454.578L46.911 454.578L46.911 453.57ZM46.029 452.842L46.029 457.042L52.343 457.042L52.343 452.842L46.029 452.842ZM51.839 448.88C50.397 449.216 47.849 449.468 45.763 449.58C45.875 449.79 45.973 450.14 46.015 450.364C48.115 450.294 50.719 450.056 52.371 449.692L51.839 448.88ZM52.511 452.016L52.511 452.996L57.565 452.996L57.565 452.016L52.511 452.016ZM57.159 452.016L57.159 452.268C57.005 457.938 56.851 459.954 56.501 460.388C56.375 460.57 56.235 460.612 56.011 460.612C55.731 460.612 55.115 460.598 54.429 460.542C54.597 460.822 54.709 461.256 54.737 461.55C55.381 461.592 56.053 461.592 56.445 461.55C56.865 461.508 57.145 461.382 57.397 461.018C57.859 460.416 57.999 458.456 58.153 452.548C58.153 452.408 58.167 452.016 58.167 452.016L57.159 452.016ZM54.205 448.922C54.191 454.214 54.261 458.652 51.055 460.948C51.307 461.116 51.671 461.452 51.839 461.704C55.185 459.198 55.199 454.494 55.213 448.922L54.205 448.922Z" fill="#A8ABBD"/>
</g>
<rect x="16.5" y="436.5" width="59" height="39" rx="19.5" stroke="#A8ABBD"/>
<g clip-path="url(#clip9_40_8782)">
<rect x="88" y="436" width="60" height="40" rx="20" fill="white"/>
<path d="M106.43 454.27L103.644 454.27L103.644 455.25L105.422 455.25L105.422 459.226L106.43 459.226L106.43 454.27ZM106.43 458.806L105.52 458.806C104.862 459.408 104.106 460.038 103.49 460.486L104.036 461.508C104.736 460.892 105.38 460.29 105.996 459.688C106.864 460.794 108.138 461.284 109.986 461.354C111.554 461.424 114.55 461.396 116.132 461.326C116.174 461.018 116.342 460.528 116.468 460.29C114.774 460.402 111.54 460.444 109.986 460.374C108.32 460.318 107.088 459.842 106.43 458.806ZM103.77 449.678C104.624 450.364 105.59 451.344 105.982 452.044L106.85 451.386C106.416 450.7 105.436 449.734 104.568 449.104L103.77 449.678ZM111.134 450.378L111.134 459.996L112.142 459.996L112.142 450.378L111.134 450.378ZM108.992 455.334L114.326 455.334L114.326 456.286L108.992 456.286L108.992 455.334ZM108.992 453.724L114.326 453.724L114.326 454.648L108.992 454.648L108.992 453.724ZM108.082 453.01L108.082 457L115.278 457L115.278 453.01L108.082 453.01ZM107.34 449.244L107.34 451.064L108.278 451.064L108.278 450.042L115.04 450.042L115.04 451.064L116.02 451.064L116.02 449.244L107.34 449.244ZM107.634 451.372L107.634 452.156L115.684 452.156L115.684 451.372L107.634 451.372ZM107.102 457.84L107.102 458.666L116.272 458.666L116.272 457.84L107.102 457.84ZM118.001 457.896L118.001 458.694L124.385 458.694L124.385 457.896L118.001 457.896ZM117.623 451.148L117.623 451.96L124.609 451.96L124.609 451.148L117.623 451.148ZM120.661 449.874L120.661 460.178L121.627 460.178L121.627 449.874L120.661 449.874ZM117.609 460.206L117.763 461.116C119.541 460.934 122.075 460.64 124.455 460.36L124.441 459.534C121.935 459.8 119.317 460.052 117.609 460.206ZM118.911 455.278L123.447 455.278L123.447 456.314L118.911 456.314L118.911 455.278ZM118.911 453.57L123.447 453.57L123.447 454.578L118.911 454.578L118.911 453.57ZM118.029 452.842L118.029 457.042L124.343 457.042L124.343 452.842L118.029 452.842ZM123.839 448.88C122.397 449.216 119.849 449.468 117.763 449.58C117.875 449.79 117.973 450.14 118.015 450.364C120.115 450.294 122.719 450.056 124.371 449.692L123.839 448.88ZM124.511 452.016L124.511 452.996L129.565 452.996L129.565 452.016L124.511 452.016ZM129.159 452.016L129.159 452.268C129.005 457.938 128.851 459.954 128.501 460.388C128.375 460.57 128.235 460.612 128.011 460.612C127.731 460.612 127.115 460.598 126.429 460.542C126.597 460.822 126.709 461.256 126.737 461.55C127.381 461.592 128.053 461.592 128.445 461.55C128.865 461.508 129.145 461.382 129.397 461.018C129.859 460.416 129.999 458.456 130.153 452.548C130.153 452.408 130.167 452.016 130.167 452.016L129.159 452.016ZM126.205 448.922C126.191 454.214 126.261 458.652 123.055 460.948C123.307 461.116 123.671 461.452 123.839 461.704C127.185 459.198 127.199 454.494 127.213 448.922L126.205 448.922Z" fill="#A8ABBD"/>
</g>
<rect x="88.5" y="436.5" width="59" height="39" rx="19.5" stroke="#A8ABBD"/>
<g clip-path="url(#clip10_40_8782)">
<rect x="160" y="436" width="60" height="40" rx="20" fill="white"/>
<path d="M178.43 454.27L175.644 454.27L175.644 455.25L177.422 455.25L177.422 459.226L178.43 459.226L178.43 454.27ZM178.43 458.806L177.52 458.806C176.862 459.408 176.106 460.038 175.49 460.486L176.036 461.508C176.736 460.892 177.38 460.29 177.996 459.688C178.864 460.794 180.138 461.284 181.986 461.354C183.554 461.424 186.55 461.396 188.132 461.326C188.174 461.018 188.342 460.528 188.468 460.29C186.774 460.402 183.54 460.444 181.986 460.374C180.32 460.318 179.088 459.842 178.43 458.806ZM175.77 449.678C176.624 450.364 177.59 451.344 177.982 452.044L178.85 451.386C178.416 450.7 177.436 449.734 176.568 449.104L175.77 449.678ZM183.134 450.378L183.134 459.996L184.142 459.996L184.142 450.378L183.134 450.378ZM180.992 455.334L186.326 455.334L186.326 456.286L180.992 456.286L180.992 455.334ZM180.992 453.724L186.326 453.724L186.326 454.648L180.992 454.648L180.992 453.724ZM180.082 453.01L180.082 457L187.278 457L187.278 453.01L180.082 453.01ZM179.34 449.244L179.34 451.064L180.278 451.064L180.278 450.042L187.04 450.042L187.04 451.064L188.02 451.064L188.02 449.244L179.34 449.244ZM179.634 451.372L179.634 452.156L187.684 452.156L187.684 451.372L179.634 451.372ZM179.102 457.84L179.102 458.666L188.272 458.666L188.272 457.84L179.102 457.84ZM190.001 457.896L190.001 458.694L196.385 458.694L196.385 457.896L190.001 457.896ZM189.623 451.148L189.623 451.96L196.609 451.96L196.609 451.148L189.623 451.148ZM192.661 449.874L192.661 460.178L193.627 460.178L193.627 449.874L192.661 449.874ZM189.609 460.206L189.763 461.116C191.541 460.934 194.075 460.64 196.455 460.36L196.441 459.534C193.935 459.8 191.317 460.052 189.609 460.206ZM190.911 455.278L195.447 455.278L195.447 456.314L190.911 456.314L190.911 455.278ZM190.911 453.57L195.447 453.57L195.447 454.578L190.911 454.578L190.911 453.57ZM190.029 452.842L190.029 457.042L196.343 457.042L196.343 452.842L190.029 452.842ZM195.839 448.88C194.397 449.216 191.849 449.468 189.763 449.58C189.875 449.79 189.973 450.14 190.015 450.364C192.115 450.294 194.719 450.056 196.371 449.692L195.839 448.88ZM196.511 452.016L196.511 452.996L201.565 452.996L201.565 452.016L196.511 452.016ZM201.159 452.016L201.159 452.268C201.005 457.938 200.851 459.954 200.501 460.388C200.375 460.57 200.235 460.612 200.011 460.612C199.731 460.612 199.115 460.598 198.429 460.542C198.597 460.822 198.709 461.256 198.737 461.55C199.381 461.592 200.053 461.592 200.445 461.55C200.865 461.508 201.145 461.382 201.397 461.018C201.859 460.416 201.999 458.456 202.153 452.548C202.153 452.408 202.167 452.016 202.167 452.016L201.159 452.016ZM198.205 448.922C198.191 454.214 198.261 458.652 195.055 460.948C195.307 461.116 195.671 461.452 195.839 461.704C199.185 459.198 199.199 454.494 199.213 448.922L198.205 448.922Z" fill="#A8ABBD"/>
</g>
<rect x="160.5" y="436.5" width="59" height="39" rx="19.5" stroke="#A8ABBD"/>
<g clip-path="url(#clip11_40_8782)">
<rect x="232" y="408" width="60" height="40" rx="20" fill="white"/>
<path d="M250.43 426.27L247.644 426.27L247.644 427.25L249.422 427.25L249.422 431.226L250.43 431.226L250.43 426.27ZM250.43 430.806L249.52 430.806C248.862 431.408 248.106 432.038 247.49 432.486L248.036 433.508C248.736 432.892 249.38 432.29 249.996 431.688C250.864 432.794 252.138 433.284 253.986 433.354C255.554 433.424 258.55 433.396 260.132 433.326C260.174 433.018 260.342 432.528 260.468 432.29C258.774 432.402 255.54 432.444 253.986 432.374C252.32 432.318 251.088 431.842 250.43 430.806ZM247.77 421.678C248.624 422.364 249.59 423.344 249.982 424.044L250.85 423.386C250.416 422.7 249.436 421.734 248.568 421.104L247.77 421.678ZM255.134 422.378L255.134 431.996L256.142 431.996L256.142 422.378L255.134 422.378ZM252.992 427.334L258.326 427.334L258.326 428.286L252.992 428.286L252.992 427.334ZM252.992 425.724L258.326 425.724L258.326 426.648L252.992 426.648L252.992 425.724ZM252.082 425.01L252.082 429L259.278 429L259.278 425.01L252.082 425.01ZM251.34 421.244L251.34 423.064L252.278 423.064L252.278 422.042L259.04 422.042L259.04 423.064L260.02 423.064L260.02 421.244L251.34 421.244ZM251.634 423.372L251.634 424.156L259.684 424.156L259.684 423.372L251.634 423.372ZM251.102 429.84L251.102 430.666L260.272 430.666L260.272 429.84L251.102 429.84ZM262.001 429.896L262.001 430.694L268.385 430.694L268.385 429.896L262.001 429.896ZM261.623 423.148L261.623 423.96L268.609 423.96L268.609 423.148L261.623 423.148ZM264.661 421.874L264.661 432.178L265.627 432.178L265.627 421.874L264.661 421.874ZM261.609 432.206L261.763 433.116C263.541 432.934 266.075 432.64 268.455 432.36L268.441 431.534C265.935 431.8 263.317 432.052 261.609 432.206ZM262.911 427.278L267.447 427.278L267.447 428.314L262.911 428.314L262.911 427.278ZM262.911 425.57L267.447 425.57L267.447 426.578L262.911 426.578L262.911 425.57ZM262.029 424.842L262.029 429.042L268.343 429.042L268.343 424.842L262.029 424.842ZM267.839 420.88C266.397 421.216 263.849 421.468 261.763 421.58C261.875 421.79 261.973 422.14 262.015 422.364C264.115 422.294 266.719 422.056 268.371 421.692L267.839 420.88ZM268.511 424.016L268.511 424.996L273.565 424.996L273.565 424.016L268.511 424.016ZM273.159 424.016L273.159 424.268C273.005 429.938 272.851 431.954 272.501 432.388C272.375 432.57 272.235 432.612 272.011 432.612C271.731 432.612 271.115 432.598 270.429 432.542C270.597 432.822 270.709 433.256 270.737 433.55C271.381 433.592 272.053 433.592 272.445 433.55C272.865 433.508 273.145 433.382 273.397 433.018C273.859 432.416 273.999 430.456 274.153 424.548C274.153 424.408 274.167 424.016 274.167 424.016L273.159 424.016ZM270.205 420.922C270.191 426.214 270.261 430.652 267.055 432.948C267.307 433.116 267.671 433.452 267.839 433.704C271.185 431.198 271.199 426.494 271.213 420.922L270.205 420.922Z" fill="#A8ABBD"/>
</g>
<rect x="232.5" y="408.5" width="59" height="39" rx="19.5" stroke="#A8ABBD"/>
<g clip-path="url(#clip12_40_8782)">
<rect x="304" y="408" width="60" height="40" rx="20" fill="white"/>
<path d="M322.43 426.27L319.644 426.27L319.644 427.25L321.422 427.25L321.422 431.226L322.43 431.226L322.43 426.27ZM322.43 430.806L321.52 430.806C320.862 431.408 320.106 432.038 319.49 432.486L320.036 433.508C320.736 432.892 321.38 432.29 321.996 431.688C322.864 432.794 324.138 433.284 325.986 433.354C327.554 433.424 330.55 433.396 332.132 433.326C332.174 433.018 332.342 432.528 332.468 432.29C330.774 432.402 327.54 432.444 325.986 432.374C324.32 432.318 323.088 431.842 322.43 430.806ZM319.77 421.678C320.624 422.364 321.59 423.344 321.982 424.044L322.85 423.386C322.416 422.7 321.436 421.734 320.568 421.104L319.77 421.678ZM327.134 422.378L327.134 431.996L328.142 431.996L328.142 422.378L327.134 422.378ZM324.992 427.334L330.326 427.334L330.326 428.286L324.992 428.286L324.992 427.334ZM324.992 425.724L330.326 425.724L330.326 426.648L324.992 426.648L324.992 425.724ZM324.082 425.01L324.082 429L331.278 429L331.278 425.01L324.082 425.01ZM323.34 421.244L323.34 423.064L324.278 423.064L324.278 422.042L331.04 422.042L331.04 423.064L332.02 423.064L332.02 421.244L323.34 421.244ZM323.634 423.372L323.634 424.156L331.684 424.156L331.684 423.372L323.634 423.372ZM323.102 429.84L323.102 430.666L332.272 430.666L332.272 429.84L323.102 429.84ZM334.001 429.896L334.001 430.694L340.385 430.694L340.385 429.896L334.001 429.896ZM333.623 423.148L333.623 423.96L340.609 423.96L340.609 423.148L333.623 423.148ZM336.661 421.874L336.661 432.178L337.627 432.178L337.627 421.874L336.661 421.874ZM333.609 432.206L333.763 433.116C335.541 432.934 338.075 432.64 340.455 432.36L340.441 431.534C337.935 431.8 335.317 432.052 333.609 432.206ZM334.911 427.278L339.447 427.278L339.447 428.314L334.911 428.314L334.911 427.278ZM334.911 425.57L339.447 425.57L339.447 426.578L334.911 426.578L334.911 425.57ZM334.029 424.842L334.029 429.042L340.343 429.042L340.343 424.842L334.029 424.842ZM339.839 420.88C338.397 421.216 335.849 421.468 333.763 421.58C333.875 421.79 333.973 422.14 334.015 422.364C336.115 422.294 338.719 422.056 340.371 421.692L339.839 420.88ZM340.511 424.016L340.511 424.996L345.565 424.996L345.565 424.016L340.511 424.016ZM345.159 424.016L345.159 424.268C345.005 429.938 344.851 431.954 344.501 432.388C344.375 432.57 344.235 432.612 344.011 432.612C343.731 432.612 343.115 432.598 342.429 432.542C342.597 432.822 342.709 433.256 342.737 433.55C343.381 433.592 344.053 433.592 344.445 433.55C344.865 433.508 345.145 433.382 345.397 433.018C345.859 432.416 345.999 430.456 346.153 424.548C346.153 424.408 346.167 424.016 346.167 424.016L345.159 424.016ZM342.205 420.922C342.191 426.214 342.261 430.652 339.055 432.948C339.307 433.116 339.671 433.452 339.839 433.704C343.185 431.198 343.199 426.494 343.213 420.922L342.205 420.922Z" fill="#A8ABBD"/>
</g>
<rect x="304.5" y="408.5" width="59" height="39" rx="19.5" stroke="#A8ABBD"/>
</g>
<defs>
<clipPath id="clip0_40_8782">
<rect width="375" height="812" fill="white"/>
</clipPath>
<clipPath id="clip1_40_8782">
<rect width="375" height="44" fill="white"/>
</clipPath>
<clipPath id="clip2_40_8782">
<rect x="16" y="133" width="110" height="34" rx="17" fill="white"/>
</clipPath>
<clipPath id="clip3_40_8782">
<rect x="132" y="133" width="110" height="34" rx="17" fill="white"/>
</clipPath>
<clipPath id="clip4_40_8782">
<rect x="249" y="133" width="110" height="34" rx="17" fill="white"/>
</clipPath>
<clipPath id="clip5_40_8782">
<rect x="16" y="408" width="60" height="40" rx="20" fill="white"/>
</clipPath>
<clipPath id="clip6_40_8782">
<rect x="88" y="408" width="60" height="40" rx="20" fill="white"/>
</clipPath>
<clipPath id="clip7_40_8782">
<rect x="160" y="408" width="60" height="40" rx="20" fill="white"/>
</clipPath>
<clipPath id="clip8_40_8782">
<rect x="16" y="436" width="60" height="40" rx="20" fill="white"/>
</clipPath>
<clipPath id="clip9_40_8782">
<rect x="88" y="436" width="60" height="40" rx="20" fill="white"/>
</clipPath>
<clipPath id="clip10_40_8782">
<rect x="160" y="436" width="60" height="40" rx="20" fill="white"/>
</clipPath>
<clipPath id="clip11_40_8782">
<rect x="232" y="408" width="60" height="40" rx="20" fill="white"/>
</clipPath>
<clipPath id="clip12_40_8782">
<rect x="304" y="408" width="60" height="40" rx="20" fill="white"/>
</clipPath>
</defs>
</svg>
