<svg width="375" height="44" viewBox="0 0 375 44" fill="none" xmlns="http://www.w3.org/2000/svg">
<g clip-path="url(#clip0_53_9448)">
<rect x="10" y="42" width="176" height="2" rx="1" fill="#6F7387"/>
<path d="M79.758 22.208C80.07 22.628 80.358 23.18 80.454 23.552L80.97 23.348C80.874 22.988 80.574 22.448 80.262 22.04L79.758 22.208ZM77.802 21.164C78.282 21.524 78.81 22.04 79.05 22.412L79.422 21.992C79.17 21.632 78.642 21.14 78.162 20.804L77.802 21.164ZM79.23 20.012C79.026 20.36 78.642 20.9 78.354 21.248L78.798 21.452C79.098 21.14 79.482 20.684 79.806 20.252L79.23 20.012ZM80.094 20.852C79.662 21.452 78.87 22.364 78.27 22.904L78.666 23.12C79.278 22.604 80.046 21.776 80.622 21.092L80.094 20.852ZM81.318 23.552V26.744H81.99V23.552H81.318ZM77.646 22.82L77.73 23.384C78.534 23.336 79.506 23.276 80.526 23.192V22.664C79.434 22.736 78.402 22.784 77.646 22.82ZM82.998 22.148C83.346 22.592 83.67 23.192 83.79 23.6L84.318 23.396C84.198 22.988 83.85 22.4 83.514 21.98L82.998 22.148ZM80.718 21.152C81.21 21.512 81.762 22.052 82.002 22.436L82.398 22.028C82.158 21.656 81.594 21.14 81.114 20.792L80.718 21.152ZM82.23 19.988C82.002 20.36 81.582 20.96 81.27 21.32L81.714 21.524C82.05 21.188 82.458 20.696 82.806 20.228L82.23 19.988ZM83.082 20.876C82.626 21.488 81.786 22.388 81.162 22.916L81.558 23.132C82.206 22.628 83.022 21.812 83.622 21.14L83.082 20.876ZM80.874 22.82L81.006 23.384C81.822 23.324 82.83 23.264 83.838 23.18V22.652C82.698 22.724 81.654 22.784 80.874 22.82ZM78.126 23.732V25.424H80.202V24.86H78.738V23.732H78.126ZM83.154 23.732V24.86H81.798V25.424H83.778V23.732H83.154ZM79.878 23.552V24.62C79.878 25.28 79.71 25.952 78.378 26.36C78.534 26.48 78.738 26.732 78.822 26.888C80.322 26.36 80.538 25.532 80.538 24.632V23.552H79.878ZM76.482 17.996V18.608H79.854V17.996H76.482ZM82.002 17.996V18.608H85.458V17.996H82.002ZM85.122 16.436V25.832C85.122 25.988 85.074 26.048 84.918 26.048C84.75 26.06 84.246 26.06 83.718 26.036C83.838 26.276 83.958 26.696 83.994 26.936C84.738 26.936 85.254 26.924 85.578 26.768C85.902 26.612 85.998 26.336 85.998 25.832V16.436H85.122ZM76.554 16.436V17.096H79.566V19.472H76.554V20.132H80.418V16.436H76.554ZM85.554 16.436H81.486V20.132H85.554V19.472H82.338V17.096H85.554V16.436ZM76.014 16.436V26.972H76.878V16.436H76.014ZM87.528 17.888V18.728H92.64V17.888H87.528ZM89.304 20.384V21.212H91.476V20.384H89.304ZM89.652 15.944V18.188H90.54V15.944H89.652ZM95.34 16.964C95.904 18.488 96.96 20.144 98.172 21.128C98.292 20.852 98.484 20.492 98.652 20.252C97.5 19.424 96.396 17.696 95.772 15.932H94.848C94.38 17.564 93.336 19.376 92.136 20.324C92.292 20.54 92.496 20.9 92.592 21.14C93.816 20.144 94.848 18.428 95.34 16.964ZM88.836 18.38C88.812 21.596 88.716 24.68 87.348 26.372C87.576 26.528 87.888 26.804 88.032 27.008C89.52 25.124 89.664 21.86 89.724 18.38H88.836ZM91.2 20.384V20.564C91.128 24.392 91.032 25.712 90.816 26C90.72 26.132 90.624 26.168 90.444 26.156C90.252 26.156 89.808 26.156 89.304 26.12C89.448 26.348 89.532 26.696 89.556 26.936C90.06 26.972 90.564 26.972 90.852 26.948C91.176 26.9 91.38 26.816 91.572 26.552C91.884 26.132 91.956 24.788 92.04 20.804C92.052 20.672 92.052 20.384 92.052 20.384H91.2ZM94.044 21.116C94.86 21.644 95.808 22.424 96.252 22.988L96.876 22.352C96.42 21.8 95.448 21.056 94.632 20.552L94.044 21.116ZM93.072 24.368C94.536 25.052 96.288 26.156 97.14 26.972L97.716 26.18C96.852 25.376 95.064 24.32 93.612 23.684L93.072 24.368ZM107.466 16.712C108.174 17.336 108.99 18.2 109.35 18.776L110.094 18.248C109.698 17.696 108.858 16.844 108.15 16.244L107.466 16.712ZM99.69 19.472V20.336H110.382V19.472H99.69ZM99.51 23L99.774 23.9C101.286 23.564 103.41 23.072 105.378 22.616L105.306 21.8C103.194 22.256 100.938 22.736 99.51 23ZM102.27 17.144V25.796C102.27 26.012 102.198 26.072 101.982 26.072C101.766 26.084 101.058 26.096 100.29 26.06C100.422 26.324 100.578 26.732 100.626 26.972C101.622 26.984 102.258 26.948 102.642 26.804C103.026 26.66 103.17 26.396 103.17 25.808V17.144H102.27ZM104.55 16.064C103.398 16.496 101.454 16.904 99.762 17.168C99.882 17.372 99.99 17.708 100.038 17.912C101.754 17.672 103.794 17.3 105.186 16.82L104.55 16.064ZM105.75 16.028C105.798 21.74 106.866 27.008 109.218 27.008C110.118 27.008 110.442 26.42 110.61 24.428C110.358 24.332 110.034 24.128 109.842 23.924C109.77 25.472 109.626 26.096 109.302 26.096C107.838 26.096 106.662 21.536 106.686 16.028H105.75ZM109.002 20.888C107.934 22.916 105.954 24.764 103.818 25.796C104.046 26 104.298 26.288 104.442 26.516C106.65 25.352 108.63 23.42 109.806 21.224L109.002 20.888Z" fill="#6F7387"/>
<rect x="189" y="42" width="176" height="2" rx="1" fill="#FF4E84"/>
<path d="M258.507 16.436V17.252H262.743V16.436H258.507ZM259.611 18.956V19.712H261.783V18.956H259.611ZM263.175 24.044V24.692H264.975V24.044H263.175ZM266.847 24.044V24.692H268.743V24.044H266.847ZM259.611 21.428V22.196H261.783V21.428H259.611ZM259.143 16.844V24.524H259.911V16.844H259.143ZM261.291 16.844V26.96H262.071V16.844H261.291ZM266.415 21.644V26.96H267.171V21.644H266.415ZM262.899 22.1V25.244H263.595V22.1H262.899ZM268.323 22.1V25.208H269.043V22.1H268.323ZM258.375 24.38L258.531 25.232C259.467 25.04 260.619 24.788 261.747 24.548L261.687 23.756C260.451 24.008 259.227 24.248 258.375 24.38ZM264.687 21.668V23.576C264.687 24.632 264.507 25.652 263.031 26.396C263.187 26.528 263.415 26.816 263.511 26.996C265.203 26.156 265.431 24.92 265.431 23.588V21.668H264.687ZM262.491 20.72L262.587 21.38C263.415 21.32 264.435 21.224 265.479 21.128V20.504C264.339 20.588 263.271 20.672 262.491 20.72ZM262.659 17.984C263.223 18.44 263.823 19.112 264.087 19.58L264.519 19.004C264.267 18.536 263.643 17.912 263.091 17.468L262.659 17.984ZM264.687 19.796C265.023 20.36 265.335 21.092 265.407 21.572L266.019 21.344C265.923 20.864 265.611 20.144 265.251 19.616L264.687 19.796ZM264.171 15.932C263.943 16.556 263.523 17.492 263.187 18.056L263.703 18.272C264.075 17.744 264.543 16.892 264.927 16.184L264.171 15.932ZM265.011 17.384C264.543 18.44 263.727 19.94 263.055 20.84L263.571 21.056C264.243 20.192 265.095 18.764 265.707 17.636L265.011 17.384ZM266.019 20.684L266.139 21.356C266.967 21.284 267.975 21.188 269.007 21.092L268.995 20.468C267.867 20.552 266.799 20.636 266.019 20.684ZM265.971 17.96C266.559 18.428 267.195 19.112 267.471 19.604L267.915 19.004C267.639 18.524 266.991 17.876 266.391 17.42L265.971 17.96ZM268.107 19.784C268.479 20.384 268.827 21.164 268.923 21.668L269.547 21.428C269.439 20.924 269.079 20.156 268.683 19.58L268.107 19.784ZM267.531 15.932C267.303 16.568 266.871 17.492 266.523 18.056L267.075 18.284C267.447 17.756 267.915 16.904 268.299 16.184L267.531 15.932ZM268.407 17.36C267.939 18.404 267.123 19.916 266.451 20.804L266.967 21.044C267.663 20.18 268.515 18.752 269.139 17.624L268.407 17.36ZM275.649 22.544V26.984H276.501V23.336H279.873V26.96H280.749V22.544H275.649ZM276.165 25.592V26.396H280.173V25.592H276.165ZM277.089 15.932C276.621 17.06 275.709 18.464 274.389 19.508C274.569 19.616 274.857 19.904 275.001 20.084C276.417 18.908 277.365 17.408 277.977 16.076L277.089 15.932ZM276.873 17.096L276.477 17.888H280.173V17.096H276.873ZM279.897 17.096V17.264C279.057 19.604 276.921 21.32 274.653 22.172C274.833 22.328 275.109 22.676 275.217 22.892C277.533 21.932 279.765 20.084 280.785 17.372L280.245 17.06L280.089 17.096H279.897ZM276.729 17.936L275.985 18.236C277.113 20.18 279.105 21.872 281.181 22.688C281.313 22.472 281.565 22.136 281.769 21.956C279.729 21.26 277.725 19.676 276.729 17.936ZM272.325 15.932C272.013 16.724 271.461 17.876 271.005 18.56L271.629 18.848C272.097 18.188 272.661 17.12 273.117 16.244L272.325 15.932ZM273.669 17.3C273.033 18.596 271.905 20.42 271.017 21.5L271.569 21.812C272.457 20.756 273.609 19.016 274.425 17.636L273.669 17.3ZM270.429 18.452C271.077 19.028 271.833 19.868 272.157 20.432L272.637 19.748C272.313 19.208 271.557 18.428 270.885 17.864L270.429 18.452ZM273.249 20.084C273.717 20.876 274.173 21.908 274.317 22.568L275.001 22.268C274.833 21.62 274.365 20.6 273.873 19.832L273.249 20.084ZM270.393 21.308L270.465 22.124C271.557 22.052 273.009 21.968 274.449 21.872L274.461 21.128C272.937 21.212 271.437 21.272 270.393 21.308ZM273.561 22.916C273.861 23.612 274.185 24.536 274.293 25.136L274.989 24.896C274.869 24.296 274.545 23.384 274.209 22.712L273.561 22.916ZM271.065 22.784C270.921 23.84 270.681 24.908 270.285 25.64C270.477 25.724 270.837 25.892 270.993 25.988C271.377 25.22 271.677 24.056 271.845 22.928L271.065 22.784ZM272.361 21.644V26.996H273.165V21.644H272.361ZM283.167 16.808C284.007 17.072 285.123 17.504 285.687 17.816L286.083 17.12C285.507 16.82 284.391 16.412 283.563 16.196L283.167 16.808ZM282.567 19.34L282.915 20.132C283.827 19.856 284.955 19.484 286.047 19.136L285.951 18.428C284.703 18.776 283.431 19.136 282.567 19.34ZM287.715 16.808L287.187 17.492H292.539V16.808H287.715ZM292.299 16.808V16.94C292.059 17.444 291.651 18.044 291.267 18.416L291.987 18.668C292.419 18.248 292.863 17.576 293.199 16.952L292.599 16.772L292.443 16.808H292.299ZM289.203 17.048C288.999 18.416 288.351 19.16 286.131 19.532C286.287 19.688 286.479 19.988 286.563 20.18C289.011 19.688 289.779 18.752 290.031 17.048H289.203ZM289.995 17.264L289.263 17.336C289.575 18.596 290.175 19.892 293.019 20.384C293.115 20.156 293.319 19.832 293.487 19.652C290.823 19.268 290.235 18.284 289.995 17.264ZM287.907 15.92C287.595 16.64 286.983 17.468 286.083 18.08C286.299 18.176 286.611 18.368 286.767 18.536C287.703 17.816 288.315 16.928 288.723 16.052L287.907 15.92ZM285.051 22.196H291.099V23.012H285.051V22.196ZM285.051 23.6H291.099V24.44H285.051V23.6ZM285.051 20.792H291.099V21.608H285.051V20.792ZM284.175 20.192V25.04H291.999V20.192H284.175ZM289.011 25.652C290.319 26.084 291.627 26.6 292.383 26.996L293.379 26.54C292.515 26.132 291.063 25.604 289.743 25.196L289.011 25.652ZM286.191 25.172C285.327 25.64 283.887 26.06 282.651 26.324C282.855 26.48 283.167 26.828 283.311 27.008C284.511 26.672 286.035 26.12 287.007 25.544L286.191 25.172ZM296.541 15.968V26.948H297.381V15.968H296.541ZM294.609 19.952V20.804H299.349V19.952H294.609ZM296.409 20.396C296.025 21.8 295.185 23.624 294.417 24.548C294.561 24.788 294.777 25.172 294.873 25.436C295.677 24.344 296.529 22.268 296.949 20.636L296.409 20.396ZM297.357 20.96L296.913 21.332C297.309 21.848 298.293 23.42 298.593 24.068L299.193 23.348C298.917 22.952 297.693 21.32 297.357 20.96ZM294.693 16.856C295.005 17.696 295.281 18.812 295.341 19.532L296.049 19.34C295.965 18.62 295.689 17.528 295.353 16.688L294.693 16.856ZM298.569 16.64C298.401 17.456 298.041 18.656 297.777 19.376L298.353 19.556C298.677 18.884 299.049 17.756 299.361 16.844L298.569 16.64ZM303.225 15.932V26.96H304.077V15.932H303.225ZM299.325 23.564L299.469 24.404L305.637 23.288L305.493 22.46L299.325 23.564ZM300.225 17.396C300.921 17.828 301.749 18.476 302.133 18.944L302.613 18.248C302.217 17.804 301.389 17.192 300.693 16.784L300.225 17.396ZM299.613 20.42C300.333 20.816 301.197 21.428 301.617 21.86L302.073 21.152C301.641 20.72 300.753 20.156 300.033 19.784L299.613 20.42Z" fill="white"/>
</g>
<defs>
<clipPath id="clip0_53_9448">
<rect width="375" height="44" fill="white"/>
</clipPath>
</defs>
</svg>
