<svg width="70" height="70" viewBox="0 0 70 70" fill="none" xmlns="http://www.w3.org/2000/svg">
<g filter="url(#filter0_d_20_2226)">
<circle cx="35" cy="35" r="25" fill="white"/>
<path d="M23.9856 22.9104C24.4034 22.4876 24.9699 22.25 25.5607 22.25C26.1514 22.25 26.718 22.4876 27.1358 22.9104L35.0134 30.8866L42.8911 22.9104C43.3113 22.4995 43.874 22.2722 44.4582 22.2773C45.0423 22.2825 45.6011 22.5197 46.0141 22.9379C46.4272 23.3561 46.6615 23.9219 46.6666 24.5133C46.6716 25.1048 46.4471 25.6746 46.0413 26.1L38.1636 34.0761L46.0413 42.0523C46.4471 42.4777 46.6716 43.0475 46.6666 43.6389C46.6615 44.2303 46.4272 44.7961 46.0141 45.2143C45.6011 45.6325 45.0423 45.8698 44.4582 45.8749C43.874 45.8801 43.3113 45.6527 42.8911 45.2418L35.0134 37.2657L27.1358 45.2418C26.7156 45.6527 26.1528 45.8801 25.5687 45.8749C24.9846 45.8698 24.4258 45.6325 24.0127 45.2143C23.5997 44.7961 23.3654 44.2303 23.3603 43.6389C23.3552 43.0475 23.5798 42.4777 23.9856 42.0523L31.8633 34.0761L23.9856 26.1C23.5679 25.677 23.3333 25.1033 23.3333 24.5052C23.3333 23.9071 23.5679 23.3334 23.9856 22.9104Z" fill="#6F7387"/>
</g>
<defs>
<filter id="filter0_d_20_2226" x="0" y="0" width="70" height="70" filterUnits="userSpaceOnUse" color-interpolation-filters="sRGB">
<feFlood flood-opacity="0" result="BackgroundImageFix"/>
<feColorMatrix in="SourceAlpha" type="matrix" values="0 0 0 0 0 0 0 0 0 0 0 0 0 0 0 0 0 0 127 0" result="hardAlpha"/>
<feOffset/>
<feGaussianBlur stdDeviation="5"/>
<feComposite in2="hardAlpha" operator="out"/>
<feColorMatrix type="matrix" values="0 0 0 0 0 0 0 0 0 0 0 0 0 0 0 0 0 0 0.25 0"/>
<feBlend mode="normal" in2="BackgroundImageFix" result="effect1_dropShadow_20_2226"/>
<feBlend mode="normal" in="SourceGraphic" in2="effect1_dropShadow_20_2226" result="shape"/>
</filter>
</defs>
</svg>
