<svg width="50" height="50" viewBox="0 0 50 50" fill="none" xmlns="http://www.w3.org/2000/svg">
<circle cx="25" cy="25" r="25" fill="white"/>
<path d="M8 28.6674C7.99986 27.9033 8.16421 27.1468 8.48346 26.4422C8.80271 25.7376 9.27045 25.0989 9.85934 24.5636C10.4482 24.0283 11.1464 23.607 11.9132 23.3244C12.68 23.0418 13.4999 22.9035 14.325 22.9177C15.3013 22.9129 16.2676 23.1002 17.1597 23.4674C18.0519 23.8345 18.8496 24.373 19.5 25.0472C20.1504 24.373 20.9481 23.8345 21.8403 23.4674C22.7324 23.1002 23.6987 22.9129 24.675 22.9177C25.5001 22.9035 26.32 23.0418 27.0868 23.3244C27.8536 23.607 28.5518 24.0283 29.1407 24.5636C29.7296 25.0989 30.1973 25.7376 30.5165 26.4422C30.8358 27.1468 31.0001 27.9033 31 28.6674C31 34.3702 23.6641 38.6761 19.5 42.0834C15.345 38.6474 8 34.3745 8 28.6674Z" fill="#FF4E84"/>
<path d="M24 14.6672C23.9999 14.1024 24.1214 13.5433 24.3573 13.0225C24.5933 12.5017 24.939 12.0297 25.3743 11.634C25.8096 11.2383 26.3256 10.9269 26.8924 10.718C27.4591 10.5092 28.0651 10.407 28.675 10.4174C29.3966 10.4139 30.1108 10.5524 30.7702 10.8237C31.4297 11.0951 32.0193 11.4931 32.5 11.9914C32.9807 11.4931 33.5703 11.0951 34.2298 10.8237C34.8892 10.5524 35.6034 10.4139 36.325 10.4174C36.9349 10.407 37.5409 10.5092 38.1076 10.718C38.6744 10.9269 39.1904 11.2383 39.6257 11.634C40.061 12.0297 40.4067 12.5017 40.6427 13.0225C40.8786 13.5433 41.0001 14.1024 41 14.6672C41 18.8823 35.5779 22.065 32.5 24.5834C29.429 22.0437 24 18.8855 24 14.6672Z" fill="#FF4E84"/>
</svg>
