<svg width="70" height="70" viewBox="0 0 70 70" fill="none" xmlns="http://www.w3.org/2000/svg">
<g filter="url(#filter0_d_20_2217)">
<circle cx="35" cy="35" r="25" fill="white"/>
<path d="M20 32.0009C19.9998 31.0042 20.2142 30.0175 20.6306 29.0985C21.047 28.1794 21.6571 27.3464 22.4252 26.6482C23.1933 25.9499 24.1041 25.4004 25.1042 25.0318C26.1043 24.6632 27.1737 24.4828 28.25 24.5013C29.5234 24.495 30.7838 24.7394 31.9475 25.2183C33.1112 25.6972 34.1517 26.3996 35 27.2789C35.8483 26.3996 36.8888 25.6972 38.0525 25.2183C39.2162 24.7394 40.4766 24.495 41.75 24.5013C42.8263 24.4828 43.8957 24.6632 44.8958 25.0318C45.8959 25.4004 46.8067 25.9499 47.5748 26.6482C48.3429 27.3464 48.953 28.1794 49.3694 29.0985C49.7858 30.0175 50.0002 31.0042 50 32.0009C50 39.4394 40.4315 45.0558 35 49.5C29.5805 45.0183 20 39.445 20 32.0009Z" fill="#FF4E84"/>
</g>
<defs>
<filter id="filter0_d_20_2217" x="0" y="0" width="70" height="70" filterUnits="userSpaceOnUse" color-interpolation-filters="sRGB">
<feFlood flood-opacity="0" result="BackgroundImageFix"/>
<feColorMatrix in="SourceAlpha" type="matrix" values="0 0 0 0 0 0 0 0 0 0 0 0 0 0 0 0 0 0 127 0" result="hardAlpha"/>
<feOffset/>
<feGaussianBlur stdDeviation="5"/>
<feComposite in2="hardAlpha" operator="out"/>
<feColorMatrix type="matrix" values="0 0 0 0 0 0 0 0 0 0 0 0 0 0 0 0 0 0 0.25 0"/>
<feBlend mode="normal" in2="BackgroundImageFix" result="effect1_dropShadow_20_2217"/>
<feBlend mode="normal" in="SourceGraphic" in2="effect1_dropShadow_20_2217" result="shape"/>
</filter>
</defs>
</svg>
