<svg width="70" height="70" viewBox="0 0 70 70" fill="none" xmlns="http://www.w3.org/2000/svg">
<g filter="url(#filter0_d_39_4504)">
<circle cx="35" cy="35" r="25" fill="white"/>
<path d="M44.3251 23.8333H25.4665C24.2823 23.8345 23.147 24.2756 22.3097 25.0597C21.4723 25.8439 21.0013 26.907 21 28.016V39.1697C21.0013 40.2786 21.4723 41.3418 22.3097 42.1259C23.147 42.91 24.2823 43.3511 25.4665 43.3523H26.9554V47.0702C26.9553 47.247 27.0091 47.4201 27.1103 47.5692C27.2116 47.7183 27.3561 47.8373 27.5271 47.9123C27.698 47.9872 27.8882 48.015 28.0753 47.9923C28.2625 47.9696 28.4389 47.8974 28.5838 47.7842L34.2594 43.3523H44.3251C45.5093 43.3511 46.6447 42.91 47.482 42.1259C48.3194 41.3418 48.7904 40.2786 48.7917 39.1697V28.016C48.7904 26.907 48.3194 25.8439 47.482 25.0597C46.6447 24.2756 45.5093 23.8345 44.3251 23.8333ZM28.9405 35.4518C28.5479 35.4518 28.1641 35.3428 27.8376 35.1385C27.5112 34.9342 27.2567 34.6439 27.1065 34.3042C26.9562 33.9645 26.9169 33.5908 26.9935 33.2302C27.0701 32.8696 27.2592 32.5383 27.5368 32.2783C27.8144 32.0184 28.1681 31.8413 28.5532 31.7696C28.9383 31.6979 29.3374 31.7347 29.7001 31.8754C30.0629 32.0161 30.3729 32.2543 30.591 32.56C30.8092 32.8658 30.9256 33.2252 30.9256 33.5928C30.9256 34.0859 30.7164 34.5587 30.3442 34.9073C29.9719 35.2559 29.467 35.4518 28.9405 35.4518ZM34.8958 35.4518C34.5032 35.4518 34.1194 35.3428 33.793 35.1385C33.4665 34.9342 33.2121 34.6439 33.0618 34.3042C32.9116 33.9645 32.8723 33.5908 32.9489 33.2302C33.0255 32.8696 33.2145 32.5383 33.4921 32.2783C33.7698 32.0184 34.1235 31.8413 34.5086 31.7696C34.8936 31.6979 35.2928 31.7347 35.6555 31.8754C36.0182 32.0161 36.3283 32.2543 36.5464 32.56C36.7645 32.8658 36.881 33.2252 36.881 33.5928C36.881 34.0859 36.6718 34.5587 36.2995 34.9073C35.9272 35.2559 35.4223 35.4518 34.8958 35.4518ZM40.8512 35.4518C40.4586 35.4518 40.0748 35.3428 39.7483 35.1385C39.4219 34.9342 39.1674 34.6439 39.0172 34.3042C38.8669 33.9645 38.8276 33.5908 38.9042 33.2302C38.9808 32.8696 39.1699 32.5383 39.4475 32.2783C39.7251 32.0184 40.0788 31.8413 40.4639 31.7696C40.849 31.6979 41.2481 31.7347 41.6109 31.8754C41.9736 32.0161 42.2836 32.2543 42.5018 32.56C42.7199 32.8658 42.8363 33.2252 42.8363 33.5928C42.8363 34.0859 42.6272 34.5587 42.2549 34.9073C41.8826 35.2559 41.3777 35.4518 40.8512 35.4518Z" fill="#0ACF83"/>
</g>
<defs>
<filter id="filter0_d_39_4504" x="0" y="0" width="70" height="70" filterUnits="userSpaceOnUse" color-interpolation-filters="sRGB">
<feFlood flood-opacity="0" result="BackgroundImageFix"/>
<feColorMatrix in="SourceAlpha" type="matrix" values="0 0 0 0 0 0 0 0 0 0 0 0 0 0 0 0 0 0 127 0" result="hardAlpha"/>
<feOffset/>
<feGaussianBlur stdDeviation="5"/>
<feComposite in2="hardAlpha" operator="out"/>
<feColorMatrix type="matrix" values="0 0 0 0 0 0 0 0 0 0 0 0 0 0 0 0 0 0 0.25 0"/>
<feBlend mode="normal" in2="BackgroundImageFix" result="effect1_dropShadow_39_4504"/>
<feBlend mode="normal" in="SourceGraphic" in2="effect1_dropShadow_39_4504" result="shape"/>
</filter>
</defs>
</svg>
