<svg width="70" height="70" viewBox="0 0 70 70" fill="none" xmlns="http://www.w3.org/2000/svg">
<g filter="url(#filter0_d_55_90206)">
<circle cx="35" cy="35" r="25" fill="white"/>
<g clip-path="url(#clip0_55_90206)">
<path d="M49.0304 30.8596L40.037 29.5821L36.0167 21.6162C35.9069 21.3981 35.7262 21.2216 35.5031 21.1143C34.9434 20.8442 34.2633 21.0693 33.9835 21.6162L29.9632 29.5821L20.9698 30.8596C20.7218 30.8942 20.4951 31.0085 20.3216 31.1816C20.1117 31.3923 19.9961 31.6759 20.0001 31.97C20.0041 32.264 20.1274 32.5445 20.3428 32.7498L26.8497 38.9501L25.3124 47.7054C25.2764 47.909 25.2994 48.1185 25.379 48.31C25.4585 48.5015 25.5914 48.6674 25.7625 48.7889C25.9336 48.9103 26.1361 48.9825 26.3471 48.9972C26.558 49.0119 26.7689 48.9685 26.9559 48.872L35.0001 44.7385L43.0442 48.872C43.2638 48.9863 43.5188 49.0244 43.7633 48.9828C44.3796 48.879 44.794 48.3077 44.6877 47.7054L43.1505 38.9501L49.6573 32.7498C49.8344 32.5802 49.9513 32.3586 49.9867 32.1163C50.0824 31.5104 49.6502 30.9496 49.0304 30.8596Z" fill="#FFD809"/>
</g>
</g>
<defs>
<filter id="filter0_d_55_90206" x="0" y="0" width="70" height="70" filterUnits="userSpaceOnUse" color-interpolation-filters="sRGB">
<feFlood flood-opacity="0" result="BackgroundImageFix"/>
<feColorMatrix in="SourceAlpha" type="matrix" values="0 0 0 0 0 0 0 0 0 0 0 0 0 0 0 0 0 0 127 0" result="hardAlpha"/>
<feOffset/>
<feGaussianBlur stdDeviation="5"/>
<feComposite in2="hardAlpha" operator="out"/>
<feColorMatrix type="matrix" values="0 0 0 0 0 0 0 0 0 0 0 0 0 0 0 0 0 0 0.25 0"/>
<feBlend mode="normal" in2="BackgroundImageFix" result="effect1_dropShadow_55_90206"/>
<feBlend mode="normal" in="SourceGraphic" in2="effect1_dropShadow_55_90206" result="shape"/>
</filter>
<clipPath id="clip0_55_90206">
<rect width="30" height="30" fill="white" transform="translate(20 20)"/>
</clipPath>
</defs>
</svg>
