<svg width="70" height="70" viewBox="0 0 70 70" fill="none" xmlns="http://www.w3.org/2000/svg">
<g filter="url(#filter0_d_20_4002)">
<circle cx="35" cy="35" r="25" fill="white"/>
<path d="M45.5974 25.5732C45.7698 25.4049 45.9756 25.2712 46.2027 25.18C46.4298 25.0887 46.6737 25.0417 46.92 25.0417C47.1664 25.0417 47.4102 25.0887 47.6373 25.18C47.8645 25.2712 48.0703 25.4049 48.2427 25.5732C48.9653 26.2717 48.9754 27.4004 48.268 28.1109L33.3284 45.0046C33.1587 45.1828 32.9529 45.326 32.7234 45.4254C32.494 45.5249 32.2457 45.5785 31.9938 45.583C31.742 45.5876 31.4918 45.5429 31.2586 45.4517C31.0254 45.3606 30.8141 45.2249 30.6376 45.0529L21.547 36.2411C21.1964 35.8991 21 35.4392 21 34.9602C21 34.4812 21.1964 34.0213 21.547 33.6793C21.7194 33.511 21.9252 33.3773 22.1523 33.286C22.3794 33.1948 22.6233 33.1478 22.8696 33.1478C23.116 33.1478 23.3598 33.1948 23.587 33.286C23.8141 33.3773 24.0199 33.511 24.1923 33.6793L31.9034 41.1546L45.5468 25.6264C45.5625 25.6077 45.5794 25.59 45.5974 25.5732Z" fill="#0ACF83"/>
</g>
<defs>
<filter id="filter0_d_20_4002" x="0" y="0" width="70" height="70" filterUnits="userSpaceOnUse" color-interpolation-filters="sRGB">
<feFlood flood-opacity="0" result="BackgroundImageFix"/>
<feColorMatrix in="SourceAlpha" type="matrix" values="0 0 0 0 0 0 0 0 0 0 0 0 0 0 0 0 0 0 127 0" result="hardAlpha"/>
<feOffset/>
<feGaussianBlur stdDeviation="5"/>
<feComposite in2="hardAlpha" operator="out"/>
<feColorMatrix type="matrix" values="0 0 0 0 0 0 0 0 0 0 0 0 0 0 0 0 0 0 0.25 0"/>
<feBlend mode="normal" in2="BackgroundImageFix" result="effect1_dropShadow_20_4002"/>
<feBlend mode="normal" in="SourceGraphic" in2="effect1_dropShadow_20_4002" result="shape"/>
</filter>
</defs>
</svg>
