<svg width="375" height="50" viewBox="0 0 375 50" fill="none" xmlns="http://www.w3.org/2000/svg">
<rect width="375" height="50" fill="#383A44"/>
<path d="M354.143 15.857L341.571 15.857M339.286 15.857L335.857 15.857M354.143 27.2856L341.571 27.2856M339.286 27.2856L335.857 27.2856M348.429 21.5713L335.857 21.5713M354.143 21.5713L350.714 21.5713M340.429 13.5713C340.732 13.5713 341.022 13.6917 341.237 13.906C341.451 14.1204 341.571 14.411 341.571 14.7141L341.571 16.9999C341.571 17.303 341.451 17.5937 341.237 17.808C341.022 18.0223 340.732 18.1427 340.429 18.1427C340.125 18.1427 339.835 18.0223 339.62 17.808C339.406 17.5937 339.286 17.303 339.286 16.9999L339.286 14.7141C339.286 14.411 339.406 14.1204 339.62 13.906C339.835 13.6917 340.125 13.5713 340.429 13.5713ZM340.429 24.9999C340.732 24.9999 341.022 25.1203 341.237 25.3346C341.451 25.5489 341.571 25.8396 341.571 26.1427L341.571 28.4284C341.571 28.7315 341.451 29.0222 341.237 29.2366C341.022 29.4509 340.732 29.5713 340.429 29.5713C340.125 29.5713 339.835 29.4509 339.62 29.2366C339.406 29.0222 339.286 28.7315 339.286 28.4284L339.286 26.1427C339.286 25.8396 339.406 25.5489 339.62 25.3346C339.835 25.1203 340.125 24.9999 340.429 24.9999ZM349.571 19.2856C349.874 19.2856 350.165 19.406 350.38 19.6203C350.594 19.8346 350.714 20.1253 350.714 20.4284L350.714 22.7141C350.714 23.0173 350.594 23.3079 350.38 23.5223C350.165 23.7366 349.874 23.857 349.571 23.857C349.268 23.857 348.978 23.7366 348.763 23.5223C348.549 23.3079 348.429 23.0173 348.429 22.7141L348.429 20.4284C348.429 20.1253 348.549 19.8346 348.763 19.6203C348.978 19.406 349.268 19.2856 349.571 19.2856Z" stroke="#A8ABBD" stroke-width="2" stroke-linecap="round" stroke-linejoin="round"/>
<path d="M20.397 25.9734H18L26.5608 11.3065C26.59 11.2572 26.6615 11.2543 26.6936 11.302L31.3489 18.2282C31.3708 18.2611 31.362 18.3043 31.3285 18.3252L29.6653 19.3963C29.6318 19.4172 29.588 19.4082 29.5661 19.3769L26.8132 15.2805C26.784 15.2373 26.7184 15.2388 26.6921 15.2835L20.4597 25.9376C20.4466 25.96 20.4232 25.9734 20.397 25.9734Z" fill="url(#paint0_linear_2140_33823)"/>
<path d="M27.3648 33.6844C26.8483 33.6844 26.3319 33.5904 25.8446 33.401C24.5272 32.8878 23.6752 31.8003 23.5075 30.4145C23.3455 29.0808 23.6796 27.6965 24.447 26.5165L34.3471 11.2871C34.3806 11.2364 34.4579 11.2379 34.4886 11.2901L43.0844 25.8691C43.1121 25.9153 43.0771 25.975 43.0216 25.9735L40.6509 25.9451C40.6261 25.9451 40.6028 25.9317 40.5897 25.9093L34.3835 15.3104C34.3573 15.2642 34.2902 15.2627 34.261 15.3074L26.2458 27.6368C25.741 28.4125 25.5207 29.312 25.6258 30.1683C25.6783 30.5994 25.8957 31.1738 26.6324 31.4602C27.2203 31.6884 27.9002 31.6273 28.4502 31.2946C28.6574 31.1693 28.7507 31.0887 28.936 30.9276C29.2059 30.6934 29.5735 30.3757 30.4343 29.7834C30.4664 29.7611 30.5131 29.7685 30.535 29.7999L31.7167 31.4527C30.9128 32.0047 30.586 32.2866 30.3482 32.4925C30.1352 32.6775 29.9324 32.852 29.5706 33.0713C28.901 33.477 28.1336 33.6844 27.3648 33.6844Z" fill="url(#paint1_linear_2140_33823)"/>
<path fill-rule="evenodd" clip-rule="evenodd" d="M31.8886 21.4579C31.8448 21.4475 31.801 21.4773 31.7981 21.5206L31.6566 23.3599L31.5195 25.1351C31.5151 25.1948 31.5822 25.2321 31.6318 25.1977L32.6296 24.5072L34.7059 27.7026C34.767 27.7964 34.8283 27.8869 34.8884 27.9758C35.3249 28.6208 35.7015 29.1773 35.5258 30.2997C35.4587 30.7293 35.0575 31.2395 34.3193 31.5259C33.7314 31.7542 33.0515 31.693 32.5015 31.3603L32.4374 31.3216C31.8713 30.9799 31.1404 30.3832 30.5437 29.4777C30.5189 29.4405 30.4664 29.433 30.4343 29.4643L28.9725 30.8964C29.7962 32.1867 30.5479 32.6375 31.209 33.034C31.2457 33.056 31.2822 33.0779 31.3184 33.0997L31.3811 33.137C32.0522 33.5428 32.8196 33.7501 33.5884 33.7501C34.1034 33.7501 34.6213 33.6562 35.1086 33.4652C36.426 32.952 37.4968 31.8332 37.6602 30.4474C37.8677 28.6743 37.3039 27.8074 36.5652 26.6714C36.5456 26.6414 36.526 26.6112 36.5062 26.5808L34.3743 23.2999L35.4862 22.5305C35.5358 22.4962 35.5227 22.4201 35.4643 22.4052L33.7078 21.9397L31.8886 21.4579Z" fill="url(#paint2_linear_2140_33823)"/>
<rect x="100" width="180" height="45" rx="22.5" fill="#4A4D5A"/>
<rect x="104" y="4" width="86" height="37" rx="18.5" fill="#383A44"/>
<path d="M120.505 15.625V27H118.544V15.625H120.505ZM132.286 15.625V27H130.325L125.223 18.8516V27H123.262V15.625H125.223L130.34 23.7891V15.625H132.286ZM135.738 15.625H137.488L140.778 24.3984L144.059 15.625H145.809L141.465 27H140.074L135.738 15.625ZM134.942 15.625H136.606L136.895 23.2188V27H134.942V15.625ZM144.942 15.625H146.613V27H144.653V23.2188L144.942 15.625ZM156.707 25.4453V27H150.668V25.4453H156.707ZM151.222 15.625V27H149.262V15.625H151.222ZM155.918 20.375V21.9062H150.668V20.375H155.918ZM156.668 15.625V17.1875H150.668V15.625H156.668ZM166.074 25.4453V27H160.035V25.4453H166.074ZM160.589 15.625V27H158.628V15.625H160.589ZM165.285 20.375V21.9062H160.035V20.375H165.285ZM166.035 15.625V17.1875H160.035V15.625H166.035ZM172.831 15.625V27H170.886V15.625H172.831ZM176.402 15.625V17.1875H167.347V15.625H176.402Z" fill="#FF4E84"/>
<rect x="190" y="4" width="86" height="37" rx="18.5" fill="#4A4D5A"/>
<path d="M201.652 16.76V17.944H214.372V16.76H201.652ZM202.388 21.464V22.632H213.7V21.464H202.388ZM200.916 26.568V27.752H215.172V26.568H200.916ZM207.364 17.704V27.176H208.66V17.704H207.364ZM205.988 14.296C207.044 15.08 208.308 16.216 208.884 16.968L209.924 16.216C209.3 15.448 208.004 14.36 206.964 13.624L205.988 14.296ZM219.092 17.16H222.212V18.376H219.092V17.16ZM219.092 15.112H222.212V16.312H219.092V15.112ZM218.02 14.248V19.272H223.332V14.248H218.02ZM217.06 20.456V21.384H224.276V20.456H217.06ZM224.18 14.36V15.256H231.476V14.36H224.18ZM220.26 20.744V26.2L221.284 26.84V20.744H220.26ZM220.804 23.112V24.024H224.004V23.112H220.804ZM227.348 14.584C227.204 15.272 226.932 16.264 226.676 16.92L227.572 17.128C227.86 16.536 228.18 15.624 228.484 14.808L227.348 14.584ZM225.892 19.432H229.716V20.632H225.892V19.432ZM225.892 21.464H229.716V22.696H225.892V21.464ZM225.892 17.384H229.716V18.568H225.892V17.384ZM224.804 16.504V23.576H230.836V16.504H224.804ZM226.132 23.864C225.524 24.6 224.484 25.32 223.492 25.784C223.716 25.96 224.116 26.344 224.292 26.52C225.284 25.976 226.452 25.064 227.156 24.168L226.132 23.864ZM218.18 22.264C218.1 24.232 217.844 26.392 216.868 27.56C217.124 27.736 217.476 28.088 217.636 28.328C218.772 26.968 219.092 24.568 219.188 22.264H218.18ZM218.932 23.832L218.18 24.104C219.508 27.416 222.084 27.944 226.164 27.944H231.364C231.428 27.624 231.62 27.16 231.796 26.904C230.852 26.936 226.884 26.936 226.164 26.936C222.564 26.936 220.068 26.584 218.932 23.832ZM228.372 24.296C229.236 24.888 230.308 25.816 230.82 26.456L231.7 25.896C231.172 25.288 230.116 24.392 229.188 23.832L228.372 24.296ZM242.116 19.32V20.472H246.932V19.32H242.116ZM241.572 19.32V26.264C241.572 27.752 242.02 28.12 243.492 28.12C243.812 28.12 245.844 28.12 246.18 28.12C247.652 28.12 247.988 27.384 248.148 24.776C247.812 24.696 247.3 24.488 247.028 24.264C246.948 26.568 246.82 26.984 246.116 26.984C245.652 26.984 243.956 26.984 243.62 26.984C242.884 26.984 242.756 26.872 242.756 26.264V19.32H241.572ZM241.508 14.296V15.448H246.372V21.56H247.54V14.296H241.508ZM233.956 17.128V28.216H234.932V18.152H239.38V28.008H240.372V17.128H233.956ZM234.452 23.576V24.472H239.844V23.576H234.452ZM234.452 26.152V27.128H239.844V26.152H234.452ZM233.572 14.184V15.272H240.724V14.184H233.572ZM235.876 14.488V17.864H236.74V14.488H235.876ZM237.668 14.488V17.864H238.548V14.488H237.668ZM236.036 17.848V19.416C236.036 20.28 235.876 21.336 234.932 22.152C235.092 22.232 235.364 22.472 235.476 22.616C236.468 21.704 236.708 20.424 236.708 19.432V17.848H236.036ZM237.588 17.848V21.176C237.588 21.96 237.78 22.104 238.42 22.104C238.548 22.104 239.092 22.104 239.204 22.104C239.652 22.104 239.876 21.96 239.956 21.624C239.748 21.56 239.476 21.48 239.316 21.352C239.3 21.4 239.252 21.4 239.076 21.4C238.98 21.4 238.564 21.4 238.484 21.4C238.308 21.4 238.276 21.368 238.276 21.176V17.848H237.588ZM257.7 17.88V19H264.34V17.88H257.7ZM249.652 16.968V17.992H257.876V16.968H249.652ZM250.228 20.472V21.48H257.284V20.472H250.228ZM250.66 23.112V24.12H256.964V23.112H250.66ZM261.476 13.672V26.808C261.476 27.08 261.364 27.176 261.092 27.176C260.836 27.192 259.956 27.192 258.996 27.16C259.156 27.48 259.364 27.992 259.428 28.296C260.724 28.312 261.508 28.28 261.988 28.072C262.436 27.88 262.628 27.544 262.628 26.808V13.672H261.476ZM258.212 20.616C258.852 21.8 259.46 23.336 259.62 24.296L260.692 23.912C260.532 22.936 259.908 21.432 259.22 20.264L258.212 20.616ZM249.812 14.408C250.308 15.176 250.772 16.2 250.932 16.872L251.86 16.44C251.684 15.784 251.204 14.792 250.676 14.04L249.812 14.408ZM250.98 18.344C251.364 19.016 251.716 19.944 251.812 20.52L252.82 20.152C252.708 19.576 252.34 18.696 251.94 18.024L250.98 18.344ZM252.164 13.64V17.464H253.14V13.64H252.164ZM253.188 20.792V26.568H254.324V20.792H253.188ZM254.372 13.64V17.464H255.364V13.64H254.372ZM249.7 26.456L249.876 27.592C251.924 27.304 254.932 26.904 257.748 26.488L257.716 25.432C254.788 25.832 251.7 26.216 249.7 26.456ZM256.884 13.944C256.612 14.712 256.052 15.848 255.62 16.52L256.452 16.888C256.9 16.232 257.476 15.224 257.956 14.36L256.884 13.944ZM255.524 17.992C255.332 18.648 254.932 19.624 254.612 20.216L255.572 20.488C255.892 19.928 256.292 19.08 256.628 18.296L255.524 17.992Z" fill="#6F7387"/>
<defs>
<linearGradient id="paint0_linear_2140_33823" x1="24.6805" y1="11.2678" x2="24.6805" y2="25.9734" gradientUnits="userSpaceOnUse">
<stop stop-color="#FF4E84"/>
<stop offset="1" stop-color="#E134EE"/>
</linearGradient>
<linearGradient id="paint1_linear_2140_33823" x1="33.2808" y1="11.25" x2="33.2808" y2="33.6844" gradientUnits="userSpaceOnUse">
<stop stop-color="#FF4E84"/>
<stop offset="1" stop-color="#E134EE"/>
</linearGradient>
<linearGradient id="paint2_linear_2140_33823" x1="33.5183" y1="21.4558" x2="33.5183" y2="25.2109" gradientUnits="userSpaceOnUse">
<stop stop-color="#FF4E84"/>
<stop offset="1" stop-color="#E134EE"/>
</linearGradient>
</defs>
</svg>
