<svg width="375" height="50" viewBox="0 0 375 50" fill="none" xmlns="http://www.w3.org/2000/svg">
<rect width="375" height="50" fill="#383A44"/>
<path d="M348.617 12.3987C347.48 11.92 346.256 11.6719 345 11.6719C342.509 11.6719 340.165 12.6428 338.404 14.404C336.643 16.1652 335.672 18.5093 335.672 21C335.672 23.4907 336.643 25.8348 338.404 27.596C340.165 29.3572 342.509 30.3281 345 30.3281C347.491 30.3281 349.835 29.3572 351.596 27.596C353.357 25.8348 354.328 23.4907 354.328 21C354.328 19.488 353.958 18.004 353.266 16.6791C353.313 16.6449 353.359 16.6095 353.404 16.5729C354.118 17.9294 354.5 19.4509 354.5 21C354.5 23.5385 353.512 25.9225 351.718 27.7175C351.718 27.7175 351.718 27.7175 351.718 27.7175L348.617 12.3987ZM338.282 27.7175C336.488 25.9225 335.5 23.5385 335.5 21C335.5 18.4615 336.488 16.0775 338.282 14.2825C338.282 14.2825 338.282 14.2825 338.282 14.2825L338.282 27.7175Z" fill="#A8ABBD" stroke="#A8ABBD"/>
<path d="M345 15.2092C342.82 15.2092 340.873 16.4205 339.887 18.2774C340.309 18.2915 340.707 18.4017 341.06 18.5873C341.881 17.2434 343.357 16.3811 345 16.3811C347.547 16.3811 349.619 18.4531 349.619 21C349.619 23.5468 347.547 25.6188 345 25.6188C343.356 25.6188 341.881 24.7568 341.059 23.4128C340.707 23.5983 340.309 23.7085 339.886 23.7225C340.873 25.5797 342.818 26.7907 345 26.7907C348.193 26.7907 350.791 24.193 350.791 21C350.791 17.807 348.193 15.2092 345 15.2092Z" fill="#A8ABBD"/>
<path d="M345 23.3102C346.276 23.3102 347.31 22.2758 347.31 20.9999C347.31 19.724 346.276 18.6897 345 18.6897C343.724 18.6897 342.69 19.724 342.69 20.9999C342.69 22.2758 343.724 23.3102 345 23.3102Z" fill="#A8ABBD"/>
<path d="M339.795 22.5921C340.674 22.5921 341.387 21.8793 341.387 21C341.387 20.1208 340.674 19.408 339.795 19.408C338.916 19.408 338.203 20.1208 338.203 21C338.203 21.8793 338.916 22.5921 339.795 22.5921Z" fill="#A8ABBD"/>
<path d="M351.373 15.6631C352.252 15.6631 352.965 14.9504 352.965 14.0711C352.965 13.1918 352.252 12.479 351.373 12.479C350.493 12.479 349.781 13.1918 349.781 14.0711C349.781 14.9504 350.493 15.6631 351.373 15.6631Z" fill="#A8ABBD"/>
<path d="M20.397 25.9734H18L26.5608 11.3065C26.59 11.2572 26.6615 11.2543 26.6936 11.302L31.3489 18.2282C31.3708 18.2611 31.362 18.3043 31.3285 18.3252L29.6653 19.3963C29.6318 19.4172 29.588 19.4082 29.5661 19.3769L26.8132 15.2805C26.784 15.2373 26.7184 15.2388 26.6921 15.2835L20.4597 25.9376C20.4466 25.96 20.4232 25.9734 20.397 25.9734Z" fill="url(#paint0_linear_2140_34687)"/>
<path d="M27.3648 33.6844C26.8483 33.6844 26.3319 33.5904 25.8446 33.401C24.5272 32.8878 23.6752 31.8003 23.5075 30.4145C23.3455 29.0808 23.6796 27.6965 24.447 26.5165L34.3471 11.2871C34.3806 11.2364 34.4579 11.2379 34.4886 11.2901L43.0844 25.8691C43.1121 25.9153 43.0771 25.975 43.0216 25.9735L40.6509 25.9451C40.6261 25.9451 40.6028 25.9317 40.5897 25.9093L34.3835 15.3104C34.3573 15.2642 34.2902 15.2627 34.261 15.3074L26.2458 27.6368C25.741 28.4125 25.5207 29.312 25.6258 30.1683C25.6783 30.5994 25.8957 31.1738 26.6324 31.4602C27.2203 31.6884 27.9002 31.6273 28.4502 31.2946C28.6574 31.1693 28.7507 31.0887 28.936 30.9276C29.2059 30.6934 29.5735 30.3757 30.4343 29.7834C30.4664 29.7611 30.5131 29.7685 30.535 29.7999L31.7167 31.4527C30.9128 32.0047 30.586 32.2866 30.3482 32.4925C30.1352 32.6775 29.9324 32.852 29.5706 33.0713C28.901 33.477 28.1336 33.6844 27.3648 33.6844Z" fill="url(#paint1_linear_2140_34687)"/>
<path fill-rule="evenodd" clip-rule="evenodd" d="M31.8886 21.4579C31.8448 21.4475 31.801 21.4773 31.7981 21.5206L31.6566 23.3599L31.5195 25.1351C31.5151 25.1948 31.5822 25.2321 31.6318 25.1977L32.6296 24.5072L34.7059 27.7026C34.767 27.7964 34.8283 27.8869 34.8884 27.9758C35.3249 28.6208 35.7015 29.1773 35.5258 30.2997C35.4587 30.7293 35.0575 31.2395 34.3193 31.5259C33.7314 31.7542 33.0515 31.693 32.5015 31.3603L32.4374 31.3216C31.8713 30.9799 31.1404 30.3832 30.5437 29.4777C30.5189 29.4405 30.4664 29.433 30.4343 29.4643L28.9725 30.8964C29.7962 32.1867 30.5479 32.6375 31.209 33.034C31.2457 33.056 31.2822 33.0779 31.3184 33.0997L31.3811 33.137C32.0522 33.5428 32.8196 33.7501 33.5884 33.7501C34.1034 33.7501 34.6213 33.6562 35.1086 33.4652C36.426 32.952 37.4968 31.8332 37.6602 30.4474C37.8677 28.6743 37.3039 27.8074 36.5652 26.6714C36.5456 26.6414 36.526 26.6112 36.5062 26.5808L34.3743 23.2999L35.4862 22.5305C35.5358 22.4962 35.5227 22.4201 35.4643 22.4052L33.7078 21.9397L31.8886 21.4579Z" fill="url(#paint2_linear_2140_34687)"/>
<rect x="100" width="180" height="45" rx="22.5" fill="#4A4D5A"/>
<rect x="104" y="4" width="86" height="37" rx="18.5" fill="#383A44"/>
<path d="M121.419 15.625H123.169L126.458 24.3984L129.739 15.625H131.489L127.145 27H125.755L121.419 15.625ZM120.622 15.625H122.286L122.575 23.2188V27H120.622V15.625ZM130.622 15.625H132.294V27H130.333V23.2188L130.622 15.625ZM138.481 27.1562C137.856 27.1562 137.291 27.0547 136.786 26.8516C136.286 26.6432 135.859 26.3542 135.504 25.9844C135.155 25.6146 134.887 25.1797 134.7 24.6797C134.512 24.1797 134.418 23.6406 134.418 23.0625V22.75C134.418 22.0885 134.515 21.4896 134.708 20.9531C134.9 20.4167 135.168 19.9583 135.512 19.5781C135.856 19.1927 136.262 18.8984 136.731 18.6953C137.2 18.4922 137.708 18.3906 138.254 18.3906C138.859 18.3906 139.387 18.4922 139.84 18.6953C140.293 18.8984 140.668 19.1849 140.965 19.5547C141.267 19.9193 141.491 20.3542 141.637 20.8594C141.788 21.3646 141.864 21.9219 141.864 22.5312V23.3359H135.333V21.9844H140.004V21.8359C139.994 21.4974 139.926 21.1797 139.801 20.8828C139.681 20.5859 139.497 20.3464 139.247 20.1641C138.997 19.9818 138.663 19.8906 138.247 19.8906C137.934 19.8906 137.655 19.9583 137.411 20.0938C137.171 20.224 136.971 20.4141 136.809 20.6641C136.648 20.9141 136.523 21.2161 136.434 21.5703C136.351 21.9193 136.309 22.3125 136.309 22.75V23.0625C136.309 23.4323 136.359 23.776 136.458 24.0938C136.562 24.4062 136.713 24.6797 136.911 24.9141C137.109 25.1484 137.348 25.3333 137.629 25.4688C137.911 25.599 138.231 25.6641 138.59 25.6641C139.043 25.6641 139.447 25.5729 139.801 25.3906C140.155 25.2083 140.463 24.9505 140.723 24.6172L141.715 25.5781C141.533 25.8438 141.296 26.099 141.004 26.3438C140.713 26.5833 140.356 26.7786 139.934 26.9297C139.517 27.0807 139.033 27.1562 138.481 27.1562ZM147.528 18.5469V19.9219H142.762V18.5469H147.528ZM144.137 16.4766H146.02V24.6641C146.02 24.9245 146.056 25.125 146.129 25.2656C146.207 25.401 146.314 25.4922 146.449 25.5391C146.585 25.5859 146.744 25.6094 146.926 25.6094C147.056 25.6094 147.181 25.6016 147.301 25.5859C147.421 25.5703 147.517 25.5547 147.59 25.5391L147.598 26.9766C147.442 27.0234 147.259 27.0651 147.051 27.1016C146.848 27.138 146.613 27.1562 146.348 27.1562C145.916 27.1562 145.533 27.0807 145.199 26.9297C144.866 26.7734 144.606 26.5208 144.418 26.1719C144.231 25.8229 144.137 25.3594 144.137 24.7812V16.4766ZM154.589 15.625H156.339L159.628 24.3984L162.91 15.625H164.66L160.316 27H158.925L154.589 15.625ZM153.792 15.625H155.457L155.746 23.2188V27H153.792V15.625ZM163.792 15.625H165.464V27H163.503V23.2188L163.792 15.625ZM171.652 27.1562C171.027 27.1562 170.461 27.0547 169.956 26.8516C169.456 26.6432 169.029 26.3542 168.675 25.9844C168.326 25.6146 168.058 25.1797 167.87 24.6797C167.683 24.1797 167.589 23.6406 167.589 23.0625V22.75C167.589 22.0885 167.685 21.4896 167.878 20.9531C168.071 20.4167 168.339 19.9583 168.683 19.5781C169.027 19.1927 169.433 18.8984 169.902 18.6953C170.37 18.4922 170.878 18.3906 171.425 18.3906C172.029 18.3906 172.558 18.4922 173.011 18.6953C173.464 18.8984 173.839 19.1849 174.136 19.5547C174.438 19.9193 174.662 20.3542 174.808 20.8594C174.959 21.3646 175.034 21.9219 175.034 22.5312V23.3359H168.503V21.9844H173.175V21.8359C173.165 21.4974 173.097 21.1797 172.972 20.8828C172.852 20.5859 172.667 20.3464 172.417 20.1641C172.167 19.9818 171.834 19.8906 171.417 19.8906C171.105 19.8906 170.826 19.9583 170.581 20.0938C170.342 20.224 170.141 20.4141 169.98 20.6641C169.818 20.9141 169.693 21.2161 169.605 21.5703C169.521 21.9193 169.48 22.3125 169.48 22.75V23.0625C169.48 23.4323 169.529 23.776 169.628 24.0938C169.732 24.4062 169.883 24.6797 170.081 24.9141C170.279 25.1484 170.519 25.3333 170.8 25.4688C171.081 25.599 171.402 25.6641 171.761 25.6641C172.214 25.6641 172.618 25.5729 172.972 25.3906C173.326 25.2083 173.633 24.9505 173.894 24.6172L174.886 25.5781C174.704 25.8438 174.467 26.099 174.175 26.3438C173.883 26.5833 173.527 26.7786 173.105 26.9297C172.688 27.0807 172.204 27.1562 171.652 27.1562Z" fill="#FF4E84"/>
<rect x="190" y="4" width="86" height="37" rx="18.5" fill="#4A4D5A"/>
<path d="M216.399 15.625V27H214.438V15.625H216.399ZM224.258 15.625H226.008L229.297 24.3984L232.578 15.625H234.328L229.984 27H228.594L224.258 15.625ZM223.461 15.625H225.125L225.414 23.2188V27H223.461V15.625ZM233.461 15.625H235.133V27H233.172V23.2188L233.461 15.625ZM241.32 27.1562C240.695 27.1562 240.13 27.0547 239.625 26.8516C239.125 26.6432 238.698 26.3542 238.343 25.9844C237.994 25.6146 237.726 25.1797 237.539 24.6797C237.351 24.1797 237.257 23.6406 237.257 23.0625V22.75C237.257 22.0885 237.354 21.4896 237.547 20.9531C237.739 20.4167 238.007 19.9583 238.351 19.5781C238.695 19.1927 239.101 18.8984 239.57 18.6953C240.039 18.4922 240.547 18.3906 241.093 18.3906C241.698 18.3906 242.226 18.4922 242.679 18.6953C243.132 18.8984 243.507 19.1849 243.804 19.5547C244.106 19.9193 244.33 20.3542 244.476 20.8594C244.627 21.3646 244.703 21.9219 244.703 22.5312V23.3359H238.172V21.9844H242.843V21.8359C242.833 21.4974 242.765 21.1797 242.64 20.8828C242.521 20.5859 242.336 20.3464 242.086 20.1641C241.836 19.9818 241.502 19.8906 241.086 19.8906C240.773 19.8906 240.494 19.9583 240.25 20.0938C240.01 20.224 239.81 20.4141 239.648 20.6641C239.487 20.9141 239.362 21.2161 239.273 21.5703C239.19 21.9193 239.148 22.3125 239.148 22.75V23.0625C239.148 23.4323 239.198 23.776 239.297 24.0938C239.401 24.4062 239.552 24.6797 239.75 24.9141C239.948 25.1484 240.187 25.3333 240.468 25.4688C240.75 25.599 241.07 25.6641 241.429 25.6641C241.882 25.6641 242.286 25.5729 242.64 25.3906C242.994 25.2083 243.302 24.9505 243.562 24.6172L244.554 25.5781C244.372 25.8438 244.135 26.099 243.843 26.3438C243.552 26.5833 243.195 26.7786 242.773 26.9297C242.356 27.0807 241.872 27.1562 241.32 27.1562ZM250.367 18.5469V19.9219H245.601V18.5469H250.367ZM246.976 16.4766H248.859V24.6641C248.859 24.9245 248.895 25.125 248.968 25.2656C249.046 25.401 249.153 25.4922 249.288 25.5391C249.424 25.5859 249.583 25.6094 249.765 25.6094C249.895 25.6094 250.02 25.6016 250.14 25.5859C250.26 25.5703 250.356 25.5547 250.429 25.5391L250.437 26.9766C250.281 27.0234 250.098 27.0651 249.89 27.1016C249.687 27.138 249.452 27.1562 249.187 27.1562C248.755 27.1562 248.372 27.0807 248.038 26.9297C247.705 26.7734 247.445 26.5208 247.257 26.1719C247.07 25.8229 246.976 25.3594 246.976 24.7812V16.4766Z" fill="#6F7387"/>
<defs>
<linearGradient id="paint0_linear_2140_34687" x1="24.6805" y1="11.2678" x2="24.6805" y2="25.9734" gradientUnits="userSpaceOnUse">
<stop stop-color="#FF4E84"/>
<stop offset="1" stop-color="#E134EE"/>
</linearGradient>
<linearGradient id="paint1_linear_2140_34687" x1="33.2808" y1="11.25" x2="33.2808" y2="33.6844" gradientUnits="userSpaceOnUse">
<stop stop-color="#FF4E84"/>
<stop offset="1" stop-color="#E134EE"/>
</linearGradient>
<linearGradient id="paint2_linear_2140_34687" x1="33.5183" y1="21.4558" x2="33.5183" y2="25.2109" gradientUnits="userSpaceOnUse">
<stop stop-color="#FF4E84"/>
<stop offset="1" stop-color="#E134EE"/>
</linearGradient>
</defs>
</svg>
