<svg width="375" height="44" viewBox="0 0 375 44" fill="none" xmlns="http://www.w3.org/2000/svg">
<path d="M333.857 13.8572L333.857 26.4286M333.857 28.7143L333.857 32.1429M345.286 13.8572L345.286 26.4286M345.286 28.7143V32.1429M339.571 19.5715L339.571 32.1429M339.571 13.8572V17.2857M331.571 27.5715C331.571 27.2684 331.692 26.9777 331.906 26.7633C332.12 26.549 332.411 26.4286 332.714 26.4286L335 26.4286C335.303 26.4286 335.594 26.549 335.808 26.7633C336.022 26.9777 336.143 27.2684 336.143 27.5715C336.143 27.8746 336.022 28.1653 335.808 28.3796C335.594 28.5939 335.303 28.7143 335 28.7143L332.714 28.7143C332.411 28.7143 332.12 28.5939 331.906 28.3796C331.692 28.1653 331.571 27.8746 331.571 27.5715ZM343 27.5715C343 27.2684 343.12 26.9777 343.335 26.7633C343.549 26.549 343.84 26.4286 344.143 26.4286L346.429 26.4286C346.732 26.4286 347.022 26.549 347.237 26.7633C347.451 26.9777 347.571 27.2684 347.571 27.5715C347.571 27.8746 347.451 28.1653 347.237 28.3796C347.022 28.5939 346.732 28.7143 346.429 28.7143L344.143 28.7143C343.84 28.7143 343.549 28.5939 343.335 28.3796C343.12 28.1653 343 27.8746 343 27.5715ZM337.286 18.4286C337.286 18.1255 337.406 17.8348 337.62 17.6205C337.835 17.4062 338.125 17.2857 338.429 17.2857L340.714 17.2857C341.017 17.2857 341.308 17.4062 341.522 17.6205C341.737 17.8348 341.857 18.1255 341.857 18.4286C341.857 18.7317 341.737 19.0224 341.522 19.2367C341.308 19.4511 341.017 19.5715 340.714 19.5715L338.429 19.5715C338.125 19.5715 337.835 19.4511 337.62 19.2367C337.406 19.0224 337.286 18.7317 337.286 18.4286Z" stroke="#6F7387" stroke-width="2" stroke-linecap="round" stroke-linejoin="round"/>
<path d="M183.621 37.9067C182.87 37.9067 182.119 37.773 181.41 37.5035C179.494 36.7737 178.255 35.2271 178.011 33.2561C177.775 31.3594 178.261 29.3905 179.377 27.7123L186.47 17.044L182.819 11.7323C182.777 11.6708 182.681 11.6729 182.643 11.7366L173.578 26.8891C173.559 26.9209 173.525 26.94 173.486 26.94H170L182.452 6.08036C182.495 6.01035 182.598 6.00611 182.645 6.074L188.297 14.2959L193.777 6.0528C193.826 5.98067 193.939 5.98279 193.983 6.05704L206.486 26.7915C206.526 26.8573 206.476 26.9422 206.395 26.9401L202.947 26.8997C202.911 26.8997 202.877 26.8806 202.857 26.8488L193.83 11.7748C193.792 11.709 193.695 11.7069 193.652 11.7705L181.994 29.3056C181.259 30.4089 180.939 31.6882 181.092 32.906C181.168 33.5192 181.484 34.336 182.556 34.7433C183.411 35.0679 184.4 34.981 185.2 34.5078C185.501 34.3296 185.637 34.2151 185.907 33.9859C185.925 33.9702 185.944 33.9543 185.963 33.938L188.086 31.9046C188.133 31.86 188.209 31.8707 188.245 31.9237C189.113 33.2115 190.176 34.0602 191 34.546L191.093 34.6012C191.893 35.0743 192.882 35.1613 193.737 34.8367C194.811 34.4293 195.394 33.7037 195.492 33.0927C195.747 31.4964 195.2 30.7049 194.565 29.7875C194.477 29.6612 194.388 29.5325 194.299 29.399L191.279 24.8548L189.828 25.8367C189.756 25.8855 189.658 25.8325 189.665 25.7476L190.07 20.607C190.074 20.5455 190.138 20.503 190.202 20.5179L195.403 21.8651C195.488 21.8863 195.507 21.9945 195.435 22.0433L193.817 23.1377L197.004 27.9325C198.078 29.5481 198.898 30.781 198.596 33.3027C198.359 35.2737 196.801 36.8649 194.885 37.5948C194.176 37.8663 193.423 38 192.674 38C191.556 38 190.439 37.7051 189.463 37.128L189.372 37.075C189.319 37.0439 189.266 37.0128 189.213 36.9815C188.825 36.7542 188.416 36.5143 187.988 36.1888C187.979 36.1964 187.97 36.204 187.961 36.2115C187.651 36.4746 187.356 36.7228 186.83 37.0347C185.856 37.6118 184.74 37.9067 183.621 37.9067Z" fill="url(#paint0_linear_20_3720)"/>
<defs>
<linearGradient id="paint0_linear_20_3720" x1="192.572" y1="20.5149" x2="192.572" y2="25.8554" gradientUnits="userSpaceOnUse">
<stop stop-color="#FF4E84"/>
<stop offset="1" stop-color="#E134EE"/>
</linearGradient>
</defs>
</svg>
