<svg width="108" height="111" viewBox="0 0 108 111" fill="none" xmlns="http://www.w3.org/2000/svg">
<rect x="0.5" y="0.5" width="107" height="110" rx="4.5" fill="black" fill-opacity="0.05"/>
<g clip-path="url(#clip0_678_12315)">
<path fill-rule="evenodd" clip-rule="evenodd" d="M32 42C26.5238 42 22 37.4762 22 32C22 26.5238 26.5161 22 31.9923 22C37.4685 22 42 26.5238 42 32C42 37.4762 37.4762 42 32 42ZM30.7711 37.023C31.0553 37.023 31.3011 36.8925 31.4854 36.6083L36.6467 28.5207C36.7619 28.3518 36.8618 28.1444 36.8618 27.9601C36.8618 27.553 36.5008 27.2995 36.1244 27.2995C35.9017 27.2995 35.679 27.4301 35.51 27.6912L30.7327 35.2872L28.1905 32.0998C27.9908 31.8464 27.7834 31.7542 27.5376 31.7542C27.1613 31.7542 26.8464 32.0538 26.8464 32.4608C26.8464 32.6528 26.9232 32.8602 27.0538 33.0215L30.0184 36.616C30.2565 36.9078 30.4869 37.023 30.7711 37.023Z" fill="#FF4E84"/>
</g>
<path fill-rule="evenodd" clip-rule="evenodd" d="M31.8076 82.6152C25.8892 82.6152 21 77.7261 21 71.8076C21 65.8892 25.8809 61 31.7993 61C37.7178 61 42.6152 65.8892 42.6152 71.8076C42.6152 77.7261 37.7261 82.6152 31.8076 82.6152ZM30.4795 77.2363C30.7866 77.2363 31.0522 77.0952 31.2515 76.7881L36.8296 68.0474C36.9541 67.8647 37.062 67.6406 37.062 67.4414C37.062 67.0015 36.6719 66.7275 36.2651 66.7275C36.0244 66.7275 35.7837 66.8687 35.6011 67.1509L30.438 75.3604L27.6904 71.9155C27.4746 71.6416 27.2505 71.542 26.9849 71.542C26.5781 71.542 26.2378 71.8657 26.2378 72.3057C26.2378 72.5132 26.3208 72.7373 26.4619 72.9116L29.666 76.7964C29.9233 77.1118 30.1724 77.2363 30.4795 77.2363Z" fill="#D1D1D6"/>
<rect x="65.5" y="21.5" width="20.62" height="20.62" rx="10.31" stroke="#AEAEB2"/>
<rect x="65.5" y="61.5" width="20.62" height="20.62" rx="10.31" stroke="#D1D1D6"/>
<rect x="0.5" y="0.5" width="107" height="110" rx="4.5" stroke="#7B61FF" stroke-dasharray="10 5"/>
<defs>
<clipPath id="clip0_678_12315">
<rect width="20" height="20" fill="white" transform="translate(22 22)"/>
</clipPath>
</defs>
</svg>
