<svg width="375" height="108" viewBox="0 0 375 108" fill="none" xmlns="http://www.w3.org/2000/svg">
<g clip-path="url(#clip0_39_9574)">
<rect x="121" y="95" width="134" height="5" rx="2.5" fill="white"/>
<path d="M40.1272 72.6376C39.2969 72.6248 38.4963 72.3263 37.8604 71.7924L33.6726 68.1041C33.0136 67.4883 32.0059 67.4396 31.2906 67.9888L25.3355 72.3686V75.2117C25.2927 75.9743 25.8764 76.6273 26.6391 76.6701C26.6783 76.6723 26.7178 76.6728 26.7571 76.6716H47.8495C48.6948 76.6716 49.54 76.0569 49.54 75.2117V67.7583L41.9713 72.1381C41.4149 72.4726 40.7764 72.6456 40.1272 72.6376Z" fill="#6F7387"/>
<path d="M39.8198 65.1842C40.7534 65.1842 41.5103 64.4273 41.5103 63.4937C41.5103 62.5601 40.7534 61.8032 39.8198 61.8032C38.8862 61.8032 38.1293 62.5601 38.1293 63.4937C38.1293 64.4273 38.8862 65.1842 39.8198 65.1842Z" fill="#6F7387"/>
<path d="M53.5357 55.0029C53.2904 54.6688 52.9115 54.4583 52.4983 54.4266L31.5595 52.0062C31.1513 51.972 30.7439 52.0806 30.407 52.3136C30.1085 52.5727 29.9056 52.9244 29.8306 53.3125L29.4849 56.3092H47.8496C49.6004 56.349 51.0162 57.7478 51.0768 59.4981V73.0602C51.0768 72.9834 51.4226 72.9065 51.5763 72.7528C51.8944 72.503 52.0789 72.12 52.0758 71.7155L53.8814 56.1171C53.9214 55.7142 53.7966 55.3123 53.5357 55.0029Z" fill="#6F7387"/>
<path d="M47.8495 57.8459H26.7571C25.9118 57.8459 25.3355 58.6527 25.3355 59.498V70.4476L30.4069 66.7593C31.6943 65.8044 33.4752 65.8846 34.6715 66.9514L38.8977 70.6397C39.5349 71.1807 40.4452 71.2579 41.1644 70.8318L49.5399 65.9525V59.498C49.4818 58.596 48.7526 57.8834 47.8495 57.8459ZM39.8198 66.7209C38.0374 66.7209 36.5925 65.276 36.5925 63.4936C36.5925 61.7112 38.0373 60.2663 39.8198 60.2663C41.6021 60.2663 43.047 61.7112 43.047 63.4936C43.047 65.276 41.6022 66.7209 39.8198 66.7209Z" fill="#6F7387"/>
<path d="M99 56.125H94.75L93.7375 53.2875C93.6675 53.0933 93.5394 52.9255 93.3704 52.8069C93.2015 52.6884 93.0001 52.6248 92.7938 52.625H83.2063C82.7844 52.625 82.4062 52.8906 82.2656 53.2875L81.25 56.125H77C75.6187 56.125 74.5 57.2437 74.5 58.625V72.875C74.5 74.2562 75.6187 75.375 77 75.375H99C100.381 75.375 101.5 74.2562 101.5 72.875V58.625C101.5 57.2437 100.381 56.125 99 56.125ZM88 70.375C85.2375 70.375 83 68.1375 83 65.375C83 62.6125 85.2375 60.375 88 60.375C90.7625 60.375 93 62.6125 93 65.375C93 68.1375 90.7625 70.375 88 70.375ZM85 65.375C85 66.1706 85.3161 66.9337 85.8787 67.4963C86.4413 68.0589 87.2044 68.375 88 68.375C88.7956 68.375 89.5587 68.0589 90.1213 67.4963C90.6839 66.9337 91 66.1706 91 65.375C91 64.5793 90.6839 63.8163 90.1213 63.2537C89.5587 62.6911 88.7956 62.375 88 62.375C87.2044 62.375 86.4413 62.6911 85.8787 63.2537C85.3161 63.8163 85 64.5793 85 65.375Z" fill="#6F7387"/>
<g clip-path="url(#clip1_39_9574)">
<path d="M134.667 72.0001C134.667 72.7361 135.264 73.3334 136 73.3334C136.736 73.3334 137.333 72.7361 137.333 72.0001V56.0001C137.333 55.2641 136.736 54.6667 136 54.6667C135.264 54.6667 134.667 55.2641 134.667 56.0001V72.0001Z" fill="#6F7387"/>
<path d="M121.333 56C120.597 56 120 56.5973 120 57.3333V70.6667C120 71.4027 120.597 72 121.333 72C122.069 72 122.667 71.4027 122.667 70.6667V57.3333C122.667 56.5973 122.069 56 121.333 56Z" fill="#6F7387"/>
<path d="M132 69.3333V58.6666C132 57.9306 131.403 57.3333 130.667 57.3333C129.931 57.3333 129.333 57.9306 129.333 58.6666V69.3333C129.333 70.0693 129.931 70.6666 130.667 70.6666C131.403 70.6666 132 70.0693 132 69.3333Z" fill="#6F7387"/>
<path d="M126.667 68C127.403 68 128 67.4027 128 66.6667V61.3333C128 60.5973 127.403 60 126.667 60C125.931 60 125.333 60.5973 125.333 61.3333V66.6667C125.333 67.4027 125.931 68 126.667 68Z" fill="#6F7387"/>
<path d="M141.333 69.3333V58.6666C141.333 57.9306 140.736 57.3333 140 57.3333C139.264 57.3333 138.667 57.9306 138.667 58.6666V69.3333C138.667 70.0693 139.264 70.6666 140 70.6666C140.736 70.6666 141.333 70.0693 141.333 69.3333Z" fill="#6F7387"/>
<path d="M150.667 56C149.931 56 149.333 56.5973 149.333 57.3333V70.6667C149.333 71.4027 149.931 72 150.667 72C151.403 72 152 71.4027 152 70.6667V57.3333C152 56.5973 151.403 56 150.667 56Z" fill="#6F7387"/>
<path d="M145.333 60C144.597 60 144 60.5973 144 61.3333V66.6667C144 67.4027 144.597 68 145.333 68C146.069 68 146.667 67.4027 146.667 66.6667V61.3333C146.667 60.5973 146.069 60 145.333 60Z" fill="#6F7387"/>
<path d="M134.667 78.6667C134.667 79.4027 135.264 80 136 80C136.736 80 137.333 79.4027 137.333 78.6667V77.3333C137.333 76.5973 136.736 76 136 76C135.264 76 134.667 76.5973 134.667 77.3333V78.6667Z" fill="#6F7387"/>
<path d="M136 52C136.736 52 137.333 51.4027 137.333 50.6667V49.3333C137.333 48.5973 136.736 48 136 48C135.264 48 134.667 48.5973 134.667 49.3333V50.6667C134.667 51.4027 135.264 52 136 52Z" fill="#6F7387"/>
</g>
<rect x="16" width="343" height="40" rx="20" fill="white"/>
<path d="M33.77 16.824V17.692H37.648V16.824H33.77ZM32.874 20.646V21.402H35.17V20.646H32.874ZM32.874 22.564V23.362H35.17V22.564H32.874ZM36.346 19.078V24.006H37.116V19.078H36.346ZM35.716 14.276C36.5 15.536 37.886 16.922 39.174 17.748C39.328 17.454 39.538 17.076 39.748 16.824C38.432 16.124 37.018 14.724 36.15 13.296H35.198C34.54 14.626 33.182 16.152 31.782 17.006C31.95 17.23 32.188 17.594 32.3 17.86C33.714 16.95 35.016 15.508 35.716 14.276ZM32.398 18.77V26.078H33.168V19.568H35.016V18.77H32.398ZM34.778 18.77V25.21C34.778 25.322 34.736 25.364 34.638 25.364C34.54 25.364 34.26 25.364 33.938 25.364C34.022 25.574 34.134 25.91 34.162 26.12C34.666 26.12 35.002 26.106 35.254 25.98C35.478 25.826 35.548 25.602 35.548 25.224V18.77H34.778ZM38.222 18.546V25.084C38.222 25.238 38.166 25.28 38.012 25.294C37.858 25.308 37.34 25.308 36.752 25.294C36.864 25.518 36.99 25.868 37.018 26.078C37.844 26.078 38.348 26.078 38.684 25.952C38.992 25.798 39.09 25.56 39.09 25.098V18.546H38.222ZM26.714 14.752V15.69H32.048V14.752H26.714ZM26.546 22.746V23.684H32.006V22.746H26.546ZM28.856 13.24V17.09H29.794V13.24H28.856ZM28.968 17.146V21.22H28.856V26.148H29.794V21.22H29.682V17.146H28.968ZM27.708 19.554H30.942V20.828H27.708V19.554ZM27.708 17.538H30.942V18.798H27.708V17.538ZM26.924 16.74V21.612H31.74V16.74H26.924ZM43.213 14.094V15.158H47.175V14.094H43.213ZM46.643 14.094C46.643 16.726 47.105 22.69 52.705 26.078C52.901 25.826 53.321 25.378 53.559 25.196C48.029 21.92 47.721 16.6 47.721 14.094H46.643ZM46.251 16.838C45.397 20.8 43.647 23.628 40.539 25.252C40.819 25.448 41.295 25.882 41.491 26.106C44.585 24.286 46.433 21.332 47.441 17.062L46.251 16.838ZM54.714 13.856V14.794H59.558V13.856H54.714ZM55.862 16.796V17.678H58.382V16.796H55.862ZM55.862 19.68V20.576H58.382V19.68H55.862ZM55.428 14.332V23.292H56.31V14.332H55.428ZM57.878 14.318V26.134H58.788V14.318H57.878ZM54.56 23.138L54.756 24.118C55.82 23.894 57.136 23.6 58.424 23.306L58.354 22.396C56.94 22.69 55.54 22.97 54.56 23.138ZM59.096 22.2L59.446 23.096C60.314 22.802 61.364 22.438 62.4 22.074L62.302 21.318C61.098 21.668 59.936 21.99 59.096 22.2ZM59.992 14.556V22.186H60.846V14.892L59.992 14.556ZM62.078 15.732V19.974C62.078 22.088 61.812 24.048 59.53 25.49C59.74 25.63 60.02 25.952 60.146 26.134C62.624 24.566 62.946 22.368 62.946 19.988V15.732H62.078ZM66.152 14.234V22.214C66.152 22.34 66.11 22.382 65.998 22.382C65.9 22.382 65.564 22.382 65.186 22.368C65.312 22.606 65.438 22.998 65.466 23.236C66.04 23.236 66.418 23.208 66.698 23.054C66.964 22.9 67.034 22.634 67.034 22.228V14.234H66.152ZM62.582 13.268C61.966 13.786 60.916 14.5 60.16 14.892L60.776 15.466C61.546 15.074 62.554 14.472 63.31 13.884L62.582 13.268ZM63.94 14.234V26.12H64.808V15.116H66.656V14.234H63.94ZM75.679 19.092L74.657 19.316C75.623 22.872 77.485 25.182 80.887 26.148C81.055 25.854 81.363 25.406 81.615 25.168C78.339 24.37 76.491 22.228 75.679 19.092ZM69.365 18.686V19.75H80.887V18.686H69.365ZM68.931 14.332V15.396H81.251V14.332H68.931ZM74.447 14.626V17.888C74.447 20.45 73.901 23.46 68.665 25.238C68.889 25.448 69.197 25.896 69.309 26.162C74.923 24.216 75.553 20.842 75.553 17.888V14.626H74.447ZM83.666 16.376V26.134H84.73V17.412H94.138V16.376H83.666ZM93.62 16.376V24.748C93.62 24.972 93.55 25.042 93.298 25.056C93.032 25.07 92.136 25.07 91.226 25.042C91.38 25.336 91.548 25.812 91.59 26.12C92.766 26.12 93.592 26.106 94.068 25.938C94.544 25.756 94.684 25.42 94.684 24.762V16.376H93.62ZM86.116 13.87V14.808H89.112V13.87H86.116ZM88.398 13.87V14.388H88.622C88.832 18.462 89.91 21.416 92.724 22.816C92.892 22.536 93.242 22.13 93.466 21.906C90.722 20.73 89.728 17.902 89.56 13.87H88.398ZM88.51 16.656C88.146 19.288 86.97 21.038 84.856 22.074C85.08 22.242 85.416 22.648 85.57 22.886C87.824 21.724 89.028 19.708 89.504 16.824L88.51 16.656ZM100.809 16.166C100.011 17.188 98.695 18.168 97.435 18.798C97.659 18.994 98.037 19.414 98.191 19.624C99.465 18.882 100.893 17.72 101.817 16.488L100.809 16.166ZM104.379 16.754C105.681 17.566 107.249 18.756 108.005 19.568L108.789 18.854C107.991 18.056 106.381 16.894 105.093 16.152L104.379 16.754ZM103.189 18.686C104.491 20.268 106.955 22.018 109.041 22.998C109.209 22.704 109.461 22.312 109.699 22.06C107.543 21.178 105.149 19.512 103.651 17.72H102.601C101.495 19.316 99.171 21.178 96.805 22.256C97.015 22.48 97.281 22.872 97.407 23.124C99.745 21.99 102.041 20.198 103.189 18.686ZM99.311 21.43V26.134H100.333V22.368H106.003V26.078H107.067V21.43H99.311ZM99.801 24.72V25.658H106.563V24.72H99.801ZM102.601 13.24V15.074H103.679V13.24H102.601ZM97.323 14.542V17.09H98.359V15.494H107.949V17.09H109.013V14.542H97.323Z" fill="#A8ABBD"/>
<path d="M325.586 8.57946C325.46 8.51667 325.32 8.49037 325.18 8.50356C325.04 8.51675 324.907 8.5689 324.795 8.65407C324.684 8.73925 324.598 8.85403 324.549 8.98536C324.499 9.11669 324.488 9.2593 324.515 9.39696L326.619 16.672C326.659 16.8075 326.735 16.9293 326.841 17.0232C326.946 17.1172 327.076 17.1795 327.215 17.203L335.75 18.6325C336.152 18.712 336.152 19.288 335.75 19.3675L327.215 20.797C327.076 20.8205 326.946 20.8828 326.841 20.9767C326.735 21.0706 326.659 21.1924 326.619 21.328L324.515 28.603C324.488 28.7406 324.499 28.8832 324.549 29.0146C324.598 29.1459 324.684 29.2607 324.795 29.3459C324.907 29.431 325.04 29.4832 325.18 29.4964C325.32 29.5096 325.46 29.4833 325.586 29.4205L345.086 19.6705C345.21 19.6081 345.315 19.5124 345.388 19.394C345.461 19.2755 345.5 19.1391 345.5 19C345.5 18.8608 345.461 18.7244 345.388 18.606C345.315 18.4876 345.21 18.3918 345.086 18.3295L325.586 8.57946Z" fill="#FF4E84"/>
</g>
<defs>
<clipPath id="clip0_39_9574">
<rect width="375" height="108" fill="white"/>
</clipPath>
<clipPath id="clip1_39_9574">
<rect width="32" height="32" fill="white" transform="translate(120 48)"/>
</clipPath>
</defs>
</svg>
