<svg width="375" height="812" viewBox="0 0 375 812" fill="none" xmlns="http://www.w3.org/2000/svg">
<g clip-path="url(#clip0_40_8605)">
<rect width="375" height="812" fill="#383A44"/>
<g clip-path="url(#clip1_40_8605)">
<path d="M78 -2H297C294.894 -1.39731 293.418 0.495246 293.345 2.68446L293.317 3.5618C293.317 17.0587 282.375 28 268.878 28H106.122C92.6249 28 81.6835 17.0587 81.6835 3.5618L81.6545 2.68447C81.5823 0.49525 80.1059 -1.39731 78 -2Z" fill="black"/>
<path opacity="0.35" d="M336.5 20.0006C336.5 18.804 337.47 17.834 338.667 17.834H355.333C356.53 17.834 357.5 18.804 357.5 20.0007V26.0007C357.5 27.1973 356.53 28.1673 355.333 28.1673H338.667C337.47 28.1673 336.5 27.1973 336.5 26.0007V20.0006Z" stroke="white"/>
<path opacity="0.4" d="M359 21.001V25.001C359.805 24.6622 360.328 23.8741 360.328 23.001C360.328 22.1278 359.805 21.3398 359 21.001Z" fill="white"/>
<path d="M338 20.6673C338 19.9309 338.597 19.334 339.333 19.334H354.667C355.403 19.334 356 19.9309 356 20.6673V25.334C356 26.0704 355.403 26.6673 354.667 26.6673H339.333C338.597 26.6673 338 26.0704 338 25.334V20.6673Z" fill="white"/>
<path fill-rule="evenodd" clip-rule="evenodd" d="M323.33 19.6084C325.546 19.6085 327.678 20.4599 329.283 21.9867C329.404 22.1046 329.598 22.1031 329.717 21.9834L330.873 20.8167C330.933 20.756 330.967 20.6737 330.966 20.5882C330.966 20.5026 330.931 20.4207 330.87 20.3607C326.655 16.3212 320.005 16.3212 315.79 20.3607C315.729 20.4207 315.694 20.5025 315.694 20.5881C315.693 20.6737 315.727 20.7559 315.787 20.8167L316.943 21.9834C317.062 22.1033 317.256 22.1048 317.377 21.9867C318.983 20.4598 321.114 19.6084 323.33 19.6084ZM323.33 23.404C324.548 23.404 325.722 23.8565 326.624 24.6737C326.747 24.7897 326.939 24.7872 327.058 24.668L328.212 23.5014C328.273 23.4402 328.307 23.3572 328.306 23.2709C328.305 23.1846 328.27 23.1023 328.208 23.0424C325.46 20.486 321.204 20.486 318.455 23.0424C318.393 23.1023 318.358 23.1847 318.357 23.271C318.356 23.3573 318.39 23.4403 318.451 23.5014L319.605 24.668C319.724 24.7872 319.917 24.7897 320.039 24.6737C320.941 23.857 322.114 23.4046 323.33 23.404ZM325.643 25.9579C325.645 26.0444 325.611 26.1278 325.549 26.1884L323.552 28.204C323.494 28.2633 323.414 28.2966 323.33 28.2966C323.247 28.2966 323.167 28.2633 323.109 28.204L321.111 26.1884C321.049 26.1277 321.015 26.0443 321.017 25.9578C321.019 25.8713 321.057 25.7894 321.121 25.7314C322.396 24.6525 324.265 24.6525 325.54 25.7314C325.604 25.7894 325.642 25.8714 325.643 25.9579Z" fill="white"/>
<path fill-rule="evenodd" clip-rule="evenodd" d="M309.667 17.667H308.667C308.114 17.667 307.667 18.1147 307.667 18.667V27.3337C307.667 27.8859 308.114 28.3337 308.667 28.3337H309.667C310.219 28.3337 310.667 27.8859 310.667 27.3337V18.667C310.667 18.1147 310.219 17.667 309.667 17.667ZM304 20.0003H305C305.552 20.0003 306 20.448 306 21.0003V27.3337C306 27.8859 305.552 28.3337 305 28.3337H304C303.448 28.3337 303 27.8859 303 27.3337V21.0003C303 20.448 303.448 20.0003 304 20.0003ZM300.333 22.3337H299.333C298.781 22.3337 298.333 22.7814 298.333 23.3337V27.3337C298.333 27.8859 298.781 28.3337 299.333 28.3337H300.333C300.886 28.3337 301.333 27.8859 301.333 27.3337V23.3337C301.333 22.7814 300.886 22.3337 300.333 22.3337ZM295.667 24.3337H294.667C294.114 24.3337 293.667 24.7814 293.667 25.3337V27.3337C293.667 27.8859 294.114 28.3337 294.667 28.3337H295.667C296.219 28.3337 296.667 27.8859 296.667 27.3337V25.3337C296.667 24.7814 296.219 24.3337 295.667 24.3337Z" fill="white"/>
<path d="M37.3208 28.2568C40.0088 28.2568 41.6055 26.1548 41.6055 22.5952C41.6055 21.2549 41.3491 20.127 40.8584 19.2554C40.1479 17.9004 38.9248 17.168 37.3794 17.168C35.0796 17.168 33.4536 18.7134 33.4536 20.8813C33.4536 22.9175 34.9185 24.397 36.9326 24.397C38.1704 24.397 39.1738 23.8184 39.6719 22.8149H39.6938C39.6938 22.8149 39.7231 22.8149 39.7305 22.8149C39.7451 22.8149 39.7964 22.8149 39.7964 22.8149C39.7964 25.2319 38.8809 26.6748 37.3354 26.6748C36.4272 26.6748 35.7241 26.1768 35.4824 25.3784H33.6001C33.915 27.1143 35.3872 28.2568 37.3208 28.2568ZM37.3867 22.8955C36.1709 22.8955 35.3066 22.0312 35.3066 20.8228C35.3066 19.6436 36.2148 18.7427 37.394 18.7427C38.5732 18.7427 39.4814 19.6582 39.4814 20.8521C39.4814 22.0312 38.5952 22.8955 37.3867 22.8955Z" fill="white"/>
<path d="M44.6966 28.1543C45.3924 28.1543 45.8685 27.6562 45.8685 26.9971C45.8685 26.3306 45.3924 25.8398 44.6966 25.8398C44.0081 25.8398 43.5247 26.3306 43.5247 26.9971C43.5247 27.6562 44.0081 28.1543 44.6966 28.1543ZM44.6966 22.6611C45.3924 22.6611 45.8685 22.1704 45.8685 21.5112C45.8685 20.8447 45.3924 20.354 44.6966 20.354C44.0081 20.354 43.5247 20.8447 43.5247 21.5112C43.5247 22.1704 44.0081 22.6611 44.6966 22.6611Z" fill="white"/>
<path d="M52.7242 28.0005H54.5333V26.0303H55.9615V24.4336H54.5333V17.4316H51.8673C49.9996 20.2441 48.5128 22.5952 47.5606 24.3457V26.0303H52.7242V28.0005ZM49.3111 24.3677C50.5416 22.1997 51.6402 20.4639 52.651 18.9697H52.7535V24.4775H49.3111V24.3677Z" fill="white"/>
<path d="M59.9901 28.0005H61.8798V17.4316H59.9975L57.2362 19.3652V21.1816L59.8656 19.3359H59.9901V28.0005Z" fill="white"/>
</g>
<rect x="121" y="799" width="134" height="5" rx="2.5" fill="white"/>
<path d="M104.256 131.824V134.344H112.712V131.824H104.256ZM104.34 124.096V126.644H112.628V124.096H104.34ZM104.256 135.632V138.18H112.712V135.632H104.256ZM102.912 127.876V130.536H113.636V127.876H102.912ZM105.712 139.524V142.184H109.884V145.376H105.712V148.036H112.74V139.524H105.712ZM104.2 139.524V149.156H107.028V139.524H104.2ZM114.308 124.74V127.148H128.588V124.74H114.308ZM115.008 128.156V130.424H128.14V128.156H115.008ZM113.636 131.516V133.924H129.12V131.516H113.636ZM119.74 123.228V133.56H122.932V123.228H119.74ZM115.54 134.988V149.492H118.648V137.368H126.292V134.988H115.54ZM124.444 134.988V146.356C124.444 146.664 124.36 146.776 123.996 146.776C123.632 146.776 122.456 146.804 121.42 146.748C121.784 147.476 122.204 148.624 122.288 149.436C124.108 149.436 125.424 149.408 126.376 148.988C127.3 148.54 127.58 147.812 127.58 146.384V134.988H124.444ZM116.912 138.628V140.812H126.068V138.628H116.912ZM116.912 142.128V144.312H126.068V142.128H116.912ZM146.144 130.144V132.804H153.872V130.144H146.144ZM144.716 138.152V140.336H148.636V138.152H144.716ZM144.716 141.82V144.172H148.636V141.82H144.716ZM150.82 135.072V145.152H153.116V135.072H150.82ZM150.036 126.308C151.492 128.716 154.124 131.572 156.616 133.14C157.064 132.216 157.736 131.012 158.352 130.228C155.72 128.912 153.116 126.084 151.408 123.256H148.468C147.236 125.804 144.632 128.968 141.916 130.592C142.448 131.32 143.148 132.496 143.484 133.336C146.2 131.6 148.692 128.688 150.036 126.308ZM143.232 134.344V149.408H145.5V136.724H148.496V134.344H143.232ZM147.516 134.344V146.944C147.516 147.14 147.46 147.224 147.292 147.224C147.152 147.224 146.76 147.224 146.34 147.224C146.62 147.84 146.872 148.876 146.928 149.52C147.852 149.52 148.524 149.492 149.112 149.072C149.672 148.652 149.812 148.008 149.812 147V134.344H147.516ZM154.404 133.896V146.636C154.404 146.916 154.292 147 153.984 147.028C153.676 147.056 152.668 147.056 151.66 147.028C151.996 147.728 152.332 148.764 152.416 149.464C154.068 149.464 155.216 149.436 156.028 149.044C156.812 148.624 157.036 147.924 157.036 146.692V133.896H154.404ZM131.808 125.86V128.772H142.756V125.86H131.808ZM131.472 142.156V145.096H142.672V142.156H131.472ZM135.644 123.2V131.46H138.584V123.2H135.644ZM136.12 131.488V139.272H135.672V149.492H138.584V139.272H138.136V131.488H136.12ZM134.412 136.5H139.816V138.152H134.412V136.5ZM134.412 132.664H139.816V134.288H134.412V132.664ZM132.116 130.312V140.476H142.196V130.312H132.116ZM165.632 124.796V128.212H173.556V124.796H165.632ZM171.904 124.796C171.904 130.508 173.136 143.024 183.804 149.436C184.392 148.596 185.736 147.112 186.52 146.496C176.132 140.42 175.376 130.116 175.376 124.796H171.904ZM170.7 130.928C169.188 138.348 165.828 143.78 159.976 146.748C160.844 147.364 162.412 148.764 163.028 149.492C168.88 145.964 172.604 139.944 174.564 131.628L170.7 130.928ZM203.544 129.892V132.356H210.936V129.892H203.544ZM202.872 135.688H204.468V138.348H202.872V135.688ZM200.716 133.588V140.448H206.764V133.588H200.716ZM209.956 135.688H211.72V138.348H209.956V135.688ZM207.772 133.588V140.448H214.044V133.588H207.772ZM202.536 140.952C202.284 143.948 201.416 146.3 199.232 147.7C199.848 148.12 200.856 149.128 201.22 149.632C203.74 147.812 204.916 144.956 205.308 141.092L202.536 140.952ZM202.648 145.068C203.684 146.16 205 147.672 205.588 148.68L207.38 146.748C206.792 145.824 205.42 144.424 204.384 143.388L202.648 145.068ZM209.508 140.924C209.228 143.92 208.332 146.244 206.176 147.644C206.792 148.092 207.828 149.1 208.192 149.604C210.712 147.784 211.916 144.928 212.308 141.064L209.508 140.924ZM209.424 145.18C210.684 146.524 212.224 148.344 212.924 149.52L215.052 147.896C214.296 146.776 212.7 144.984 211.44 143.752L209.424 145.18ZM207.128 126.224C208.528 128.52 211.132 131.124 213.596 132.524C214.016 131.6 214.688 130.368 215.304 129.556C212.728 128.408 210.208 125.888 208.528 123.284H205.532C204.328 125.636 201.836 128.436 199.176 129.808C199.708 130.536 200.38 131.768 200.688 132.608C203.32 131.096 205.812 128.464 207.128 126.224ZM191.42 128.576V131.068H199.064V128.576H191.42ZM191.42 132.776V135.24H199.148V132.776H191.42ZM189.768 137.004V139.552H198.336V137.004H189.768ZM194.108 125.832V138.46H196.656V125.832H194.108ZM195.088 140.952C195.62 142.1 196.124 143.584 196.292 144.592L197.608 144.116C197.412 143.136 196.88 141.652 196.32 140.56L195.088 140.952ZM193.38 141.204C193.8 142.632 194.108 144.536 194.164 145.768L195.592 145.488C195.536 144.284 195.172 142.408 194.724 140.952L193.38 141.204ZM191.644 141.4C191.84 143.052 191.896 145.152 191.784 146.58L193.324 146.384C193.38 145.012 193.324 142.912 193.072 141.232L191.644 141.4ZM189.572 140.812C189.488 143.22 189.208 145.628 188.284 147.084L189.992 147.98C191.028 146.356 191.28 143.724 191.392 141.148L189.572 140.812ZM189.768 124.236V138.488H192.4V126.868H199.568V124.236H189.768ZM197.244 137.004V137.48C197.104 144.06 196.964 146.328 196.6 146.832C196.404 147.14 196.208 147.196 195.9 147.196C195.564 147.196 194.976 147.196 194.248 147.084C194.584 147.784 194.836 148.848 194.892 149.604C195.816 149.632 196.74 149.604 197.3 149.52C197.972 149.408 198.448 149.184 198.896 148.54C199.512 147.7 199.68 145.068 199.848 138.096C199.876 137.732 199.876 137.004 199.876 137.004H197.244ZM227.708 124.124V126.672H233.308V124.124H227.708ZM231.404 130.816V133.392H238.376V130.816H231.404ZM227.26 145.74V148.596H243.024V145.74H227.26ZM240.056 123.788C239.356 124.488 238.04 125.58 237.172 126.168L238.404 127.568C239.328 127.064 240.532 126.336 241.764 125.58L240.056 123.788ZM241.708 126.84C241.008 127.568 239.664 128.66 238.796 129.248L240.056 130.732C241.036 130.256 242.24 129.528 243.5 128.772L241.708 126.84ZM237.172 141.344C236.92 142.548 236.332 144.2 235.856 145.32L238.6 145.992C239.104 144.984 239.72 143.528 240.336 142.044L237.172 141.344ZM229.92 142.1C230.48 143.36 231.012 145.04 231.152 146.132L234.12 145.264C233.924 144.172 233.364 142.548 232.748 141.372L229.92 142.1ZM231.908 137.144H237.984V139.02H231.908V137.144ZM228.856 134.596V141.54H241.204V134.596H228.856ZM227.176 129.052C228.212 129.752 229.444 130.872 230.004 131.6L231.88 129.472C231.264 128.744 230.004 127.764 228.94 127.12L227.176 129.052ZM232.02 124.124V124.572C231.208 128.212 228.8 131.6 225.86 133.084C226.476 133.672 227.316 134.876 227.708 135.632C231.18 133.56 233.812 129.752 234.932 124.712L233.028 124.012L232.552 124.124H232.02ZM237.732 123.228L234.904 123.816C236.08 128.856 238.124 132.944 241.764 135.1C242.212 134.288 243.164 133.084 243.892 132.496C240.672 130.844 238.684 127.26 237.732 123.228ZM218.412 131.824V134.344H226.224V131.824H218.412ZM218.58 124.096V126.644H226.14V124.096H218.58ZM218.412 135.632V138.18H226.224V135.632H218.412ZM217.152 127.876V130.536H227.148V127.876H217.152ZM219.952 139.524V142.156H223.536V145.348H219.952V147.98H226.28V139.524H219.952ZM218.328 139.524V149.156H221.072V139.524H218.328ZM245.992 124.264V127.316H256.632V124.264H245.992ZM249.24 133.196V136.08H252.908V143.22H249.24V146.104H255.82V133.196H249.24ZM249.016 125.86C248.456 130.956 247.42 135.856 245.264 138.936C245.852 139.692 246.776 141.372 247.056 142.156C249.856 138.348 251.34 132.412 252.152 126.336L249.016 125.86ZM247.812 133.196V148.316H250.696V133.196H247.812ZM259.124 128.66V131.264H270.324V128.66H259.124ZM259.124 132.888V135.52H270.324V132.888H259.124ZM257.528 137.228V140.112H269.624V137.228H257.528ZM263.324 125.804V138.376H266.32V125.804H263.324ZM259.908 142.072C260.188 143.724 260.328 145.852 260.272 147.252L262.568 146.888C262.596 145.488 262.4 143.416 262.064 141.764L259.908 142.072ZM262.82 141.904C263.296 143.276 263.744 145.04 263.856 146.188L266.012 145.572C265.844 144.424 265.368 142.688 264.864 141.372L262.82 141.904ZM265.62 141.372C266.236 142.408 266.852 143.78 267.104 144.676L268.896 143.92C268.616 143.052 267.972 141.708 267.272 140.728L265.62 141.372ZM257.136 140.896C256.912 143.192 256.38 145.544 255.288 147L257.612 148.26C258.872 146.636 259.348 144.004 259.6 141.512L257.136 140.896ZM257.528 124.236V138.768H260.58V127.12H271.136V124.236H257.528ZM268.644 137.228V137.732C268.448 143.696 268.168 145.908 267.72 146.468C267.468 146.72 267.244 146.804 266.852 146.804C266.404 146.804 265.508 146.776 264.5 146.692C264.976 147.476 265.284 148.68 265.34 149.548C266.572 149.604 267.72 149.576 268.392 149.492C269.204 149.38 269.792 149.128 270.352 148.428C271.08 147.532 271.388 144.928 271.64 138.432C271.668 138.04 271.696 137.228 271.696 137.228H268.644Z" fill="white"/>
<g clip-path="url(#clip2_40_8605)">
<rect x="40" y="256" width="295" height="50" rx="25" fill="#FF4E84"/>
<path d="M179.676 280.304L179.676 281.232L185.932 281.232L185.932 280.304L179.676 280.304ZM179.676 282.928L179.676 283.872L185.932 283.872L185.932 282.928L179.676 282.928ZM179.692 285.568L179.692 286.592L186.684 286.592L186.684 285.568L179.692 285.568ZM177.868 274.208L177.868 276.944L178.908 276.944L178.908 275.248L185.532 275.248L185.532 276.944L186.604 276.944L186.604 274.208L177.868 274.208ZM182.284 278.4L182.284 286.112L183.404 286.112L183.404 278.4L182.284 278.4ZM180.108 277.632L180.012 277.632L178.972 278.72L178.972 287.28L180.108 287.28L180.108 278.672L186.204 278.672L186.204 277.632L180.108 277.632ZM181.612 272.56C180.828 275.504 179.356 277.984 177.244 279.52C177.5 279.728 177.932 280.176 178.108 280.4C180.268 278.688 181.852 276.032 182.764 272.784L181.612 272.56ZM183.276 275.728C183.084 276.432 182.668 277.44 182.332 278.08L183.26 278.352C183.596 277.744 184.028 276.848 184.412 276.016L183.276 275.728ZM172.172 273.648L172.172 274.752L177.82 274.752L177.82 273.648L172.172 273.648ZM173.788 278.32L173.788 279.392L176.348 279.392L176.348 284.272L173.788 284.272L173.788 285.328L177.404 285.328L177.404 278.32L173.788 278.32ZM174.06 274.176C173.676 277.184 172.988 280.016 171.708 281.824C171.932 282.096 172.268 282.688 172.396 282.96C173.884 280.864 174.716 277.712 175.212 274.352L174.06 274.176ZM173.292 278.32L173.292 286.576L174.3 286.576L174.3 278.32L173.292 278.32ZM197.58 273.68C197.308 275.872 196.652 278.208 194.044 279.408C194.3 279.6 194.636 280 194.764 280.256C197.564 278.864 198.348 276.272 198.684 273.68L197.58 273.68ZM194.636 275.968C196.3 276.528 198.3 277.584 199.372 278.368L199.948 277.424C198.892 276.688 196.892 275.696 195.228 275.136L194.636 275.968ZM201.356 273.248L201.356 273.456C201.228 277.072 201.068 278.352 200.78 278.688C200.668 278.816 200.524 278.864 200.268 278.848C200.012 278.848 199.34 278.848 198.604 278.784C198.78 279.072 198.892 279.536 198.908 279.872C199.66 279.904 200.412 279.92 200.796 279.888C201.228 279.84 201.5 279.728 201.756 279.424C202.156 278.96 202.316 277.536 202.476 273.76C202.492 273.6 202.492 273.248 202.492 273.248L201.356 273.248ZM196.444 281.776L196.444 285.648C196.444 286.832 196.716 287.168 197.932 287.168C198.188 287.168 199.452 287.168 199.708 287.168C200.716 287.168 201.02 286.672 201.148 284.72C200.828 284.624 200.348 284.464 200.124 284.272C200.076 285.872 200.012 286.096 199.58 286.096C199.324 286.096 198.284 286.096 198.076 286.096C197.628 286.096 197.564 286.032 197.564 285.632L197.564 281.776L196.444 281.776ZM194.924 282.32C194.764 283.648 194.412 285.056 193.644 285.84L194.54 286.432C195.388 285.536 195.724 283.984 195.9 282.56L194.924 282.32ZM196.716 280.304C197.756 280.912 198.972 281.84 199.548 282.512L200.3 281.696C199.708 281.024 198.476 280.16 197.42 279.6L196.716 280.304ZM200.444 282.432C201.276 283.6 201.98 285.216 202.188 286.304L203.26 285.856C203.02 284.768 202.3 283.2 201.436 282.032L200.444 282.432ZM194.78 273.248L194.78 274.288L201.852 274.288L201.852 273.248L194.78 273.248ZM188.988 277.408L188.988 278.368L193.532 278.368L193.532 277.408L188.988 277.408ZM189.052 273.136L189.052 274.096L193.468 274.096L193.468 273.136L189.052 273.136ZM188.988 279.552L188.988 280.512L193.532 280.512L193.532 279.552L188.988 279.552ZM188.268 275.232L188.268 276.224L193.98 276.224L193.98 275.232L188.268 275.232ZM189.516 281.712L189.516 282.704L192.492 282.704L192.492 285.376L189.516 285.376L189.516 286.384L193.532 286.384L193.532 281.712L189.516 281.712ZM188.972 281.712L188.972 287.12L189.996 287.12L189.996 281.712L188.972 281.712Z" fill="white"/>
</g>
<g clip-path="url(#clip3_40_8605)">
<rect x="40" y="323" width="295" height="50" rx="25" fill="white"/>
<path d="M131.372 352.792L131.372 353.784L145.724 353.784L145.724 352.792L131.372 352.792ZM131.452 342.408L131.452 343.4L145.628 343.4L145.628 342.408L131.452 342.408ZM132.556 350.456L132.556 351.416L144.7 351.416L144.7 350.456L132.556 350.456ZM137.868 340.792L137.868 353.272L139.068 353.272L139.068 340.792L137.868 340.792ZM143.436 339.656C140.908 340.12 136.38 340.408 132.652 340.504C132.764 340.76 132.908 341.176 132.908 341.464C136.652 341.384 141.212 341.112 144.076 340.584L143.436 339.656ZM134.236 347.24L142.892 347.24L142.892 348.472L134.236 348.472L134.236 347.24ZM134.236 345.224L142.892 345.224L142.892 346.44L134.236 346.44L134.236 345.224ZM133.068 344.36L133.068 349.336L144.108 349.336L144.108 344.36L133.068 344.36ZM156.252 344.968L156.252 346.088L162.204 346.088L162.204 344.968L156.252 344.968ZM147.836 341.24L147.836 342.264L154.892 342.264L154.892 341.24L147.836 341.24ZM147.66 347.592L147.66 348.632L154.972 348.632L154.972 347.592L147.66 347.592ZM147.612 344.904L147.612 345.928L155.084 345.928L155.084 344.904L147.612 344.904ZM159.228 345.416L159.228 354.2L160.396 354.2L160.396 345.416L159.228 345.416ZM150.796 339.624L150.796 341.768L151.964 341.768L151.964 339.624L150.796 339.624ZM150.796 345.736L150.796 354.264L151.964 354.264L151.964 345.736L150.796 345.736ZM155.676 340.872L155.676 346.472C155.676 348.744 155.452 351.512 153.404 353.528C153.692 353.688 154.124 354.088 154.268 354.36C156.524 352.136 156.812 348.888 156.812 346.488L156.812 341.544C157.036 341.512 157.132 341.448 157.148 341.32L155.676 340.872ZM161.036 339.752C159.868 340.328 157.756 340.888 155.964 341.272C156.108 341.512 156.268 341.928 156.332 342.184C158.252 341.848 160.492 341.304 161.996 340.632L161.036 339.752ZM151.852 348.936L151.196 349.48C151.788 349.976 153.292 351.384 153.804 351.976L154.508 351.08C154.108 350.712 152.364 349.288 151.852 348.936ZM148.796 342.552C149.116 343.288 149.372 344.248 149.42 344.872L150.428 344.6C150.348 343.992 150.076 343.048 149.74 342.344L148.796 342.552ZM152.892 342.312C152.716 342.984 152.38 343.976 152.092 344.616L153.052 344.84C153.34 344.248 153.676 343.352 153.98 342.552L152.892 342.312ZM150.812 348.12C150.044 349.688 148.588 351.416 147.292 352.264C147.564 352.456 147.916 352.84 148.108 353.112C149.388 352.12 150.86 350.232 151.676 348.456L150.812 348.12ZM170.556 339.56L170.556 341.544L171.756 341.544L171.756 339.56L170.556 339.56ZM164.348 340.856L164.348 343.688L165.468 343.688L165.468 341.896L176.844 341.896L176.844 343.688L177.996 343.688L177.996 340.856L164.348 340.856ZM166.092 343.192L166.092 344.168L176.252 344.168L176.252 343.192L166.092 343.192ZM170.62 342.104C170.348 344.552 169.436 345.608 165.436 346.12C165.628 346.344 165.884 346.776 165.98 347.032C170.332 346.376 171.42 345.032 171.772 342.104L170.62 342.104ZM170.188 345.112C172.092 345.624 174.508 346.52 175.74 347.208L176.348 346.344C175.068 345.656 172.636 344.808 170.78 344.36L170.188 345.112ZM164.092 347.032L164.092 348.104L178.268 348.104L178.268 347.032L164.092 347.032ZM174.764 347.72L174.764 352.904C174.764 353.128 174.684 353.176 174.428 353.208C174.172 353.208 173.292 353.208 172.3 353.176C172.46 353.512 172.636 353.96 172.684 354.28C173.948 354.28 174.78 354.28 175.276 354.104C175.804 353.928 175.948 353.608 175.948 352.936L175.948 347.72L174.764 347.72ZM166.188 349.096L166.188 353.448L167.308 353.448L167.308 349.096L166.188 349.096ZM166.732 349.096L166.732 350.04L171.34 350.04L171.34 351.688L166.732 351.688L166.732 352.632L172.476 352.632L172.476 349.096L166.732 349.096ZM184.588 345.912L184.588 347.016L194.684 347.016L194.684 345.912L184.588 345.912ZM185.1 342.616L185.1 343.688L194.204 343.688L194.204 342.616L185.1 342.616ZM188.876 343.112L188.876 345.496C188.876 347.144 188.588 349.496 184.7 351.064C184.972 351.272 185.34 351.688 185.5 351.944C189.532 350.136 190.076 347.512 190.076 345.512L190.076 343.112L188.876 343.112ZM190.412 346.616L189.372 346.84C190.076 349.448 191.532 351.176 193.948 352.024C194.108 351.704 194.444 351.24 194.716 351C192.428 350.344 191.02 348.856 190.412 346.616ZM183.676 345.88L180.268 345.88L180.268 347L182.508 347L182.508 351.544L183.676 351.544L183.676 345.88ZM183.676 351.016L182.588 351.016C181.772 351.704 180.828 352.408 180.06 352.92L180.7 354.152C181.564 353.448 182.38 352.76 183.148 352.072C184.172 353.336 185.612 353.896 187.692 353.976C189.468 354.04 192.78 354.008 194.54 353.944C194.588 353.576 194.796 353 194.924 352.712C193.036 352.84 189.436 352.888 187.692 352.824C185.852 352.744 184.428 352.2 183.676 351.016ZM180.444 340.68C181.484 341.384 182.684 342.472 183.196 343.24L184.14 342.456C183.596 341.672 182.38 340.632 181.324 339.96L180.444 340.68ZM192.108 339.56C191.772 340.376 191.116 341.528 190.62 342.248L191.596 342.616C192.124 341.944 192.78 340.888 193.324 339.976L192.108 339.56ZM185.724 340.04C186.348 340.84 186.94 341.944 187.148 342.664L188.236 342.184C188.012 341.448 187.388 340.392 186.748 339.624L185.724 340.04ZM204.636 343.416L204.636 344.344L209.052 344.344L209.052 343.416L204.636 343.416ZM204.092 346.184L205.564 346.184L205.564 348.232L204.092 348.232L204.092 346.184ZM203.244 345.352L203.244 349.064L206.46 349.064L206.46 345.352L203.244 345.352ZM208.124 346.184L209.692 346.184L209.692 348.232L208.124 348.232L208.124 346.184ZM207.276 345.352L207.276 349.064L210.604 349.064L210.604 345.352L207.276 345.352ZM204.444 349.496C204.204 351.32 203.548 352.744 202.284 353.624C202.524 353.784 202.908 354.152 203.052 354.344C204.412 353.304 205.18 351.704 205.484 349.56L204.444 349.496ZM204.268 351.56C204.924 352.168 205.724 353.016 206.108 353.56L206.796 352.856C206.412 352.328 205.58 351.528 204.94 350.952L204.268 351.56ZM208.444 349.48C208.188 351.288 207.5 352.696 206.236 353.576C206.492 353.736 206.876 354.12 207.02 354.296C208.38 353.256 209.196 351.672 209.5 349.544L208.444 349.48ZM208.204 351.624C209.036 352.44 210.028 353.576 210.492 354.28L211.276 353.672C210.796 352.984 209.788 351.88 208.972 351.096L208.204 351.624ZM206.748 340.696C207.66 342.168 209.26 343.752 210.78 344.68C210.924 344.376 211.18 343.928 211.404 343.64C209.884 342.84 208.268 341.256 207.26 339.624L206.156 339.624C205.42 341.144 203.868 342.84 202.236 343.784C202.444 344.04 202.7 344.472 202.828 344.76C204.444 343.752 205.948 342.12 206.748 340.696ZM197.756 342.664L197.756 343.608L202.204 343.608L202.204 342.664L197.756 342.664ZM197.756 345.08L197.756 346.008L202.236 346.008L202.236 345.08L197.756 345.08ZM197.148 347.512L197.148 348.472L202.044 348.472L202.044 347.512L197.148 347.512ZM199.564 340.76L199.564 348.008L200.524 348.008L200.524 340.76L199.564 340.76ZM200.044 349.352C200.428 350.008 200.812 350.872 200.972 351.448L201.548 351.208C201.388 350.648 200.988 349.784 200.588 349.16L200.044 349.352ZM199.068 349.576C199.372 350.392 199.628 351.464 199.692 352.168L200.316 352.024C200.252 351.336 199.964 350.264 199.644 349.448L199.068 349.576ZM198.092 349.736C198.236 350.68 198.316 351.864 198.284 352.648L198.94 352.568C198.956 351.784 198.876 350.6 198.716 349.656L198.092 349.736ZM197.036 349.448C196.988 350.792 196.828 352.216 196.284 353.016L196.956 353.4C197.548 352.52 197.708 351 197.772 349.576L197.036 349.448ZM197.148 340.216L197.148 348.04L198.14 348.04L198.14 341.192L202.508 341.192L202.508 340.216L197.148 340.216ZM201.66 347.512L201.66 347.688C201.516 351.528 201.372 352.904 201.1 353.208C200.988 353.368 200.876 353.4 200.684 353.4C200.476 353.4 200.012 353.4 199.484 353.336C199.612 353.592 199.708 354.008 199.74 354.28C200.268 354.312 200.812 354.312 201.116 354.28C201.484 354.248 201.724 354.152 201.948 353.848C202.332 353.384 202.476 351.976 202.636 347.976C202.652 347.816 202.652 347.512 202.652 347.512L201.66 347.512ZM218.668 340.184L218.668 341.144L221.788 341.144L221.788 340.184L218.668 340.184ZM220.46 344.152L220.46 345.112L224.956 345.112L224.956 344.152L220.46 344.152ZM218.236 352.744L218.236 353.8L227.372 353.8L227.372 352.744L218.236 352.744ZM225.756 340.024C225.324 340.456 224.524 341.144 223.98 341.528L224.492 342.04C225.068 341.688 225.804 341.192 226.444 340.68L225.756 340.024ZM226.732 341.688C226.3 342.152 225.468 342.84 224.924 343.224L225.436 343.784C226.028 343.432 226.78 342.904 227.436 342.392L226.732 341.688ZM224.316 349.912C224.156 350.648 223.756 351.736 223.468 352.424L224.428 352.696C224.748 352.04 225.116 351.064 225.452 350.184L224.316 349.912ZM220.076 350.184C220.444 350.984 220.78 352.024 220.876 352.712L221.948 352.392C221.836 351.704 221.484 350.68 221.1 349.928L220.076 350.184ZM220.444 347.096L224.94 347.096L224.94 348.84L220.444 348.84L220.444 347.096ZM219.34 346.136L219.34 349.8L226.092 349.8L226.092 346.136L219.34 346.136ZM218.428 342.344C219.036 342.808 219.74 343.496 220.06 343.976L220.78 343.208C220.444 342.744 219.724 342.104 219.1 341.672L218.428 342.344ZM221.356 340.184L221.356 340.376C220.828 342.632 219.324 344.568 217.692 345.416C217.932 345.64 218.236 346.056 218.38 346.328C220.188 345.256 221.756 343.176 222.428 340.408L221.74 340.136L221.548 340.184L221.356 340.184ZM223.852 339.608L222.844 339.832C223.548 342.584 224.876 344.92 226.876 346.072C227.052 345.784 227.388 345.352 227.66 345.144C225.788 344.2 224.476 342.024 223.852 339.608ZM213.436 344.408L213.436 345.368L217.756 345.368L217.756 344.408L213.436 344.408ZM213.516 340.136L213.516 341.096L217.692 341.096L217.692 340.136L213.516 340.136ZM213.436 346.552L213.436 347.512L217.756 347.512L217.756 346.552L213.436 346.552ZM212.748 342.232L212.748 343.224L218.22 343.224L218.22 342.232L212.748 342.232ZM213.996 348.712L213.996 349.704L216.748 349.704L216.748 352.376L213.996 352.376L213.996 353.368L217.756 353.368L217.756 348.712L213.996 348.712ZM213.404 348.712L213.404 354.12L214.428 354.12L214.428 348.712L213.404 348.712ZM229.228 340.328L229.228 341.432L235.1 341.432L235.1 340.328L229.228 340.328ZM230.876 345.32L230.876 346.376L233.436 346.376L233.436 351.176L230.876 351.176L230.876 352.232L234.508 352.232L234.508 345.32L230.876 345.32ZM231.164 340.856C230.78 343.864 230.108 346.728 228.844 348.552C229.068 348.808 229.436 349.384 229.548 349.64C231.004 347.544 231.82 344.392 232.316 341.032L231.164 340.856ZM230.348 345.32L230.348 353.56L231.404 353.56L231.404 345.32L230.348 345.32ZM236.38 342.76L236.38 343.736L242.86 343.736L242.86 342.76L236.38 342.76ZM236.38 345.224L236.38 346.216L242.86 346.216L242.86 345.224L236.38 345.224ZM235.788 347.736L235.788 348.792L242.812 348.792L242.812 347.736L235.788 347.736ZM239.1 340.792L239.1 348.184L240.188 348.184L240.188 340.792L239.1 340.792ZM237.116 350.072C237.292 351.016 237.388 352.232 237.356 353.032L238.236 352.888C238.252 352.104 238.14 350.904 237.948 349.944L237.116 350.072ZM238.812 349.944C239.132 350.728 239.436 351.768 239.532 352.424L240.364 352.184C240.236 351.528 239.932 350.504 239.596 349.736L238.812 349.944ZM240.428 349.592C240.844 350.2 241.292 351 241.484 351.528L242.204 351.192C241.996 350.696 241.532 349.896 241.068 349.32L240.428 349.592ZM235.564 349.576C235.42 350.888 235.1 352.28 234.396 353.08L235.244 353.56C236.012 352.68 236.316 351.192 236.476 349.8L235.564 349.576ZM235.788 340.248L235.788 348.264L236.892 348.264L236.892 341.304L243.26 341.304L243.26 340.248L235.788 340.248ZM242.46 347.736L242.46 347.928C242.316 351.496 242.124 352.808 241.836 353.128C241.708 353.272 241.58 353.304 241.324 353.304C241.084 353.304 240.444 353.288 239.756 353.224C239.932 353.528 240.044 353.96 240.06 354.28C240.764 354.312 241.452 354.312 241.82 354.28C242.252 354.248 242.524 354.136 242.78 353.832C243.196 353.368 243.372 351.992 243.548 348.232C243.564 348.072 243.564 347.736 243.564 347.736L242.46 347.736Z" fill="#A8ABBD"/>
</g>
<rect x="41" y="324" width="293" height="48" rx="24" stroke="#A8ABBD" stroke-width="2"/>
<rect x="40.5" y="176.5" width="294" height="49" rx="24.5" fill="#4A4D5A" stroke="#6F7387"/>
<path d="M67.0752 200.23V201.748C67.0752 202.564 67.0023 203.252 66.8564 203.812C66.7106 204.373 66.501 204.824 66.2275 205.166C65.9541 205.508 65.6237 205.756 65.2363 205.911C64.8535 206.062 64.4206 206.137 63.9375 206.137C63.5547 206.137 63.2015 206.089 62.8779 205.993C62.5544 205.897 62.2627 205.745 62.0029 205.535C61.7477 205.321 61.529 205.043 61.3467 204.701C61.1644 204.359 61.0254 203.945 60.9297 203.457C60.834 202.969 60.7861 202.4 60.7861 201.748V200.23C60.7861 199.415 60.859 198.731 61.0049 198.18C61.1553 197.628 61.3672 197.186 61.6406 196.854C61.9141 196.516 62.2422 196.275 62.625 196.129C63.0124 195.983 63.4453 195.91 63.9238 195.91C64.3112 195.91 64.6667 195.958 64.9902 196.054C65.3184 196.145 65.61 196.293 65.8652 196.498C66.1204 196.699 66.3369 196.967 66.5146 197.305C66.6969 197.637 66.8359 198.045 66.9316 198.528C67.0273 199.011 67.0752 199.579 67.0752 200.23ZM65.8037 201.953V200.019C65.8037 199.572 65.7764 199.18 65.7217 198.843C65.6715 198.501 65.5964 198.209 65.4961 197.968C65.3958 197.726 65.2682 197.53 65.1133 197.38C64.9629 197.229 64.7874 197.12 64.5869 197.052C64.391 196.979 64.1699 196.942 63.9238 196.942C63.623 196.942 63.3564 196.999 63.124 197.113C62.8916 197.223 62.6956 197.398 62.5361 197.64C62.3812 197.881 62.2627 198.198 62.1807 198.59C62.0986 198.982 62.0576 199.458 62.0576 200.019V201.953C62.0576 202.4 62.0827 202.794 62.1328 203.136C62.1875 203.478 62.2673 203.774 62.3721 204.024C62.4769 204.271 62.6045 204.473 62.7549 204.633C62.9053 204.792 63.0785 204.911 63.2744 204.988C63.4749 205.061 63.696 205.098 63.9375 205.098C64.2474 205.098 64.5186 205.038 64.751 204.92C64.9834 204.801 65.1771 204.617 65.332 204.366C65.4915 204.111 65.61 203.785 65.6875 203.389C65.765 202.988 65.8037 202.509 65.8037 201.953ZM74.9852 200.23V201.748C74.9852 202.564 74.9123 203.252 74.7664 203.812C74.6206 204.373 74.411 204.824 74.1375 205.166C73.8641 205.508 73.5337 205.756 73.1463 205.911C72.7635 206.062 72.3306 206.137 71.8475 206.137C71.4647 206.137 71.1115 206.089 70.7879 205.993C70.4644 205.897 70.1727 205.745 69.9129 205.535C69.6577 205.321 69.439 205.043 69.2567 204.701C69.0744 204.359 68.9354 203.945 68.8397 203.457C68.744 202.969 68.6961 202.4 68.6961 201.748V200.23C68.6961 199.415 68.769 198.731 68.9149 198.18C69.0653 197.628 69.2772 197.186 69.5506 196.854C69.8241 196.516 70.1522 196.275 70.535 196.129C70.9224 195.983 71.3553 195.91 71.8338 195.91C72.2212 195.91 72.5767 195.958 72.9002 196.054C73.2284 196.145 73.52 196.293 73.7752 196.498C74.0304 196.699 74.2469 196.967 74.4246 197.305C74.6069 197.637 74.7459 198.045 74.8416 198.528C74.9373 199.011 74.9852 199.579 74.9852 200.23ZM73.7137 201.953V200.019C73.7137 199.572 73.6864 199.18 73.6317 198.843C73.5815 198.501 73.5064 198.209 73.4061 197.968C73.3058 197.726 73.1782 197.53 73.0233 197.38C72.8729 197.229 72.6974 197.12 72.4969 197.052C72.301 196.979 72.0799 196.942 71.8338 196.942C71.533 196.942 71.2664 196.999 71.034 197.113C70.8016 197.223 70.6056 197.398 70.4461 197.64C70.2912 197.881 70.1727 198.198 70.0907 198.59C70.0086 198.982 69.9676 199.458 69.9676 200.019V201.953C69.9676 202.4 69.9927 202.794 70.0428 203.136C70.0975 203.478 70.1773 203.774 70.2821 204.024C70.3869 204.271 70.5145 204.473 70.6649 204.633C70.8153 204.792 70.9885 204.911 71.1844 204.988C71.3849 205.061 71.606 205.098 71.8475 205.098C72.1574 205.098 72.4286 205.038 72.661 204.92C72.8934 204.801 73.0871 204.617 73.242 204.366C73.4015 204.111 73.52 203.785 73.5975 203.389C73.675 202.988 73.7137 202.509 73.7137 201.953ZM82.8952 200.23V201.748C82.8952 202.564 82.8223 203.252 82.6764 203.812C82.5306 204.373 82.321 204.824 82.0475 205.166C81.7741 205.508 81.4437 205.756 81.0563 205.911C80.6735 206.062 80.2406 206.137 79.7575 206.137C79.3747 206.137 79.0215 206.089 78.6979 205.993C78.3744 205.897 78.0827 205.745 77.8229 205.535C77.5677 205.321 77.349 205.043 77.1667 204.701C76.9844 204.359 76.8454 203.945 76.7497 203.457C76.654 202.969 76.6061 202.4 76.6061 201.748V200.23C76.6061 199.415 76.679 198.731 76.8249 198.18C76.9753 197.628 77.1872 197.186 77.4606 196.854C77.7341 196.516 78.0622 196.275 78.445 196.129C78.8324 195.983 79.2653 195.91 79.7438 195.91C80.1312 195.91 80.4867 195.958 80.8102 196.054C81.1384 196.145 81.43 196.293 81.6852 196.498C81.9404 196.699 82.1569 196.967 82.3346 197.305C82.5169 197.637 82.6559 198.045 82.7516 198.528C82.8473 199.011 82.8952 199.579 82.8952 200.23ZM81.6237 201.953V200.019C81.6237 199.572 81.5964 199.18 81.5417 198.843C81.4915 198.501 81.4164 198.209 81.3161 197.968C81.2158 197.726 81.0882 197.53 80.9333 197.38C80.7829 197.229 80.6074 197.12 80.4069 197.052C80.211 196.979 79.9899 196.942 79.7438 196.942C79.443 196.942 79.1764 196.999 78.944 197.113C78.7116 197.223 78.5156 197.398 78.3561 197.64C78.2012 197.881 78.0827 198.198 78.0007 198.59C77.9186 198.982 77.8776 199.458 77.8776 200.019V201.953C77.8776 202.4 77.9027 202.794 77.9528 203.136C78.0075 203.478 78.0873 203.774 78.1921 204.024C78.2969 204.271 78.4245 204.473 78.5749 204.633C78.7253 204.792 78.8985 204.911 79.0944 204.988C79.2949 205.061 79.516 205.098 79.7575 205.098C80.0674 205.098 80.3386 205.038 80.571 204.92C80.8034 204.801 80.9971 204.617 81.152 204.366C81.3115 204.111 81.43 203.785 81.5075 203.389C81.585 202.988 81.6237 202.509 81.6237 201.953ZM87.3257 201.249V202.288H83.9898V201.249H87.3257ZM94.7093 200.23V201.748C94.7093 202.564 94.6364 203.252 94.4906 203.812C94.3448 204.373 94.1351 204.824 93.8617 205.166C93.5882 205.508 93.2578 205.756 92.8705 205.911C92.4877 206.062 92.0547 206.137 91.5716 206.137C91.1888 206.137 90.8356 206.089 90.5121 205.993C90.1885 205.897 89.8968 205.745 89.6371 205.535C89.3819 205.321 89.1631 205.043 88.9808 204.701C88.7985 204.359 88.6595 203.945 88.5638 203.457C88.4681 202.969 88.4203 202.4 88.4203 201.748V200.23C88.4203 199.415 88.4932 198.731 88.639 198.18C88.7894 197.628 89.0013 197.186 89.2748 196.854C89.5482 196.516 89.8763 196.275 90.2591 196.129C90.6465 195.983 91.0795 195.91 91.558 195.91C91.9453 195.91 92.3008 195.958 92.6244 196.054C92.9525 196.145 93.2442 196.293 93.4994 196.498C93.7546 196.699 93.9711 196.967 94.1488 197.305C94.3311 197.637 94.4701 198.045 94.5658 198.528C94.6615 199.011 94.7093 199.579 94.7093 200.23ZM93.4379 201.953V200.019C93.4379 199.572 93.4105 199.18 93.3558 198.843C93.3057 198.501 93.2305 198.209 93.1302 197.968C93.03 197.726 92.9024 197.53 92.7474 197.38C92.597 197.229 92.4216 197.12 92.2211 197.052C92.0251 196.979 91.8041 196.942 91.558 196.942C91.2572 196.942 90.9906 196.999 90.7582 197.113C90.5257 197.223 90.3298 197.398 90.1703 197.64C90.0153 197.881 89.8968 198.198 89.8148 198.59C89.7328 198.982 89.6918 199.458 89.6918 200.019V201.953C89.6918 202.4 89.7168 202.794 89.767 203.136C89.8216 203.478 89.9014 203.774 90.0062 204.024C90.111 204.271 90.2386 204.473 90.389 204.633C90.5394 204.792 90.7126 204.911 90.9086 204.988C91.1091 205.061 91.3301 205.098 91.5716 205.098C91.8815 205.098 92.1527 205.038 92.3851 204.92C92.6175 204.801 92.8112 204.617 92.9662 204.366C93.1257 204.111 93.2442 203.785 93.3216 203.389C93.3991 202.988 93.4379 202.509 93.4379 201.953ZM102.619 200.23V201.748C102.619 202.564 102.546 203.252 102.401 203.812C102.255 204.373 102.045 204.824 101.772 205.166C101.498 205.508 101.168 205.756 100.78 205.911C100.398 206.062 99.9647 206.137 99.4816 206.137C99.0988 206.137 98.7456 206.089 98.4221 205.993C98.0985 205.897 97.8068 205.745 97.5471 205.535C97.2919 205.321 97.0731 205.043 96.8908 204.701C96.7085 204.359 96.5695 203.945 96.4738 203.457C96.3781 202.969 96.3303 202.4 96.3303 201.748V200.23C96.3303 199.415 96.4032 198.731 96.549 198.18C96.6994 197.628 96.9113 197.186 97.1848 196.854C97.4582 196.516 97.7863 196.275 98.1691 196.129C98.5565 195.983 98.9895 195.91 99.468 195.91C99.8553 195.91 100.211 195.958 100.534 196.054C100.862 196.145 101.154 196.293 101.409 196.498C101.665 196.699 101.881 196.967 102.059 197.305C102.241 197.637 102.38 198.045 102.476 198.528C102.571 199.011 102.619 199.579 102.619 200.23ZM101.348 201.953V200.019C101.348 199.572 101.321 199.18 101.266 198.843C101.216 198.501 101.14 198.209 101.04 197.968C100.94 197.726 100.812 197.53 100.657 197.38C100.507 197.229 100.332 197.12 100.131 197.052C99.9351 196.979 99.7141 196.942 99.468 196.942C99.1672 196.942 98.9006 196.999 98.6682 197.113C98.4357 197.223 98.2398 197.398 98.0803 197.64C97.9253 197.881 97.8068 198.198 97.7248 198.59C97.6428 198.982 97.6018 199.458 97.6018 200.019V201.953C97.6018 202.4 97.6268 202.794 97.677 203.136C97.7316 203.478 97.8114 203.774 97.9162 204.024C98.021 204.271 98.1486 204.473 98.299 204.633C98.4494 204.792 98.6226 204.911 98.8186 204.988C99.0191 205.061 99.2401 205.098 99.4816 205.098C99.7915 205.098 100.063 205.038 100.295 204.92C100.528 204.801 100.721 204.617 100.876 204.366C101.036 204.111 101.154 203.785 101.232 203.389C101.309 202.988 101.348 202.509 101.348 201.953ZM110.529 200.23V201.748C110.529 202.564 110.456 203.252 110.311 203.812C110.165 204.373 109.955 204.824 109.682 205.166C109.408 205.508 109.078 205.756 108.69 205.911C108.308 206.062 107.875 206.137 107.392 206.137C107.009 206.137 106.656 206.089 106.332 205.993C106.009 205.897 105.717 205.745 105.457 205.535C105.202 205.321 104.983 205.043 104.801 204.701C104.619 204.359 104.48 203.945 104.384 203.457C104.288 202.969 104.24 202.4 104.24 201.748V200.23C104.24 199.415 104.313 198.731 104.459 198.18C104.609 197.628 104.821 197.186 105.095 196.854C105.368 196.516 105.696 196.275 106.079 196.129C106.467 195.983 106.899 195.91 107.378 195.91C107.765 195.91 108.121 195.958 108.444 196.054C108.772 196.145 109.064 196.293 109.319 196.498C109.575 196.699 109.791 196.967 109.969 197.305C110.151 197.637 110.29 198.045 110.386 198.528C110.481 199.011 110.529 199.579 110.529 200.23ZM109.258 201.953V200.019C109.258 199.572 109.231 199.18 109.176 198.843C109.126 198.501 109.05 198.209 108.95 197.968C108.85 197.726 108.722 197.53 108.567 197.38C108.417 197.229 108.242 197.12 108.041 197.052C107.845 196.979 107.624 196.942 107.378 196.942C107.077 196.942 106.811 196.999 106.578 197.113C106.346 197.223 106.15 197.398 105.99 197.64C105.835 197.881 105.717 198.198 105.635 198.59C105.553 198.982 105.512 199.458 105.512 200.019V201.953C105.512 202.4 105.537 202.794 105.587 203.136C105.642 203.478 105.721 203.774 105.826 204.024C105.931 204.271 106.059 204.473 106.209 204.633C106.359 204.792 106.533 204.911 106.729 204.988C106.929 205.061 107.15 205.098 107.392 205.098C107.702 205.098 107.973 205.038 108.205 204.92C108.438 204.801 108.631 204.617 108.786 204.366C108.946 204.111 109.064 203.785 109.142 203.389C109.219 202.988 109.258 202.509 109.258 201.953Z" fill="white"/>
</g>
<defs>
<clipPath id="clip0_40_8605">
<rect width="375" height="812" fill="white"/>
</clipPath>
<clipPath id="clip1_40_8605">
<rect width="375" height="44" fill="white"/>
</clipPath>
<clipPath id="clip2_40_8605">
<rect x="40" y="256" width="295" height="50" rx="25" fill="white"/>
</clipPath>
<clipPath id="clip3_40_8605">
<rect x="40" y="323" width="295" height="50" rx="25" fill="white"/>
</clipPath>
</defs>
</svg>
