<svg width="375" height="44" viewBox="0 0 375 44" fill="none" xmlns="http://www.w3.org/2000/svg">
<g clip-path="url(#clip0_39_9257)">
<rect x="10" y="42" width="176" height="2" rx="1" fill="#6F7387"/>
<path d="M81.537 16.448V17.252H85.689V16.448H81.537ZM82.521 18.968V19.724H84.681V18.968H82.521ZM82.521 21.44V22.208H84.681V21.44H82.521ZM82.149 16.856V24.536H82.905V16.856H82.149ZM84.249 16.844V26.972H85.029V16.844H84.249ZM81.405 24.404L81.573 25.244C82.485 25.052 83.613 24.8 84.717 24.548L84.657 23.768C83.445 24.02 82.245 24.26 81.405 24.404ZM85.293 23.6L85.593 24.368C86.337 24.116 87.237 23.804 88.125 23.492L88.041 22.844C87.009 23.144 86.013 23.42 85.293 23.6ZM86.061 17.048V23.588H86.793V17.336L86.061 17.048ZM87.849 18.056V21.692C87.849 23.504 87.621 25.184 85.665 26.42C85.845 26.54 86.085 26.816 86.193 26.972C88.317 25.628 88.593 23.744 88.593 21.704V18.056H87.849ZM91.341 16.772V23.612C91.341 23.72 91.305 23.756 91.209 23.756C91.125 23.756 90.837 23.756 90.513 23.744C90.621 23.948 90.729 24.284 90.753 24.488C91.245 24.488 91.569 24.464 91.809 24.332C92.037 24.2 92.097 23.972 92.097 23.624V16.772H91.341ZM88.281 15.944C87.753 16.388 86.853 17 86.205 17.336L86.733 17.828C87.393 17.492 88.257 16.976 88.905 16.472L88.281 15.944ZM89.445 16.772V26.96H90.189V17.528H91.773V16.772H89.445ZM99.507 20.936L98.631 21.128C99.459 24.176 101.055 26.156 103.971 26.984C104.115 26.732 104.379 26.348 104.595 26.144C101.787 25.46 100.203 23.624 99.507 20.936ZM94.095 20.588V21.5H103.971V20.588H94.095ZM93.723 16.856V17.768H104.283V16.856H93.723ZM98.451 17.108V19.904C98.451 22.1 97.983 24.68 93.495 26.204C93.687 26.384 93.951 26.768 94.047 26.996C98.859 25.328 99.399 22.436 99.399 19.904V17.108H98.451Z" fill="#6F7387"/>
<rect x="189" y="42" width="176" height="2" rx="1" fill="#FF4E84"/>
<path d="M253.653 20.804C252.549 23.84 250.029 25.4 246.393 26.156C246.585 26.372 246.873 26.78 246.969 27.008C250.653 26.084 253.293 24.416 254.613 21.068L253.653 20.804ZM249.741 18.74C249.009 19.76 247.737 20.756 246.561 21.38C246.789 21.548 247.137 21.908 247.293 22.1C248.457 21.368 249.801 20.24 250.653 19.088L249.741 18.74ZM250.221 20.864L249.369 21.128C250.653 24.32 253.065 26.24 256.893 26.972C257.025 26.72 257.289 26.312 257.493 26.108C253.773 25.496 251.337 23.708 250.221 20.864ZM246.657 17.492V18.368H257.193V17.492H246.657ZM251.433 15.908V18.056H252.357V15.908H251.433ZM253.329 19.244C254.481 20.024 255.873 21.188 256.521 21.98L257.301 21.356C256.617 20.564 255.201 19.448 254.073 18.692L253.329 19.244ZM264.147 15.92C263.787 16.928 263.007 18.14 261.795 19.016C261.987 19.124 262.263 19.376 262.407 19.568C263.727 18.56 264.519 17.264 265.011 16.052L264.147 15.92ZM264.195 16.844L263.751 17.576H266.775V16.844H264.195ZM264.603 19.232C264.555 20.312 264.315 20.936 263.391 21.308C263.535 21.416 263.739 21.656 263.823 21.824C264.915 21.344 265.215 20.54 265.299 19.232H264.603ZM266.103 19.256V20.636C266.103 21.32 266.271 21.476 266.991 21.476C267.123 21.476 267.843 21.476 267.987 21.476C268.431 21.476 268.647 21.344 268.719 20.996C268.515 20.96 268.239 20.876 268.095 20.768C268.083 20.828 268.035 20.852 267.867 20.852C267.723 20.852 267.183 20.852 267.075 20.852C266.823 20.852 266.799 20.828 266.799 20.636V19.256H266.103ZM261.963 23.156V23.936H269.355V23.156H261.963ZM266.115 23.42L265.323 23.528C265.875 25.34 267.027 26.456 268.995 26.936C269.115 26.708 269.331 26.36 269.535 26.18C267.723 25.832 266.595 24.896 266.115 23.42ZM263.415 18.764H262.635V22.724H263.415V19.496H268.347V18.764H263.415ZM268.107 18.764V22.676H268.899V18.764H268.107ZM266.475 16.844V17.012C266.283 17.564 265.863 18.416 265.503 18.92C265.683 19.016 265.959 19.172 266.115 19.292C266.523 18.752 267.051 17.9 267.363 17.18L266.799 16.808L266.655 16.844H266.475ZM265.263 22.076C265.083 24.38 264.543 25.688 261.543 26.3C261.711 26.468 261.927 26.78 261.999 26.996C265.215 26.252 265.887 24.728 266.103 22.076H265.263ZM258.279 22.148L258.519 23.024C259.539 22.7 260.859 22.268 262.107 21.836L261.987 21.008C260.619 21.452 259.215 21.884 258.279 22.148ZM258.447 18.344V19.184H262.095V18.344H258.447ZM259.959 15.932V25.916C259.959 26.096 259.887 26.132 259.743 26.132C259.599 26.144 259.143 26.144 258.615 26.132C258.735 26.384 258.843 26.756 258.879 26.972C259.635 26.972 260.103 26.948 260.379 26.804C260.679 26.66 260.799 26.42 260.799 25.916V15.932H259.959ZM270.537 16.436V17.252H274.773V16.436H270.537ZM271.641 18.956V19.712H273.813V18.956H271.641ZM275.205 24.044V24.692H277.005V24.044H275.205ZM278.877 24.044V24.692H280.773V24.044H278.877ZM271.641 21.428V22.196H273.813V21.428H271.641ZM271.173 16.844V24.524H271.941V16.844H271.173ZM273.321 16.844V26.96H274.101V16.844H273.321ZM278.445 21.644V26.96H279.201V21.644H278.445ZM274.929 22.1V25.244H275.625V22.1H274.929ZM280.353 22.1V25.208H281.073V22.1H280.353ZM270.405 24.38L270.561 25.232C271.497 25.04 272.649 24.788 273.777 24.548L273.717 23.756C272.481 24.008 271.257 24.248 270.405 24.38ZM276.717 21.668V23.576C276.717 24.632 276.537 25.652 275.061 26.396C275.217 26.528 275.445 26.816 275.541 26.996C277.233 26.156 277.461 24.92 277.461 23.588V21.668H276.717ZM274.521 20.72L274.617 21.38C275.445 21.32 276.465 21.224 277.509 21.128V20.504C276.369 20.588 275.301 20.672 274.521 20.72ZM274.689 17.984C275.253 18.44 275.853 19.112 276.117 19.58L276.549 19.004C276.297 18.536 275.673 17.912 275.121 17.468L274.689 17.984ZM276.717 19.796C277.053 20.36 277.365 21.092 277.437 21.572L278.049 21.344C277.953 20.864 277.641 20.144 277.281 19.616L276.717 19.796ZM276.201 15.932C275.973 16.556 275.553 17.492 275.217 18.056L275.733 18.272C276.105 17.744 276.573 16.892 276.957 16.184L276.201 15.932ZM277.041 17.384C276.573 18.44 275.757 19.94 275.085 20.84L275.601 21.056C276.273 20.192 277.125 18.764 277.737 17.636L277.041 17.384ZM278.049 20.684L278.169 21.356C278.997 21.284 280.005 21.188 281.037 21.092L281.025 20.468C279.897 20.552 278.829 20.636 278.049 20.684ZM278.001 17.96C278.589 18.428 279.225 19.112 279.501 19.604L279.945 19.004C279.669 18.524 279.021 17.876 278.421 17.42L278.001 17.96ZM280.137 19.784C280.509 20.384 280.857 21.164 280.953 21.668L281.577 21.428C281.469 20.924 281.109 20.156 280.713 19.58L280.137 19.784ZM279.561 15.932C279.333 16.568 278.901 17.492 278.553 18.056L279.105 18.284C279.477 17.756 279.945 16.904 280.329 16.184L279.561 15.932ZM280.437 17.36C279.969 18.404 279.153 19.916 278.481 20.804L278.997 21.044C279.693 20.18 280.545 18.752 281.169 17.624L280.437 17.36ZM287.679 22.544V26.984H288.531V23.336H291.903V26.96H292.779V22.544H287.679ZM288.195 25.592V26.396H292.203V25.592H288.195ZM289.119 15.932C288.651 17.06 287.739 18.464 286.419 19.508C286.599 19.616 286.887 19.904 287.031 20.084C288.447 18.908 289.395 17.408 290.007 16.076L289.119 15.932ZM288.903 17.096L288.507 17.888H292.203V17.096H288.903ZM291.927 17.096V17.264C291.087 19.604 288.951 21.32 286.683 22.172C286.863 22.328 287.139 22.676 287.247 22.892C289.563 21.932 291.795 20.084 292.815 17.372L292.275 17.06L292.119 17.096H291.927ZM288.759 17.936L288.015 18.236C289.143 20.18 291.135 21.872 293.211 22.688C293.343 22.472 293.595 22.136 293.799 21.956C291.759 21.26 289.755 19.676 288.759 17.936ZM284.355 15.932C284.043 16.724 283.491 17.876 283.035 18.56L283.659 18.848C284.127 18.188 284.691 17.12 285.147 16.244L284.355 15.932ZM285.699 17.3C285.063 18.596 283.935 20.42 283.047 21.5L283.599 21.812C284.487 20.756 285.639 19.016 286.455 17.636L285.699 17.3ZM282.459 18.452C283.107 19.028 283.863 19.868 284.187 20.432L284.667 19.748C284.343 19.208 283.587 18.428 282.915 17.864L282.459 18.452ZM285.279 20.084C285.747 20.876 286.203 21.908 286.347 22.568L287.031 22.268C286.863 21.62 286.395 20.6 285.903 19.832L285.279 20.084ZM282.423 21.308L282.495 22.124C283.587 22.052 285.039 21.968 286.479 21.872L286.491 21.128C284.967 21.212 283.467 21.272 282.423 21.308ZM285.591 22.916C285.891 23.612 286.215 24.536 286.323 25.136L287.019 24.896C286.899 24.296 286.575 23.384 286.239 22.712L285.591 22.916ZM283.095 22.784C282.951 23.84 282.711 24.908 282.315 25.64C282.507 25.724 282.867 25.892 283.023 25.988C283.407 25.22 283.707 24.056 283.875 22.928L283.095 22.784ZM284.391 21.644V26.996H285.195V21.644H284.391ZM294.669 17.996V18.86H305.409V17.996H294.669ZM298.593 20.84V21.704H303.393V20.84H298.593ZM303.069 20.84L303.057 20.996C302.853 24.284 302.613 25.628 302.229 25.976C302.097 26.096 301.929 26.108 301.665 26.108C301.353 26.108 300.501 26.108 299.637 26.024C299.805 26.276 299.937 26.648 299.949 26.912C300.765 26.948 301.557 26.972 301.977 26.948C302.433 26.912 302.733 26.828 303.009 26.54C303.477 26.06 303.717 24.728 303.957 21.272C303.981 21.14 303.993 20.84 303.993 20.84H303.069ZM298.389 18.476C298.257 21.344 298.053 24.692 294.549 26.276C294.777 26.456 295.065 26.78 295.197 27.008C298.857 25.256 299.205 21.656 299.385 18.476H298.389ZM299.529 15.896V18.368H300.453V15.896H299.529ZM314.583 16.52C315.207 16.952 315.939 17.6 316.299 18.032L316.935 17.468C316.563 17.048 315.807 16.424 315.183 16.004L314.583 16.52ZM306.735 18.164V19.04H317.427V18.164H306.735ZM307.143 20.84V21.716H312.447V20.84H307.143ZM309.303 21.308V25.592H310.203V21.308H309.303ZM306.783 25.712L307.059 26.612C308.607 26.264 310.803 25.76 312.855 25.28L312.783 24.476C310.563 24.956 308.211 25.436 306.783 25.712ZM312.843 15.98C312.891 21.788 313.863 26.984 316.251 26.984C317.175 26.984 317.523 26.372 317.679 24.272C317.427 24.188 317.079 23.984 316.875 23.78C316.803 25.388 316.659 26.048 316.323 26.048C314.847 26.048 313.767 21.548 313.803 15.98H312.843Z" fill="white"/>
</g>
<defs>
<clipPath id="clip0_39_9257">
<rect width="375" height="44" fill="white"/>
</clipPath>
</defs>
</svg>
