<svg width="375" height="44" viewBox="0 0 375 44" fill="none" xmlns="http://www.w3.org/2000/svg">
<rect x="131" y="42" width="114" height="2" rx="1" fill="#6F7387"/>
<path d="M164.507 16.436V17.252H168.743V16.436H164.507ZM165.611 18.956V19.712H167.783V18.956H165.611ZM169.175 24.044V24.692H170.975V24.044H169.175ZM172.847 24.044V24.692H174.743V24.044H172.847ZM165.611 21.428V22.196H167.783V21.428H165.611ZM165.143 16.844V24.524H165.911V16.844H165.143ZM167.291 16.844V26.96H168.071V16.844H167.291ZM172.415 21.644V26.96H173.171V21.644H172.415ZM168.899 22.1V25.244H169.595V22.1H168.899ZM174.323 22.1V25.208H175.043V22.1H174.323ZM164.375 24.38L164.531 25.232C165.467 25.04 166.619 24.788 167.747 24.548L167.687 23.756C166.451 24.008 165.227 24.248 164.375 24.38ZM170.687 21.668V23.576C170.687 24.632 170.507 25.652 169.031 26.396C169.187 26.528 169.415 26.816 169.511 26.996C171.203 26.156 171.431 24.92 171.431 23.588V21.668H170.687ZM168.491 20.72L168.587 21.38C169.415 21.32 170.435 21.224 171.479 21.128V20.504C170.339 20.588 169.271 20.672 168.491 20.72ZM168.659 17.984C169.223 18.44 169.823 19.112 170.087 19.58L170.519 19.004C170.267 18.536 169.643 17.912 169.091 17.468L168.659 17.984ZM170.687 19.796C171.023 20.36 171.335 21.092 171.407 21.572L172.019 21.344C171.923 20.864 171.611 20.144 171.251 19.616L170.687 19.796ZM170.171 15.932C169.943 16.556 169.523 17.492 169.187 18.056L169.703 18.272C170.075 17.744 170.543 16.892 170.927 16.184L170.171 15.932ZM171.011 17.384C170.543 18.44 169.727 19.94 169.055 20.84L169.571 21.056C170.243 20.192 171.095 18.764 171.707 17.636L171.011 17.384ZM172.019 20.684L172.139 21.356C172.967 21.284 173.975 21.188 175.007 21.092L174.995 20.468C173.867 20.552 172.799 20.636 172.019 20.684ZM171.971 17.96C172.559 18.428 173.195 19.112 173.471 19.604L173.915 19.004C173.639 18.524 172.991 17.876 172.391 17.42L171.971 17.96ZM174.107 19.784C174.479 20.384 174.827 21.164 174.923 21.668L175.547 21.428C175.439 20.924 175.079 20.156 174.683 19.58L174.107 19.784ZM173.531 15.932C173.303 16.568 172.871 17.492 172.523 18.056L173.075 18.284C173.447 17.756 173.915 16.904 174.299 16.184L173.531 15.932ZM174.407 17.36C173.939 18.404 173.123 19.916 172.451 20.804L172.967 21.044C173.663 20.18 174.515 18.752 175.139 17.624L174.407 17.36ZM181.649 22.544V26.984H182.501V23.336H185.873V26.96H186.749V22.544H181.649ZM182.165 25.592V26.396H186.173V25.592H182.165ZM183.089 15.932C182.621 17.06 181.709 18.464 180.389 19.508C180.569 19.616 180.857 19.904 181.001 20.084C182.417 18.908 183.365 17.408 183.977 16.076L183.089 15.932ZM182.873 17.096L182.477 17.888H186.173V17.096H182.873ZM185.897 17.096V17.264C185.057 19.604 182.921 21.32 180.653 22.172C180.833 22.328 181.109 22.676 181.217 22.892C183.533 21.932 185.765 20.084 186.785 17.372L186.245 17.06L186.089 17.096H185.897ZM182.729 17.936L181.985 18.236C183.113 20.18 185.105 21.872 187.181 22.688C187.313 22.472 187.565 22.136 187.769 21.956C185.729 21.26 183.725 19.676 182.729 17.936ZM178.325 15.932C178.013 16.724 177.461 17.876 177.005 18.56L177.629 18.848C178.097 18.188 178.661 17.12 179.117 16.244L178.325 15.932ZM179.669 17.3C179.033 18.596 177.905 20.42 177.017 21.5L177.569 21.812C178.457 20.756 179.609 19.016 180.425 17.636L179.669 17.3ZM176.429 18.452C177.077 19.028 177.833 19.868 178.157 20.432L178.637 19.748C178.313 19.208 177.557 18.428 176.885 17.864L176.429 18.452ZM179.249 20.084C179.717 20.876 180.173 21.908 180.317 22.568L181.001 22.268C180.833 21.62 180.365 20.6 179.873 19.832L179.249 20.084ZM176.393 21.308L176.465 22.124C177.557 22.052 179.009 21.968 180.449 21.872L180.461 21.128C178.937 21.212 177.437 21.272 176.393 21.308ZM179.561 22.916C179.861 23.612 180.185 24.536 180.293 25.136L180.989 24.896C180.869 24.296 180.545 23.384 180.209 22.712L179.561 22.916ZM177.065 22.784C176.921 23.84 176.681 24.908 176.285 25.64C176.477 25.724 176.837 25.892 176.993 25.988C177.377 25.22 177.677 24.056 177.845 22.928L177.065 22.784ZM178.361 21.644V26.996H179.165V21.644H178.361ZM189.167 16.808C190.007 17.072 191.123 17.504 191.687 17.816L192.083 17.12C191.507 16.82 190.391 16.412 189.563 16.196L189.167 16.808ZM188.567 19.34L188.915 20.132C189.827 19.856 190.955 19.484 192.047 19.136L191.951 18.428C190.703 18.776 189.431 19.136 188.567 19.34ZM193.715 16.808L193.187 17.492H198.539V16.808H193.715ZM198.299 16.808V16.94C198.059 17.444 197.651 18.044 197.267 18.416L197.987 18.668C198.419 18.248 198.863 17.576 199.199 16.952L198.599 16.772L198.443 16.808H198.299ZM195.203 17.048C194.999 18.416 194.351 19.16 192.131 19.532C192.287 19.688 192.479 19.988 192.563 20.18C195.011 19.688 195.779 18.752 196.031 17.048H195.203ZM195.995 17.264L195.263 17.336C195.575 18.596 196.175 19.892 199.019 20.384C199.115 20.156 199.319 19.832 199.487 19.652C196.823 19.268 196.235 18.284 195.995 17.264ZM193.907 15.92C193.595 16.64 192.983 17.468 192.083 18.08C192.299 18.176 192.611 18.368 192.767 18.536C193.703 17.816 194.315 16.928 194.723 16.052L193.907 15.92ZM191.051 22.196H197.099V23.012H191.051V22.196ZM191.051 23.6H197.099V24.44H191.051V23.6ZM191.051 20.792H197.099V21.608H191.051V20.792ZM190.175 20.192V25.04H197.999V20.192H190.175ZM195.011 25.652C196.319 26.084 197.627 26.6 198.383 26.996L199.379 26.54C198.515 26.132 197.063 25.604 195.743 25.196L195.011 25.652ZM192.191 25.172C191.327 25.64 189.887 26.06 188.651 26.324C188.855 26.48 189.167 26.828 189.311 27.008C190.511 26.672 192.035 26.12 193.007 25.544L192.191 25.172ZM202.541 15.968V26.948H203.381V15.968H202.541ZM200.609 19.952V20.804H205.349V19.952H200.609ZM202.409 20.396C202.025 21.8 201.185 23.624 200.417 24.548C200.561 24.788 200.777 25.172 200.873 25.436C201.677 24.344 202.529 22.268 202.949 20.636L202.409 20.396ZM203.357 20.96L202.913 21.332C203.309 21.848 204.293 23.42 204.593 24.068L205.193 23.348C204.917 22.952 203.693 21.32 203.357 20.96ZM200.693 16.856C201.005 17.696 201.281 18.812 201.341 19.532L202.049 19.34C201.965 18.62 201.689 17.528 201.353 16.688L200.693 16.856ZM204.569 16.64C204.401 17.456 204.041 18.656 203.777 19.376L204.353 19.556C204.677 18.884 205.049 17.756 205.361 16.844L204.569 16.64ZM209.225 15.932V26.96H210.077V15.932H209.225ZM205.325 23.564L205.469 24.404L211.637 23.288L211.493 22.46L205.325 23.564ZM206.225 17.396C206.921 17.828 207.749 18.476 208.133 18.944L208.613 18.248C208.217 17.804 207.389 17.192 206.693 16.784L206.225 17.396ZM205.613 20.42C206.333 20.816 207.197 21.428 207.617 21.86L208.073 21.152C207.641 20.72 206.753 20.156 206.033 19.784L205.613 20.42Z" fill="#6F7387"/>
<rect x="246" y="42" width="113" height="2" rx="1" fill="#6F7387"/>
<path d="M290.537 16.448V17.252H294.689V16.448H290.537ZM291.521 18.968V19.724H293.681V18.968H291.521ZM291.521 21.44V22.208H293.681V21.44H291.521ZM291.149 16.856V24.536H291.905V16.856H291.149ZM293.249 16.844V26.972H294.029V16.844H293.249ZM290.405 24.404L290.573 25.244C291.485 25.052 292.613 24.8 293.717 24.548L293.657 23.768C292.445 24.02 291.245 24.26 290.405 24.404ZM294.293 23.6L294.593 24.368C295.337 24.116 296.237 23.804 297.125 23.492L297.041 22.844C296.009 23.144 295.013 23.42 294.293 23.6ZM295.061 17.048V23.588H295.793V17.336L295.061 17.048ZM296.849 18.056V21.692C296.849 23.504 296.621 25.184 294.665 26.42C294.845 26.54 295.085 26.816 295.193 26.972C297.317 25.628 297.593 23.744 297.593 21.704V18.056H296.849ZM300.341 16.772V23.612C300.341 23.72 300.305 23.756 300.209 23.756C300.125 23.756 299.837 23.756 299.513 23.744C299.621 23.948 299.729 24.284 299.753 24.488C300.245 24.488 300.569 24.464 300.809 24.332C301.037 24.2 301.097 23.972 301.097 23.624V16.772H300.341ZM297.281 15.944C296.753 16.388 295.853 17 295.205 17.336L295.733 17.828C296.393 17.492 297.257 16.976 297.905 16.472L297.281 15.944ZM298.445 16.772V26.96H299.189V17.528H300.773V16.772H298.445ZM308.507 20.936L307.631 21.128C308.459 24.176 310.055 26.156 312.971 26.984C313.115 26.732 313.379 26.348 313.595 26.144C310.787 25.46 309.203 23.624 308.507 20.936ZM303.095 20.588V21.5H312.971V20.588H303.095ZM302.723 16.856V17.768H313.283V16.856H302.723ZM307.451 17.108V19.904C307.451 22.1 306.983 24.68 302.495 26.204C302.687 26.384 302.951 26.768 303.047 26.996C307.859 25.328 308.399 22.436 308.399 19.904V17.108H307.451Z" fill="#6F7387"/>
<rect x="16" y="42" width="114" height="2" rx="1" fill="#6F7387"/>
<path d="M59.758 22.208C60.07 22.628 60.358 23.18 60.454 23.552L60.97 23.348C60.874 22.988 60.574 22.448 60.262 22.04L59.758 22.208ZM57.802 21.164C58.282 21.524 58.81 22.04 59.05 22.412L59.422 21.992C59.17 21.632 58.642 21.14 58.162 20.804L57.802 21.164ZM59.23 20.012C59.026 20.36 58.642 20.9 58.354 21.248L58.798 21.452C59.098 21.14 59.482 20.684 59.806 20.252L59.23 20.012ZM60.094 20.852C59.662 21.452 58.87 22.364 58.27 22.904L58.666 23.12C59.278 22.604 60.046 21.776 60.622 21.092L60.094 20.852ZM61.318 23.552V26.744H61.99V23.552H61.318ZM57.646 22.82L57.73 23.384C58.534 23.336 59.506 23.276 60.526 23.192V22.664C59.434 22.736 58.402 22.784 57.646 22.82ZM62.998 22.148C63.346 22.592 63.67 23.192 63.79 23.6L64.318 23.396C64.198 22.988 63.85 22.4 63.514 21.98L62.998 22.148ZM60.718 21.152C61.21 21.512 61.762 22.052 62.002 22.436L62.398 22.028C62.158 21.656 61.594 21.14 61.114 20.792L60.718 21.152ZM62.23 19.988C62.002 20.36 61.582 20.96 61.27 21.32L61.714 21.524C62.05 21.188 62.458 20.696 62.806 20.228L62.23 19.988ZM63.082 20.876C62.626 21.488 61.786 22.388 61.162 22.916L61.558 23.132C62.206 22.628 63.022 21.812 63.622 21.14L63.082 20.876ZM60.874 22.82L61.006 23.384C61.822 23.324 62.83 23.264 63.838 23.18V22.652C62.698 22.724 61.654 22.784 60.874 22.82ZM58.126 23.732V25.424H60.202V24.86H58.738V23.732H58.126ZM63.154 23.732V24.86H61.798V25.424H63.778V23.732H63.154ZM59.878 23.552V24.62C59.878 25.28 59.71 25.952 58.378 26.36C58.534 26.48 58.738 26.732 58.822 26.888C60.322 26.36 60.538 25.532 60.538 24.632V23.552H59.878ZM56.482 17.996V18.608H59.854V17.996H56.482ZM62.002 17.996V18.608H65.458V17.996H62.002ZM65.122 16.436V25.832C65.122 25.988 65.074 26.048 64.918 26.048C64.75 26.06 64.246 26.06 63.718 26.036C63.838 26.276 63.958 26.696 63.994 26.936C64.738 26.936 65.254 26.924 65.578 26.768C65.902 26.612 65.998 26.336 65.998 25.832V16.436H65.122ZM56.554 16.436V17.096H59.566V19.472H56.554V20.132H60.418V16.436H56.554ZM65.554 16.436H61.486V20.132H65.554V19.472H62.338V17.096H65.554V16.436ZM56.014 16.436V26.972H56.878V16.436H56.014ZM67.528 17.888V18.728H72.64V17.888H67.528ZM69.304 20.384V21.212H71.476V20.384H69.304ZM69.652 15.944V18.188H70.54V15.944H69.652ZM75.34 16.964C75.904 18.488 76.96 20.144 78.172 21.128C78.292 20.852 78.484 20.492 78.652 20.252C77.5 19.424 76.396 17.696 75.772 15.932H74.848C74.38 17.564 73.336 19.376 72.136 20.324C72.292 20.54 72.496 20.9 72.592 21.14C73.816 20.144 74.848 18.428 75.34 16.964ZM68.836 18.38C68.812 21.596 68.716 24.68 67.348 26.372C67.576 26.528 67.888 26.804 68.032 27.008C69.52 25.124 69.664 21.86 69.724 18.38H68.836ZM71.2 20.384V20.564C71.128 24.392 71.032 25.712 70.816 26C70.72 26.132 70.624 26.168 70.444 26.156C70.252 26.156 69.808 26.156 69.304 26.12C69.448 26.348 69.532 26.696 69.556 26.936C70.06 26.972 70.564 26.972 70.852 26.948C71.176 26.9 71.38 26.816 71.572 26.552C71.884 26.132 71.956 24.788 72.04 20.804C72.052 20.672 72.052 20.384 72.052 20.384H71.2ZM74.044 21.116C74.86 21.644 75.808 22.424 76.252 22.988L76.876 22.352C76.42 21.8 75.448 21.056 74.632 20.552L74.044 21.116ZM73.072 24.368C74.536 25.052 76.288 26.156 77.14 26.972L77.716 26.18C76.852 25.376 75.064 24.32 73.612 23.684L73.072 24.368ZM87.466 16.712C88.174 17.336 88.99 18.2 89.35 18.776L90.094 18.248C89.698 17.696 88.858 16.844 88.15 16.244L87.466 16.712ZM79.69 19.472V20.336H90.382V19.472H79.69ZM79.51 23L79.774 23.9C81.286 23.564 83.41 23.072 85.378 22.616L85.306 21.8C83.194 22.256 80.938 22.736 79.51 23ZM82.27 17.144V25.796C82.27 26.012 82.198 26.072 81.982 26.072C81.766 26.084 81.058 26.096 80.29 26.06C80.422 26.324 80.578 26.732 80.626 26.972C81.622 26.984 82.258 26.948 82.642 26.804C83.026 26.66 83.17 26.396 83.17 25.808V17.144H82.27ZM84.55 16.064C83.398 16.496 81.454 16.904 79.762 17.168C79.882 17.372 79.99 17.708 80.038 17.912C81.754 17.672 83.794 17.3 85.186 16.82L84.55 16.064ZM85.75 16.028C85.798 21.74 86.866 27.008 89.218 27.008C90.118 27.008 90.442 26.42 90.61 24.428C90.358 24.332 90.034 24.128 89.842 23.924C89.77 25.472 89.626 26.096 89.302 26.096C87.838 26.096 86.662 21.536 86.686 16.028H85.75ZM89.002 20.888C87.934 22.916 85.954 24.764 83.818 25.796C84.046 26 84.298 26.288 84.442 26.516C86.65 25.352 88.63 23.42 89.806 21.224L89.002 20.888Z" fill="#6F7387"/>
</svg>
