<svg width="20" height="20" viewBox="0 0 20 20" fill="none" xmlns="http://www.w3.org/2000/svg">
<rect width="20" height="20" rx="10" fill="#FF4E84"/>
<path d="M7.80754 5.43945V14H6.39544V7.11523L4.30364 7.82422V6.6582L7.63762 5.43945H7.80754ZM12.2848 10.0332L11.1598 9.75781L11.6227 5.46875H16.2223V6.66406H12.7946L12.5602 8.75586C12.693 8.67773 12.8766 8.60156 13.111 8.52734C13.3454 8.44922 13.6129 8.41016 13.9137 8.41016C14.3161 8.41016 14.6754 8.47656 14.9918 8.60938C15.3122 8.73828 15.5836 8.92773 15.8063 9.17773C16.029 9.42383 16.1989 9.72461 16.3161 10.0801C16.4332 10.4316 16.4918 10.8281 16.4918 11.2695C16.4918 11.6641 16.4332 12.0332 16.3161 12.377C16.2028 12.7207 16.0309 13.0234 15.8004 13.2852C15.57 13.5469 15.279 13.752 14.9274 13.9004C14.5797 14.0449 14.1676 14.1172 13.6911 14.1172C13.3356 14.1172 12.9938 14.0664 12.6657 13.9648C12.3415 13.8594 12.0504 13.7051 11.7926 13.502C11.5348 13.2949 11.3278 13.041 11.1715 12.7402C11.0153 12.4355 10.9254 12.0859 10.902 11.6914H12.2848C12.32 11.9688 12.3961 12.2051 12.5133 12.4004C12.6344 12.5918 12.7946 12.7383 12.9938 12.8398C13.193 12.9414 13.4235 12.9922 13.6852 12.9922C13.9235 12.9922 14.1286 12.9512 14.3004 12.8691C14.4723 12.7832 14.6149 12.6621 14.7282 12.5059C14.8454 12.3457 14.9313 12.1582 14.986 11.9434C15.0446 11.7285 15.0739 11.4902 15.0739 11.2285C15.0739 10.9785 15.0407 10.75 14.9743 10.543C14.9118 10.3359 14.8161 10.1562 14.6872 10.0039C14.5622 9.85156 14.404 9.73438 14.2125 9.65234C14.0211 9.56641 13.8004 9.52344 13.5504 9.52344C13.2145 9.52344 12.9567 9.57227 12.777 9.66992C12.6012 9.76758 12.4372 9.88867 12.2848 10.0332Z" fill="white"/>
</svg>
