<svg width="375" height="44" viewBox="0 0 375 44" fill="none" xmlns="http://www.w3.org/2000/svg">
<path d="M335 22C335.552 22 336 21.5523 336 21C336 20.4477 335.552 20 335 20C334.448 20 334 20.4477 334 21C334 21.5523 334.448 22 335 22Z" stroke="white" stroke-width="2"/>
<path d="M343 22C343.552 22 344 21.5523 344 21C344 20.4477 343.552 20 343 20C342.448 20 342 20.4477 342 21C342 21.5523 342.448 22 343 22Z" stroke="white" stroke-width="2"/>
<path d="M351 22C351.552 22 352 21.5523 352 21C352 20.4477 351.552 20 351 20C350.448 20 350 20.4477 350 21C350 21.5523 350.448 22 351 22Z" stroke="white" stroke-width="2"/>
<path d="M21.304 19.112V19.88H27.448V19.112H21.304ZM17.632 25.508V26.24H20.692V25.508H17.632ZM17.644 19.616V20.348H20.092V21.68H17.644V22.412H20.932V19.616H17.644ZM17.632 23.336V24.08H20.368V26.708H21.208V23.336H17.632ZM17.164 19.616V26.912H18.016V19.616H17.164ZM18.772 18.536C18.628 18.932 18.34 19.532 18.1 19.928L18.88 20.12C19.12 19.76 19.42 19.244 19.684 18.716L18.772 18.536ZM21.82 20.972V25.832H22.636V21.752H26.452V20.972H21.82ZM26.176 20.972V24.86C26.176 24.968 26.152 25.016 26.032 25.016C25.912 25.028 25.576 25.028 25.12 25.016C25.228 25.244 25.324 25.556 25.36 25.796C25.972 25.796 26.416 25.784 26.692 25.652C26.968 25.508 27.04 25.28 27.04 24.86V20.972H26.176ZM23.944 19.34V26.96H24.796V19.34H23.944ZM17.956 16.832V17.588H21.832V16.832H17.956ZM22.6 16.832V17.588H27.448V16.832H22.6ZM18.184 15.872C17.812 16.808 17.164 17.732 16.444 18.356C16.66 18.464 17.02 18.716 17.188 18.848C17.884 18.176 18.592 17.144 19.036 16.088L18.184 15.872ZM22.912 15.872C22.528 16.832 21.808 17.744 21.016 18.332C21.232 18.44 21.616 18.656 21.796 18.788C22.564 18.152 23.332 17.144 23.764 16.076L22.912 15.872ZM18.628 17.432C18.892 17.864 19.18 18.44 19.276 18.8L20.104 18.572C19.984 18.2 19.684 17.636 19.408 17.228L18.628 17.432ZM23.716 17.42C24.1 17.852 24.496 18.464 24.676 18.848L25.492 18.584C25.3 18.188 24.88 17.6 24.496 17.18L23.716 17.42ZM30.898 20.66H28.57V21.5H30.046V24.908H30.898V20.66ZM30.898 24.548H30.13C29.578 25.076 28.942 25.616 28.426 26.012L28.894 26.864C29.47 26.324 30.01 25.808 30.526 25.292C31.282 26.24 32.374 26.672 33.97 26.732C35.338 26.78 37.954 26.756 39.322 26.696C39.358 26.444 39.502 26.036 39.61 25.844C38.134 25.94 35.314 25.976 33.958 25.916C32.53 25.856 31.462 25.448 30.898 24.548ZM28.63 16.664C29.326 17.264 30.106 18.128 30.418 18.728L31.174 18.212C30.838 17.612 30.034 16.784 29.326 16.208L28.63 16.664ZM31.786 20.996V21.692H39.07V20.996H31.786ZM31.402 22.844V23.552H39.442V22.844H31.402ZM33.562 20.132V23.192H34.426V20.132H33.562ZM36.394 20.132V23.192H37.246V20.132H36.394ZM32.086 17.804V18.44H34.99V16.4H31.63V17.024H34.198V17.804H32.086ZM31.834 17.804V19.064C31.834 19.784 32.074 19.964 32.962 19.964C33.142 19.964 34.282 19.964 34.474 19.964C35.086 19.964 35.314 19.76 35.398 18.98C35.182 18.944 34.882 18.848 34.738 18.728C34.702 19.256 34.642 19.328 34.354 19.328C34.126 19.328 33.214 19.328 33.046 19.328C32.662 19.328 32.602 19.28 32.602 19.052V17.804H31.834ZM36.046 17.804V18.44H38.902V16.4H35.566V17.024H38.122V17.804H36.046ZM35.782 17.804V19.052C35.782 19.784 36.034 19.964 36.946 19.964C37.138 19.964 38.362 19.964 38.554 19.964C39.202 19.964 39.43 19.76 39.514 18.944C39.298 18.896 38.998 18.8 38.842 18.692C38.806 19.256 38.746 19.328 38.446 19.328C38.206 19.328 37.222 19.328 37.03 19.328C36.622 19.328 36.55 19.28 36.55 19.052V17.804H35.782ZM36.178 24.092C37.006 24.524 37.894 25.1 38.374 25.544L39.262 25.148C38.686 24.704 37.702 24.116 36.826 23.696L36.178 24.092ZM33.982 23.672C33.442 24.164 32.542 24.62 31.726 24.944C31.918 25.064 32.254 25.352 32.386 25.508C33.19 25.124 34.162 24.536 34.774 23.948L33.982 23.672Z" fill="white"/>
</svg>
