<svg width="375" height="44" viewBox="0 0 375 44" fill="none" xmlns="http://www.w3.org/2000/svg">
<path d="M335 22C335.552 22 336 21.5523 336 21C336 20.4477 335.552 20 335 20C334.448 20 334 20.4477 334 21C334 21.5523 334.448 22 335 22Z" stroke="white" stroke-width="2"/>
<path d="M343 22C343.552 22 344 21.5523 344 21C344 20.4477 343.552 20 343 20C342.448 20 342 20.4477 342 21C342 21.5523 342.448 22 343 22Z" stroke="white" stroke-width="2"/>
<path d="M351 22C351.552 22 352 21.5523 352 21C352 20.4477 351.552 20 351 20C350.448 20 350 20.4477 350 21C350 21.5523 350.448 22 351 22Z" stroke="white" stroke-width="2"/>
<path d="M29.3408 32.9999C29.1273 33.0006 28.9164 32.9535 28.7235 32.8621C28.5307 32.7706 28.3608 32.6371 28.2263 32.4714L21.325 23.9008C21.1149 23.6452 21 23.3246 21 22.9937C21 22.6628 21.1149 22.3422 21.325 22.0866L28.4692 13.516C28.7117 13.2243 29.0602 13.0409 29.438 13.006C29.8159 12.9712 30.192 13.0879 30.4838 13.3303C30.7756 13.5728 30.9591 13.9212 30.994 14.2989C31.0288 14.6766 30.9121 15.0527 30.6696 15.3444L24.2827 23.0008L30.4553 30.6573C30.63 30.8669 30.741 31.1223 30.7751 31.393C30.8092 31.6638 30.765 31.9386 30.6478 32.1851C30.5305 32.4315 30.3451 32.6392 30.1135 32.7836C29.8819 32.928 29.6137 33.0031 29.3408 32.9999Z" fill="white"/>
<path d="M176.14 17.48V19.44H186.46V17.48H176.14ZM170.26 27.74V29.6H174.64V27.74H170.26ZM170.3 18.26V20.12H173.48V21.48H170.28V23.34H175.72V18.26H170.3ZM170.26 24.4V26.28H173.9V30.3H176.12V24.4H170.26ZM169.04 18.26V30.66H171.28V18.26H169.04ZM171.46 16.66C171.26 17.36 170.84 18.34 170.5 19.02L172.6 19.48C172.98 18.88 173.46 18.04 173.96 17.1L171.46 16.66ZM176.8 20.68V28.96H178.94V22.68H184.36V20.68H176.8ZM183.7 20.68V26.74C183.7 26.9 183.66 26.96 183.5 26.96C183.34 26.98 182.94 26.98 182.48 26.96C182.72 27.52 182.96 28.34 183.02 28.96C183.96 28.96 184.7 28.94 185.26 28.6C185.84 28.26 185.98 27.7 185.98 26.76V20.68H183.7ZM180.14 18.08V30.78H182.38V18.08H180.14ZM170.7 13.38V15.32H177V13.38H170.7ZM178.7 13.38V15.3H186.46V13.38H178.7ZM170.78 11.86C170.16 13.36 169.04 14.88 167.82 15.86C168.36 16.16 169.32 16.78 169.78 17.16C170.96 16.04 172.24 14.24 173.02 12.46L170.78 11.86ZM178.92 11.86C178.32 13.44 177.16 15 175.86 15.96C176.44 16.22 177.48 16.74 177.96 17.1C179.18 16 180.48 14.24 181.2 12.42L178.92 11.86ZM171.44 14.94C171.9 15.64 172.38 16.58 172.56 17.18L174.72 16.58C174.5 15.96 173.96 15.06 173.48 14.4L171.44 14.94ZM180.38 14.94C180.94 15.64 181.58 16.66 181.86 17.26L184.06 16.66C183.74 16 183.06 15.06 182.46 14.38L180.38 14.94ZM192.74 19.82H188.42V22.04H190.5V27.18H192.74V19.82ZM192.74 26.26H190.74C189.9 27 188.94 27.76 188.14 28.32L189.28 30.62C190.22 29.72 191.02 28.96 191.78 28.16C192.98 29.72 194.62 30.32 197.06 30.42C199.56 30.52 204 30.48 206.56 30.36C206.66 29.7 207.02 28.64 207.28 28.12C204.44 28.34 199.52 28.4 197.04 28.3C194.98 28.2 193.52 27.62 192.74 26.26ZM188.3 13.68C189.32 14.7 190.52 16.16 190.98 17.12L193.02 15.78C192.48 14.8 191.24 13.44 190.18 12.48L188.3 13.68ZM193.96 20.2V21.94H206.22V20.2H193.96ZM193.36 23.28V25.06H206.84V23.28H193.36ZM196.62 19.14V24.14H198.88V19.14H196.62ZM201.2 19.14V24.14H203.48V19.14H201.2ZM194.5 14.98V16.5H199.44V12.64H193.62V14.14H197.42V14.98H194.5ZM193.9 14.98V16.94C193.9 18.54 194.4 19 196.18 19C196.56 19 197.9 19 198.28 19C199.5 19 200.04 18.62 200.24 17.26C199.7 17.16 198.94 16.9 198.58 16.64C198.5 17.3 198.42 17.42 198.02 17.42C197.72 17.42 196.7 17.42 196.48 17.42C195.96 17.42 195.88 17.34 195.88 16.92V14.98H193.9ZM201.08 14.98V16.5H206.06V12.64H200.12V14.14H204.02V14.98H201.08ZM200.48 14.98V16.92C200.48 18.54 200.98 19 202.78 19C203.16 19 204.56 19 204.94 19C206.18 19 206.72 18.62 206.92 17.24C206.38 17.12 205.62 16.88 205.26 16.62C205.18 17.3 205.1 17.42 204.68 17.42C204.38 17.42 203.32 17.42 203.08 17.42C202.56 17.42 202.46 17.34 202.46 16.92V14.98H200.48ZM200.86 25.9C202.18 26.58 203.6 27.48 204.34 28.12L206.82 27.22C205.82 26.54 204.06 25.58 202.62 24.92L200.86 25.9ZM197.36 24.92C196.5 25.6 195.02 26.24 193.62 26.66C194.12 26.98 194.98 27.7 195.36 28.1C196.74 27.54 198.42 26.62 199.46 25.66L197.36 24.92Z" fill="white"/>
</svg>
