<svg width="375" height="44" viewBox="0 0 375 44" fill="none" xmlns="http://www.w3.org/2000/svg">
<path d="M335 22C335.552 22 336 21.5523 336 21C336 20.4477 335.552 20 335 20C334.448 20 334 20.4477 334 21C334 21.5523 334.448 22 335 22Z" stroke="white" stroke-width="2"/>
<path d="M343 22C343.552 22 344 21.5523 344 21C344 20.4477 343.552 20 343 20C342.448 20 342 20.4477 342 21C342 21.5523 342.448 22 343 22Z" stroke="white" stroke-width="2"/>
<path d="M351 22C351.552 22 352 21.5523 352 21C352 20.4477 351.552 20 351 20C350.448 20 350 20.4477 350 21C350 21.5523 350.448 22 351 22Z" stroke="white" stroke-width="2"/>
<path d="M29.3408 31.9999C29.1273 32.0006 28.9164 31.9535 28.7235 31.8621C28.5307 31.7706 28.3608 31.6371 28.2263 31.4714L21.325 22.9008C21.1149 22.6452 21 22.3246 21 21.9937C21 21.6628 21.1149 21.3422 21.325 21.0866L28.4692 12.516C28.7117 12.2243 29.0602 12.0409 29.438 12.006C29.8159 11.9712 30.192 12.0879 30.4838 12.3303C30.7756 12.5728 30.9591 12.9212 30.994 13.2989C31.0288 13.6766 30.9121 14.0527 30.6696 14.3444L24.2827 22.0008L30.4553 29.6573C30.63 29.8669 30.741 30.1223 30.7751 30.393C30.8092 30.6638 30.765 30.9386 30.6478 31.1851C30.5305 31.4315 30.3451 31.6392 30.1135 31.7836C29.8819 31.928 29.6137 32.0031 29.3408 31.9999Z" fill="white"/>
<circle cx="165" cy="22" r="3.5" transform="rotate(-90 165 22)" fill="#2CCF54" stroke="white"/>
<path d="M182.14 17.48V19.44H192.46V17.48H182.14ZM176.26 27.74V29.6H180.64V27.74H176.26ZM176.3 18.26V20.12H179.48V21.48H176.28V23.34H181.72V18.26H176.3ZM176.26 24.4V26.28H179.9V30.3H182.12V24.4H176.26ZM175.04 18.26V30.66H177.28V18.26H175.04ZM177.46 16.66C177.26 17.36 176.84 18.34 176.5 19.02L178.6 19.48C178.98 18.88 179.46 18.04 179.96 17.1L177.46 16.66ZM182.8 20.68V28.96H184.94V22.68H190.36V20.68H182.8ZM189.7 20.68V26.74C189.7 26.9 189.66 26.96 189.5 26.96C189.34 26.98 188.94 26.98 188.48 26.96C188.72 27.52 188.96 28.34 189.02 28.96C189.96 28.96 190.7 28.94 191.26 28.6C191.84 28.26 191.98 27.7 191.98 26.76V20.68H189.7ZM186.14 18.08V30.78H188.38V18.08H186.14ZM176.7 13.38V15.32H183V13.38H176.7ZM184.7 13.38V15.3H192.46V13.38H184.7ZM176.78 11.86C176.16 13.36 175.04 14.88 173.82 15.86C174.36 16.16 175.32 16.78 175.78 17.16C176.96 16.04 178.24 14.24 179.02 12.46L176.78 11.86ZM184.92 11.86C184.32 13.44 183.16 15 181.86 15.96C182.44 16.22 183.48 16.74 183.96 17.1C185.18 16 186.48 14.24 187.2 12.42L184.92 11.86ZM177.44 14.94C177.9 15.64 178.38 16.58 178.56 17.18L180.72 16.58C180.5 15.96 179.96 15.06 179.48 14.4L177.44 14.94ZM186.38 14.94C186.94 15.64 187.58 16.66 187.86 17.26L190.06 16.66C189.74 16 189.06 15.06 188.46 14.38L186.38 14.94ZM198.74 19.82H194.42V22.04H196.5V27.18H198.74V19.82ZM198.74 26.26H196.74C195.9 27 194.94 27.76 194.14 28.32L195.28 30.62C196.22 29.72 197.02 28.96 197.78 28.16C198.98 29.72 200.62 30.32 203.06 30.42C205.56 30.52 210 30.48 212.56 30.36C212.66 29.7 213.02 28.64 213.28 28.12C210.44 28.34 205.52 28.4 203.04 28.3C200.98 28.2 199.52 27.62 198.74 26.26ZM194.3 13.68C195.32 14.7 196.52 16.16 196.98 17.12L199.02 15.78C198.48 14.8 197.24 13.44 196.18 12.48L194.3 13.68ZM199.96 20.2V21.94H212.22V20.2H199.96ZM199.36 23.28V25.06H212.84V23.28H199.36ZM202.62 19.14V24.14H204.88V19.14H202.62ZM207.2 19.14V24.14H209.48V19.14H207.2ZM200.5 14.98V16.5H205.44V12.64H199.62V14.14H203.42V14.98H200.5ZM199.9 14.98V16.94C199.9 18.54 200.4 19 202.18 19C202.56 19 203.9 19 204.28 19C205.5 19 206.04 18.62 206.24 17.26C205.7 17.16 204.94 16.9 204.58 16.64C204.5 17.3 204.42 17.42 204.02 17.42C203.72 17.42 202.7 17.42 202.48 17.42C201.96 17.42 201.88 17.34 201.88 16.92V14.98H199.9ZM207.08 14.98V16.5H212.06V12.64H206.12V14.14H210.02V14.98H207.08ZM206.48 14.98V16.92C206.48 18.54 206.98 19 208.78 19C209.16 19 210.56 19 210.94 19C212.18 19 212.72 18.62 212.92 17.24C212.38 17.12 211.62 16.88 211.26 16.62C211.18 17.3 211.1 17.42 210.68 17.42C210.38 17.42 209.32 17.42 209.08 17.42C208.56 17.42 208.46 17.34 208.46 16.92V14.98H206.48ZM206.86 25.9C208.18 26.58 209.6 27.48 210.34 28.12L212.82 27.22C211.82 26.54 210.06 25.58 208.62 24.92L206.86 25.9ZM203.36 24.92C202.5 25.6 201.02 26.24 199.62 26.66C200.12 26.98 200.98 27.7 201.36 28.1C202.74 27.54 204.42 26.62 205.46 25.66L203.36 24.92Z" fill="white"/>
</svg>
