<svg width="193" height="36" viewBox="0 0 193 36" fill="none" xmlns="http://www.w3.org/2000/svg">
<path d="M0 0H183C188.523 0 193 4.47715 193 10V26C193 31.5228 188.523 36 183 36H10C4.47715 36 0 31.5228 0 26V0Z" fill="#EFEFEF"/>
<path d="M17.872 14.728V15.816H23.152V14.728H17.872ZM17.488 22.424V23.528H23.744V22.424H17.488ZM20.496 11.064C21.456 12.728 23.216 14.648 24.896 15.816C25.072 15.464 25.344 15 25.584 14.68C23.92 13.672 22.128 11.736 21.056 9.8H19.84C19.04 11.576 17.344 13.656 15.536 14.824C15.76 15.112 16.064 15.56 16.192 15.88C17.984 14.648 19.648 12.68 20.496 11.064ZM16.928 17.64V24.296H18.096V18.728H23.104V24.248H24.304V17.64H16.928ZM11.872 11.24V12.36H14.592V18.744H11.872V19.864H15.744V11.24H11.872ZM11.168 11.24V21.368H12.288V11.24H11.168ZM38.16 11.192H39.84V12.92H38.16V11.192ZM35.696 11.192H37.312V12.92H35.696V11.192ZM33.28 11.192H34.848V12.92H33.28V11.192ZM32.24 10.28V13.832H40.912V10.28H32.24ZM33.312 13.8C33.04 14.536 32.464 15.608 32.048 16.264L32.736 16.616C33.184 15.992 33.76 15.048 34.24 14.216L33.312 13.8ZM34.8 15.24C34.16 16.456 33.024 18.184 32.144 19.208L32.784 19.576C33.696 18.584 34.832 16.968 35.68 15.672L34.8 15.24ZM31.44 16.216C32.096 16.808 32.88 17.672 33.216 18.248L33.792 17.432C33.44 16.888 32.64 16.088 31.984 15.496L31.44 16.216ZM34.736 20.744C35.04 21.528 35.312 22.552 35.408 23.192L36.208 22.888C36.128 22.28 35.808 21.288 35.488 20.504L34.736 20.744ZM34.464 18.088C34.912 18.776 35.344 19.736 35.488 20.344L36.224 19.992C36.048 19.4 35.6 18.488 35.152 17.784L34.464 18.088ZM31.392 19.032L31.472 20.008C32.672 19.944 34.128 19.88 35.648 19.784L35.664 18.904C34.048 18.952 32.512 19 31.392 19.032ZM33.296 19.352V24.296H34.256V19.352H33.296ZM31.84 20.504C31.632 21.48 31.296 22.472 30.8 23.192C31.056 23.288 31.472 23.48 31.664 23.608C32.096 22.872 32.512 21.768 32.768 20.712L31.84 20.504ZM37.408 13.912C36.944 15.368 36.24 16.872 35.408 17.896C35.632 18.056 36.016 18.424 36.176 18.584C37.04 17.48 37.872 15.784 38.384 14.168L37.408 13.912ZM37.52 16.04H37.296L36.56 16.92V24.264H37.52V17.016H41.456V16.04H37.52ZM39.696 13.992C39.488 14.712 39.072 15.784 38.752 16.44L39.52 16.744C39.872 16.12 40.288 15.16 40.672 14.328L39.696 13.992ZM38.88 16.44V23.128H39.792V16.44H38.88ZM37.04 18.28V19.176H41.296V18.28H37.04ZM37.04 20.44V21.336H41.328V20.44H37.04ZM36.896 22.664V23.592H41.728V22.664H36.896ZM28.064 11.128V12.216H30.176V18.984H28.064V20.088H31.168V11.128H28.064ZM27.472 11.128V21.416H28.464V11.128H27.472ZM50.08 9.64C49.552 11.992 48.624 14.296 47.44 15.784C47.712 15.96 48.192 16.344 48.4 16.552C49.632 14.92 50.64 12.456 51.264 9.896L50.08 9.64ZM49.808 16.424C49.36 18.344 48.592 20.248 47.6 21.48C47.888 21.624 48.4 21.944 48.64 22.136C49.616 20.792 50.48 18.76 50.976 16.664L49.808 16.424ZM49.936 12.648L49.472 13.768H57.136V12.648H49.936ZM52.416 13.112V22.824C52.416 23.032 52.352 23.096 52.144 23.096C51.92 23.096 51.232 23.112 50.48 23.08C50.656 23.432 50.832 23.96 50.912 24.296C51.904 24.296 52.592 24.264 53.024 24.056C53.472 23.864 53.616 23.512 53.616 22.824V13.112H52.416ZM54.768 16.664C55.648 18.344 56.448 20.6 56.704 22.072L57.84 21.688C57.568 20.2 56.768 17.992 55.84 16.312L54.768 16.664ZM56.784 12.648V12.824C56.624 13.88 56.416 15.224 56.24 16.024L57.28 16.216C57.488 15.352 57.76 13.976 57.984 12.792L57.152 12.616L56.944 12.648H56.784ZM46.864 9.624C45.968 12.056 44.464 14.456 42.88 16.008C43.104 16.28 43.44 16.92 43.568 17.192C45.296 15.4 46.944 12.696 48 9.976L46.864 9.624ZM45.2 13.752V24.264H46.352V12.632L46.32 12.616L45.2 13.752ZM66.112 10.392V11.512H73.136V10.392H66.112ZM65.568 16.008V17.16H74.368V16.008H65.568ZM69.344 13.88V22.76C69.344 23 69.264 23.08 68.992 23.096C68.704 23.112 67.808 23.112 66.8 23.08C66.96 23.4 67.168 23.928 67.232 24.248C68.512 24.264 69.344 24.232 69.872 24.04C70.368 23.848 70.544 23.496 70.544 22.776V13.88H69.344ZM72.704 10.392V10.664C72.064 11.704 70.736 13.208 69.584 14.072C69.792 14.232 70.128 14.552 70.304 14.776C71.584 13.816 73.072 12.264 74.032 10.904L73.248 10.328L72.992 10.392H72.704ZM59.648 12.872V13.992H64.912V12.872H59.648ZM62.064 9.576C61.52 12.616 60.56 16.904 59.856 19.352L60.864 19.88C61.584 17.224 62.592 12.904 63.2 9.704L62.064 9.576ZM60.448 18.84C62.24 19.88 64.304 21.512 65.264 22.712L65.984 21.736C65.024 20.552 62.912 19.016 61.12 18.008L60.448 18.84ZM64.512 12.872V13.112C64.112 18.552 62.448 21.944 59.776 23.352C60.032 23.592 60.368 24.024 60.528 24.312C63.472 22.552 65.216 19.16 65.648 12.968L64.928 12.824L64.704 12.872H64.512ZM83.5144 16.8672L84.9597 16.8594C84.9597 17.3073 84.8972 17.7214 84.7722 18.1016C84.6472 18.4766 84.4701 18.8021 84.2409 19.0781C84.017 19.3542 83.7461 19.5703 83.4284 19.7266C83.1159 19.8776 82.7722 19.9531 82.3972 19.9531C81.9597 19.9531 81.5717 19.8672 81.2331 19.6953C80.8998 19.5182 80.5404 19.2526 80.155 18.8984C79.9154 18.6693 79.6915 18.4948 79.4831 18.375C79.2748 18.25 79.0508 18.1875 78.8112 18.1875C78.5769 18.1875 78.3764 18.25 78.2097 18.375C78.043 18.4948 77.9128 18.6667 77.8191 18.8906C77.7253 19.1146 77.6784 19.375 77.6784 19.6719H76.1941C76.1941 19.2188 76.2566 18.8073 76.3816 18.4375C76.5066 18.0625 76.681 17.7422 76.905 17.4766C77.1342 17.2057 77.405 16.9974 77.7175 16.8516C78.03 16.7057 78.3737 16.6328 78.7487 16.6328C79.1862 16.6328 79.5795 16.724 79.9284 16.9062C80.2826 17.0885 80.642 17.349 81.0066 17.6875C81.2566 17.9271 81.4831 18.1068 81.6862 18.2266C81.8894 18.3464 82.1055 18.4062 82.3347 18.4062C82.5691 18.4062 82.7748 18.3411 82.9519 18.2109C83.129 18.0755 83.267 17.8906 83.3659 17.6562C83.4649 17.4219 83.5144 17.1589 83.5144 16.8672ZM94.4437 16.8672L95.8891 16.8594C95.8891 17.3073 95.8266 17.7214 95.7016 18.1016C95.5766 18.4766 95.3995 18.8021 95.1703 19.0781C94.9464 19.3542 94.6755 19.5703 94.3578 19.7266C94.0453 19.8776 93.7016 19.9531 93.3266 19.9531C92.8891 19.9531 92.501 19.8672 92.1625 19.6953C91.8292 19.5182 91.4698 19.2526 91.0844 18.8984C90.8448 18.6693 90.6208 18.4948 90.4125 18.375C90.2042 18.25 89.9802 18.1875 89.7406 18.1875C89.5062 18.1875 89.3057 18.25 89.1391 18.375C88.9724 18.4948 88.8422 18.6667 88.7484 18.8906C88.6547 19.1146 88.6078 19.375 88.6078 19.6719H87.1234C87.1234 19.2188 87.1859 18.8073 87.3109 18.4375C87.4359 18.0625 87.6104 17.7422 87.8344 17.4766C88.0635 17.2057 88.3344 16.9974 88.6469 16.8516C88.9594 16.7057 89.3031 16.6328 89.6781 16.6328C90.1156 16.6328 90.5089 16.724 90.8578 16.9062C91.212 17.0885 91.5714 17.349 91.9359 17.6875C92.1859 17.9271 92.4125 18.1068 92.6156 18.2266C92.8187 18.3464 93.0349 18.4062 93.2641 18.4062C93.4984 18.4062 93.7042 18.3411 93.8812 18.2109C94.0583 18.0755 94.1964 17.8906 94.2953 17.6562C94.3943 17.4219 94.4437 17.1589 94.4437 16.8672ZM108.387 10.616C109.331 11.448 110.419 12.6 110.899 13.368L111.891 12.664C111.363 11.928 110.243 10.792 109.299 9.992L108.387 10.616ZM98.0187 14.296V15.448H112.275V14.296H98.0187ZM97.7787 19L98.1307 20.2C100.147 19.752 102.979 19.096 105.603 18.488L105.507 17.4C102.691 18.008 99.6827 18.648 97.7787 19ZM101.459 11.192V22.728C101.459 23.016 101.363 23.096 101.075 23.096C100.787 23.112 99.8427 23.128 98.8187 23.08C98.9947 23.432 99.2027 23.976 99.2667 24.296C100.595 24.312 101.443 24.264 101.955 24.072C102.467 23.88 102.659 23.528 102.659 22.744V11.192H101.459ZM104.499 9.752C102.963 10.328 100.371 10.872 98.1147 11.224C98.2747 11.496 98.4187 11.944 98.4827 12.216C100.771 11.896 103.491 11.4 105.347 10.76L104.499 9.752ZM106.099 9.704C106.163 17.32 107.587 24.344 110.723 24.344C111.923 24.344 112.355 23.56 112.579 20.904C112.243 20.776 111.811 20.504 111.555 20.232C111.459 22.296 111.267 23.128 110.835 23.128C108.883 23.128 107.315 17.048 107.347 9.704H106.099ZM110.435 16.184C109.011 18.888 106.371 21.352 103.523 22.728C103.827 23 104.163 23.384 104.355 23.688C107.299 22.136 109.939 19.56 111.507 16.632L110.435 16.184ZM121.459 11.064V20.568L122.627 20.408V11.064H121.459ZM125.699 9.88V24.312H126.883V9.88H125.699ZM119.187 20.36L119.411 21.48L128.883 19.864L128.659 18.76L119.187 20.36ZM115.363 11.032V12.152H118.323V18.632H115.363V19.752H119.475V11.032H115.363ZM114.659 11.032V21.464H115.779V11.032H114.659ZM136.355 9.752V17.368H137.507V9.752H136.355ZM134.131 12.68V13.784H139.603V12.68H134.131ZM134.563 16.84V23.56H135.619V16.84H134.563ZM135.187 16.84V17.88H138.211V21.464H135.187V22.52H139.283V16.84H135.187ZM140.915 9.576C140.547 12.152 139.891 14.68 138.819 16.328C139.027 16.552 139.427 17.032 139.555 17.256C140.771 15.432 141.539 12.632 142.003 9.752L140.915 9.576ZM140.851 12.68L140.547 13.72H145.139V12.68H140.851ZM143.379 13.096C142.931 18.168 141.747 21.544 138.403 23.48C138.627 23.672 139.027 24.104 139.171 24.312C142.595 22.12 143.907 18.616 144.451 13.176L143.379 13.096ZM140.947 13.4L140.099 13.928C140.451 17.464 141.315 21.992 144.563 24.28C144.723 23.992 145.091 23.56 145.299 23.336C142.131 21.32 141.299 16.92 140.947 13.4ZM133.491 9.656C132.723 12.104 131.459 14.552 130.051 16.152C130.259 16.456 130.579 17.096 130.691 17.368C132.275 15.512 133.699 12.712 134.611 9.96L133.491 9.656ZM132.211 13.576V24.28H133.315V12.52L133.283 12.488L132.211 13.576ZM151.935 19.5859V11.625H153.888V19.5859C153.888 20.3411 153.726 20.9844 153.403 21.5156C153.081 22.0469 152.64 22.4531 152.083 22.7344C151.526 23.0156 150.893 23.1562 150.185 23.1562C149.461 23.1562 148.818 23.0339 148.255 22.7891C147.698 22.5443 147.26 22.1693 146.943 21.6641C146.625 21.1589 146.466 20.5182 146.466 19.7422H148.435C148.435 20.1901 148.505 20.5521 148.646 20.8281C148.791 21.099 148.995 21.2969 149.255 21.4219C149.521 21.5417 149.831 21.6016 150.185 21.6016C150.523 21.6016 150.823 21.526 151.083 21.375C151.349 21.2188 151.557 20.9922 151.708 20.6953C151.859 20.3932 151.935 20.0234 151.935 19.5859ZM155.919 18.8672V18.6875C155.919 18.0781 156.007 17.513 156.184 16.9922C156.361 16.4661 156.617 16.0104 156.95 15.625C157.289 15.2344 157.7 14.9323 158.184 14.7188C158.674 14.5 159.226 14.3906 159.841 14.3906C160.46 14.3906 161.012 14.5 161.497 14.7188C161.986 14.9323 162.401 15.2344 162.739 15.625C163.078 16.0104 163.335 16.4661 163.512 16.9922C163.69 17.513 163.778 18.0781 163.778 18.6875V18.8672C163.778 19.4766 163.69 20.0417 163.512 20.5625C163.335 21.0833 163.078 21.5391 162.739 21.9297C162.401 22.3151 161.989 22.6172 161.505 22.8359C161.02 23.0495 160.471 23.1562 159.856 23.1562C159.236 23.1562 158.682 23.0495 158.192 22.8359C157.708 22.6172 157.296 22.3151 156.958 21.9297C156.619 21.5391 156.361 21.0833 156.184 20.5625C156.007 20.0417 155.919 19.4766 155.919 18.8672ZM157.802 18.6875V18.8672C157.802 19.2474 157.841 19.6068 157.919 19.9453C157.997 20.2839 158.119 20.5807 158.286 20.8359C158.453 21.0911 158.666 21.2917 158.927 21.4375C159.187 21.5833 159.497 21.6562 159.856 21.6562C160.205 21.6562 160.507 21.5833 160.762 21.4375C161.023 21.2917 161.236 21.0911 161.403 20.8359C161.57 20.5807 161.692 20.2839 161.77 19.9453C161.854 19.6068 161.895 19.2474 161.895 18.8672V18.6875C161.895 18.3125 161.854 17.9583 161.77 17.625C161.692 17.2865 161.567 16.987 161.395 16.7266C161.229 16.4661 161.015 16.263 160.755 16.1172C160.499 15.9661 160.195 15.8906 159.841 15.8906C159.486 15.8906 159.179 15.9661 158.919 16.1172C158.664 16.263 158.453 16.4661 158.286 16.7266C158.119 16.987 157.997 17.2865 157.919 17.625C157.841 17.9583 157.802 18.3125 157.802 18.6875ZM167.536 11V23H165.661V11H167.536ZM167.208 18.4609L166.598 18.4531C166.603 17.8698 166.684 17.3307 166.84 16.8359C167.002 16.3411 167.226 15.9115 167.512 15.5469C167.804 15.1771 168.153 14.8932 168.559 14.6953C168.965 14.4922 169.416 14.3906 169.911 14.3906C170.327 14.3906 170.702 14.4479 171.036 14.5625C171.374 14.6771 171.666 14.862 171.911 15.1172C172.155 15.3672 172.34 15.6953 172.465 16.1016C172.596 16.5026 172.661 16.9922 172.661 17.5703V23H170.77V17.5547C170.77 17.1484 170.71 16.8255 170.59 16.5859C170.476 16.3464 170.306 16.1745 170.083 16.0703C169.859 15.9609 169.585 15.9062 169.262 15.9062C168.924 15.9062 168.624 15.974 168.364 16.1094C168.109 16.2448 167.895 16.4297 167.723 16.6641C167.551 16.8984 167.421 17.1693 167.333 17.4766C167.249 17.7839 167.208 18.112 167.208 18.4609ZM176.754 16.3516V23H174.871V14.5469H176.645L176.754 16.3516ZM176.418 18.4609L175.809 18.4531C175.814 17.8542 175.897 17.3047 176.059 16.8047C176.225 16.3047 176.455 15.875 176.746 15.5156C177.043 15.1562 177.397 14.8802 177.809 14.6875C178.22 14.4896 178.679 14.3906 179.184 14.3906C179.59 14.3906 179.957 14.4479 180.285 14.5625C180.619 14.6719 180.902 14.8516 181.137 15.1016C181.376 15.3516 181.559 15.6771 181.684 16.0781C181.809 16.474 181.871 16.9609 181.871 17.5391V23H179.981V17.5312C179.981 17.125 179.921 16.8047 179.801 16.5703C179.686 16.3307 179.517 16.1615 179.293 16.0625C179.074 15.9583 178.801 15.9062 178.473 15.9062C178.15 15.9062 177.861 15.974 177.606 16.1094C177.35 16.2448 177.134 16.4297 176.957 16.6641C176.785 16.8984 176.652 17.1693 176.559 17.4766C176.465 17.7839 176.418 18.112 176.418 18.4609Z" fill="#4A4D5A"/>
</svg>
