<svg width="193" height="36" viewBox="0 0 193 36" fill="none" xmlns="http://www.w3.org/2000/svg">
<path d="M0 10C0 4.47715 4.47715 0 10 0H193V26C193 31.5228 188.523 36 183 36H10C4.47715 36 0 31.5228 0 26V10Z" fill="#FF4E84"/>
<path d="M18.0476 14.728V15.816H23.3276V14.728H18.0476ZM17.6636 22.424V23.528H23.9196V22.424H17.6636ZM20.6716 11.064C21.6316 12.728 23.3916 14.648 25.0716 15.816C25.2476 15.464 25.5196 15 25.7596 14.68C24.0956 13.672 22.3036 11.736 21.2316 9.8H20.0156C19.2156 11.576 17.5196 13.656 15.7116 14.824C15.9356 15.112 16.2396 15.56 16.3676 15.88C18.1596 14.648 19.8236 12.68 20.6716 11.064ZM17.1036 17.64V24.296H18.2716V18.728H23.2796V24.248H24.4796V17.64H17.1036ZM12.0476 11.24V12.36H14.7676V18.744H12.0476V19.864H15.9196V11.24H12.0476ZM11.3436 11.24V21.368H12.4636V11.24H11.3436ZM38.3356 11.192H40.0156V12.92H38.3356V11.192ZM35.8716 11.192H37.4876V12.92H35.8716V11.192ZM33.4556 11.192H35.0236V12.92H33.4556V11.192ZM32.4156 10.28V13.832H41.0876V10.28H32.4156ZM33.4876 13.8C33.2156 14.536 32.6396 15.608 32.2236 16.264L32.9116 16.616C33.3596 15.992 33.9356 15.048 34.4156 14.216L33.4876 13.8ZM34.9756 15.24C34.3356 16.456 33.1996 18.184 32.3196 19.208L32.9596 19.576C33.8716 18.584 35.0076 16.968 35.8556 15.672L34.9756 15.24ZM31.6156 16.216C32.2716 16.808 33.0556 17.672 33.3916 18.248L33.9676 17.432C33.6156 16.888 32.8156 16.088 32.1596 15.496L31.6156 16.216ZM34.9116 20.744C35.2156 21.528 35.4876 22.552 35.5836 23.192L36.3836 22.888C36.3036 22.28 35.9836 21.288 35.6636 20.504L34.9116 20.744ZM34.6396 18.088C35.0876 18.776 35.5196 19.736 35.6636 20.344L36.3996 19.992C36.2236 19.4 35.7756 18.488 35.3276 17.784L34.6396 18.088ZM31.5676 19.032L31.6476 20.008C32.8476 19.944 34.3036 19.88 35.8236 19.784L35.8396 18.904C34.2236 18.952 32.6876 19 31.5676 19.032ZM33.4716 19.352V24.296H34.4316V19.352H33.4716ZM32.0156 20.504C31.8076 21.48 31.4716 22.472 30.9756 23.192C31.2316 23.288 31.6476 23.48 31.8396 23.608C32.2716 22.872 32.6876 21.768 32.9436 20.712L32.0156 20.504ZM37.5836 13.912C37.1196 15.368 36.4156 16.872 35.5836 17.896C35.8076 18.056 36.1916 18.424 36.3516 18.584C37.2156 17.48 38.0476 15.784 38.5596 14.168L37.5836 13.912ZM37.6956 16.04H37.4716L36.7356 16.92V24.264H37.6956V17.016H41.6316V16.04H37.6956ZM39.8716 13.992C39.6636 14.712 39.2476 15.784 38.9276 16.44L39.6956 16.744C40.0476 16.12 40.4636 15.16 40.8476 14.328L39.8716 13.992ZM39.0556 16.44V23.128H39.9676V16.44H39.0556ZM37.2156 18.28V19.176H41.4716V18.28H37.2156ZM37.2156 20.44V21.336H41.5036V20.44H37.2156ZM37.0716 22.664V23.592H41.9036V22.664H37.0716ZM28.2396 11.128V12.216H30.3516V18.984H28.2396V20.088H31.3436V11.128H28.2396ZM27.6476 11.128V21.416H28.6396V11.128H27.6476ZM50.2556 9.64C49.7276 11.992 48.7996 14.296 47.6156 15.784C47.8876 15.96 48.3676 16.344 48.5756 16.552C49.8076 14.92 50.8156 12.456 51.4396 9.896L50.2556 9.64ZM49.9836 16.424C49.5356 18.344 48.7676 20.248 47.7756 21.48C48.0636 21.624 48.5756 21.944 48.8156 22.136C49.7916 20.792 50.6556 18.76 51.1516 16.664L49.9836 16.424ZM50.1116 12.648L49.6476 13.768H57.3116V12.648H50.1116ZM52.5916 13.112V22.824C52.5916 23.032 52.5276 23.096 52.3196 23.096C52.0956 23.096 51.4076 23.112 50.6556 23.08C50.8316 23.432 51.0076 23.96 51.0876 24.296C52.0796 24.296 52.7676 24.264 53.1996 24.056C53.6476 23.864 53.7916 23.512 53.7916 22.824V13.112H52.5916ZM54.9436 16.664C55.8236 18.344 56.6236 20.6 56.8796 22.072L58.0156 21.688C57.7436 20.2 56.9436 17.992 56.0156 16.312L54.9436 16.664ZM56.9596 12.648V12.824C56.7996 13.88 56.5916 15.224 56.4156 16.024L57.4556 16.216C57.6636 15.352 57.9356 13.976 58.1596 12.792L57.3276 12.616L57.1196 12.648H56.9596ZM47.0396 9.624C46.1436 12.056 44.6396 14.456 43.0556 16.008C43.2796 16.28 43.6156 16.92 43.7436 17.192C45.4716 15.4 47.1196 12.696 48.1756 9.976L47.0396 9.624ZM45.3756 13.752V24.264H46.5276V12.632L46.4956 12.616L45.3756 13.752ZM66.2876 10.392V11.512H73.3116V10.392H66.2876ZM65.7436 16.008V17.16H74.5436V16.008H65.7436ZM69.5196 13.88V22.76C69.5196 23 69.4396 23.08 69.1676 23.096C68.8796 23.112 67.9836 23.112 66.9756 23.08C67.1356 23.4 67.3436 23.928 67.4076 24.248C68.6876 24.264 69.5196 24.232 70.0476 24.04C70.5436 23.848 70.7196 23.496 70.7196 22.776V13.88H69.5196ZM72.8796 10.392V10.664C72.2396 11.704 70.9116 13.208 69.7596 14.072C69.9676 14.232 70.3036 14.552 70.4796 14.776C71.7596 13.816 73.2476 12.264 74.2076 10.904L73.4236 10.328L73.1676 10.392H72.8796ZM59.8236 12.872V13.992H65.0876V12.872H59.8236ZM62.2396 9.576C61.6956 12.616 60.7356 16.904 60.0316 19.352L61.0396 19.88C61.7596 17.224 62.7676 12.904 63.3756 9.704L62.2396 9.576ZM60.6236 18.84C62.4156 19.88 64.4796 21.512 65.4396 22.712L66.1596 21.736C65.1996 20.552 63.0876 19.016 61.2956 18.008L60.6236 18.84ZM64.6876 12.872V13.112C64.2876 18.552 62.6236 21.944 59.9516 23.352C60.2076 23.592 60.5436 24.024 60.7036 24.312C63.6476 22.552 65.3916 19.16 65.8236 12.968L65.1036 12.824L64.8796 12.872H64.6876ZM83.69 16.8672L85.1353 16.8594C85.1353 17.3073 85.0728 17.7214 84.9478 18.1016C84.8228 18.4766 84.6457 18.8021 84.4166 19.0781C84.1926 19.3542 83.9218 19.5703 83.6041 19.7266C83.2916 19.8776 82.9478 19.9531 82.5728 19.9531C82.1353 19.9531 81.7473 19.8672 81.4088 19.6953C81.0754 19.5182 80.716 19.2526 80.3306 18.8984C80.091 18.6693 79.8671 18.4948 79.6588 18.375C79.4504 18.25 79.2265 18.1875 78.9869 18.1875C78.7525 18.1875 78.552 18.25 78.3853 18.375C78.2186 18.4948 78.0884 18.6667 77.9947 18.8906C77.9009 19.1146 77.8541 19.375 77.8541 19.6719H76.3697C76.3697 19.2188 76.4322 18.8073 76.5572 18.4375C76.6822 18.0625 76.8567 17.7422 77.0806 17.4766C77.3098 17.2057 77.5806 16.9974 77.8931 16.8516C78.2056 16.7057 78.5494 16.6328 78.9244 16.6328C79.3619 16.6328 79.7551 16.724 80.1041 16.9062C80.4582 17.0885 80.8176 17.349 81.1822 17.6875C81.4322 17.9271 81.6588 18.1068 81.8619 18.2266C82.065 18.3464 82.2811 18.4062 82.5103 18.4062C82.7447 18.4062 82.9504 18.3411 83.1275 18.2109C83.3046 18.0755 83.4426 17.8906 83.5416 17.6562C83.6405 17.4219 83.69 17.1589 83.69 16.8672ZM94.6194 16.8672L96.0647 16.8594C96.0647 17.3073 96.0022 17.7214 95.8772 18.1016C95.7522 18.4766 95.5751 18.8021 95.3459 19.0781C95.122 19.3542 94.8511 19.5703 94.5334 19.7266C94.2209 19.8776 93.8772 19.9531 93.5022 19.9531C93.0647 19.9531 92.6767 19.8672 92.3381 19.6953C92.0048 19.5182 91.6454 19.2526 91.26 18.8984C91.0204 18.6693 90.7965 18.4948 90.5881 18.375C90.3798 18.25 90.1558 18.1875 89.9163 18.1875C89.6819 18.1875 89.4814 18.25 89.3147 18.375C89.148 18.4948 89.0178 18.6667 88.9241 18.8906C88.8303 19.1146 88.7834 19.375 88.7834 19.6719H87.2991C87.2991 19.2188 87.3616 18.8073 87.4866 18.4375C87.6116 18.0625 87.786 17.7422 88.01 17.4766C88.2392 17.2057 88.51 16.9974 88.8225 16.8516C89.135 16.7057 89.4788 16.6328 89.8538 16.6328C90.2913 16.6328 90.6845 16.724 91.0334 16.9062C91.3876 17.0885 91.747 17.349 92.1116 17.6875C92.3616 17.9271 92.5881 18.1068 92.7913 18.2266C92.9944 18.3464 93.2105 18.4062 93.4397 18.4062C93.6741 18.4062 93.8798 18.3411 94.0569 18.2109C94.234 18.0755 94.372 17.8906 94.4709 17.6562C94.5699 17.4219 94.6194 17.1589 94.6194 16.8672ZM108.562 10.616C109.506 11.448 110.594 12.6 111.074 13.368L112.066 12.664C111.538 11.928 110.418 10.792 109.474 9.992L108.562 10.616ZM98.1944 14.296V15.448H112.45V14.296H98.1944ZM97.9544 19L98.3064 20.2C100.322 19.752 103.154 19.096 105.778 18.488L105.682 17.4C102.866 18.008 99.8584 18.648 97.9544 19ZM101.634 11.192V22.728C101.634 23.016 101.538 23.096 101.25 23.096C100.962 23.112 100.018 23.128 98.9944 23.08C99.1704 23.432 99.3784 23.976 99.4424 24.296C100.77 24.312 101.618 24.264 102.13 24.072C102.642 23.88 102.834 23.528 102.834 22.744V11.192H101.634ZM104.674 9.752C103.138 10.328 100.546 10.872 98.2904 11.224C98.4504 11.496 98.5944 11.944 98.6584 12.216C100.946 11.896 103.666 11.4 105.522 10.76L104.674 9.752ZM106.274 9.704C106.338 17.32 107.762 24.344 110.898 24.344C112.098 24.344 112.53 23.56 112.754 20.904C112.418 20.776 111.986 20.504 111.73 20.232C111.634 22.296 111.442 23.128 111.01 23.128C109.058 23.128 107.49 17.048 107.522 9.704H106.274ZM110.61 16.184C109.186 18.888 106.546 21.352 103.698 22.728C104.002 23 104.338 23.384 104.53 23.688C107.474 22.136 110.114 19.56 111.682 16.632L110.61 16.184ZM121.634 11.064V20.568L122.802 20.408V11.064H121.634ZM125.874 9.88V24.312H127.058V9.88H125.874ZM119.362 20.36L119.586 21.48L129.058 19.864L128.834 18.76L119.362 20.36ZM115.538 11.032V12.152H118.498V18.632H115.538V19.752H119.65V11.032H115.538ZM114.834 11.032V21.464H115.954V11.032H114.834ZM136.53 9.752V17.368H137.682V9.752H136.53ZM134.306 12.68V13.784H139.778V12.68H134.306ZM134.738 16.84V23.56H135.794V16.84H134.738ZM135.362 16.84V17.88H138.386V21.464H135.362V22.52H139.458V16.84H135.362ZM141.09 9.576C140.722 12.152 140.066 14.68 138.994 16.328C139.202 16.552 139.602 17.032 139.73 17.256C140.946 15.432 141.714 12.632 142.178 9.752L141.09 9.576ZM141.026 12.68L140.722 13.72H145.314V12.68H141.026ZM143.554 13.096C143.106 18.168 141.922 21.544 138.578 23.48C138.802 23.672 139.202 24.104 139.346 24.312C142.77 22.12 144.082 18.616 144.626 13.176L143.554 13.096ZM141.122 13.4L140.274 13.928C140.626 17.464 141.49 21.992 144.738 24.28C144.898 23.992 145.266 23.56 145.474 23.336C142.306 21.32 141.474 16.92 141.122 13.4ZM133.666 9.656C132.898 12.104 131.634 14.552 130.226 16.152C130.434 16.456 130.754 17.096 130.866 17.368C132.45 15.512 133.874 12.712 134.786 9.96L133.666 9.656ZM132.386 13.576V24.28H133.49V12.52L133.458 12.488L132.386 13.576ZM152.11 19.5859V11.625H154.063V19.5859C154.063 20.3411 153.902 20.9844 153.579 21.5156C153.256 22.0469 152.816 22.4531 152.259 22.7344C151.701 23.0156 151.069 23.1562 150.36 23.1562C149.636 23.1562 148.993 23.0339 148.431 22.7891C147.873 22.5443 147.436 22.1693 147.118 21.6641C146.8 21.1589 146.642 20.5182 146.642 19.7422H148.61C148.61 20.1901 148.681 20.5521 148.821 20.8281C148.967 21.099 149.17 21.2969 149.431 21.4219C149.696 21.5417 150.006 21.6016 150.36 21.6016C150.699 21.6016 150.998 21.526 151.259 21.375C151.524 21.2188 151.733 20.9922 151.884 20.6953C152.035 20.3932 152.11 20.0234 152.11 19.5859ZM156.094 18.8672V18.6875C156.094 18.0781 156.183 17.513 156.36 16.9922C156.537 16.4661 156.792 16.0104 157.126 15.625C157.464 15.2344 157.876 14.9323 158.36 14.7188C158.85 14.5 159.402 14.3906 160.016 14.3906C160.636 14.3906 161.188 14.5 161.673 14.7188C162.162 14.9323 162.576 15.2344 162.915 15.625C163.253 16.0104 163.511 16.4661 163.688 16.9922C163.865 17.513 163.954 18.0781 163.954 18.6875V18.8672C163.954 19.4766 163.865 20.0417 163.688 20.5625C163.511 21.0833 163.253 21.5391 162.915 21.9297C162.576 22.3151 162.165 22.6172 161.68 22.8359C161.196 23.0495 160.646 23.1562 160.032 23.1562C159.412 23.1562 158.857 23.0495 158.368 22.8359C157.883 22.6172 157.472 22.3151 157.133 21.9297C156.795 21.5391 156.537 21.0833 156.36 20.5625C156.183 20.0417 156.094 19.4766 156.094 18.8672ZM157.977 18.6875V18.8672C157.977 19.2474 158.016 19.6068 158.094 19.9453C158.173 20.2839 158.295 20.5807 158.462 20.8359C158.628 21.0911 158.842 21.2917 159.102 21.4375C159.363 21.5833 159.673 21.6562 160.032 21.6562C160.381 21.6562 160.683 21.5833 160.938 21.4375C161.199 21.2917 161.412 21.0911 161.579 20.8359C161.745 20.5807 161.868 20.2839 161.946 19.9453C162.029 19.6068 162.071 19.2474 162.071 18.8672V18.6875C162.071 18.3125 162.029 17.9583 161.946 17.625C161.868 17.2865 161.743 16.987 161.571 16.7266C161.404 16.4661 161.191 16.263 160.93 16.1172C160.675 15.9661 160.37 15.8906 160.016 15.8906C159.662 15.8906 159.355 15.9661 159.094 16.1172C158.839 16.263 158.628 16.4661 158.462 16.7266C158.295 16.987 158.173 17.2865 158.094 17.625C158.016 17.9583 157.977 18.3125 157.977 18.6875ZM167.711 11V23H165.836V11H167.711ZM167.383 18.4609L166.774 18.4531C166.779 17.8698 166.86 17.3307 167.016 16.8359C167.177 16.3411 167.401 15.9115 167.688 15.5469C167.979 15.1771 168.328 14.8932 168.735 14.6953C169.141 14.4922 169.591 14.3906 170.086 14.3906C170.503 14.3906 170.878 14.4479 171.211 14.5625C171.55 14.6771 171.841 14.862 172.086 15.1172C172.331 15.3672 172.516 15.6953 172.641 16.1016C172.771 16.5026 172.836 16.9922 172.836 17.5703V23H170.946V17.5547C170.946 17.1484 170.886 16.8255 170.766 16.5859C170.651 16.3464 170.482 16.1745 170.258 16.0703C170.034 15.9609 169.761 15.9062 169.438 15.9062C169.099 15.9062 168.8 15.974 168.539 16.1094C168.284 16.2448 168.071 16.4297 167.899 16.6641C167.727 16.8984 167.597 17.1693 167.508 17.4766C167.425 17.7839 167.383 18.112 167.383 18.4609ZM176.93 16.3516V23H175.047V14.5469H176.82L176.93 16.3516ZM176.594 18.4609L175.984 18.4531C175.99 17.8542 176.073 17.3047 176.234 16.8047C176.401 16.3047 176.63 15.875 176.922 15.5156C177.219 15.1562 177.573 14.8802 177.984 14.6875C178.396 14.4896 178.854 14.3906 179.359 14.3906C179.766 14.3906 180.133 14.4479 180.461 14.5625C180.794 14.6719 181.078 14.8516 181.312 15.1016C181.552 15.3516 181.734 15.6771 181.859 16.0781C181.984 16.474 182.047 16.9609 182.047 17.5391V23H180.156V17.5312C180.156 17.125 180.096 16.8047 179.977 16.5703C179.862 16.3307 179.693 16.1615 179.469 16.0625C179.25 15.9583 178.977 15.9062 178.648 15.9062C178.326 15.9062 178.036 15.974 177.781 16.1094C177.526 16.2448 177.31 16.4297 177.133 16.6641C176.961 16.8984 176.828 17.1693 176.734 17.4766C176.641 17.7839 176.594 18.112 176.594 18.4609Z" fill="white"/>
</svg>
