<svg width="335" height="90" viewBox="0 0 335 90" fill="none" xmlns="http://www.w3.org/2000/svg">
<g filter="url(#filter0_d_63_604971)">
<rect x="20" y="20" width="295" height="50" rx="25" fill="white"/>
</g>
<path d="M47.77 41.824V42.692H51.648V41.824H47.77ZM46.874 45.646V46.402H49.17V45.646H46.874ZM46.874 47.564V48.362H49.17V47.564H46.874ZM50.346 44.078V49.006H51.116V44.078H50.346ZM49.716 39.276C50.5 40.536 51.886 41.922 53.174 42.748C53.328 42.454 53.538 42.076 53.748 41.824C52.432 41.124 51.018 39.724 50.15 38.296H49.198C48.54 39.626 47.182 41.152 45.782 42.006C45.95 42.23 46.188 42.594 46.3 42.86C47.714 41.95 49.016 40.508 49.716 39.276ZM46.398 43.77V51.078H47.168V44.568H49.016V43.77H46.398ZM48.778 43.77V50.21C48.778 50.322 48.736 50.364 48.638 50.364C48.54 50.364 48.26 50.364 47.938 50.364C48.022 50.574 48.134 50.91 48.162 51.12C48.666 51.12 49.002 51.106 49.254 50.98C49.478 50.826 49.548 50.602 49.548 50.224V43.77H48.778ZM52.222 43.546V50.084C52.222 50.238 52.166 50.28 52.012 50.294C51.858 50.308 51.34 50.308 50.752 50.294C50.864 50.518 50.99 50.868 51.018 51.078C51.844 51.078 52.348 51.078 52.684 50.952C52.992 50.798 53.09 50.56 53.09 50.098V43.546H52.222ZM40.714 39.752V40.69H46.048V39.752H40.714ZM40.546 47.746V48.684H46.006V47.746H40.546ZM42.856 38.24V42.09H43.794V38.24H42.856ZM42.968 42.146V46.22H42.856V51.148H43.794V46.22H43.682V42.146H42.968ZM41.708 44.554H44.942V45.828H41.708V44.554ZM41.708 42.538H44.942V43.798H41.708V42.538ZM40.924 41.74V46.612H45.74V41.74H40.924ZM57.213 39.094V40.158H61.175V39.094H57.213ZM60.643 39.094C60.643 41.726 61.105 47.69 66.705 51.078C66.901 50.826 67.321 50.378 67.559 50.196C62.029 46.92 61.721 41.6 61.721 39.094H60.643ZM60.251 41.838C59.397 45.8 57.647 48.628 54.539 50.252C54.819 50.448 55.295 50.882 55.491 51.106C58.585 49.286 60.433 46.332 61.441 42.062L60.251 41.838ZM70.618 42.272C70.296 43.224 69.68 44.204 68.728 44.764L69.54 45.324C70.562 44.708 71.122 43.63 71.486 42.58L70.618 42.272ZM72.326 42.034V44.778C72.326 45.814 72.69 46.08 74.146 46.08C74.454 46.08 76.652 46.08 76.974 46.08C78.136 46.08 78.43 45.702 78.556 44.162C78.29 44.106 77.912 43.966 77.688 43.826C77.632 45.044 77.52 45.226 76.89 45.226C76.4 45.226 74.566 45.226 74.202 45.226C73.418 45.226 73.278 45.156 73.278 44.778V42.034H72.326ZM72.998 41.222C73.852 41.614 74.902 42.272 75.406 42.762L75.966 42.076C75.434 41.6 74.384 40.984 73.53 40.606L72.998 41.222ZM78.262 42.846C79.214 43.644 80.264 44.806 80.712 45.576L81.524 45.002C81.048 44.218 79.97 43.098 79.018 42.328L78.262 42.846ZM77.562 41.166C75.714 43.672 72.27 45.324 68.588 46.22C68.784 46.444 69.092 46.878 69.204 47.102C72.858 46.066 76.414 44.316 78.472 41.572L77.562 41.166ZM74.496 46.304V50.07H75.574V46.304H74.496ZM70.324 47.102V51.134H71.36V47.102H70.324ZM78.906 47.102V51.092H79.956V47.102H78.906ZM70.842 49.538V50.518H79.466V49.538H70.842ZM74.496 38.254V40.074H75.574V38.254H74.496ZM69.148 39.444V42.188H70.17V40.396H79.956V42.188H81.02V39.444H69.148ZM82.777 38.912V39.878H87.915V38.912H82.777ZM84.219 43.28V44.204H86.459V48.404H84.219V49.328H87.397V43.28H84.219ZM84.471 39.374C84.135 42.006 83.547 44.512 82.441 46.108C82.637 46.332 82.959 46.836 83.057 47.06C84.331 45.226 85.045 42.468 85.479 39.528L84.471 39.374ZM83.757 43.28V50.49H84.681V43.28H83.757ZM89.035 41.04V41.894H94.705V41.04H89.035ZM89.035 43.196V44.064H94.705V43.196H89.035ZM88.517 45.394V46.318H94.663V45.394H88.517ZM91.415 39.318V45.786H92.367V39.318H91.415ZM89.679 47.438C89.833 48.264 89.917 49.328 89.889 50.028L90.659 49.902C90.673 49.216 90.575 48.166 90.407 47.326L89.679 47.438ZM91.163 47.326C91.443 48.012 91.709 48.922 91.793 49.496L92.521 49.286C92.409 48.712 92.143 47.816 91.849 47.144L91.163 47.326ZM92.577 47.018C92.941 47.55 93.333 48.25 93.501 48.712L94.131 48.418C93.949 47.984 93.543 47.284 93.137 46.78L92.577 47.018ZM88.321 47.004C88.195 48.152 87.915 49.37 87.299 50.07L88.041 50.49C88.713 49.72 88.979 48.418 89.119 47.2L88.321 47.004ZM88.517 38.842V45.856H89.483V39.766H95.055V38.842H88.517ZM94.355 45.394V45.562C94.229 48.684 94.061 49.832 93.809 50.112C93.697 50.238 93.585 50.266 93.361 50.266C93.151 50.266 92.591 50.252 91.989 50.196C92.143 50.462 92.241 50.84 92.255 51.12C92.871 51.148 93.473 51.148 93.795 51.12C94.173 51.092 94.411 50.994 94.635 50.728C94.999 50.322 95.153 49.118 95.307 45.828C95.321 45.688 95.321 45.394 95.321 45.394H94.355Z" fill="#4A4D5A"/>
<path d="M277.873 50.129C276.028 48.819 274.568 47.115 273.743 46.039C273.512 45.742 273.387 45.3766 273.387 45.0005C273.387 44.6244 273.512 44.259 273.743 43.962C275.236 42.013 278.818 38 283 38C284.876 38 286.63 38.807 288.13 39.874" stroke="#A8ABBD" stroke-width="2" stroke-linecap="round" stroke-linejoin="round"/>
<path d="M281 51.704C281.649 51.8972 282.323 51.9969 283 52C287.182 52 290.764 47.987 292.257 46.038C292.488 45.7407 292.613 45.3751 292.613 44.9988C292.612 44.6226 292.487 44.2571 292.256 43.96C291.731 43.2755 291.168 42.6211 290.57 42M285.13 42.887C284.852 42.6047 284.521 42.3801 284.157 42.2263C283.792 42.0725 283.4 41.9924 283.004 41.9908C282.608 41.9891 282.215 42.0659 281.849 42.2166C281.483 42.3674 281.15 42.5892 280.87 42.8692C280.59 43.1492 280.368 43.4818 280.217 43.848C280.067 44.2142 279.99 44.6066 279.991 45.0026C279.993 45.3986 280.073 45.7904 280.227 46.1554C280.38 46.5203 280.605 46.8512 280.887 47.129L285.13 42.887ZM275 53L291 37L275 53Z" stroke="#A8ABBD" stroke-width="2" stroke-linecap="round" stroke-linejoin="round"/>
<defs>
<filter id="filter0_d_63_604971" x="0" y="0" width="335" height="90" filterUnits="userSpaceOnUse" color-interpolation-filters="sRGB">
<feFlood flood-opacity="0" result="BackgroundImageFix"/>
<feColorMatrix in="SourceAlpha" type="matrix" values="0 0 0 0 0 0 0 0 0 0 0 0 0 0 0 0 0 0 127 0" result="hardAlpha"/>
<feOffset/>
<feGaussianBlur stdDeviation="10"/>
<feComposite in2="hardAlpha" operator="out"/>
<feColorMatrix type="matrix" values="0 0 0 0 0 0 0 0 0 0 0 0 0 0 0 0 0 0 0.25 0"/>
<feBlend mode="normal" in2="BackgroundImageFix" result="effect1_dropShadow_63_604971"/>
<feBlend mode="normal" in="SourceGraphic" in2="effect1_dropShadow_63_604971" result="shape"/>
</filter>
</defs>
</svg>
