<svg width="295" height="50" viewBox="0 0 295 50" fill="none" xmlns="http://www.w3.org/2000/svg">
<rect x="75" width="220" height="50" rx="25" fill="#4A4D5A"/>
<path d="M99.77 21.824V22.692H103.648V21.824H99.77ZM98.874 25.646V26.402H101.17V25.646H98.874ZM98.874 27.564V28.362H101.17V27.564H98.874ZM102.346 24.078V29.006H103.116V24.078H102.346ZM101.716 19.276C102.5 20.536 103.886 21.922 105.174 22.748C105.328 22.454 105.538 22.076 105.748 21.824C104.432 21.124 103.018 19.724 102.15 18.296H101.198C100.54 19.626 99.182 21.152 97.782 22.006C97.95 22.23 98.188 22.594 98.3 22.86C99.714 21.95 101.016 20.508 101.716 19.276ZM98.398 23.77V31.078H99.168V24.568H101.016V23.77H98.398ZM100.778 23.77V30.21C100.778 30.322 100.736 30.364 100.638 30.364C100.54 30.364 100.26 30.364 99.938 30.364C100.022 30.574 100.134 30.91 100.162 31.12C100.666 31.12 101.002 31.106 101.254 30.98C101.478 30.826 101.548 30.602 101.548 30.224V23.77H100.778ZM104.222 23.546V30.084C104.222 30.238 104.166 30.28 104.012 30.294C103.858 30.308 103.34 30.308 102.752 30.294C102.864 30.518 102.99 30.868 103.018 31.078C103.844 31.078 104.348 31.078 104.684 30.952C104.992 30.798 105.09 30.56 105.09 30.098V23.546H104.222ZM92.714 19.752V20.69H98.048V19.752H92.714ZM92.546 27.746V28.684H98.006V27.746H92.546ZM94.856 18.24V22.09H95.794V18.24H94.856ZM94.968 22.146V26.22H94.856V31.148H95.794V26.22H95.682V22.146H94.968ZM93.708 24.554H96.942V25.828H93.708V24.554ZM93.708 22.538H96.942V23.798H93.708V22.538ZM92.924 21.74V26.612H97.74V21.74H92.924ZM109.213 19.094V20.158H113.175V19.094H109.213ZM112.643 19.094C112.643 21.726 113.105 27.69 118.705 31.078C118.901 30.826 119.321 30.378 119.559 30.196C114.029 26.92 113.721 21.6 113.721 19.094H112.643ZM112.251 21.838C111.397 25.8 109.647 28.628 106.539 30.252C106.819 30.448 107.295 30.882 107.491 31.106C110.585 29.286 112.433 26.332 113.441 22.062L112.251 21.838ZM121.596 21.376V31.134H122.66V22.412H132.068V21.376H121.596ZM131.55 21.376V29.748C131.55 29.972 131.48 30.042 131.228 30.056C130.962 30.07 130.066 30.07 129.156 30.042C129.31 30.336 129.478 30.812 129.52 31.12C130.696 31.12 131.522 31.106 131.998 30.938C132.474 30.756 132.614 30.42 132.614 29.762V21.376H131.55ZM124.046 18.87V19.808H127.042V18.87H124.046ZM126.328 18.87V19.388H126.552C126.762 23.462 127.84 26.416 130.654 27.816C130.822 27.536 131.172 27.13 131.396 26.906C128.652 25.73 127.658 22.902 127.49 18.87H126.328ZM126.44 21.656C126.076 24.288 124.9 26.038 122.786 27.074C123.01 27.242 123.346 27.648 123.5 27.886C125.754 26.724 126.958 24.708 127.434 21.824L126.44 21.656ZM138.739 21.166C137.941 22.188 136.625 23.168 135.365 23.798C135.589 23.994 135.967 24.414 136.121 24.624C137.395 23.882 138.823 22.72 139.747 21.488L138.739 21.166ZM142.309 21.754C143.611 22.566 145.179 23.756 145.935 24.568L146.719 23.854C145.921 23.056 144.311 21.894 143.023 21.152L142.309 21.754ZM141.119 23.686C142.421 25.268 144.885 27.018 146.971 27.998C147.139 27.704 147.391 27.312 147.629 27.06C145.473 26.178 143.079 24.512 141.581 22.72H140.531C139.425 24.316 137.101 26.178 134.735 27.256C134.945 27.48 135.211 27.872 135.337 28.124C137.675 26.99 139.971 25.198 141.119 23.686ZM137.241 26.43V31.134H138.263V27.368H143.933V31.078H144.997V26.43H137.241ZM137.731 29.72V30.658H144.493V29.72H137.731ZM140.531 18.24V20.074H141.609V18.24H140.531ZM135.253 19.542V22.09H136.289V20.494H145.879V22.09H146.943V19.542H135.253Z" fill="#A8ABBD"/>
<rect width="69" height="50" rx="25" fill="#4A4D5A"/>
<path d="M24.3555 24.6611V25.8506H17.5332V24.6611H24.3555ZM21.5801 21.7559V29.002H20.3154V21.7559H21.5801ZM32.0809 27.3066C32.0809 27.9128 31.9396 28.4277 31.6571 28.8516C31.3791 29.2708 31.0008 29.5898 30.5223 29.8086C30.0483 30.0273 29.5129 30.1367 28.9159 30.1367C28.3189 30.1367 27.7811 30.0273 27.3026 29.8086C26.8241 29.5898 26.4458 29.2708 26.1678 28.8516C25.8898 28.4277 25.7508 27.9128 25.7508 27.3066C25.7508 26.9102 25.826 26.5479 25.9764 26.2197C26.1314 25.887 26.3478 25.5977 26.6258 25.3516C26.9084 25.1055 27.2411 24.9163 27.6239 24.7842C28.0112 24.6475 28.4373 24.5791 28.9022 24.5791C29.5129 24.5791 30.0575 24.6976 30.536 24.9346C31.0145 25.167 31.3905 25.4883 31.6639 25.8984C31.9419 26.3086 32.0809 26.778 32.0809 27.3066ZM30.8094 27.2793C30.8094 26.9102 30.7297 26.5843 30.5702 26.3018C30.4107 26.0146 30.1873 25.7913 29.9002 25.6318C29.6131 25.4723 29.2804 25.3926 28.9022 25.3926C28.5148 25.3926 28.1799 25.4723 27.8973 25.6318C27.6193 25.7913 27.4028 26.0146 27.2479 26.3018C27.0929 26.5843 27.0155 26.9102 27.0155 27.2793C27.0155 27.6621 27.0907 27.9902 27.2411 28.2637C27.396 28.5326 27.6148 28.7399 27.8973 28.8857C28.1844 29.027 28.5239 29.0977 28.9159 29.0977C29.3078 29.0977 29.645 29.027 29.9276 28.8857C30.2101 28.7399 30.4266 28.5326 30.577 28.2637C30.7319 27.9902 30.8094 27.6621 30.8094 27.2793ZM31.8485 22.6377C31.8485 23.1208 31.7209 23.556 31.4657 23.9434C31.2105 24.3307 30.8618 24.6361 30.4198 24.8594C29.9777 25.0827 29.4764 25.1943 28.9159 25.1943C28.3462 25.1943 27.8381 25.0827 27.3914 24.8594C26.9494 24.6361 26.603 24.3307 26.3524 23.9434C26.1017 23.556 25.9764 23.1208 25.9764 22.6377C25.9764 22.0589 26.1017 21.5667 26.3524 21.1611C26.6076 20.7555 26.9562 20.4456 27.3983 20.2314C27.8403 20.0173 28.3439 19.9102 28.909 19.9102C29.4787 19.9102 29.9845 20.0173 30.4266 20.2314C30.8687 20.4456 31.215 20.7555 31.4657 21.1611C31.7209 21.5667 31.8485 22.0589 31.8485 22.6377ZM30.5838 22.6582C30.5838 22.3255 30.5132 22.0316 30.3719 21.7764C30.2306 21.5212 30.0347 21.3206 29.784 21.1748C29.5334 21.0244 29.2417 20.9492 28.909 20.9492C28.5763 20.9492 28.2847 21.0199 28.034 21.1611C27.7879 21.2979 27.5942 21.4938 27.453 21.749C27.3162 22.0042 27.2479 22.3073 27.2479 22.6582C27.2479 23 27.3162 23.2985 27.453 23.5537C27.5942 23.8089 27.7902 24.0072 28.0409 24.1484C28.2915 24.2897 28.5832 24.3604 28.9159 24.3604C29.2485 24.3604 29.5379 24.2897 29.784 24.1484C30.0347 24.0072 30.2306 23.8089 30.3719 23.5537C30.5132 23.2985 30.5838 23 30.5838 22.6582ZM39.9909 27.3066C39.9909 27.9128 39.8496 28.4277 39.5671 28.8516C39.2891 29.2708 38.9108 29.5898 38.4323 29.8086C37.9583 30.0273 37.4229 30.1367 36.8259 30.1367C36.2289 30.1367 35.6911 30.0273 35.2126 29.8086C34.7341 29.5898 34.3558 29.2708 34.0778 28.8516C33.7998 28.4277 33.6608 27.9128 33.6608 27.3066C33.6608 26.9102 33.736 26.5479 33.8864 26.2197C34.0414 25.887 34.2578 25.5977 34.5358 25.3516C34.8184 25.1055 35.1511 24.9163 35.5339 24.7842C35.9212 24.6475 36.3473 24.5791 36.8122 24.5791C37.4229 24.5791 37.9675 24.6976 38.446 24.9346C38.9245 25.167 39.3005 25.4883 39.5739 25.8984C39.8519 26.3086 39.9909 26.778 39.9909 27.3066ZM38.7194 27.2793C38.7194 26.9102 38.6397 26.5843 38.4802 26.3018C38.3207 26.0146 38.0973 25.7913 37.8102 25.6318C37.5231 25.4723 37.1904 25.3926 36.8122 25.3926C36.4248 25.3926 36.0899 25.4723 35.8073 25.6318C35.5293 25.7913 35.3128 26.0146 35.1579 26.3018C35.0029 26.5843 34.9255 26.9102 34.9255 27.2793C34.9255 27.6621 35.0007 27.9902 35.1511 28.2637C35.306 28.5326 35.5248 28.7399 35.8073 28.8857C36.0944 29.027 36.4339 29.0977 36.8259 29.0977C37.2178 29.0977 37.555 29.027 37.8376 28.8857C38.1201 28.7399 38.3366 28.5326 38.487 28.2637C38.6419 27.9902 38.7194 27.6621 38.7194 27.2793ZM39.7585 22.6377C39.7585 23.1208 39.6309 23.556 39.3757 23.9434C39.1205 24.3307 38.7718 24.6361 38.3298 24.8594C37.8877 25.0827 37.3864 25.1943 36.8259 25.1943C36.2562 25.1943 35.7481 25.0827 35.3014 24.8594C34.8594 24.6361 34.513 24.3307 34.2624 23.9434C34.0117 23.556 33.8864 23.1208 33.8864 22.6377C33.8864 22.0589 34.0117 21.5667 34.2624 21.1611C34.5176 20.7555 34.8662 20.4456 35.3083 20.2314C35.7503 20.0173 36.2539 19.9102 36.819 19.9102C37.3887 19.9102 37.8945 20.0173 38.3366 20.2314C38.7787 20.4456 39.125 20.7555 39.3757 21.1611C39.6309 21.5667 39.7585 22.0589 39.7585 22.6377ZM38.4938 22.6582C38.4938 22.3255 38.4232 22.0316 38.2819 21.7764C38.1406 21.5212 37.9447 21.3206 37.694 21.1748C37.4434 21.0244 37.1517 20.9492 36.819 20.9492C36.4863 20.9492 36.1947 21.0199 35.944 21.1611C35.6979 21.2979 35.5042 21.4938 35.363 21.749C35.2262 22.0042 35.1579 22.3073 35.1579 22.6582C35.1579 23 35.2262 23.2985 35.363 23.5537C35.5042 23.8089 35.7002 24.0072 35.9509 24.1484C36.2015 24.2897 36.4932 24.3604 36.8259 24.3604C37.1585 24.3604 37.4479 24.2897 37.694 24.1484C37.9447 24.0072 38.1406 23.8089 38.2819 23.5537C38.4232 23.2985 38.4938 23 38.4938 22.6582ZM46.479 20.0332H46.5884V21.1064H46.479C45.8091 21.1064 45.2486 21.2158 44.7974 21.4346C44.3462 21.6488 43.9885 21.9382 43.7241 22.3027C43.4598 22.6628 43.2684 23.0684 43.1499 23.5195C43.036 23.9707 42.979 24.4287 42.979 24.8936V26.3564C42.979 26.7985 43.0314 27.1904 43.1362 27.5322C43.2411 27.8695 43.3846 28.1543 43.5669 28.3867C43.7492 28.6191 43.9543 28.7946 44.1821 28.9131C44.4146 29.0316 44.6561 29.0908 44.9068 29.0908C45.1984 29.0908 45.4582 29.0361 45.6861 28.9268C45.9139 28.8128 46.1053 28.6556 46.2603 28.4551C46.4198 28.25 46.5405 28.0085 46.6226 27.7305C46.7046 27.4525 46.7456 27.1471 46.7456 26.8145C46.7456 26.5182 46.7092 26.2334 46.6362 25.96C46.5633 25.682 46.4517 25.4359 46.3013 25.2217C46.1509 25.0029 45.9618 24.832 45.7339 24.709C45.5106 24.5814 45.244 24.5176 44.9341 24.5176C44.5832 24.5176 44.2551 24.6042 43.9497 24.7773C43.6489 24.946 43.4006 25.1693 43.2046 25.4473C43.0132 25.7207 42.9038 26.0192 42.8765 26.3428L42.2066 26.3359C42.2704 25.8255 42.3889 25.3903 42.562 25.0303C42.7398 24.6657 42.9585 24.3695 43.2183 24.1416C43.4826 23.9092 43.7765 23.7406 44.1001 23.6357C44.4282 23.5264 44.7746 23.4717 45.1392 23.4717C45.6359 23.4717 46.0643 23.5651 46.4243 23.752C46.7844 23.9388 47.0806 24.1895 47.313 24.5039C47.5454 24.8138 47.7163 25.1647 47.8257 25.5566C47.9396 25.944 47.9966 26.3428 47.9966 26.7529C47.9966 27.2223 47.9305 27.6621 47.7984 28.0723C47.6662 28.4824 47.468 28.8424 47.2036 29.1523C46.9439 29.4622 46.6226 29.7038 46.2398 29.877C45.857 30.0501 45.4126 30.1367 44.9068 30.1367C44.369 30.1367 43.8996 30.0273 43.4986 29.8086C43.0975 29.5853 42.7648 29.2891 42.5005 28.9199C42.2362 28.5508 42.0379 28.1406 41.9058 27.6895C41.7736 27.2383 41.7075 26.7803 41.7075 26.3154V25.7207C41.7075 25.0189 41.7782 24.3307 41.9195 23.6562C42.0607 22.9818 42.3045 22.3711 42.6509 21.8242C43.0018 21.2773 43.4872 20.8421 44.107 20.5186C44.7267 20.195 45.5174 20.0332 46.479 20.0332Z" fill="white"/>
</svg>
